%TF.GenerationSoftware,KiCad,Pcbnew,9.0.6-9.0.6~ubuntu24.04.1*%
%TF.CreationDate,2025-11-22T16:00:11+08:00*%
%TF.ProjectId,tinybee,74696e79-6265-4652-9e6b-696361645f70,1.1*%
%TF.SameCoordinates,Original*%
%TF.FileFunction,Paste,Top*%
%TF.FilePolarity,Positive*%
%FSLAX46Y46*%
G04 Gerber Fmt 4.6, Leading zero omitted, Abs format (unit mm)*
G04 Created by KiCad (PCBNEW 9.0.6-9.0.6~ubuntu24.04.1) date 2025-11-22 16:00:11*
%MOMM*%
%LPD*%
G01*
G04 APERTURE LIST*
G04 Aperture macros list*
%AMRoundRect*
0 Rectangle with rounded corners*
0 $1 Rounding radius*
0 $2 $3 $4 $5 $6 $7 $8 $9 X,Y pos of 4 corners*
0 Add a 4 corners polygon primitive as box body*
4,1,4,$2,$3,$4,$5,$6,$7,$8,$9,$2,$3,0*
0 Add four circle primitives for the rounded corners*
1,1,$1+$1,$2,$3*
1,1,$1+$1,$4,$5*
1,1,$1+$1,$6,$7*
1,1,$1+$1,$8,$9*
0 Add four rect primitives between the rounded corners*
20,1,$1+$1,$2,$3,$4,$5,0*
20,1,$1+$1,$4,$5,$6,$7,0*
20,1,$1+$1,$6,$7,$8,$9,0*
20,1,$1+$1,$8,$9,$2,$3,0*%
G04 Aperture macros list end*
%ADD10RoundRect,0.135000X-0.135000X-0.185000X0.135000X-0.185000X0.135000X0.185000X-0.135000X0.185000X0*%
%ADD11RoundRect,0.150000X-0.150000X-0.625000X0.150000X-0.625000X0.150000X0.625000X-0.150000X0.625000X0*%
%ADD12RoundRect,0.250000X-0.350000X-0.650000X0.350000X-0.650000X0.350000X0.650000X-0.350000X0.650000X0*%
%ADD13RoundRect,0.135000X-0.185000X0.135000X-0.185000X-0.135000X0.185000X-0.135000X0.185000X0.135000X0*%
%ADD14RoundRect,0.075000X-0.700000X-0.075000X0.700000X-0.075000X0.700000X0.075000X-0.700000X0.075000X0*%
%ADD15RoundRect,0.075000X-0.075000X-0.700000X0.075000X-0.700000X0.075000X0.700000X-0.075000X0.700000X0*%
%ADD16RoundRect,0.140000X0.140000X0.170000X-0.140000X0.170000X-0.140000X-0.170000X0.140000X-0.170000X0*%
%ADD17RoundRect,0.135000X0.135000X0.185000X-0.135000X0.185000X-0.135000X-0.185000X0.135000X-0.185000X0*%
%ADD18RoundRect,0.135000X0.185000X-0.135000X0.185000X0.135000X-0.185000X0.135000X-0.185000X-0.135000X0*%
%ADD19RoundRect,0.140000X-0.170000X0.140000X-0.170000X-0.140000X0.170000X-0.140000X0.170000X0.140000X0*%
%ADD20RoundRect,0.150000X0.150000X0.625000X-0.150000X0.625000X-0.150000X-0.625000X0.150000X-0.625000X0*%
%ADD21RoundRect,0.250000X0.350000X0.650000X-0.350000X0.650000X-0.350000X-0.650000X0.350000X-0.650000X0*%
%ADD22RoundRect,0.147500X-0.147500X-0.172500X0.147500X-0.172500X0.147500X0.172500X-0.147500X0.172500X0*%
%ADD23RoundRect,0.150000X0.625000X-0.150000X0.625000X0.150000X-0.625000X0.150000X-0.625000X-0.150000X0*%
%ADD24RoundRect,0.250000X0.650000X-0.350000X0.650000X0.350000X-0.650000X0.350000X-0.650000X-0.350000X0*%
%ADD25RoundRect,0.105000X-0.395000X-0.245000X0.395000X-0.245000X0.395000X0.245000X-0.395000X0.245000X0*%
%ADD26RoundRect,0.087500X-0.087500X0.225000X-0.087500X-0.225000X0.087500X-0.225000X0.087500X0.225000X0*%
%ADD27RoundRect,0.087500X-0.225000X0.087500X-0.225000X-0.087500X0.225000X-0.087500X0.225000X0.087500X0*%
%ADD28RoundRect,0.140000X-0.140000X-0.170000X0.140000X-0.170000X0.140000X0.170000X-0.140000X0.170000X0*%
%ADD29RoundRect,0.162500X0.650000X0.162500X-0.650000X0.162500X-0.650000X-0.162500X0.650000X-0.162500X0*%
%ADD30R,0.500000X0.350000*%
%ADD31RoundRect,0.150000X-0.150000X0.587500X-0.150000X-0.587500X0.150000X-0.587500X0.150000X0.587500X0*%
%ADD32RoundRect,0.140000X0.170000X-0.140000X0.170000X0.140000X-0.170000X0.140000X-0.170000X-0.140000X0*%
%ADD33RoundRect,0.105000X0.395000X0.245000X-0.395000X0.245000X-0.395000X-0.245000X0.395000X-0.245000X0*%
%ADD34RoundRect,0.250000X-1.000000X-0.650000X1.000000X-0.650000X1.000000X0.650000X-1.000000X0.650000X0*%
%ADD35RoundRect,0.250000X-0.350000X0.450000X-0.350000X-0.450000X0.350000X-0.450000X0.350000X0.450000X0*%
%ADD36RoundRect,0.150000X0.500000X-0.150000X0.500000X0.150000X-0.500000X0.150000X-0.500000X-0.150000X0*%
%ADD37RoundRect,0.075000X0.575000X-0.075000X0.575000X0.075000X-0.575000X0.075000X-0.575000X-0.075000X0*%
G04 APERTURE END LIST*
D10*
%TO.C,R23*%
X133221000Y-81940400D03*
X134241000Y-81940400D03*
%TD*%
D11*
%TO.C,J2*%
X132637400Y-113493800D03*
X133637400Y-113493800D03*
X134637400Y-113493800D03*
X135637400Y-113493800D03*
D12*
X131337400Y-117368800D03*
X136937400Y-117368800D03*
%TD*%
D13*
%TO.C,R3*%
X141579600Y-103274400D03*
X141579600Y-104294400D03*
%TD*%
D14*
%TO.C,U1*%
X134335000Y-91705000D03*
X134335000Y-92205000D03*
X134335000Y-92705000D03*
X134335000Y-93205000D03*
X134335000Y-93705000D03*
X134335000Y-94205000D03*
X134335000Y-94705000D03*
X134335000Y-95205000D03*
X134335000Y-95705000D03*
X134335000Y-96205000D03*
X134335000Y-96705000D03*
X134335000Y-97205000D03*
X134335000Y-97705000D03*
X134335000Y-98205000D03*
X134335000Y-98705000D03*
X134335000Y-99205000D03*
D15*
X136260000Y-101130000D03*
X136760000Y-101130000D03*
X137260000Y-101130000D03*
X137760000Y-101130000D03*
X138260000Y-101130000D03*
X138760000Y-101130000D03*
X139260000Y-101130000D03*
X139760000Y-101130000D03*
X140260000Y-101130000D03*
X140760000Y-101130000D03*
X141260000Y-101130000D03*
X141760000Y-101130000D03*
X142260000Y-101130000D03*
X142760000Y-101130000D03*
X143260000Y-101130000D03*
X143760000Y-101130000D03*
D14*
X145685000Y-99205000D03*
X145685000Y-98705000D03*
X145685000Y-98205000D03*
X145685000Y-97705000D03*
X145685000Y-97205000D03*
X145685000Y-96705000D03*
X145685000Y-96205000D03*
X145685000Y-95705000D03*
X145685000Y-95205000D03*
X145685000Y-94705000D03*
X145685000Y-94205000D03*
X145685000Y-93705000D03*
X145685000Y-93205000D03*
X145685000Y-92705000D03*
X145685000Y-92205000D03*
X145685000Y-91705000D03*
D15*
X143760000Y-89780000D03*
X143260000Y-89780000D03*
X142760000Y-89780000D03*
X142260000Y-89780000D03*
X141760000Y-89780000D03*
X141260000Y-89780000D03*
X140760000Y-89780000D03*
X140260000Y-89780000D03*
X139760000Y-89780000D03*
X139260000Y-89780000D03*
X138760000Y-89780000D03*
X138260000Y-89780000D03*
X137760000Y-89780000D03*
X137260000Y-89780000D03*
X136760000Y-89780000D03*
X136260000Y-89780000D03*
%TD*%
D16*
%TO.C,C2*%
X128394000Y-100586000D03*
X127434000Y-100586000D03*
%TD*%
D17*
%TO.C,R5*%
X128250000Y-88103550D03*
X127230000Y-88103550D03*
%TD*%
%TO.C,R11*%
X135275000Y-108720000D03*
X134255000Y-108720000D03*
%TD*%
D16*
%TO.C,C17*%
X132077400Y-86531400D03*
X131117400Y-86531400D03*
%TD*%
D18*
%TO.C,R10*%
X146815000Y-108010000D03*
X146815000Y-106990000D03*
%TD*%
D19*
%TO.C,C13*%
X126466000Y-104132900D03*
X126466000Y-105092900D03*
%TD*%
D20*
%TO.C,J8*%
X141390000Y-83351600D03*
X140390000Y-83351600D03*
X139390000Y-83351600D03*
D21*
X142690000Y-79476600D03*
X138090000Y-79476600D03*
%TD*%
D10*
%TO.C,R22*%
X128953800Y-81940400D03*
X129973800Y-81940400D03*
%TD*%
D17*
%TO.C,R20*%
X150799800Y-100914200D03*
X149779800Y-100914200D03*
%TD*%
D10*
%TO.C,R2*%
X123979500Y-99166000D03*
X124999500Y-99166000D03*
%TD*%
D22*
%TO.C,D1*%
X121458000Y-95906000D03*
X122428000Y-95906000D03*
%TD*%
D17*
%TO.C,R21*%
X150799800Y-98531177D03*
X149779800Y-98531177D03*
%TD*%
D23*
%TO.C,J7*%
X155230000Y-90980000D03*
X155230000Y-89980000D03*
X155230000Y-88980000D03*
X155230000Y-87980000D03*
D24*
X159105000Y-92280000D03*
X159105000Y-86680000D03*
%TD*%
D13*
%TO.C,R18*%
X150289800Y-103247222D03*
X150289800Y-104267222D03*
%TD*%
D22*
%TO.C,D2*%
X121458000Y-99166000D03*
X122428000Y-99166000D03*
%TD*%
D19*
%TO.C,C3*%
X144120000Y-103296267D03*
X144120000Y-104256267D03*
%TD*%
D20*
%TO.C,J4*%
X150140800Y-83351600D03*
X149140800Y-83351600D03*
X148140800Y-83351600D03*
X147140800Y-83351600D03*
D21*
X151440800Y-79476600D03*
X145840800Y-79476600D03*
%TD*%
D25*
%TO.C,SW2*%
X121125000Y-86521400D03*
X125625000Y-86521400D03*
X121125000Y-88671400D03*
X125625000Y-88671400D03*
%TD*%
D17*
%TO.C,R9*%
X137924000Y-87465000D03*
X136904000Y-87465000D03*
%TD*%
D26*
%TO.C,U2*%
X130036000Y-103637900D03*
X129536000Y-103637900D03*
X129036000Y-103637900D03*
X128536000Y-103637900D03*
D27*
X128373500Y-104300400D03*
X128373500Y-104800400D03*
X128373500Y-105300400D03*
D26*
X128536000Y-105962900D03*
X129036000Y-105962900D03*
X129536000Y-105962900D03*
X130036000Y-105962900D03*
D27*
X130198500Y-105300400D03*
X130198500Y-104800400D03*
X130198500Y-104300400D03*
%TD*%
D17*
%TO.C,R7*%
X137924000Y-85293200D03*
X136904000Y-85293200D03*
%TD*%
D28*
%TO.C,C10*%
X127240000Y-86531400D03*
X128200000Y-86531400D03*
%TD*%
D18*
%TO.C,R19*%
X150289800Y-96198155D03*
X150289800Y-95178155D03*
%TD*%
D19*
%TO.C,C8*%
X145770600Y-103296267D03*
X145770600Y-104256267D03*
%TD*%
D28*
%TO.C,C9*%
X147980000Y-90550000D03*
X148940000Y-90550000D03*
%TD*%
%TO.C,C15*%
X128216000Y-107632900D03*
X129176000Y-107632900D03*
%TD*%
D29*
%TO.C,U4*%
X144575000Y-110540000D03*
X144575000Y-109270000D03*
X144575000Y-108000000D03*
X144575000Y-106730000D03*
X137400000Y-106730000D03*
X137400000Y-108000000D03*
X137400000Y-109270000D03*
X137400000Y-110540000D03*
%TD*%
D28*
%TO.C,C4*%
X147980000Y-92060000D03*
X148940000Y-92060000D03*
%TD*%
D30*
%TO.C,U3*%
X135403700Y-85426700D03*
X135403700Y-86076700D03*
X135403700Y-86726700D03*
X135403700Y-87376700D03*
X133803700Y-87376700D03*
X133803700Y-86726700D03*
X133803700Y-86076700D03*
X133803700Y-85426700D03*
%TD*%
D17*
%TO.C,R8*%
X132127400Y-88103550D03*
X131107400Y-88103550D03*
%TD*%
D31*
%TO.C,Q1*%
X132547400Y-79301100D03*
X130647400Y-79301100D03*
X131597400Y-81176100D03*
%TD*%
D32*
%TO.C,C12*%
X131597400Y-98016000D03*
X131597400Y-97056000D03*
%TD*%
D16*
%TO.C,C7*%
X137500000Y-103251000D03*
X136540000Y-103251000D03*
%TD*%
D33*
%TO.C,SW1*%
X125625000Y-92850000D03*
X121125000Y-92850000D03*
X125625000Y-90700000D03*
X121125000Y-90700000D03*
%TD*%
D16*
%TO.C,C16*%
X132077400Y-85040200D03*
X131117400Y-85040200D03*
%TD*%
D10*
%TO.C,R6*%
X127230000Y-89685700D03*
X128250000Y-89685700D03*
%TD*%
D34*
%TO.C,D3*%
X154320000Y-108270000D03*
X158320000Y-108270000D03*
%TD*%
D16*
%TO.C,C18*%
X135225000Y-110080000D03*
X134265000Y-110080000D03*
%TD*%
D35*
%TO.C,Y1*%
X127006000Y-96436000D03*
X127006000Y-98636000D03*
X128706000Y-98636000D03*
X128706000Y-96436000D03*
%TD*%
D17*
%TO.C,R4*%
X128250000Y-92830000D03*
X127230000Y-92830000D03*
%TD*%
D28*
%TO.C,C1*%
X127318000Y-94486000D03*
X128278000Y-94486000D03*
%TD*%
D10*
%TO.C,R1*%
X123979500Y-95906000D03*
X124999500Y-95906000D03*
%TD*%
D16*
%TO.C,C11*%
X132077400Y-89675700D03*
X131117400Y-89675700D03*
%TD*%
D28*
%TO.C,C6*%
X127240000Y-91257850D03*
X128200000Y-91257850D03*
%TD*%
D16*
%TO.C,C5*%
X132077400Y-91257850D03*
X131117400Y-91257850D03*
%TD*%
D19*
%TO.C,C14*%
X126466000Y-106702900D03*
X126466000Y-107662900D03*
%TD*%
D36*
%TO.C,J1*%
X154040000Y-102960000D03*
X154040000Y-102160000D03*
D37*
X154040000Y-101010000D03*
X154040000Y-100010000D03*
X154040000Y-99510000D03*
X154040000Y-98510000D03*
D36*
X154040000Y-97360000D03*
X154040000Y-96560000D03*
X154040000Y-96560000D03*
X154040000Y-97360000D03*
D37*
X154040000Y-98010000D03*
X154040000Y-99010000D03*
X154040000Y-100510000D03*
X154040000Y-101510000D03*
D36*
X154040000Y-102160000D03*
X154040000Y-102960000D03*
%TD*%
D11*
%TO.C,J5*%
X145631400Y-113487200D03*
X146631400Y-113487200D03*
X147631400Y-113487200D03*
X148631400Y-113487200D03*
X149631400Y-113487200D03*
D12*
X144331400Y-117362200D03*
X150931400Y-117362200D03*
%TD*%
M02*
