M48
; DRILL file {KiCad 9.0.6-9.0.6~ubuntu24.04.1} date 2025-11-22T16:00:08+0800
; FORMAT={-:-/ absolute / metric / decimal}
; #@! TF.CreationDate,2025-11-22T16:00:08+08:00
; #@! TF.GenerationSoftware,Kicad,Pcbnew,9.0.6-9.0.6~ubuntu24.04.1
; #@! TF.FileFunction,Plated,1,4,PTH
FMAT,2
METRIC
; #@! TA.AperFunction,Plated,PTH,ViaDrill
T1C0.300
; #@! TA.AperFunction,Plated,PTH,ComponentDrill
T2C0.600
%
G90
G05
T1
X121.26Y-83.337
X121.26Y-113.614
X121.387Y-102.794
X121.387Y-105.283
X121.463Y-99.162
X121.488Y-107.544
X121.691Y-94.132
X121.742Y-97.028
X122.199Y-80.543
X122.276Y-116.129
X122.428Y-95.906
X122.428Y-99.166
X122.693Y-89.789
X123.774Y-94.463
X123.979Y-95.906
X123.979Y-99.166
X124.155Y-91.973
X124.334Y-103.303
X124.612Y-93.65
X124.739Y-79.553
X124.799Y-97.028
X124.968Y-117.323
X125.095Y-110.033
X125.628Y-86.512
X125.781Y-101.829
X126.466Y-105.093
X126.466Y-107.663
X126.949Y-88.849
X127.0Y-103.2
X127.762Y-109.169
X128.143Y-83.134
X128.25Y-92.83
X128.651Y-84.379
X128.706Y-96.436
X129.154Y-79.654
X129.33Y-117.365
X129.565Y-86.817
X129.667Y-100.508
X129.743Y-94.132
X130.048Y-115.113
X130.124Y-109.495
X130.124Y-110.515
X130.454Y-98.171
X130.574Y-92.118
X131.0Y-100.216
X131.293Y-96.063
X131.337Y-117.369
X131.445Y-108.864
X132.029Y-94.805
X132.08Y-91.262
X132.13Y-106.858
X132.13Y-110.465
X132.131Y-109.499
X132.276Y-99.789
X132.659Y-107.919
X132.74Y-96.19
X132.841Y-105.095
X132.867Y-85.852
X133.096Y-88.417
X133.604Y-83.896
X133.731Y-79.654
X133.846Y-104.191
X133.907Y-89.074
X134.061Y-107.671
X134.091Y-105.819
X134.091Y-106.779
X134.747Y-84.963
X134.93Y-117.365
X135.217Y-112.179
X135.28Y-90.449
X135.322Y-104.419
X135.322Y-106.415
X135.322Y-107.365
X135.357Y-101.346
X135.397Y-111.212
X135.458Y-105.308
X135.681Y-89.71
X135.738Y-115.316
X135.76Y-102.22
X135.788Y-93.574
X135.788Y-97.688
X136.296Y-80.67
X136.627Y-95.555
X136.804Y-99.746
X136.937Y-117.369
X137.973Y-99.517
X137.998Y-83.083
X138.1Y-102.565
X138.76Y-92.1
X138.836Y-111.963
X138.913Y-94.386
X139.08Y-115.801
X139.217Y-85.573
X139.878Y-102.997
X139.962Y-107.484
X140.183Y-81.534
X140.208Y-112.014
X140.462Y-115.113
X140.589Y-79.604
X140.614Y-103.634
X141.402Y-93.751
X141.757Y-85.344
X142.037Y-81.331
X142.088Y-97.714
X142.291Y-98.73
X142.646Y-94.971
X143.256Y-88.163
X143.256Y-96.723
X143.32Y-117.365
X143.434Y-113.665
X144.069Y-94.945
X144.331Y-117.362
X144.348Y-93.091
X144.424Y-84.811
X144.475Y-101.854
X144.653Y-85.903
X144.958Y-103.279
X144.958Y-104.239
X145.821Y-102.133
X145.948Y-107.41
X145.974Y-115.316
X146.025Y-116.611
X146.66Y-100.127
X146.736Y-90.551
X146.99Y-87.274
X147.091Y-85.903
X147.447Y-97.663
X147.904Y-94.666
X148.184Y-100.127
X148.209Y-108.61
X148.26Y-95.758
X148.793Y-81.356
X148.94Y-92.05
X148.946Y-86.309
X149.606Y-109.372
X150.089Y-86.309
X150.901Y-106.985
X150.931Y-117.362
X151.105Y-111.989
X151.333Y-86.309
X152.273Y-89.205
X153.772Y-90.627
X154.32Y-108.27
X154.407Y-92.583
X155.397Y-79.502
X155.397Y-117.323
X157.988Y-80.493
X157.988Y-116.205
X158.725Y-89.687
X159.029Y-83.287
X159.055Y-113.665
X159.105Y-86.68
X159.105Y-92.28
T2
G00X154.13Y-95.44
M15
G01X155.23Y-95.44
M16
G05
G00X154.13Y-104.08
M15
G01X155.23Y-104.08
M16
G05
G00X158.56Y-95.44
M15
G01X159.16Y-95.44
M16
G05
G00X158.56Y-104.08
M15
G01X159.16Y-104.08
M16
G05
M30
