%TF.GenerationSoftware,KiCad,Pcbnew,9.0.6-9.0.6~ubuntu24.04.1*%
%TF.CreationDate,2025-11-22T16:00:11+08:00*%
%TF.ProjectId,tinybee,74696e79-6265-4652-9e6b-696361645f70,1.1*%
%TF.SameCoordinates,Original*%
%TF.FileFunction,Legend,Top*%
%TF.FilePolarity,Positive*%
%FSLAX46Y46*%
G04 Gerber Fmt 4.6, Leading zero omitted, Abs format (unit mm)*
G04 Created by KiCad (PCBNEW 9.0.6-9.0.6~ubuntu24.04.1) date 2025-11-22 16:00:11*
%MOMM*%
%LPD*%
G01*
G04 APERTURE LIST*
%ADD10C,0.150000*%
%ADD11C,0.100000*%
%ADD12C,0.200000*%
%ADD13C,0.120000*%
%ADD14C,0.000000*%
G04 APERTURE END LIST*
D10*
X139423533Y-84902884D02*
X139390200Y-85002884D01*
X139390200Y-85002884D02*
X139356866Y-85036217D01*
X139356866Y-85036217D02*
X139290200Y-85069550D01*
X139290200Y-85069550D02*
X139190200Y-85069550D01*
X139190200Y-85069550D02*
X139123533Y-85036217D01*
X139123533Y-85036217D02*
X139090200Y-85002884D01*
X139090200Y-85002884D02*
X139056866Y-84936217D01*
X139056866Y-84936217D02*
X139056866Y-84669550D01*
X139056866Y-84669550D02*
X139756866Y-84669550D01*
X139756866Y-84669550D02*
X139756866Y-84902884D01*
X139756866Y-84902884D02*
X139723533Y-84969550D01*
X139723533Y-84969550D02*
X139690200Y-85002884D01*
X139690200Y-85002884D02*
X139623533Y-85036217D01*
X139623533Y-85036217D02*
X139556866Y-85036217D01*
X139556866Y-85036217D02*
X139490200Y-85002884D01*
X139490200Y-85002884D02*
X139456866Y-84969550D01*
X139456866Y-84969550D02*
X139423533Y-84902884D01*
X139423533Y-84902884D02*
X139423533Y-84669550D01*
X139323533Y-85369550D02*
X139323533Y-85902884D01*
X149450338Y-111892039D02*
X149587146Y-111516162D01*
X150176527Y-111943515D02*
X149518742Y-111704101D01*
X149644149Y-111359547D02*
X149792358Y-110952347D01*
X149792358Y-110952347D02*
X149963138Y-111262814D01*
X149963138Y-111262814D02*
X149997340Y-111168845D01*
X149997340Y-111168845D02*
X150051464Y-111117599D01*
X150051464Y-111117599D02*
X150094188Y-111097677D01*
X150094188Y-111097677D02*
X150168235Y-111089155D01*
X150168235Y-111089155D02*
X150324851Y-111146158D01*
X150324851Y-111146158D02*
X150376096Y-111200283D01*
X150376096Y-111200283D02*
X150396018Y-111243006D01*
X150396018Y-111243006D02*
X150404540Y-111317053D01*
X150404540Y-111317053D02*
X150336136Y-111504992D01*
X150336136Y-111504992D02*
X150282012Y-111556237D01*
X150282012Y-111556237D02*
X150239288Y-111576160D01*
X122444084Y-89633666D02*
X122544084Y-89667000D01*
X122544084Y-89667000D02*
X122577417Y-89700333D01*
X122577417Y-89700333D02*
X122610750Y-89767000D01*
X122610750Y-89767000D02*
X122610750Y-89867000D01*
X122610750Y-89867000D02*
X122577417Y-89933666D01*
X122577417Y-89933666D02*
X122544084Y-89967000D01*
X122544084Y-89967000D02*
X122477417Y-90000333D01*
X122477417Y-90000333D02*
X122210750Y-90000333D01*
X122210750Y-90000333D02*
X122210750Y-89300333D01*
X122210750Y-89300333D02*
X122444084Y-89300333D01*
X122444084Y-89300333D02*
X122510750Y-89333666D01*
X122510750Y-89333666D02*
X122544084Y-89367000D01*
X122544084Y-89367000D02*
X122577417Y-89433666D01*
X122577417Y-89433666D02*
X122577417Y-89500333D01*
X122577417Y-89500333D02*
X122544084Y-89567000D01*
X122544084Y-89567000D02*
X122510750Y-89600333D01*
X122510750Y-89600333D02*
X122444084Y-89633666D01*
X122444084Y-89633666D02*
X122210750Y-89633666D01*
X123044084Y-89300333D02*
X123177417Y-89300333D01*
X123177417Y-89300333D02*
X123244084Y-89333666D01*
X123244084Y-89333666D02*
X123310750Y-89400333D01*
X123310750Y-89400333D02*
X123344084Y-89533666D01*
X123344084Y-89533666D02*
X123344084Y-89767000D01*
X123344084Y-89767000D02*
X123310750Y-89900333D01*
X123310750Y-89900333D02*
X123244084Y-89967000D01*
X123244084Y-89967000D02*
X123177417Y-90000333D01*
X123177417Y-90000333D02*
X123044084Y-90000333D01*
X123044084Y-90000333D02*
X122977417Y-89967000D01*
X122977417Y-89967000D02*
X122910750Y-89900333D01*
X122910750Y-89900333D02*
X122877417Y-89767000D01*
X122877417Y-89767000D02*
X122877417Y-89533666D01*
X122877417Y-89533666D02*
X122910750Y-89400333D01*
X122910750Y-89400333D02*
X122977417Y-89333666D01*
X122977417Y-89333666D02*
X123044084Y-89300333D01*
X123777417Y-89300333D02*
X123910750Y-89300333D01*
X123910750Y-89300333D02*
X123977417Y-89333666D01*
X123977417Y-89333666D02*
X124044083Y-89400333D01*
X124044083Y-89400333D02*
X124077417Y-89533666D01*
X124077417Y-89533666D02*
X124077417Y-89767000D01*
X124077417Y-89767000D02*
X124044083Y-89900333D01*
X124044083Y-89900333D02*
X123977417Y-89967000D01*
X123977417Y-89967000D02*
X123910750Y-90000333D01*
X123910750Y-90000333D02*
X123777417Y-90000333D01*
X123777417Y-90000333D02*
X123710750Y-89967000D01*
X123710750Y-89967000D02*
X123644083Y-89900333D01*
X123644083Y-89900333D02*
X123610750Y-89767000D01*
X123610750Y-89767000D02*
X123610750Y-89533666D01*
X123610750Y-89533666D02*
X123644083Y-89400333D01*
X123644083Y-89400333D02*
X123710750Y-89333666D01*
X123710750Y-89333666D02*
X123777417Y-89300333D01*
X124277416Y-89300333D02*
X124677416Y-89300333D01*
X124477416Y-90000333D02*
X124477416Y-89300333D01*
D11*
X121291989Y-97267333D02*
X120958655Y-97267333D01*
X120958655Y-97267333D02*
X120958655Y-96567333D01*
X121525322Y-96900666D02*
X121758656Y-96900666D01*
X121858656Y-97267333D02*
X121525322Y-97267333D01*
X121525322Y-97267333D02*
X121525322Y-96567333D01*
X121525322Y-96567333D02*
X121858656Y-96567333D01*
X122158655Y-97267333D02*
X122158655Y-96567333D01*
X122158655Y-96567333D02*
X122325322Y-96567333D01*
X122325322Y-96567333D02*
X122425322Y-96600666D01*
X122425322Y-96600666D02*
X122491989Y-96667333D01*
X122491989Y-96667333D02*
X122525322Y-96734000D01*
X122525322Y-96734000D02*
X122558655Y-96867333D01*
X122558655Y-96867333D02*
X122558655Y-96967333D01*
X122558655Y-96967333D02*
X122525322Y-97100666D01*
X122525322Y-97100666D02*
X122491989Y-97167333D01*
X122491989Y-97167333D02*
X122425322Y-97234000D01*
X122425322Y-97234000D02*
X122325322Y-97267333D01*
X122325322Y-97267333D02*
X122158655Y-97267333D01*
X122991989Y-96567333D02*
X123058655Y-96567333D01*
X123058655Y-96567333D02*
X123125322Y-96600666D01*
X123125322Y-96600666D02*
X123158655Y-96634000D01*
X123158655Y-96634000D02*
X123191989Y-96700666D01*
X123191989Y-96700666D02*
X123225322Y-96834000D01*
X123225322Y-96834000D02*
X123225322Y-97000666D01*
X123225322Y-97000666D02*
X123191989Y-97134000D01*
X123191989Y-97134000D02*
X123158655Y-97200666D01*
X123158655Y-97200666D02*
X123125322Y-97234000D01*
X123125322Y-97234000D02*
X123058655Y-97267333D01*
X123058655Y-97267333D02*
X122991989Y-97267333D01*
X122991989Y-97267333D02*
X122925322Y-97234000D01*
X122925322Y-97234000D02*
X122891989Y-97200666D01*
X122891989Y-97200666D02*
X122858655Y-97134000D01*
X122858655Y-97134000D02*
X122825322Y-97000666D01*
X122825322Y-97000666D02*
X122825322Y-96834000D01*
X122825322Y-96834000D02*
X122858655Y-96700666D01*
X122858655Y-96700666D02*
X122891989Y-96634000D01*
X122891989Y-96634000D02*
X122925322Y-96600666D01*
X122925322Y-96600666D02*
X122991989Y-96567333D01*
D10*
X149519466Y-85036217D02*
X149552799Y-84969550D01*
X149552799Y-84969550D02*
X149552799Y-84869550D01*
X149552799Y-84869550D02*
X149519466Y-84769550D01*
X149519466Y-84769550D02*
X149452799Y-84702884D01*
X149452799Y-84702884D02*
X149386133Y-84669550D01*
X149386133Y-84669550D02*
X149252799Y-84636217D01*
X149252799Y-84636217D02*
X149152799Y-84636217D01*
X149152799Y-84636217D02*
X149019466Y-84669550D01*
X149019466Y-84669550D02*
X148952799Y-84702884D01*
X148952799Y-84702884D02*
X148886133Y-84769550D01*
X148886133Y-84769550D02*
X148852799Y-84869550D01*
X148852799Y-84869550D02*
X148852799Y-84936217D01*
X148852799Y-84936217D02*
X148886133Y-85036217D01*
X148886133Y-85036217D02*
X148919466Y-85069550D01*
X148919466Y-85069550D02*
X149152799Y-85069550D01*
X149152799Y-85069550D02*
X149152799Y-84936217D01*
X152101950Y-90621133D02*
X152535283Y-90621133D01*
X152535283Y-90621133D02*
X152301950Y-90887800D01*
X152301950Y-90887800D02*
X152401950Y-90887800D01*
X152401950Y-90887800D02*
X152468616Y-90921133D01*
X152468616Y-90921133D02*
X152501950Y-90954466D01*
X152501950Y-90954466D02*
X152535283Y-91021133D01*
X152535283Y-91021133D02*
X152535283Y-91187800D01*
X152535283Y-91187800D02*
X152501950Y-91254466D01*
X152501950Y-91254466D02*
X152468616Y-91287800D01*
X152468616Y-91287800D02*
X152401950Y-91321133D01*
X152401950Y-91321133D02*
X152201950Y-91321133D01*
X152201950Y-91321133D02*
X152135283Y-91287800D01*
X152135283Y-91287800D02*
X152101950Y-91254466D01*
X152735283Y-90621133D02*
X152968617Y-91321133D01*
X152968617Y-91321133D02*
X153201950Y-90621133D01*
X153368617Y-90621133D02*
X153801950Y-90621133D01*
X153801950Y-90621133D02*
X153568617Y-90887800D01*
X153568617Y-90887800D02*
X153668617Y-90887800D01*
X153668617Y-90887800D02*
X153735283Y-90921133D01*
X153735283Y-90921133D02*
X153768617Y-90954466D01*
X153768617Y-90954466D02*
X153801950Y-91021133D01*
X153801950Y-91021133D02*
X153801950Y-91187800D01*
X153801950Y-91187800D02*
X153768617Y-91254466D01*
X153768617Y-91254466D02*
X153735283Y-91287800D01*
X153735283Y-91287800D02*
X153668617Y-91321133D01*
X153668617Y-91321133D02*
X153468617Y-91321133D01*
X153468617Y-91321133D02*
X153401950Y-91287800D01*
X153401950Y-91287800D02*
X153368617Y-91254466D01*
X151901950Y-88189000D02*
X152001950Y-88222333D01*
X152001950Y-88222333D02*
X152168617Y-88222333D01*
X152168617Y-88222333D02*
X152235283Y-88189000D01*
X152235283Y-88189000D02*
X152268617Y-88155666D01*
X152268617Y-88155666D02*
X152301950Y-88089000D01*
X152301950Y-88089000D02*
X152301950Y-88022333D01*
X152301950Y-88022333D02*
X152268617Y-87955666D01*
X152268617Y-87955666D02*
X152235283Y-87922333D01*
X152235283Y-87922333D02*
X152168617Y-87889000D01*
X152168617Y-87889000D02*
X152035283Y-87855666D01*
X152035283Y-87855666D02*
X151968617Y-87822333D01*
X151968617Y-87822333D02*
X151935283Y-87789000D01*
X151935283Y-87789000D02*
X151901950Y-87722333D01*
X151901950Y-87722333D02*
X151901950Y-87655666D01*
X151901950Y-87655666D02*
X151935283Y-87589000D01*
X151935283Y-87589000D02*
X151968617Y-87555666D01*
X151968617Y-87555666D02*
X152035283Y-87522333D01*
X152035283Y-87522333D02*
X152201950Y-87522333D01*
X152201950Y-87522333D02*
X152301950Y-87555666D01*
X152535284Y-87522333D02*
X152701950Y-88222333D01*
X152701950Y-88222333D02*
X152835284Y-87722333D01*
X152835284Y-87722333D02*
X152968617Y-88222333D01*
X152968617Y-88222333D02*
X153135284Y-87522333D01*
X153801950Y-88155666D02*
X153768617Y-88189000D01*
X153768617Y-88189000D02*
X153668617Y-88222333D01*
X153668617Y-88222333D02*
X153601950Y-88222333D01*
X153601950Y-88222333D02*
X153501950Y-88189000D01*
X153501950Y-88189000D02*
X153435284Y-88122333D01*
X153435284Y-88122333D02*
X153401950Y-88055666D01*
X153401950Y-88055666D02*
X153368617Y-87922333D01*
X153368617Y-87922333D02*
X153368617Y-87822333D01*
X153368617Y-87822333D02*
X153401950Y-87689000D01*
X153401950Y-87689000D02*
X153435284Y-87622333D01*
X153435284Y-87622333D02*
X153501950Y-87555666D01*
X153501950Y-87555666D02*
X153601950Y-87522333D01*
X153601950Y-87522333D02*
X153668617Y-87522333D01*
X153668617Y-87522333D02*
X153768617Y-87555666D01*
X153768617Y-87555666D02*
X153801950Y-87589000D01*
X146415470Y-111464917D02*
X146361346Y-111516162D01*
X146361346Y-111516162D02*
X146327144Y-111610131D01*
X146327144Y-111610131D02*
X146324265Y-111715501D01*
X146324265Y-111715501D02*
X146364110Y-111800949D01*
X146364110Y-111800949D02*
X146415355Y-111855073D01*
X146415355Y-111855073D02*
X146529247Y-111931999D01*
X146529247Y-111931999D02*
X146623216Y-111966201D01*
X146623216Y-111966201D02*
X146759909Y-111980481D01*
X146759909Y-111980481D02*
X146833956Y-111971959D01*
X146833956Y-111971959D02*
X146919404Y-111932114D01*
X146919404Y-111932114D02*
X146984929Y-111849545D01*
X146984929Y-111849545D02*
X147007730Y-111786899D01*
X147007730Y-111786899D02*
X147010609Y-111681529D01*
X147010609Y-111681529D02*
X146990687Y-111638806D01*
X146990687Y-111638806D02*
X146771425Y-111559001D01*
X146771425Y-111559001D02*
X146725822Y-111684293D01*
X145208538Y-111892039D02*
X145946128Y-111912192D01*
X145946128Y-111912192D02*
X145368147Y-111453516D01*
X145840988Y-111128999D02*
X145906513Y-111046431D01*
X145906513Y-111046431D02*
X145949237Y-111026508D01*
X145949237Y-111026508D02*
X146023283Y-111017987D01*
X146023283Y-111017987D02*
X146117253Y-111052189D01*
X146117253Y-111052189D02*
X146168498Y-111106313D01*
X146168498Y-111106313D02*
X146188421Y-111149037D01*
X146188421Y-111149037D02*
X146196942Y-111223084D01*
X146196942Y-111223084D02*
X146105737Y-111473668D01*
X146105737Y-111473668D02*
X145447952Y-111234254D01*
X145447952Y-111234254D02*
X145527757Y-111014993D01*
X145527757Y-111014993D02*
X145581881Y-110963747D01*
X145581881Y-110963747D02*
X145624605Y-110943825D01*
X145624605Y-110943825D02*
X145698652Y-110935303D01*
X145698652Y-110935303D02*
X145761298Y-110958104D01*
X145761298Y-110958104D02*
X145812544Y-111012229D01*
X145812544Y-111012229D02*
X145832466Y-111054953D01*
X145832466Y-111054953D02*
X145840988Y-111128999D01*
X145840988Y-111128999D02*
X145761183Y-111348261D01*
X146145812Y-110778803D02*
X146259819Y-110465572D01*
X146310949Y-110909853D02*
X145732969Y-110451177D01*
X145732969Y-110451177D02*
X146470558Y-110471330D01*
X145858376Y-110106623D02*
X145995184Y-109730746D01*
X146584565Y-110158099D02*
X145926780Y-109918685D01*
X141814266Y-85002884D02*
X141814266Y-84669550D01*
X141814266Y-84669550D02*
X141480933Y-84636217D01*
X141480933Y-84636217D02*
X141514266Y-84669550D01*
X141514266Y-84669550D02*
X141547600Y-84736217D01*
X141547600Y-84736217D02*
X141547600Y-84902884D01*
X141547600Y-84902884D02*
X141514266Y-84969550D01*
X141514266Y-84969550D02*
X141480933Y-85002884D01*
X141480933Y-85002884D02*
X141414266Y-85036217D01*
X141414266Y-85036217D02*
X141247600Y-85036217D01*
X141247600Y-85036217D02*
X141180933Y-85002884D01*
X141180933Y-85002884D02*
X141147600Y-84969550D01*
X141147600Y-84969550D02*
X141114266Y-84902884D01*
X141114266Y-84902884D02*
X141114266Y-84736217D01*
X141114266Y-84736217D02*
X141147600Y-84669550D01*
X141147600Y-84669550D02*
X141180933Y-84636217D01*
X141814266Y-85236217D02*
X141114266Y-85469551D01*
X141114266Y-85469551D02*
X141814266Y-85702884D01*
X140752233Y-85036217D02*
X140785566Y-84969550D01*
X140785566Y-84969550D02*
X140785566Y-84869550D01*
X140785566Y-84869550D02*
X140752233Y-84769550D01*
X140752233Y-84769550D02*
X140685566Y-84702884D01*
X140685566Y-84702884D02*
X140618900Y-84669550D01*
X140618900Y-84669550D02*
X140485566Y-84636217D01*
X140485566Y-84636217D02*
X140385566Y-84636217D01*
X140385566Y-84636217D02*
X140252233Y-84669550D01*
X140252233Y-84669550D02*
X140185566Y-84702884D01*
X140185566Y-84702884D02*
X140118900Y-84769550D01*
X140118900Y-84769550D02*
X140085566Y-84869550D01*
X140085566Y-84869550D02*
X140085566Y-84936217D01*
X140085566Y-84936217D02*
X140118900Y-85036217D01*
X140118900Y-85036217D02*
X140152233Y-85069550D01*
X140152233Y-85069550D02*
X140385566Y-85069550D01*
X140385566Y-85069550D02*
X140385566Y-84936217D01*
X132199547Y-111551704D02*
X132085540Y-111864935D01*
X132085540Y-111864935D02*
X132387370Y-112010265D01*
X132387370Y-112010265D02*
X132367448Y-111967541D01*
X132367448Y-111967541D02*
X132358926Y-111893494D01*
X132358926Y-111893494D02*
X132415929Y-111736879D01*
X132415929Y-111736879D02*
X132470054Y-111685633D01*
X132470054Y-111685633D02*
X132512778Y-111665711D01*
X132512778Y-111665711D02*
X132586824Y-111657189D01*
X132586824Y-111657189D02*
X132743440Y-111714192D01*
X132743440Y-111714192D02*
X132794685Y-111768317D01*
X132794685Y-111768317D02*
X132814608Y-111811040D01*
X132814608Y-111811040D02*
X132823130Y-111885087D01*
X132823130Y-111885087D02*
X132766126Y-112041703D01*
X132766126Y-112041703D02*
X132712002Y-112092948D01*
X132712002Y-112092948D02*
X132669278Y-112112871D01*
X132279352Y-111332442D02*
X133016941Y-111352595D01*
X133016941Y-111352595D02*
X132438961Y-110893919D01*
X151901950Y-89221933D02*
X152001950Y-89255266D01*
X152001950Y-89255266D02*
X152168617Y-89255266D01*
X152168617Y-89255266D02*
X152235283Y-89221933D01*
X152235283Y-89221933D02*
X152268617Y-89188599D01*
X152268617Y-89188599D02*
X152301950Y-89121933D01*
X152301950Y-89121933D02*
X152301950Y-89055266D01*
X152301950Y-89055266D02*
X152268617Y-88988599D01*
X152268617Y-88988599D02*
X152235283Y-88955266D01*
X152235283Y-88955266D02*
X152168617Y-88921933D01*
X152168617Y-88921933D02*
X152035283Y-88888599D01*
X152035283Y-88888599D02*
X151968617Y-88855266D01*
X151968617Y-88855266D02*
X151935283Y-88821933D01*
X151935283Y-88821933D02*
X151901950Y-88755266D01*
X151901950Y-88755266D02*
X151901950Y-88688599D01*
X151901950Y-88688599D02*
X151935283Y-88621933D01*
X151935283Y-88621933D02*
X151968617Y-88588599D01*
X151968617Y-88588599D02*
X152035283Y-88555266D01*
X152035283Y-88555266D02*
X152201950Y-88555266D01*
X152201950Y-88555266D02*
X152301950Y-88588599D01*
X152535284Y-88555266D02*
X152701950Y-89255266D01*
X152701950Y-89255266D02*
X152835284Y-88755266D01*
X152835284Y-88755266D02*
X152968617Y-89255266D01*
X152968617Y-89255266D02*
X153135284Y-88555266D01*
X153401950Y-89255266D02*
X153401950Y-88555266D01*
X153401950Y-88555266D02*
X153568617Y-88555266D01*
X153568617Y-88555266D02*
X153668617Y-88588599D01*
X153668617Y-88588599D02*
X153735284Y-88655266D01*
X153735284Y-88655266D02*
X153768617Y-88721933D01*
X153768617Y-88721933D02*
X153801950Y-88855266D01*
X153801950Y-88855266D02*
X153801950Y-88955266D01*
X153801950Y-88955266D02*
X153768617Y-89088599D01*
X153768617Y-89088599D02*
X153735284Y-89155266D01*
X153735284Y-89155266D02*
X153668617Y-89221933D01*
X153668617Y-89221933D02*
X153568617Y-89255266D01*
X153568617Y-89255266D02*
X153401950Y-89255266D01*
X134994061Y-111728472D02*
X134601025Y-111833727D01*
X134857253Y-112104349D02*
X134199468Y-111864935D01*
X134199468Y-111864935D02*
X134290673Y-111614350D01*
X134290673Y-111614350D02*
X134344798Y-111563105D01*
X134344798Y-111563105D02*
X134387522Y-111543182D01*
X134387522Y-111543182D02*
X134461568Y-111534660D01*
X134461568Y-111534660D02*
X134555538Y-111568863D01*
X134555538Y-111568863D02*
X134606783Y-111622987D01*
X134606783Y-111622987D02*
X134626706Y-111665711D01*
X134626706Y-111665711D02*
X134635227Y-111739758D01*
X134635227Y-111739758D02*
X134544022Y-111990342D01*
X134490128Y-111261274D02*
X134470205Y-111218551D01*
X134470205Y-111218551D02*
X134461683Y-111144504D01*
X134461683Y-111144504D02*
X134518687Y-110987888D01*
X134518687Y-110987888D02*
X134572811Y-110936643D01*
X134572811Y-110936643D02*
X134615535Y-110916720D01*
X134615535Y-110916720D02*
X134689582Y-110908199D01*
X134689582Y-110908199D02*
X134752228Y-110931000D01*
X134752228Y-110931000D02*
X134834797Y-110996525D01*
X134834797Y-110996525D02*
X135073866Y-111509210D01*
X135073866Y-111509210D02*
X135222074Y-111102010D01*
D11*
X121266589Y-100493133D02*
X120933255Y-100493133D01*
X120933255Y-100493133D02*
X120933255Y-99793133D01*
X121499922Y-100126466D02*
X121733256Y-100126466D01*
X121833256Y-100493133D02*
X121499922Y-100493133D01*
X121499922Y-100493133D02*
X121499922Y-99793133D01*
X121499922Y-99793133D02*
X121833256Y-99793133D01*
X122133255Y-100493133D02*
X122133255Y-99793133D01*
X122133255Y-99793133D02*
X122299922Y-99793133D01*
X122299922Y-99793133D02*
X122399922Y-99826466D01*
X122399922Y-99826466D02*
X122466589Y-99893133D01*
X122466589Y-99893133D02*
X122499922Y-99959800D01*
X122499922Y-99959800D02*
X122533255Y-100093133D01*
X122533255Y-100093133D02*
X122533255Y-100193133D01*
X122533255Y-100193133D02*
X122499922Y-100326466D01*
X122499922Y-100326466D02*
X122466589Y-100393133D01*
X122466589Y-100393133D02*
X122399922Y-100459800D01*
X122399922Y-100459800D02*
X122299922Y-100493133D01*
X122299922Y-100493133D02*
X122133255Y-100493133D01*
X123199922Y-100493133D02*
X122799922Y-100493133D01*
X122999922Y-100493133D02*
X122999922Y-99793133D01*
X122999922Y-99793133D02*
X122933255Y-99893133D01*
X122933255Y-99893133D02*
X122866589Y-99959800D01*
X122866589Y-99959800D02*
X122799922Y-99993133D01*
D10*
X133309070Y-111531782D02*
X133254946Y-111583027D01*
X133254946Y-111583027D02*
X133220744Y-111676996D01*
X133220744Y-111676996D02*
X133217865Y-111782366D01*
X133217865Y-111782366D02*
X133257710Y-111867814D01*
X133257710Y-111867814D02*
X133308955Y-111921938D01*
X133308955Y-111921938D02*
X133422847Y-111998864D01*
X133422847Y-111998864D02*
X133516816Y-112033066D01*
X133516816Y-112033066D02*
X133653509Y-112047346D01*
X133653509Y-112047346D02*
X133727556Y-112038824D01*
X133727556Y-112038824D02*
X133813004Y-111998979D01*
X133813004Y-111998979D02*
X133878529Y-111916410D01*
X133878529Y-111916410D02*
X133901330Y-111853764D01*
X133901330Y-111853764D02*
X133904209Y-111748394D01*
X133904209Y-111748394D02*
X133884287Y-111705671D01*
X133884287Y-111705671D02*
X133665025Y-111625866D01*
X133665025Y-111625866D02*
X133619422Y-111751158D01*
X147453066Y-84569550D02*
X147453066Y-84969550D01*
X146753066Y-84769550D02*
X147453066Y-84769550D01*
X147453066Y-85536217D02*
X147453066Y-85202883D01*
X147453066Y-85202883D02*
X147119733Y-85169550D01*
X147119733Y-85169550D02*
X147153066Y-85202883D01*
X147153066Y-85202883D02*
X147186400Y-85269550D01*
X147186400Y-85269550D02*
X147186400Y-85436217D01*
X147186400Y-85436217D02*
X147153066Y-85502883D01*
X147153066Y-85502883D02*
X147119733Y-85536217D01*
X147119733Y-85536217D02*
X147053066Y-85569550D01*
X147053066Y-85569550D02*
X146886400Y-85569550D01*
X146886400Y-85569550D02*
X146819733Y-85536217D01*
X146819733Y-85536217D02*
X146786400Y-85502883D01*
X146786400Y-85502883D02*
X146753066Y-85436217D01*
X146753066Y-85436217D02*
X146753066Y-85269550D01*
X146753066Y-85269550D02*
X146786400Y-85202883D01*
X146786400Y-85202883D02*
X146819733Y-85169550D01*
X149186933Y-111661607D02*
X148793897Y-111766862D01*
X149050125Y-112037484D02*
X148392340Y-111798070D01*
X148392340Y-111798070D02*
X148483545Y-111547485D01*
X148483545Y-111547485D02*
X148537670Y-111496240D01*
X148537670Y-111496240D02*
X148580394Y-111476317D01*
X148580394Y-111476317D02*
X148654440Y-111467795D01*
X148654440Y-111467795D02*
X148748410Y-111501998D01*
X148748410Y-111501998D02*
X148799655Y-111556122D01*
X148799655Y-111556122D02*
X148819578Y-111598846D01*
X148819578Y-111598846D02*
X148828099Y-111672893D01*
X148828099Y-111672893D02*
X148736894Y-111923477D01*
X148608953Y-111202931D02*
X148757161Y-110795731D01*
X148757161Y-110795731D02*
X148927941Y-111106198D01*
X148927941Y-111106198D02*
X148962144Y-111012229D01*
X148962144Y-111012229D02*
X149016268Y-110960983D01*
X149016268Y-110960983D02*
X149058992Y-110941061D01*
X149058992Y-110941061D02*
X149133039Y-110932539D01*
X149133039Y-110932539D02*
X149289654Y-110989542D01*
X149289654Y-110989542D02*
X149340899Y-111043667D01*
X149340899Y-111043667D02*
X149360822Y-111086391D01*
X149360822Y-111086391D02*
X149369344Y-111160438D01*
X149369344Y-111160438D02*
X149300940Y-111348376D01*
X149300940Y-111348376D02*
X149246815Y-111399622D01*
X149246815Y-111399622D02*
X149204091Y-111419544D01*
X150602666Y-85002884D02*
X150602666Y-84669550D01*
X150602666Y-84669550D02*
X150269333Y-84636217D01*
X150269333Y-84636217D02*
X150302666Y-84669550D01*
X150302666Y-84669550D02*
X150336000Y-84736217D01*
X150336000Y-84736217D02*
X150336000Y-84902884D01*
X150336000Y-84902884D02*
X150302666Y-84969550D01*
X150302666Y-84969550D02*
X150269333Y-85002884D01*
X150269333Y-85002884D02*
X150202666Y-85036217D01*
X150202666Y-85036217D02*
X150036000Y-85036217D01*
X150036000Y-85036217D02*
X149969333Y-85002884D01*
X149969333Y-85002884D02*
X149936000Y-84969550D01*
X149936000Y-84969550D02*
X149902666Y-84902884D01*
X149902666Y-84902884D02*
X149902666Y-84736217D01*
X149902666Y-84736217D02*
X149936000Y-84669550D01*
X149936000Y-84669550D02*
X149969333Y-84636217D01*
X150602666Y-85236217D02*
X149902666Y-85469551D01*
X149902666Y-85469551D02*
X150602666Y-85702884D01*
X135353338Y-111958904D02*
X135490146Y-111583027D01*
X136079527Y-112010380D02*
X135421742Y-111770966D01*
X135621196Y-111417890D02*
X135601274Y-111375166D01*
X135601274Y-111375166D02*
X135592752Y-111301120D01*
X135592752Y-111301120D02*
X135649755Y-111144504D01*
X135649755Y-111144504D02*
X135703880Y-111093259D01*
X135703880Y-111093259D02*
X135746604Y-111073336D01*
X135746604Y-111073336D02*
X135820650Y-111064814D01*
X135820650Y-111064814D02*
X135883297Y-111087616D01*
X135883297Y-111087616D02*
X135965865Y-111153141D01*
X135965865Y-111153141D02*
X136204934Y-111665826D01*
X136204934Y-111665826D02*
X136353143Y-111258626D01*
X147802933Y-85069550D02*
X148136267Y-84836217D01*
X147802933Y-84669550D02*
X148502933Y-84669550D01*
X148502933Y-84669550D02*
X148502933Y-84936217D01*
X148502933Y-84936217D02*
X148469600Y-85002884D01*
X148469600Y-85002884D02*
X148436267Y-85036217D01*
X148436267Y-85036217D02*
X148369600Y-85069550D01*
X148369600Y-85069550D02*
X148269600Y-85069550D01*
X148269600Y-85069550D02*
X148202933Y-85036217D01*
X148202933Y-85036217D02*
X148169600Y-85002884D01*
X148169600Y-85002884D02*
X148136267Y-84936217D01*
X148136267Y-84936217D02*
X148136267Y-84669550D01*
X148502933Y-85702884D02*
X148502933Y-85369550D01*
X148502933Y-85369550D02*
X148169600Y-85336217D01*
X148169600Y-85336217D02*
X148202933Y-85369550D01*
X148202933Y-85369550D02*
X148236267Y-85436217D01*
X148236267Y-85436217D02*
X148236267Y-85602884D01*
X148236267Y-85602884D02*
X148202933Y-85669550D01*
X148202933Y-85669550D02*
X148169600Y-85702884D01*
X148169600Y-85702884D02*
X148102933Y-85736217D01*
X148102933Y-85736217D02*
X147936267Y-85736217D01*
X147936267Y-85736217D02*
X147869600Y-85702884D01*
X147869600Y-85702884D02*
X147836267Y-85669550D01*
X147836267Y-85669550D02*
X147802933Y-85602884D01*
X147802933Y-85602884D02*
X147802933Y-85436217D01*
X147802933Y-85436217D02*
X147836267Y-85369550D01*
X147836267Y-85369550D02*
X147869600Y-85336217D01*
D12*
X121249863Y-109001619D02*
X121821292Y-109001619D01*
X121410578Y-110001619D02*
X121535578Y-109001619D01*
X122029625Y-110001619D02*
X122154625Y-109001619D01*
X122505815Y-110001619D02*
X122630815Y-109001619D01*
X122630815Y-109001619D02*
X123077244Y-110001619D01*
X123077244Y-110001619D02*
X123202244Y-109001619D01*
X123803434Y-109525428D02*
X123743911Y-110001619D01*
X123535577Y-109001619D02*
X123803434Y-109525428D01*
X123803434Y-109525428D02*
X124202244Y-109001619D01*
X124809387Y-109477809D02*
X124946292Y-109525428D01*
X124946292Y-109525428D02*
X124987958Y-109573047D01*
X124987958Y-109573047D02*
X125023673Y-109668285D01*
X125023673Y-109668285D02*
X125005815Y-109811142D01*
X125005815Y-109811142D02*
X124946292Y-109906380D01*
X124946292Y-109906380D02*
X124892720Y-109954000D01*
X124892720Y-109954000D02*
X124791530Y-110001619D01*
X124791530Y-110001619D02*
X124410577Y-110001619D01*
X124410577Y-110001619D02*
X124535577Y-109001619D01*
X124535577Y-109001619D02*
X124868911Y-109001619D01*
X124868911Y-109001619D02*
X124958196Y-109049238D01*
X124958196Y-109049238D02*
X124999863Y-109096857D01*
X124999863Y-109096857D02*
X125035577Y-109192095D01*
X125035577Y-109192095D02*
X125023673Y-109287333D01*
X125023673Y-109287333D02*
X124964149Y-109382571D01*
X124964149Y-109382571D02*
X124910577Y-109430190D01*
X124910577Y-109430190D02*
X124809387Y-109477809D01*
X124809387Y-109477809D02*
X124476054Y-109477809D01*
X125476054Y-109477809D02*
X125809387Y-109477809D01*
X125886768Y-110001619D02*
X125410577Y-110001619D01*
X125410577Y-110001619D02*
X125535577Y-109001619D01*
X125535577Y-109001619D02*
X126011768Y-109001619D01*
X126380816Y-109477809D02*
X126714149Y-109477809D01*
X126791530Y-110001619D02*
X126315339Y-110001619D01*
X126315339Y-110001619D02*
X126440339Y-109001619D01*
X126440339Y-109001619D02*
X126916530Y-109001619D01*
X127267720Y-109620666D02*
X128029625Y-109620666D01*
X128446292Y-109334952D02*
X128601054Y-110001619D01*
X128601054Y-110001619D02*
X128922482Y-109334952D01*
X129743911Y-110001619D02*
X129172482Y-110001619D01*
X129458197Y-110001619D02*
X129583197Y-109001619D01*
X129583197Y-109001619D02*
X129470101Y-109144476D01*
X129470101Y-109144476D02*
X129362959Y-109239714D01*
X129362959Y-109239714D02*
X129261768Y-109287333D01*
X130184387Y-109906380D02*
X130226054Y-109954000D01*
X130226054Y-109954000D02*
X130172482Y-110001619D01*
X130172482Y-110001619D02*
X130130816Y-109954000D01*
X130130816Y-109954000D02*
X130184387Y-109906380D01*
X130184387Y-109906380D02*
X130172482Y-110001619D01*
X131172482Y-110001619D02*
X130601053Y-110001619D01*
X130886768Y-110001619D02*
X131011768Y-109001619D01*
X131011768Y-109001619D02*
X130898672Y-109144476D01*
X130898672Y-109144476D02*
X130791530Y-109239714D01*
X130791530Y-109239714D02*
X130690339Y-109287333D01*
D10*
X147265938Y-111892039D02*
X148003528Y-111912192D01*
X148003528Y-111912192D02*
X147425547Y-111453516D01*
X147550955Y-111108962D02*
X147596557Y-110983670D01*
X147596557Y-110983670D02*
X147650682Y-110932424D01*
X147650682Y-110932424D02*
X147736129Y-110892579D01*
X147736129Y-110892579D02*
X147872822Y-110906859D01*
X147872822Y-110906859D02*
X148092084Y-110986664D01*
X148092084Y-110986664D02*
X148205976Y-111063589D01*
X148205976Y-111063589D02*
X148245821Y-111149037D01*
X148245821Y-111149037D02*
X148254342Y-111223084D01*
X148254342Y-111223084D02*
X148208740Y-111348376D01*
X148208740Y-111348376D02*
X148154615Y-111399622D01*
X148154615Y-111399622D02*
X148069168Y-111439466D01*
X148069168Y-111439466D02*
X147932475Y-111425187D01*
X147932475Y-111425187D02*
X147713213Y-111345382D01*
X147713213Y-111345382D02*
X147599321Y-111268456D01*
X147599321Y-111268456D02*
X147559477Y-111183009D01*
X147559477Y-111183009D02*
X147550955Y-111108962D01*
X147756167Y-110545147D02*
X148288659Y-110738958D01*
X148288659Y-110738958D02*
X148362706Y-110730436D01*
X148362706Y-110730436D02*
X148405430Y-110710514D01*
X148405430Y-110710514D02*
X148459554Y-110659268D01*
X148459554Y-110659268D02*
X148505157Y-110533976D01*
X148505157Y-110533976D02*
X148496635Y-110459929D01*
X148496635Y-110459929D02*
X148476713Y-110417205D01*
X148476713Y-110417205D02*
X148425467Y-110363081D01*
X148425467Y-110363081D02*
X147892975Y-110169270D01*
X147972779Y-109950008D02*
X148109587Y-109574131D01*
X148698968Y-110001484D02*
X148041183Y-109762070D01*
X122305950Y-94191333D02*
X122072617Y-93858000D01*
X121905950Y-94191333D02*
X121905950Y-93491333D01*
X121905950Y-93491333D02*
X122172617Y-93491333D01*
X122172617Y-93491333D02*
X122239284Y-93524666D01*
X122239284Y-93524666D02*
X122272617Y-93558000D01*
X122272617Y-93558000D02*
X122305950Y-93624666D01*
X122305950Y-93624666D02*
X122305950Y-93724666D01*
X122305950Y-93724666D02*
X122272617Y-93791333D01*
X122272617Y-93791333D02*
X122239284Y-93824666D01*
X122239284Y-93824666D02*
X122172617Y-93858000D01*
X122172617Y-93858000D02*
X121905950Y-93858000D01*
X122605950Y-93824666D02*
X122839284Y-93824666D01*
X122939284Y-94191333D02*
X122605950Y-94191333D01*
X122605950Y-94191333D02*
X122605950Y-93491333D01*
X122605950Y-93491333D02*
X122939284Y-93491333D01*
X123205950Y-94158000D02*
X123305950Y-94191333D01*
X123305950Y-94191333D02*
X123472617Y-94191333D01*
X123472617Y-94191333D02*
X123539283Y-94158000D01*
X123539283Y-94158000D02*
X123572617Y-94124666D01*
X123572617Y-94124666D02*
X123605950Y-94058000D01*
X123605950Y-94058000D02*
X123605950Y-93991333D01*
X123605950Y-93991333D02*
X123572617Y-93924666D01*
X123572617Y-93924666D02*
X123539283Y-93891333D01*
X123539283Y-93891333D02*
X123472617Y-93858000D01*
X123472617Y-93858000D02*
X123339283Y-93824666D01*
X123339283Y-93824666D02*
X123272617Y-93791333D01*
X123272617Y-93791333D02*
X123239283Y-93758000D01*
X123239283Y-93758000D02*
X123205950Y-93691333D01*
X123205950Y-93691333D02*
X123205950Y-93624666D01*
X123205950Y-93624666D02*
X123239283Y-93558000D01*
X123239283Y-93558000D02*
X123272617Y-93524666D01*
X123272617Y-93524666D02*
X123339283Y-93491333D01*
X123339283Y-93491333D02*
X123505950Y-93491333D01*
X123505950Y-93491333D02*
X123605950Y-93524666D01*
X123905950Y-93824666D02*
X124139284Y-93824666D01*
X124239284Y-94191333D02*
X123905950Y-94191333D01*
X123905950Y-94191333D02*
X123905950Y-93491333D01*
X123905950Y-93491333D02*
X124239284Y-93491333D01*
X124439283Y-93491333D02*
X124839283Y-93491333D01*
X124639283Y-94191333D02*
X124639283Y-93491333D01*
X153768617Y-89621533D02*
X153701950Y-89588200D01*
X153701950Y-89588200D02*
X153601950Y-89588200D01*
X153601950Y-89588200D02*
X153501950Y-89621533D01*
X153501950Y-89621533D02*
X153435284Y-89688200D01*
X153435284Y-89688200D02*
X153401950Y-89754867D01*
X153401950Y-89754867D02*
X153368617Y-89888200D01*
X153368617Y-89888200D02*
X153368617Y-89988200D01*
X153368617Y-89988200D02*
X153401950Y-90121533D01*
X153401950Y-90121533D02*
X153435284Y-90188200D01*
X153435284Y-90188200D02*
X153501950Y-90254867D01*
X153501950Y-90254867D02*
X153601950Y-90288200D01*
X153601950Y-90288200D02*
X153668617Y-90288200D01*
X153668617Y-90288200D02*
X153768617Y-90254867D01*
X153768617Y-90254867D02*
X153801950Y-90221533D01*
X153801950Y-90221533D02*
X153801950Y-89988200D01*
X153801950Y-89988200D02*
X153668617Y-89988200D01*
D11*
X156506133Y-79490433D02*
X156506133Y-78790433D01*
X156506133Y-78790433D02*
X156772800Y-78790433D01*
X156772800Y-78790433D02*
X156839467Y-78823766D01*
X156839467Y-78823766D02*
X156872800Y-78857100D01*
X156872800Y-78857100D02*
X156906133Y-78923766D01*
X156906133Y-78923766D02*
X156906133Y-79023766D01*
X156906133Y-79023766D02*
X156872800Y-79090433D01*
X156872800Y-79090433D02*
X156839467Y-79123766D01*
X156839467Y-79123766D02*
X156772800Y-79157100D01*
X156772800Y-79157100D02*
X156506133Y-79157100D01*
X157172800Y-78857100D02*
X157206133Y-78823766D01*
X157206133Y-78823766D02*
X157272800Y-78790433D01*
X157272800Y-78790433D02*
X157439467Y-78790433D01*
X157439467Y-78790433D02*
X157506133Y-78823766D01*
X157506133Y-78823766D02*
X157539467Y-78857100D01*
X157539467Y-78857100D02*
X157572800Y-78923766D01*
X157572800Y-78923766D02*
X157572800Y-78990433D01*
X157572800Y-78990433D02*
X157539467Y-79090433D01*
X157539467Y-79090433D02*
X157139467Y-79490433D01*
X157139467Y-79490433D02*
X157572800Y-79490433D01*
X156974400Y-117101566D02*
X156907733Y-117068233D01*
X156907733Y-117068233D02*
X156807733Y-117068233D01*
X156807733Y-117068233D02*
X156707733Y-117101566D01*
X156707733Y-117101566D02*
X156641067Y-117168233D01*
X156641067Y-117168233D02*
X156607733Y-117234900D01*
X156607733Y-117234900D02*
X156574400Y-117368233D01*
X156574400Y-117368233D02*
X156574400Y-117468233D01*
X156574400Y-117468233D02*
X156607733Y-117601566D01*
X156607733Y-117601566D02*
X156641067Y-117668233D01*
X156641067Y-117668233D02*
X156707733Y-117734900D01*
X156707733Y-117734900D02*
X156807733Y-117768233D01*
X156807733Y-117768233D02*
X156874400Y-117768233D01*
X156874400Y-117768233D02*
X156974400Y-117734900D01*
X156974400Y-117734900D02*
X157007733Y-117701566D01*
X157007733Y-117701566D02*
X157007733Y-117468233D01*
X157007733Y-117468233D02*
X156874400Y-117468233D01*
X157674400Y-117768233D02*
X157274400Y-117768233D01*
X157474400Y-117768233D02*
X157474400Y-117068233D01*
X157474400Y-117068233D02*
X157407733Y-117168233D01*
X157407733Y-117168233D02*
X157341067Y-117234900D01*
X157341067Y-117234900D02*
X157274400Y-117268233D01*
X133280999Y-83379033D02*
X133047666Y-83045700D01*
X132880999Y-83379033D02*
X132880999Y-82679033D01*
X132880999Y-82679033D02*
X133147666Y-82679033D01*
X133147666Y-82679033D02*
X133214333Y-82712366D01*
X133214333Y-82712366D02*
X133247666Y-82745700D01*
X133247666Y-82745700D02*
X133280999Y-82812366D01*
X133280999Y-82812366D02*
X133280999Y-82912366D01*
X133280999Y-82912366D02*
X133247666Y-82979033D01*
X133247666Y-82979033D02*
X133214333Y-83012366D01*
X133214333Y-83012366D02*
X133147666Y-83045700D01*
X133147666Y-83045700D02*
X132880999Y-83045700D01*
X133547666Y-82745700D02*
X133580999Y-82712366D01*
X133580999Y-82712366D02*
X133647666Y-82679033D01*
X133647666Y-82679033D02*
X133814333Y-82679033D01*
X133814333Y-82679033D02*
X133880999Y-82712366D01*
X133880999Y-82712366D02*
X133914333Y-82745700D01*
X133914333Y-82745700D02*
X133947666Y-82812366D01*
X133947666Y-82812366D02*
X133947666Y-82879033D01*
X133947666Y-82879033D02*
X133914333Y-82979033D01*
X133914333Y-82979033D02*
X133514333Y-83379033D01*
X133514333Y-83379033D02*
X133947666Y-83379033D01*
X134181000Y-82679033D02*
X134614333Y-82679033D01*
X134614333Y-82679033D02*
X134381000Y-82945700D01*
X134381000Y-82945700D02*
X134481000Y-82945700D01*
X134481000Y-82945700D02*
X134547666Y-82979033D01*
X134547666Y-82979033D02*
X134581000Y-83012366D01*
X134581000Y-83012366D02*
X134614333Y-83079033D01*
X134614333Y-83079033D02*
X134614333Y-83245700D01*
X134614333Y-83245700D02*
X134581000Y-83312366D01*
X134581000Y-83312366D02*
X134547666Y-83345700D01*
X134547666Y-83345700D02*
X134481000Y-83379033D01*
X134481000Y-83379033D02*
X134281000Y-83379033D01*
X134281000Y-83379033D02*
X134214333Y-83345700D01*
X134214333Y-83345700D02*
X134181000Y-83312366D01*
X133904066Y-115112433D02*
X133904066Y-115612433D01*
X133904066Y-115612433D02*
X133870733Y-115712433D01*
X133870733Y-115712433D02*
X133804066Y-115779100D01*
X133804066Y-115779100D02*
X133704066Y-115812433D01*
X133704066Y-115812433D02*
X133637400Y-115812433D01*
X134204066Y-115179100D02*
X134237399Y-115145766D01*
X134237399Y-115145766D02*
X134304066Y-115112433D01*
X134304066Y-115112433D02*
X134470733Y-115112433D01*
X134470733Y-115112433D02*
X134537399Y-115145766D01*
X134537399Y-115145766D02*
X134570733Y-115179100D01*
X134570733Y-115179100D02*
X134604066Y-115245766D01*
X134604066Y-115245766D02*
X134604066Y-115312433D01*
X134604066Y-115312433D02*
X134570733Y-115412433D01*
X134570733Y-115412433D02*
X134170733Y-115812433D01*
X134170733Y-115812433D02*
X134604066Y-115812433D01*
X140212933Y-104113033D02*
X139979600Y-103779700D01*
X139812933Y-104113033D02*
X139812933Y-103413033D01*
X139812933Y-103413033D02*
X140079600Y-103413033D01*
X140079600Y-103413033D02*
X140146267Y-103446366D01*
X140146267Y-103446366D02*
X140179600Y-103479700D01*
X140179600Y-103479700D02*
X140212933Y-103546366D01*
X140212933Y-103546366D02*
X140212933Y-103646366D01*
X140212933Y-103646366D02*
X140179600Y-103713033D01*
X140179600Y-103713033D02*
X140146267Y-103746366D01*
X140146267Y-103746366D02*
X140079600Y-103779700D01*
X140079600Y-103779700D02*
X139812933Y-103779700D01*
X140446267Y-103413033D02*
X140879600Y-103413033D01*
X140879600Y-103413033D02*
X140646267Y-103679700D01*
X140646267Y-103679700D02*
X140746267Y-103679700D01*
X140746267Y-103679700D02*
X140812933Y-103713033D01*
X140812933Y-103713033D02*
X140846267Y-103746366D01*
X140846267Y-103746366D02*
X140879600Y-103813033D01*
X140879600Y-103813033D02*
X140879600Y-103979700D01*
X140879600Y-103979700D02*
X140846267Y-104046366D01*
X140846267Y-104046366D02*
X140812933Y-104079700D01*
X140812933Y-104079700D02*
X140746267Y-104113033D01*
X140746267Y-104113033D02*
X140546267Y-104113033D01*
X140546267Y-104113033D02*
X140479600Y-104079700D01*
X140479600Y-104079700D02*
X140446267Y-104046366D01*
X139476666Y-95073633D02*
X139476666Y-95640300D01*
X139476666Y-95640300D02*
X139510000Y-95706966D01*
X139510000Y-95706966D02*
X139543333Y-95740300D01*
X139543333Y-95740300D02*
X139610000Y-95773633D01*
X139610000Y-95773633D02*
X139743333Y-95773633D01*
X139743333Y-95773633D02*
X139810000Y-95740300D01*
X139810000Y-95740300D02*
X139843333Y-95706966D01*
X139843333Y-95706966D02*
X139876666Y-95640300D01*
X139876666Y-95640300D02*
X139876666Y-95073633D01*
X140576666Y-95773633D02*
X140176666Y-95773633D01*
X140376666Y-95773633D02*
X140376666Y-95073633D01*
X140376666Y-95073633D02*
X140309999Y-95173633D01*
X140309999Y-95173633D02*
X140243333Y-95240300D01*
X140243333Y-95240300D02*
X140176666Y-95273633D01*
X126097333Y-100837966D02*
X126064000Y-100871300D01*
X126064000Y-100871300D02*
X125964000Y-100904633D01*
X125964000Y-100904633D02*
X125897333Y-100904633D01*
X125897333Y-100904633D02*
X125797333Y-100871300D01*
X125797333Y-100871300D02*
X125730667Y-100804633D01*
X125730667Y-100804633D02*
X125697333Y-100737966D01*
X125697333Y-100737966D02*
X125664000Y-100604633D01*
X125664000Y-100604633D02*
X125664000Y-100504633D01*
X125664000Y-100504633D02*
X125697333Y-100371300D01*
X125697333Y-100371300D02*
X125730667Y-100304633D01*
X125730667Y-100304633D02*
X125797333Y-100237966D01*
X125797333Y-100237966D02*
X125897333Y-100204633D01*
X125897333Y-100204633D02*
X125964000Y-100204633D01*
X125964000Y-100204633D02*
X126064000Y-100237966D01*
X126064000Y-100237966D02*
X126097333Y-100271300D01*
X126364000Y-100271300D02*
X126397333Y-100237966D01*
X126397333Y-100237966D02*
X126464000Y-100204633D01*
X126464000Y-100204633D02*
X126630667Y-100204633D01*
X126630667Y-100204633D02*
X126697333Y-100237966D01*
X126697333Y-100237966D02*
X126730667Y-100271300D01*
X126730667Y-100271300D02*
X126764000Y-100337966D01*
X126764000Y-100337966D02*
X126764000Y-100404633D01*
X126764000Y-100404633D02*
X126730667Y-100504633D01*
X126730667Y-100504633D02*
X126330667Y-100904633D01*
X126330667Y-100904633D02*
X126764000Y-100904633D01*
X129194733Y-88397183D02*
X128961400Y-88063850D01*
X128794733Y-88397183D02*
X128794733Y-87697183D01*
X128794733Y-87697183D02*
X129061400Y-87697183D01*
X129061400Y-87697183D02*
X129128067Y-87730516D01*
X129128067Y-87730516D02*
X129161400Y-87763850D01*
X129161400Y-87763850D02*
X129194733Y-87830516D01*
X129194733Y-87830516D02*
X129194733Y-87930516D01*
X129194733Y-87930516D02*
X129161400Y-87997183D01*
X129161400Y-87997183D02*
X129128067Y-88030516D01*
X129128067Y-88030516D02*
X129061400Y-88063850D01*
X129061400Y-88063850D02*
X128794733Y-88063850D01*
X129828067Y-87697183D02*
X129494733Y-87697183D01*
X129494733Y-87697183D02*
X129461400Y-88030516D01*
X129461400Y-88030516D02*
X129494733Y-87997183D01*
X129494733Y-87997183D02*
X129561400Y-87963850D01*
X129561400Y-87963850D02*
X129728067Y-87963850D01*
X129728067Y-87963850D02*
X129794733Y-87997183D01*
X129794733Y-87997183D02*
X129828067Y-88030516D01*
X129828067Y-88030516D02*
X129861400Y-88097183D01*
X129861400Y-88097183D02*
X129861400Y-88263850D01*
X129861400Y-88263850D02*
X129828067Y-88330516D01*
X129828067Y-88330516D02*
X129794733Y-88363850D01*
X129794733Y-88363850D02*
X129728067Y-88397183D01*
X129728067Y-88397183D02*
X129561400Y-88397183D01*
X129561400Y-88397183D02*
X129494733Y-88363850D01*
X129494733Y-88363850D02*
X129461400Y-88330516D01*
X134314999Y-108048633D02*
X134081666Y-107715300D01*
X133914999Y-108048633D02*
X133914999Y-107348633D01*
X133914999Y-107348633D02*
X134181666Y-107348633D01*
X134181666Y-107348633D02*
X134248333Y-107381966D01*
X134248333Y-107381966D02*
X134281666Y-107415300D01*
X134281666Y-107415300D02*
X134314999Y-107481966D01*
X134314999Y-107481966D02*
X134314999Y-107581966D01*
X134314999Y-107581966D02*
X134281666Y-107648633D01*
X134281666Y-107648633D02*
X134248333Y-107681966D01*
X134248333Y-107681966D02*
X134181666Y-107715300D01*
X134181666Y-107715300D02*
X133914999Y-107715300D01*
X134981666Y-108048633D02*
X134581666Y-108048633D01*
X134781666Y-108048633D02*
X134781666Y-107348633D01*
X134781666Y-107348633D02*
X134714999Y-107448633D01*
X134714999Y-107448633D02*
X134648333Y-107515300D01*
X134648333Y-107515300D02*
X134581666Y-107548633D01*
X135648333Y-108048633D02*
X135248333Y-108048633D01*
X135448333Y-108048633D02*
X135448333Y-107348633D01*
X135448333Y-107348633D02*
X135381666Y-107448633D01*
X135381666Y-107448633D02*
X135315000Y-107515300D01*
X135315000Y-107515300D02*
X135248333Y-107548633D01*
X158927866Y-115499700D02*
X159027866Y-115533033D01*
X159027866Y-115533033D02*
X159194533Y-115533033D01*
X159194533Y-115533033D02*
X159261199Y-115499700D01*
X159261199Y-115499700D02*
X159294533Y-115466366D01*
X159294533Y-115466366D02*
X159327866Y-115399700D01*
X159327866Y-115399700D02*
X159327866Y-115333033D01*
X159327866Y-115333033D02*
X159294533Y-115266366D01*
X159294533Y-115266366D02*
X159261199Y-115233033D01*
X159261199Y-115233033D02*
X159194533Y-115199700D01*
X159194533Y-115199700D02*
X159061199Y-115166366D01*
X159061199Y-115166366D02*
X158994533Y-115133033D01*
X158994533Y-115133033D02*
X158961199Y-115099700D01*
X158961199Y-115099700D02*
X158927866Y-115033033D01*
X158927866Y-115033033D02*
X158927866Y-114966366D01*
X158927866Y-114966366D02*
X158961199Y-114899700D01*
X158961199Y-114899700D02*
X158994533Y-114866366D01*
X158994533Y-114866366D02*
X159061199Y-114833033D01*
X159061199Y-114833033D02*
X159227866Y-114833033D01*
X159227866Y-114833033D02*
X159327866Y-114866366D01*
X159994533Y-115533033D02*
X159594533Y-115533033D01*
X159794533Y-115533033D02*
X159794533Y-114833033D01*
X159794533Y-114833033D02*
X159727866Y-114933033D01*
X159727866Y-114933033D02*
X159661200Y-114999700D01*
X159661200Y-114999700D02*
X159594533Y-115033033D01*
X122774933Y-117641233D02*
X122774933Y-116941233D01*
X122774933Y-116941233D02*
X123041600Y-116941233D01*
X123041600Y-116941233D02*
X123108267Y-116974566D01*
X123108267Y-116974566D02*
X123141600Y-117007900D01*
X123141600Y-117007900D02*
X123174933Y-117074566D01*
X123174933Y-117074566D02*
X123174933Y-117174566D01*
X123174933Y-117174566D02*
X123141600Y-117241233D01*
X123141600Y-117241233D02*
X123108267Y-117274566D01*
X123108267Y-117274566D02*
X123041600Y-117307900D01*
X123041600Y-117307900D02*
X122774933Y-117307900D01*
X123408267Y-116941233D02*
X123841600Y-116941233D01*
X123841600Y-116941233D02*
X123608267Y-117207900D01*
X123608267Y-117207900D02*
X123708267Y-117207900D01*
X123708267Y-117207900D02*
X123774933Y-117241233D01*
X123774933Y-117241233D02*
X123808267Y-117274566D01*
X123808267Y-117274566D02*
X123841600Y-117341233D01*
X123841600Y-117341233D02*
X123841600Y-117507900D01*
X123841600Y-117507900D02*
X123808267Y-117574566D01*
X123808267Y-117574566D02*
X123774933Y-117607900D01*
X123774933Y-117607900D02*
X123708267Y-117641233D01*
X123708267Y-117641233D02*
X123508267Y-117641233D01*
X123508267Y-117641233D02*
X123441600Y-117607900D01*
X123441600Y-117607900D02*
X123408267Y-117574566D01*
X130452366Y-86987800D02*
X130485700Y-87021133D01*
X130485700Y-87021133D02*
X130519033Y-87121133D01*
X130519033Y-87121133D02*
X130519033Y-87187800D01*
X130519033Y-87187800D02*
X130485700Y-87287800D01*
X130485700Y-87287800D02*
X130419033Y-87354467D01*
X130419033Y-87354467D02*
X130352366Y-87387800D01*
X130352366Y-87387800D02*
X130219033Y-87421133D01*
X130219033Y-87421133D02*
X130119033Y-87421133D01*
X130119033Y-87421133D02*
X129985700Y-87387800D01*
X129985700Y-87387800D02*
X129919033Y-87354467D01*
X129919033Y-87354467D02*
X129852366Y-87287800D01*
X129852366Y-87287800D02*
X129819033Y-87187800D01*
X129819033Y-87187800D02*
X129819033Y-87121133D01*
X129819033Y-87121133D02*
X129852366Y-87021133D01*
X129852366Y-87021133D02*
X129885700Y-86987800D01*
X130519033Y-86321133D02*
X130519033Y-86721133D01*
X130519033Y-86521133D02*
X129819033Y-86521133D01*
X129819033Y-86521133D02*
X129919033Y-86587800D01*
X129919033Y-86587800D02*
X129985700Y-86654467D01*
X129985700Y-86654467D02*
X130019033Y-86721133D01*
X129819033Y-86087800D02*
X129819033Y-85621133D01*
X129819033Y-85621133D02*
X130519033Y-85921133D01*
X147835199Y-107811433D02*
X147601866Y-107478100D01*
X147435199Y-107811433D02*
X147435199Y-107111433D01*
X147435199Y-107111433D02*
X147701866Y-107111433D01*
X147701866Y-107111433D02*
X147768533Y-107144766D01*
X147768533Y-107144766D02*
X147801866Y-107178100D01*
X147801866Y-107178100D02*
X147835199Y-107244766D01*
X147835199Y-107244766D02*
X147835199Y-107344766D01*
X147835199Y-107344766D02*
X147801866Y-107411433D01*
X147801866Y-107411433D02*
X147768533Y-107444766D01*
X147768533Y-107444766D02*
X147701866Y-107478100D01*
X147701866Y-107478100D02*
X147435199Y-107478100D01*
X148501866Y-107811433D02*
X148101866Y-107811433D01*
X148301866Y-107811433D02*
X148301866Y-107111433D01*
X148301866Y-107111433D02*
X148235199Y-107211433D01*
X148235199Y-107211433D02*
X148168533Y-107278100D01*
X148168533Y-107278100D02*
X148101866Y-107311433D01*
X148935200Y-107111433D02*
X149001866Y-107111433D01*
X149001866Y-107111433D02*
X149068533Y-107144766D01*
X149068533Y-107144766D02*
X149101866Y-107178100D01*
X149101866Y-107178100D02*
X149135200Y-107244766D01*
X149135200Y-107244766D02*
X149168533Y-107378100D01*
X149168533Y-107378100D02*
X149168533Y-107544766D01*
X149168533Y-107544766D02*
X149135200Y-107678100D01*
X149135200Y-107678100D02*
X149101866Y-107744766D01*
X149101866Y-107744766D02*
X149068533Y-107778100D01*
X149068533Y-107778100D02*
X149001866Y-107811433D01*
X149001866Y-107811433D02*
X148935200Y-107811433D01*
X148935200Y-107811433D02*
X148868533Y-107778100D01*
X148868533Y-107778100D02*
X148835200Y-107744766D01*
X148835200Y-107744766D02*
X148801866Y-107678100D01*
X148801866Y-107678100D02*
X148768533Y-107544766D01*
X148768533Y-107544766D02*
X148768533Y-107378100D01*
X148768533Y-107378100D02*
X148801866Y-107244766D01*
X148801866Y-107244766D02*
X148835200Y-107178100D01*
X148835200Y-107178100D02*
X148868533Y-107144766D01*
X148868533Y-107144766D02*
X148935200Y-107111433D01*
X124395999Y-104854866D02*
X124362666Y-104888200D01*
X124362666Y-104888200D02*
X124262666Y-104921533D01*
X124262666Y-104921533D02*
X124195999Y-104921533D01*
X124195999Y-104921533D02*
X124095999Y-104888200D01*
X124095999Y-104888200D02*
X124029333Y-104821533D01*
X124029333Y-104821533D02*
X123995999Y-104754866D01*
X123995999Y-104754866D02*
X123962666Y-104621533D01*
X123962666Y-104621533D02*
X123962666Y-104521533D01*
X123962666Y-104521533D02*
X123995999Y-104388200D01*
X123995999Y-104388200D02*
X124029333Y-104321533D01*
X124029333Y-104321533D02*
X124095999Y-104254866D01*
X124095999Y-104254866D02*
X124195999Y-104221533D01*
X124195999Y-104221533D02*
X124262666Y-104221533D01*
X124262666Y-104221533D02*
X124362666Y-104254866D01*
X124362666Y-104254866D02*
X124395999Y-104288200D01*
X125062666Y-104921533D02*
X124662666Y-104921533D01*
X124862666Y-104921533D02*
X124862666Y-104221533D01*
X124862666Y-104221533D02*
X124795999Y-104321533D01*
X124795999Y-104321533D02*
X124729333Y-104388200D01*
X124729333Y-104388200D02*
X124662666Y-104421533D01*
X125296000Y-104221533D02*
X125729333Y-104221533D01*
X125729333Y-104221533D02*
X125496000Y-104488200D01*
X125496000Y-104488200D02*
X125596000Y-104488200D01*
X125596000Y-104488200D02*
X125662666Y-104521533D01*
X125662666Y-104521533D02*
X125696000Y-104554866D01*
X125696000Y-104554866D02*
X125729333Y-104621533D01*
X125729333Y-104621533D02*
X125729333Y-104788200D01*
X125729333Y-104788200D02*
X125696000Y-104854866D01*
X125696000Y-104854866D02*
X125662666Y-104888200D01*
X125662666Y-104888200D02*
X125596000Y-104921533D01*
X125596000Y-104921533D02*
X125396000Y-104921533D01*
X125396000Y-104921533D02*
X125329333Y-104888200D01*
X125329333Y-104888200D02*
X125296000Y-104854866D01*
X140156666Y-80970233D02*
X140156666Y-81470233D01*
X140156666Y-81470233D02*
X140123333Y-81570233D01*
X140123333Y-81570233D02*
X140056666Y-81636900D01*
X140056666Y-81636900D02*
X139956666Y-81670233D01*
X139956666Y-81670233D02*
X139890000Y-81670233D01*
X140589999Y-81270233D02*
X140523333Y-81236900D01*
X140523333Y-81236900D02*
X140489999Y-81203566D01*
X140489999Y-81203566D02*
X140456666Y-81136900D01*
X140456666Y-81136900D02*
X140456666Y-81103566D01*
X140456666Y-81103566D02*
X140489999Y-81036900D01*
X140489999Y-81036900D02*
X140523333Y-81003566D01*
X140523333Y-81003566D02*
X140589999Y-80970233D01*
X140589999Y-80970233D02*
X140723333Y-80970233D01*
X140723333Y-80970233D02*
X140789999Y-81003566D01*
X140789999Y-81003566D02*
X140823333Y-81036900D01*
X140823333Y-81036900D02*
X140856666Y-81103566D01*
X140856666Y-81103566D02*
X140856666Y-81136900D01*
X140856666Y-81136900D02*
X140823333Y-81203566D01*
X140823333Y-81203566D02*
X140789999Y-81236900D01*
X140789999Y-81236900D02*
X140723333Y-81270233D01*
X140723333Y-81270233D02*
X140589999Y-81270233D01*
X140589999Y-81270233D02*
X140523333Y-81303566D01*
X140523333Y-81303566D02*
X140489999Y-81336900D01*
X140489999Y-81336900D02*
X140456666Y-81403566D01*
X140456666Y-81403566D02*
X140456666Y-81536900D01*
X140456666Y-81536900D02*
X140489999Y-81603566D01*
X140489999Y-81603566D02*
X140523333Y-81636900D01*
X140523333Y-81636900D02*
X140589999Y-81670233D01*
X140589999Y-81670233D02*
X140723333Y-81670233D01*
X140723333Y-81670233D02*
X140789999Y-81636900D01*
X140789999Y-81636900D02*
X140823333Y-81603566D01*
X140823333Y-81603566D02*
X140856666Y-81536900D01*
X140856666Y-81536900D02*
X140856666Y-81403566D01*
X140856666Y-81403566D02*
X140823333Y-81336900D01*
X140823333Y-81336900D02*
X140789999Y-81303566D01*
X140789999Y-81303566D02*
X140723333Y-81270233D01*
X129023799Y-83379033D02*
X128790466Y-83045700D01*
X128623799Y-83379033D02*
X128623799Y-82679033D01*
X128623799Y-82679033D02*
X128890466Y-82679033D01*
X128890466Y-82679033D02*
X128957133Y-82712366D01*
X128957133Y-82712366D02*
X128990466Y-82745700D01*
X128990466Y-82745700D02*
X129023799Y-82812366D01*
X129023799Y-82812366D02*
X129023799Y-82912366D01*
X129023799Y-82912366D02*
X128990466Y-82979033D01*
X128990466Y-82979033D02*
X128957133Y-83012366D01*
X128957133Y-83012366D02*
X128890466Y-83045700D01*
X128890466Y-83045700D02*
X128623799Y-83045700D01*
X129290466Y-82745700D02*
X129323799Y-82712366D01*
X129323799Y-82712366D02*
X129390466Y-82679033D01*
X129390466Y-82679033D02*
X129557133Y-82679033D01*
X129557133Y-82679033D02*
X129623799Y-82712366D01*
X129623799Y-82712366D02*
X129657133Y-82745700D01*
X129657133Y-82745700D02*
X129690466Y-82812366D01*
X129690466Y-82812366D02*
X129690466Y-82879033D01*
X129690466Y-82879033D02*
X129657133Y-82979033D01*
X129657133Y-82979033D02*
X129257133Y-83379033D01*
X129257133Y-83379033D02*
X129690466Y-83379033D01*
X129957133Y-82745700D02*
X129990466Y-82712366D01*
X129990466Y-82712366D02*
X130057133Y-82679033D01*
X130057133Y-82679033D02*
X130223800Y-82679033D01*
X130223800Y-82679033D02*
X130290466Y-82712366D01*
X130290466Y-82712366D02*
X130323800Y-82745700D01*
X130323800Y-82745700D02*
X130357133Y-82812366D01*
X130357133Y-82812366D02*
X130357133Y-82879033D01*
X130357133Y-82879033D02*
X130323800Y-82979033D01*
X130323800Y-82979033D02*
X129923800Y-83379033D01*
X129923800Y-83379033D02*
X130357133Y-83379033D01*
X147883999Y-101258233D02*
X147650666Y-100924900D01*
X147483999Y-101258233D02*
X147483999Y-100558233D01*
X147483999Y-100558233D02*
X147750666Y-100558233D01*
X147750666Y-100558233D02*
X147817333Y-100591566D01*
X147817333Y-100591566D02*
X147850666Y-100624900D01*
X147850666Y-100624900D02*
X147883999Y-100691566D01*
X147883999Y-100691566D02*
X147883999Y-100791566D01*
X147883999Y-100791566D02*
X147850666Y-100858233D01*
X147850666Y-100858233D02*
X147817333Y-100891566D01*
X147817333Y-100891566D02*
X147750666Y-100924900D01*
X147750666Y-100924900D02*
X147483999Y-100924900D01*
X148150666Y-100624900D02*
X148183999Y-100591566D01*
X148183999Y-100591566D02*
X148250666Y-100558233D01*
X148250666Y-100558233D02*
X148417333Y-100558233D01*
X148417333Y-100558233D02*
X148483999Y-100591566D01*
X148483999Y-100591566D02*
X148517333Y-100624900D01*
X148517333Y-100624900D02*
X148550666Y-100691566D01*
X148550666Y-100691566D02*
X148550666Y-100758233D01*
X148550666Y-100758233D02*
X148517333Y-100858233D01*
X148517333Y-100858233D02*
X148117333Y-101258233D01*
X148117333Y-101258233D02*
X148550666Y-101258233D01*
X148984000Y-100558233D02*
X149050666Y-100558233D01*
X149050666Y-100558233D02*
X149117333Y-100591566D01*
X149117333Y-100591566D02*
X149150666Y-100624900D01*
X149150666Y-100624900D02*
X149184000Y-100691566D01*
X149184000Y-100691566D02*
X149217333Y-100824900D01*
X149217333Y-100824900D02*
X149217333Y-100991566D01*
X149217333Y-100991566D02*
X149184000Y-101124900D01*
X149184000Y-101124900D02*
X149150666Y-101191566D01*
X149150666Y-101191566D02*
X149117333Y-101224900D01*
X149117333Y-101224900D02*
X149050666Y-101258233D01*
X149050666Y-101258233D02*
X148984000Y-101258233D01*
X148984000Y-101258233D02*
X148917333Y-101224900D01*
X148917333Y-101224900D02*
X148884000Y-101191566D01*
X148884000Y-101191566D02*
X148850666Y-101124900D01*
X148850666Y-101124900D02*
X148817333Y-100991566D01*
X148817333Y-100991566D02*
X148817333Y-100824900D01*
X148817333Y-100824900D02*
X148850666Y-100691566D01*
X148850666Y-100691566D02*
X148884000Y-100624900D01*
X148884000Y-100624900D02*
X148917333Y-100591566D01*
X148917333Y-100591566D02*
X148984000Y-100558233D01*
X124368733Y-100470833D02*
X124135400Y-100137500D01*
X123968733Y-100470833D02*
X123968733Y-99770833D01*
X123968733Y-99770833D02*
X124235400Y-99770833D01*
X124235400Y-99770833D02*
X124302067Y-99804166D01*
X124302067Y-99804166D02*
X124335400Y-99837500D01*
X124335400Y-99837500D02*
X124368733Y-99904166D01*
X124368733Y-99904166D02*
X124368733Y-100004166D01*
X124368733Y-100004166D02*
X124335400Y-100070833D01*
X124335400Y-100070833D02*
X124302067Y-100104166D01*
X124302067Y-100104166D02*
X124235400Y-100137500D01*
X124235400Y-100137500D02*
X123968733Y-100137500D01*
X124635400Y-99837500D02*
X124668733Y-99804166D01*
X124668733Y-99804166D02*
X124735400Y-99770833D01*
X124735400Y-99770833D02*
X124902067Y-99770833D01*
X124902067Y-99770833D02*
X124968733Y-99804166D01*
X124968733Y-99804166D02*
X125002067Y-99837500D01*
X125002067Y-99837500D02*
X125035400Y-99904166D01*
X125035400Y-99904166D02*
X125035400Y-99970833D01*
X125035400Y-99970833D02*
X125002067Y-100070833D01*
X125002067Y-100070833D02*
X124602067Y-100470833D01*
X124602067Y-100470833D02*
X125035400Y-100470833D01*
X147934799Y-98849810D02*
X147701466Y-98516477D01*
X147534799Y-98849810D02*
X147534799Y-98149810D01*
X147534799Y-98149810D02*
X147801466Y-98149810D01*
X147801466Y-98149810D02*
X147868133Y-98183143D01*
X147868133Y-98183143D02*
X147901466Y-98216477D01*
X147901466Y-98216477D02*
X147934799Y-98283143D01*
X147934799Y-98283143D02*
X147934799Y-98383143D01*
X147934799Y-98383143D02*
X147901466Y-98449810D01*
X147901466Y-98449810D02*
X147868133Y-98483143D01*
X147868133Y-98483143D02*
X147801466Y-98516477D01*
X147801466Y-98516477D02*
X147534799Y-98516477D01*
X148201466Y-98216477D02*
X148234799Y-98183143D01*
X148234799Y-98183143D02*
X148301466Y-98149810D01*
X148301466Y-98149810D02*
X148468133Y-98149810D01*
X148468133Y-98149810D02*
X148534799Y-98183143D01*
X148534799Y-98183143D02*
X148568133Y-98216477D01*
X148568133Y-98216477D02*
X148601466Y-98283143D01*
X148601466Y-98283143D02*
X148601466Y-98349810D01*
X148601466Y-98349810D02*
X148568133Y-98449810D01*
X148568133Y-98449810D02*
X148168133Y-98849810D01*
X148168133Y-98849810D02*
X148601466Y-98849810D01*
X149268133Y-98849810D02*
X148868133Y-98849810D01*
X149068133Y-98849810D02*
X149068133Y-98149810D01*
X149068133Y-98149810D02*
X149001466Y-98249810D01*
X149001466Y-98249810D02*
X148934800Y-98316477D01*
X148934800Y-98316477D02*
X148868133Y-98349810D01*
X156848633Y-89713333D02*
X157348633Y-89713333D01*
X157348633Y-89713333D02*
X157448633Y-89746666D01*
X157448633Y-89746666D02*
X157515300Y-89813333D01*
X157515300Y-89813333D02*
X157548633Y-89913333D01*
X157548633Y-89913333D02*
X157548633Y-89980000D01*
X156848633Y-89446667D02*
X156848633Y-88980000D01*
X156848633Y-88980000D02*
X157548633Y-89280000D01*
X151340399Y-104103033D02*
X151107066Y-103769700D01*
X150940399Y-104103033D02*
X150940399Y-103403033D01*
X150940399Y-103403033D02*
X151207066Y-103403033D01*
X151207066Y-103403033D02*
X151273733Y-103436366D01*
X151273733Y-103436366D02*
X151307066Y-103469700D01*
X151307066Y-103469700D02*
X151340399Y-103536366D01*
X151340399Y-103536366D02*
X151340399Y-103636366D01*
X151340399Y-103636366D02*
X151307066Y-103703033D01*
X151307066Y-103703033D02*
X151273733Y-103736366D01*
X151273733Y-103736366D02*
X151207066Y-103769700D01*
X151207066Y-103769700D02*
X150940399Y-103769700D01*
X152007066Y-104103033D02*
X151607066Y-104103033D01*
X151807066Y-104103033D02*
X151807066Y-103403033D01*
X151807066Y-103403033D02*
X151740399Y-103503033D01*
X151740399Y-103503033D02*
X151673733Y-103569700D01*
X151673733Y-103569700D02*
X151607066Y-103603033D01*
X152407066Y-103703033D02*
X152340400Y-103669700D01*
X152340400Y-103669700D02*
X152307066Y-103636366D01*
X152307066Y-103636366D02*
X152273733Y-103569700D01*
X152273733Y-103569700D02*
X152273733Y-103536366D01*
X152273733Y-103536366D02*
X152307066Y-103469700D01*
X152307066Y-103469700D02*
X152340400Y-103436366D01*
X152340400Y-103436366D02*
X152407066Y-103403033D01*
X152407066Y-103403033D02*
X152540400Y-103403033D01*
X152540400Y-103403033D02*
X152607066Y-103436366D01*
X152607066Y-103436366D02*
X152640400Y-103469700D01*
X152640400Y-103469700D02*
X152673733Y-103536366D01*
X152673733Y-103536366D02*
X152673733Y-103569700D01*
X152673733Y-103569700D02*
X152640400Y-103636366D01*
X152640400Y-103636366D02*
X152607066Y-103669700D01*
X152607066Y-103669700D02*
X152540400Y-103703033D01*
X152540400Y-103703033D02*
X152407066Y-103703033D01*
X152407066Y-103703033D02*
X152340400Y-103736366D01*
X152340400Y-103736366D02*
X152307066Y-103769700D01*
X152307066Y-103769700D02*
X152273733Y-103836366D01*
X152273733Y-103836366D02*
X152273733Y-103969700D01*
X152273733Y-103969700D02*
X152307066Y-104036366D01*
X152307066Y-104036366D02*
X152340400Y-104069700D01*
X152340400Y-104069700D02*
X152407066Y-104103033D01*
X152407066Y-104103033D02*
X152540400Y-104103033D01*
X152540400Y-104103033D02*
X152607066Y-104069700D01*
X152607066Y-104069700D02*
X152640400Y-104036366D01*
X152640400Y-104036366D02*
X152673733Y-103969700D01*
X152673733Y-103969700D02*
X152673733Y-103836366D01*
X152673733Y-103836366D02*
X152640400Y-103769700D01*
X152640400Y-103769700D02*
X152607066Y-103736366D01*
X152607066Y-103736366D02*
X152540400Y-103703033D01*
X142803333Y-104028233D02*
X142770000Y-104061567D01*
X142770000Y-104061567D02*
X142670000Y-104094900D01*
X142670000Y-104094900D02*
X142603333Y-104094900D01*
X142603333Y-104094900D02*
X142503333Y-104061567D01*
X142503333Y-104061567D02*
X142436667Y-103994900D01*
X142436667Y-103994900D02*
X142403333Y-103928233D01*
X142403333Y-103928233D02*
X142370000Y-103794900D01*
X142370000Y-103794900D02*
X142370000Y-103694900D01*
X142370000Y-103694900D02*
X142403333Y-103561567D01*
X142403333Y-103561567D02*
X142436667Y-103494900D01*
X142436667Y-103494900D02*
X142503333Y-103428233D01*
X142503333Y-103428233D02*
X142603333Y-103394900D01*
X142603333Y-103394900D02*
X142670000Y-103394900D01*
X142670000Y-103394900D02*
X142770000Y-103428233D01*
X142770000Y-103428233D02*
X142803333Y-103461567D01*
X143036667Y-103394900D02*
X143470000Y-103394900D01*
X143470000Y-103394900D02*
X143236667Y-103661567D01*
X143236667Y-103661567D02*
X143336667Y-103661567D01*
X143336667Y-103661567D02*
X143403333Y-103694900D01*
X143403333Y-103694900D02*
X143436667Y-103728233D01*
X143436667Y-103728233D02*
X143470000Y-103794900D01*
X143470000Y-103794900D02*
X143470000Y-103961567D01*
X143470000Y-103961567D02*
X143436667Y-104028233D01*
X143436667Y-104028233D02*
X143403333Y-104061567D01*
X143403333Y-104061567D02*
X143336667Y-104094900D01*
X143336667Y-104094900D02*
X143136667Y-104094900D01*
X143136667Y-104094900D02*
X143070000Y-104061567D01*
X143070000Y-104061567D02*
X143036667Y-104028233D01*
X148407466Y-80970233D02*
X148407466Y-81470233D01*
X148407466Y-81470233D02*
X148374133Y-81570233D01*
X148374133Y-81570233D02*
X148307466Y-81636900D01*
X148307466Y-81636900D02*
X148207466Y-81670233D01*
X148207466Y-81670233D02*
X148140800Y-81670233D01*
X149040799Y-81203566D02*
X149040799Y-81670233D01*
X148874133Y-80936900D02*
X148707466Y-81436900D01*
X148707466Y-81436900D02*
X149140799Y-81436900D01*
X122441666Y-87881700D02*
X122541666Y-87915033D01*
X122541666Y-87915033D02*
X122708333Y-87915033D01*
X122708333Y-87915033D02*
X122774999Y-87881700D01*
X122774999Y-87881700D02*
X122808333Y-87848366D01*
X122808333Y-87848366D02*
X122841666Y-87781700D01*
X122841666Y-87781700D02*
X122841666Y-87715033D01*
X122841666Y-87715033D02*
X122808333Y-87648366D01*
X122808333Y-87648366D02*
X122774999Y-87615033D01*
X122774999Y-87615033D02*
X122708333Y-87581700D01*
X122708333Y-87581700D02*
X122574999Y-87548366D01*
X122574999Y-87548366D02*
X122508333Y-87515033D01*
X122508333Y-87515033D02*
X122474999Y-87481700D01*
X122474999Y-87481700D02*
X122441666Y-87415033D01*
X122441666Y-87415033D02*
X122441666Y-87348366D01*
X122441666Y-87348366D02*
X122474999Y-87281700D01*
X122474999Y-87281700D02*
X122508333Y-87248366D01*
X122508333Y-87248366D02*
X122574999Y-87215033D01*
X122574999Y-87215033D02*
X122741666Y-87215033D01*
X122741666Y-87215033D02*
X122841666Y-87248366D01*
X123075000Y-87215033D02*
X123241666Y-87915033D01*
X123241666Y-87915033D02*
X123375000Y-87415033D01*
X123375000Y-87415033D02*
X123508333Y-87915033D01*
X123508333Y-87915033D02*
X123675000Y-87215033D01*
X123908333Y-87281700D02*
X123941666Y-87248366D01*
X123941666Y-87248366D02*
X124008333Y-87215033D01*
X124008333Y-87215033D02*
X124175000Y-87215033D01*
X124175000Y-87215033D02*
X124241666Y-87248366D01*
X124241666Y-87248366D02*
X124275000Y-87281700D01*
X124275000Y-87281700D02*
X124308333Y-87348366D01*
X124308333Y-87348366D02*
X124308333Y-87415033D01*
X124308333Y-87415033D02*
X124275000Y-87515033D01*
X124275000Y-87515033D02*
X123875000Y-87915033D01*
X123875000Y-87915033D02*
X124308333Y-87915033D01*
X138957333Y-87783633D02*
X138724000Y-87450300D01*
X138557333Y-87783633D02*
X138557333Y-87083633D01*
X138557333Y-87083633D02*
X138824000Y-87083633D01*
X138824000Y-87083633D02*
X138890667Y-87116966D01*
X138890667Y-87116966D02*
X138924000Y-87150300D01*
X138924000Y-87150300D02*
X138957333Y-87216966D01*
X138957333Y-87216966D02*
X138957333Y-87316966D01*
X138957333Y-87316966D02*
X138924000Y-87383633D01*
X138924000Y-87383633D02*
X138890667Y-87416966D01*
X138890667Y-87416966D02*
X138824000Y-87450300D01*
X138824000Y-87450300D02*
X138557333Y-87450300D01*
X139290667Y-87783633D02*
X139424000Y-87783633D01*
X139424000Y-87783633D02*
X139490667Y-87750300D01*
X139490667Y-87750300D02*
X139524000Y-87716966D01*
X139524000Y-87716966D02*
X139590667Y-87616966D01*
X139590667Y-87616966D02*
X139624000Y-87483633D01*
X139624000Y-87483633D02*
X139624000Y-87216966D01*
X139624000Y-87216966D02*
X139590667Y-87150300D01*
X139590667Y-87150300D02*
X139557333Y-87116966D01*
X139557333Y-87116966D02*
X139490667Y-87083633D01*
X139490667Y-87083633D02*
X139357333Y-87083633D01*
X139357333Y-87083633D02*
X139290667Y-87116966D01*
X139290667Y-87116966D02*
X139257333Y-87150300D01*
X139257333Y-87150300D02*
X139224000Y-87216966D01*
X139224000Y-87216966D02*
X139224000Y-87383633D01*
X139224000Y-87383633D02*
X139257333Y-87450300D01*
X139257333Y-87450300D02*
X139290667Y-87483633D01*
X139290667Y-87483633D02*
X139357333Y-87516966D01*
X139357333Y-87516966D02*
X139490667Y-87516966D01*
X139490667Y-87516966D02*
X139557333Y-87483633D01*
X139557333Y-87483633D02*
X139590667Y-87450300D01*
X139590667Y-87450300D02*
X139624000Y-87383633D01*
X131062666Y-104421533D02*
X131062666Y-104988200D01*
X131062666Y-104988200D02*
X131096000Y-105054866D01*
X131096000Y-105054866D02*
X131129333Y-105088200D01*
X131129333Y-105088200D02*
X131196000Y-105121533D01*
X131196000Y-105121533D02*
X131329333Y-105121533D01*
X131329333Y-105121533D02*
X131396000Y-105088200D01*
X131396000Y-105088200D02*
X131429333Y-105054866D01*
X131429333Y-105054866D02*
X131462666Y-104988200D01*
X131462666Y-104988200D02*
X131462666Y-104421533D01*
X131762666Y-104488200D02*
X131795999Y-104454866D01*
X131795999Y-104454866D02*
X131862666Y-104421533D01*
X131862666Y-104421533D02*
X132029333Y-104421533D01*
X132029333Y-104421533D02*
X132095999Y-104454866D01*
X132095999Y-104454866D02*
X132129333Y-104488200D01*
X132129333Y-104488200D02*
X132162666Y-104554866D01*
X132162666Y-104554866D02*
X132162666Y-104621533D01*
X132162666Y-104621533D02*
X132129333Y-104721533D01*
X132129333Y-104721533D02*
X131729333Y-105121533D01*
X131729333Y-105121533D02*
X132162666Y-105121533D01*
X120497666Y-82022500D02*
X120597666Y-82055833D01*
X120597666Y-82055833D02*
X120764333Y-82055833D01*
X120764333Y-82055833D02*
X120830999Y-82022500D01*
X120830999Y-82022500D02*
X120864333Y-81989166D01*
X120864333Y-81989166D02*
X120897666Y-81922500D01*
X120897666Y-81922500D02*
X120897666Y-81855833D01*
X120897666Y-81855833D02*
X120864333Y-81789166D01*
X120864333Y-81789166D02*
X120830999Y-81755833D01*
X120830999Y-81755833D02*
X120764333Y-81722500D01*
X120764333Y-81722500D02*
X120630999Y-81689166D01*
X120630999Y-81689166D02*
X120564333Y-81655833D01*
X120564333Y-81655833D02*
X120530999Y-81622500D01*
X120530999Y-81622500D02*
X120497666Y-81555833D01*
X120497666Y-81555833D02*
X120497666Y-81489166D01*
X120497666Y-81489166D02*
X120530999Y-81422500D01*
X120530999Y-81422500D02*
X120564333Y-81389166D01*
X120564333Y-81389166D02*
X120630999Y-81355833D01*
X120630999Y-81355833D02*
X120797666Y-81355833D01*
X120797666Y-81355833D02*
X120897666Y-81389166D01*
X121497666Y-81589166D02*
X121497666Y-82055833D01*
X121331000Y-81322500D02*
X121164333Y-81822500D01*
X121164333Y-81822500D02*
X121597666Y-81822500D01*
X137297333Y-84651833D02*
X137064000Y-84318500D01*
X136897333Y-84651833D02*
X136897333Y-83951833D01*
X136897333Y-83951833D02*
X137164000Y-83951833D01*
X137164000Y-83951833D02*
X137230667Y-83985166D01*
X137230667Y-83985166D02*
X137264000Y-84018500D01*
X137264000Y-84018500D02*
X137297333Y-84085166D01*
X137297333Y-84085166D02*
X137297333Y-84185166D01*
X137297333Y-84185166D02*
X137264000Y-84251833D01*
X137264000Y-84251833D02*
X137230667Y-84285166D01*
X137230667Y-84285166D02*
X137164000Y-84318500D01*
X137164000Y-84318500D02*
X136897333Y-84318500D01*
X137530667Y-83951833D02*
X137997333Y-83951833D01*
X137997333Y-83951833D02*
X137697333Y-84651833D01*
X127286599Y-85849966D02*
X127253266Y-85883300D01*
X127253266Y-85883300D02*
X127153266Y-85916633D01*
X127153266Y-85916633D02*
X127086599Y-85916633D01*
X127086599Y-85916633D02*
X126986599Y-85883300D01*
X126986599Y-85883300D02*
X126919933Y-85816633D01*
X126919933Y-85816633D02*
X126886599Y-85749966D01*
X126886599Y-85749966D02*
X126853266Y-85616633D01*
X126853266Y-85616633D02*
X126853266Y-85516633D01*
X126853266Y-85516633D02*
X126886599Y-85383300D01*
X126886599Y-85383300D02*
X126919933Y-85316633D01*
X126919933Y-85316633D02*
X126986599Y-85249966D01*
X126986599Y-85249966D02*
X127086599Y-85216633D01*
X127086599Y-85216633D02*
X127153266Y-85216633D01*
X127153266Y-85216633D02*
X127253266Y-85249966D01*
X127253266Y-85249966D02*
X127286599Y-85283300D01*
X127953266Y-85916633D02*
X127553266Y-85916633D01*
X127753266Y-85916633D02*
X127753266Y-85216633D01*
X127753266Y-85216633D02*
X127686599Y-85316633D01*
X127686599Y-85316633D02*
X127619933Y-85383300D01*
X127619933Y-85383300D02*
X127553266Y-85416633D01*
X128386600Y-85216633D02*
X128453266Y-85216633D01*
X128453266Y-85216633D02*
X128519933Y-85249966D01*
X128519933Y-85249966D02*
X128553266Y-85283300D01*
X128553266Y-85283300D02*
X128586600Y-85349966D01*
X128586600Y-85349966D02*
X128619933Y-85483300D01*
X128619933Y-85483300D02*
X128619933Y-85649966D01*
X128619933Y-85649966D02*
X128586600Y-85783300D01*
X128586600Y-85783300D02*
X128553266Y-85849966D01*
X128553266Y-85849966D02*
X128519933Y-85883300D01*
X128519933Y-85883300D02*
X128453266Y-85916633D01*
X128453266Y-85916633D02*
X128386600Y-85916633D01*
X128386600Y-85916633D02*
X128319933Y-85883300D01*
X128319933Y-85883300D02*
X128286600Y-85849966D01*
X128286600Y-85849966D02*
X128253266Y-85783300D01*
X128253266Y-85783300D02*
X128219933Y-85649966D01*
X128219933Y-85649966D02*
X128219933Y-85483300D01*
X128219933Y-85483300D02*
X128253266Y-85349966D01*
X128253266Y-85349966D02*
X128286600Y-85283300D01*
X128286600Y-85283300D02*
X128319933Y-85249966D01*
X128319933Y-85249966D02*
X128386600Y-85216633D01*
X151340399Y-95975033D02*
X151107066Y-95641700D01*
X150940399Y-95975033D02*
X150940399Y-95275033D01*
X150940399Y-95275033D02*
X151207066Y-95275033D01*
X151207066Y-95275033D02*
X151273733Y-95308366D01*
X151273733Y-95308366D02*
X151307066Y-95341700D01*
X151307066Y-95341700D02*
X151340399Y-95408366D01*
X151340399Y-95408366D02*
X151340399Y-95508366D01*
X151340399Y-95508366D02*
X151307066Y-95575033D01*
X151307066Y-95575033D02*
X151273733Y-95608366D01*
X151273733Y-95608366D02*
X151207066Y-95641700D01*
X151207066Y-95641700D02*
X150940399Y-95641700D01*
X152007066Y-95975033D02*
X151607066Y-95975033D01*
X151807066Y-95975033D02*
X151807066Y-95275033D01*
X151807066Y-95275033D02*
X151740399Y-95375033D01*
X151740399Y-95375033D02*
X151673733Y-95441700D01*
X151673733Y-95441700D02*
X151607066Y-95475033D01*
X152340400Y-95975033D02*
X152473733Y-95975033D01*
X152473733Y-95975033D02*
X152540400Y-95941700D01*
X152540400Y-95941700D02*
X152573733Y-95908366D01*
X152573733Y-95908366D02*
X152640400Y-95808366D01*
X152640400Y-95808366D02*
X152673733Y-95675033D01*
X152673733Y-95675033D02*
X152673733Y-95408366D01*
X152673733Y-95408366D02*
X152640400Y-95341700D01*
X152640400Y-95341700D02*
X152607066Y-95308366D01*
X152607066Y-95308366D02*
X152540400Y-95275033D01*
X152540400Y-95275033D02*
X152407066Y-95275033D01*
X152407066Y-95275033D02*
X152340400Y-95308366D01*
X152340400Y-95308366D02*
X152307066Y-95341700D01*
X152307066Y-95341700D02*
X152273733Y-95408366D01*
X152273733Y-95408366D02*
X152273733Y-95575033D01*
X152273733Y-95575033D02*
X152307066Y-95641700D01*
X152307066Y-95641700D02*
X152340400Y-95675033D01*
X152340400Y-95675033D02*
X152407066Y-95708366D01*
X152407066Y-95708366D02*
X152540400Y-95708366D01*
X152540400Y-95708366D02*
X152607066Y-95675033D01*
X152607066Y-95675033D02*
X152640400Y-95641700D01*
X152640400Y-95641700D02*
X152673733Y-95575033D01*
X120396066Y-115398100D02*
X120496066Y-115431433D01*
X120496066Y-115431433D02*
X120662733Y-115431433D01*
X120662733Y-115431433D02*
X120729399Y-115398100D01*
X120729399Y-115398100D02*
X120762733Y-115364766D01*
X120762733Y-115364766D02*
X120796066Y-115298100D01*
X120796066Y-115298100D02*
X120796066Y-115231433D01*
X120796066Y-115231433D02*
X120762733Y-115164766D01*
X120762733Y-115164766D02*
X120729399Y-115131433D01*
X120729399Y-115131433D02*
X120662733Y-115098100D01*
X120662733Y-115098100D02*
X120529399Y-115064766D01*
X120529399Y-115064766D02*
X120462733Y-115031433D01*
X120462733Y-115031433D02*
X120429399Y-114998100D01*
X120429399Y-114998100D02*
X120396066Y-114931433D01*
X120396066Y-114931433D02*
X120396066Y-114864766D01*
X120396066Y-114864766D02*
X120429399Y-114798100D01*
X120429399Y-114798100D02*
X120462733Y-114764766D01*
X120462733Y-114764766D02*
X120529399Y-114731433D01*
X120529399Y-114731433D02*
X120696066Y-114731433D01*
X120696066Y-114731433D02*
X120796066Y-114764766D01*
X121029400Y-114731433D02*
X121462733Y-114731433D01*
X121462733Y-114731433D02*
X121229400Y-114998100D01*
X121229400Y-114998100D02*
X121329400Y-114998100D01*
X121329400Y-114998100D02*
X121396066Y-115031433D01*
X121396066Y-115031433D02*
X121429400Y-115064766D01*
X121429400Y-115064766D02*
X121462733Y-115131433D01*
X121462733Y-115131433D02*
X121462733Y-115298100D01*
X121462733Y-115298100D02*
X121429400Y-115364766D01*
X121429400Y-115364766D02*
X121396066Y-115398100D01*
X121396066Y-115398100D02*
X121329400Y-115431433D01*
X121329400Y-115431433D02*
X121129400Y-115431433D01*
X121129400Y-115431433D02*
X121062733Y-115398100D01*
X121062733Y-115398100D02*
X121029400Y-115364766D01*
X146883933Y-104038233D02*
X146850600Y-104071567D01*
X146850600Y-104071567D02*
X146750600Y-104104900D01*
X146750600Y-104104900D02*
X146683933Y-104104900D01*
X146683933Y-104104900D02*
X146583933Y-104071567D01*
X146583933Y-104071567D02*
X146517267Y-104004900D01*
X146517267Y-104004900D02*
X146483933Y-103938233D01*
X146483933Y-103938233D02*
X146450600Y-103804900D01*
X146450600Y-103804900D02*
X146450600Y-103704900D01*
X146450600Y-103704900D02*
X146483933Y-103571567D01*
X146483933Y-103571567D02*
X146517267Y-103504900D01*
X146517267Y-103504900D02*
X146583933Y-103438233D01*
X146583933Y-103438233D02*
X146683933Y-103404900D01*
X146683933Y-103404900D02*
X146750600Y-103404900D01*
X146750600Y-103404900D02*
X146850600Y-103438233D01*
X146850600Y-103438233D02*
X146883933Y-103471567D01*
X147283933Y-103704900D02*
X147217267Y-103671567D01*
X147217267Y-103671567D02*
X147183933Y-103638233D01*
X147183933Y-103638233D02*
X147150600Y-103571567D01*
X147150600Y-103571567D02*
X147150600Y-103538233D01*
X147150600Y-103538233D02*
X147183933Y-103471567D01*
X147183933Y-103471567D02*
X147217267Y-103438233D01*
X147217267Y-103438233D02*
X147283933Y-103404900D01*
X147283933Y-103404900D02*
X147417267Y-103404900D01*
X147417267Y-103404900D02*
X147483933Y-103438233D01*
X147483933Y-103438233D02*
X147517267Y-103471567D01*
X147517267Y-103471567D02*
X147550600Y-103538233D01*
X147550600Y-103538233D02*
X147550600Y-103571567D01*
X147550600Y-103571567D02*
X147517267Y-103638233D01*
X147517267Y-103638233D02*
X147483933Y-103671567D01*
X147483933Y-103671567D02*
X147417267Y-103704900D01*
X147417267Y-103704900D02*
X147283933Y-103704900D01*
X147283933Y-103704900D02*
X147217267Y-103738233D01*
X147217267Y-103738233D02*
X147183933Y-103771567D01*
X147183933Y-103771567D02*
X147150600Y-103838233D01*
X147150600Y-103838233D02*
X147150600Y-103971567D01*
X147150600Y-103971567D02*
X147183933Y-104038233D01*
X147183933Y-104038233D02*
X147217267Y-104071567D01*
X147217267Y-104071567D02*
X147283933Y-104104900D01*
X147283933Y-104104900D02*
X147417267Y-104104900D01*
X147417267Y-104104900D02*
X147483933Y-104071567D01*
X147483933Y-104071567D02*
X147517267Y-104038233D01*
X147517267Y-104038233D02*
X147550600Y-103971567D01*
X147550600Y-103971567D02*
X147550600Y-103838233D01*
X147550600Y-103838233D02*
X147517267Y-103771567D01*
X147517267Y-103771567D02*
X147483933Y-103738233D01*
X147483933Y-103738233D02*
X147417267Y-103704900D01*
X148363333Y-89841966D02*
X148330000Y-89875300D01*
X148330000Y-89875300D02*
X148230000Y-89908633D01*
X148230000Y-89908633D02*
X148163333Y-89908633D01*
X148163333Y-89908633D02*
X148063333Y-89875300D01*
X148063333Y-89875300D02*
X147996667Y-89808633D01*
X147996667Y-89808633D02*
X147963333Y-89741966D01*
X147963333Y-89741966D02*
X147930000Y-89608633D01*
X147930000Y-89608633D02*
X147930000Y-89508633D01*
X147930000Y-89508633D02*
X147963333Y-89375300D01*
X147963333Y-89375300D02*
X147996667Y-89308633D01*
X147996667Y-89308633D02*
X148063333Y-89241966D01*
X148063333Y-89241966D02*
X148163333Y-89208633D01*
X148163333Y-89208633D02*
X148230000Y-89208633D01*
X148230000Y-89208633D02*
X148330000Y-89241966D01*
X148330000Y-89241966D02*
X148363333Y-89275300D01*
X148696667Y-89908633D02*
X148830000Y-89908633D01*
X148830000Y-89908633D02*
X148896667Y-89875300D01*
X148896667Y-89875300D02*
X148930000Y-89841966D01*
X148930000Y-89841966D02*
X148996667Y-89741966D01*
X148996667Y-89741966D02*
X149030000Y-89608633D01*
X149030000Y-89608633D02*
X149030000Y-89341966D01*
X149030000Y-89341966D02*
X148996667Y-89275300D01*
X148996667Y-89275300D02*
X148963333Y-89241966D01*
X148963333Y-89241966D02*
X148896667Y-89208633D01*
X148896667Y-89208633D02*
X148763333Y-89208633D01*
X148763333Y-89208633D02*
X148696667Y-89241966D01*
X148696667Y-89241966D02*
X148663333Y-89275300D01*
X148663333Y-89275300D02*
X148630000Y-89341966D01*
X148630000Y-89341966D02*
X148630000Y-89508633D01*
X148630000Y-89508633D02*
X148663333Y-89575300D01*
X148663333Y-89575300D02*
X148696667Y-89608633D01*
X148696667Y-89608633D02*
X148763333Y-89641966D01*
X148763333Y-89641966D02*
X148896667Y-89641966D01*
X148896667Y-89641966D02*
X148963333Y-89608633D01*
X148963333Y-89608633D02*
X148996667Y-89575300D01*
X148996667Y-89575300D02*
X149030000Y-89508633D01*
X130345999Y-107864866D02*
X130312666Y-107898200D01*
X130312666Y-107898200D02*
X130212666Y-107931533D01*
X130212666Y-107931533D02*
X130145999Y-107931533D01*
X130145999Y-107931533D02*
X130045999Y-107898200D01*
X130045999Y-107898200D02*
X129979333Y-107831533D01*
X129979333Y-107831533D02*
X129945999Y-107764866D01*
X129945999Y-107764866D02*
X129912666Y-107631533D01*
X129912666Y-107631533D02*
X129912666Y-107531533D01*
X129912666Y-107531533D02*
X129945999Y-107398200D01*
X129945999Y-107398200D02*
X129979333Y-107331533D01*
X129979333Y-107331533D02*
X130045999Y-107264866D01*
X130045999Y-107264866D02*
X130145999Y-107231533D01*
X130145999Y-107231533D02*
X130212666Y-107231533D01*
X130212666Y-107231533D02*
X130312666Y-107264866D01*
X130312666Y-107264866D02*
X130345999Y-107298200D01*
X131012666Y-107931533D02*
X130612666Y-107931533D01*
X130812666Y-107931533D02*
X130812666Y-107231533D01*
X130812666Y-107231533D02*
X130745999Y-107331533D01*
X130745999Y-107331533D02*
X130679333Y-107398200D01*
X130679333Y-107398200D02*
X130612666Y-107431533D01*
X131646000Y-107231533D02*
X131312666Y-107231533D01*
X131312666Y-107231533D02*
X131279333Y-107564866D01*
X131279333Y-107564866D02*
X131312666Y-107531533D01*
X131312666Y-107531533D02*
X131379333Y-107498200D01*
X131379333Y-107498200D02*
X131546000Y-107498200D01*
X131546000Y-107498200D02*
X131612666Y-107531533D01*
X131612666Y-107531533D02*
X131646000Y-107564866D01*
X131646000Y-107564866D02*
X131679333Y-107631533D01*
X131679333Y-107631533D02*
X131679333Y-107798200D01*
X131679333Y-107798200D02*
X131646000Y-107864866D01*
X131646000Y-107864866D02*
X131612666Y-107898200D01*
X131612666Y-107898200D02*
X131546000Y-107931533D01*
X131546000Y-107931533D02*
X131379333Y-107931533D01*
X131379333Y-107931533D02*
X131312666Y-107898200D01*
X131312666Y-107898200D02*
X131279333Y-107864866D01*
X140454166Y-108306133D02*
X140454166Y-108872800D01*
X140454166Y-108872800D02*
X140487500Y-108939466D01*
X140487500Y-108939466D02*
X140520833Y-108972800D01*
X140520833Y-108972800D02*
X140587500Y-109006133D01*
X140587500Y-109006133D02*
X140720833Y-109006133D01*
X140720833Y-109006133D02*
X140787500Y-108972800D01*
X140787500Y-108972800D02*
X140820833Y-108939466D01*
X140820833Y-108939466D02*
X140854166Y-108872800D01*
X140854166Y-108872800D02*
X140854166Y-108306133D01*
X141487499Y-108539466D02*
X141487499Y-109006133D01*
X141320833Y-108272800D02*
X141154166Y-108772800D01*
X141154166Y-108772800D02*
X141587499Y-108772800D01*
X121109600Y-111818166D02*
X121042933Y-111784833D01*
X121042933Y-111784833D02*
X120942933Y-111784833D01*
X120942933Y-111784833D02*
X120842933Y-111818166D01*
X120842933Y-111818166D02*
X120776267Y-111884833D01*
X120776267Y-111884833D02*
X120742933Y-111951500D01*
X120742933Y-111951500D02*
X120709600Y-112084833D01*
X120709600Y-112084833D02*
X120709600Y-112184833D01*
X120709600Y-112184833D02*
X120742933Y-112318166D01*
X120742933Y-112318166D02*
X120776267Y-112384833D01*
X120776267Y-112384833D02*
X120842933Y-112451500D01*
X120842933Y-112451500D02*
X120942933Y-112484833D01*
X120942933Y-112484833D02*
X121009600Y-112484833D01*
X121009600Y-112484833D02*
X121109600Y-112451500D01*
X121109600Y-112451500D02*
X121142933Y-112418166D01*
X121142933Y-112418166D02*
X121142933Y-112184833D01*
X121142933Y-112184833D02*
X121009600Y-112184833D01*
X121376267Y-111784833D02*
X121809600Y-111784833D01*
X121809600Y-111784833D02*
X121576267Y-112051500D01*
X121576267Y-112051500D02*
X121676267Y-112051500D01*
X121676267Y-112051500D02*
X121742933Y-112084833D01*
X121742933Y-112084833D02*
X121776267Y-112118166D01*
X121776267Y-112118166D02*
X121809600Y-112184833D01*
X121809600Y-112184833D02*
X121809600Y-112351500D01*
X121809600Y-112351500D02*
X121776267Y-112418166D01*
X121776267Y-112418166D02*
X121742933Y-112451500D01*
X121742933Y-112451500D02*
X121676267Y-112484833D01*
X121676267Y-112484833D02*
X121476267Y-112484833D01*
X121476267Y-112484833D02*
X121409600Y-112451500D01*
X121409600Y-112451500D02*
X121376267Y-112418166D01*
X150053333Y-92306966D02*
X150020000Y-92340300D01*
X150020000Y-92340300D02*
X149920000Y-92373633D01*
X149920000Y-92373633D02*
X149853333Y-92373633D01*
X149853333Y-92373633D02*
X149753333Y-92340300D01*
X149753333Y-92340300D02*
X149686667Y-92273633D01*
X149686667Y-92273633D02*
X149653333Y-92206966D01*
X149653333Y-92206966D02*
X149620000Y-92073633D01*
X149620000Y-92073633D02*
X149620000Y-91973633D01*
X149620000Y-91973633D02*
X149653333Y-91840300D01*
X149653333Y-91840300D02*
X149686667Y-91773633D01*
X149686667Y-91773633D02*
X149753333Y-91706966D01*
X149753333Y-91706966D02*
X149853333Y-91673633D01*
X149853333Y-91673633D02*
X149920000Y-91673633D01*
X149920000Y-91673633D02*
X150020000Y-91706966D01*
X150020000Y-91706966D02*
X150053333Y-91740300D01*
X150653333Y-91906966D02*
X150653333Y-92373633D01*
X150486667Y-91640300D02*
X150320000Y-92140300D01*
X150320000Y-92140300D02*
X150753333Y-92140300D01*
X134072866Y-83937833D02*
X134072866Y-84504500D01*
X134072866Y-84504500D02*
X134106200Y-84571166D01*
X134106200Y-84571166D02*
X134139533Y-84604500D01*
X134139533Y-84604500D02*
X134206200Y-84637833D01*
X134206200Y-84637833D02*
X134339533Y-84637833D01*
X134339533Y-84637833D02*
X134406200Y-84604500D01*
X134406200Y-84604500D02*
X134439533Y-84571166D01*
X134439533Y-84571166D02*
X134472866Y-84504500D01*
X134472866Y-84504500D02*
X134472866Y-83937833D01*
X134739533Y-83937833D02*
X135172866Y-83937833D01*
X135172866Y-83937833D02*
X134939533Y-84204500D01*
X134939533Y-84204500D02*
X135039533Y-84204500D01*
X135039533Y-84204500D02*
X135106199Y-84237833D01*
X135106199Y-84237833D02*
X135139533Y-84271166D01*
X135139533Y-84271166D02*
X135172866Y-84337833D01*
X135172866Y-84337833D02*
X135172866Y-84504500D01*
X135172866Y-84504500D02*
X135139533Y-84571166D01*
X135139533Y-84571166D02*
X135106199Y-84604500D01*
X135106199Y-84604500D02*
X135039533Y-84637833D01*
X135039533Y-84637833D02*
X134839533Y-84637833D01*
X134839533Y-84637833D02*
X134772866Y-84604500D01*
X134772866Y-84604500D02*
X134739533Y-84571166D01*
X133106333Y-88659833D02*
X132873000Y-88326500D01*
X132706333Y-88659833D02*
X132706333Y-87959833D01*
X132706333Y-87959833D02*
X132973000Y-87959833D01*
X132973000Y-87959833D02*
X133039667Y-87993166D01*
X133039667Y-87993166D02*
X133073000Y-88026500D01*
X133073000Y-88026500D02*
X133106333Y-88093166D01*
X133106333Y-88093166D02*
X133106333Y-88193166D01*
X133106333Y-88193166D02*
X133073000Y-88259833D01*
X133073000Y-88259833D02*
X133039667Y-88293166D01*
X133039667Y-88293166D02*
X132973000Y-88326500D01*
X132973000Y-88326500D02*
X132706333Y-88326500D01*
X133506333Y-88259833D02*
X133439667Y-88226500D01*
X133439667Y-88226500D02*
X133406333Y-88193166D01*
X133406333Y-88193166D02*
X133373000Y-88126500D01*
X133373000Y-88126500D02*
X133373000Y-88093166D01*
X133373000Y-88093166D02*
X133406333Y-88026500D01*
X133406333Y-88026500D02*
X133439667Y-87993166D01*
X133439667Y-87993166D02*
X133506333Y-87959833D01*
X133506333Y-87959833D02*
X133639667Y-87959833D01*
X133639667Y-87959833D02*
X133706333Y-87993166D01*
X133706333Y-87993166D02*
X133739667Y-88026500D01*
X133739667Y-88026500D02*
X133773000Y-88093166D01*
X133773000Y-88093166D02*
X133773000Y-88126500D01*
X133773000Y-88126500D02*
X133739667Y-88193166D01*
X133739667Y-88193166D02*
X133706333Y-88226500D01*
X133706333Y-88226500D02*
X133639667Y-88259833D01*
X133639667Y-88259833D02*
X133506333Y-88259833D01*
X133506333Y-88259833D02*
X133439667Y-88293166D01*
X133439667Y-88293166D02*
X133406333Y-88326500D01*
X133406333Y-88326500D02*
X133373000Y-88393166D01*
X133373000Y-88393166D02*
X133373000Y-88526500D01*
X133373000Y-88526500D02*
X133406333Y-88593166D01*
X133406333Y-88593166D02*
X133439667Y-88626500D01*
X133439667Y-88626500D02*
X133506333Y-88659833D01*
X133506333Y-88659833D02*
X133639667Y-88659833D01*
X133639667Y-88659833D02*
X133706333Y-88626500D01*
X133706333Y-88626500D02*
X133739667Y-88593166D01*
X133739667Y-88593166D02*
X133773000Y-88526500D01*
X133773000Y-88526500D02*
X133773000Y-88393166D01*
X133773000Y-88393166D02*
X133739667Y-88326500D01*
X133739667Y-88326500D02*
X133706333Y-88293166D01*
X133706333Y-88293166D02*
X133639667Y-88259833D01*
X129100733Y-80616400D02*
X129034066Y-80583066D01*
X129034066Y-80583066D02*
X128967400Y-80516400D01*
X128967400Y-80516400D02*
X128867400Y-80416400D01*
X128867400Y-80416400D02*
X128800733Y-80383066D01*
X128800733Y-80383066D02*
X128734066Y-80383066D01*
X128767400Y-80549733D02*
X128700733Y-80516400D01*
X128700733Y-80516400D02*
X128634066Y-80449733D01*
X128634066Y-80449733D02*
X128600733Y-80316400D01*
X128600733Y-80316400D02*
X128600733Y-80083066D01*
X128600733Y-80083066D02*
X128634066Y-79949733D01*
X128634066Y-79949733D02*
X128700733Y-79883066D01*
X128700733Y-79883066D02*
X128767400Y-79849733D01*
X128767400Y-79849733D02*
X128900733Y-79849733D01*
X128900733Y-79849733D02*
X128967400Y-79883066D01*
X128967400Y-79883066D02*
X129034066Y-79949733D01*
X129034066Y-79949733D02*
X129067400Y-80083066D01*
X129067400Y-80083066D02*
X129067400Y-80316400D01*
X129067400Y-80316400D02*
X129034066Y-80449733D01*
X129034066Y-80449733D02*
X128967400Y-80516400D01*
X128967400Y-80516400D02*
X128900733Y-80549733D01*
X128900733Y-80549733D02*
X128767400Y-80549733D01*
X129734066Y-80549733D02*
X129334066Y-80549733D01*
X129534066Y-80549733D02*
X129534066Y-79849733D01*
X129534066Y-79849733D02*
X129467399Y-79949733D01*
X129467399Y-79949733D02*
X129400733Y-80016400D01*
X129400733Y-80016400D02*
X129334066Y-80049733D01*
X131157399Y-96287966D02*
X131124066Y-96321300D01*
X131124066Y-96321300D02*
X131024066Y-96354633D01*
X131024066Y-96354633D02*
X130957399Y-96354633D01*
X130957399Y-96354633D02*
X130857399Y-96321300D01*
X130857399Y-96321300D02*
X130790733Y-96254633D01*
X130790733Y-96254633D02*
X130757399Y-96187966D01*
X130757399Y-96187966D02*
X130724066Y-96054633D01*
X130724066Y-96054633D02*
X130724066Y-95954633D01*
X130724066Y-95954633D02*
X130757399Y-95821300D01*
X130757399Y-95821300D02*
X130790733Y-95754633D01*
X130790733Y-95754633D02*
X130857399Y-95687966D01*
X130857399Y-95687966D02*
X130957399Y-95654633D01*
X130957399Y-95654633D02*
X131024066Y-95654633D01*
X131024066Y-95654633D02*
X131124066Y-95687966D01*
X131124066Y-95687966D02*
X131157399Y-95721300D01*
X131824066Y-96354633D02*
X131424066Y-96354633D01*
X131624066Y-96354633D02*
X131624066Y-95654633D01*
X131624066Y-95654633D02*
X131557399Y-95754633D01*
X131557399Y-95754633D02*
X131490733Y-95821300D01*
X131490733Y-95821300D02*
X131424066Y-95854633D01*
X132090733Y-95721300D02*
X132124066Y-95687966D01*
X132124066Y-95687966D02*
X132190733Y-95654633D01*
X132190733Y-95654633D02*
X132357400Y-95654633D01*
X132357400Y-95654633D02*
X132424066Y-95687966D01*
X132424066Y-95687966D02*
X132457400Y-95721300D01*
X132457400Y-95721300D02*
X132490733Y-95787966D01*
X132490733Y-95787966D02*
X132490733Y-95854633D01*
X132490733Y-95854633D02*
X132457400Y-95954633D01*
X132457400Y-95954633D02*
X132057400Y-96354633D01*
X132057400Y-96354633D02*
X132490733Y-96354633D01*
X158521466Y-82073300D02*
X158621466Y-82106633D01*
X158621466Y-82106633D02*
X158788133Y-82106633D01*
X158788133Y-82106633D02*
X158854799Y-82073300D01*
X158854799Y-82073300D02*
X158888133Y-82039966D01*
X158888133Y-82039966D02*
X158921466Y-81973300D01*
X158921466Y-81973300D02*
X158921466Y-81906633D01*
X158921466Y-81906633D02*
X158888133Y-81839966D01*
X158888133Y-81839966D02*
X158854799Y-81806633D01*
X158854799Y-81806633D02*
X158788133Y-81773300D01*
X158788133Y-81773300D02*
X158654799Y-81739966D01*
X158654799Y-81739966D02*
X158588133Y-81706633D01*
X158588133Y-81706633D02*
X158554799Y-81673300D01*
X158554799Y-81673300D02*
X158521466Y-81606633D01*
X158521466Y-81606633D02*
X158521466Y-81539966D01*
X158521466Y-81539966D02*
X158554799Y-81473300D01*
X158554799Y-81473300D02*
X158588133Y-81439966D01*
X158588133Y-81439966D02*
X158654799Y-81406633D01*
X158654799Y-81406633D02*
X158821466Y-81406633D01*
X158821466Y-81406633D02*
X158921466Y-81439966D01*
X159188133Y-81473300D02*
X159221466Y-81439966D01*
X159221466Y-81439966D02*
X159288133Y-81406633D01*
X159288133Y-81406633D02*
X159454800Y-81406633D01*
X159454800Y-81406633D02*
X159521466Y-81439966D01*
X159521466Y-81439966D02*
X159554800Y-81473300D01*
X159554800Y-81473300D02*
X159588133Y-81539966D01*
X159588133Y-81539966D02*
X159588133Y-81606633D01*
X159588133Y-81606633D02*
X159554800Y-81706633D01*
X159554800Y-81706633D02*
X159154800Y-82106633D01*
X159154800Y-82106633D02*
X159588133Y-82106633D01*
X158904800Y-84386366D02*
X158838133Y-84353033D01*
X158838133Y-84353033D02*
X158738133Y-84353033D01*
X158738133Y-84353033D02*
X158638133Y-84386366D01*
X158638133Y-84386366D02*
X158571467Y-84453033D01*
X158571467Y-84453033D02*
X158538133Y-84519700D01*
X158538133Y-84519700D02*
X158504800Y-84653033D01*
X158504800Y-84653033D02*
X158504800Y-84753033D01*
X158504800Y-84753033D02*
X158538133Y-84886366D01*
X158538133Y-84886366D02*
X158571467Y-84953033D01*
X158571467Y-84953033D02*
X158638133Y-85019700D01*
X158638133Y-85019700D02*
X158738133Y-85053033D01*
X158738133Y-85053033D02*
X158804800Y-85053033D01*
X158804800Y-85053033D02*
X158904800Y-85019700D01*
X158904800Y-85019700D02*
X158938133Y-84986366D01*
X158938133Y-84986366D02*
X158938133Y-84753033D01*
X158938133Y-84753033D02*
X158804800Y-84753033D01*
X159204800Y-84419700D02*
X159238133Y-84386366D01*
X159238133Y-84386366D02*
X159304800Y-84353033D01*
X159304800Y-84353033D02*
X159471467Y-84353033D01*
X159471467Y-84353033D02*
X159538133Y-84386366D01*
X159538133Y-84386366D02*
X159571467Y-84419700D01*
X159571467Y-84419700D02*
X159604800Y-84486366D01*
X159604800Y-84486366D02*
X159604800Y-84553033D01*
X159604800Y-84553033D02*
X159571467Y-84653033D01*
X159571467Y-84653033D02*
X159171467Y-85053033D01*
X159171467Y-85053033D02*
X159604800Y-85053033D01*
X136903333Y-104662966D02*
X136870000Y-104696300D01*
X136870000Y-104696300D02*
X136770000Y-104729633D01*
X136770000Y-104729633D02*
X136703333Y-104729633D01*
X136703333Y-104729633D02*
X136603333Y-104696300D01*
X136603333Y-104696300D02*
X136536667Y-104629633D01*
X136536667Y-104629633D02*
X136503333Y-104562966D01*
X136503333Y-104562966D02*
X136470000Y-104429633D01*
X136470000Y-104429633D02*
X136470000Y-104329633D01*
X136470000Y-104329633D02*
X136503333Y-104196300D01*
X136503333Y-104196300D02*
X136536667Y-104129633D01*
X136536667Y-104129633D02*
X136603333Y-104062966D01*
X136603333Y-104062966D02*
X136703333Y-104029633D01*
X136703333Y-104029633D02*
X136770000Y-104029633D01*
X136770000Y-104029633D02*
X136870000Y-104062966D01*
X136870000Y-104062966D02*
X136903333Y-104096300D01*
X137136667Y-104029633D02*
X137603333Y-104029633D01*
X137603333Y-104029633D02*
X137303333Y-104729633D01*
X122441666Y-92060300D02*
X122541666Y-92093633D01*
X122541666Y-92093633D02*
X122708333Y-92093633D01*
X122708333Y-92093633D02*
X122774999Y-92060300D01*
X122774999Y-92060300D02*
X122808333Y-92026966D01*
X122808333Y-92026966D02*
X122841666Y-91960300D01*
X122841666Y-91960300D02*
X122841666Y-91893633D01*
X122841666Y-91893633D02*
X122808333Y-91826966D01*
X122808333Y-91826966D02*
X122774999Y-91793633D01*
X122774999Y-91793633D02*
X122708333Y-91760300D01*
X122708333Y-91760300D02*
X122574999Y-91726966D01*
X122574999Y-91726966D02*
X122508333Y-91693633D01*
X122508333Y-91693633D02*
X122474999Y-91660300D01*
X122474999Y-91660300D02*
X122441666Y-91593633D01*
X122441666Y-91593633D02*
X122441666Y-91526966D01*
X122441666Y-91526966D02*
X122474999Y-91460300D01*
X122474999Y-91460300D02*
X122508333Y-91426966D01*
X122508333Y-91426966D02*
X122574999Y-91393633D01*
X122574999Y-91393633D02*
X122741666Y-91393633D01*
X122741666Y-91393633D02*
X122841666Y-91426966D01*
X123075000Y-91393633D02*
X123241666Y-92093633D01*
X123241666Y-92093633D02*
X123375000Y-91593633D01*
X123375000Y-91593633D02*
X123508333Y-92093633D01*
X123508333Y-92093633D02*
X123675000Y-91393633D01*
X124308333Y-92093633D02*
X123908333Y-92093633D01*
X124108333Y-92093633D02*
X124108333Y-91393633D01*
X124108333Y-91393633D02*
X124041666Y-91493633D01*
X124041666Y-91493633D02*
X123975000Y-91560300D01*
X123975000Y-91560300D02*
X123908333Y-91593633D01*
X131157399Y-84312166D02*
X131124066Y-84345500D01*
X131124066Y-84345500D02*
X131024066Y-84378833D01*
X131024066Y-84378833D02*
X130957399Y-84378833D01*
X130957399Y-84378833D02*
X130857399Y-84345500D01*
X130857399Y-84345500D02*
X130790733Y-84278833D01*
X130790733Y-84278833D02*
X130757399Y-84212166D01*
X130757399Y-84212166D02*
X130724066Y-84078833D01*
X130724066Y-84078833D02*
X130724066Y-83978833D01*
X130724066Y-83978833D02*
X130757399Y-83845500D01*
X130757399Y-83845500D02*
X130790733Y-83778833D01*
X130790733Y-83778833D02*
X130857399Y-83712166D01*
X130857399Y-83712166D02*
X130957399Y-83678833D01*
X130957399Y-83678833D02*
X131024066Y-83678833D01*
X131024066Y-83678833D02*
X131124066Y-83712166D01*
X131124066Y-83712166D02*
X131157399Y-83745500D01*
X131824066Y-84378833D02*
X131424066Y-84378833D01*
X131624066Y-84378833D02*
X131624066Y-83678833D01*
X131624066Y-83678833D02*
X131557399Y-83778833D01*
X131557399Y-83778833D02*
X131490733Y-83845500D01*
X131490733Y-83845500D02*
X131424066Y-83878833D01*
X132424066Y-83678833D02*
X132290733Y-83678833D01*
X132290733Y-83678833D02*
X132224066Y-83712166D01*
X132224066Y-83712166D02*
X132190733Y-83745500D01*
X132190733Y-83745500D02*
X132124066Y-83845500D01*
X132124066Y-83845500D02*
X132090733Y-83978833D01*
X132090733Y-83978833D02*
X132090733Y-84245500D01*
X132090733Y-84245500D02*
X132124066Y-84312166D01*
X132124066Y-84312166D02*
X132157400Y-84345500D01*
X132157400Y-84345500D02*
X132224066Y-84378833D01*
X132224066Y-84378833D02*
X132357400Y-84378833D01*
X132357400Y-84378833D02*
X132424066Y-84345500D01*
X132424066Y-84345500D02*
X132457400Y-84312166D01*
X132457400Y-84312166D02*
X132490733Y-84245500D01*
X132490733Y-84245500D02*
X132490733Y-84078833D01*
X132490733Y-84078833D02*
X132457400Y-84012166D01*
X132457400Y-84012166D02*
X132424066Y-83978833D01*
X132424066Y-83978833D02*
X132357400Y-83945500D01*
X132357400Y-83945500D02*
X132224066Y-83945500D01*
X132224066Y-83945500D02*
X132157400Y-83978833D01*
X132157400Y-83978833D02*
X132124066Y-84012166D01*
X132124066Y-84012166D02*
X132090733Y-84078833D01*
X129194733Y-90004333D02*
X128961400Y-89671000D01*
X128794733Y-90004333D02*
X128794733Y-89304333D01*
X128794733Y-89304333D02*
X129061400Y-89304333D01*
X129061400Y-89304333D02*
X129128067Y-89337666D01*
X129128067Y-89337666D02*
X129161400Y-89371000D01*
X129161400Y-89371000D02*
X129194733Y-89437666D01*
X129194733Y-89437666D02*
X129194733Y-89537666D01*
X129194733Y-89537666D02*
X129161400Y-89604333D01*
X129161400Y-89604333D02*
X129128067Y-89637666D01*
X129128067Y-89637666D02*
X129061400Y-89671000D01*
X129061400Y-89671000D02*
X128794733Y-89671000D01*
X129794733Y-89304333D02*
X129661400Y-89304333D01*
X129661400Y-89304333D02*
X129594733Y-89337666D01*
X129594733Y-89337666D02*
X129561400Y-89371000D01*
X129561400Y-89371000D02*
X129494733Y-89471000D01*
X129494733Y-89471000D02*
X129461400Y-89604333D01*
X129461400Y-89604333D02*
X129461400Y-89871000D01*
X129461400Y-89871000D02*
X129494733Y-89937666D01*
X129494733Y-89937666D02*
X129528067Y-89971000D01*
X129528067Y-89971000D02*
X129594733Y-90004333D01*
X129594733Y-90004333D02*
X129728067Y-90004333D01*
X129728067Y-90004333D02*
X129794733Y-89971000D01*
X129794733Y-89971000D02*
X129828067Y-89937666D01*
X129828067Y-89937666D02*
X129861400Y-89871000D01*
X129861400Y-89871000D02*
X129861400Y-89704333D01*
X129861400Y-89704333D02*
X129828067Y-89637666D01*
X129828067Y-89637666D02*
X129794733Y-89604333D01*
X129794733Y-89604333D02*
X129728067Y-89571000D01*
X129728067Y-89571000D02*
X129594733Y-89571000D01*
X129594733Y-89571000D02*
X129528067Y-89604333D01*
X129528067Y-89604333D02*
X129494733Y-89637666D01*
X129494733Y-89637666D02*
X129461400Y-89704333D01*
X120742933Y-85129233D02*
X120742933Y-84429233D01*
X120742933Y-84429233D02*
X121009600Y-84429233D01*
X121009600Y-84429233D02*
X121076267Y-84462566D01*
X121076267Y-84462566D02*
X121109600Y-84495900D01*
X121109600Y-84495900D02*
X121142933Y-84562566D01*
X121142933Y-84562566D02*
X121142933Y-84662566D01*
X121142933Y-84662566D02*
X121109600Y-84729233D01*
X121109600Y-84729233D02*
X121076267Y-84762566D01*
X121076267Y-84762566D02*
X121009600Y-84795900D01*
X121009600Y-84795900D02*
X120742933Y-84795900D01*
X121742933Y-84662566D02*
X121742933Y-85129233D01*
X121576267Y-84395900D02*
X121409600Y-84895900D01*
X121409600Y-84895900D02*
X121842933Y-84895900D01*
X122913000Y-79026966D02*
X122846333Y-78993633D01*
X122846333Y-78993633D02*
X122746333Y-78993633D01*
X122746333Y-78993633D02*
X122646333Y-79026966D01*
X122646333Y-79026966D02*
X122579667Y-79093633D01*
X122579667Y-79093633D02*
X122546333Y-79160300D01*
X122546333Y-79160300D02*
X122513000Y-79293633D01*
X122513000Y-79293633D02*
X122513000Y-79393633D01*
X122513000Y-79393633D02*
X122546333Y-79526966D01*
X122546333Y-79526966D02*
X122579667Y-79593633D01*
X122579667Y-79593633D02*
X122646333Y-79660300D01*
X122646333Y-79660300D02*
X122746333Y-79693633D01*
X122746333Y-79693633D02*
X122813000Y-79693633D01*
X122813000Y-79693633D02*
X122913000Y-79660300D01*
X122913000Y-79660300D02*
X122946333Y-79626966D01*
X122946333Y-79626966D02*
X122946333Y-79393633D01*
X122946333Y-79393633D02*
X122813000Y-79393633D01*
X123546333Y-79226966D02*
X123546333Y-79693633D01*
X123379667Y-78960300D02*
X123213000Y-79460300D01*
X123213000Y-79460300D02*
X123646333Y-79460300D01*
X155820333Y-106338233D02*
X155820333Y-105638233D01*
X155820333Y-105638233D02*
X155987000Y-105638233D01*
X155987000Y-105638233D02*
X156087000Y-105671566D01*
X156087000Y-105671566D02*
X156153667Y-105738233D01*
X156153667Y-105738233D02*
X156187000Y-105804900D01*
X156187000Y-105804900D02*
X156220333Y-105938233D01*
X156220333Y-105938233D02*
X156220333Y-106038233D01*
X156220333Y-106038233D02*
X156187000Y-106171566D01*
X156187000Y-106171566D02*
X156153667Y-106238233D01*
X156153667Y-106238233D02*
X156087000Y-106304900D01*
X156087000Y-106304900D02*
X155987000Y-106338233D01*
X155987000Y-106338233D02*
X155820333Y-106338233D01*
X156453667Y-105638233D02*
X156887000Y-105638233D01*
X156887000Y-105638233D02*
X156653667Y-105904900D01*
X156653667Y-105904900D02*
X156753667Y-105904900D01*
X156753667Y-105904900D02*
X156820333Y-105938233D01*
X156820333Y-105938233D02*
X156853667Y-105971566D01*
X156853667Y-105971566D02*
X156887000Y-106038233D01*
X156887000Y-106038233D02*
X156887000Y-106204900D01*
X156887000Y-106204900D02*
X156853667Y-106271566D01*
X156853667Y-106271566D02*
X156820333Y-106304900D01*
X156820333Y-106304900D02*
X156753667Y-106338233D01*
X156753667Y-106338233D02*
X156553667Y-106338233D01*
X156553667Y-106338233D02*
X156487000Y-106304900D01*
X156487000Y-106304900D02*
X156453667Y-106271566D01*
X132224999Y-110291966D02*
X132191666Y-110325300D01*
X132191666Y-110325300D02*
X132091666Y-110358633D01*
X132091666Y-110358633D02*
X132024999Y-110358633D01*
X132024999Y-110358633D02*
X131924999Y-110325300D01*
X131924999Y-110325300D02*
X131858333Y-110258633D01*
X131858333Y-110258633D02*
X131824999Y-110191966D01*
X131824999Y-110191966D02*
X131791666Y-110058633D01*
X131791666Y-110058633D02*
X131791666Y-109958633D01*
X131791666Y-109958633D02*
X131824999Y-109825300D01*
X131824999Y-109825300D02*
X131858333Y-109758633D01*
X131858333Y-109758633D02*
X131924999Y-109691966D01*
X131924999Y-109691966D02*
X132024999Y-109658633D01*
X132024999Y-109658633D02*
X132091666Y-109658633D01*
X132091666Y-109658633D02*
X132191666Y-109691966D01*
X132191666Y-109691966D02*
X132224999Y-109725300D01*
X132891666Y-110358633D02*
X132491666Y-110358633D01*
X132691666Y-110358633D02*
X132691666Y-109658633D01*
X132691666Y-109658633D02*
X132624999Y-109758633D01*
X132624999Y-109758633D02*
X132558333Y-109825300D01*
X132558333Y-109825300D02*
X132491666Y-109858633D01*
X133291666Y-109958633D02*
X133225000Y-109925300D01*
X133225000Y-109925300D02*
X133191666Y-109891966D01*
X133191666Y-109891966D02*
X133158333Y-109825300D01*
X133158333Y-109825300D02*
X133158333Y-109791966D01*
X133158333Y-109791966D02*
X133191666Y-109725300D01*
X133191666Y-109725300D02*
X133225000Y-109691966D01*
X133225000Y-109691966D02*
X133291666Y-109658633D01*
X133291666Y-109658633D02*
X133425000Y-109658633D01*
X133425000Y-109658633D02*
X133491666Y-109691966D01*
X133491666Y-109691966D02*
X133525000Y-109725300D01*
X133525000Y-109725300D02*
X133558333Y-109791966D01*
X133558333Y-109791966D02*
X133558333Y-109825300D01*
X133558333Y-109825300D02*
X133525000Y-109891966D01*
X133525000Y-109891966D02*
X133491666Y-109925300D01*
X133491666Y-109925300D02*
X133425000Y-109958633D01*
X133425000Y-109958633D02*
X133291666Y-109958633D01*
X133291666Y-109958633D02*
X133225000Y-109991966D01*
X133225000Y-109991966D02*
X133191666Y-110025300D01*
X133191666Y-110025300D02*
X133158333Y-110091966D01*
X133158333Y-110091966D02*
X133158333Y-110225300D01*
X133158333Y-110225300D02*
X133191666Y-110291966D01*
X133191666Y-110291966D02*
X133225000Y-110325300D01*
X133225000Y-110325300D02*
X133291666Y-110358633D01*
X133291666Y-110358633D02*
X133425000Y-110358633D01*
X133425000Y-110358633D02*
X133491666Y-110325300D01*
X133491666Y-110325300D02*
X133525000Y-110291966D01*
X133525000Y-110291966D02*
X133558333Y-110225300D01*
X133558333Y-110225300D02*
X133558333Y-110091966D01*
X133558333Y-110091966D02*
X133525000Y-110025300D01*
X133525000Y-110025300D02*
X133491666Y-109991966D01*
X133491666Y-109991966D02*
X133425000Y-109958633D01*
X129968667Y-97521300D02*
X129968667Y-97854633D01*
X129735333Y-97154633D02*
X129968667Y-97521300D01*
X129968667Y-97521300D02*
X130202000Y-97154633D01*
X130802000Y-97854633D02*
X130402000Y-97854633D01*
X130602000Y-97854633D02*
X130602000Y-97154633D01*
X130602000Y-97154633D02*
X130535333Y-97254633D01*
X130535333Y-97254633D02*
X130468667Y-97321300D01*
X130468667Y-97321300D02*
X130402000Y-97354633D01*
X158538133Y-112459633D02*
X158538133Y-111759633D01*
X158538133Y-111759633D02*
X158804800Y-111759633D01*
X158804800Y-111759633D02*
X158871467Y-111792966D01*
X158871467Y-111792966D02*
X158904800Y-111826300D01*
X158904800Y-111826300D02*
X158938133Y-111892966D01*
X158938133Y-111892966D02*
X158938133Y-111992966D01*
X158938133Y-111992966D02*
X158904800Y-112059633D01*
X158904800Y-112059633D02*
X158871467Y-112092966D01*
X158871467Y-112092966D02*
X158804800Y-112126300D01*
X158804800Y-112126300D02*
X158538133Y-112126300D01*
X159604800Y-112459633D02*
X159204800Y-112459633D01*
X159404800Y-112459633D02*
X159404800Y-111759633D01*
X159404800Y-111759633D02*
X159338133Y-111859633D01*
X159338133Y-111859633D02*
X159271467Y-111926300D01*
X159271467Y-111926300D02*
X159204800Y-111959633D01*
X129194733Y-93148633D02*
X128961400Y-92815300D01*
X128794733Y-93148633D02*
X128794733Y-92448633D01*
X128794733Y-92448633D02*
X129061400Y-92448633D01*
X129061400Y-92448633D02*
X129128067Y-92481966D01*
X129128067Y-92481966D02*
X129161400Y-92515300D01*
X129161400Y-92515300D02*
X129194733Y-92581966D01*
X129194733Y-92581966D02*
X129194733Y-92681966D01*
X129194733Y-92681966D02*
X129161400Y-92748633D01*
X129161400Y-92748633D02*
X129128067Y-92781966D01*
X129128067Y-92781966D02*
X129061400Y-92815300D01*
X129061400Y-92815300D02*
X128794733Y-92815300D01*
X129794733Y-92681966D02*
X129794733Y-93148633D01*
X129628067Y-92415300D02*
X129461400Y-92915300D01*
X129461400Y-92915300D02*
X129894733Y-92915300D01*
X125986333Y-94737966D02*
X125953000Y-94771300D01*
X125953000Y-94771300D02*
X125853000Y-94804633D01*
X125853000Y-94804633D02*
X125786333Y-94804633D01*
X125786333Y-94804633D02*
X125686333Y-94771300D01*
X125686333Y-94771300D02*
X125619667Y-94704633D01*
X125619667Y-94704633D02*
X125586333Y-94637966D01*
X125586333Y-94637966D02*
X125553000Y-94504633D01*
X125553000Y-94504633D02*
X125553000Y-94404633D01*
X125553000Y-94404633D02*
X125586333Y-94271300D01*
X125586333Y-94271300D02*
X125619667Y-94204633D01*
X125619667Y-94204633D02*
X125686333Y-94137966D01*
X125686333Y-94137966D02*
X125786333Y-94104633D01*
X125786333Y-94104633D02*
X125853000Y-94104633D01*
X125853000Y-94104633D02*
X125953000Y-94137966D01*
X125953000Y-94137966D02*
X125986333Y-94171300D01*
X126653000Y-94804633D02*
X126253000Y-94804633D01*
X126453000Y-94804633D02*
X126453000Y-94104633D01*
X126453000Y-94104633D02*
X126386333Y-94204633D01*
X126386333Y-94204633D02*
X126319667Y-94271300D01*
X126319667Y-94271300D02*
X126253000Y-94304633D01*
X124372833Y-97219633D02*
X124139500Y-96886300D01*
X123972833Y-97219633D02*
X123972833Y-96519633D01*
X123972833Y-96519633D02*
X124239500Y-96519633D01*
X124239500Y-96519633D02*
X124306167Y-96552966D01*
X124306167Y-96552966D02*
X124339500Y-96586300D01*
X124339500Y-96586300D02*
X124372833Y-96652966D01*
X124372833Y-96652966D02*
X124372833Y-96752966D01*
X124372833Y-96752966D02*
X124339500Y-96819633D01*
X124339500Y-96819633D02*
X124306167Y-96852966D01*
X124306167Y-96852966D02*
X124239500Y-96886300D01*
X124239500Y-96886300D02*
X123972833Y-96886300D01*
X125039500Y-97219633D02*
X124639500Y-97219633D01*
X124839500Y-97219633D02*
X124839500Y-96519633D01*
X124839500Y-96519633D02*
X124772833Y-96619633D01*
X124772833Y-96619633D02*
X124706167Y-96686300D01*
X124706167Y-96686300D02*
X124639500Y-96719633D01*
X133052399Y-89939366D02*
X133019066Y-89972700D01*
X133019066Y-89972700D02*
X132919066Y-90006033D01*
X132919066Y-90006033D02*
X132852399Y-90006033D01*
X132852399Y-90006033D02*
X132752399Y-89972700D01*
X132752399Y-89972700D02*
X132685733Y-89906033D01*
X132685733Y-89906033D02*
X132652399Y-89839366D01*
X132652399Y-89839366D02*
X132619066Y-89706033D01*
X132619066Y-89706033D02*
X132619066Y-89606033D01*
X132619066Y-89606033D02*
X132652399Y-89472700D01*
X132652399Y-89472700D02*
X132685733Y-89406033D01*
X132685733Y-89406033D02*
X132752399Y-89339366D01*
X132752399Y-89339366D02*
X132852399Y-89306033D01*
X132852399Y-89306033D02*
X132919066Y-89306033D01*
X132919066Y-89306033D02*
X133019066Y-89339366D01*
X133019066Y-89339366D02*
X133052399Y-89372700D01*
X133719066Y-90006033D02*
X133319066Y-90006033D01*
X133519066Y-90006033D02*
X133519066Y-89306033D01*
X133519066Y-89306033D02*
X133452399Y-89406033D01*
X133452399Y-89406033D02*
X133385733Y-89472700D01*
X133385733Y-89472700D02*
X133319066Y-89506033D01*
X134385733Y-90006033D02*
X133985733Y-90006033D01*
X134185733Y-90006033D02*
X134185733Y-89306033D01*
X134185733Y-89306033D02*
X134119066Y-89406033D01*
X134119066Y-89406033D02*
X134052400Y-89472700D01*
X134052400Y-89472700D02*
X133985733Y-89506033D01*
X129194733Y-91484816D02*
X129161400Y-91518150D01*
X129161400Y-91518150D02*
X129061400Y-91551483D01*
X129061400Y-91551483D02*
X128994733Y-91551483D01*
X128994733Y-91551483D02*
X128894733Y-91518150D01*
X128894733Y-91518150D02*
X128828067Y-91451483D01*
X128828067Y-91451483D02*
X128794733Y-91384816D01*
X128794733Y-91384816D02*
X128761400Y-91251483D01*
X128761400Y-91251483D02*
X128761400Y-91151483D01*
X128761400Y-91151483D02*
X128794733Y-91018150D01*
X128794733Y-91018150D02*
X128828067Y-90951483D01*
X128828067Y-90951483D02*
X128894733Y-90884816D01*
X128894733Y-90884816D02*
X128994733Y-90851483D01*
X128994733Y-90851483D02*
X129061400Y-90851483D01*
X129061400Y-90851483D02*
X129161400Y-90884816D01*
X129161400Y-90884816D02*
X129194733Y-90918150D01*
X129794733Y-90851483D02*
X129661400Y-90851483D01*
X129661400Y-90851483D02*
X129594733Y-90884816D01*
X129594733Y-90884816D02*
X129561400Y-90918150D01*
X129561400Y-90918150D02*
X129494733Y-91018150D01*
X129494733Y-91018150D02*
X129461400Y-91151483D01*
X129461400Y-91151483D02*
X129461400Y-91418150D01*
X129461400Y-91418150D02*
X129494733Y-91484816D01*
X129494733Y-91484816D02*
X129528067Y-91518150D01*
X129528067Y-91518150D02*
X129594733Y-91551483D01*
X129594733Y-91551483D02*
X129728067Y-91551483D01*
X129728067Y-91551483D02*
X129794733Y-91518150D01*
X129794733Y-91518150D02*
X129828067Y-91484816D01*
X129828067Y-91484816D02*
X129861400Y-91418150D01*
X129861400Y-91418150D02*
X129861400Y-91251483D01*
X129861400Y-91251483D02*
X129828067Y-91184816D01*
X129828067Y-91184816D02*
X129794733Y-91151483D01*
X129794733Y-91151483D02*
X129728067Y-91118150D01*
X129728067Y-91118150D02*
X129594733Y-91118150D01*
X129594733Y-91118150D02*
X129528067Y-91151483D01*
X129528067Y-91151483D02*
X129494733Y-91184816D01*
X129494733Y-91184816D02*
X129461400Y-91251483D01*
X131480733Y-92669816D02*
X131447400Y-92703150D01*
X131447400Y-92703150D02*
X131347400Y-92736483D01*
X131347400Y-92736483D02*
X131280733Y-92736483D01*
X131280733Y-92736483D02*
X131180733Y-92703150D01*
X131180733Y-92703150D02*
X131114067Y-92636483D01*
X131114067Y-92636483D02*
X131080733Y-92569816D01*
X131080733Y-92569816D02*
X131047400Y-92436483D01*
X131047400Y-92436483D02*
X131047400Y-92336483D01*
X131047400Y-92336483D02*
X131080733Y-92203150D01*
X131080733Y-92203150D02*
X131114067Y-92136483D01*
X131114067Y-92136483D02*
X131180733Y-92069816D01*
X131180733Y-92069816D02*
X131280733Y-92036483D01*
X131280733Y-92036483D02*
X131347400Y-92036483D01*
X131347400Y-92036483D02*
X131447400Y-92069816D01*
X131447400Y-92069816D02*
X131480733Y-92103150D01*
X132114067Y-92036483D02*
X131780733Y-92036483D01*
X131780733Y-92036483D02*
X131747400Y-92369816D01*
X131747400Y-92369816D02*
X131780733Y-92336483D01*
X131780733Y-92336483D02*
X131847400Y-92303150D01*
X131847400Y-92303150D02*
X132014067Y-92303150D01*
X132014067Y-92303150D02*
X132080733Y-92336483D01*
X132080733Y-92336483D02*
X132114067Y-92369816D01*
X132114067Y-92369816D02*
X132147400Y-92436483D01*
X132147400Y-92436483D02*
X132147400Y-92603150D01*
X132147400Y-92603150D02*
X132114067Y-92669816D01*
X132114067Y-92669816D02*
X132080733Y-92703150D01*
X132080733Y-92703150D02*
X132014067Y-92736483D01*
X132014067Y-92736483D02*
X131847400Y-92736483D01*
X131847400Y-92736483D02*
X131780733Y-92703150D01*
X131780733Y-92703150D02*
X131747400Y-92669816D01*
X124415999Y-107464866D02*
X124382666Y-107498200D01*
X124382666Y-107498200D02*
X124282666Y-107531533D01*
X124282666Y-107531533D02*
X124215999Y-107531533D01*
X124215999Y-107531533D02*
X124115999Y-107498200D01*
X124115999Y-107498200D02*
X124049333Y-107431533D01*
X124049333Y-107431533D02*
X124015999Y-107364866D01*
X124015999Y-107364866D02*
X123982666Y-107231533D01*
X123982666Y-107231533D02*
X123982666Y-107131533D01*
X123982666Y-107131533D02*
X124015999Y-106998200D01*
X124015999Y-106998200D02*
X124049333Y-106931533D01*
X124049333Y-106931533D02*
X124115999Y-106864866D01*
X124115999Y-106864866D02*
X124215999Y-106831533D01*
X124215999Y-106831533D02*
X124282666Y-106831533D01*
X124282666Y-106831533D02*
X124382666Y-106864866D01*
X124382666Y-106864866D02*
X124415999Y-106898200D01*
X125082666Y-107531533D02*
X124682666Y-107531533D01*
X124882666Y-107531533D02*
X124882666Y-106831533D01*
X124882666Y-106831533D02*
X124815999Y-106931533D01*
X124815999Y-106931533D02*
X124749333Y-106998200D01*
X124749333Y-106998200D02*
X124682666Y-107031533D01*
X125682666Y-107064866D02*
X125682666Y-107531533D01*
X125516000Y-106798200D02*
X125349333Y-107298200D01*
X125349333Y-107298200D02*
X125782666Y-107298200D01*
X157043633Y-99993333D02*
X157543633Y-99993333D01*
X157543633Y-99993333D02*
X157643633Y-100026666D01*
X157643633Y-100026666D02*
X157710300Y-100093333D01*
X157710300Y-100093333D02*
X157743633Y-100193333D01*
X157743633Y-100193333D02*
X157743633Y-100260000D01*
X157743633Y-99293333D02*
X157743633Y-99693333D01*
X157743633Y-99493333D02*
X157043633Y-99493333D01*
X157043633Y-99493333D02*
X157143633Y-99560000D01*
X157143633Y-99560000D02*
X157210300Y-99626667D01*
X157210300Y-99626667D02*
X157243633Y-99693333D01*
X147398066Y-115105833D02*
X147398066Y-115605833D01*
X147398066Y-115605833D02*
X147364733Y-115705833D01*
X147364733Y-115705833D02*
X147298066Y-115772500D01*
X147298066Y-115772500D02*
X147198066Y-115805833D01*
X147198066Y-115805833D02*
X147131400Y-115805833D01*
X148064733Y-115105833D02*
X147731399Y-115105833D01*
X147731399Y-115105833D02*
X147698066Y-115439166D01*
X147698066Y-115439166D02*
X147731399Y-115405833D01*
X147731399Y-115405833D02*
X147798066Y-115372500D01*
X147798066Y-115372500D02*
X147964733Y-115372500D01*
X147964733Y-115372500D02*
X148031399Y-115405833D01*
X148031399Y-115405833D02*
X148064733Y-115439166D01*
X148064733Y-115439166D02*
X148098066Y-115505833D01*
X148098066Y-115505833D02*
X148098066Y-115672500D01*
X148098066Y-115672500D02*
X148064733Y-115739166D01*
X148064733Y-115739166D02*
X148031399Y-115772500D01*
X148031399Y-115772500D02*
X147964733Y-115805833D01*
X147964733Y-115805833D02*
X147798066Y-115805833D01*
X147798066Y-115805833D02*
X147731399Y-115772500D01*
X147731399Y-115772500D02*
X147698066Y-115739166D01*
D13*
%TO.C,P2*%
X156097200Y-79502000D02*
G75*
G02*
X154697200Y-79502000I-700000J0D01*
G01*
X154697200Y-79502000D02*
G75*
G02*
X156097200Y-79502000I700000J0D01*
G01*
%TO.C,G1*%
X156097200Y-117322600D02*
G75*
G02*
X154697200Y-117322600I-700000J0D01*
G01*
X154697200Y-117322600D02*
G75*
G02*
X156097200Y-117322600I700000J0D01*
G01*
%TO.C,R23*%
X133577359Y-81560400D02*
X133884641Y-81560400D01*
X133577359Y-82320400D02*
X133884641Y-82320400D01*
%TO.C,J2*%
X131027400Y-113708800D02*
X132077400Y-113708800D01*
X131027400Y-116208800D02*
X131027400Y-113708800D01*
X132077400Y-113708800D02*
X132077400Y-112718800D01*
X132197400Y-118178800D02*
X136077400Y-118178800D01*
X137247400Y-113708800D02*
X136197400Y-113708800D01*
X137247400Y-116208800D02*
X137247400Y-113708800D01*
%TO.C,R3*%
X141199600Y-103630759D02*
X141199600Y-103938041D01*
X141959600Y-103630759D02*
X141959600Y-103938041D01*
%TO.C,U1*%
X134900000Y-90345000D02*
X135850000Y-90345000D01*
X134900000Y-91295000D02*
X134900000Y-90345000D01*
X134900000Y-100565000D02*
X134900000Y-99615000D01*
X135850000Y-100565000D02*
X134900000Y-100565000D01*
X144170000Y-90345000D02*
X145120000Y-90345000D01*
X145120000Y-90345000D02*
X145120000Y-91295000D01*
X145120000Y-99615000D02*
X145120000Y-100565000D01*
X145120000Y-100565000D02*
X144170000Y-100565000D01*
X134260000Y-91295000D02*
X133920000Y-90825000D01*
X134600000Y-90825000D01*
X134260000Y-91295000D01*
G36*
X134260000Y-91295000D02*
G01*
X133920000Y-90825000D01*
X134600000Y-90825000D01*
X134260000Y-91295000D01*
G37*
%TO.C,C2*%
X128021836Y-100226000D02*
X127806164Y-100226000D01*
X128021836Y-100946000D02*
X127806164Y-100946000D01*
%TO.C,R5*%
X127893641Y-87723550D02*
X127586359Y-87723550D01*
X127893641Y-88483550D02*
X127586359Y-88483550D01*
%TO.C,R11*%
X134918641Y-108340000D02*
X134611359Y-108340000D01*
X134918641Y-109100000D02*
X134611359Y-109100000D01*
%TO.C,S1*%
X158688000Y-116205000D02*
G75*
G02*
X157288000Y-116205000I-700000J0D01*
G01*
X157288000Y-116205000D02*
G75*
G02*
X158688000Y-116205000I700000J0D01*
G01*
%TO.C,P3*%
X125668000Y-117322600D02*
G75*
G02*
X124268000Y-117322600I-700000J0D01*
G01*
X124268000Y-117322600D02*
G75*
G02*
X125668000Y-117322600I700000J0D01*
G01*
%TO.C,C17*%
X131705236Y-86171400D02*
X131489564Y-86171400D01*
X131705236Y-86891400D02*
X131489564Y-86891400D01*
%TO.C,R10*%
X146435000Y-107653641D02*
X146435000Y-107346359D01*
X147195000Y-107653641D02*
X147195000Y-107346359D01*
%TO.C,C13*%
X126106000Y-104505064D02*
X126106000Y-104720736D01*
X126826000Y-104505064D02*
X126826000Y-104720736D01*
%TO.C,J8*%
X137780000Y-80636600D02*
X137780000Y-83136600D01*
X137780000Y-83136600D02*
X138830000Y-83136600D01*
X141830000Y-78666600D02*
X138950000Y-78666600D01*
X141950000Y-83136600D02*
X141950000Y-84126600D01*
X143000000Y-80636600D02*
X143000000Y-83136600D01*
X143000000Y-83136600D02*
X141950000Y-83136600D01*
%TO.C,R22*%
X129310159Y-81560400D02*
X129617441Y-81560400D01*
X129310159Y-82320400D02*
X129617441Y-82320400D01*
%TO.C,R20*%
X150443441Y-100534200D02*
X150136159Y-100534200D01*
X150443441Y-101294200D02*
X150136159Y-101294200D01*
D14*
%TO.C,G\u002A\u002A\u002A*%
G36*
X140845675Y-114049419D02*
G01*
X140874422Y-114062604D01*
X140897488Y-114081682D01*
X140901104Y-114086129D01*
X140905387Y-114093881D01*
X140914268Y-114111701D01*
X140927499Y-114139051D01*
X140944831Y-114175392D01*
X140966018Y-114220185D01*
X140990811Y-114272893D01*
X141018963Y-114332977D01*
X141050225Y-114399898D01*
X141084350Y-114473119D01*
X141121089Y-114552101D01*
X141160196Y-114636305D01*
X141201422Y-114725194D01*
X141244520Y-114818229D01*
X141289241Y-114914870D01*
X141335337Y-115014581D01*
X141382562Y-115116823D01*
X141430667Y-115221057D01*
X141479404Y-115326746D01*
X141528525Y-115433349D01*
X141577783Y-115540331D01*
X141626929Y-115647151D01*
X141675716Y-115753271D01*
X141723896Y-115858154D01*
X141771222Y-115961261D01*
X141817445Y-116062053D01*
X141862317Y-116159992D01*
X141905591Y-116254540D01*
X141947018Y-116345158D01*
X141986352Y-116431308D01*
X142023344Y-116512452D01*
X142057746Y-116588051D01*
X142089310Y-116657567D01*
X142117789Y-116720461D01*
X142142935Y-116776196D01*
X142164500Y-116824232D01*
X142182236Y-116864032D01*
X142195895Y-116895057D01*
X142205229Y-116916768D01*
X142209991Y-116928628D01*
X142210577Y-116930611D01*
X142208178Y-116959488D01*
X142201824Y-116977576D01*
X142182389Y-117007177D01*
X142156646Y-117028712D01*
X142126656Y-117041243D01*
X142094477Y-117043829D01*
X142068845Y-117038219D01*
X142061243Y-117033666D01*
X142044831Y-117022457D01*
X142020155Y-117004996D01*
X141987764Y-116981684D01*
X141948204Y-116952924D01*
X141902022Y-116919120D01*
X141849766Y-116880673D01*
X141791983Y-116837987D01*
X141729221Y-116791463D01*
X141662026Y-116741506D01*
X141590947Y-116688517D01*
X141516529Y-116632899D01*
X141439321Y-116575055D01*
X141434461Y-116571410D01*
X141359499Y-116515207D01*
X141287089Y-116460983D01*
X141217787Y-116409150D01*
X141152149Y-116360123D01*
X141090732Y-116314314D01*
X141034091Y-116272137D01*
X140982784Y-116234006D01*
X140937366Y-116200333D01*
X140898394Y-116171531D01*
X140866425Y-116148015D01*
X140842013Y-116130197D01*
X140825716Y-116118491D01*
X140818090Y-116113310D01*
X140817600Y-116113082D01*
X140812270Y-116116535D01*
X140798128Y-116126617D01*
X140775730Y-116142915D01*
X140745633Y-116165015D01*
X140708392Y-116192504D01*
X140664565Y-116224969D01*
X140614709Y-116261995D01*
X140559379Y-116303170D01*
X140499133Y-116348080D01*
X140434528Y-116396311D01*
X140366119Y-116447450D01*
X140294464Y-116501084D01*
X140220118Y-116556798D01*
X140201370Y-116570859D01*
X140126142Y-116627232D01*
X140053261Y-116681743D01*
X139983301Y-116733968D01*
X139916837Y-116783482D01*
X139854443Y-116829860D01*
X139796694Y-116872678D01*
X139744164Y-116911510D01*
X139697429Y-116945933D01*
X139657063Y-116975522D01*
X139623640Y-116999851D01*
X139597736Y-117018497D01*
X139579924Y-117031034D01*
X139570780Y-117037038D01*
X139570005Y-117037433D01*
X139543629Y-117043204D01*
X139513528Y-117041798D01*
X139484826Y-117033724D01*
X139473421Y-117027859D01*
X139451669Y-117008109D01*
X139435623Y-116980927D01*
X139427164Y-116949964D01*
X139426327Y-116936502D01*
X139426680Y-116932731D01*
X139427820Y-116927468D01*
X139429919Y-116920334D01*
X139433147Y-116910948D01*
X139437676Y-116898933D01*
X139443679Y-116883907D01*
X139451326Y-116865492D01*
X139460789Y-116843308D01*
X139472240Y-116816976D01*
X139485850Y-116786117D01*
X139501791Y-116750350D01*
X139520234Y-116709296D01*
X139541352Y-116662577D01*
X139565314Y-116609812D01*
X139592294Y-116550622D01*
X139622462Y-116484627D01*
X139655990Y-116411449D01*
X139693050Y-116330707D01*
X139733813Y-116242022D01*
X139778451Y-116145015D01*
X139827136Y-116039306D01*
X139880038Y-115924516D01*
X139937330Y-115800265D01*
X139999183Y-115666175D01*
X140065768Y-115521864D01*
X140072855Y-115506506D01*
X140129000Y-115384885D01*
X140183951Y-115265939D01*
X140237500Y-115150114D01*
X140289439Y-115037859D01*
X140339559Y-114929621D01*
X140387653Y-114825848D01*
X140433512Y-114726985D01*
X140476929Y-114633482D01*
X140517694Y-114545785D01*
X140555600Y-114464342D01*
X140590439Y-114389600D01*
X140622001Y-114322006D01*
X140650080Y-114262008D01*
X140674467Y-114210054D01*
X140694954Y-114166589D01*
X140711332Y-114132063D01*
X140723394Y-114106922D01*
X140730931Y-114091613D01*
X140733587Y-114086713D01*
X140755224Y-114065960D01*
X140782616Y-114051124D01*
X140811224Y-114044537D01*
X140815901Y-114044406D01*
X140845675Y-114049419D01*
G37*
D13*
%TO.C,R2*%
X124335859Y-98786000D02*
X124643141Y-98786000D01*
X124335859Y-99546000D02*
X124643141Y-99546000D01*
D11*
%TO.C,D1*%
X120903000Y-95906000D02*
G75*
G02*
X120803000Y-95906000I-50000J0D01*
G01*
X120803000Y-95906000D02*
G75*
G02*
X120903000Y-95906000I50000J0D01*
G01*
D13*
%TO.C,R21*%
X150443441Y-98151177D02*
X150136159Y-98151177D01*
X150443441Y-98911177D02*
X150136159Y-98911177D01*
%TO.C,J7*%
X155445000Y-86370000D02*
X155445000Y-87420000D01*
X155445000Y-91540000D02*
X154455000Y-91540000D01*
X155445000Y-92590000D02*
X155445000Y-91540000D01*
X157945000Y-86370000D02*
X155445000Y-86370000D01*
X157945000Y-92590000D02*
X155445000Y-92590000D01*
X159915000Y-91420000D02*
X159915000Y-87540000D01*
%TO.C,R18*%
X149909800Y-103603581D02*
X149909800Y-103910863D01*
X150669800Y-103603581D02*
X150669800Y-103910863D01*
D11*
%TO.C,D2*%
X120903000Y-99166000D02*
G75*
G02*
X120803000Y-99166000I-50000J0D01*
G01*
X120803000Y-99166000D02*
G75*
G02*
X120903000Y-99166000I50000J0D01*
G01*
D13*
%TO.C,C3*%
X143760000Y-103668431D02*
X143760000Y-103884103D01*
X144480000Y-103668431D02*
X144480000Y-103884103D01*
%TO.C,J4*%
X145530800Y-80636600D02*
X145530800Y-83136600D01*
X145530800Y-83136600D02*
X146580800Y-83136600D01*
X150580800Y-78666600D02*
X146700800Y-78666600D01*
X150700800Y-83136600D02*
X150700800Y-84126600D01*
X151750800Y-80636600D02*
X151750800Y-83136600D01*
X151750800Y-83136600D02*
X150700800Y-83136600D01*
D11*
%TO.C,SW2*%
X121175000Y-86096400D02*
X125575000Y-86096400D01*
X121175000Y-87196400D02*
X121175000Y-87996400D01*
X121175000Y-89096400D02*
X125575000Y-89096400D01*
X125575000Y-87196400D02*
X125575000Y-87996400D01*
X124479536Y-87596400D02*
G75*
G02*
X122270464Y-87596400I-1104536J0D01*
G01*
X122270464Y-87596400D02*
G75*
G02*
X124479536Y-87596400I1104536J0D01*
G01*
D13*
%TO.C,R9*%
X137567641Y-87085000D02*
X137260359Y-87085000D01*
X137567641Y-87845000D02*
X137260359Y-87845000D01*
%TO.C,U2*%
X127926000Y-103190400D02*
X128101000Y-103190400D01*
X127926000Y-103865400D02*
X127926000Y-103190400D01*
X127926000Y-106410400D02*
X127926000Y-105735400D01*
X128101000Y-106410400D02*
X127926000Y-106410400D01*
X130471000Y-103190400D02*
X130646000Y-103190400D01*
X130646000Y-103190400D02*
X130646000Y-103865400D01*
X130646000Y-105735400D02*
X130646000Y-106410400D01*
X130646000Y-106410400D02*
X130471000Y-106410400D01*
X130036000Y-103060400D02*
X129796000Y-102730400D01*
X130276000Y-102730400D01*
X130036000Y-103060400D01*
G36*
X130036000Y-103060400D02*
G01*
X129796000Y-102730400D01*
X130276000Y-102730400D01*
X130036000Y-103060400D01*
G37*
%TO.C,S4*%
X122899400Y-80543400D02*
G75*
G02*
X121499400Y-80543400I-700000J0D01*
G01*
X121499400Y-80543400D02*
G75*
G02*
X122899400Y-80543400I700000J0D01*
G01*
%TO.C,R7*%
X137567641Y-84913200D02*
X137260359Y-84913200D01*
X137567641Y-85673200D02*
X137260359Y-85673200D01*
%TO.C,C10*%
X127612164Y-86171400D02*
X127827836Y-86171400D01*
X127612164Y-86891400D02*
X127827836Y-86891400D01*
%TO.C,R19*%
X149909800Y-95841796D02*
X149909800Y-95534514D01*
X150669800Y-95841796D02*
X150669800Y-95534514D01*
%TO.C,S3*%
X122975600Y-116128800D02*
G75*
G02*
X121575600Y-116128800I-700000J0D01*
G01*
X121575600Y-116128800D02*
G75*
G02*
X122975600Y-116128800I700000J0D01*
G01*
%TO.C,C8*%
X145410600Y-103668431D02*
X145410600Y-103884103D01*
X146130600Y-103668431D02*
X146130600Y-103884103D01*
%TO.C,C9*%
X148352164Y-90190000D02*
X148567836Y-90190000D01*
X148352164Y-90910000D02*
X148567836Y-90910000D01*
%TO.C,C15*%
X128588164Y-107272900D02*
X128803836Y-107272900D01*
X128588164Y-107992900D02*
X128803836Y-107992900D01*
%TO.C,U4*%
X138227500Y-105875000D02*
X143747500Y-105875000D01*
X138227500Y-106145000D02*
X138227500Y-105875000D01*
X138227500Y-111395000D02*
X138227500Y-111125000D01*
X143747500Y-105875000D02*
X143747500Y-106145000D01*
X143747500Y-111125000D02*
X143747500Y-111395000D01*
X143747500Y-111395000D02*
X138227500Y-111395000D01*
X144917500Y-111605000D02*
X144237500Y-111605000D01*
X144577500Y-111135000D01*
X144917500Y-111605000D01*
G36*
X144917500Y-111605000D02*
G01*
X144237500Y-111605000D01*
X144577500Y-111135000D01*
X144917500Y-111605000D01*
G37*
%TO.C,G3*%
X121959600Y-113614200D02*
G75*
G02*
X120559600Y-113614200I-700000J0D01*
G01*
X120559600Y-113614200D02*
G75*
G02*
X121959600Y-113614200I700000J0D01*
G01*
%TO.C,C4*%
X148352164Y-91700000D02*
X148567836Y-91700000D01*
X148352164Y-92420000D02*
X148567836Y-92420000D01*
D11*
%TO.C,U3*%
X133503700Y-85051700D02*
X133503700Y-85201700D01*
X133503700Y-85051700D02*
X134143700Y-85051700D01*
X133503700Y-87601700D02*
X133503700Y-87751700D01*
X133503700Y-87751700D02*
X134143700Y-87751700D01*
X135063700Y-85051700D02*
X135503700Y-85051700D01*
X135063700Y-87751700D02*
X135703700Y-87751700D01*
X135703700Y-87601700D02*
X135703700Y-87751700D01*
X136063700Y-85051700D02*
X135703700Y-85051700D01*
X135703700Y-84691700D01*
X136063700Y-85051700D01*
G36*
X136063700Y-85051700D02*
G01*
X135703700Y-85051700D01*
X135703700Y-84691700D01*
X136063700Y-85051700D01*
G37*
D13*
%TO.C,R8*%
X131771041Y-87723550D02*
X131463759Y-87723550D01*
X131771041Y-88483550D02*
X131463759Y-88483550D01*
%TO.C,Q1*%
X130037400Y-79478600D02*
X130087400Y-79478600D01*
X130037400Y-80998600D02*
X130037400Y-79478600D01*
X131037400Y-80998600D02*
X130037400Y-80998600D01*
X131207400Y-79478600D02*
X131987400Y-79478600D01*
X133107400Y-79478600D02*
X133157400Y-79478600D01*
X133157400Y-79478600D02*
X133157400Y-80998600D01*
X133157400Y-80998600D02*
X132157400Y-80998600D01*
X131977400Y-78938600D02*
X131647400Y-79178600D01*
X131647400Y-78698600D01*
X131977400Y-78938600D01*
G36*
X131977400Y-78938600D02*
G01*
X131647400Y-79178600D01*
X131647400Y-78698600D01*
X131977400Y-78938600D01*
G37*
%TO.C,C12*%
X131237400Y-97643836D02*
X131237400Y-97428164D01*
X131957400Y-97643836D02*
X131957400Y-97428164D01*
%TO.C,S2*%
X158688000Y-80492600D02*
G75*
G02*
X157288000Y-80492600I-700000J0D01*
G01*
X157288000Y-80492600D02*
G75*
G02*
X158688000Y-80492600I700000J0D01*
G01*
%TO.C,G2*%
X159729400Y-83286600D02*
G75*
G02*
X158329400Y-83286600I-700000J0D01*
G01*
X158329400Y-83286600D02*
G75*
G02*
X159729400Y-83286600I700000J0D01*
G01*
%TO.C,C7*%
X137127836Y-102891000D02*
X136912164Y-102891000D01*
X137127836Y-103611000D02*
X136912164Y-103611000D01*
D11*
%TO.C,SW1*%
X121175000Y-92175000D02*
X121175000Y-91375000D01*
X125575000Y-90275000D02*
X121175000Y-90275000D01*
X125575000Y-92175000D02*
X125575000Y-91375000D01*
X125575000Y-93275000D02*
X121175000Y-93275000D01*
X124479536Y-91775000D02*
G75*
G02*
X122270464Y-91775000I-1104536J0D01*
G01*
X122270464Y-91775000D02*
G75*
G02*
X124479536Y-91775000I1104536J0D01*
G01*
D13*
%TO.C,C16*%
X131705236Y-84680200D02*
X131489564Y-84680200D01*
X131705236Y-85400200D02*
X131489564Y-85400200D01*
%TO.C,R6*%
X127586359Y-89305700D02*
X127893641Y-89305700D01*
X127586359Y-90065700D02*
X127893641Y-90065700D01*
%TO.C,P4*%
X121959600Y-83337400D02*
G75*
G02*
X120559600Y-83337400I-700000J0D01*
G01*
X120559600Y-83337400D02*
G75*
G02*
X121959600Y-83337400I700000J0D01*
G01*
%TO.C,G4*%
X125439400Y-79552800D02*
G75*
G02*
X124039400Y-79552800I-700000J0D01*
G01*
X124039400Y-79552800D02*
G75*
G02*
X125439400Y-79552800I700000J0D01*
G01*
%TO.C,D3*%
X152810000Y-106620000D02*
X152810000Y-109920000D01*
X152810000Y-106620000D02*
X158320000Y-106620000D01*
X152810000Y-109920000D02*
X158320000Y-109920000D01*
%TO.C,C18*%
X134852836Y-109720000D02*
X134637164Y-109720000D01*
X134852836Y-110440000D02*
X134637164Y-110440000D01*
%TO.C,Y1*%
X126146000Y-95476000D02*
X126146000Y-99596000D01*
X129566000Y-95476000D02*
X126146000Y-95476000D01*
%TO.C,P1*%
X159754800Y-113665000D02*
G75*
G02*
X158354800Y-113665000I-700000J0D01*
G01*
X158354800Y-113665000D02*
G75*
G02*
X159754800Y-113665000I700000J0D01*
G01*
%TO.C,R4*%
X127893641Y-92450000D02*
X127586359Y-92450000D01*
X127893641Y-93210000D02*
X127586359Y-93210000D01*
%TO.C,C1*%
X127690164Y-94126000D02*
X127905836Y-94126000D01*
X127690164Y-94846000D02*
X127905836Y-94846000D01*
%TO.C,R1*%
X124335859Y-95526000D02*
X124643141Y-95526000D01*
X124335859Y-96286000D02*
X124643141Y-96286000D01*
%TO.C,C11*%
X131705236Y-89315700D02*
X131489564Y-89315700D01*
X131705236Y-90035700D02*
X131489564Y-90035700D01*
%TO.C,C6*%
X127612164Y-90897850D02*
X127827836Y-90897850D01*
X127612164Y-91617850D02*
X127827836Y-91617850D01*
%TO.C,C5*%
X131705236Y-90897850D02*
X131489564Y-90897850D01*
X131705236Y-91617850D02*
X131489564Y-91617850D01*
%TO.C,C14*%
X126106000Y-107075064D02*
X126106000Y-107290736D01*
X126826000Y-107075064D02*
X126826000Y-107290736D01*
%TO.C,J1*%
X153085000Y-102560000D02*
X153085000Y-103360000D01*
X156005000Y-95060000D02*
X157785000Y-95060000D01*
X156005000Y-104460000D02*
X157785000Y-104460000D01*
%TO.C,J5*%
X144021400Y-113702200D02*
X145071400Y-113702200D01*
X144021400Y-116202200D02*
X144021400Y-113702200D01*
X145071400Y-113702200D02*
X145071400Y-112712200D01*
X145191400Y-118172200D02*
X150071400Y-118172200D01*
X151241400Y-113702200D02*
X150191400Y-113702200D01*
X151241400Y-116202200D02*
X151241400Y-113702200D01*
%TD*%
M02*
