%TF.GenerationSoftware,KiCad,Pcbnew,9.0.6-9.0.6~ubuntu24.04.1*%
%TF.CreationDate,2025-11-22T16:00:11+08:00*%
%TF.ProjectId,tinybee,74696e79-6265-4652-9e6b-696361645f70,1.1*%
%TF.SameCoordinates,Original*%
%TF.FileFunction,Copper,L4,Bot*%
%TF.FilePolarity,Positive*%
%FSLAX46Y46*%
G04 Gerber Fmt 4.6, Leading zero omitted, Abs format (unit mm)*
G04 Created by KiCad (PCBNEW 9.0.6-9.0.6~ubuntu24.04.1) date 2025-11-22 16:00:11*
%MOMM*%
%LPD*%
G01*
G04 APERTURE LIST*
G04 Aperture macros list*
%AMRoundRect*
0 Rectangle with rounded corners*
0 $1 Rounding radius*
0 $2 $3 $4 $5 $6 $7 $8 $9 X,Y pos of 4 corners*
0 Add a 4 corners polygon primitive as box body*
4,1,4,$2,$3,$4,$5,$6,$7,$8,$9,$2,$3,0*
0 Add four circle primitives for the rounded corners*
1,1,$1+$1,$2,$3*
1,1,$1+$1,$4,$5*
1,1,$1+$1,$6,$7*
1,1,$1+$1,$8,$9*
0 Add four rect primitives between the rounded corners*
20,1,$1+$1,$2,$3,$4,$5,0*
20,1,$1+$1,$4,$5,$6,$7,0*
20,1,$1+$1,$6,$7,$8,$9,0*
20,1,$1+$1,$8,$9,$2,$3,0*%
G04 Aperture macros list end*
%TA.AperFunction,HeatsinkPad*%
%ADD10O,2.100000X1.000000*%
%TD*%
%TA.AperFunction,HeatsinkPad*%
%ADD11O,1.600000X1.000000*%
%TD*%
%TA.AperFunction,SMDPad,CuDef*%
%ADD12RoundRect,0.250000X-0.450000X-0.350000X0.450000X-0.350000X0.450000X0.350000X-0.450000X0.350000X0*%
%TD*%
%TA.AperFunction,SMDPad,CuDef*%
%ADD13RoundRect,0.140000X0.140000X0.170000X-0.140000X0.170000X-0.140000X-0.170000X0.140000X-0.170000X0*%
%TD*%
%TA.AperFunction,SMDPad,CuDef*%
%ADD14RoundRect,0.150000X0.150000X0.625000X-0.150000X0.625000X-0.150000X-0.625000X0.150000X-0.625000X0*%
%TD*%
%TA.AperFunction,SMDPad,CuDef*%
%ADD15RoundRect,0.250000X0.350000X0.650000X-0.350000X0.650000X-0.350000X-0.650000X0.350000X-0.650000X0*%
%TD*%
%TA.AperFunction,SMDPad,CuDef*%
%ADD16RoundRect,0.150000X-0.150000X-0.625000X0.150000X-0.625000X0.150000X0.625000X-0.150000X0.625000X0*%
%TD*%
%TA.AperFunction,SMDPad,CuDef*%
%ADD17RoundRect,0.250000X-0.350000X-0.650000X0.350000X-0.650000X0.350000X0.650000X-0.350000X0.650000X0*%
%TD*%
%TA.AperFunction,SMDPad,CuDef*%
%ADD18RoundRect,0.135000X0.135000X0.185000X-0.135000X0.185000X-0.135000X-0.185000X0.135000X-0.185000X0*%
%TD*%
%TA.AperFunction,SMDPad,CuDef*%
%ADD19RoundRect,0.135000X-0.185000X0.135000X-0.185000X-0.135000X0.185000X-0.135000X0.185000X0.135000X0*%
%TD*%
%TA.AperFunction,SMDPad,CuDef*%
%ADD20RoundRect,0.225000X0.225000X0.250000X-0.225000X0.250000X-0.225000X-0.250000X0.225000X-0.250000X0*%
%TD*%
%TA.AperFunction,SMDPad,CuDef*%
%ADD21RoundRect,0.140000X-0.170000X0.140000X-0.170000X-0.140000X0.170000X-0.140000X0.170000X0.140000X0*%
%TD*%
%TA.AperFunction,SMDPad,CuDef*%
%ADD22RoundRect,0.140000X0.170000X-0.140000X0.170000X0.140000X-0.170000X0.140000X-0.170000X-0.140000X0*%
%TD*%
%TA.AperFunction,SMDPad,CuDef*%
%ADD23RoundRect,0.100000X0.637500X0.100000X-0.637500X0.100000X-0.637500X-0.100000X0.637500X-0.100000X0*%
%TD*%
%TA.AperFunction,HeatsinkPad*%
%ADD24R,2.850000X6.700000*%
%TD*%
%TA.AperFunction,SMDPad,CuDef*%
%ADD25RoundRect,0.140000X-0.140000X-0.170000X0.140000X-0.170000X0.140000X0.170000X-0.140000X0.170000X0*%
%TD*%
%TA.AperFunction,SMDPad,CuDef*%
%ADD26RoundRect,0.135000X-0.135000X-0.185000X0.135000X-0.185000X0.135000X0.185000X-0.135000X0.185000X0*%
%TD*%
%TA.AperFunction,SMDPad,CuDef*%
%ADD27RoundRect,0.150000X-0.150000X0.512500X-0.150000X-0.512500X0.150000X-0.512500X0.150000X0.512500X0*%
%TD*%
%TA.AperFunction,SMDPad,CuDef*%
%ADD28RoundRect,0.250000X0.375000X0.625000X-0.375000X0.625000X-0.375000X-0.625000X0.375000X-0.625000X0*%
%TD*%
%TA.AperFunction,SMDPad,CuDef*%
%ADD29RoundRect,0.250000X0.925000X1.500000X-0.925000X1.500000X-0.925000X-1.500000X0.925000X-1.500000X0*%
%TD*%
%TA.AperFunction,SMDPad,CuDef*%
%ADD30RoundRect,0.150000X-0.512500X-0.150000X0.512500X-0.150000X0.512500X0.150000X-0.512500X0.150000X0*%
%TD*%
%TA.AperFunction,SMDPad,CuDef*%
%ADD31RoundRect,0.150000X0.150000X-0.587500X0.150000X0.587500X-0.150000X0.587500X-0.150000X-0.587500X0*%
%TD*%
%TA.AperFunction,ViaPad*%
%ADD32C,0.600000*%
%TD*%
%TA.AperFunction,Conductor*%
%ADD33C,0.200000*%
%TD*%
%TA.AperFunction,Conductor*%
%ADD34C,0.400000*%
%TD*%
%TA.AperFunction,Conductor*%
%ADD35C,0.500000*%
%TD*%
%TA.AperFunction,Conductor*%
%ADD36C,0.600000*%
%TD*%
G04 APERTURE END LIST*
D10*
%TO.P,J1,S1,SHIELD*%
%TO.N,GND*%
X154680000Y-104080000D03*
D11*
X158860000Y-104080000D03*
D10*
X154680000Y-95440000D03*
D11*
X158860000Y-95440000D03*
%TD*%
D12*
%TO.P,Y2,1,1*%
%TO.N,Net-(U5-CLKIN)*%
X146982000Y-103899600D03*
%TO.P,Y2,2,2*%
%TO.N,GND*%
X149182000Y-103899600D03*
%TO.P,Y2,3,3*%
%TO.N,Net-(U5-XFB)*%
X149182000Y-105599600D03*
%TO.P,Y2,4,4*%
%TO.N,GND*%
X146982000Y-105599600D03*
%TD*%
D13*
%TO.P,C33,1*%
%TO.N,GND*%
X129738000Y-94132400D03*
%TO.P,C33,2*%
%TO.N,+5V*%
X128778000Y-94132400D03*
%TD*%
%TO.P,C26,1*%
%TO.N,+5V*%
X126198000Y-94132400D03*
%TO.P,C26,2*%
%TO.N,GND*%
X125238000Y-94132400D03*
%TD*%
D14*
%TO.P,J3,1,Pin_1*%
%TO.N,+5V*%
X133630000Y-113490000D03*
%TO.P,J3,2,Pin_2*%
%TO.N,GND*%
X132630000Y-113490000D03*
%TO.P,J3,3,Pin_3*%
%TO.N,/CONNECTORS/UART4_RX*%
X131630000Y-113490000D03*
%TO.P,J3,4,Pin_4*%
%TO.N,/CONNECTORS/UART4_TX*%
X130630000Y-113490000D03*
D15*
%TO.P,J3,MP,MountPin*%
%TO.N,GND*%
X134930000Y-117365000D03*
X129330000Y-117365000D03*
%TD*%
D16*
%TO.P,J6,1,Pin_1*%
%TO.N,+5V*%
X130454400Y-83351600D03*
%TO.P,J6,2,Pin_2*%
%TO.N,GND*%
X131454400Y-83351600D03*
%TO.P,J6,3,Pin_3*%
%TO.N,/CONNECTORS/CAM_ANALOG*%
X132454400Y-83351600D03*
D17*
%TO.P,J6,MP,MountPin*%
%TO.N,GND*%
X129154400Y-79476600D03*
X133754400Y-79476600D03*
%TD*%
D18*
%TO.P,R15,1*%
%TO.N,/MCU/ADC_VBAT*%
X138430000Y-79918300D03*
%TO.P,R15,2*%
%TO.N,GND*%
X137410000Y-79918300D03*
%TD*%
D19*
%TO.P,R12,1*%
%TO.N,Net-(C22-Pad2)*%
X132130000Y-105837800D03*
%TO.P,R12,2*%
%TO.N,/CONNECTORS/VIDEO*%
X132130000Y-106857800D03*
%TD*%
D20*
%TO.P,C23,1*%
%TO.N,Net-(U5-SAG)*%
X133845600Y-104190800D03*
%TO.P,C23,2*%
%TO.N,Net-(C22-Pad2)*%
X132295600Y-104190800D03*
%TD*%
D19*
%TO.P,R13,1*%
%TO.N,GND*%
X130124200Y-109495400D03*
%TO.P,R13,2*%
%TO.N,/CONNECTORS/CAM_ANALOG*%
X130124200Y-110515400D03*
%TD*%
D21*
%TO.P,C30,1*%
%TO.N,+3V3*%
X124333895Y-101139552D03*
%TO.P,C30,2*%
%TO.N,GND*%
X124333895Y-102099552D03*
%TD*%
D22*
%TO.P,C21,1*%
%TO.N,+5V*%
X134090600Y-110465400D03*
%TO.P,C21,2*%
%TO.N,GND*%
X134090600Y-109505400D03*
%TD*%
D23*
%TO.P,U5,1,NC*%
%TO.N,unconnected-(U5-NC-Pad1)*%
X142824200Y-103259200D03*
%TO.P,U5,2,NC*%
%TO.N,unconnected-(U5-NC-Pad2)*%
X142824200Y-103909200D03*
%TO.P,U5,3,DVDD*%
%TO.N,+5V*%
X142824200Y-104559200D03*
%TO.P,U5,4,DGND*%
%TO.N,GND*%
X142824200Y-105209200D03*
%TO.P,U5,5,CLKIN*%
%TO.N,Net-(U5-CLKIN)*%
X142824200Y-105859200D03*
%TO.P,U5,6,XFB*%
%TO.N,Net-(U5-XFB)*%
X142824200Y-106509200D03*
%TO.P,U5,7,CLKOUT*%
%TO.N,unconnected-(U5-CLKOUT-Pad7)*%
X142824200Y-107159200D03*
%TO.P,U5,8,~{CS}*%
%TO.N,/MCU/OSD_SS*%
X142824200Y-107809200D03*
%TO.P,U5,9,SDIN*%
%TO.N,/MCU/OSD_MOSI*%
X142824200Y-108459200D03*
%TO.P,U5,10,SCLK*%
%TO.N,/MCU/OSD_SCLK*%
X142824200Y-109109200D03*
%TO.P,U5,11,SDOUT*%
%TO.N,/MCU/OSD_MISO*%
X142824200Y-109759200D03*
%TO.P,U5,12,LOS*%
%TO.N,unconnected-(U5-LOS-Pad12)*%
X142824200Y-110409200D03*
%TO.P,U5,13,SYNC_IN*%
%TO.N,unconnected-(U5-SYNC_IN-Pad13)*%
X142824200Y-111059200D03*
%TO.P,U5,14,NC*%
%TO.N,unconnected-(U5-NC-Pad14)*%
X142824200Y-111709200D03*
%TO.P,U5,15,NC*%
%TO.N,unconnected-(U5-NC-Pad15)*%
X137099200Y-111709200D03*
%TO.P,U5,16,NC*%
%TO.N,unconnected-(U5-NC-Pad16)*%
X137099200Y-111059200D03*
%TO.P,U5,17,~{VSYNC}*%
%TO.N,unconnected-(U5-~{VSYNC}-Pad17)*%
X137099200Y-110409200D03*
%TO.P,U5,18,~{HSYNC}*%
%TO.N,unconnected-(U5-~{HSYNC}-Pad18)*%
X137099200Y-109759200D03*
%TO.P,U5,19,~{RESET}*%
%TO.N,+5V*%
X137099200Y-109109200D03*
%TO.P,U5,20,AGND*%
%TO.N,GND*%
X137099200Y-108459200D03*
%TO.P,U5,21,AVDD*%
%TO.N,+5V*%
X137099200Y-107809200D03*
%TO.P,U5,22,VIN*%
%TO.N,Net-(U5-VIN)*%
X137099200Y-107159200D03*
%TO.P,U5,23,PGND*%
%TO.N,GND*%
X137099200Y-106509200D03*
%TO.P,U5,24,PVDD*%
%TO.N,+5V*%
X137099200Y-105859200D03*
%TO.P,U5,25,SAG*%
%TO.N,Net-(U5-SAG)*%
X137099200Y-105209200D03*
%TO.P,U5,26,VOUT*%
%TO.N,Net-(U5-VOUT)*%
X137099200Y-104559200D03*
%TO.P,U5,27,NC*%
%TO.N,unconnected-(U5-NC-Pad27)*%
X137099200Y-103909200D03*
%TO.P,U5,28,NC*%
%TO.N,unconnected-(U5-NC-Pad28)*%
X137099200Y-103259200D03*
D24*
%TO.P,U5,29,EP*%
%TO.N,GND*%
X139961700Y-107484200D03*
%TD*%
D20*
%TO.P,C22,1*%
%TO.N,Net-(U5-VOUT)*%
X133845600Y-102311200D03*
%TO.P,C22,2*%
%TO.N,Net-(C22-Pad2)*%
X132295600Y-102311200D03*
%TD*%
D16*
%TO.P,J10,1,Pin_1*%
%TO.N,/CONNECTORS/VBAT*%
X143134800Y-83351600D03*
%TO.P,J10,2,Pin_2*%
%TO.N,GND*%
X144134800Y-83351600D03*
%TO.P,J10,3,Pin_3*%
%TO.N,/CONNECTORS/ADC_CURR*%
X145134800Y-83351600D03*
%TO.P,J10,4,Pin_4*%
%TO.N,/CONNECTORS/UART1_RX*%
X146134800Y-83351600D03*
%TO.P,J10,5,Pin_5*%
%TO.N,/CONNECTORS/MOTOR1*%
X147134800Y-83351600D03*
%TO.P,J10,6,Pin_6*%
%TO.N,/CONNECTORS/MOTOR2*%
X148134800Y-83351600D03*
%TO.P,J10,7,Pin_7*%
%TO.N,/CONNECTORS/MOTOR3*%
X149134800Y-83351600D03*
%TO.P,J10,8,Pin_8*%
%TO.N,/CONNECTORS/MOTOR4*%
X150134800Y-83351600D03*
D17*
%TO.P,J10,MP,MountPin*%
%TO.N,GND*%
X141834800Y-79476600D03*
X151434800Y-79476600D03*
%TD*%
D25*
%TO.P,C28,1*%
%TO.N,Net-(U6-BOOT)*%
X133907200Y-89073900D03*
%TO.P,C28,2*%
%TO.N,Net-(U6-SW)*%
X134867200Y-89073900D03*
%TD*%
D18*
%TO.P,R16,1*%
%TO.N,+5V*%
X142179000Y-87759800D03*
%TO.P,R16,2*%
%TO.N,Net-(U6-FB)*%
X141159000Y-87759800D03*
%TD*%
D13*
%TO.P,C25,1*%
%TO.N,Net-(U6-VIN)*%
X134864600Y-86418900D03*
%TO.P,C25,2*%
%TO.N,GND*%
X133904600Y-86418900D03*
%TD*%
D21*
%TO.P,C19,1*%
%TO.N,+5V*%
X144957800Y-103279000D03*
%TO.P,C19,2*%
%TO.N,GND*%
X144957800Y-104239000D03*
%TD*%
D13*
%TO.P,C27,1*%
%TO.N,Net-(U6-VIN)*%
X134864600Y-87746400D03*
%TO.P,C27,2*%
%TO.N,GND*%
X133904600Y-87746400D03*
%TD*%
D26*
%TO.P,R14,1*%
%TO.N,Net-(U6-VIN)*%
X137410000Y-81457800D03*
%TO.P,R14,2*%
%TO.N,/MCU/ADC_VBAT*%
X138430000Y-81457800D03*
%TD*%
D27*
%TO.P,U7,1,IN*%
%TO.N,+5V*%
X124798895Y-97027652D03*
%TO.P,U7,2,GND*%
%TO.N,GND*%
X125748895Y-97027652D03*
%TO.P,U7,3,EN*%
%TO.N,+5V*%
X126698895Y-97027652D03*
%TO.P,U7,4,BP*%
%TO.N,Net-(U7-BP)*%
X126698895Y-99302652D03*
%TO.P,U7,5,OUT*%
%TO.N,+3V3*%
X124798895Y-99302652D03*
%TD*%
D18*
%TO.P,R24,1*%
%TO.N,+5V*%
X139590000Y-113920000D03*
%TO.P,R24,2*%
%TO.N,/CONNECTORS/UART6_RX*%
X138570000Y-113920000D03*
%TD*%
D28*
%TO.P,F1,1*%
%TO.N,/CONNECTORS/VBAT*%
X139322000Y-83642200D03*
%TO.P,F1,2*%
%TO.N,Net-(U6-VIN)*%
X136522000Y-83642200D03*
%TD*%
D14*
%TO.P,J9,1,Pin_1*%
%TO.N,/CONNECTORS/VBAT*%
X149620000Y-113490000D03*
%TO.P,J9,2,Pin_2*%
%TO.N,GND*%
X148620000Y-113490000D03*
%TO.P,J9,3,Pin_3*%
%TO.N,/CONNECTORS/UART3_TX*%
X147620000Y-113490000D03*
%TO.P,J9,4,Pin_4*%
%TO.N,/CONNECTORS/UART3_RX*%
X146620000Y-113490000D03*
%TO.P,J9,5,Pin_5*%
%TO.N,GND*%
X145620000Y-113490000D03*
%TO.P,J9,6,Pin_6*%
%TO.N,/CONNECTORS/SBUS*%
X144620000Y-113490000D03*
D15*
%TO.P,J9,MP,MountPin*%
%TO.N,GND*%
X150920000Y-117365000D03*
X143320000Y-117365000D03*
%TD*%
D25*
%TO.P,C31,1*%
%TO.N,Net-(U6-FB)*%
X141169000Y-86432300D03*
%TO.P,C31,2*%
%TO.N,+5V*%
X142129000Y-86432300D03*
%TD*%
D29*
%TO.P,L1,1*%
%TO.N,Net-(U6-SW)*%
X128743000Y-89789000D03*
%TO.P,L1,2*%
%TO.N,+5V*%
X122693000Y-89789000D03*
%TD*%
D30*
%TO.P,U6,1,GND*%
%TO.N,GND*%
X136804400Y-88641000D03*
%TO.P,U6,2,SW*%
%TO.N,Net-(U6-SW)*%
X136804400Y-87691000D03*
%TO.P,U6,3,VIN*%
%TO.N,Net-(U6-VIN)*%
X136804400Y-86741000D03*
%TO.P,U6,4,FB*%
%TO.N,Net-(U6-FB)*%
X139079400Y-86741000D03*
%TO.P,U6,5,EN*%
%TO.N,unconnected-(U6-EN-Pad5)*%
X139079400Y-87691000D03*
%TO.P,U6,6,BOOT*%
%TO.N,Net-(U6-BOOT)*%
X139079400Y-88641000D03*
%TD*%
D25*
%TO.P,C32,1*%
%TO.N,GND*%
X121698000Y-94132400D03*
%TO.P,C32,2*%
%TO.N,+5V*%
X122658000Y-94132400D03*
%TD*%
D31*
%TO.P,Q2,1,B*%
%TO.N,/CONNECTORS/SBUS*%
X140030000Y-117675900D03*
%TO.P,Q2,2,E*%
%TO.N,GND*%
X138130000Y-117675900D03*
%TO.P,Q2,3,C*%
%TO.N,/CONNECTORS/UART6_RX*%
X139080000Y-115800900D03*
%TD*%
D21*
%TO.P,C29,1*%
%TO.N,Net-(U7-BP)*%
X126988895Y-101139552D03*
%TO.P,C29,2*%
%TO.N,GND*%
X126988895Y-102099552D03*
%TD*%
%TO.P,C20,1*%
%TO.N,+5V*%
X134090600Y-105819000D03*
%TO.P,C20,2*%
%TO.N,GND*%
X134090600Y-106779000D03*
%TD*%
%TO.P,C24,1*%
%TO.N,Net-(U5-VIN)*%
X132130000Y-109505400D03*
%TO.P,C24,2*%
%TO.N,/CONNECTORS/CAM_ANALOG*%
X132130000Y-110465400D03*
%TD*%
D26*
%TO.P,R17,1*%
%TO.N,Net-(U6-FB)*%
X141159000Y-89077300D03*
%TO.P,R17,2*%
%TO.N,GND*%
X142179000Y-89077300D03*
%TD*%
D32*
%TO.N,GND*%
X136937400Y-117368800D03*
X154406600Y-92583000D03*
X150901400Y-106984800D03*
X125095000Y-110032800D03*
X129154400Y-79654400D03*
X124612400Y-93649800D03*
X150931400Y-117362200D03*
X121488200Y-107543600D03*
X140589000Y-79603600D03*
X121462800Y-99161600D03*
X134090600Y-106779000D03*
X159105000Y-86680000D03*
X128143000Y-83134200D03*
X155397200Y-117322600D03*
X135321600Y-107365072D03*
X135396800Y-111211800D03*
X135760217Y-102219592D03*
X134747000Y-84963000D03*
X121386600Y-105283000D03*
X159029400Y-83286600D03*
X130124200Y-109495400D03*
X133096000Y-88417400D03*
X121386600Y-102793800D03*
X124155200Y-91973400D03*
X127000000Y-103200200D03*
X134930000Y-117365000D03*
X124739400Y-79552800D03*
X139961700Y-107484200D03*
X129743200Y-94132400D03*
X144331400Y-117362200D03*
X126466000Y-105092900D03*
X143320000Y-117365000D03*
X148940000Y-92049600D03*
X131337400Y-117368800D03*
X144957800Y-104239000D03*
X129330000Y-117365000D03*
X121259600Y-113614200D03*
X137998200Y-83083400D03*
X143256000Y-88163400D03*
X159105000Y-92280000D03*
X124333895Y-103302695D03*
X132867400Y-85852000D03*
X158724600Y-89687400D03*
X133731000Y-79654400D03*
X126466000Y-107662900D03*
X126949200Y-88849200D03*
X129565400Y-86817200D03*
X131292600Y-96062800D03*
X144424400Y-84810600D03*
X121691400Y-94132400D03*
X128706000Y-96436000D03*
%TO.N,+3V3*%
X145948400Y-107410000D03*
X132080000Y-91262200D03*
X127762000Y-109169200D03*
X135681454Y-89710115D03*
X146735800Y-90551000D03*
X125780800Y-101828600D03*
X144475200Y-101854000D03*
X130454400Y-98171000D03*
X128250000Y-92830000D03*
X152273000Y-89204800D03*
X138836400Y-111963200D03*
X136804400Y-99745800D03*
X125628400Y-86512400D03*
X135788400Y-97688400D03*
X153771600Y-90627200D03*
%TO.N,/MCU/NRST*%
X132029200Y-94805000D03*
X130573865Y-92118265D03*
%TO.N,+5V*%
X122693000Y-89789000D03*
X140462000Y-115112800D03*
X130048000Y-115112800D03*
X128651000Y-84378800D03*
X121742200Y-97027652D03*
X148793200Y-81356200D03*
X159054800Y-113665000D03*
X134090600Y-105819000D03*
X124968000Y-117322600D03*
X124798895Y-97027652D03*
X155397200Y-79502000D03*
X141757400Y-85344000D03*
X135737600Y-115316000D03*
X135321600Y-106414942D03*
X154320000Y-108270000D03*
X121259600Y-83337400D03*
X144957800Y-103279000D03*
%TO.N,Net-(U5-SAG)*%
X133845600Y-104190800D03*
X135458200Y-105308400D03*
%TO.N,Net-(U5-VIN)*%
X132659035Y-107919435D03*
X132130800Y-109499400D03*
%TO.N,/CONNECTORS/CAM_ANALOG*%
X123774200Y-94462600D03*
X132130000Y-110465400D03*
X130124200Y-110515400D03*
%TO.N,Net-(U6-BOOT)*%
X135280400Y-90449400D03*
X133907200Y-89073900D03*
%TO.N,Net-(D1-A)*%
X122428000Y-95906000D03*
X123979500Y-95906000D03*
%TO.N,/CONNECTORS/VBAT*%
X151104600Y-111988600D03*
%TO.N,/CONNECTORS/UART2_RX*%
X134061200Y-107670600D03*
X135356600Y-101346000D03*
%TO.N,/CONNECTORS/UART2_TX*%
X132275665Y-99789065D03*
X135216900Y-112179100D03*
%TO.N,/CONNECTORS/UART4_RX*%
X131000500Y-100215700D03*
%TO.N,/CONNECTORS/UART4_TX*%
X129667000Y-100507800D03*
%TO.N,/CONNECTORS/UART5_RX*%
X147091400Y-85902800D03*
X144653000Y-85902800D03*
%TO.N,/CONNECTORS/VIDEO*%
X132130000Y-106857800D03*
X143433800Y-113665000D03*
X131445000Y-108864400D03*
%TO.N,/CONNECTORS/UART3_RX*%
X145973800Y-115316000D03*
%TO.N,/CONNECTORS/UART3_TX*%
X146024600Y-116611400D03*
%TO.N,/CONNECTORS/MOTOR3*%
X148259800Y-95758000D03*
X150088600Y-86309200D03*
%TO.N,/CONNECTORS/ADC_CURR*%
X136626600Y-95554800D03*
X142036800Y-81330800D03*
%TO.N,/CONNECTORS/MOTOR1*%
X144068800Y-94945200D03*
X146989800Y-87274400D03*
%TO.N,/CONNECTORS/MOTOR4*%
X151333200Y-86309200D03*
X147904200Y-94665800D03*
%TO.N,/CONNECTORS/MOTOR2*%
X144348200Y-93091000D03*
X148945600Y-86309200D03*
%TO.N,/CONNECTORS/UART1_RX*%
X140182600Y-81534000D03*
X138760200Y-92100400D03*
%TO.N,/CONNECTORS/UART6_RX*%
X147447000Y-97663000D03*
X139080000Y-115800900D03*
%TO.N,/MCU/ADC_VBAT*%
X136296400Y-80670400D03*
X132740400Y-96189800D03*
%TO.N,/CONNECTORS/BEEPER*%
X135788400Y-93573600D03*
X133604000Y-83896200D03*
%TO.N,/FLASH/FLASH_MOSI*%
X142087600Y-97713800D03*
X139877800Y-102997000D03*
%TO.N,/MCU/GYRO_SS*%
X138099800Y-102565200D03*
X135321600Y-104419400D03*
%TO.N,/MCU/GYRO_SCLK*%
X137972800Y-99517200D03*
X132840734Y-105095484D03*
%TO.N,Net-(D2-A)*%
X122428000Y-99166000D03*
X123979500Y-99166000D03*
%TO.N,/MCU/OSD_MOSI*%
X140208000Y-112014000D03*
X138912600Y-94386400D03*
%TO.N,/MCU/OSD_SCLK*%
X142646400Y-94970600D03*
X145821400Y-102133400D03*
X148209000Y-108610400D03*
%TO.N,/MCU/OSD_MISO*%
X141401800Y-93751400D03*
X149606000Y-109372400D03*
%TO.N,/FLASH/FLASH_SS*%
X146659600Y-100126800D03*
X148183600Y-100126800D03*
%TO.N,/MCU/OSD_SS*%
X143256000Y-96723200D03*
%TO.N,/FLASH/FLASH_SCLK*%
X140614400Y-103634198D03*
X142290800Y-98729800D03*
%TO.N,/MCU/LED_STRIP*%
X157988000Y-80492600D03*
X122275600Y-116128800D03*
X139217400Y-85572600D03*
X157988000Y-116205000D03*
X122199400Y-80543400D03*
%TD*%
D33*
%TO.N,GND*%
X144134800Y-84521000D02*
X144134800Y-83351600D01*
X139344400Y-81737200D02*
X137998200Y-83083400D01*
X140589000Y-79603600D02*
X140589000Y-79806800D01*
X145008600Y-116685000D02*
X144331400Y-117362200D01*
X140589000Y-79603600D02*
X139954000Y-78968600D01*
X131495800Y-86817200D02*
X133096000Y-88417400D01*
X142179000Y-88910200D02*
X142925800Y-88163400D01*
X124333895Y-103302695D02*
X124333895Y-102099552D01*
X133904600Y-85805400D02*
X134747000Y-84963000D01*
X135474000Y-107212672D02*
X135474000Y-107111070D01*
X140589000Y-79806800D02*
X139344400Y-81051400D01*
X139344400Y-81051400D02*
X139344400Y-81737200D01*
X144424400Y-84810600D02*
X144134800Y-84521000D01*
X127000000Y-102997000D02*
X126988895Y-102985895D01*
X134090600Y-109505400D02*
X133902800Y-109505400D01*
X138359700Y-78968600D02*
X137410000Y-79918300D01*
X132630000Y-114065000D02*
X129330000Y-117365000D01*
X127660400Y-86817200D02*
X125984000Y-88493600D01*
X133731000Y-79654400D02*
X133576600Y-79654400D01*
X133731000Y-79654400D02*
X133908800Y-79476600D01*
X131454400Y-81776600D02*
X131454400Y-83351600D01*
X133904600Y-86418900D02*
X133904600Y-87746400D01*
X142179000Y-89077300D02*
X142179000Y-88910200D01*
X145620000Y-113490000D02*
X145620000Y-114399800D01*
X135321600Y-107365072D02*
X135474000Y-107212672D01*
X149182000Y-103899600D02*
X150901400Y-105619000D01*
X132359400Y-87680800D02*
X132359400Y-86360000D01*
X137998200Y-83083400D02*
X137998200Y-88109699D01*
X140716000Y-79476600D02*
X151434800Y-79476600D01*
X132359400Y-86360000D02*
X132867400Y-85852000D01*
X129565400Y-86817200D02*
X131495800Y-86817200D01*
X125293446Y-98145600D02*
X122478800Y-98145600D01*
X136320600Y-108459200D02*
X137099200Y-108459200D01*
X125095000Y-94132400D02*
X124612400Y-93649800D01*
X125238000Y-94132400D02*
X125095000Y-94132400D01*
X136086200Y-106509200D02*
X137099200Y-106509200D01*
X142824200Y-105209200D02*
X143987600Y-105209200D01*
X150901400Y-105619000D02*
X150901400Y-106984800D01*
X140589000Y-79603600D02*
X140716000Y-79476600D01*
X135274400Y-109505400D02*
X136320600Y-108459200D01*
X133902800Y-109505400D02*
X133426200Y-109982000D01*
X136968300Y-79476600D02*
X137410000Y-79918300D01*
X133741600Y-111211800D02*
X135396800Y-111211800D01*
X148620000Y-115065000D02*
X150920000Y-117365000D01*
X126988895Y-102985895D02*
X126988895Y-102099552D01*
X135930470Y-106654600D02*
X135940800Y-106654600D01*
X137346100Y-117777500D02*
X136937400Y-117368800D01*
X129565400Y-86817200D02*
X127660400Y-86817200D01*
X135474000Y-107111070D02*
X135930470Y-106654600D01*
X134090600Y-109505400D02*
X135274400Y-109505400D01*
X137998200Y-88109699D02*
X137466899Y-88641000D01*
X133576600Y-79654400D02*
X131454400Y-81776600D01*
X133904600Y-86418900D02*
X133904600Y-85805400D01*
X125748895Y-97027652D02*
X125748895Y-97690151D01*
X138130000Y-117675900D02*
X138028400Y-117777500D01*
X142925800Y-88163400D02*
X143256000Y-88163400D01*
X125748895Y-97690151D02*
X125293446Y-98145600D01*
X145008600Y-115011200D02*
X145008600Y-116685000D01*
X133096000Y-88417400D02*
X132359400Y-87680800D01*
X133426200Y-109982000D02*
X133426200Y-110896400D01*
X125984000Y-88493600D02*
X125984000Y-93386400D01*
X145620000Y-114399800D02*
X145008600Y-115011200D01*
X133908800Y-79476600D02*
X136968300Y-79476600D01*
X133858000Y-85852000D02*
X134747000Y-84963000D01*
X147482000Y-105599600D02*
X149182000Y-103899600D01*
X132630000Y-113490000D02*
X132630000Y-114065000D01*
X139954000Y-78968600D02*
X138359700Y-78968600D01*
X133426200Y-110896400D02*
X133741600Y-111211800D01*
X122478800Y-98145600D02*
X121462800Y-99161600D01*
X127000000Y-103200200D02*
X127000000Y-102997000D01*
X143987600Y-105209200D02*
X144957800Y-104239000D01*
X132867400Y-85852000D02*
X133858000Y-85852000D01*
X135940800Y-106654600D02*
X136086200Y-106509200D01*
X137466899Y-88641000D02*
X136804400Y-88641000D01*
X138028400Y-117777500D02*
X137346100Y-117777500D01*
X133731000Y-79654400D02*
X129154400Y-79654400D01*
X148620000Y-113490000D02*
X148620000Y-115065000D01*
X146982000Y-105599600D02*
X147482000Y-105599600D01*
X125984000Y-93386400D02*
X125238000Y-94132400D01*
%TO.N,+3V3*%
X124798895Y-100674552D02*
X124333895Y-101139552D01*
X124337143Y-101142800D02*
X124333895Y-101139552D01*
X124798895Y-99302652D02*
X124798895Y-100674552D01*
X125780800Y-101828600D02*
X125095000Y-101142800D01*
X152349200Y-89204800D02*
X153771600Y-90627200D01*
X130454400Y-98171000D02*
X125930547Y-98171000D01*
X125930547Y-98171000D02*
X124798895Y-99302652D01*
X125095000Y-101142800D02*
X124337143Y-101142800D01*
X152273000Y-89204800D02*
X152349200Y-89204800D01*
%TO.N,/MCU/NRST*%
X131267200Y-92811600D02*
X131267200Y-94386400D01*
X131673600Y-94792800D02*
X132017000Y-94792800D01*
X132017000Y-94792800D02*
X132029200Y-94805000D01*
X130573865Y-92118265D02*
X131267200Y-92811600D01*
X131267200Y-94386400D02*
X131673600Y-94792800D01*
%TO.N,+5V*%
X139590000Y-114240800D02*
X140462000Y-115112800D01*
X125266800Y-95063600D02*
X126198000Y-94132400D01*
X135821800Y-105859200D02*
X137099200Y-105859200D01*
X126198000Y-94132400D02*
X128778000Y-94132400D01*
X135321600Y-106414942D02*
X135321600Y-106359400D01*
D34*
X128651000Y-84378800D02*
X129427200Y-84378800D01*
D33*
X136432600Y-109109200D02*
X137099200Y-109109200D01*
X137836699Y-105859200D02*
X138137700Y-106160201D01*
X122658000Y-94196343D02*
X123525257Y-95063600D01*
X137756570Y-107809200D02*
X137099200Y-107809200D01*
X142179000Y-87759800D02*
X142179000Y-86482300D01*
X135456000Y-115316000D02*
X135737600Y-115316000D01*
X138137700Y-108808199D02*
X138137700Y-108190330D01*
X126698895Y-94633295D02*
X126198000Y-94132400D01*
X141757400Y-85344000D02*
X142113000Y-85699600D01*
X133630000Y-113490000D02*
X135456000Y-115316000D01*
X138137700Y-108190330D02*
X137756570Y-107809200D01*
D35*
X122693000Y-89789000D02*
X120599200Y-91882800D01*
D33*
X142113000Y-85699600D02*
X142113000Y-86416300D01*
X142179000Y-86482300D02*
X142129000Y-86432300D01*
X138137700Y-106160201D02*
X138137700Y-107428070D01*
X137099200Y-109109200D02*
X137836699Y-109109200D01*
X122658000Y-89824000D02*
X122693000Y-89789000D01*
X122658000Y-94132400D02*
X122658000Y-94196343D01*
D35*
X120599200Y-95986600D02*
X121640252Y-97027652D01*
D33*
X143677600Y-104559200D02*
X144957800Y-103279000D01*
D35*
X121742200Y-97027652D02*
X124798895Y-97027652D01*
D33*
X126698895Y-97027652D02*
X126698895Y-94633295D01*
X123525257Y-95063600D02*
X125266800Y-95063600D01*
X135321600Y-106359400D02*
X135821800Y-105859200D01*
X138137700Y-107428070D02*
X137756570Y-107809200D01*
D34*
X129427200Y-84378800D02*
X130454400Y-83351600D01*
D35*
X121640252Y-97027652D02*
X121742200Y-97027652D01*
X120599200Y-91882800D02*
X120599200Y-95986600D01*
D33*
X142824200Y-104559200D02*
X143677600Y-104559200D01*
X135076400Y-110465400D02*
X136432600Y-109109200D01*
X137099200Y-105859200D02*
X137836699Y-105859200D01*
X139590000Y-113920000D02*
X139590000Y-114240800D01*
X137836699Y-109109200D02*
X138137700Y-108808199D01*
X122658000Y-94132400D02*
X122658000Y-89824000D01*
X134090600Y-110465400D02*
X135076400Y-110465400D01*
%TO.N,Net-(C22-Pad2)*%
X132295600Y-104190800D02*
X132295600Y-102311200D01*
X132130000Y-104356400D02*
X132295600Y-104190800D01*
X132130000Y-105837800D02*
X132130000Y-104356400D01*
%TO.N,Net-(U5-VOUT)*%
X133845600Y-100596400D02*
X133858000Y-100584000D01*
X138201400Y-104114600D02*
X138201400Y-103555800D01*
X133858000Y-100355400D02*
X133858000Y-100584000D01*
X137099200Y-104559200D02*
X137756800Y-104559200D01*
X137756800Y-104559200D02*
X138201400Y-104114600D01*
X138607800Y-98679000D02*
X135534400Y-98679000D01*
X139065000Y-102692200D02*
X139065000Y-99136200D01*
X139065000Y-99136200D02*
X138607800Y-98679000D01*
X138201400Y-103555800D02*
X139065000Y-102692200D01*
X133845600Y-102311200D02*
X133845600Y-100596400D01*
X135534400Y-98679000D02*
X133858000Y-100355400D01*
%TO.N,Net-(U5-SAG)*%
X135458200Y-105308400D02*
X135557400Y-105209200D01*
X135557400Y-105209200D02*
X137099200Y-105209200D01*
%TO.N,Net-(U5-VIN)*%
X135153400Y-108381800D02*
X136376000Y-107159200D01*
X133167035Y-107919435D02*
X133629400Y-108381800D01*
X132659035Y-107919435D02*
X133167035Y-107919435D01*
X136376000Y-107159200D02*
X137099200Y-107159200D01*
X133629400Y-108381800D02*
X135153400Y-108381800D01*
%TO.N,/CONNECTORS/CAM_ANALOG*%
X128346200Y-85242400D02*
X131267200Y-85242400D01*
X123774200Y-94462600D02*
X123774200Y-93446600D01*
X132454400Y-84055200D02*
X132454400Y-83351600D01*
X125323600Y-91897200D02*
X125323600Y-88265000D01*
X131267200Y-85242400D02*
X132454400Y-84055200D01*
X125323600Y-88265000D02*
X128346200Y-85242400D01*
X123774200Y-93446600D02*
X125323600Y-91897200D01*
D36*
%TO.N,Net-(U6-VIN)*%
X136522000Y-86458600D02*
X136804400Y-86741000D01*
D33*
X134864600Y-86418900D02*
X134864600Y-87746400D01*
D36*
X136522000Y-83642200D02*
X136522000Y-86458600D01*
D33*
X137410000Y-82754200D02*
X136522000Y-83642200D01*
X134864600Y-86418900D02*
X136482300Y-86418900D01*
X137410000Y-81457800D02*
X137410000Y-82754200D01*
X136482300Y-86418900D02*
X136804400Y-86741000D01*
%TO.N,Net-(U7-BP)*%
X126698895Y-99302652D02*
X126698895Y-100849552D01*
X126698895Y-100849552D02*
X126988895Y-101139552D01*
%TO.N,Net-(U6-BOOT)*%
X135331200Y-90500200D02*
X138125200Y-90500200D01*
X138125200Y-90500200D02*
X139079400Y-89546000D01*
X135280400Y-90449400D02*
X135331200Y-90500200D01*
X139079400Y-89546000D02*
X139079400Y-88641000D01*
D35*
%TO.N,Net-(U6-SW)*%
X134010400Y-90424000D02*
X129378000Y-90424000D01*
X136159200Y-87691000D02*
X136804400Y-87691000D01*
X134867200Y-89567200D02*
X134010400Y-90424000D01*
X134867200Y-89073900D02*
X134867200Y-89567200D01*
X129378000Y-90424000D02*
X128743000Y-89789000D01*
D36*
X134867200Y-88983000D02*
X134867200Y-89073900D01*
D35*
X134867200Y-88983000D02*
X136159200Y-87691000D01*
D33*
%TO.N,Net-(U6-FB)*%
X141159000Y-89077300D02*
X141159000Y-87759800D01*
X140860300Y-86741000D02*
X141169000Y-86432300D01*
X141169000Y-86432300D02*
X141169000Y-87749800D01*
X141169000Y-87749800D02*
X141159000Y-87759800D01*
X139079400Y-86741000D02*
X140860300Y-86741000D01*
%TO.N,Net-(D1-A)*%
X122428000Y-95906000D02*
X123979500Y-95906000D01*
D36*
%TO.N,/CONNECTORS/VBAT*%
X143134800Y-83351600D02*
X143134800Y-86238800D01*
X143134800Y-83351600D02*
X139612600Y-83351600D01*
X152120600Y-92125800D02*
X152120600Y-110989400D01*
X152120600Y-110989400D02*
X149620000Y-113490000D01*
X139612600Y-83351600D02*
X139322000Y-83642200D01*
X143134800Y-86238800D02*
X145669000Y-88773000D01*
X145669000Y-88773000D02*
X148767800Y-88773000D01*
X148767800Y-88773000D02*
X152120600Y-92125800D01*
D33*
%TO.N,/CONNECTORS/UART2_RX*%
X135356600Y-101346000D02*
X135102600Y-101600000D01*
X134721600Y-103835200D02*
X134721600Y-107416600D01*
X135102600Y-101600000D02*
X135102600Y-103454200D01*
X134721600Y-107416600D02*
X134467600Y-107670600D01*
X134467600Y-107670600D02*
X134061200Y-107670600D01*
X135102600Y-103454200D02*
X134721600Y-103835200D01*
%TO.N,/CONNECTORS/UART2_TX*%
X131140200Y-100924530D02*
X131140200Y-107467400D01*
X131140200Y-107467400D02*
X132943600Y-109270800D01*
X134747000Y-111709200D02*
X135216900Y-112179100D01*
X132943600Y-109270800D02*
X132943600Y-111226600D01*
X132275665Y-99789065D02*
X131140200Y-100924530D01*
X132943600Y-111226600D02*
X133426200Y-111709200D01*
X133426200Y-111709200D02*
X134747000Y-111709200D01*
%TO.N,/CONNECTORS/UART4_RX*%
X130403600Y-108077000D02*
X130835400Y-108508800D01*
X130835400Y-108508800D02*
X130835400Y-111709200D01*
X130835400Y-111709200D02*
X131630000Y-112503800D01*
X130403600Y-100812600D02*
X130403600Y-108077000D01*
X131000500Y-100215700D02*
X130403600Y-100812600D01*
X131630000Y-112503800D02*
X131630000Y-113490000D01*
%TO.N,/CONNECTORS/UART4_TX*%
X129667000Y-100507800D02*
X128752600Y-101422200D01*
X128752600Y-101422200D02*
X128752600Y-110744000D01*
X128752600Y-110744000D02*
X130630000Y-112621400D01*
X130630000Y-112621400D02*
X130630000Y-113490000D01*
%TO.N,/CONNECTORS/UART5_RX*%
X147091400Y-85902800D02*
X144653000Y-85902800D01*
%TO.N,/CONNECTORS/VIDEO*%
X143433800Y-113665000D02*
X143067800Y-113299000D01*
X131445000Y-110744000D02*
X131445000Y-108864400D01*
X132994400Y-112293400D02*
X131445000Y-110744000D01*
X133858000Y-112293400D02*
X132994400Y-112293400D01*
X143067800Y-113299000D02*
X134863600Y-113299000D01*
X134863600Y-113299000D02*
X133858000Y-112293400D01*
%TO.N,/CONNECTORS/UART3_RX*%
X146620000Y-114669800D02*
X146620000Y-113490000D01*
X145973800Y-115316000D02*
X146620000Y-114669800D01*
%TO.N,/CONNECTORS/UART3_TX*%
X146024600Y-116611400D02*
X147620000Y-115016000D01*
X147620000Y-115016000D02*
X147620000Y-113490000D01*
%TO.N,/CONNECTORS/SBUS*%
X141325600Y-115595400D02*
X143421100Y-115595400D01*
X140030000Y-117675900D02*
X140030000Y-116891000D01*
X143421100Y-115595400D02*
X144620000Y-114396500D01*
X140030000Y-116891000D02*
X141325600Y-115595400D01*
X144620000Y-114396500D02*
X144620000Y-113490000D01*
%TO.N,/CONNECTORS/MOTOR3*%
X150088600Y-86309200D02*
X150088600Y-86461600D01*
X149134800Y-83351600D02*
X149134800Y-84999800D01*
X150088600Y-85953600D02*
X150088600Y-86309200D01*
X149134800Y-84999800D02*
X150088600Y-85953600D01*
%TO.N,/CONNECTORS/ADC_CURR*%
X145134800Y-81838000D02*
X144627600Y-81330800D01*
X145134800Y-83351600D02*
X145134800Y-81838000D01*
X144627600Y-81330800D02*
X142036800Y-81330800D01*
%TO.N,/CONNECTORS/MOTOR1*%
X147980400Y-85775800D02*
X147980400Y-86283800D01*
X147980400Y-86283800D02*
X146989800Y-87274400D01*
X147134800Y-83351600D02*
X147134800Y-84930200D01*
X147134800Y-84930200D02*
X147980400Y-85775800D01*
%TO.N,/CONNECTORS/MOTOR4*%
X151333200Y-86055200D02*
X151333200Y-86309200D01*
X150134800Y-84856800D02*
X151333200Y-86055200D01*
X150134800Y-83351600D02*
X150134800Y-84856800D01*
%TO.N,/CONNECTORS/MOTOR2*%
X148945600Y-85979000D02*
X148945600Y-86436200D01*
X148134800Y-83351600D02*
X148134800Y-85168200D01*
X148134800Y-85168200D02*
X148945600Y-85979000D01*
%TO.N,/CONNECTORS/UART1_RX*%
X140182600Y-81051400D02*
X140504200Y-80729800D01*
X140504200Y-80729800D02*
X144593700Y-80729800D01*
X146134800Y-82270900D02*
X146134800Y-83351600D01*
X140182600Y-81534000D02*
X140182600Y-81051400D01*
X144593700Y-80729800D02*
X146134800Y-82270900D01*
%TO.N,/CONNECTORS/UART6_RX*%
X139080000Y-114430000D02*
X138570000Y-113920000D01*
X139080000Y-115800900D02*
X139080000Y-114430000D01*
%TO.N,/MCU/ADC_VBAT*%
X136296400Y-80749200D02*
X136375200Y-80670400D01*
X136375200Y-80670400D02*
X137677900Y-80670400D01*
X136296400Y-80670400D02*
X136296400Y-80749200D01*
X138430000Y-81457800D02*
X138430000Y-79918300D01*
X137677900Y-80670400D02*
X138430000Y-79918300D01*
%TO.N,/FLASH/FLASH_MOSI*%
X142087600Y-97713800D02*
X139877800Y-99923600D01*
X139877800Y-99923600D02*
X139877800Y-102997000D01*
%TO.N,/MCU/GYRO_SS*%
X136423400Y-102565200D02*
X138099800Y-102565200D01*
X135686800Y-103301800D02*
X136423400Y-102565200D01*
X135321600Y-104419400D02*
X135686800Y-104054200D01*
X135686800Y-104054200D02*
X135686800Y-103301800D01*
%TO.N,/MCU/GYRO_SCLK*%
X137972800Y-99491800D02*
X137591800Y-99110800D01*
X133094600Y-104664910D02*
X133096000Y-104666310D01*
X137972800Y-99517200D02*
X137972800Y-99491800D01*
X133661890Y-103149400D02*
X133094600Y-103716690D01*
X135737600Y-99110800D02*
X134645400Y-100203000D01*
X134645400Y-100203000D02*
X134645400Y-102793800D01*
X133096000Y-104666310D02*
X133096000Y-104840218D01*
X133094600Y-103716690D02*
X133094600Y-104664910D01*
X133096000Y-104840218D02*
X132840734Y-105095484D01*
X134289800Y-103149400D02*
X133661890Y-103149400D01*
X137591800Y-99110800D02*
X135737600Y-99110800D01*
X134645400Y-102793800D02*
X134289800Y-103149400D01*
%TO.N,Net-(D2-A)*%
X122428000Y-99166000D02*
X123979500Y-99166000D01*
%TO.N,/MCU/OSD_MOSI*%
X140808900Y-112014000D02*
X140208000Y-112014000D01*
X142086701Y-108459200D02*
X141687700Y-108858201D01*
X141687700Y-111135200D02*
X140808900Y-112014000D01*
X142824200Y-108459200D02*
X142086701Y-108459200D01*
X141687700Y-108858201D02*
X141687700Y-111135200D01*
%TO.N,/MCU/OSD_SCLK*%
X142824200Y-109109200D02*
X147710200Y-109109200D01*
X143891000Y-100203000D02*
X145821400Y-102133400D01*
X142646400Y-94970600D02*
X143891000Y-96215200D01*
X143891000Y-96215200D02*
X143891000Y-99771200D01*
X147710200Y-109109200D02*
X148209000Y-108610400D01*
X143891000Y-99771200D02*
X143891000Y-100203000D01*
%TO.N,/MCU/OSD_MISO*%
X142824200Y-109759200D02*
X149219200Y-109759200D01*
X149219200Y-109759200D02*
X149606000Y-109372400D01*
%TO.N,/FLASH/FLASH_SS*%
X146659600Y-100126800D02*
X148183600Y-100126800D01*
%TO.N,/MCU/OSD_SS*%
X143256000Y-100939600D02*
X141785700Y-102409900D01*
X142073800Y-107809200D02*
X142824200Y-107809200D01*
X141785700Y-107521100D02*
X142073800Y-107809200D01*
X141785700Y-102409900D02*
X141785700Y-107521100D01*
X143256000Y-96723200D02*
X143256000Y-100939600D01*
%TO.N,/FLASH/FLASH_SCLK*%
X142290800Y-98729800D02*
X140614400Y-100406200D01*
X140614400Y-100406200D02*
X140614400Y-103634198D01*
%TO.N,Net-(U5-XFB)*%
X148272400Y-106509200D02*
X149182000Y-105599600D01*
X142824200Y-106509200D02*
X148272400Y-106509200D01*
%TO.N,Net-(U5-CLKIN)*%
X142824200Y-105859200D02*
X145022400Y-105859200D01*
X145022400Y-105859200D02*
X146982000Y-103899600D01*
%TD*%
M02*
