%TF.GenerationSoftware,KiCad,Pcbnew,9.0.6-9.0.6~ubuntu24.04.1*%
%TF.CreationDate,2025-11-22T16:00:11+08:00*%
%TF.ProjectId,tinybee,74696e79-6265-4652-9e6b-696361645f70,1.1*%
%TF.SameCoordinates,Original*%
%TF.FileFunction,Copper,L3,Inr*%
%TF.FilePolarity,Positive*%
%FSLAX46Y46*%
G04 Gerber Fmt 4.6, Leading zero omitted, Abs format (unit mm)*
G04 Created by KiCad (PCBNEW 9.0.6-9.0.6~ubuntu24.04.1) date 2025-11-22 16:00:11*
%MOMM*%
%LPD*%
G01*
G04 APERTURE LIST*
%TA.AperFunction,HeatsinkPad*%
%ADD10O,2.100000X1.000000*%
%TD*%
%TA.AperFunction,HeatsinkPad*%
%ADD11O,1.600000X1.000000*%
%TD*%
%TA.AperFunction,ViaPad*%
%ADD12C,0.600000*%
%TD*%
%TA.AperFunction,Conductor*%
%ADD13C,0.200000*%
%TD*%
G04 APERTURE END LIST*
D10*
%TO.N,GND*%
%TO.C,J1*%
X154680000Y-104080000D03*
D11*
X158860000Y-104080000D03*
D10*
X154680000Y-95440000D03*
D11*
X158860000Y-95440000D03*
%TD*%
D12*
%TO.N,GND*%
X136937400Y-117368800D03*
X154406600Y-92583000D03*
X150901400Y-106984800D03*
X125095000Y-110032800D03*
X129154400Y-79654400D03*
X124612400Y-93649800D03*
X150931400Y-117362200D03*
X121488200Y-107543600D03*
X140589000Y-79603600D03*
X121462800Y-99161600D03*
X134090600Y-106779000D03*
X159105000Y-86680000D03*
X128143000Y-83134200D03*
X155397200Y-117322600D03*
X135321600Y-107365072D03*
X135396800Y-111211800D03*
X135760217Y-102219592D03*
X134747000Y-84963000D03*
X121386600Y-105283000D03*
X159029400Y-83286600D03*
X130124200Y-109495400D03*
X133096000Y-88417400D03*
X121386600Y-102793800D03*
X124155200Y-91973400D03*
X127000000Y-103200200D03*
X134930000Y-117365000D03*
X124739400Y-79552800D03*
X139961700Y-107484200D03*
X129743200Y-94132400D03*
X144331400Y-117362200D03*
X126466000Y-105092900D03*
X143320000Y-117365000D03*
X148940000Y-92049600D03*
X131337400Y-117368800D03*
X144957800Y-104239000D03*
X129330000Y-117365000D03*
X121259600Y-113614200D03*
X137998200Y-83083400D03*
X143256000Y-88163400D03*
X159105000Y-92280000D03*
X124333895Y-103302695D03*
X132867400Y-85852000D03*
X158724600Y-89687400D03*
X133731000Y-79654400D03*
X126466000Y-107662900D03*
X126949200Y-88849200D03*
X129565400Y-86817200D03*
X131292600Y-96062800D03*
X144424400Y-84810600D03*
X121691400Y-94132400D03*
X128706000Y-96436000D03*
%TO.N,+3V3*%
X145948400Y-107410000D03*
X132080000Y-91262200D03*
X127762000Y-109169200D03*
X135681454Y-89710115D03*
X146735800Y-90551000D03*
X125780800Y-101828600D03*
X144475200Y-101854000D03*
X130454400Y-98171000D03*
X128250000Y-92830000D03*
X152273000Y-89204800D03*
X138836400Y-111963200D03*
X136804400Y-99745800D03*
X125628400Y-86512400D03*
X135788400Y-97688400D03*
X153771600Y-90627200D03*
%TO.N,/MCU/NRST*%
X132029200Y-94805000D03*
X130573865Y-92118265D03*
%TO.N,+5V*%
X122693000Y-89789000D03*
X140462000Y-115112800D03*
X130048000Y-115112800D03*
X128651000Y-84378800D03*
X121742200Y-97027652D03*
X148793200Y-81356200D03*
X159054800Y-113665000D03*
X134090600Y-105819000D03*
X124968000Y-117322600D03*
X124798895Y-97027652D03*
X155397200Y-79502000D03*
X141757400Y-85344000D03*
X135737600Y-115316000D03*
X135321600Y-106414942D03*
X154320000Y-108270000D03*
X121259600Y-83337400D03*
X144957800Y-103279000D03*
%TO.N,Net-(U5-SAG)*%
X133845600Y-104190800D03*
X135458200Y-105308400D03*
%TO.N,Net-(U5-VIN)*%
X132659035Y-107919435D03*
X132130800Y-109499400D03*
%TO.N,/CONNECTORS/CAM_ANALOG*%
X123774200Y-94462600D03*
X132130000Y-110465400D03*
X130124200Y-110515400D03*
%TO.N,Net-(U6-BOOT)*%
X135280400Y-90449400D03*
X133907200Y-89073900D03*
%TO.N,Net-(D1-A)*%
X122428000Y-95906000D03*
X123979500Y-95906000D03*
%TO.N,/CONNECTORS/VBAT*%
X151104600Y-111988600D03*
%TO.N,/CONNECTORS/UART2_RX*%
X134061200Y-107670600D03*
X135356600Y-101346000D03*
%TO.N,/CONNECTORS/UART2_TX*%
X132275665Y-99789065D03*
X135216900Y-112179100D03*
%TO.N,/CONNECTORS/UART4_RX*%
X131000500Y-100215700D03*
%TO.N,/CONNECTORS/UART4_TX*%
X129667000Y-100507800D03*
%TO.N,/CONNECTORS/UART5_RX*%
X147091400Y-85902800D03*
X144653000Y-85902800D03*
%TO.N,/CONNECTORS/VIDEO*%
X132130000Y-106857800D03*
X143433800Y-113665000D03*
X131445000Y-108864400D03*
%TO.N,/CONNECTORS/UART3_RX*%
X145973800Y-115316000D03*
%TO.N,/CONNECTORS/UART3_TX*%
X146024600Y-116611400D03*
%TO.N,/CONNECTORS/MOTOR3*%
X148259800Y-95758000D03*
X150088600Y-86309200D03*
%TO.N,/CONNECTORS/ADC_CURR*%
X136626600Y-95554800D03*
X142036800Y-81330800D03*
%TO.N,/CONNECTORS/MOTOR1*%
X144068800Y-94945200D03*
X146989800Y-87274400D03*
%TO.N,/CONNECTORS/MOTOR4*%
X151333200Y-86309200D03*
X147904200Y-94665800D03*
%TO.N,/CONNECTORS/MOTOR2*%
X144348200Y-93091000D03*
X148945600Y-86309200D03*
%TO.N,/CONNECTORS/UART1_RX*%
X140182600Y-81534000D03*
X138760200Y-92100400D03*
%TO.N,/CONNECTORS/UART6_RX*%
X147447000Y-97663000D03*
X139080000Y-115800900D03*
%TO.N,/MCU/ADC_VBAT*%
X136296400Y-80670400D03*
X132740400Y-96189800D03*
%TO.N,/CONNECTORS/BEEPER*%
X135788400Y-93573600D03*
X133604000Y-83896200D03*
%TO.N,/FLASH/FLASH_MOSI*%
X142087600Y-97713800D03*
X139877800Y-102997000D03*
%TO.N,/MCU/GYRO_SS*%
X138099800Y-102565200D03*
X135321600Y-104419400D03*
%TO.N,/MCU/GYRO_SCLK*%
X137972800Y-99517200D03*
X132840734Y-105095484D03*
%TO.N,Net-(D2-A)*%
X122428000Y-99166000D03*
X123979500Y-99166000D03*
%TO.N,/MCU/OSD_MOSI*%
X140208000Y-112014000D03*
X138912600Y-94386400D03*
%TO.N,/MCU/OSD_SCLK*%
X142646400Y-94970600D03*
X145821400Y-102133400D03*
X148209000Y-108610400D03*
%TO.N,/MCU/OSD_MISO*%
X141401800Y-93751400D03*
X149606000Y-109372400D03*
%TO.N,/FLASH/FLASH_SS*%
X146659600Y-100126800D03*
X148183600Y-100126800D03*
%TO.N,/MCU/OSD_SS*%
X143256000Y-96723200D03*
%TO.N,/FLASH/FLASH_SCLK*%
X140614400Y-103634198D03*
X142290800Y-98729800D03*
%TO.N,/MCU/LED_STRIP*%
X157988000Y-80492600D03*
X122275600Y-116128800D03*
X139217400Y-85572600D03*
X157988000Y-116205000D03*
X122199400Y-80543400D03*
%TD*%
D13*
%TO.N,+3V3*%
X129032000Y-89916000D02*
X125628400Y-86512400D01*
X135681454Y-89710115D02*
X135681454Y-89301054D01*
X146405600Y-90551000D02*
X144977471Y-91979129D01*
X144977471Y-101351729D02*
X144475200Y-101854000D01*
X135681454Y-89301054D02*
X134112000Y-87731600D01*
X132308600Y-87731600D02*
X130124200Y-89916000D01*
X130124200Y-89916000D02*
X129032000Y-89916000D01*
X130124200Y-89916000D02*
X128250000Y-91790200D01*
X146735800Y-90551000D02*
X146405600Y-90551000D01*
X144977471Y-91979129D02*
X144977471Y-101351729D01*
X128250000Y-91790200D02*
X128250000Y-92830000D01*
X134112000Y-87731600D02*
X132308600Y-87731600D01*
%TO.N,/CONNECTORS/MOTOR4*%
X151333200Y-91236800D02*
X147904200Y-94665800D01*
X151333200Y-86309200D02*
X151333200Y-91236800D01*
%TO.N,/CONNECTORS/UART1_RX*%
X139852400Y-92506800D02*
X139166600Y-92506800D01*
X139166600Y-92506800D02*
X138760200Y-92100400D01*
X140182600Y-92176600D02*
X139852400Y-92506800D01*
X140182600Y-81534000D02*
X140182600Y-92176600D01*
%TO.N,/CONNECTORS/UART6_RX*%
X141782800Y-109575600D02*
X147447000Y-103911400D01*
X141071600Y-116535200D02*
X141782800Y-115824000D01*
X147447000Y-103911400D02*
X147447000Y-97663000D01*
X139080000Y-115800900D02*
X139814300Y-116535200D01*
X141782800Y-115824000D02*
X141782800Y-109575600D01*
X139814300Y-116535200D02*
X141071600Y-116535200D01*
%TO.N,/CONNECTORS/BEEPER*%
X135788400Y-93573600D02*
X136296400Y-94081600D01*
X137414000Y-93726000D02*
X137414000Y-85293200D01*
X137414000Y-85293200D02*
X136017000Y-83896200D01*
X137058400Y-94081600D02*
X137414000Y-93726000D01*
X136017000Y-83896200D02*
X133604000Y-83896200D01*
X136296400Y-94081600D02*
X137058400Y-94081600D01*
%TO.N,/MCU/OSD_MOSI*%
X139903200Y-112014000D02*
X140208000Y-112014000D01*
X138963400Y-111074200D02*
X139903200Y-112014000D01*
X138912600Y-94386400D02*
X138963400Y-94437200D01*
X138963400Y-94437200D02*
X138963400Y-111074200D01*
%TO.N,/MCU/LED_STRIP*%
X157988000Y-116205000D02*
X158165800Y-116027200D01*
X122301000Y-80441800D02*
X134086600Y-80441800D01*
X158165800Y-116027200D02*
X158165800Y-110261400D01*
X156768800Y-89458800D02*
X151460200Y-84150200D01*
X126365000Y-98628200D02*
X123063000Y-101930200D01*
X151460200Y-84150200D02*
X151460200Y-81788000D01*
X150241000Y-80416400D02*
X157911800Y-80416400D01*
X122174000Y-80568800D02*
X122174000Y-85572600D01*
X158165800Y-110261400D02*
X156768800Y-108864400D01*
X122174000Y-85572600D02*
X126365000Y-89763600D01*
X157911800Y-80416400D02*
X157988000Y-80492600D01*
X134086600Y-80441800D02*
X139217400Y-85572600D01*
X123063000Y-109423200D02*
X122199400Y-110286800D01*
X139217400Y-85572600D02*
X139217400Y-81280000D01*
X139217400Y-81280000D02*
X140081000Y-80416400D01*
X140081000Y-80416400D02*
X150241000Y-80416400D01*
X126365000Y-89763600D02*
X126365000Y-98628200D01*
X122199400Y-110286800D02*
X122199400Y-116052600D01*
X156768800Y-108864400D02*
X156768800Y-89458800D01*
X122199400Y-116052600D02*
X122275600Y-116128800D01*
X122199400Y-80543400D02*
X122301000Y-80441800D01*
X151460200Y-81788000D02*
X150088600Y-80416400D01*
X122199400Y-80543400D02*
X122174000Y-80568800D01*
X123063000Y-101930200D02*
X123063000Y-109423200D01*
%TD*%
%TA.AperFunction,Conductor*%
%TO.N,GND*%
G36*
X155662102Y-78431616D02*
G01*
X156046171Y-78448385D01*
X156056906Y-78449325D01*
X156435371Y-78499151D01*
X156445997Y-78501024D01*
X156818684Y-78583647D01*
X156829110Y-78586441D01*
X157193165Y-78701226D01*
X157203311Y-78704919D01*
X157555974Y-78850997D01*
X157565769Y-78855565D01*
X157827303Y-78991711D01*
X157904342Y-79031815D01*
X157913710Y-79037223D01*
X158235644Y-79242317D01*
X158244505Y-79248522D01*
X158547330Y-79480888D01*
X158555617Y-79487842D01*
X158837035Y-79745714D01*
X158844684Y-79753363D01*
X159102556Y-80034781D01*
X159109510Y-80043068D01*
X159341882Y-80345901D01*
X159348086Y-80354762D01*
X159418031Y-80464553D01*
X159518490Y-80622242D01*
X159553171Y-80676679D01*
X159558576Y-80686041D01*
X159612790Y-80790184D01*
X159734831Y-81024622D01*
X159739403Y-81034426D01*
X159885476Y-81387077D01*
X159889176Y-81397243D01*
X160003955Y-81761277D01*
X160006755Y-81771726D01*
X160089372Y-82144388D01*
X160091250Y-82155041D01*
X160141072Y-82533472D01*
X160142015Y-82544248D01*
X160158782Y-82928273D01*
X160158900Y-82933682D01*
X160158900Y-94726669D01*
X160139215Y-94793708D01*
X160086411Y-94839463D01*
X160017253Y-94849407D01*
X159953697Y-94820382D01*
X159939047Y-94805334D01*
X159936749Y-94802534D01*
X159797466Y-94663251D01*
X159797462Y-94663248D01*
X159633684Y-94553814D01*
X159633671Y-94553807D01*
X159451693Y-94478430D01*
X159451681Y-94478427D01*
X159258495Y-94440000D01*
X159110000Y-94440000D01*
X159110000Y-95140000D01*
X158610000Y-95140000D01*
X158610000Y-94440000D01*
X158461504Y-94440000D01*
X158268318Y-94478427D01*
X158268306Y-94478430D01*
X158086328Y-94553807D01*
X158086315Y-94553814D01*
X157922537Y-94663248D01*
X157922533Y-94663251D01*
X157783251Y-94802533D01*
X157783248Y-94802537D01*
X157673814Y-94966315D01*
X157673807Y-94966328D01*
X157607861Y-95125539D01*
X157564020Y-95179943D01*
X157497726Y-95202008D01*
X157430027Y-95184729D01*
X157382416Y-95133592D01*
X157369300Y-95078087D01*
X157369300Y-89379745D01*
X157369300Y-89379743D01*
X157342229Y-89278711D01*
X157328377Y-89227015D01*
X157328375Y-89227011D01*
X157285495Y-89152741D01*
X157249322Y-89090087D01*
X157249321Y-89090086D01*
X157249320Y-89090084D01*
X157137516Y-88978280D01*
X157137515Y-88978279D01*
X157133185Y-88973949D01*
X157133174Y-88973939D01*
X152097019Y-83937784D01*
X152063534Y-83876461D01*
X152060700Y-83850103D01*
X152060700Y-81708943D01*
X152060699Y-81708939D01*
X152044563Y-81648717D01*
X152044563Y-81648716D01*
X152019777Y-81556215D01*
X151970520Y-81470900D01*
X151940720Y-81419284D01*
X151828916Y-81307480D01*
X151828915Y-81307479D01*
X151824585Y-81303149D01*
X151824574Y-81303139D01*
X151750016Y-81228581D01*
X151716531Y-81167258D01*
X151721515Y-81097566D01*
X151763387Y-81041633D01*
X151828851Y-81017216D01*
X151837697Y-81016900D01*
X153758232Y-81016900D01*
X153825271Y-81036585D01*
X153871026Y-81089389D01*
X153880970Y-81158547D01*
X153851945Y-81222103D01*
X153835545Y-81237847D01*
X153740575Y-81313582D01*
X153541983Y-81512174D01*
X153366876Y-81731752D01*
X153217453Y-81969556D01*
X153095600Y-82222587D01*
X153002843Y-82487669D01*
X153002839Y-82487681D01*
X152940345Y-82761486D01*
X152940342Y-82761504D01*
X152908900Y-83040567D01*
X152908900Y-83321430D01*
X152940342Y-83600493D01*
X152940345Y-83600511D01*
X153002839Y-83874316D01*
X153002843Y-83874328D01*
X153095600Y-84139410D01*
X153217453Y-84392441D01*
X153217455Y-84392444D01*
X153366877Y-84630247D01*
X153541984Y-84849824D01*
X153740575Y-85048415D01*
X153960152Y-85223522D01*
X154197955Y-85372944D01*
X154450992Y-85494800D01*
X154650080Y-85564464D01*
X154716070Y-85587555D01*
X154716082Y-85587559D01*
X154989891Y-85650054D01*
X154989897Y-85650054D01*
X154989905Y-85650056D01*
X155160794Y-85669310D01*
X155268969Y-85681498D01*
X155268972Y-85681499D01*
X155268975Y-85681499D01*
X155549828Y-85681499D01*
X155549829Y-85681498D01*
X155692455Y-85665428D01*
X155828894Y-85650056D01*
X155828899Y-85650055D01*
X155828909Y-85650054D01*
X156102718Y-85587559D01*
X156367808Y-85494800D01*
X156620845Y-85372944D01*
X156858648Y-85223522D01*
X157078225Y-85048415D01*
X157276816Y-84849824D01*
X157451923Y-84630247D01*
X157601345Y-84392444D01*
X157723201Y-84139407D01*
X157815960Y-83874317D01*
X157878455Y-83600508D01*
X157881792Y-83570897D01*
X157902634Y-83385911D01*
X157909900Y-83321424D01*
X157909900Y-83040574D01*
X157878455Y-82761490D01*
X157815960Y-82487681D01*
X157723201Y-82222591D01*
X157601345Y-81969554D01*
X157451923Y-81731751D01*
X157276816Y-81512174D01*
X157078225Y-81313583D01*
X157051682Y-81292416D01*
X157000946Y-81251955D01*
X156983254Y-81237846D01*
X156943115Y-81180659D01*
X156940265Y-81110847D01*
X156975610Y-81050577D01*
X157037929Y-81018984D01*
X157060568Y-81016900D01*
X157328860Y-81016900D01*
X157395899Y-81036585D01*
X157416536Y-81053214D01*
X157448473Y-81085151D01*
X157477712Y-81114390D01*
X157608814Y-81201990D01*
X157608827Y-81201997D01*
X157754498Y-81262335D01*
X157754503Y-81262337D01*
X157904563Y-81292186D01*
X157909153Y-81293099D01*
X157909156Y-81293100D01*
X157909158Y-81293100D01*
X158066844Y-81293100D01*
X158066845Y-81293099D01*
X158221497Y-81262337D01*
X158367179Y-81201994D01*
X158498289Y-81114389D01*
X158609789Y-81002889D01*
X158697394Y-80871779D01*
X158757737Y-80726097D01*
X158788500Y-80571442D01*
X158788500Y-80413758D01*
X158788500Y-80413755D01*
X158788499Y-80413753D01*
X158764127Y-80291227D01*
X158757737Y-80259103D01*
X158757735Y-80259098D01*
X158697397Y-80113427D01*
X158697390Y-80113414D01*
X158609789Y-79982311D01*
X158609786Y-79982307D01*
X158498292Y-79870813D01*
X158498288Y-79870810D01*
X158367185Y-79783209D01*
X158367172Y-79783202D01*
X158221501Y-79722864D01*
X158221489Y-79722861D01*
X158066845Y-79692100D01*
X158066842Y-79692100D01*
X157909158Y-79692100D01*
X157909155Y-79692100D01*
X157754510Y-79722861D01*
X157754498Y-79722864D01*
X157608827Y-79783202D01*
X157608814Y-79783209D01*
X157591166Y-79795002D01*
X157524488Y-79815880D01*
X157522275Y-79815900D01*
X156302039Y-79815900D01*
X156235000Y-79796215D01*
X156189245Y-79743411D01*
X156179301Y-79674253D01*
X156180422Y-79667709D01*
X156197699Y-79580846D01*
X156197700Y-79580844D01*
X156197700Y-79423155D01*
X156197699Y-79423153D01*
X156166938Y-79268510D01*
X156166937Y-79268503D01*
X156158659Y-79248518D01*
X156106597Y-79122827D01*
X156106590Y-79122814D01*
X156018989Y-78991711D01*
X156018986Y-78991707D01*
X155907492Y-78880213D01*
X155907488Y-78880210D01*
X155776385Y-78792609D01*
X155776372Y-78792602D01*
X155630701Y-78732264D01*
X155630689Y-78732261D01*
X155476045Y-78701500D01*
X155476042Y-78701500D01*
X155318358Y-78701500D01*
X155318355Y-78701500D01*
X155163710Y-78732261D01*
X155163698Y-78732264D01*
X155018027Y-78792602D01*
X155018014Y-78792609D01*
X154886911Y-78880210D01*
X154886907Y-78880213D01*
X154775413Y-78991707D01*
X154775410Y-78991711D01*
X154687809Y-79122814D01*
X154687802Y-79122827D01*
X154627464Y-79268498D01*
X154627461Y-79268510D01*
X154596700Y-79423153D01*
X154596700Y-79580846D01*
X154613978Y-79667709D01*
X154607751Y-79737301D01*
X154564888Y-79792478D01*
X154498998Y-79815722D01*
X154492361Y-79815900D01*
X150167661Y-79815900D01*
X150167657Y-79815899D01*
X150009543Y-79815899D01*
X150009539Y-79815900D01*
X140167669Y-79815900D01*
X140167653Y-79815899D01*
X140160057Y-79815899D01*
X140001943Y-79815899D01*
X139907147Y-79841300D01*
X139849210Y-79856824D01*
X139849209Y-79856825D01*
X139799096Y-79885759D01*
X139799095Y-79885760D01*
X139755689Y-79910820D01*
X139712285Y-79935879D01*
X139712282Y-79935881D01*
X138736879Y-80911284D01*
X138726181Y-80929815D01*
X138709869Y-80958069D01*
X138671444Y-81024623D01*
X138662761Y-81039663D01*
X138657823Y-81048215D01*
X138616899Y-81200943D01*
X138616899Y-81200945D01*
X138616899Y-81369046D01*
X138616900Y-81369059D01*
X138616900Y-83823503D01*
X138597215Y-83890542D01*
X138544411Y-83936297D01*
X138475253Y-83946241D01*
X138411697Y-83917216D01*
X138405219Y-83911184D01*
X136176616Y-81682581D01*
X136143131Y-81621258D01*
X136148115Y-81551566D01*
X136189987Y-81495633D01*
X136255451Y-81471216D01*
X136264297Y-81470900D01*
X136375244Y-81470900D01*
X136375245Y-81470899D01*
X136529897Y-81440137D01*
X136675579Y-81379794D01*
X136806689Y-81292189D01*
X136918189Y-81180689D01*
X137005794Y-81049579D01*
X137066137Y-80903897D01*
X137096900Y-80749242D01*
X137096900Y-80591558D01*
X137096900Y-80591555D01*
X137096899Y-80591553D01*
X137066138Y-80436910D01*
X137066137Y-80436903D01*
X137056548Y-80413753D01*
X137005797Y-80291227D01*
X137005790Y-80291214D01*
X136918189Y-80160111D01*
X136918186Y-80160107D01*
X136806692Y-80048613D01*
X136806688Y-80048610D01*
X136675585Y-79961009D01*
X136675572Y-79961002D01*
X136529901Y-79900664D01*
X136529889Y-79900661D01*
X136375245Y-79869900D01*
X136375242Y-79869900D01*
X136217558Y-79869900D01*
X136217555Y-79869900D01*
X136062910Y-79900661D01*
X136062898Y-79900664D01*
X135917227Y-79961002D01*
X135917214Y-79961009D01*
X135786111Y-80048610D01*
X135786107Y-80048613D01*
X135674613Y-80160107D01*
X135674610Y-80160111D01*
X135587009Y-80291214D01*
X135587002Y-80291227D01*
X135526664Y-80436898D01*
X135526661Y-80436910D01*
X135495900Y-80591553D01*
X135495900Y-80702503D01*
X135476215Y-80769542D01*
X135423411Y-80815297D01*
X135354253Y-80825241D01*
X135290697Y-80796216D01*
X135284219Y-80790184D01*
X134574190Y-80080155D01*
X134574188Y-80080152D01*
X134455317Y-79961281D01*
X134455316Y-79961280D01*
X134368504Y-79911160D01*
X134368504Y-79911159D01*
X134368500Y-79911158D01*
X134318385Y-79882223D01*
X134165657Y-79841299D01*
X134007543Y-79841299D01*
X133999947Y-79841299D01*
X133999931Y-79841300D01*
X122620854Y-79841300D01*
X122573402Y-79831861D01*
X122432901Y-79773664D01*
X122432889Y-79773661D01*
X122278245Y-79742900D01*
X122278242Y-79742900D01*
X122120558Y-79742900D01*
X122120555Y-79742900D01*
X121965910Y-79773661D01*
X121965898Y-79773664D01*
X121820227Y-79834002D01*
X121820214Y-79834009D01*
X121689111Y-79921610D01*
X121689107Y-79921613D01*
X121577613Y-80033107D01*
X121577610Y-80033111D01*
X121490009Y-80164214D01*
X121490002Y-80164227D01*
X121429664Y-80309898D01*
X121429661Y-80309910D01*
X121398900Y-80464553D01*
X121398900Y-80622246D01*
X121429661Y-80776889D01*
X121429664Y-80776901D01*
X121490002Y-80922572D01*
X121490009Y-80922584D01*
X121552602Y-81016260D01*
X121573480Y-81082937D01*
X121573500Y-81085151D01*
X121573500Y-82432561D01*
X121553815Y-82499600D01*
X121501011Y-82545355D01*
X121431853Y-82555299D01*
X121425309Y-82554178D01*
X121338446Y-82536900D01*
X121338442Y-82536900D01*
X121180758Y-82536900D01*
X121180755Y-82536900D01*
X121026110Y-82567661D01*
X121026098Y-82567664D01*
X120880427Y-82628002D01*
X120880414Y-82628009D01*
X120749311Y-82715610D01*
X120749307Y-82715613D01*
X120637813Y-82827107D01*
X120637810Y-82827111D01*
X120550209Y-82958214D01*
X120550202Y-82958227D01*
X120489864Y-83103898D01*
X120489861Y-83103910D01*
X120459100Y-83258553D01*
X120459100Y-83416246D01*
X120489861Y-83570889D01*
X120489864Y-83570901D01*
X120550202Y-83716572D01*
X120550209Y-83716585D01*
X120637810Y-83847688D01*
X120637813Y-83847692D01*
X120749307Y-83959186D01*
X120749311Y-83959189D01*
X120880414Y-84046790D01*
X120880427Y-84046797D01*
X120945699Y-84073833D01*
X121026103Y-84107137D01*
X121180753Y-84137899D01*
X121180756Y-84137900D01*
X121180758Y-84137900D01*
X121338444Y-84137900D01*
X121400219Y-84125611D01*
X121425308Y-84120621D01*
X121494899Y-84126848D01*
X121550077Y-84169710D01*
X121573322Y-84235600D01*
X121573500Y-84242238D01*
X121573500Y-85485930D01*
X121573499Y-85485948D01*
X121573499Y-85651654D01*
X121573498Y-85651654D01*
X121614423Y-85804385D01*
X121625724Y-85823958D01*
X121625725Y-85823961D01*
X121693475Y-85941309D01*
X121693481Y-85941317D01*
X121812349Y-86060185D01*
X121812355Y-86060190D01*
X125728181Y-89976016D01*
X125761666Y-90037339D01*
X125764500Y-90063697D01*
X125764500Y-96643631D01*
X125744815Y-96710670D01*
X125692011Y-96756425D01*
X125622853Y-96766369D01*
X125559297Y-96737344D01*
X125525939Y-96691083D01*
X125508292Y-96648479D01*
X125508285Y-96648466D01*
X125420684Y-96517363D01*
X125420681Y-96517359D01*
X125309187Y-96405865D01*
X125309183Y-96405862D01*
X125178080Y-96318261D01*
X125178067Y-96318254D01*
X125032396Y-96257916D01*
X125032384Y-96257913D01*
X124877741Y-96227152D01*
X124871677Y-96226555D01*
X124871935Y-96223933D01*
X124815857Y-96207467D01*
X124770102Y-96154663D01*
X124760158Y-96085505D01*
X124761279Y-96078960D01*
X124780000Y-95984844D01*
X124780000Y-95827155D01*
X124779999Y-95827153D01*
X124763797Y-95745700D01*
X124749237Y-95672503D01*
X124733141Y-95633644D01*
X124688897Y-95526827D01*
X124688890Y-95526814D01*
X124601289Y-95395711D01*
X124601286Y-95395707D01*
X124489789Y-95284210D01*
X124372566Y-95205885D01*
X124327761Y-95152273D01*
X124319054Y-95082948D01*
X124349208Y-95019921D01*
X124353777Y-95015101D01*
X124395986Y-94972892D01*
X124395989Y-94972889D01*
X124483594Y-94841779D01*
X124543937Y-94696097D01*
X124574700Y-94541442D01*
X124574700Y-94383758D01*
X124574700Y-94383755D01*
X124574699Y-94383753D01*
X124567749Y-94348813D01*
X124543937Y-94229103D01*
X124521718Y-94175461D01*
X124483597Y-94083427D01*
X124483590Y-94083414D01*
X124395989Y-93952311D01*
X124395986Y-93952307D01*
X124284492Y-93840813D01*
X124284488Y-93840810D01*
X124153385Y-93753209D01*
X124153372Y-93753202D01*
X124007701Y-93692864D01*
X124007689Y-93692861D01*
X123853045Y-93662100D01*
X123853042Y-93662100D01*
X123695358Y-93662100D01*
X123695355Y-93662100D01*
X123540710Y-93692861D01*
X123540698Y-93692864D01*
X123395027Y-93753202D01*
X123395014Y-93753209D01*
X123263911Y-93840810D01*
X123263907Y-93840813D01*
X123152413Y-93952307D01*
X123152410Y-93952311D01*
X123064809Y-94083414D01*
X123064802Y-94083427D01*
X123004464Y-94229098D01*
X123004461Y-94229110D01*
X122973700Y-94383753D01*
X122973700Y-94541446D01*
X123004461Y-94696089D01*
X123004464Y-94696101D01*
X123064802Y-94841772D01*
X123064809Y-94841785D01*
X123152410Y-94972888D01*
X123152413Y-94972892D01*
X123263907Y-95084386D01*
X123263915Y-95084392D01*
X123381132Y-95162714D01*
X123390119Y-95173467D01*
X123402239Y-95180513D01*
X123412083Y-95199748D01*
X123425938Y-95216326D01*
X123427684Y-95230233D01*
X123434070Y-95242710D01*
X123431952Y-95264212D01*
X123434645Y-95285651D01*
X123428458Y-95299693D01*
X123427222Y-95312244D01*
X123414375Y-95331657D01*
X123409485Y-95342757D01*
X123405012Y-95348409D01*
X123357711Y-95395711D01*
X123304083Y-95475969D01*
X123300993Y-95479876D01*
X123276377Y-95497294D01*
X123253240Y-95516631D01*
X123248147Y-95517270D01*
X123243958Y-95520235D01*
X123213834Y-95521580D01*
X123183915Y-95525338D01*
X123179285Y-95523123D01*
X123174158Y-95523352D01*
X123148085Y-95508195D01*
X123120887Y-95495183D01*
X123116001Y-95489545D01*
X123113753Y-95488238D01*
X123112142Y-95485091D01*
X123100648Y-95471826D01*
X123049789Y-95395711D01*
X123049786Y-95395707D01*
X122938292Y-95284213D01*
X122938288Y-95284210D01*
X122807185Y-95196609D01*
X122807172Y-95196602D01*
X122661501Y-95136264D01*
X122661489Y-95136261D01*
X122506845Y-95105500D01*
X122506842Y-95105500D01*
X122349158Y-95105500D01*
X122349155Y-95105500D01*
X122194510Y-95136261D01*
X122194498Y-95136264D01*
X122048827Y-95196602D01*
X122048814Y-95196609D01*
X121917711Y-95284210D01*
X121917707Y-95284213D01*
X121806213Y-95395707D01*
X121806210Y-95395711D01*
X121718609Y-95526814D01*
X121718602Y-95526827D01*
X121658264Y-95672498D01*
X121658261Y-95672510D01*
X121627500Y-95827153D01*
X121627500Y-95984846D01*
X121651037Y-96103173D01*
X121644810Y-96172764D01*
X121601947Y-96227942D01*
X121553613Y-96248981D01*
X121508707Y-96257913D01*
X121508698Y-96257916D01*
X121363027Y-96318254D01*
X121363014Y-96318261D01*
X121231911Y-96405862D01*
X121231907Y-96405865D01*
X121120413Y-96517359D01*
X121120410Y-96517363D01*
X121032809Y-96648466D01*
X121032802Y-96648479D01*
X120972464Y-96794150D01*
X120972461Y-96794162D01*
X120941700Y-96948805D01*
X120941700Y-97106498D01*
X120972461Y-97261141D01*
X120972464Y-97261153D01*
X121032802Y-97406824D01*
X121032809Y-97406837D01*
X121120410Y-97537940D01*
X121120413Y-97537944D01*
X121231907Y-97649438D01*
X121231911Y-97649441D01*
X121363014Y-97737042D01*
X121363027Y-97737049D01*
X121497247Y-97792644D01*
X121508703Y-97797389D01*
X121663353Y-97828151D01*
X121663356Y-97828152D01*
X121663358Y-97828152D01*
X121821044Y-97828152D01*
X121821045Y-97828151D01*
X121975697Y-97797389D01*
X122109796Y-97741844D01*
X122121372Y-97737049D01*
X122121372Y-97737048D01*
X122121379Y-97737046D01*
X122252489Y-97649441D01*
X122363989Y-97537941D01*
X122451594Y-97406831D01*
X122511937Y-97261149D01*
X122542700Y-97106494D01*
X122542700Y-96948810D01*
X122542700Y-96948807D01*
X122525532Y-96862500D01*
X122519162Y-96830477D01*
X122525389Y-96760888D01*
X122568251Y-96705710D01*
X122616585Y-96684670D01*
X122661497Y-96675737D01*
X122807179Y-96615394D01*
X122938289Y-96527789D01*
X123049789Y-96416289D01*
X123090541Y-96355300D01*
X123100648Y-96340174D01*
X123154260Y-96295369D01*
X123223585Y-96286662D01*
X123286613Y-96316817D01*
X123306852Y-96340174D01*
X123357710Y-96416288D01*
X123357713Y-96416292D01*
X123469207Y-96527786D01*
X123469211Y-96527789D01*
X123600314Y-96615390D01*
X123600327Y-96615397D01*
X123745998Y-96675735D01*
X123746003Y-96675737D01*
X123900658Y-96706500D01*
X123900663Y-96706500D01*
X123906718Y-96707097D01*
X123906459Y-96709718D01*
X123962538Y-96726185D01*
X124008293Y-96778989D01*
X124018237Y-96848147D01*
X124017116Y-96854692D01*
X123998395Y-96948807D01*
X123998395Y-97106498D01*
X124029156Y-97261141D01*
X124029159Y-97261153D01*
X124089497Y-97406824D01*
X124089504Y-97406837D01*
X124177105Y-97537940D01*
X124177108Y-97537944D01*
X124288602Y-97649438D01*
X124288606Y-97649441D01*
X124419709Y-97737042D01*
X124419722Y-97737049D01*
X124553942Y-97792644D01*
X124565398Y-97797389D01*
X124720048Y-97828151D01*
X124720051Y-97828152D01*
X124720053Y-97828152D01*
X124877739Y-97828152D01*
X124877740Y-97828151D01*
X125032392Y-97797389D01*
X125166491Y-97741844D01*
X125178067Y-97737049D01*
X125178067Y-97737048D01*
X125178074Y-97737046D01*
X125309184Y-97649441D01*
X125420684Y-97537941D01*
X125508289Y-97406831D01*
X125525939Y-97364219D01*
X125569779Y-97309817D01*
X125636073Y-97287751D01*
X125703772Y-97305029D01*
X125751383Y-97356166D01*
X125764500Y-97411672D01*
X125764500Y-98328102D01*
X125744815Y-98395141D01*
X125728181Y-98415783D01*
X124989965Y-99153998D01*
X124928642Y-99187483D01*
X124858950Y-99182499D01*
X124803017Y-99140627D01*
X124780667Y-99090508D01*
X124761194Y-98992616D01*
X124749237Y-98932503D01*
X124739959Y-98910104D01*
X124688897Y-98786827D01*
X124688890Y-98786814D01*
X124601289Y-98655711D01*
X124601286Y-98655707D01*
X124489792Y-98544213D01*
X124489788Y-98544210D01*
X124358685Y-98456609D01*
X124358672Y-98456602D01*
X124213001Y-98396264D01*
X124212989Y-98396261D01*
X124058345Y-98365500D01*
X124058342Y-98365500D01*
X123900658Y-98365500D01*
X123900655Y-98365500D01*
X123746010Y-98396261D01*
X123745998Y-98396264D01*
X123600327Y-98456602D01*
X123600314Y-98456609D01*
X123469211Y-98544210D01*
X123469207Y-98544213D01*
X123357713Y-98655707D01*
X123357710Y-98655711D01*
X123306852Y-98731826D01*
X123253240Y-98776631D01*
X123183915Y-98785338D01*
X123120887Y-98755183D01*
X123100648Y-98731826D01*
X123049789Y-98655711D01*
X123049786Y-98655707D01*
X122938292Y-98544213D01*
X122938288Y-98544210D01*
X122807185Y-98456609D01*
X122807172Y-98456602D01*
X122661501Y-98396264D01*
X122661489Y-98396261D01*
X122506845Y-98365500D01*
X122506842Y-98365500D01*
X122349158Y-98365500D01*
X122349155Y-98365500D01*
X122194510Y-98396261D01*
X122194498Y-98396264D01*
X122048827Y-98456602D01*
X122048814Y-98456609D01*
X121917711Y-98544210D01*
X121917707Y-98544213D01*
X121806213Y-98655707D01*
X121806210Y-98655711D01*
X121718609Y-98786814D01*
X121718602Y-98786827D01*
X121658264Y-98932498D01*
X121658261Y-98932510D01*
X121627500Y-99087153D01*
X121627500Y-99244846D01*
X121658261Y-99399489D01*
X121658264Y-99399501D01*
X121718602Y-99545172D01*
X121718609Y-99545185D01*
X121806210Y-99676288D01*
X121806213Y-99676292D01*
X121917707Y-99787786D01*
X121917711Y-99787789D01*
X122048814Y-99875390D01*
X122048827Y-99875397D01*
X122194498Y-99935735D01*
X122194503Y-99935737D01*
X122349153Y-99966499D01*
X122349156Y-99966500D01*
X122349158Y-99966500D01*
X122506844Y-99966500D01*
X122506845Y-99966499D01*
X122661497Y-99935737D01*
X122807179Y-99875394D01*
X122938289Y-99787789D01*
X123049789Y-99676289D01*
X123078255Y-99633686D01*
X123100648Y-99600174D01*
X123154260Y-99555369D01*
X123223585Y-99546662D01*
X123286613Y-99576817D01*
X123306852Y-99600174D01*
X123357710Y-99676288D01*
X123357713Y-99676292D01*
X123469207Y-99787786D01*
X123469211Y-99787789D01*
X123600314Y-99875390D01*
X123600327Y-99875397D01*
X123745998Y-99935735D01*
X123746003Y-99935737D01*
X123806116Y-99947694D01*
X123904008Y-99967167D01*
X123965919Y-99999552D01*
X124000494Y-100060268D01*
X123996754Y-100130037D01*
X123967498Y-100176465D01*
X122694286Y-101449678D01*
X122582481Y-101561482D01*
X122582480Y-101561484D01*
X122546900Y-101623111D01*
X122503423Y-101698415D01*
X122462499Y-101851143D01*
X122462499Y-101851145D01*
X122462499Y-102019246D01*
X122462500Y-102019259D01*
X122462500Y-109123102D01*
X122442815Y-109190141D01*
X122426181Y-109210783D01*
X121718881Y-109918082D01*
X121718879Y-109918084D01*
X121706840Y-109938938D01*
X121689080Y-109969700D01*
X121658749Y-110022234D01*
X121644470Y-110046967D01*
X121639823Y-110055015D01*
X121598899Y-110207743D01*
X121598899Y-110207745D01*
X121598899Y-110375846D01*
X121598900Y-110375859D01*
X121598900Y-115663075D01*
X121579215Y-115730114D01*
X121578002Y-115731966D01*
X121566209Y-115749614D01*
X121566202Y-115749627D01*
X121505864Y-115895298D01*
X121505861Y-115895310D01*
X121475100Y-116049953D01*
X121475100Y-116207646D01*
X121505861Y-116362289D01*
X121505864Y-116362301D01*
X121566202Y-116507972D01*
X121566209Y-116507985D01*
X121653810Y-116639088D01*
X121653813Y-116639092D01*
X121765307Y-116750586D01*
X121765311Y-116750589D01*
X121896414Y-116838190D01*
X121896427Y-116838197D01*
X122030428Y-116893701D01*
X122042103Y-116898537D01*
X122196753Y-116929299D01*
X122196756Y-116929300D01*
X122196758Y-116929300D01*
X122354444Y-116929300D01*
X122354445Y-116929299D01*
X122509097Y-116898537D01*
X122638587Y-116844901D01*
X122654772Y-116838197D01*
X122654772Y-116838196D01*
X122654779Y-116838194D01*
X122785889Y-116750589D01*
X122897389Y-116639089D01*
X122984994Y-116507979D01*
X123045337Y-116362297D01*
X123076100Y-116207642D01*
X123076100Y-116049958D01*
X123076100Y-116049955D01*
X123076099Y-116049953D01*
X123062318Y-115980671D01*
X123045337Y-115895303D01*
X123038893Y-115879746D01*
X122984997Y-115749627D01*
X122984990Y-115749614D01*
X122897389Y-115618511D01*
X122897386Y-115618507D01*
X122836219Y-115557340D01*
X122821515Y-115530412D01*
X122804923Y-115504594D01*
X122804031Y-115498393D01*
X122802734Y-115496017D01*
X122799900Y-115469659D01*
X122799900Y-115400632D01*
X122819585Y-115333593D01*
X122872389Y-115287838D01*
X122941547Y-115277894D01*
X123005103Y-115306919D01*
X123020847Y-115323320D01*
X123041977Y-115349817D01*
X123041983Y-115349823D01*
X123041984Y-115349824D01*
X123240575Y-115548415D01*
X123460152Y-115723522D01*
X123662419Y-115850615D01*
X123697957Y-115872945D01*
X123717871Y-115882535D01*
X123950992Y-115994800D01*
X124150080Y-116064464D01*
X124216070Y-116087555D01*
X124216082Y-116087559D01*
X124489891Y-116150054D01*
X124489897Y-116150054D01*
X124489905Y-116150056D01*
X124675947Y-116171017D01*
X124768969Y-116181498D01*
X124768972Y-116181499D01*
X124768975Y-116181499D01*
X125049828Y-116181499D01*
X125049829Y-116181498D01*
X125192455Y-116165428D01*
X125328894Y-116150056D01*
X125328899Y-116150055D01*
X125328909Y-116150054D01*
X125602718Y-116087559D01*
X125867808Y-115994800D01*
X126120845Y-115872944D01*
X126358648Y-115723522D01*
X126578225Y-115548415D01*
X126776816Y-115349824D01*
X126951923Y-115130247D01*
X127012429Y-115033953D01*
X129247500Y-115033953D01*
X129247500Y-115191646D01*
X129278261Y-115346289D01*
X129278264Y-115346301D01*
X129338602Y-115491972D01*
X129338609Y-115491985D01*
X129426210Y-115623088D01*
X129426213Y-115623092D01*
X129537707Y-115734586D01*
X129537711Y-115734589D01*
X129668814Y-115822190D01*
X129668827Y-115822197D01*
X129807755Y-115879742D01*
X129814503Y-115882537D01*
X129969153Y-115913299D01*
X129969156Y-115913300D01*
X129969158Y-115913300D01*
X130126844Y-115913300D01*
X130126845Y-115913299D01*
X130281497Y-115882537D01*
X130414198Y-115827571D01*
X130427172Y-115822197D01*
X130427172Y-115822196D01*
X130427179Y-115822194D01*
X130558289Y-115734589D01*
X130669789Y-115623089D01*
X130757394Y-115491979D01*
X130766532Y-115469919D01*
X130786493Y-115421727D01*
X130817737Y-115346297D01*
X130828815Y-115290607D01*
X130839448Y-115237153D01*
X134937100Y-115237153D01*
X134937100Y-115394846D01*
X134967861Y-115549489D01*
X134967864Y-115549501D01*
X135028202Y-115695172D01*
X135028209Y-115695185D01*
X135115810Y-115826288D01*
X135115813Y-115826292D01*
X135227307Y-115937786D01*
X135227311Y-115937789D01*
X135358414Y-116025390D01*
X135358427Y-116025397D01*
X135482481Y-116076781D01*
X135504103Y-116085737D01*
X135658753Y-116116499D01*
X135658756Y-116116500D01*
X135658758Y-116116500D01*
X135816444Y-116116500D01*
X135816445Y-116116499D01*
X135971097Y-116085737D01*
X136116779Y-116025394D01*
X136247889Y-115937789D01*
X136359389Y-115826289D01*
X136446994Y-115695179D01*
X136507337Y-115549497D01*
X136538100Y-115394842D01*
X136538100Y-115237158D01*
X136538100Y-115237155D01*
X136538099Y-115237153D01*
X136525910Y-115175877D01*
X136507337Y-115082503D01*
X136486072Y-115031164D01*
X136446997Y-114936827D01*
X136446990Y-114936814D01*
X136359389Y-114805711D01*
X136359386Y-114805707D01*
X136247892Y-114694213D01*
X136247888Y-114694210D01*
X136116785Y-114606609D01*
X136116772Y-114606602D01*
X135971101Y-114546264D01*
X135971089Y-114546261D01*
X135816445Y-114515500D01*
X135816442Y-114515500D01*
X135658758Y-114515500D01*
X135658755Y-114515500D01*
X135504110Y-114546261D01*
X135504098Y-114546264D01*
X135358427Y-114606602D01*
X135358414Y-114606609D01*
X135227311Y-114694210D01*
X135227307Y-114694213D01*
X135115813Y-114805707D01*
X135115810Y-114805711D01*
X135028209Y-114936814D01*
X135028202Y-114936827D01*
X134967864Y-115082498D01*
X134967861Y-115082510D01*
X134937100Y-115237153D01*
X130839448Y-115237153D01*
X130845471Y-115206874D01*
X130848500Y-115191642D01*
X130848500Y-115033955D01*
X130848499Y-115033953D01*
X130833696Y-114959533D01*
X130817737Y-114879303D01*
X130793682Y-114821228D01*
X130757397Y-114733627D01*
X130757390Y-114733614D01*
X130669789Y-114602511D01*
X130669786Y-114602507D01*
X130558292Y-114491013D01*
X130558288Y-114491010D01*
X130427185Y-114403409D01*
X130427172Y-114403402D01*
X130281501Y-114343064D01*
X130281489Y-114343061D01*
X130126845Y-114312300D01*
X130126842Y-114312300D01*
X129969158Y-114312300D01*
X129969155Y-114312300D01*
X129814510Y-114343061D01*
X129814498Y-114343064D01*
X129668827Y-114403402D01*
X129668814Y-114403409D01*
X129537711Y-114491010D01*
X129537707Y-114491013D01*
X129426213Y-114602507D01*
X129426210Y-114602511D01*
X129338609Y-114733614D01*
X129338602Y-114733627D01*
X129278264Y-114879298D01*
X129278261Y-114879310D01*
X129247500Y-115033953D01*
X127012429Y-115033953D01*
X127101345Y-114892444D01*
X127223201Y-114639407D01*
X127315960Y-114374317D01*
X127378455Y-114100508D01*
X127384803Y-114044172D01*
X127393829Y-113964054D01*
X127409900Y-113821424D01*
X127409900Y-113540574D01*
X127381197Y-113285827D01*
X127378457Y-113261504D01*
X127378454Y-113261486D01*
X127354082Y-113154707D01*
X127315960Y-112987681D01*
X127313132Y-112979600D01*
X127291593Y-112918045D01*
X127223201Y-112722591D01*
X127115472Y-112498889D01*
X127101346Y-112469556D01*
X127043207Y-112377029D01*
X126951923Y-112231751D01*
X126951921Y-112231748D01*
X126951920Y-112231746D01*
X126903860Y-112171481D01*
X126903858Y-112171479D01*
X126847057Y-112100253D01*
X134416400Y-112100253D01*
X134416400Y-112257946D01*
X134447161Y-112412589D01*
X134447164Y-112412601D01*
X134507502Y-112558272D01*
X134507509Y-112558285D01*
X134595110Y-112689388D01*
X134595113Y-112689392D01*
X134706607Y-112800886D01*
X134706611Y-112800889D01*
X134837714Y-112888490D01*
X134837727Y-112888497D01*
X134983398Y-112948835D01*
X134983403Y-112948837D01*
X135138053Y-112979599D01*
X135138056Y-112979600D01*
X135138058Y-112979600D01*
X135295744Y-112979600D01*
X135295745Y-112979599D01*
X135450397Y-112948837D01*
X135563066Y-112902167D01*
X135596072Y-112888497D01*
X135596072Y-112888496D01*
X135596079Y-112888494D01*
X135727189Y-112800889D01*
X135838689Y-112689389D01*
X135926294Y-112558279D01*
X135986637Y-112412597D01*
X136017400Y-112257942D01*
X136017400Y-112100258D01*
X136017400Y-112100255D01*
X136017399Y-112100253D01*
X135986638Y-111945610D01*
X135986637Y-111945603D01*
X135971790Y-111909758D01*
X135926297Y-111799927D01*
X135926290Y-111799914D01*
X135838689Y-111668811D01*
X135838686Y-111668807D01*
X135727192Y-111557313D01*
X135727188Y-111557310D01*
X135596085Y-111469709D01*
X135596072Y-111469702D01*
X135450401Y-111409364D01*
X135450389Y-111409361D01*
X135295745Y-111378600D01*
X135295742Y-111378600D01*
X135138058Y-111378600D01*
X135138055Y-111378600D01*
X134983410Y-111409361D01*
X134983398Y-111409364D01*
X134837727Y-111469702D01*
X134837714Y-111469709D01*
X134706611Y-111557310D01*
X134706607Y-111557313D01*
X134595113Y-111668807D01*
X134595110Y-111668811D01*
X134507509Y-111799914D01*
X134507502Y-111799927D01*
X134447164Y-111945598D01*
X134447161Y-111945610D01*
X134416400Y-112100253D01*
X126847057Y-112100253D01*
X126776816Y-112012174D01*
X126578224Y-111813582D01*
X126491827Y-111744683D01*
X126358648Y-111638476D01*
X126194404Y-111535274D01*
X126120842Y-111489052D01*
X125867811Y-111367199D01*
X125602729Y-111274442D01*
X125602717Y-111274438D01*
X125328912Y-111211944D01*
X125328894Y-111211941D01*
X125049831Y-111180499D01*
X125049825Y-111180499D01*
X124768975Y-111180499D01*
X124768968Y-111180499D01*
X124489905Y-111211941D01*
X124489887Y-111211944D01*
X124216082Y-111274438D01*
X124216070Y-111274442D01*
X123950988Y-111367199D01*
X123697957Y-111489052D01*
X123460153Y-111638475D01*
X123240575Y-111813582D01*
X123041982Y-112012175D01*
X123020846Y-112038679D01*
X122963657Y-112078819D01*
X122893846Y-112081668D01*
X122833576Y-112046321D01*
X122801984Y-111984002D01*
X122799900Y-111961365D01*
X122799900Y-110586896D01*
X122808544Y-110557455D01*
X122815068Y-110527469D01*
X122818822Y-110522453D01*
X122819585Y-110519857D01*
X122836215Y-110499219D01*
X122898881Y-110436553D01*
X129323700Y-110436553D01*
X129323700Y-110594246D01*
X129354461Y-110748889D01*
X129354464Y-110748901D01*
X129414802Y-110894572D01*
X129414809Y-110894585D01*
X129502410Y-111025688D01*
X129502413Y-111025692D01*
X129613907Y-111137186D01*
X129613911Y-111137189D01*
X129745014Y-111224790D01*
X129745027Y-111224797D01*
X129876384Y-111279206D01*
X129890703Y-111285137D01*
X129988560Y-111304602D01*
X130045353Y-111315899D01*
X130045356Y-111315900D01*
X130045358Y-111315900D01*
X130203044Y-111315900D01*
X130203045Y-111315899D01*
X130357697Y-111285137D01*
X130503379Y-111224794D01*
X130634489Y-111137189D01*
X130745989Y-111025689D01*
X130833594Y-110894579D01*
X130893937Y-110748897D01*
X130924700Y-110594242D01*
X130924700Y-110436558D01*
X130924700Y-110436555D01*
X130924699Y-110436553D01*
X130912626Y-110375859D01*
X130893937Y-110281903D01*
X130893935Y-110281898D01*
X130833597Y-110136227D01*
X130833590Y-110136214D01*
X130745989Y-110005111D01*
X130745986Y-110005107D01*
X130634492Y-109893613D01*
X130634488Y-109893610D01*
X130503385Y-109806009D01*
X130503372Y-109806002D01*
X130357701Y-109745664D01*
X130357689Y-109745661D01*
X130203045Y-109714900D01*
X130203042Y-109714900D01*
X130045358Y-109714900D01*
X130045355Y-109714900D01*
X129890710Y-109745661D01*
X129890698Y-109745664D01*
X129745027Y-109806002D01*
X129745014Y-109806009D01*
X129613911Y-109893610D01*
X129613907Y-109893613D01*
X129502413Y-110005107D01*
X129502410Y-110005111D01*
X129414809Y-110136214D01*
X129414802Y-110136227D01*
X129354464Y-110281898D01*
X129354461Y-110281910D01*
X129323700Y-110436553D01*
X122898881Y-110436553D01*
X123421506Y-109913927D01*
X123421511Y-109913924D01*
X123431714Y-109903720D01*
X123431716Y-109903720D01*
X123543520Y-109791916D01*
X123608429Y-109679489D01*
X123622577Y-109654985D01*
X123663501Y-109502257D01*
X123663501Y-109344143D01*
X123663501Y-109336548D01*
X123663500Y-109336530D01*
X123663500Y-109090353D01*
X126961500Y-109090353D01*
X126961500Y-109248046D01*
X126992261Y-109402689D01*
X126992264Y-109402701D01*
X127052602Y-109548372D01*
X127052609Y-109548385D01*
X127140210Y-109679488D01*
X127140213Y-109679492D01*
X127251707Y-109790986D01*
X127251711Y-109790989D01*
X127382814Y-109878590D01*
X127382827Y-109878597D01*
X127528498Y-109938935D01*
X127528503Y-109938937D01*
X127683153Y-109969699D01*
X127683156Y-109969700D01*
X127683158Y-109969700D01*
X127840844Y-109969700D01*
X127840845Y-109969699D01*
X127995497Y-109938937D01*
X128108166Y-109892267D01*
X128141172Y-109878597D01*
X128141172Y-109878596D01*
X128141179Y-109878594D01*
X128272289Y-109790989D01*
X128383789Y-109679489D01*
X128471394Y-109548379D01*
X128531737Y-109402697D01*
X128562500Y-109248042D01*
X128562500Y-109090358D01*
X128562500Y-109090355D01*
X128562499Y-109090353D01*
X128543178Y-108993221D01*
X128531737Y-108935703D01*
X128527798Y-108926193D01*
X128486678Y-108826918D01*
X128471395Y-108790024D01*
X128471394Y-108790021D01*
X128471392Y-108790018D01*
X128471390Y-108790014D01*
X128468409Y-108785553D01*
X130644500Y-108785553D01*
X130644500Y-108943246D01*
X130675261Y-109097889D01*
X130675264Y-109097901D01*
X130735602Y-109243572D01*
X130735609Y-109243585D01*
X130823210Y-109374688D01*
X130823213Y-109374692D01*
X130934707Y-109486186D01*
X130934711Y-109486189D01*
X131065814Y-109573790D01*
X131065827Y-109573797D01*
X131133961Y-109602018D01*
X131211503Y-109634137D01*
X131265890Y-109644955D01*
X131270667Y-109647453D01*
X131276060Y-109647428D01*
X131301298Y-109663476D01*
X131327799Y-109677339D01*
X131331680Y-109682796D01*
X131335020Y-109684920D01*
X131341519Y-109696629D01*
X131354243Y-109714519D01*
X131359795Y-109726523D01*
X131361063Y-109732897D01*
X131421406Y-109878579D01*
X131449721Y-109920956D01*
X131453788Y-109929748D01*
X131457559Y-109955112D01*
X131465223Y-109979587D01*
X131462613Y-109989100D01*
X131464064Y-109998858D01*
X131453523Y-110022234D01*
X131446739Y-110046967D01*
X131444346Y-110050690D01*
X131420605Y-110086220D01*
X131420604Y-110086222D01*
X131360264Y-110231898D01*
X131360261Y-110231910D01*
X131329500Y-110386553D01*
X131329500Y-110544246D01*
X131360261Y-110698889D01*
X131360264Y-110698901D01*
X131420602Y-110844572D01*
X131420609Y-110844585D01*
X131508210Y-110975688D01*
X131508213Y-110975692D01*
X131619707Y-111087186D01*
X131619711Y-111087189D01*
X131750814Y-111174790D01*
X131750827Y-111174797D01*
X131884033Y-111229972D01*
X131896503Y-111235137D01*
X132051153Y-111265899D01*
X132051156Y-111265900D01*
X132051158Y-111265900D01*
X132208844Y-111265900D01*
X132208845Y-111265899D01*
X132363497Y-111235137D01*
X132509179Y-111174794D01*
X132640289Y-111087189D01*
X132751789Y-110975689D01*
X132839394Y-110844579D01*
X132899737Y-110698897D01*
X132930500Y-110544242D01*
X132930500Y-110386558D01*
X132930500Y-110386555D01*
X132930499Y-110386553D01*
X132909684Y-110281910D01*
X132899737Y-110231903D01*
X132876620Y-110176093D01*
X132839396Y-110086225D01*
X132839394Y-110086222D01*
X132839394Y-110086221D01*
X132816452Y-110051887D01*
X132795576Y-109985211D01*
X132814061Y-109917831D01*
X132816455Y-109914106D01*
X132830148Y-109893613D01*
X132840194Y-109878579D01*
X132900537Y-109732897D01*
X132931300Y-109578242D01*
X132931300Y-109420558D01*
X132931300Y-109420555D01*
X132931299Y-109420553D01*
X132916255Y-109344921D01*
X132900537Y-109265903D01*
X132900535Y-109265898D01*
X132840197Y-109120227D01*
X132840190Y-109120214D01*
X132752589Y-108989111D01*
X132752586Y-108989107D01*
X132689672Y-108926193D01*
X132656187Y-108864870D01*
X132661171Y-108795178D01*
X132703043Y-108739245D01*
X132753162Y-108716895D01*
X132824241Y-108702756D01*
X132892532Y-108689172D01*
X133038214Y-108628829D01*
X133169324Y-108541224D01*
X133280824Y-108429724D01*
X133360072Y-108311119D01*
X133413681Y-108266318D01*
X133483006Y-108257609D01*
X133546034Y-108287764D01*
X133550853Y-108292332D01*
X133550907Y-108292386D01*
X133550911Y-108292389D01*
X133682014Y-108379990D01*
X133682027Y-108379997D01*
X133827698Y-108440335D01*
X133827703Y-108440337D01*
X133925560Y-108459802D01*
X133982353Y-108471099D01*
X133982356Y-108471100D01*
X133982358Y-108471100D01*
X134140044Y-108471100D01*
X134140045Y-108471099D01*
X134294697Y-108440337D01*
X134440379Y-108379994D01*
X134571489Y-108292389D01*
X134682989Y-108180889D01*
X134770594Y-108049779D01*
X134830937Y-107904097D01*
X134861700Y-107749442D01*
X134861700Y-107591758D01*
X134861700Y-107591755D01*
X134861699Y-107591753D01*
X134855503Y-107560602D01*
X134830937Y-107437103D01*
X134830935Y-107437098D01*
X134770596Y-107291425D01*
X134769535Y-107289440D01*
X134769293Y-107288279D01*
X134768263Y-107285792D01*
X134768734Y-107285596D01*
X134755289Y-107221038D01*
X134780286Y-107155793D01*
X134836589Y-107114419D01*
X134906322Y-107110053D01*
X134937338Y-107121620D01*
X134942420Y-107124336D01*
X135068352Y-107176498D01*
X135088103Y-107184679D01*
X135215606Y-107210041D01*
X135242753Y-107215441D01*
X135242756Y-107215442D01*
X135242758Y-107215442D01*
X135400444Y-107215442D01*
X135400445Y-107215441D01*
X135555097Y-107184679D01*
X135700779Y-107124336D01*
X135831889Y-107036731D01*
X135943389Y-106925231D01*
X136030994Y-106794121D01*
X136091337Y-106648439D01*
X136122100Y-106493784D01*
X136122100Y-106336100D01*
X136122100Y-106336097D01*
X136122099Y-106336095D01*
X136102191Y-106236011D01*
X136091337Y-106181445D01*
X136052658Y-106088064D01*
X136030997Y-106035769D01*
X136030991Y-106035758D01*
X136020210Y-106019624D01*
X135999330Y-105952947D01*
X136017813Y-105885566D01*
X136035630Y-105863048D01*
X136079986Y-105818692D01*
X136079989Y-105818689D01*
X136167594Y-105687579D01*
X136227937Y-105541897D01*
X136258700Y-105387242D01*
X136258700Y-105229558D01*
X136258700Y-105229555D01*
X136258699Y-105229553D01*
X136247714Y-105174330D01*
X136227937Y-105074903D01*
X136214130Y-105041569D01*
X136167597Y-104929227D01*
X136167590Y-104929214D01*
X136086686Y-104808133D01*
X136065808Y-104741455D01*
X136075227Y-104691789D01*
X136091337Y-104652897D01*
X136122100Y-104498242D01*
X136122100Y-104340558D01*
X136122100Y-104340555D01*
X136122099Y-104340553D01*
X136119153Y-104325745D01*
X136091337Y-104185903D01*
X136091335Y-104185898D01*
X136030997Y-104040227D01*
X136030990Y-104040214D01*
X135943389Y-103909111D01*
X135943386Y-103909107D01*
X135831892Y-103797613D01*
X135831888Y-103797610D01*
X135700785Y-103710009D01*
X135700772Y-103710002D01*
X135555101Y-103649664D01*
X135555089Y-103649661D01*
X135400445Y-103618900D01*
X135400442Y-103618900D01*
X135242758Y-103618900D01*
X135242755Y-103618900D01*
X135088110Y-103649661D01*
X135088098Y-103649664D01*
X134942427Y-103710002D01*
X134942414Y-103710009D01*
X134811311Y-103797610D01*
X134811306Y-103797614D01*
X134757187Y-103851733D01*
X134695864Y-103885217D01*
X134626172Y-103880232D01*
X134570239Y-103838361D01*
X134558021Y-103816906D01*
X134557864Y-103816991D01*
X134554990Y-103811614D01*
X134467389Y-103680511D01*
X134467386Y-103680507D01*
X134355892Y-103569013D01*
X134355888Y-103569010D01*
X134224785Y-103481409D01*
X134224772Y-103481402D01*
X134079101Y-103421064D01*
X134079089Y-103421061D01*
X133924445Y-103390300D01*
X133924442Y-103390300D01*
X133766758Y-103390300D01*
X133766755Y-103390300D01*
X133612110Y-103421061D01*
X133612098Y-103421064D01*
X133466427Y-103481402D01*
X133466414Y-103481409D01*
X133335311Y-103569010D01*
X133335307Y-103569013D01*
X133223813Y-103680507D01*
X133223810Y-103680511D01*
X133136209Y-103811614D01*
X133136202Y-103811627D01*
X133075864Y-103957298D01*
X133075861Y-103957310D01*
X133045100Y-104111953D01*
X133045100Y-104170984D01*
X133025415Y-104238023D01*
X132972611Y-104283778D01*
X132921100Y-104294984D01*
X132761889Y-104294984D01*
X132607244Y-104325745D01*
X132607232Y-104325748D01*
X132461561Y-104386086D01*
X132461548Y-104386093D01*
X132330445Y-104473694D01*
X132330441Y-104473697D01*
X132218947Y-104585191D01*
X132218944Y-104585195D01*
X132131343Y-104716298D01*
X132131336Y-104716311D01*
X132070998Y-104861982D01*
X132070995Y-104861994D01*
X132040234Y-105016637D01*
X132040234Y-105174330D01*
X132070995Y-105328973D01*
X132070998Y-105328985D01*
X132131336Y-105474656D01*
X132131343Y-105474669D01*
X132218944Y-105605772D01*
X132218947Y-105605776D01*
X132330441Y-105717270D01*
X132330445Y-105717273D01*
X132461548Y-105804874D01*
X132461561Y-105804881D01*
X132601991Y-105863048D01*
X132607237Y-105865221D01*
X132709518Y-105885566D01*
X132761887Y-105895983D01*
X132761890Y-105895984D01*
X132761892Y-105895984D01*
X132919578Y-105895984D01*
X132919579Y-105895983D01*
X133074231Y-105865221D01*
X133128080Y-105842915D01*
X133197548Y-105835447D01*
X133260028Y-105866722D01*
X133295680Y-105926811D01*
X133297149Y-105933285D01*
X133320861Y-106052491D01*
X133320864Y-106052501D01*
X133381202Y-106198172D01*
X133381209Y-106198185D01*
X133468810Y-106329288D01*
X133468813Y-106329292D01*
X133580307Y-106440786D01*
X133580311Y-106440789D01*
X133711414Y-106528390D01*
X133711427Y-106528397D01*
X133779205Y-106556471D01*
X133857103Y-106588737D01*
X134011753Y-106619499D01*
X134011756Y-106619500D01*
X134011758Y-106619500D01*
X134169444Y-106619500D01*
X134169445Y-106619499D01*
X134324097Y-106588737D01*
X134383964Y-106563939D01*
X134453428Y-106556471D01*
X134515908Y-106587745D01*
X134546073Y-106631287D01*
X134550673Y-106642459D01*
X134551863Y-106648439D01*
X134612206Y-106794121D01*
X134614596Y-106797698D01*
X134618569Y-106807346D01*
X134621605Y-106836155D01*
X134627509Y-106864509D01*
X134625223Y-106870474D01*
X134625893Y-106876831D01*
X134612872Y-106902707D01*
X134602509Y-106929753D01*
X134597359Y-106933536D01*
X134594487Y-106939245D01*
X134569549Y-106953970D01*
X134546205Y-106971124D01*
X134539825Y-106971523D01*
X134534324Y-106974772D01*
X134505381Y-106973677D01*
X134476471Y-106975486D01*
X134467812Y-106972257D01*
X134464504Y-106972132D01*
X134461086Y-106969748D01*
X134445465Y-106963923D01*
X134440382Y-106961206D01*
X134294701Y-106900864D01*
X134294689Y-106900861D01*
X134140045Y-106870100D01*
X134140042Y-106870100D01*
X133982358Y-106870100D01*
X133982355Y-106870100D01*
X133827710Y-106900861D01*
X133827698Y-106900864D01*
X133682027Y-106961202D01*
X133682014Y-106961209D01*
X133550911Y-107048810D01*
X133550907Y-107048813D01*
X133439413Y-107160307D01*
X133360163Y-107278912D01*
X133306550Y-107323716D01*
X133237225Y-107332423D01*
X133174198Y-107302268D01*
X133169380Y-107297701D01*
X133169327Y-107297648D01*
X133169323Y-107297645D01*
X133038220Y-107210044D01*
X133038210Y-107210039D01*
X132982473Y-107186952D01*
X132928070Y-107143111D01*
X132906005Y-107076817D01*
X132908308Y-107048206D01*
X132930500Y-106936642D01*
X132930500Y-106778958D01*
X132930500Y-106778955D01*
X132930499Y-106778953D01*
X132914914Y-106700602D01*
X132899737Y-106624303D01*
X132897747Y-106619499D01*
X132839397Y-106478627D01*
X132839390Y-106478614D01*
X132751789Y-106347511D01*
X132751786Y-106347507D01*
X132640292Y-106236013D01*
X132640288Y-106236010D01*
X132509185Y-106148409D01*
X132509172Y-106148402D01*
X132363501Y-106088064D01*
X132363489Y-106088061D01*
X132208845Y-106057300D01*
X132208842Y-106057300D01*
X132051158Y-106057300D01*
X132051155Y-106057300D01*
X131896510Y-106088061D01*
X131896498Y-106088064D01*
X131750827Y-106148402D01*
X131750814Y-106148409D01*
X131619711Y-106236010D01*
X131619707Y-106236013D01*
X131508213Y-106347507D01*
X131508210Y-106347511D01*
X131420609Y-106478614D01*
X131420602Y-106478627D01*
X131360264Y-106624298D01*
X131360261Y-106624310D01*
X131329500Y-106778953D01*
X131329500Y-106936646D01*
X131360261Y-107091289D01*
X131360264Y-107091301D01*
X131420602Y-107236972D01*
X131420609Y-107236985D01*
X131508210Y-107368088D01*
X131508213Y-107368092D01*
X131619707Y-107479586D01*
X131619711Y-107479589D01*
X131750814Y-107567190D01*
X131750823Y-107567195D01*
X131806560Y-107590282D01*
X131860963Y-107634123D01*
X131883028Y-107700417D01*
X131880725Y-107729033D01*
X131858535Y-107840593D01*
X131858535Y-107983658D01*
X131838850Y-108050697D01*
X131786046Y-108096452D01*
X131716888Y-108106396D01*
X131687084Y-108098220D01*
X131678497Y-108094663D01*
X131678493Y-108094662D01*
X131678489Y-108094661D01*
X131523845Y-108063900D01*
X131523842Y-108063900D01*
X131366158Y-108063900D01*
X131366155Y-108063900D01*
X131211510Y-108094661D01*
X131211498Y-108094664D01*
X131065827Y-108155002D01*
X131065814Y-108155009D01*
X130934711Y-108242610D01*
X130934707Y-108242613D01*
X130823213Y-108354107D01*
X130823210Y-108354111D01*
X130735609Y-108485214D01*
X130735602Y-108485227D01*
X130675264Y-108630898D01*
X130675261Y-108630910D01*
X130644500Y-108785553D01*
X128468409Y-108785553D01*
X128383789Y-108658911D01*
X128383786Y-108658907D01*
X128272292Y-108547413D01*
X128272288Y-108547410D01*
X128141185Y-108459809D01*
X128141172Y-108459802D01*
X127995501Y-108399464D01*
X127995489Y-108399461D01*
X127840845Y-108368700D01*
X127840842Y-108368700D01*
X127683158Y-108368700D01*
X127683155Y-108368700D01*
X127528510Y-108399461D01*
X127528498Y-108399464D01*
X127382827Y-108459802D01*
X127382814Y-108459809D01*
X127251711Y-108547410D01*
X127251707Y-108547413D01*
X127140213Y-108658907D01*
X127140210Y-108658911D01*
X127052609Y-108790014D01*
X127052602Y-108790027D01*
X126992264Y-108935698D01*
X126992261Y-108935710D01*
X126961500Y-109090353D01*
X123663500Y-109090353D01*
X123663500Y-102230296D01*
X123683185Y-102163257D01*
X123699814Y-102142620D01*
X124092681Y-101749753D01*
X124980300Y-101749753D01*
X124980300Y-101907446D01*
X125011061Y-102062089D01*
X125011064Y-102062101D01*
X125071402Y-102207772D01*
X125071409Y-102207785D01*
X125159010Y-102338888D01*
X125159013Y-102338892D01*
X125270507Y-102450386D01*
X125270511Y-102450389D01*
X125401614Y-102537990D01*
X125401627Y-102537997D01*
X125515179Y-102585031D01*
X125547303Y-102598337D01*
X125674997Y-102623737D01*
X125701953Y-102629099D01*
X125701956Y-102629100D01*
X125701958Y-102629100D01*
X125859644Y-102629100D01*
X125859645Y-102629099D01*
X126014297Y-102598337D01*
X126159979Y-102537994D01*
X126291089Y-102450389D01*
X126402589Y-102338889D01*
X126490194Y-102207779D01*
X126490289Y-102207551D01*
X126528319Y-102115737D01*
X126550537Y-102062097D01*
X126581300Y-101907442D01*
X126581300Y-101749758D01*
X126581300Y-101749755D01*
X126581299Y-101749753D01*
X126576411Y-101725179D01*
X126550537Y-101595103D01*
X126550535Y-101595098D01*
X126490197Y-101449427D01*
X126490190Y-101449414D01*
X126402589Y-101318311D01*
X126402586Y-101318307D01*
X126291092Y-101206813D01*
X126291088Y-101206810D01*
X126159985Y-101119209D01*
X126159972Y-101119202D01*
X126014301Y-101058864D01*
X126014289Y-101058861D01*
X125859645Y-101028100D01*
X125859642Y-101028100D01*
X125701958Y-101028100D01*
X125701955Y-101028100D01*
X125547310Y-101058861D01*
X125547298Y-101058864D01*
X125401627Y-101119202D01*
X125401614Y-101119209D01*
X125270511Y-101206810D01*
X125270507Y-101206813D01*
X125159013Y-101318307D01*
X125159010Y-101318311D01*
X125071409Y-101449414D01*
X125071402Y-101449427D01*
X125011064Y-101595098D01*
X125011061Y-101595110D01*
X124980300Y-101749753D01*
X124092681Y-101749753D01*
X125413481Y-100428953D01*
X128866500Y-100428953D01*
X128866500Y-100586646D01*
X128897261Y-100741289D01*
X128897264Y-100741301D01*
X128957602Y-100886972D01*
X128957609Y-100886985D01*
X129045210Y-101018088D01*
X129045213Y-101018092D01*
X129156707Y-101129586D01*
X129156711Y-101129589D01*
X129287814Y-101217190D01*
X129287827Y-101217197D01*
X129421758Y-101272672D01*
X129433503Y-101277537D01*
X129588153Y-101308299D01*
X129588156Y-101308300D01*
X129588158Y-101308300D01*
X129745844Y-101308300D01*
X129745845Y-101308299D01*
X129900497Y-101277537D01*
X129925566Y-101267153D01*
X134556100Y-101267153D01*
X134556100Y-101424846D01*
X134586861Y-101579489D01*
X134586864Y-101579501D01*
X134647202Y-101725172D01*
X134647209Y-101725185D01*
X134734810Y-101856288D01*
X134734813Y-101856292D01*
X134846307Y-101967786D01*
X134846311Y-101967789D01*
X134977414Y-102055390D01*
X134977427Y-102055397D01*
X135082208Y-102098798D01*
X135123103Y-102115737D01*
X135258227Y-102142615D01*
X135277753Y-102146499D01*
X135277756Y-102146500D01*
X135277758Y-102146500D01*
X135435444Y-102146500D01*
X135435445Y-102146499D01*
X135590097Y-102115737D01*
X135719587Y-102062101D01*
X135735772Y-102055397D01*
X135735772Y-102055396D01*
X135735779Y-102055394D01*
X135866889Y-101967789D01*
X135978389Y-101856289D01*
X136065994Y-101725179D01*
X136126337Y-101579497D01*
X136157100Y-101424842D01*
X136157100Y-101267158D01*
X136157100Y-101267155D01*
X136157099Y-101267153D01*
X136150149Y-101232213D01*
X136126337Y-101112503D01*
X136100986Y-101051300D01*
X136065997Y-100966827D01*
X136065990Y-100966814D01*
X135978389Y-100835711D01*
X135978386Y-100835707D01*
X135866892Y-100724213D01*
X135866888Y-100724210D01*
X135735785Y-100636609D01*
X135735772Y-100636602D01*
X135590101Y-100576264D01*
X135590089Y-100576261D01*
X135435445Y-100545500D01*
X135435442Y-100545500D01*
X135277758Y-100545500D01*
X135277755Y-100545500D01*
X135123110Y-100576261D01*
X135123098Y-100576264D01*
X134977427Y-100636602D01*
X134977414Y-100636609D01*
X134846311Y-100724210D01*
X134846307Y-100724213D01*
X134734813Y-100835707D01*
X134734810Y-100835711D01*
X134647209Y-100966814D01*
X134647202Y-100966827D01*
X134586864Y-101112498D01*
X134586861Y-101112510D01*
X134556100Y-101267153D01*
X129925566Y-101267153D01*
X130046179Y-101217194D01*
X130046185Y-101217190D01*
X130134824Y-101157964D01*
X130157450Y-101142844D01*
X130177289Y-101129589D01*
X130288789Y-101018089D01*
X130341965Y-100938506D01*
X130365495Y-100903291D01*
X130419107Y-100858485D01*
X130488432Y-100849778D01*
X130537488Y-100869079D01*
X130621314Y-100925090D01*
X130621327Y-100925097D01*
X130722074Y-100966827D01*
X130767003Y-100985437D01*
X130921653Y-101016199D01*
X130921656Y-101016200D01*
X130921658Y-101016200D01*
X131079344Y-101016200D01*
X131079345Y-101016199D01*
X131233997Y-100985437D01*
X131379679Y-100925094D01*
X131510789Y-100837489D01*
X131622289Y-100725989D01*
X131709894Y-100594879D01*
X131724060Y-100560678D01*
X131767899Y-100506276D01*
X131834193Y-100484210D01*
X131890400Y-100497231D01*
X131890857Y-100496128D01*
X132011985Y-100546300D01*
X132042168Y-100558802D01*
X132196818Y-100589564D01*
X132196821Y-100589565D01*
X132196823Y-100589565D01*
X132354509Y-100589565D01*
X132354510Y-100589564D01*
X132509162Y-100558802D01*
X132635972Y-100506276D01*
X132654837Y-100498462D01*
X132654837Y-100498461D01*
X132654844Y-100498459D01*
X132785954Y-100410854D01*
X132897454Y-100299354D01*
X132985059Y-100168244D01*
X133045402Y-100022562D01*
X133076165Y-99867907D01*
X133076165Y-99710223D01*
X133076165Y-99710220D01*
X133076164Y-99710218D01*
X133067558Y-99666953D01*
X136003900Y-99666953D01*
X136003900Y-99824646D01*
X136034661Y-99979289D01*
X136034664Y-99979301D01*
X136095002Y-100124972D01*
X136095009Y-100124985D01*
X136182610Y-100256088D01*
X136182613Y-100256092D01*
X136294107Y-100367586D01*
X136294111Y-100367589D01*
X136425214Y-100455190D01*
X136425227Y-100455197D01*
X136570898Y-100515535D01*
X136570903Y-100515537D01*
X136721536Y-100545500D01*
X136725553Y-100546299D01*
X136725556Y-100546300D01*
X136725558Y-100546300D01*
X136883244Y-100546300D01*
X136883245Y-100546299D01*
X137037897Y-100515537D01*
X137183579Y-100455194D01*
X137314689Y-100367589D01*
X137426189Y-100256089D01*
X137426194Y-100256080D01*
X137429812Y-100251673D01*
X137487553Y-100212332D01*
X137557398Y-100210454D01*
X137587964Y-100224248D01*
X137588246Y-100223721D01*
X137593627Y-100226597D01*
X137708818Y-100274310D01*
X137739303Y-100286937D01*
X137893953Y-100317699D01*
X137893956Y-100317700D01*
X137893958Y-100317700D01*
X138051644Y-100317700D01*
X138051645Y-100317699D01*
X138097631Y-100308552D01*
X138212272Y-100285749D01*
X138212696Y-100287884D01*
X138272738Y-100287332D01*
X138331862Y-100324564D01*
X138361470Y-100387850D01*
X138362900Y-100406626D01*
X138362900Y-101650256D01*
X138343215Y-101717295D01*
X138290411Y-101763050D01*
X138221253Y-101772994D01*
X138214710Y-101771874D01*
X138178642Y-101764700D01*
X138020958Y-101764700D01*
X138020955Y-101764700D01*
X137866310Y-101795461D01*
X137866298Y-101795464D01*
X137720627Y-101855802D01*
X137720614Y-101855809D01*
X137589511Y-101943410D01*
X137589507Y-101943413D01*
X137478013Y-102054907D01*
X137478010Y-102054911D01*
X137390409Y-102186014D01*
X137390402Y-102186027D01*
X137330064Y-102331698D01*
X137330061Y-102331710D01*
X137299300Y-102486353D01*
X137299300Y-102644046D01*
X137330061Y-102798689D01*
X137330064Y-102798701D01*
X137390402Y-102944372D01*
X137390409Y-102944385D01*
X137478010Y-103075488D01*
X137478013Y-103075492D01*
X137589507Y-103186986D01*
X137589511Y-103186989D01*
X137720614Y-103274590D01*
X137720627Y-103274597D01*
X137866298Y-103334935D01*
X137866303Y-103334937D01*
X138016197Y-103364753D01*
X138020953Y-103365699D01*
X138020956Y-103365700D01*
X138020958Y-103365700D01*
X138178643Y-103365700D01*
X138197725Y-103361903D01*
X138214707Y-103358526D01*
X138284299Y-103364753D01*
X138339477Y-103407615D01*
X138362722Y-103473505D01*
X138362900Y-103480143D01*
X138362900Y-110987530D01*
X138362899Y-110987548D01*
X138362899Y-111153256D01*
X138377075Y-111206162D01*
X138375412Y-111276012D01*
X138336249Y-111333874D01*
X138326198Y-111341352D01*
X138326116Y-111341406D01*
X138326105Y-111341415D01*
X138214613Y-111452907D01*
X138214610Y-111452911D01*
X138127009Y-111584014D01*
X138127002Y-111584027D01*
X138066664Y-111729698D01*
X138066661Y-111729710D01*
X138035900Y-111884353D01*
X138035900Y-112042046D01*
X138066661Y-112196689D01*
X138066664Y-112196701D01*
X138127002Y-112342372D01*
X138127009Y-112342385D01*
X138214610Y-112473488D01*
X138214613Y-112473492D01*
X138326107Y-112584986D01*
X138326111Y-112584989D01*
X138457214Y-112672590D01*
X138457227Y-112672597D01*
X138577925Y-112722591D01*
X138602903Y-112732937D01*
X138730587Y-112758335D01*
X138757553Y-112763699D01*
X138757556Y-112763700D01*
X138757558Y-112763700D01*
X138915244Y-112763700D01*
X138915245Y-112763699D01*
X139069897Y-112732937D01*
X139215579Y-112672594D01*
X139346689Y-112584989D01*
X139405503Y-112526174D01*
X139429942Y-112512829D01*
X139452625Y-112496677D01*
X139460181Y-112496316D01*
X139466822Y-112492691D01*
X139494597Y-112494677D01*
X139522416Y-112493352D01*
X139532496Y-112497387D01*
X139536514Y-112497675D01*
X139555182Y-112506470D01*
X139572300Y-112516353D01*
X139597977Y-112536055D01*
X139672308Y-112610386D01*
X139697712Y-112635790D01*
X139828814Y-112723390D01*
X139828827Y-112723397D01*
X139926129Y-112763700D01*
X139974503Y-112783737D01*
X140129153Y-112814499D01*
X140129156Y-112814500D01*
X140129158Y-112814500D01*
X140286844Y-112814500D01*
X140286845Y-112814499D01*
X140441497Y-112783737D01*
X140587179Y-112723394D01*
X140718289Y-112635789D01*
X140829789Y-112524289D01*
X140917394Y-112393179D01*
X140917397Y-112393172D01*
X140943739Y-112329577D01*
X140987579Y-112275173D01*
X141053874Y-112253108D01*
X141121573Y-112270387D01*
X141169184Y-112321524D01*
X141182300Y-112377029D01*
X141182300Y-114401659D01*
X141162615Y-114468698D01*
X141109811Y-114514453D01*
X141040653Y-114524397D01*
X140977097Y-114495372D01*
X140973335Y-114491869D01*
X140972288Y-114491010D01*
X140841185Y-114403409D01*
X140841172Y-114403402D01*
X140695501Y-114343064D01*
X140695489Y-114343061D01*
X140540845Y-114312300D01*
X140540842Y-114312300D01*
X140383158Y-114312300D01*
X140383155Y-114312300D01*
X140228510Y-114343061D01*
X140228498Y-114343064D01*
X140082827Y-114403402D01*
X140082814Y-114403409D01*
X139951711Y-114491010D01*
X139951707Y-114491013D01*
X139840213Y-114602507D01*
X139840210Y-114602511D01*
X139752609Y-114733614D01*
X139752602Y-114733627D01*
X139692264Y-114879298D01*
X139692261Y-114879308D01*
X139663864Y-115022068D01*
X139631479Y-115083979D01*
X139570763Y-115118553D01*
X139500993Y-115114812D01*
X139473357Y-115100978D01*
X139459190Y-115091512D01*
X139459172Y-115091502D01*
X139313501Y-115031164D01*
X139313489Y-115031161D01*
X139158845Y-115000400D01*
X139158842Y-115000400D01*
X139001158Y-115000400D01*
X139001155Y-115000400D01*
X138846510Y-115031161D01*
X138846498Y-115031164D01*
X138700827Y-115091502D01*
X138700814Y-115091509D01*
X138569711Y-115179110D01*
X138569707Y-115179113D01*
X138458213Y-115290607D01*
X138458210Y-115290611D01*
X138370609Y-115421714D01*
X138370602Y-115421727D01*
X138310264Y-115567398D01*
X138310261Y-115567410D01*
X138279500Y-115722053D01*
X138279500Y-115879746D01*
X138310261Y-116034389D01*
X138310264Y-116034401D01*
X138370602Y-116180072D01*
X138370609Y-116180085D01*
X138458210Y-116311188D01*
X138458213Y-116311192D01*
X138569707Y-116422686D01*
X138569711Y-116422689D01*
X138700814Y-116510290D01*
X138700827Y-116510297D01*
X138846498Y-116570635D01*
X138846503Y-116570637D01*
X138911147Y-116583495D01*
X139001849Y-116601538D01*
X139063760Y-116633923D01*
X139065339Y-116635474D01*
X139329439Y-116899574D01*
X139329449Y-116899585D01*
X139333779Y-116903915D01*
X139333780Y-116903916D01*
X139445584Y-117015720D01*
X139532395Y-117065839D01*
X139532397Y-117065841D01*
X139570451Y-117087811D01*
X139582515Y-117094777D01*
X139735243Y-117135701D01*
X139735246Y-117135701D01*
X139900953Y-117135701D01*
X139900969Y-117135700D01*
X140984931Y-117135700D01*
X140984947Y-117135701D01*
X140992543Y-117135701D01*
X141150654Y-117135701D01*
X141150657Y-117135701D01*
X141303385Y-117094777D01*
X141353504Y-117065839D01*
X141440316Y-117015720D01*
X141552120Y-116903916D01*
X141552120Y-116903914D01*
X141562328Y-116893707D01*
X141562329Y-116893704D01*
X142263320Y-116192716D01*
X142342377Y-116055784D01*
X142383301Y-115903057D01*
X142383301Y-115744942D01*
X142383301Y-115737347D01*
X142383300Y-115737329D01*
X142383300Y-115237153D01*
X145173300Y-115237153D01*
X145173300Y-115394846D01*
X145204061Y-115549489D01*
X145204064Y-115549501D01*
X145264402Y-115695172D01*
X145264409Y-115695185D01*
X145352010Y-115826288D01*
X145352013Y-115826292D01*
X145427140Y-115901419D01*
X145460625Y-115962742D01*
X145455641Y-116032434D01*
X145427140Y-116076781D01*
X145402813Y-116101107D01*
X145402810Y-116101111D01*
X145315209Y-116232214D01*
X145315202Y-116232227D01*
X145254864Y-116377898D01*
X145254861Y-116377910D01*
X145224100Y-116532553D01*
X145224100Y-116690246D01*
X145254861Y-116844889D01*
X145254864Y-116844901D01*
X145315202Y-116990572D01*
X145315209Y-116990585D01*
X145402810Y-117121688D01*
X145402813Y-117121692D01*
X145514307Y-117233186D01*
X145514311Y-117233189D01*
X145645414Y-117320790D01*
X145645427Y-117320797D01*
X145774249Y-117374156D01*
X145791103Y-117381137D01*
X145893203Y-117401446D01*
X145945753Y-117411899D01*
X145945756Y-117411900D01*
X145945758Y-117411900D01*
X146103444Y-117411900D01*
X146103445Y-117411899D01*
X146258097Y-117381137D01*
X146403779Y-117320794D01*
X146534889Y-117233189D01*
X146646389Y-117121689D01*
X146733994Y-116990579D01*
X146794337Y-116844897D01*
X146825100Y-116690242D01*
X146825100Y-116532558D01*
X146825100Y-116532555D01*
X146825099Y-116532553D01*
X146820211Y-116507979D01*
X146794337Y-116377903D01*
X146794335Y-116377898D01*
X146733997Y-116232227D01*
X146733990Y-116232214D01*
X146646389Y-116101111D01*
X146646386Y-116101107D01*
X146571259Y-116025980D01*
X146537774Y-115964657D01*
X146542758Y-115894965D01*
X146571260Y-115850617D01*
X146595589Y-115826289D01*
X146683194Y-115695179D01*
X146743537Y-115549497D01*
X146774300Y-115394842D01*
X146774300Y-115237158D01*
X146774300Y-115237155D01*
X146774299Y-115237153D01*
X146762110Y-115175877D01*
X146743537Y-115082503D01*
X146722272Y-115031164D01*
X146683197Y-114936827D01*
X146683190Y-114936814D01*
X146595589Y-114805711D01*
X146595586Y-114805707D01*
X146484092Y-114694213D01*
X146484088Y-114694210D01*
X146352985Y-114606609D01*
X146352972Y-114606602D01*
X146207301Y-114546264D01*
X146207289Y-114546261D01*
X146052645Y-114515500D01*
X146052642Y-114515500D01*
X145894958Y-114515500D01*
X145894955Y-114515500D01*
X145740310Y-114546261D01*
X145740298Y-114546264D01*
X145594627Y-114606602D01*
X145594614Y-114606609D01*
X145463511Y-114694210D01*
X145463507Y-114694213D01*
X145352013Y-114805707D01*
X145352010Y-114805711D01*
X145264409Y-114936814D01*
X145264402Y-114936827D01*
X145204064Y-115082498D01*
X145204061Y-115082510D01*
X145173300Y-115237153D01*
X142383300Y-115237153D01*
X142383300Y-113586153D01*
X142633300Y-113586153D01*
X142633300Y-113743846D01*
X142664061Y-113898489D01*
X142664064Y-113898501D01*
X142724402Y-114044172D01*
X142724409Y-114044185D01*
X142812010Y-114175288D01*
X142812013Y-114175292D01*
X142923507Y-114286786D01*
X142923511Y-114286789D01*
X143054614Y-114374390D01*
X143054627Y-114374397D01*
X143200298Y-114434735D01*
X143200303Y-114434737D01*
X143337845Y-114462096D01*
X143354953Y-114465499D01*
X143354956Y-114465500D01*
X143354958Y-114465500D01*
X143512644Y-114465500D01*
X143512645Y-114465499D01*
X143667297Y-114434737D01*
X143812979Y-114374394D01*
X143944089Y-114286789D01*
X144055589Y-114175289D01*
X144143194Y-114044179D01*
X144203537Y-113898497D01*
X144234300Y-113743842D01*
X144234300Y-113586158D01*
X144234300Y-113586155D01*
X144234299Y-113586153D01*
X144203538Y-113431510D01*
X144203537Y-113431503D01*
X144161886Y-113330948D01*
X144143197Y-113285827D01*
X144143190Y-113285814D01*
X144055589Y-113154711D01*
X144055586Y-113154707D01*
X143944092Y-113043213D01*
X143944088Y-113043210D01*
X143812985Y-112955609D01*
X143812972Y-112955602D01*
X143667301Y-112895264D01*
X143667289Y-112895261D01*
X143512645Y-112864500D01*
X143512642Y-112864500D01*
X143354958Y-112864500D01*
X143354955Y-112864500D01*
X143200310Y-112895261D01*
X143200298Y-112895264D01*
X143054627Y-112955602D01*
X143054614Y-112955609D01*
X142923511Y-113043210D01*
X142923507Y-113043213D01*
X142812013Y-113154707D01*
X142812010Y-113154711D01*
X142724409Y-113285814D01*
X142724402Y-113285827D01*
X142664064Y-113431498D01*
X142664061Y-113431510D01*
X142633300Y-113586153D01*
X142383300Y-113586153D01*
X142383300Y-111909753D01*
X150304100Y-111909753D01*
X150304100Y-112067446D01*
X150334861Y-112222089D01*
X150334864Y-112222101D01*
X150395202Y-112367772D01*
X150395209Y-112367785D01*
X150482810Y-112498888D01*
X150482813Y-112498892D01*
X150594307Y-112610386D01*
X150594311Y-112610389D01*
X150725414Y-112697990D01*
X150725427Y-112697997D01*
X150863310Y-112755109D01*
X150871103Y-112758337D01*
X150998787Y-112783735D01*
X151025753Y-112789099D01*
X151025756Y-112789100D01*
X151025758Y-112789100D01*
X151183444Y-112789100D01*
X151183445Y-112789099D01*
X151338097Y-112758337D01*
X151450766Y-112711667D01*
X151483772Y-112697997D01*
X151483772Y-112697996D01*
X151483779Y-112697994D01*
X151614889Y-112610389D01*
X151726389Y-112498889D01*
X151813994Y-112367779D01*
X151874337Y-112222097D01*
X151905100Y-112067442D01*
X151905100Y-111909758D01*
X151905100Y-111909755D01*
X151905099Y-111909753D01*
X151883252Y-111799921D01*
X151874337Y-111755103D01*
X151838594Y-111668811D01*
X151813997Y-111609427D01*
X151813990Y-111609414D01*
X151726389Y-111478311D01*
X151726386Y-111478307D01*
X151614892Y-111366813D01*
X151614888Y-111366810D01*
X151483785Y-111279209D01*
X151483772Y-111279202D01*
X151338101Y-111218864D01*
X151338089Y-111218861D01*
X151183445Y-111188100D01*
X151183442Y-111188100D01*
X151025758Y-111188100D01*
X151025755Y-111188100D01*
X150871110Y-111218861D01*
X150871098Y-111218864D01*
X150725427Y-111279202D01*
X150725414Y-111279209D01*
X150594311Y-111366810D01*
X150594307Y-111366813D01*
X150482813Y-111478307D01*
X150482810Y-111478311D01*
X150395209Y-111609414D01*
X150395202Y-111609427D01*
X150334864Y-111755098D01*
X150334861Y-111755110D01*
X150304100Y-111909753D01*
X142383300Y-111909753D01*
X142383300Y-109875696D01*
X142402985Y-109808657D01*
X142419614Y-109788020D01*
X143676081Y-108531553D01*
X147408500Y-108531553D01*
X147408500Y-108689246D01*
X147439261Y-108843889D01*
X147439264Y-108843901D01*
X147499602Y-108989572D01*
X147499609Y-108989585D01*
X147587210Y-109120688D01*
X147587212Y-109120691D01*
X147698707Y-109232186D01*
X147698711Y-109232189D01*
X147829814Y-109319790D01*
X147829827Y-109319797D01*
X147975498Y-109380135D01*
X147975503Y-109380137D01*
X148108400Y-109406572D01*
X148130153Y-109410899D01*
X148130156Y-109410900D01*
X148130158Y-109410900D01*
X148287844Y-109410900D01*
X148287845Y-109410899D01*
X148442497Y-109380137D01*
X148588179Y-109319794D01*
X148612609Y-109303470D01*
X148679284Y-109282592D01*
X148746664Y-109301075D01*
X148793356Y-109353053D01*
X148805500Y-109406572D01*
X148805500Y-109451246D01*
X148836261Y-109605889D01*
X148836264Y-109605901D01*
X148896602Y-109751572D01*
X148896609Y-109751585D01*
X148984210Y-109882688D01*
X148984213Y-109882692D01*
X149095707Y-109994186D01*
X149095711Y-109994189D01*
X149226814Y-110081790D01*
X149226827Y-110081797D01*
X149358220Y-110136221D01*
X149372503Y-110142137D01*
X149527153Y-110172899D01*
X149527156Y-110172900D01*
X149527158Y-110172900D01*
X149684844Y-110172900D01*
X149684845Y-110172899D01*
X149839497Y-110142137D01*
X149985179Y-110081794D01*
X150116289Y-109994189D01*
X150227789Y-109882689D01*
X150315394Y-109751579D01*
X150317845Y-109745663D01*
X150351397Y-109664659D01*
X150375737Y-109605897D01*
X150406500Y-109451242D01*
X150406500Y-109293558D01*
X150406500Y-109293557D01*
X150406500Y-109293555D01*
X150406499Y-109293553D01*
X150390035Y-109210783D01*
X150375737Y-109138903D01*
X150369192Y-109123102D01*
X150315397Y-108993227D01*
X150315390Y-108993214D01*
X150227789Y-108862111D01*
X150227786Y-108862107D01*
X150116292Y-108750613D01*
X150116288Y-108750610D01*
X149985185Y-108663009D01*
X149985172Y-108663002D01*
X149839501Y-108602664D01*
X149839489Y-108602661D01*
X149684845Y-108571900D01*
X149684842Y-108571900D01*
X149527158Y-108571900D01*
X149527155Y-108571900D01*
X149372510Y-108602661D01*
X149372498Y-108602664D01*
X149226827Y-108663002D01*
X149226814Y-108663009D01*
X149202391Y-108679329D01*
X149135713Y-108700207D01*
X149068333Y-108681723D01*
X149021643Y-108629744D01*
X149009500Y-108576227D01*
X149009500Y-108531555D01*
X149009499Y-108531553D01*
X149000283Y-108485221D01*
X148978737Y-108376903D01*
X148969295Y-108354107D01*
X148918932Y-108232518D01*
X148918396Y-108231226D01*
X148918390Y-108231214D01*
X148891622Y-108191153D01*
X153519500Y-108191153D01*
X153519500Y-108348846D01*
X153550261Y-108503489D01*
X153550264Y-108503501D01*
X153610602Y-108649172D01*
X153610609Y-108649185D01*
X153698210Y-108780288D01*
X153698213Y-108780292D01*
X153809707Y-108891786D01*
X153809711Y-108891789D01*
X153940814Y-108979390D01*
X153940827Y-108979397D01*
X154086498Y-109039735D01*
X154086503Y-109039737D01*
X154235774Y-109069429D01*
X154241153Y-109070499D01*
X154241156Y-109070500D01*
X154241158Y-109070500D01*
X154398844Y-109070500D01*
X154398845Y-109070499D01*
X154553497Y-109039737D01*
X154699179Y-108979394D01*
X154830289Y-108891789D01*
X154941789Y-108780289D01*
X155029394Y-108649179D01*
X155089737Y-108503497D01*
X155120500Y-108348842D01*
X155120500Y-108191158D01*
X155120500Y-108191155D01*
X155120499Y-108191153D01*
X155106224Y-108119390D01*
X155089737Y-108036503D01*
X155087783Y-108031786D01*
X155029397Y-107890827D01*
X155029390Y-107890814D01*
X154941789Y-107759711D01*
X154941786Y-107759707D01*
X154830292Y-107648213D01*
X154830288Y-107648210D01*
X154699185Y-107560609D01*
X154699172Y-107560602D01*
X154553501Y-107500264D01*
X154553489Y-107500261D01*
X154398845Y-107469500D01*
X154398842Y-107469500D01*
X154241158Y-107469500D01*
X154241155Y-107469500D01*
X154086510Y-107500261D01*
X154086498Y-107500264D01*
X153940827Y-107560602D01*
X153940814Y-107560609D01*
X153809711Y-107648210D01*
X153809707Y-107648213D01*
X153698213Y-107759707D01*
X153698210Y-107759711D01*
X153610609Y-107890814D01*
X153610602Y-107890827D01*
X153550264Y-108036498D01*
X153550261Y-108036510D01*
X153519500Y-108191153D01*
X148891622Y-108191153D01*
X148830789Y-108100111D01*
X148830786Y-108100107D01*
X148719292Y-107988613D01*
X148719288Y-107988610D01*
X148588185Y-107901009D01*
X148588172Y-107901002D01*
X148442501Y-107840664D01*
X148442489Y-107840661D01*
X148287845Y-107809900D01*
X148287842Y-107809900D01*
X148130158Y-107809900D01*
X148130155Y-107809900D01*
X147975510Y-107840661D01*
X147975498Y-107840664D01*
X147829827Y-107901002D01*
X147829814Y-107901009D01*
X147698711Y-107988610D01*
X147698707Y-107988613D01*
X147587213Y-108100107D01*
X147587210Y-108100111D01*
X147499609Y-108231214D01*
X147499602Y-108231227D01*
X147439264Y-108376898D01*
X147439261Y-108376910D01*
X147408500Y-108531553D01*
X143676081Y-108531553D01*
X144936220Y-107271414D01*
X144997542Y-107237930D01*
X145067234Y-107242914D01*
X145123167Y-107284786D01*
X145147584Y-107350250D01*
X145147900Y-107359096D01*
X145147900Y-107488846D01*
X145178661Y-107643489D01*
X145178664Y-107643501D01*
X145239002Y-107789172D01*
X145239009Y-107789185D01*
X145326610Y-107920288D01*
X145326613Y-107920292D01*
X145438107Y-108031786D01*
X145438111Y-108031789D01*
X145569214Y-108119390D01*
X145569227Y-108119397D01*
X145714898Y-108179735D01*
X145714903Y-108179737D01*
X145869553Y-108210499D01*
X145869556Y-108210500D01*
X145869558Y-108210500D01*
X146027244Y-108210500D01*
X146027245Y-108210499D01*
X146181897Y-108179737D01*
X146327579Y-108119394D01*
X146458689Y-108031789D01*
X146570189Y-107920289D01*
X146657794Y-107789179D01*
X146718137Y-107643497D01*
X146748900Y-107488842D01*
X146748900Y-107331158D01*
X146748900Y-107331155D01*
X146748899Y-107331153D01*
X146742234Y-107297645D01*
X146718137Y-107176503D01*
X146711430Y-107160311D01*
X146657797Y-107030827D01*
X146657790Y-107030814D01*
X146570189Y-106899711D01*
X146570186Y-106899707D01*
X146458692Y-106788213D01*
X146458688Y-106788210D01*
X146327585Y-106700609D01*
X146327572Y-106700602D01*
X146181901Y-106640264D01*
X146181889Y-106640261D01*
X146027245Y-106609500D01*
X146027242Y-106609500D01*
X145897496Y-106609500D01*
X145830457Y-106589815D01*
X145784702Y-106537011D01*
X145774758Y-106467853D01*
X145803783Y-106404297D01*
X145809815Y-106397819D01*
X146732978Y-105474656D01*
X147805506Y-104402127D01*
X147805511Y-104402124D01*
X147815714Y-104391920D01*
X147815716Y-104391920D01*
X147927520Y-104280116D01*
X147941451Y-104255987D01*
X147953759Y-104234669D01*
X147981916Y-104185898D01*
X148006577Y-104143184D01*
X148047500Y-103990457D01*
X148047500Y-101051300D01*
X148067185Y-100984261D01*
X148119989Y-100938506D01*
X148171500Y-100927300D01*
X148262444Y-100927300D01*
X148262445Y-100927299D01*
X148417097Y-100896537D01*
X148562779Y-100836194D01*
X148693889Y-100748589D01*
X148805389Y-100637089D01*
X148892994Y-100505979D01*
X148953337Y-100360297D01*
X148984100Y-100205642D01*
X148984100Y-100047958D01*
X148984100Y-100047955D01*
X148984099Y-100047953D01*
X148974065Y-99997511D01*
X148953337Y-99893303D01*
X148945226Y-99873721D01*
X148892997Y-99747627D01*
X148892990Y-99747614D01*
X148805389Y-99616511D01*
X148805386Y-99616507D01*
X148693892Y-99505013D01*
X148693888Y-99505010D01*
X148562785Y-99417409D01*
X148562772Y-99417402D01*
X148417101Y-99357064D01*
X148417089Y-99357061D01*
X148262445Y-99326300D01*
X148262442Y-99326300D01*
X148171500Y-99326300D01*
X148104461Y-99306615D01*
X148058706Y-99253811D01*
X148047500Y-99202300D01*
X148047500Y-98242765D01*
X148067185Y-98175726D01*
X148068398Y-98173874D01*
X148156390Y-98042185D01*
X148156390Y-98042184D01*
X148156394Y-98042179D01*
X148216737Y-97896497D01*
X148247500Y-97741842D01*
X148247500Y-97584158D01*
X148247500Y-97584155D01*
X148247499Y-97584153D01*
X148240549Y-97549213D01*
X148216737Y-97429503D01*
X148205039Y-97401261D01*
X148156397Y-97283827D01*
X148156390Y-97283814D01*
X148068789Y-97152711D01*
X148068786Y-97152707D01*
X147957292Y-97041213D01*
X147957288Y-97041210D01*
X147826185Y-96953609D01*
X147826172Y-96953602D01*
X147680501Y-96893264D01*
X147680489Y-96893261D01*
X147525845Y-96862500D01*
X147525842Y-96862500D01*
X147368158Y-96862500D01*
X147368155Y-96862500D01*
X147213510Y-96893261D01*
X147213498Y-96893264D01*
X147067827Y-96953602D01*
X147067814Y-96953609D01*
X146936711Y-97041210D01*
X146936707Y-97041213D01*
X146825213Y-97152707D01*
X146825210Y-97152711D01*
X146737609Y-97283814D01*
X146737602Y-97283827D01*
X146677264Y-97429498D01*
X146677261Y-97429510D01*
X146646500Y-97584153D01*
X146646500Y-97741846D01*
X146677261Y-97896489D01*
X146677264Y-97896501D01*
X146737602Y-98042172D01*
X146737609Y-98042185D01*
X146825602Y-98173874D01*
X146846480Y-98240551D01*
X146846500Y-98242765D01*
X146846500Y-99202300D01*
X146826815Y-99269339D01*
X146774011Y-99315094D01*
X146722500Y-99326300D01*
X146580755Y-99326300D01*
X146426110Y-99357061D01*
X146426098Y-99357064D01*
X146280427Y-99417402D01*
X146280414Y-99417409D01*
X146149311Y-99505010D01*
X146149307Y-99505013D01*
X146037813Y-99616507D01*
X146037810Y-99616511D01*
X145950209Y-99747614D01*
X145950202Y-99747627D01*
X145889864Y-99893298D01*
X145889861Y-99893310D01*
X145859100Y-100047953D01*
X145859100Y-100205646D01*
X145889861Y-100360289D01*
X145889864Y-100360301D01*
X145950202Y-100505972D01*
X145950209Y-100505985D01*
X146037810Y-100637088D01*
X146037813Y-100637092D01*
X146149307Y-100748586D01*
X146149311Y-100748589D01*
X146280414Y-100836190D01*
X146280427Y-100836197D01*
X146403042Y-100886985D01*
X146426103Y-100896537D01*
X146569648Y-100925090D01*
X146580753Y-100927299D01*
X146580756Y-100927300D01*
X146722500Y-100927300D01*
X146789539Y-100946985D01*
X146835294Y-100999789D01*
X146846500Y-101051300D01*
X146846500Y-101924705D01*
X146826815Y-101991744D01*
X146774011Y-102037499D01*
X146704853Y-102047443D01*
X146641297Y-102018418D01*
X146603523Y-101959640D01*
X146600883Y-101948897D01*
X146591138Y-101899908D01*
X146591137Y-101899907D01*
X146591137Y-101899903D01*
X146570940Y-101851143D01*
X146530797Y-101754227D01*
X146530790Y-101754214D01*
X146443189Y-101623110D01*
X146331692Y-101511613D01*
X146331688Y-101511610D01*
X146200585Y-101424009D01*
X146200572Y-101424002D01*
X146054901Y-101363664D01*
X146054889Y-101363661D01*
X145900245Y-101332900D01*
X145900242Y-101332900D01*
X145742558Y-101332900D01*
X145742556Y-101332900D01*
X145726159Y-101336161D01*
X145656567Y-101329931D01*
X145601391Y-101287067D01*
X145578149Y-101221176D01*
X145577971Y-101214543D01*
X145577971Y-92279225D01*
X145597656Y-92212186D01*
X145614286Y-92191548D01*
X146441086Y-91364747D01*
X146502407Y-91331264D01*
X146552957Y-91330813D01*
X146656955Y-91351500D01*
X146656958Y-91351500D01*
X146814644Y-91351500D01*
X146814645Y-91351499D01*
X146969297Y-91320737D01*
X147114979Y-91260394D01*
X147246089Y-91172789D01*
X147357589Y-91061289D01*
X147445194Y-90930179D01*
X147505537Y-90784497D01*
X147536300Y-90629842D01*
X147536300Y-90472158D01*
X147536300Y-90472155D01*
X147536299Y-90472153D01*
X147523134Y-90405967D01*
X147505537Y-90317503D01*
X147487725Y-90274501D01*
X147445197Y-90171827D01*
X147445190Y-90171814D01*
X147357589Y-90040711D01*
X147357586Y-90040707D01*
X147246092Y-89929213D01*
X147246088Y-89929210D01*
X147114985Y-89841609D01*
X147114972Y-89841602D01*
X146969301Y-89781264D01*
X146969289Y-89781261D01*
X146814645Y-89750500D01*
X146814642Y-89750500D01*
X146656958Y-89750500D01*
X146656955Y-89750500D01*
X146502310Y-89781261D01*
X146502298Y-89781264D01*
X146356627Y-89841602D01*
X146356614Y-89841609D01*
X146225514Y-89929208D01*
X146160473Y-89994248D01*
X146134793Y-90013952D01*
X146036887Y-90070478D01*
X146036881Y-90070482D01*
X144496952Y-91610411D01*
X144496950Y-91610414D01*
X144479077Y-91641372D01*
X144458583Y-91676869D01*
X144417894Y-91747344D01*
X144376970Y-91900072D01*
X144376970Y-91900074D01*
X144376970Y-92068175D01*
X144376971Y-92068188D01*
X144376971Y-92167513D01*
X144357286Y-92234552D01*
X144304482Y-92280307D01*
X144275116Y-92288229D01*
X144275332Y-92289311D01*
X144114710Y-92321261D01*
X144114698Y-92321264D01*
X143969027Y-92381602D01*
X143969014Y-92381609D01*
X143837911Y-92469210D01*
X143837907Y-92469213D01*
X143726413Y-92580707D01*
X143726410Y-92580711D01*
X143638809Y-92711814D01*
X143638802Y-92711827D01*
X143578464Y-92857498D01*
X143578461Y-92857510D01*
X143547700Y-93012153D01*
X143547700Y-93169846D01*
X143578461Y-93324489D01*
X143578464Y-93324501D01*
X143638802Y-93470172D01*
X143638809Y-93470185D01*
X143726410Y-93601288D01*
X143726413Y-93601292D01*
X143837907Y-93712786D01*
X143837911Y-93712789D01*
X143969014Y-93800390D01*
X143969027Y-93800397D01*
X144114698Y-93860735D01*
X144114703Y-93860737D01*
X144191973Y-93876107D01*
X144270608Y-93891749D01*
X144270618Y-93891748D01*
X144270630Y-93891753D01*
X144275332Y-93892689D01*
X144275111Y-93893799D01*
X144299980Y-93905157D01*
X144329900Y-93917234D01*
X144331559Y-93919579D01*
X144334174Y-93920773D01*
X144351621Y-93947922D01*
X144370266Y-93974263D01*
X144370867Y-93977869D01*
X144371948Y-93979551D01*
X144376971Y-94014486D01*
X144376971Y-94039221D01*
X144357286Y-94106260D01*
X144304482Y-94152015D01*
X144235324Y-94161959D01*
X144228781Y-94160839D01*
X144147642Y-94144700D01*
X143989958Y-94144700D01*
X143989955Y-94144700D01*
X143835310Y-94175461D01*
X143835298Y-94175464D01*
X143689627Y-94235802D01*
X143689614Y-94235809D01*
X143558511Y-94323410D01*
X143558507Y-94323413D01*
X143447013Y-94434907D01*
X143443147Y-94439619D01*
X143441404Y-94438188D01*
X143395506Y-94476523D01*
X143326178Y-94485208D01*
X143263160Y-94455033D01*
X143258371Y-94450492D01*
X143156692Y-94348813D01*
X143156688Y-94348810D01*
X143025585Y-94261209D01*
X143025572Y-94261202D01*
X142879901Y-94200864D01*
X142879889Y-94200861D01*
X142725245Y-94170100D01*
X142725242Y-94170100D01*
X142567558Y-94170100D01*
X142567555Y-94170100D01*
X142412910Y-94200861D01*
X142412898Y-94200864D01*
X142290140Y-94251712D01*
X142220671Y-94259181D01*
X142158192Y-94227905D01*
X142122540Y-94167816D01*
X142125034Y-94097991D01*
X142128127Y-94089698D01*
X142130534Y-94083888D01*
X142171537Y-93984897D01*
X142202300Y-93830242D01*
X142202300Y-93672558D01*
X142202300Y-93672555D01*
X142202299Y-93672553D01*
X142188124Y-93601292D01*
X142171537Y-93517903D01*
X142156293Y-93481100D01*
X142111197Y-93372227D01*
X142111190Y-93372214D01*
X142023589Y-93241111D01*
X142023586Y-93241107D01*
X141912092Y-93129613D01*
X141912088Y-93129610D01*
X141780985Y-93042009D01*
X141780972Y-93042002D01*
X141635301Y-92981664D01*
X141635289Y-92981661D01*
X141480645Y-92950900D01*
X141480642Y-92950900D01*
X141322958Y-92950900D01*
X141322955Y-92950900D01*
X141168310Y-92981661D01*
X141168298Y-92981664D01*
X141022627Y-93042002D01*
X141022614Y-93042009D01*
X140891511Y-93129610D01*
X140891507Y-93129613D01*
X140780013Y-93241107D01*
X140780010Y-93241111D01*
X140692409Y-93372214D01*
X140692402Y-93372227D01*
X140632064Y-93517898D01*
X140632061Y-93517910D01*
X140601300Y-93672553D01*
X140601300Y-93830246D01*
X140632061Y-93984889D01*
X140632064Y-93984901D01*
X140692402Y-94130572D01*
X140692409Y-94130585D01*
X140780010Y-94261688D01*
X140780013Y-94261692D01*
X140891507Y-94373186D01*
X140891511Y-94373189D01*
X141022614Y-94460790D01*
X141022627Y-94460797D01*
X141168298Y-94521135D01*
X141168303Y-94521137D01*
X141270403Y-94541446D01*
X141322953Y-94551899D01*
X141322956Y-94551900D01*
X141322958Y-94551900D01*
X141480644Y-94551900D01*
X141480645Y-94551899D01*
X141635297Y-94521137D01*
X141758061Y-94470286D01*
X141827527Y-94462818D01*
X141890007Y-94494093D01*
X141925659Y-94554182D01*
X141923166Y-94624007D01*
X141920073Y-94632299D01*
X141876663Y-94737103D01*
X141876661Y-94737110D01*
X141845900Y-94891753D01*
X141845900Y-95049446D01*
X141876661Y-95204089D01*
X141876664Y-95204101D01*
X141937002Y-95349772D01*
X141937009Y-95349785D01*
X142024610Y-95480888D01*
X142024613Y-95480892D01*
X142136107Y-95592386D01*
X142136111Y-95592389D01*
X142267214Y-95679990D01*
X142267227Y-95679997D01*
X142412089Y-95740000D01*
X142412903Y-95740337D01*
X142567553Y-95771099D01*
X142567556Y-95771100D01*
X142567558Y-95771100D01*
X142725244Y-95771100D01*
X142725245Y-95771099D01*
X142879897Y-95740337D01*
X143025579Y-95679994D01*
X143156689Y-95592389D01*
X143268189Y-95480889D01*
X143268191Y-95480885D01*
X143272053Y-95476181D01*
X143273806Y-95477620D01*
X143319623Y-95439307D01*
X143388945Y-95430579D01*
X143451982Y-95460714D01*
X143456828Y-95465307D01*
X143558507Y-95566986D01*
X143558511Y-95566989D01*
X143689614Y-95654590D01*
X143689627Y-95654597D01*
X143775099Y-95690000D01*
X143835303Y-95714937D01*
X143962987Y-95740335D01*
X143989953Y-95745699D01*
X143989956Y-95745700D01*
X143989958Y-95745700D01*
X144147644Y-95745700D01*
X144228779Y-95729561D01*
X144298371Y-95735788D01*
X144353548Y-95778651D01*
X144376793Y-95844541D01*
X144376971Y-95851178D01*
X144376971Y-100955592D01*
X144357286Y-101022631D01*
X144304482Y-101068386D01*
X144277163Y-101077209D01*
X144241708Y-101084261D01*
X144241698Y-101084264D01*
X144096027Y-101144602D01*
X144096014Y-101144609D01*
X143964911Y-101232210D01*
X143964907Y-101232213D01*
X143853413Y-101343707D01*
X143853410Y-101343711D01*
X143765809Y-101474814D01*
X143765802Y-101474827D01*
X143705464Y-101620498D01*
X143705461Y-101620510D01*
X143674700Y-101775153D01*
X143674700Y-101932846D01*
X143705461Y-102087489D01*
X143705464Y-102087501D01*
X143765802Y-102233172D01*
X143765809Y-102233185D01*
X143853410Y-102364288D01*
X143853413Y-102364292D01*
X143964907Y-102475786D01*
X143964911Y-102475789D01*
X144096014Y-102563390D01*
X144096027Y-102563397D01*
X144247330Y-102626068D01*
X144246768Y-102627423D01*
X144299098Y-102661713D01*
X144327558Y-102725523D01*
X144317002Y-102794591D01*
X144307772Y-102810972D01*
X144248408Y-102899816D01*
X144248402Y-102899827D01*
X144188064Y-103045498D01*
X144188061Y-103045510D01*
X144157300Y-103200153D01*
X144157300Y-103357846D01*
X144188061Y-103512489D01*
X144188064Y-103512501D01*
X144248402Y-103658172D01*
X144248409Y-103658185D01*
X144336010Y-103789288D01*
X144336013Y-103789292D01*
X144447507Y-103900786D01*
X144447511Y-103900789D01*
X144578614Y-103988390D01*
X144578627Y-103988397D01*
X144724298Y-104048735D01*
X144724303Y-104048737D01*
X144878953Y-104079499D01*
X144878956Y-104079500D01*
X144878958Y-104079500D01*
X145036644Y-104079500D01*
X145036645Y-104079499D01*
X145191297Y-104048737D01*
X145303966Y-104002067D01*
X145336972Y-103988397D01*
X145336972Y-103988396D01*
X145336979Y-103988394D01*
X145468089Y-103900789D01*
X145579589Y-103789289D01*
X145667194Y-103658179D01*
X145727537Y-103512497D01*
X145758300Y-103357842D01*
X145758300Y-103200158D01*
X145758300Y-103200155D01*
X145734815Y-103082092D01*
X145741042Y-103012500D01*
X145783905Y-102957323D01*
X145849794Y-102934078D01*
X145856432Y-102933900D01*
X145900244Y-102933900D01*
X145900245Y-102933899D01*
X146054897Y-102903137D01*
X146200579Y-102842794D01*
X146331689Y-102755189D01*
X146443189Y-102643689D01*
X146530794Y-102512579D01*
X146591137Y-102366897D01*
X146600883Y-102317903D01*
X146633268Y-102255992D01*
X146693983Y-102221418D01*
X146763753Y-102225157D01*
X146820425Y-102266024D01*
X146846006Y-102331042D01*
X146846500Y-102342094D01*
X146846500Y-103611302D01*
X146826815Y-103678341D01*
X146810181Y-103698983D01*
X141302281Y-109206882D01*
X141302275Y-109206890D01*
X141252239Y-109293557D01*
X141252239Y-109293558D01*
X141223223Y-109343815D01*
X141182299Y-109496543D01*
X141182299Y-109496545D01*
X141182299Y-109664646D01*
X141182300Y-109664659D01*
X141182300Y-111650970D01*
X141162615Y-111718009D01*
X141109811Y-111763764D01*
X141040653Y-111773708D01*
X140977097Y-111744683D01*
X140943739Y-111698423D01*
X140917395Y-111634823D01*
X140917390Y-111634814D01*
X140829789Y-111503711D01*
X140829786Y-111503707D01*
X140718292Y-111392213D01*
X140718288Y-111392210D01*
X140587185Y-111304609D01*
X140587172Y-111304602D01*
X140441501Y-111244264D01*
X140441489Y-111244261D01*
X140286845Y-111213500D01*
X140286842Y-111213500D01*
X140129158Y-111213500D01*
X140129153Y-111213500D01*
X140046343Y-111229972D01*
X139976751Y-111223745D01*
X139934471Y-111196036D01*
X139600219Y-110861784D01*
X139566734Y-110800461D01*
X139563900Y-110774103D01*
X139563900Y-103901838D01*
X139569835Y-103881624D01*
X139570963Y-103860585D01*
X139579482Y-103848770D01*
X139583585Y-103834799D01*
X139599503Y-103821005D01*
X139611829Y-103803913D01*
X139625384Y-103798579D01*
X139636389Y-103789044D01*
X139657241Y-103786045D01*
X139676847Y-103778332D01*
X139701644Y-103779661D01*
X139705547Y-103779100D01*
X139712092Y-103780221D01*
X139752074Y-103788174D01*
X139813985Y-103820558D01*
X139842444Y-103862339D01*
X139905002Y-104013370D01*
X139905009Y-104013383D01*
X139992610Y-104144486D01*
X139992613Y-104144490D01*
X140104107Y-104255984D01*
X140104111Y-104255987D01*
X140235214Y-104343588D01*
X140235227Y-104343595D01*
X140323118Y-104380000D01*
X140380903Y-104403935D01*
X140535553Y-104434697D01*
X140535556Y-104434698D01*
X140535558Y-104434698D01*
X140693244Y-104434698D01*
X140693245Y-104434697D01*
X140847897Y-104403935D01*
X140993579Y-104343592D01*
X141124689Y-104255987D01*
X141236189Y-104144487D01*
X141323794Y-104013377D01*
X141384137Y-103867695D01*
X141414900Y-103713040D01*
X141414900Y-103555356D01*
X141414900Y-103555353D01*
X141414899Y-103555351D01*
X141384137Y-103400701D01*
X141366385Y-103357844D01*
X141323797Y-103255025D01*
X141323790Y-103255012D01*
X141236189Y-103123909D01*
X141236186Y-103123905D01*
X141124692Y-103012411D01*
X141124688Y-103012408D01*
X140993585Y-102924807D01*
X140993572Y-102924800D01*
X140847901Y-102864462D01*
X140847891Y-102864459D01*
X140740124Y-102843023D01*
X140678214Y-102810638D01*
X140649755Y-102768858D01*
X140587197Y-102617827D01*
X140587190Y-102617814D01*
X140499589Y-102486711D01*
X140499586Y-102486707D01*
X140388092Y-102375213D01*
X140388088Y-102375210D01*
X140256985Y-102287609D01*
X140256972Y-102287602D01*
X140111301Y-102227264D01*
X140111289Y-102227261D01*
X139956645Y-102196500D01*
X139956642Y-102196500D01*
X139798958Y-102196500D01*
X139798953Y-102196500D01*
X139712091Y-102213778D01*
X139642499Y-102207551D01*
X139587322Y-102164688D01*
X139564078Y-102098798D01*
X139563900Y-102092161D01*
X139563900Y-97634953D01*
X141287100Y-97634953D01*
X141287100Y-97792646D01*
X141317861Y-97947289D01*
X141317864Y-97947301D01*
X141378202Y-98092972D01*
X141378209Y-98092985D01*
X141465810Y-98224088D01*
X141465813Y-98224092D01*
X141526022Y-98284301D01*
X141559507Y-98345624D01*
X141554523Y-98415316D01*
X141552904Y-98419431D01*
X141521063Y-98496303D01*
X141521062Y-98496306D01*
X141521062Y-98496307D01*
X141521061Y-98496310D01*
X141490300Y-98650953D01*
X141490300Y-98808646D01*
X141521061Y-98963289D01*
X141521064Y-98963301D01*
X141581402Y-99108972D01*
X141581409Y-99108985D01*
X141669010Y-99240088D01*
X141669013Y-99240092D01*
X141780507Y-99351586D01*
X141780511Y-99351589D01*
X141911614Y-99439190D01*
X141911627Y-99439197D01*
X142054775Y-99498490D01*
X142057303Y-99499537D01*
X142211953Y-99530299D01*
X142211956Y-99530300D01*
X142211958Y-99530300D01*
X142369644Y-99530300D01*
X142369645Y-99530299D01*
X142524297Y-99499537D01*
X142669979Y-99439194D01*
X142801089Y-99351589D01*
X142912589Y-99240089D01*
X143000194Y-99108979D01*
X143009233Y-99087158D01*
X143040638Y-99011337D01*
X143060537Y-98963297D01*
X143091300Y-98808642D01*
X143091300Y-98650958D01*
X143091300Y-98650955D01*
X143091299Y-98650953D01*
X143071255Y-98550185D01*
X143060537Y-98496303D01*
X143044728Y-98458137D01*
X143000197Y-98350627D01*
X143000190Y-98350614D01*
X142912589Y-98219511D01*
X142912586Y-98219507D01*
X142852377Y-98159298D01*
X142818892Y-98097975D01*
X142823876Y-98028283D01*
X142825480Y-98024207D01*
X142857337Y-97947297D01*
X142888100Y-97792642D01*
X142888100Y-97634958D01*
X142888100Y-97634955D01*
X142887535Y-97629218D01*
X142900555Y-97560572D01*
X142948621Y-97509863D01*
X143016472Y-97493190D01*
X143035129Y-97495449D01*
X143177153Y-97523699D01*
X143177156Y-97523700D01*
X143177158Y-97523700D01*
X143334844Y-97523700D01*
X143334845Y-97523699D01*
X143489497Y-97492937D01*
X143635179Y-97432594D01*
X143766289Y-97344989D01*
X143877789Y-97233489D01*
X143965394Y-97102379D01*
X144025737Y-96956697D01*
X144056500Y-96802042D01*
X144056500Y-96644358D01*
X144056500Y-96644355D01*
X144056499Y-96644353D01*
X144041506Y-96568979D01*
X144025737Y-96489703D01*
X144016498Y-96467397D01*
X143965397Y-96344027D01*
X143965390Y-96344014D01*
X143877789Y-96212911D01*
X143877786Y-96212907D01*
X143766292Y-96101413D01*
X143766288Y-96101410D01*
X143635185Y-96013809D01*
X143635172Y-96013802D01*
X143489501Y-95953464D01*
X143489489Y-95953461D01*
X143334845Y-95922700D01*
X143334842Y-95922700D01*
X143177158Y-95922700D01*
X143177155Y-95922700D01*
X143022510Y-95953461D01*
X143022498Y-95953464D01*
X142876827Y-96013802D01*
X142876814Y-96013809D01*
X142745711Y-96101410D01*
X142745707Y-96101413D01*
X142634213Y-96212907D01*
X142634210Y-96212911D01*
X142546609Y-96344014D01*
X142546602Y-96344027D01*
X142486264Y-96489698D01*
X142486261Y-96489710D01*
X142455500Y-96644353D01*
X142455500Y-96802048D01*
X142456065Y-96807790D01*
X142443040Y-96876435D01*
X142394970Y-96927141D01*
X142327118Y-96943809D01*
X142308470Y-96941550D01*
X142166446Y-96913300D01*
X142166442Y-96913300D01*
X142008758Y-96913300D01*
X142008755Y-96913300D01*
X141854110Y-96944061D01*
X141854098Y-96944064D01*
X141708427Y-97004402D01*
X141708414Y-97004409D01*
X141577311Y-97092010D01*
X141577307Y-97092013D01*
X141465813Y-97203507D01*
X141465810Y-97203511D01*
X141378209Y-97334614D01*
X141378202Y-97334627D01*
X141317864Y-97480298D01*
X141317861Y-97480310D01*
X141287100Y-97634953D01*
X139563900Y-97634953D01*
X139563900Y-94890137D01*
X139583585Y-94823098D01*
X139584798Y-94821246D01*
X139597301Y-94802534D01*
X139621994Y-94765579D01*
X139682337Y-94619897D01*
X139713100Y-94465242D01*
X139713100Y-94307558D01*
X139713100Y-94307555D01*
X139713099Y-94307553D01*
X139710544Y-94294707D01*
X139682337Y-94152903D01*
X139658604Y-94095606D01*
X139621997Y-94007227D01*
X139621990Y-94007214D01*
X139534389Y-93876111D01*
X139534386Y-93876107D01*
X139422892Y-93764613D01*
X139422888Y-93764610D01*
X139291785Y-93677009D01*
X139291772Y-93677002D01*
X139146101Y-93616664D01*
X139146089Y-93616661D01*
X138991445Y-93585900D01*
X138991442Y-93585900D01*
X138833758Y-93585900D01*
X138833755Y-93585900D01*
X138679110Y-93616661D01*
X138679098Y-93616664D01*
X138533427Y-93677002D01*
X138533414Y-93677009D01*
X138402311Y-93764610D01*
X138402307Y-93764613D01*
X138290813Y-93876107D01*
X138214992Y-93989580D01*
X138203256Y-93999387D01*
X138195298Y-94012443D01*
X138176995Y-94021333D01*
X138161379Y-94034384D01*
X138146205Y-94036289D01*
X138132451Y-94042971D01*
X138118902Y-94041350D01*
X138127261Y-94060102D01*
X138140619Y-94078859D01*
X138141217Y-94091407D01*
X138146333Y-94102884D01*
X138142848Y-94125649D01*
X138143861Y-94146890D01*
X138144051Y-94146928D01*
X138143899Y-94147690D01*
X138143945Y-94148649D01*
X138143069Y-94151861D01*
X138112100Y-94307553D01*
X138112100Y-94465246D01*
X138142861Y-94619889D01*
X138142864Y-94619901D01*
X138203202Y-94765572D01*
X138203209Y-94765585D01*
X138290810Y-94896688D01*
X138290813Y-94896692D01*
X138326580Y-94932458D01*
X138360066Y-94993780D01*
X138362900Y-95020140D01*
X138362900Y-98627773D01*
X138343215Y-98694812D01*
X138290411Y-98740567D01*
X138221253Y-98750511D01*
X138212297Y-98748521D01*
X138212272Y-98748651D01*
X138051645Y-98716700D01*
X138051642Y-98716700D01*
X137893958Y-98716700D01*
X137893955Y-98716700D01*
X137739310Y-98747461D01*
X137739298Y-98747464D01*
X137593627Y-98807802D01*
X137593614Y-98807809D01*
X137462511Y-98895410D01*
X137462507Y-98895413D01*
X137351012Y-99006908D01*
X137347378Y-99011337D01*
X137289632Y-99050671D01*
X137219787Y-99052542D01*
X137189235Y-99038753D01*
X137188954Y-99039279D01*
X137183572Y-99036402D01*
X137037901Y-98976064D01*
X137037889Y-98976061D01*
X136883245Y-98945300D01*
X136883242Y-98945300D01*
X136725558Y-98945300D01*
X136725555Y-98945300D01*
X136570910Y-98976061D01*
X136570898Y-98976064D01*
X136425227Y-99036402D01*
X136425214Y-99036409D01*
X136294111Y-99124010D01*
X136294107Y-99124013D01*
X136182613Y-99235507D01*
X136182610Y-99235511D01*
X136095009Y-99366614D01*
X136095002Y-99366627D01*
X136034664Y-99512298D01*
X136034661Y-99512310D01*
X136003900Y-99666953D01*
X133067558Y-99666953D01*
X133057524Y-99616511D01*
X133045402Y-99555568D01*
X133025507Y-99507536D01*
X132985062Y-99409892D01*
X132985055Y-99409879D01*
X132897454Y-99278776D01*
X132897451Y-99278772D01*
X132785957Y-99167278D01*
X132785953Y-99167275D01*
X132654850Y-99079674D01*
X132654837Y-99079667D01*
X132509166Y-99019329D01*
X132509154Y-99019326D01*
X132354510Y-98988565D01*
X132354507Y-98988565D01*
X132196823Y-98988565D01*
X132196820Y-98988565D01*
X132042175Y-99019326D01*
X132042163Y-99019329D01*
X131896492Y-99079667D01*
X131896479Y-99079674D01*
X131765376Y-99167275D01*
X131765372Y-99167278D01*
X131653878Y-99278772D01*
X131653875Y-99278776D01*
X131566274Y-99409879D01*
X131566266Y-99409894D01*
X131552103Y-99444087D01*
X131508261Y-99498490D01*
X131441967Y-99520554D01*
X131385762Y-99507536D01*
X131385307Y-99508637D01*
X131234001Y-99445964D01*
X131233989Y-99445961D01*
X131079345Y-99415200D01*
X131079342Y-99415200D01*
X130921658Y-99415200D01*
X130921655Y-99415200D01*
X130767010Y-99445961D01*
X130766998Y-99445964D01*
X130621327Y-99506302D01*
X130621314Y-99506309D01*
X130490211Y-99593910D01*
X130490207Y-99593913D01*
X130378713Y-99705407D01*
X130378710Y-99705411D01*
X130302004Y-99820209D01*
X130248391Y-99865014D01*
X130179066Y-99873721D01*
X130130011Y-99854420D01*
X130046185Y-99798409D01*
X130046172Y-99798402D01*
X129900501Y-99738064D01*
X129900489Y-99738061D01*
X129745845Y-99707300D01*
X129745842Y-99707300D01*
X129588158Y-99707300D01*
X129588155Y-99707300D01*
X129433510Y-99738061D01*
X129433498Y-99738064D01*
X129287827Y-99798402D01*
X129287814Y-99798409D01*
X129156711Y-99886010D01*
X129156707Y-99886013D01*
X129045213Y-99997507D01*
X129045210Y-99997511D01*
X128957609Y-100128614D01*
X128957602Y-100128627D01*
X128897264Y-100274298D01*
X128897261Y-100274310D01*
X128866500Y-100428953D01*
X125413481Y-100428953D01*
X126733713Y-99108721D01*
X126733716Y-99108720D01*
X126845520Y-98996916D01*
X126895639Y-98910104D01*
X126924577Y-98859985D01*
X126965500Y-98707257D01*
X126965500Y-98549143D01*
X126965500Y-98092153D01*
X129653900Y-98092153D01*
X129653900Y-98249846D01*
X129684661Y-98404489D01*
X129684664Y-98404501D01*
X129745002Y-98550172D01*
X129745009Y-98550185D01*
X129832610Y-98681288D01*
X129832613Y-98681292D01*
X129944107Y-98792786D01*
X129944111Y-98792789D01*
X130075214Y-98880390D01*
X130075227Y-98880397D01*
X130146974Y-98910115D01*
X130220903Y-98940737D01*
X130375553Y-98971499D01*
X130375556Y-98971500D01*
X130375558Y-98971500D01*
X130533244Y-98971500D01*
X130533245Y-98971499D01*
X130687897Y-98940737D01*
X130833579Y-98880394D01*
X130964689Y-98792789D01*
X131076189Y-98681289D01*
X131163794Y-98550179D01*
X131166267Y-98544210D01*
X131201919Y-98458137D01*
X131224137Y-98404497D01*
X131254900Y-98249842D01*
X131254900Y-98092158D01*
X131254900Y-98092155D01*
X131254899Y-98092153D01*
X131250011Y-98067579D01*
X131224137Y-97937503D01*
X131224135Y-97937498D01*
X131163797Y-97791827D01*
X131163790Y-97791814D01*
X131083971Y-97672357D01*
X131076189Y-97660711D01*
X131076186Y-97660707D01*
X131025032Y-97609553D01*
X134987900Y-97609553D01*
X134987900Y-97767246D01*
X135018661Y-97921889D01*
X135018664Y-97921901D01*
X135079002Y-98067572D01*
X135079009Y-98067585D01*
X135166610Y-98198688D01*
X135166613Y-98198692D01*
X135278107Y-98310186D01*
X135278111Y-98310189D01*
X135409214Y-98397790D01*
X135409227Y-98397797D01*
X135551197Y-98456602D01*
X135554903Y-98458137D01*
X135709553Y-98488899D01*
X135709556Y-98488900D01*
X135709558Y-98488900D01*
X135867244Y-98488900D01*
X135867245Y-98488899D01*
X136021897Y-98458137D01*
X136151387Y-98404501D01*
X136167572Y-98397797D01*
X136167572Y-98397796D01*
X136167579Y-98397794D01*
X136298689Y-98310189D01*
X136410189Y-98198689D01*
X136497794Y-98067579D01*
X136558137Y-97921897D01*
X136588900Y-97767242D01*
X136588900Y-97609558D01*
X136588900Y-97609555D01*
X136588899Y-97609553D01*
X136579156Y-97560572D01*
X136558137Y-97454903D01*
X136548898Y-97432597D01*
X136497797Y-97309227D01*
X136497790Y-97309214D01*
X136410189Y-97178111D01*
X136410186Y-97178107D01*
X136298692Y-97066613D01*
X136298688Y-97066610D01*
X136167585Y-96979009D01*
X136167572Y-96979002D01*
X136021901Y-96918664D01*
X136021889Y-96918661D01*
X135867245Y-96887900D01*
X135867242Y-96887900D01*
X135709558Y-96887900D01*
X135709555Y-96887900D01*
X135554910Y-96918661D01*
X135554898Y-96918664D01*
X135409227Y-96979002D01*
X135409214Y-96979009D01*
X135278111Y-97066610D01*
X135278107Y-97066613D01*
X135166613Y-97178107D01*
X135166610Y-97178111D01*
X135079009Y-97309214D01*
X135079002Y-97309227D01*
X135018664Y-97454898D01*
X135018661Y-97454910D01*
X134987900Y-97609553D01*
X131025032Y-97609553D01*
X130964692Y-97549213D01*
X130964688Y-97549210D01*
X130833585Y-97461609D01*
X130833572Y-97461602D01*
X130687901Y-97401264D01*
X130687889Y-97401261D01*
X130533245Y-97370500D01*
X130533242Y-97370500D01*
X130375558Y-97370500D01*
X130375555Y-97370500D01*
X130220910Y-97401261D01*
X130220898Y-97401264D01*
X130075227Y-97461602D01*
X130075214Y-97461609D01*
X129944111Y-97549210D01*
X129944107Y-97549213D01*
X129832613Y-97660707D01*
X129832610Y-97660711D01*
X129745009Y-97791814D01*
X129745002Y-97791827D01*
X129684664Y-97937498D01*
X129684661Y-97937510D01*
X129653900Y-98092153D01*
X126965500Y-98092153D01*
X126965500Y-94726153D01*
X131228700Y-94726153D01*
X131228700Y-94883846D01*
X131259461Y-95038489D01*
X131259464Y-95038501D01*
X131319802Y-95184172D01*
X131319809Y-95184185D01*
X131407410Y-95315288D01*
X131407413Y-95315292D01*
X131518907Y-95426786D01*
X131518911Y-95426789D01*
X131650014Y-95514390D01*
X131650027Y-95514397D01*
X131795698Y-95574735D01*
X131795703Y-95574737D01*
X131844775Y-95584498D01*
X131956332Y-95606689D01*
X131956015Y-95608281D01*
X132013517Y-95631497D01*
X132053878Y-95688530D01*
X132056998Y-95758330D01*
X132039685Y-95797630D01*
X132031009Y-95810615D01*
X132031002Y-95810627D01*
X131970664Y-95956298D01*
X131970661Y-95956310D01*
X131939900Y-96110953D01*
X131939900Y-96268646D01*
X131970661Y-96423289D01*
X131970664Y-96423301D01*
X132031002Y-96568972D01*
X132031009Y-96568985D01*
X132118610Y-96700088D01*
X132118613Y-96700092D01*
X132230107Y-96811586D01*
X132230111Y-96811589D01*
X132361214Y-96899190D01*
X132361227Y-96899197D01*
X132500056Y-96956701D01*
X132506903Y-96959537D01*
X132604760Y-96979002D01*
X132661553Y-96990299D01*
X132661556Y-96990300D01*
X132661558Y-96990300D01*
X132819244Y-96990300D01*
X132819245Y-96990299D01*
X132973897Y-96959537D01*
X133119579Y-96899194D01*
X133250689Y-96811589D01*
X133362189Y-96700089D01*
X133449794Y-96568979D01*
X133510137Y-96423297D01*
X133540900Y-96268642D01*
X133540900Y-96110958D01*
X133540900Y-96110955D01*
X133540899Y-96110953D01*
X133534535Y-96078960D01*
X133510137Y-95956303D01*
X133492484Y-95913684D01*
X133449797Y-95810627D01*
X133449790Y-95810614D01*
X133362189Y-95679511D01*
X133362186Y-95679507D01*
X133250692Y-95568013D01*
X133250688Y-95568010D01*
X133119585Y-95480409D01*
X133119572Y-95480402D01*
X132973901Y-95420064D01*
X132973889Y-95420061D01*
X132813268Y-95388111D01*
X132813583Y-95386523D01*
X132756063Y-95363286D01*
X132715713Y-95306245D01*
X132712606Y-95236445D01*
X132729919Y-95197162D01*
X132738594Y-95184179D01*
X132740113Y-95180513D01*
X132794403Y-95049442D01*
X132798937Y-95038497D01*
X132829700Y-94883842D01*
X132829700Y-94726158D01*
X132829700Y-94726155D01*
X132829699Y-94726153D01*
X132820610Y-94680460D01*
X132798937Y-94571503D01*
X132795051Y-94562121D01*
X132738597Y-94425827D01*
X132738590Y-94425814D01*
X132650989Y-94294711D01*
X132650986Y-94294707D01*
X132539492Y-94183213D01*
X132539488Y-94183210D01*
X132408385Y-94095609D01*
X132408372Y-94095602D01*
X132262701Y-94035264D01*
X132262689Y-94035261D01*
X132108045Y-94004500D01*
X132108042Y-94004500D01*
X131950358Y-94004500D01*
X131950355Y-94004500D01*
X131795710Y-94035261D01*
X131795698Y-94035264D01*
X131650027Y-94095602D01*
X131650014Y-94095609D01*
X131518911Y-94183210D01*
X131518907Y-94183213D01*
X131407413Y-94294707D01*
X131407410Y-94294711D01*
X131319809Y-94425814D01*
X131319802Y-94425827D01*
X131259464Y-94571498D01*
X131259461Y-94571510D01*
X131228700Y-94726153D01*
X126965500Y-94726153D01*
X126965500Y-89852659D01*
X126965501Y-89852646D01*
X126965501Y-89684545D01*
X126965501Y-89684543D01*
X126924577Y-89531815D01*
X126892709Y-89476618D01*
X126890226Y-89472317D01*
X126845522Y-89394887D01*
X126845521Y-89394886D01*
X126845520Y-89394884D01*
X126733716Y-89283080D01*
X126733715Y-89283079D01*
X126729385Y-89278749D01*
X126729374Y-89278739D01*
X122810819Y-85360184D01*
X122777334Y-85298861D01*
X122774500Y-85272503D01*
X122774500Y-84868781D01*
X122794185Y-84801742D01*
X122846989Y-84755987D01*
X122916147Y-84746043D01*
X122979703Y-84775068D01*
X122995447Y-84791469D01*
X123041977Y-84849817D01*
X123041983Y-84849823D01*
X123041984Y-84849824D01*
X123240575Y-85048415D01*
X123460152Y-85223522D01*
X123697955Y-85372944D01*
X123950992Y-85494800D01*
X124150080Y-85564464D01*
X124216070Y-85587555D01*
X124216082Y-85587559D01*
X124489891Y-85650054D01*
X124489897Y-85650054D01*
X124489905Y-85650056D01*
X124660794Y-85669310D01*
X124768969Y-85681498D01*
X124768972Y-85681499D01*
X125027860Y-85681499D01*
X125094899Y-85701184D01*
X125140654Y-85753988D01*
X125150598Y-85823146D01*
X125121573Y-85886702D01*
X125115541Y-85893180D01*
X125006613Y-86002107D01*
X125006610Y-86002111D01*
X124919009Y-86133214D01*
X124919002Y-86133227D01*
X124858664Y-86278898D01*
X124858661Y-86278910D01*
X124827900Y-86433553D01*
X124827900Y-86591246D01*
X124858661Y-86745889D01*
X124858664Y-86745901D01*
X124919002Y-86891572D01*
X124919009Y-86891585D01*
X125006610Y-87022688D01*
X125006613Y-87022692D01*
X125118107Y-87134186D01*
X125118111Y-87134189D01*
X125249214Y-87221790D01*
X125249227Y-87221797D01*
X125394898Y-87282135D01*
X125394903Y-87282137D01*
X125459547Y-87294995D01*
X125550249Y-87313038D01*
X125612160Y-87345423D01*
X125613739Y-87346974D01*
X128551478Y-90284713D01*
X128551480Y-90284716D01*
X128584262Y-90317498D01*
X128641183Y-90374420D01*
X128654896Y-90399535D01*
X128674667Y-90435742D01*
X128669683Y-90505434D01*
X128641182Y-90549781D01*
X127881286Y-91309678D01*
X127769481Y-91421482D01*
X127769479Y-91421485D01*
X127744420Y-91464889D01*
X127722267Y-91503261D01*
X127719361Y-91508294D01*
X127719359Y-91508296D01*
X127690425Y-91558409D01*
X127690424Y-91558410D01*
X127690423Y-91558415D01*
X127649499Y-91711143D01*
X127649499Y-91711145D01*
X127649499Y-91879246D01*
X127649500Y-91879259D01*
X127649500Y-92250234D01*
X127629815Y-92317273D01*
X127628602Y-92319125D01*
X127540609Y-92450814D01*
X127540602Y-92450827D01*
X127480264Y-92596498D01*
X127480261Y-92596510D01*
X127449500Y-92751153D01*
X127449500Y-92908846D01*
X127480261Y-93063489D01*
X127480264Y-93063501D01*
X127540602Y-93209172D01*
X127540609Y-93209185D01*
X127628210Y-93340288D01*
X127628213Y-93340292D01*
X127739707Y-93451786D01*
X127739711Y-93451789D01*
X127870814Y-93539390D01*
X127870827Y-93539397D01*
X127983097Y-93585900D01*
X128016503Y-93599737D01*
X128171153Y-93630499D01*
X128171156Y-93630500D01*
X128171158Y-93630500D01*
X128328844Y-93630500D01*
X128328845Y-93630499D01*
X128483497Y-93599737D01*
X128629179Y-93539394D01*
X128760289Y-93451789D01*
X128871789Y-93340289D01*
X128959394Y-93209179D01*
X129019737Y-93063497D01*
X129050500Y-92908842D01*
X129050500Y-92751158D01*
X129050500Y-92751155D01*
X129050499Y-92751153D01*
X129044124Y-92719102D01*
X129019737Y-92596503D01*
X128998535Y-92545316D01*
X128959397Y-92450827D01*
X128959390Y-92450814D01*
X128871398Y-92319125D01*
X128865747Y-92301078D01*
X128855523Y-92285169D01*
X128851071Y-92254207D01*
X128850520Y-92252447D01*
X128850500Y-92250234D01*
X128850500Y-92090296D01*
X128865440Y-92039418D01*
X129773365Y-92039418D01*
X129773365Y-92197111D01*
X129804126Y-92351754D01*
X129804129Y-92351766D01*
X129864467Y-92497437D01*
X129864474Y-92497450D01*
X129952075Y-92628553D01*
X129952078Y-92628557D01*
X130063572Y-92740051D01*
X130063576Y-92740054D01*
X130194679Y-92827655D01*
X130194692Y-92827662D01*
X130310224Y-92875516D01*
X130340368Y-92888002D01*
X130495018Y-92918764D01*
X130495021Y-92918765D01*
X130495023Y-92918765D01*
X130652709Y-92918765D01*
X130652710Y-92918764D01*
X130807362Y-92888002D01*
X130953044Y-92827659D01*
X131084154Y-92740054D01*
X131195654Y-92628554D01*
X131283259Y-92497444D01*
X131343602Y-92351762D01*
X131374365Y-92197107D01*
X131374365Y-92039423D01*
X131366915Y-92001970D01*
X131373141Y-91932382D01*
X131416003Y-91877204D01*
X131481892Y-91853958D01*
X131549889Y-91870024D01*
X131567191Y-91881922D01*
X131569707Y-91883987D01*
X131700814Y-91971590D01*
X131700827Y-91971597D01*
X131825547Y-92023257D01*
X131846503Y-92031937D01*
X131978465Y-92058186D01*
X132001153Y-92062699D01*
X132001156Y-92062700D01*
X132001158Y-92062700D01*
X132158844Y-92062700D01*
X132158845Y-92062699D01*
X132313497Y-92031937D01*
X132459179Y-91971594D01*
X132590289Y-91883989D01*
X132701789Y-91772489D01*
X132789394Y-91641379D01*
X132849737Y-91495697D01*
X132880500Y-91341042D01*
X132880500Y-91183358D01*
X132880500Y-91183355D01*
X132880499Y-91183353D01*
X132856219Y-91061292D01*
X132849737Y-91028703D01*
X132839398Y-91003742D01*
X132789397Y-90883027D01*
X132789390Y-90883014D01*
X132701789Y-90751911D01*
X132701786Y-90751907D01*
X132590292Y-90640413D01*
X132590288Y-90640410D01*
X132459185Y-90552809D01*
X132459172Y-90552802D01*
X132313501Y-90492464D01*
X132313489Y-90492461D01*
X132158845Y-90461700D01*
X132158842Y-90461700D01*
X132001158Y-90461700D01*
X132001155Y-90461700D01*
X131846510Y-90492461D01*
X131846498Y-90492464D01*
X131700827Y-90552802D01*
X131700814Y-90552809D01*
X131569711Y-90640410D01*
X131569707Y-90640413D01*
X131458213Y-90751907D01*
X131458210Y-90751911D01*
X131370609Y-90883014D01*
X131370602Y-90883027D01*
X131310264Y-91028698D01*
X131310261Y-91028710D01*
X131279500Y-91183353D01*
X131279500Y-91183358D01*
X131279500Y-91341042D01*
X131279500Y-91341044D01*
X131279499Y-91341044D01*
X131286949Y-91378492D01*
X131280722Y-91448084D01*
X131237859Y-91503261D01*
X131171970Y-91526506D01*
X131103973Y-91510438D01*
X131086675Y-91498543D01*
X131084162Y-91496481D01*
X130953050Y-91408874D01*
X130953037Y-91408867D01*
X130807366Y-91348529D01*
X130807354Y-91348526D01*
X130652710Y-91317765D01*
X130652707Y-91317765D01*
X130495023Y-91317765D01*
X130495020Y-91317765D01*
X130340375Y-91348526D01*
X130340363Y-91348529D01*
X130194692Y-91408867D01*
X130194679Y-91408874D01*
X130063576Y-91496475D01*
X130063572Y-91496478D01*
X129952078Y-91607972D01*
X129952075Y-91607976D01*
X129864474Y-91739079D01*
X129864467Y-91739092D01*
X129804129Y-91884763D01*
X129804126Y-91884775D01*
X129773365Y-92039418D01*
X128865440Y-92039418D01*
X128870185Y-92023257D01*
X128886814Y-92002620D01*
X130492913Y-90396521D01*
X130492916Y-90396520D01*
X130604720Y-90284716D01*
X130604721Y-90284713D01*
X132521016Y-88368419D01*
X132582339Y-88334934D01*
X132608697Y-88332100D01*
X133217559Y-88332100D01*
X133284598Y-88351785D01*
X133330353Y-88404589D01*
X133340297Y-88473747D01*
X133311272Y-88537303D01*
X133305240Y-88543781D01*
X133285413Y-88563607D01*
X133285410Y-88563611D01*
X133197809Y-88694714D01*
X133197802Y-88694727D01*
X133137464Y-88840398D01*
X133137461Y-88840410D01*
X133106700Y-88995053D01*
X133106700Y-89152746D01*
X133137461Y-89307389D01*
X133137464Y-89307401D01*
X133197802Y-89453072D01*
X133197809Y-89453085D01*
X133285410Y-89584188D01*
X133285413Y-89584192D01*
X133396907Y-89695686D01*
X133396911Y-89695689D01*
X133528014Y-89783290D01*
X133528027Y-89783297D01*
X133668807Y-89841609D01*
X133673703Y-89843637D01*
X133795389Y-89867842D01*
X133828353Y-89874399D01*
X133828356Y-89874400D01*
X133828358Y-89874400D01*
X133986044Y-89874400D01*
X133986045Y-89874399D01*
X134140697Y-89843637D01*
X134272698Y-89788961D01*
X134286372Y-89783297D01*
X134286372Y-89783296D01*
X134286379Y-89783294D01*
X134417489Y-89695689D01*
X134528989Y-89584189D01*
X134616594Y-89453079D01*
X134653259Y-89364559D01*
X134673848Y-89339009D01*
X134693508Y-89312748D01*
X134695656Y-89311946D01*
X134697096Y-89310160D01*
X134728235Y-89299795D01*
X134758972Y-89288331D01*
X134761213Y-89288818D01*
X134763390Y-89288094D01*
X134795186Y-89296209D01*
X134827245Y-89303183D01*
X134829693Y-89305015D01*
X134831089Y-89305372D01*
X134855499Y-89324334D01*
X134881521Y-89350356D01*
X134915006Y-89411679D01*
X134912641Y-89470592D01*
X134912905Y-89470645D01*
X134912572Y-89472317D01*
X134912504Y-89474020D01*
X134911718Y-89476611D01*
X134880954Y-89631270D01*
X134880954Y-89687268D01*
X134861269Y-89754307D01*
X134825846Y-89790369D01*
X134770111Y-89827611D01*
X134770104Y-89827617D01*
X134658613Y-89939107D01*
X134658610Y-89939111D01*
X134571009Y-90070214D01*
X134571002Y-90070227D01*
X134510664Y-90215898D01*
X134510661Y-90215910D01*
X134479900Y-90370553D01*
X134479900Y-90528246D01*
X134510661Y-90682889D01*
X134510664Y-90682901D01*
X134571002Y-90828572D01*
X134571009Y-90828585D01*
X134658610Y-90959688D01*
X134658613Y-90959692D01*
X134770107Y-91071186D01*
X134770111Y-91071189D01*
X134901214Y-91158790D01*
X134901227Y-91158797D01*
X135046898Y-91219135D01*
X135046903Y-91219137D01*
X135196963Y-91248986D01*
X135201553Y-91249899D01*
X135201556Y-91249900D01*
X135201558Y-91249900D01*
X135359244Y-91249900D01*
X135359245Y-91249899D01*
X135513897Y-91219137D01*
X135659579Y-91158794D01*
X135790689Y-91071189D01*
X135902189Y-90959689D01*
X135989794Y-90828579D01*
X136050137Y-90682897D01*
X136080900Y-90528242D01*
X136080900Y-90472246D01*
X136100585Y-90405207D01*
X136136008Y-90369144D01*
X136191743Y-90331904D01*
X136303243Y-90220404D01*
X136390848Y-90089294D01*
X136451191Y-89943612D01*
X136481954Y-89788957D01*
X136481954Y-89631273D01*
X136481954Y-89631270D01*
X136481953Y-89631268D01*
X136472548Y-89583985D01*
X136451191Y-89476618D01*
X136450115Y-89474020D01*
X136390851Y-89330942D01*
X136390844Y-89330929D01*
X136303243Y-89199826D01*
X136303240Y-89199822D01*
X136289541Y-89186123D01*
X136285059Y-89179445D01*
X136280995Y-89176649D01*
X136274039Y-89163027D01*
X136262859Y-89146371D01*
X136259618Y-89138639D01*
X136258282Y-89133650D01*
X136241031Y-89069269D01*
X136206714Y-89009831D01*
X136161974Y-88932338D01*
X136050170Y-88820534D01*
X136050169Y-88820533D01*
X136045839Y-88816203D01*
X136045828Y-88816193D01*
X134599590Y-87369955D01*
X134599588Y-87369952D01*
X134480717Y-87251081D01*
X134480716Y-87251080D01*
X134384548Y-87195558D01*
X134384547Y-87195557D01*
X134343783Y-87172022D01*
X134287881Y-87157043D01*
X134191057Y-87131099D01*
X134032943Y-87131099D01*
X134025347Y-87131099D01*
X134025331Y-87131100D01*
X132229543Y-87131100D01*
X132076814Y-87172023D01*
X132036052Y-87195558D01*
X132036051Y-87195558D01*
X131939887Y-87251077D01*
X131939882Y-87251081D01*
X131878064Y-87312900D01*
X131828080Y-87362884D01*
X131828078Y-87362886D01*
X130856031Y-88334934D01*
X129911784Y-89279181D01*
X129850461Y-89312666D01*
X129824103Y-89315500D01*
X129332097Y-89315500D01*
X129265058Y-89295815D01*
X129244416Y-89279181D01*
X126462974Y-86497739D01*
X126429489Y-86436416D01*
X126429038Y-86434249D01*
X126410754Y-86342335D01*
X126398137Y-86278903D01*
X126378027Y-86230353D01*
X126337797Y-86133227D01*
X126337790Y-86133214D01*
X126250189Y-86002111D01*
X126250186Y-86002107D01*
X126138692Y-85890613D01*
X126138688Y-85890610D01*
X126007585Y-85803009D01*
X126007572Y-85803002D01*
X125861901Y-85742664D01*
X125861889Y-85742661D01*
X125859582Y-85742202D01*
X125858484Y-85741628D01*
X125856065Y-85740894D01*
X125856204Y-85740435D01*
X125797671Y-85709817D01*
X125763097Y-85649101D01*
X125766836Y-85579332D01*
X125807703Y-85522660D01*
X125842813Y-85503545D01*
X125867808Y-85494800D01*
X126120845Y-85372944D01*
X126358648Y-85223522D01*
X126578225Y-85048415D01*
X126776816Y-84849824D01*
X126951923Y-84630247D01*
X127101345Y-84392444D01*
X127145887Y-84299953D01*
X127850500Y-84299953D01*
X127850500Y-84457646D01*
X127881261Y-84612289D01*
X127881264Y-84612301D01*
X127941602Y-84757972D01*
X127941609Y-84757985D01*
X128029210Y-84889088D01*
X128029213Y-84889092D01*
X128140707Y-85000586D01*
X128140711Y-85000589D01*
X128271814Y-85088190D01*
X128271827Y-85088197D01*
X128417498Y-85148535D01*
X128417503Y-85148537D01*
X128572153Y-85179299D01*
X128572156Y-85179300D01*
X128572158Y-85179300D01*
X128729844Y-85179300D01*
X128729845Y-85179299D01*
X128884497Y-85148537D01*
X129030179Y-85088194D01*
X129161289Y-85000589D01*
X129272789Y-84889089D01*
X129360394Y-84757979D01*
X129420737Y-84612297D01*
X129451500Y-84457642D01*
X129451500Y-84299958D01*
X129451500Y-84299955D01*
X129451499Y-84299953D01*
X129446611Y-84275379D01*
X129420737Y-84145303D01*
X129417670Y-84137899D01*
X129360397Y-83999627D01*
X129360390Y-83999614D01*
X129272789Y-83868511D01*
X129272786Y-83868507D01*
X129161292Y-83757013D01*
X129161288Y-83757010D01*
X129030185Y-83669409D01*
X129030172Y-83669402D01*
X128884501Y-83609064D01*
X128884489Y-83609061D01*
X128729845Y-83578300D01*
X128729842Y-83578300D01*
X128572158Y-83578300D01*
X128572155Y-83578300D01*
X128417510Y-83609061D01*
X128417498Y-83609064D01*
X128271827Y-83669402D01*
X128271814Y-83669409D01*
X128140711Y-83757010D01*
X128140707Y-83757013D01*
X128029213Y-83868507D01*
X128029210Y-83868511D01*
X127941609Y-83999614D01*
X127941602Y-83999627D01*
X127881264Y-84145298D01*
X127881261Y-84145310D01*
X127850500Y-84299953D01*
X127145887Y-84299953D01*
X127157718Y-84275385D01*
X127174727Y-84240065D01*
X127174727Y-84240064D01*
X127176877Y-84235600D01*
X127223201Y-84139407D01*
X127315960Y-83874317D01*
X127378455Y-83600508D01*
X127381792Y-83570897D01*
X127402634Y-83385911D01*
X127409900Y-83321424D01*
X127409900Y-83040574D01*
X127378455Y-82761490D01*
X127315960Y-82487681D01*
X127223201Y-82222591D01*
X127101345Y-81969554D01*
X126951923Y-81731751D01*
X126776816Y-81512174D01*
X126578225Y-81313583D01*
X126552539Y-81293099D01*
X126515106Y-81263247D01*
X126474966Y-81206059D01*
X126472116Y-81136247D01*
X126507462Y-81075977D01*
X126569781Y-81044384D01*
X126592419Y-81042300D01*
X133786503Y-81042300D01*
X133853542Y-81061985D01*
X133874184Y-81078619D01*
X135879584Y-83084019D01*
X135913069Y-83145342D01*
X135908085Y-83215034D01*
X135866213Y-83270967D01*
X135800749Y-83295384D01*
X135791903Y-83295700D01*
X134183766Y-83295700D01*
X134116727Y-83276015D01*
X134114875Y-83274802D01*
X133983185Y-83186809D01*
X133983172Y-83186802D01*
X133837501Y-83126464D01*
X133837489Y-83126461D01*
X133682845Y-83095700D01*
X133682842Y-83095700D01*
X133525158Y-83095700D01*
X133525155Y-83095700D01*
X133370510Y-83126461D01*
X133370498Y-83126464D01*
X133224827Y-83186802D01*
X133224814Y-83186809D01*
X133093711Y-83274410D01*
X133093707Y-83274413D01*
X132982213Y-83385907D01*
X132982210Y-83385911D01*
X132894609Y-83517014D01*
X132894602Y-83517027D01*
X132834264Y-83662698D01*
X132834261Y-83662710D01*
X132803500Y-83817353D01*
X132803500Y-83975046D01*
X132834261Y-84129689D01*
X132834264Y-84129701D01*
X132894602Y-84275372D01*
X132894609Y-84275385D01*
X132982210Y-84406488D01*
X132982212Y-84406491D01*
X133093707Y-84517986D01*
X133093711Y-84517989D01*
X133224814Y-84605590D01*
X133224827Y-84605597D01*
X133370498Y-84665935D01*
X133370503Y-84665937D01*
X133525153Y-84696699D01*
X133525156Y-84696700D01*
X133525158Y-84696700D01*
X133682844Y-84696700D01*
X133682845Y-84696699D01*
X133837497Y-84665937D01*
X133966987Y-84612301D01*
X133983172Y-84605597D01*
X133983172Y-84605596D01*
X133983179Y-84605594D01*
X134041903Y-84566356D01*
X134114875Y-84517598D01*
X134181553Y-84496720D01*
X134183766Y-84496700D01*
X135716903Y-84496700D01*
X135783942Y-84516385D01*
X135804584Y-84533019D01*
X136777181Y-85505616D01*
X136810666Y-85566939D01*
X136813500Y-85593297D01*
X136813500Y-93357100D01*
X136810949Y-93365785D01*
X136812238Y-93374747D01*
X136801259Y-93398787D01*
X136793815Y-93424139D01*
X136786974Y-93430066D01*
X136783213Y-93438303D01*
X136760978Y-93452592D01*
X136741011Y-93469894D01*
X136730496Y-93472181D01*
X136724435Y-93476077D01*
X136689500Y-93481100D01*
X136687947Y-93481100D01*
X136620908Y-93461415D01*
X136575153Y-93408611D01*
X136566330Y-93381294D01*
X136558137Y-93340103D01*
X136543051Y-93303682D01*
X136497797Y-93194427D01*
X136497790Y-93194414D01*
X136410189Y-93063311D01*
X136410186Y-93063307D01*
X136298692Y-92951813D01*
X136298688Y-92951810D01*
X136167585Y-92864209D01*
X136167572Y-92864202D01*
X136021901Y-92803864D01*
X136021889Y-92803861D01*
X135867245Y-92773100D01*
X135867242Y-92773100D01*
X135709558Y-92773100D01*
X135709555Y-92773100D01*
X135554910Y-92803861D01*
X135554898Y-92803864D01*
X135409227Y-92864202D01*
X135409214Y-92864209D01*
X135278111Y-92951810D01*
X135278107Y-92951813D01*
X135166613Y-93063307D01*
X135166610Y-93063311D01*
X135079009Y-93194414D01*
X135079002Y-93194427D01*
X135018664Y-93340098D01*
X135018661Y-93340110D01*
X134987900Y-93494753D01*
X134987900Y-93652446D01*
X135018661Y-93807089D01*
X135018664Y-93807101D01*
X135079002Y-93952772D01*
X135079009Y-93952784D01*
X135166610Y-94083888D01*
X135166613Y-94083892D01*
X135278107Y-94195386D01*
X135278111Y-94195389D01*
X135409214Y-94282990D01*
X135409227Y-94282997D01*
X135554898Y-94343335D01*
X135554903Y-94343337D01*
X135619547Y-94356195D01*
X135710249Y-94374238D01*
X135727005Y-94383002D01*
X135745485Y-94387023D01*
X135770523Y-94405767D01*
X135772160Y-94406623D01*
X135773739Y-94408174D01*
X135811539Y-94445974D01*
X135811549Y-94445985D01*
X135815879Y-94450315D01*
X135815880Y-94450316D01*
X135927684Y-94562120D01*
X135927686Y-94562121D01*
X135927690Y-94562124D01*
X136034876Y-94624007D01*
X136064616Y-94641177D01*
X136148911Y-94663763D01*
X136208571Y-94700128D01*
X136239100Y-94762975D01*
X136230805Y-94832350D01*
X136186320Y-94886228D01*
X136185709Y-94886640D01*
X136116307Y-94933013D01*
X136004813Y-95044507D01*
X136004810Y-95044511D01*
X135917209Y-95175614D01*
X135917202Y-95175627D01*
X135856864Y-95321298D01*
X135856861Y-95321310D01*
X135826100Y-95475953D01*
X135826100Y-95633646D01*
X135856861Y-95788289D01*
X135856864Y-95788301D01*
X135917202Y-95933972D01*
X135917209Y-95933985D01*
X136004810Y-96065088D01*
X136004813Y-96065092D01*
X136116307Y-96176586D01*
X136116311Y-96176589D01*
X136247414Y-96264190D01*
X136247427Y-96264197D01*
X136374465Y-96316817D01*
X136393103Y-96324537D01*
X136547753Y-96355299D01*
X136547756Y-96355300D01*
X136547758Y-96355300D01*
X136705444Y-96355300D01*
X136705445Y-96355299D01*
X136860097Y-96324537D01*
X136995036Y-96268644D01*
X137005772Y-96264197D01*
X137005772Y-96264196D01*
X137005779Y-96264194D01*
X137136889Y-96176589D01*
X137248389Y-96065089D01*
X137335994Y-95933979D01*
X137396337Y-95788297D01*
X137427100Y-95633642D01*
X137427100Y-95475958D01*
X137427100Y-95475955D01*
X137427099Y-95475953D01*
X137418073Y-95430579D01*
X137396337Y-95321303D01*
X137387386Y-95299693D01*
X137335997Y-95175627D01*
X137335990Y-95175614D01*
X137248389Y-95044511D01*
X137248386Y-95044507D01*
X137136892Y-94933013D01*
X137136888Y-94933010D01*
X137096573Y-94906072D01*
X137051768Y-94852459D01*
X137043061Y-94783134D01*
X137073216Y-94720107D01*
X137132659Y-94683388D01*
X137133370Y-94683195D01*
X137137453Y-94682101D01*
X137137457Y-94682101D01*
X137290185Y-94641177D01*
X137358507Y-94601731D01*
X137427116Y-94562120D01*
X137538920Y-94450316D01*
X137538920Y-94450314D01*
X137549124Y-94440111D01*
X137549128Y-94440106D01*
X137782713Y-94206521D01*
X137782716Y-94206520D01*
X137894520Y-94094716D01*
X137922259Y-94046669D01*
X137930467Y-94037369D01*
X137949951Y-94025094D01*
X137966617Y-94009204D01*
X137978953Y-94006825D01*
X137989585Y-94000129D01*
X138012612Y-94000337D01*
X138019809Y-93998950D01*
X138009198Y-93990189D01*
X138003001Y-93970803D01*
X137992308Y-93953492D01*
X137992259Y-93937198D01*
X137987925Y-93923637D01*
X137992115Y-93888598D01*
X138005493Y-93838670D01*
X138013193Y-93809937D01*
X138013193Y-93809935D01*
X138013952Y-93807101D01*
X138014500Y-93805058D01*
X138014500Y-93646943D01*
X138014500Y-92786141D01*
X138034185Y-92719102D01*
X138086989Y-92673347D01*
X138156147Y-92663403D01*
X138219703Y-92692428D01*
X138226181Y-92698460D01*
X138249907Y-92722186D01*
X138249911Y-92722189D01*
X138381014Y-92809790D01*
X138381027Y-92809797D01*
X138512384Y-92864206D01*
X138526703Y-92870137D01*
X138681358Y-92900900D01*
X138682047Y-92901037D01*
X138743958Y-92933422D01*
X138745537Y-92934973D01*
X138797884Y-92987320D01*
X138797886Y-92987321D01*
X138797890Y-92987324D01*
X138934809Y-93066373D01*
X138934816Y-93066377D01*
X139034477Y-93093081D01*
X139087542Y-93107300D01*
X139087543Y-93107300D01*
X139765731Y-93107300D01*
X139765747Y-93107301D01*
X139773343Y-93107301D01*
X139931454Y-93107301D01*
X139931457Y-93107301D01*
X140084185Y-93066377D01*
X140164955Y-93019744D01*
X140221116Y-92987320D01*
X140332920Y-92875516D01*
X140332920Y-92875514D01*
X140343124Y-92865311D01*
X140343128Y-92865306D01*
X140541106Y-92667328D01*
X140541111Y-92667324D01*
X140551314Y-92657120D01*
X140551316Y-92657120D01*
X140663120Y-92545316D01*
X140723635Y-92440500D01*
X140742177Y-92408385D01*
X140783100Y-92255658D01*
X140783100Y-92097543D01*
X140783100Y-87195553D01*
X146189300Y-87195553D01*
X146189300Y-87353246D01*
X146220061Y-87507889D01*
X146220064Y-87507901D01*
X146280402Y-87653572D01*
X146280409Y-87653585D01*
X146368010Y-87784688D01*
X146368013Y-87784692D01*
X146479507Y-87896186D01*
X146479511Y-87896189D01*
X146610614Y-87983790D01*
X146610627Y-87983797D01*
X146756298Y-88044135D01*
X146756303Y-88044137D01*
X146910953Y-88074899D01*
X146910956Y-88074900D01*
X146910958Y-88074900D01*
X147068644Y-88074900D01*
X147068645Y-88074899D01*
X147223297Y-88044137D01*
X147368979Y-87983794D01*
X147500089Y-87896189D01*
X147611589Y-87784689D01*
X147699194Y-87653579D01*
X147759537Y-87507897D01*
X147790300Y-87353242D01*
X147790300Y-87195558D01*
X147790300Y-87195557D01*
X147790300Y-87195555D01*
X147790299Y-87195553D01*
X147777478Y-87131099D01*
X147759537Y-87040903D01*
X147751992Y-87022688D01*
X147699197Y-86895227D01*
X147699190Y-86895214D01*
X147611589Y-86764111D01*
X147611586Y-86764107D01*
X147570881Y-86723402D01*
X147537396Y-86662079D01*
X147542380Y-86592387D01*
X147584252Y-86536454D01*
X147589651Y-86532632D01*
X147601689Y-86524589D01*
X147713189Y-86413089D01*
X147800794Y-86281979D01*
X147861137Y-86136297D01*
X147891900Y-85981642D01*
X147891900Y-85823958D01*
X147891900Y-85823955D01*
X147891899Y-85823953D01*
X147885830Y-85793444D01*
X147861137Y-85669303D01*
X147853164Y-85650054D01*
X147800797Y-85523627D01*
X147800790Y-85523614D01*
X147713189Y-85392511D01*
X147713186Y-85392507D01*
X147601692Y-85281013D01*
X147601688Y-85281010D01*
X147470585Y-85193409D01*
X147470572Y-85193402D01*
X147324901Y-85133064D01*
X147324889Y-85133061D01*
X147170245Y-85102300D01*
X147170242Y-85102300D01*
X147012558Y-85102300D01*
X147012555Y-85102300D01*
X146857910Y-85133061D01*
X146857898Y-85133064D01*
X146712227Y-85193402D01*
X146712214Y-85193409D01*
X146581111Y-85281010D01*
X146581107Y-85281013D01*
X146469613Y-85392507D01*
X146469610Y-85392511D01*
X146382009Y-85523614D01*
X146382002Y-85523627D01*
X146321664Y-85669298D01*
X146321661Y-85669310D01*
X146290900Y-85823953D01*
X146290900Y-85981646D01*
X146321661Y-86136289D01*
X146321664Y-86136301D01*
X146382002Y-86281972D01*
X146382009Y-86281985D01*
X146469610Y-86413088D01*
X146469613Y-86413092D01*
X146510318Y-86453797D01*
X146543803Y-86515120D01*
X146538819Y-86584812D01*
X146496947Y-86640745D01*
X146491533Y-86644577D01*
X146479511Y-86652610D01*
X146479507Y-86652613D01*
X146368013Y-86764107D01*
X146368010Y-86764111D01*
X146280409Y-86895214D01*
X146280402Y-86895227D01*
X146220064Y-87040898D01*
X146220061Y-87040910D01*
X146189300Y-87195553D01*
X140783100Y-87195553D01*
X140783100Y-85707029D01*
X140802785Y-85639990D01*
X140855589Y-85594235D01*
X140924747Y-85584291D01*
X140988303Y-85613316D01*
X141021661Y-85659577D01*
X141048002Y-85723172D01*
X141048009Y-85723185D01*
X141135610Y-85854288D01*
X141135613Y-85854292D01*
X141247107Y-85965786D01*
X141247111Y-85965789D01*
X141378214Y-86053390D01*
X141378227Y-86053397D01*
X141523898Y-86113735D01*
X141523903Y-86113737D01*
X141678553Y-86144499D01*
X141678556Y-86144500D01*
X141678558Y-86144500D01*
X141836244Y-86144500D01*
X141836245Y-86144499D01*
X141990897Y-86113737D01*
X142136579Y-86053394D01*
X142267689Y-85965789D01*
X142379189Y-85854289D01*
X142399459Y-85823953D01*
X143852500Y-85823953D01*
X143852500Y-85981646D01*
X143883261Y-86136289D01*
X143883264Y-86136301D01*
X143943602Y-86281972D01*
X143943609Y-86281985D01*
X144031210Y-86413088D01*
X144031213Y-86413092D01*
X144142707Y-86524586D01*
X144142711Y-86524589D01*
X144273814Y-86612190D01*
X144273827Y-86612197D01*
X144394255Y-86662079D01*
X144419503Y-86672537D01*
X144574153Y-86703299D01*
X144574156Y-86703300D01*
X144574158Y-86703300D01*
X144731844Y-86703300D01*
X144731845Y-86703299D01*
X144886497Y-86672537D01*
X145032179Y-86612194D01*
X145163289Y-86524589D01*
X145274789Y-86413089D01*
X145362394Y-86281979D01*
X145422737Y-86136297D01*
X145453500Y-85981642D01*
X145453500Y-85823958D01*
X145453500Y-85823955D01*
X145453499Y-85823953D01*
X145447430Y-85793444D01*
X145422737Y-85669303D01*
X145414764Y-85650054D01*
X145362397Y-85523627D01*
X145362390Y-85523614D01*
X145274789Y-85392511D01*
X145274786Y-85392507D01*
X145163292Y-85281013D01*
X145163288Y-85281010D01*
X145032185Y-85193409D01*
X145032172Y-85193402D01*
X144886501Y-85133064D01*
X144886489Y-85133061D01*
X144731845Y-85102300D01*
X144731842Y-85102300D01*
X144574158Y-85102300D01*
X144574155Y-85102300D01*
X144419510Y-85133061D01*
X144419498Y-85133064D01*
X144273827Y-85193402D01*
X144273814Y-85193409D01*
X144142711Y-85281010D01*
X144142707Y-85281013D01*
X144031213Y-85392507D01*
X144031210Y-85392511D01*
X143943609Y-85523614D01*
X143943602Y-85523627D01*
X143883264Y-85669298D01*
X143883261Y-85669310D01*
X143852500Y-85823953D01*
X142399459Y-85823953D01*
X142451043Y-85746753D01*
X142458511Y-85735575D01*
X142466794Y-85723179D01*
X142473484Y-85707029D01*
X142497083Y-85650054D01*
X142527137Y-85577497D01*
X142557900Y-85422842D01*
X142557900Y-85265158D01*
X142557900Y-85265155D01*
X142557899Y-85265153D01*
X142549618Y-85223522D01*
X142527137Y-85110503D01*
X142527135Y-85110498D01*
X142466797Y-84964827D01*
X142466790Y-84964814D01*
X142379189Y-84833711D01*
X142379186Y-84833707D01*
X142267692Y-84722213D01*
X142267688Y-84722210D01*
X142136585Y-84634609D01*
X142136572Y-84634602D01*
X141990901Y-84574264D01*
X141990889Y-84574261D01*
X141836245Y-84543500D01*
X141836242Y-84543500D01*
X141678558Y-84543500D01*
X141678555Y-84543500D01*
X141523910Y-84574261D01*
X141523898Y-84574264D01*
X141378227Y-84634602D01*
X141378214Y-84634609D01*
X141247111Y-84722210D01*
X141247107Y-84722213D01*
X141135613Y-84833707D01*
X141135610Y-84833711D01*
X141048009Y-84964814D01*
X141048004Y-84964823D01*
X141021661Y-85028423D01*
X140977820Y-85082826D01*
X140911526Y-85104891D01*
X140843827Y-85087612D01*
X140796216Y-85036475D01*
X140783100Y-84980970D01*
X140783100Y-82113765D01*
X140802785Y-82046726D01*
X140803998Y-82044874D01*
X140891990Y-81913185D01*
X140891990Y-81913184D01*
X140891994Y-81913179D01*
X140952337Y-81767497D01*
X140983100Y-81612842D01*
X140983100Y-81455158D01*
X140983100Y-81455155D01*
X140983099Y-81455153D01*
X140969558Y-81387077D01*
X140952337Y-81300503D01*
X140905882Y-81188352D01*
X140902375Y-81155724D01*
X140897706Y-81123253D01*
X140898659Y-81121165D01*
X140898414Y-81118883D01*
X140913102Y-81089539D01*
X140926731Y-81059697D01*
X140928661Y-81058456D01*
X140929689Y-81056404D01*
X140957904Y-81039663D01*
X140985509Y-81021923D01*
X140988538Y-81021487D01*
X140989778Y-81020752D01*
X141020444Y-81016900D01*
X141131961Y-81016900D01*
X141199000Y-81036585D01*
X141244755Y-81089389D01*
X141254699Y-81158547D01*
X141253578Y-81165091D01*
X141236300Y-81251953D01*
X141236300Y-81409646D01*
X141267061Y-81564289D01*
X141267064Y-81564301D01*
X141327402Y-81709972D01*
X141327409Y-81709985D01*
X141415010Y-81841088D01*
X141415013Y-81841092D01*
X141526507Y-81952586D01*
X141526511Y-81952589D01*
X141657614Y-82040190D01*
X141657627Y-82040197D01*
X141773270Y-82088097D01*
X141803303Y-82100537D01*
X141930987Y-82125935D01*
X141957953Y-82131299D01*
X141957956Y-82131300D01*
X141957958Y-82131300D01*
X142115644Y-82131300D01*
X142115645Y-82131299D01*
X142270297Y-82100537D01*
X142400209Y-82046726D01*
X142415972Y-82040197D01*
X142415972Y-82040196D01*
X142415979Y-82040194D01*
X142547089Y-81952589D01*
X142658589Y-81841089D01*
X142746194Y-81709979D01*
X142806537Y-81564297D01*
X142837300Y-81409642D01*
X142837300Y-81251958D01*
X142837300Y-81251955D01*
X142837299Y-81251953D01*
X142820022Y-81165091D01*
X142826249Y-81095499D01*
X142869112Y-81040322D01*
X142935002Y-81017078D01*
X142941639Y-81016900D01*
X147893414Y-81016900D01*
X147960453Y-81036585D01*
X148006208Y-81089389D01*
X148016152Y-81158547D01*
X148015031Y-81165092D01*
X147992700Y-81277355D01*
X147992700Y-81435046D01*
X148023461Y-81589689D01*
X148023464Y-81589701D01*
X148083802Y-81735372D01*
X148083809Y-81735385D01*
X148171410Y-81866488D01*
X148171413Y-81866492D01*
X148282907Y-81977986D01*
X148282911Y-81977989D01*
X148414014Y-82065590D01*
X148414027Y-82065597D01*
X148530317Y-82113765D01*
X148559703Y-82125937D01*
X148706018Y-82155041D01*
X148714353Y-82156699D01*
X148714356Y-82156700D01*
X148714358Y-82156700D01*
X148872044Y-82156700D01*
X148872045Y-82156699D01*
X149026697Y-82125937D01*
X149172379Y-82065594D01*
X149303489Y-81977989D01*
X149414989Y-81866489D01*
X149502594Y-81735379D01*
X149562937Y-81589697D01*
X149593700Y-81435042D01*
X149593700Y-81277358D01*
X149593700Y-81277355D01*
X149571369Y-81165092D01*
X149573246Y-81144107D01*
X149570248Y-81123253D01*
X149576298Y-81110005D01*
X149577596Y-81095500D01*
X149590520Y-81078862D01*
X149599273Y-81059697D01*
X149611525Y-81051822D01*
X149620459Y-81040323D01*
X149640325Y-81033314D01*
X149658051Y-81021923D01*
X149682634Y-81018388D01*
X149686349Y-81017078D01*
X149692986Y-81016900D01*
X149788503Y-81016900D01*
X149855542Y-81036585D01*
X149876184Y-81053219D01*
X150823381Y-82000416D01*
X150856866Y-82061739D01*
X150859700Y-82088097D01*
X150859700Y-84063530D01*
X150859699Y-84063548D01*
X150859699Y-84229254D01*
X150859698Y-84229254D01*
X150884343Y-84321228D01*
X150900623Y-84381985D01*
X150914771Y-84406489D01*
X150944304Y-84457642D01*
X150979679Y-84518915D01*
X151098549Y-84637785D01*
X151098555Y-84637790D01*
X151871471Y-85410706D01*
X151904956Y-85472029D01*
X151899972Y-85541721D01*
X151858100Y-85597654D01*
X151792636Y-85622071D01*
X151724363Y-85607219D01*
X151714901Y-85601490D01*
X151712388Y-85599811D01*
X151712372Y-85599802D01*
X151566701Y-85539464D01*
X151566689Y-85539461D01*
X151412045Y-85508700D01*
X151412042Y-85508700D01*
X151254358Y-85508700D01*
X151254355Y-85508700D01*
X151099710Y-85539461D01*
X151099698Y-85539464D01*
X150954027Y-85599802D01*
X150954014Y-85599809D01*
X150822911Y-85687410D01*
X150822907Y-85687413D01*
X150798581Y-85711740D01*
X150737258Y-85745225D01*
X150667566Y-85740241D01*
X150623219Y-85711740D01*
X150598892Y-85687413D01*
X150598888Y-85687410D01*
X150467785Y-85599809D01*
X150467772Y-85599802D01*
X150322101Y-85539464D01*
X150322089Y-85539461D01*
X150167445Y-85508700D01*
X150167442Y-85508700D01*
X150009758Y-85508700D01*
X150009755Y-85508700D01*
X149855110Y-85539461D01*
X149855098Y-85539464D01*
X149709427Y-85599802D01*
X149709414Y-85599809D01*
X149585991Y-85682279D01*
X149519314Y-85703157D01*
X149451933Y-85684673D01*
X149448209Y-85682279D01*
X149324785Y-85599809D01*
X149324772Y-85599802D01*
X149179101Y-85539464D01*
X149179089Y-85539461D01*
X149024445Y-85508700D01*
X149024442Y-85508700D01*
X148866758Y-85508700D01*
X148866755Y-85508700D01*
X148712110Y-85539461D01*
X148712098Y-85539464D01*
X148566427Y-85599802D01*
X148566414Y-85599809D01*
X148435311Y-85687410D01*
X148435307Y-85687413D01*
X148323813Y-85798907D01*
X148323810Y-85798911D01*
X148236209Y-85930014D01*
X148236202Y-85930027D01*
X148175864Y-86075698D01*
X148175861Y-86075710D01*
X148145100Y-86230353D01*
X148145100Y-86388046D01*
X148175861Y-86542689D01*
X148175864Y-86542701D01*
X148236202Y-86688372D01*
X148236209Y-86688385D01*
X148323810Y-86819488D01*
X148323813Y-86819492D01*
X148435307Y-86930986D01*
X148435311Y-86930989D01*
X148566414Y-87018590D01*
X148566427Y-87018597D01*
X148712098Y-87078935D01*
X148712103Y-87078937D01*
X148866753Y-87109699D01*
X148866756Y-87109700D01*
X148866758Y-87109700D01*
X149024444Y-87109700D01*
X149024445Y-87109699D01*
X149179097Y-87078937D01*
X149291766Y-87032267D01*
X149324772Y-87018597D01*
X149324772Y-87018596D01*
X149324779Y-87018594D01*
X149448210Y-86936119D01*
X149514886Y-86915242D01*
X149582266Y-86933726D01*
X149585966Y-86936104D01*
X149709421Y-87018594D01*
X149709423Y-87018595D01*
X149709427Y-87018597D01*
X149855098Y-87078935D01*
X149855103Y-87078937D01*
X150009753Y-87109699D01*
X150009756Y-87109700D01*
X150009758Y-87109700D01*
X150167444Y-87109700D01*
X150167445Y-87109699D01*
X150322097Y-87078937D01*
X150434766Y-87032267D01*
X150467772Y-87018597D01*
X150467772Y-87018596D01*
X150467779Y-87018594D01*
X150539809Y-86970464D01*
X150606486Y-86949587D01*
X150673866Y-86968071D01*
X150720557Y-87020050D01*
X150732700Y-87073567D01*
X150732700Y-90936703D01*
X150713015Y-91003742D01*
X150696381Y-91024384D01*
X147889539Y-93831225D01*
X147828216Y-93864710D01*
X147826050Y-93865161D01*
X147670708Y-93896061D01*
X147670698Y-93896064D01*
X147525027Y-93956402D01*
X147525014Y-93956409D01*
X147393911Y-94044010D01*
X147393907Y-94044013D01*
X147282413Y-94155507D01*
X147282410Y-94155511D01*
X147194809Y-94286614D01*
X147194802Y-94286627D01*
X147134464Y-94432298D01*
X147134461Y-94432310D01*
X147103700Y-94586953D01*
X147103700Y-94744646D01*
X147134461Y-94899289D01*
X147134464Y-94899301D01*
X147194802Y-95044972D01*
X147194809Y-95044985D01*
X147282410Y-95176088D01*
X147282413Y-95176092D01*
X147393910Y-95287589D01*
X147461466Y-95332728D01*
X147506271Y-95386340D01*
X147514978Y-95455665D01*
X147507137Y-95483280D01*
X147490063Y-95524501D01*
X147490060Y-95524511D01*
X147459300Y-95679153D01*
X147459300Y-95836846D01*
X147490061Y-95991489D01*
X147490064Y-95991501D01*
X147550402Y-96137172D01*
X147550409Y-96137185D01*
X147638010Y-96268288D01*
X147638013Y-96268292D01*
X147749507Y-96379786D01*
X147749511Y-96379789D01*
X147880614Y-96467390D01*
X147880627Y-96467397D01*
X148026298Y-96527735D01*
X148026303Y-96527737D01*
X148180953Y-96558499D01*
X148180956Y-96558500D01*
X148180958Y-96558500D01*
X148338644Y-96558500D01*
X148338645Y-96558499D01*
X148493297Y-96527737D01*
X148638979Y-96467394D01*
X148770089Y-96379789D01*
X148881589Y-96268289D01*
X148969194Y-96137179D01*
X149029537Y-95991497D01*
X149060300Y-95836842D01*
X149060300Y-95679158D01*
X149060300Y-95679155D01*
X149037987Y-95566986D01*
X149029537Y-95524503D01*
X149018267Y-95497294D01*
X148969197Y-95378827D01*
X148969190Y-95378814D01*
X148911331Y-95292222D01*
X148881589Y-95247711D01*
X148881586Y-95247707D01*
X148770092Y-95136213D01*
X148770088Y-95136210D01*
X148702533Y-95091071D01*
X148657728Y-95037459D01*
X148649021Y-94968134D01*
X148651136Y-94957856D01*
X148653358Y-94948977D01*
X148673937Y-94899297D01*
X148704700Y-94744642D01*
X148704700Y-94743888D01*
X148706167Y-94738028D01*
X148722385Y-94710403D01*
X148737223Y-94682039D01*
X148738719Y-94680515D01*
X151701913Y-91717321D01*
X151701916Y-91717320D01*
X151813720Y-91605516D01*
X151863839Y-91518704D01*
X151892777Y-91468585D01*
X151933700Y-91315858D01*
X151933700Y-91157743D01*
X151933700Y-90548353D01*
X152971100Y-90548353D01*
X152971100Y-90706046D01*
X153001861Y-90860689D01*
X153001864Y-90860701D01*
X153062202Y-91006372D01*
X153062209Y-91006385D01*
X153149810Y-91137488D01*
X153149813Y-91137492D01*
X153261307Y-91248986D01*
X153261311Y-91248989D01*
X153392414Y-91336590D01*
X153392427Y-91336597D01*
X153523784Y-91391006D01*
X153538103Y-91396937D01*
X153692753Y-91427699D01*
X153692756Y-91427700D01*
X153692758Y-91427700D01*
X153850444Y-91427700D01*
X153850445Y-91427699D01*
X154005097Y-91396937D01*
X154140036Y-91341044D01*
X154150772Y-91336597D01*
X154150772Y-91336596D01*
X154150779Y-91336594D01*
X154281889Y-91248989D01*
X154393389Y-91137489D01*
X154480994Y-91006379D01*
X154541337Y-90860697D01*
X154572100Y-90706042D01*
X154572100Y-90548358D01*
X154572100Y-90548355D01*
X154572099Y-90548353D01*
X154556942Y-90472153D01*
X154541337Y-90393703D01*
X154515739Y-90331904D01*
X154480997Y-90248027D01*
X154480990Y-90248014D01*
X154393389Y-90116911D01*
X154393386Y-90116907D01*
X154281892Y-90005413D01*
X154281888Y-90005410D01*
X154150785Y-89917809D01*
X154150772Y-89917802D01*
X154005101Y-89857464D01*
X154005089Y-89857461D01*
X153850445Y-89826700D01*
X153850442Y-89826700D01*
X153692758Y-89826700D01*
X153692755Y-89826700D01*
X153538110Y-89857461D01*
X153538098Y-89857464D01*
X153392427Y-89917802D01*
X153392414Y-89917809D01*
X153261311Y-90005410D01*
X153261307Y-90005413D01*
X153149813Y-90116907D01*
X153149810Y-90116911D01*
X153062209Y-90248014D01*
X153062202Y-90248027D01*
X153001864Y-90393698D01*
X153001861Y-90393710D01*
X152971100Y-90548353D01*
X151933700Y-90548353D01*
X151933700Y-90104586D01*
X151953385Y-90037547D01*
X152006189Y-89991792D01*
X152075347Y-89981848D01*
X152081892Y-89982969D01*
X152194155Y-90005300D01*
X152194158Y-90005300D01*
X152351844Y-90005300D01*
X152351845Y-90005299D01*
X152506497Y-89974537D01*
X152643459Y-89917806D01*
X152652172Y-89914197D01*
X152652172Y-89914196D01*
X152652179Y-89914194D01*
X152783289Y-89826589D01*
X152894789Y-89715089D01*
X152982394Y-89583979D01*
X153042737Y-89438297D01*
X153073500Y-89283642D01*
X153073500Y-89125958D01*
X153073500Y-89125955D01*
X153073499Y-89125953D01*
X153066365Y-89090087D01*
X153042737Y-88971303D01*
X152988515Y-88840398D01*
X152982397Y-88825627D01*
X152982390Y-88825614D01*
X152894789Y-88694511D01*
X152894786Y-88694507D01*
X152783292Y-88583013D01*
X152783288Y-88583010D01*
X152652185Y-88495409D01*
X152652172Y-88495402D01*
X152506501Y-88435064D01*
X152506489Y-88435061D01*
X152351845Y-88404300D01*
X152351842Y-88404300D01*
X152194158Y-88404300D01*
X152194153Y-88404300D01*
X152081891Y-88426630D01*
X152012299Y-88420403D01*
X151957122Y-88377539D01*
X151933878Y-88311649D01*
X151933700Y-88305013D01*
X151933700Y-86888965D01*
X151953385Y-86821926D01*
X151954598Y-86820074D01*
X152042590Y-86688385D01*
X152042590Y-86688384D01*
X152042594Y-86688379D01*
X152102937Y-86542697D01*
X152133700Y-86388042D01*
X152133700Y-86230358D01*
X152133700Y-86230355D01*
X152133699Y-86230353D01*
X152126545Y-86194386D01*
X152102937Y-86075703D01*
X152093698Y-86053397D01*
X152042597Y-85930027D01*
X152042592Y-85930018D01*
X152040911Y-85927502D01*
X152040434Y-85925981D01*
X152039721Y-85924646D01*
X152039974Y-85924510D01*
X152020032Y-85860825D01*
X152038515Y-85793444D01*
X152090493Y-85746753D01*
X152159463Y-85735575D01*
X152223527Y-85763460D01*
X152231693Y-85770928D01*
X156131981Y-89671216D01*
X156165466Y-89732539D01*
X156168300Y-89758897D01*
X156168300Y-94664723D01*
X156148615Y-94731762D01*
X156095811Y-94777517D01*
X156026653Y-94787461D01*
X155963097Y-94758436D01*
X155956619Y-94752404D01*
X155867466Y-94663251D01*
X155867462Y-94663248D01*
X155703684Y-94553814D01*
X155703671Y-94553807D01*
X155521693Y-94478430D01*
X155521681Y-94478427D01*
X155328495Y-94440000D01*
X154930000Y-94440000D01*
X154930000Y-95140000D01*
X154430000Y-95140000D01*
X154430000Y-94440000D01*
X154031504Y-94440000D01*
X153838318Y-94478427D01*
X153838306Y-94478430D01*
X153656328Y-94553807D01*
X153656315Y-94553814D01*
X153492537Y-94663248D01*
X153492533Y-94663251D01*
X153353251Y-94802533D01*
X153353248Y-94802537D01*
X153243814Y-94966315D01*
X153243807Y-94966328D01*
X153168430Y-95148307D01*
X153168430Y-95148309D01*
X153160138Y-95190000D01*
X153963012Y-95190000D01*
X153945795Y-95199940D01*
X153889940Y-95255795D01*
X153850444Y-95324204D01*
X153830000Y-95400504D01*
X153830000Y-95479496D01*
X153850444Y-95555796D01*
X153889940Y-95624205D01*
X153945795Y-95680060D01*
X153963012Y-95690000D01*
X153160138Y-95690000D01*
X153168430Y-95731690D01*
X153168430Y-95731692D01*
X153243807Y-95913671D01*
X153243814Y-95913684D01*
X153353248Y-96077462D01*
X153353251Y-96077466D01*
X153492533Y-96216748D01*
X153492537Y-96216751D01*
X153656315Y-96326185D01*
X153656328Y-96326192D01*
X153838306Y-96401569D01*
X153838318Y-96401572D01*
X154031504Y-96439999D01*
X154031508Y-96440000D01*
X154430000Y-96440000D01*
X154430000Y-95740000D01*
X154930000Y-95740000D01*
X154930000Y-96373271D01*
X154910315Y-96440310D01*
X154881491Y-96471643D01*
X154876985Y-96475100D01*
X154785103Y-96566982D01*
X154785099Y-96566987D01*
X154720133Y-96679513D01*
X154720132Y-96679514D01*
X154712039Y-96709718D01*
X154686500Y-96805030D01*
X154686500Y-96934970D01*
X154708921Y-97018646D01*
X154720132Y-97060485D01*
X154720133Y-97060486D01*
X154785099Y-97173012D01*
X154785101Y-97173015D01*
X154785102Y-97173016D01*
X154876984Y-97264898D01*
X154876985Y-97264899D01*
X154876987Y-97264900D01*
X154909760Y-97283821D01*
X154989516Y-97329868D01*
X155115030Y-97363500D01*
X155115032Y-97363500D01*
X155244968Y-97363500D01*
X155244970Y-97363500D01*
X155370484Y-97329868D01*
X155483016Y-97264898D01*
X155574898Y-97173016D01*
X155639868Y-97060484D01*
X155673500Y-96934970D01*
X155673500Y-96805030D01*
X155639868Y-96679516D01*
X155602845Y-96615390D01*
X155574900Y-96566987D01*
X155574896Y-96566982D01*
X155573572Y-96565658D01*
X155572811Y-96564265D01*
X155569952Y-96560539D01*
X155570533Y-96560092D01*
X155540087Y-96504335D01*
X155545071Y-96434643D01*
X155586943Y-96378710D01*
X155613802Y-96363415D01*
X155703677Y-96326189D01*
X155703684Y-96326185D01*
X155867462Y-96216751D01*
X155867466Y-96216748D01*
X155956619Y-96127596D01*
X156017942Y-96094111D01*
X156087634Y-96099095D01*
X156143567Y-96140967D01*
X156167984Y-96206431D01*
X156168300Y-96215277D01*
X156168300Y-103304723D01*
X156148615Y-103371762D01*
X156095811Y-103417517D01*
X156026653Y-103427461D01*
X155963097Y-103398436D01*
X155956619Y-103392404D01*
X155867466Y-103303251D01*
X155867462Y-103303248D01*
X155703684Y-103193814D01*
X155703674Y-103193809D01*
X155613801Y-103156582D01*
X155559397Y-103112741D01*
X155537333Y-103046446D01*
X155554613Y-102978747D01*
X155573575Y-102954338D01*
X155574898Y-102953016D01*
X155639868Y-102840484D01*
X155673500Y-102714970D01*
X155673500Y-102585030D01*
X155639868Y-102459516D01*
X155584889Y-102364289D01*
X155574900Y-102346987D01*
X155574896Y-102346982D01*
X155483017Y-102255103D01*
X155483012Y-102255099D01*
X155370486Y-102190133D01*
X155370485Y-102190132D01*
X155328646Y-102178921D01*
X155244970Y-102156500D01*
X155115030Y-102156500D01*
X155052273Y-102173316D01*
X154989514Y-102190132D01*
X154989513Y-102190133D01*
X154876987Y-102255099D01*
X154876982Y-102255103D01*
X154785103Y-102346982D01*
X154785099Y-102346987D01*
X154720133Y-102459513D01*
X154720132Y-102459514D01*
X154705912Y-102512585D01*
X154686500Y-102585030D01*
X154686500Y-102714970D01*
X154689328Y-102725523D01*
X154720132Y-102840485D01*
X154720133Y-102840486D01*
X154785099Y-102953012D01*
X154785100Y-102953013D01*
X154785102Y-102953016D01*
X154876984Y-103044898D01*
X154876987Y-103044900D01*
X154881485Y-103048351D01*
X154922689Y-103104778D01*
X154930000Y-103146728D01*
X154930000Y-103780000D01*
X154430000Y-103780000D01*
X154430000Y-103080000D01*
X154031504Y-103080000D01*
X153838318Y-103118427D01*
X153838306Y-103118430D01*
X153656328Y-103193807D01*
X153656315Y-103193814D01*
X153492537Y-103303248D01*
X153492533Y-103303251D01*
X153353251Y-103442533D01*
X153353248Y-103442537D01*
X153243814Y-103606315D01*
X153243807Y-103606328D01*
X153168430Y-103788307D01*
X153168430Y-103788309D01*
X153160138Y-103830000D01*
X153963012Y-103830000D01*
X153945795Y-103839940D01*
X153889940Y-103895795D01*
X153850444Y-103964204D01*
X153830000Y-104040504D01*
X153830000Y-104119496D01*
X153850444Y-104195796D01*
X153889940Y-104264205D01*
X153945795Y-104320060D01*
X153963012Y-104330000D01*
X153160138Y-104330000D01*
X153168430Y-104371690D01*
X153168430Y-104371692D01*
X153243807Y-104553671D01*
X153243814Y-104553684D01*
X153353248Y-104717462D01*
X153353251Y-104717466D01*
X153492533Y-104856748D01*
X153492537Y-104856751D01*
X153656315Y-104966185D01*
X153656328Y-104966192D01*
X153838306Y-105041569D01*
X153838318Y-105041572D01*
X154031504Y-105079999D01*
X154031508Y-105080000D01*
X154430000Y-105080000D01*
X154430000Y-104380000D01*
X154930000Y-104380000D01*
X154930000Y-105080000D01*
X155328492Y-105080000D01*
X155328495Y-105079999D01*
X155521681Y-105041572D01*
X155521693Y-105041569D01*
X155703671Y-104966192D01*
X155703684Y-104966185D01*
X155867462Y-104856751D01*
X155867466Y-104856748D01*
X155956619Y-104767596D01*
X156017942Y-104734111D01*
X156087634Y-104739095D01*
X156143567Y-104780967D01*
X156167984Y-104846431D01*
X156168300Y-104855277D01*
X156168300Y-108777730D01*
X156168299Y-108777748D01*
X156168299Y-108943454D01*
X156168298Y-108943454D01*
X156194098Y-109039738D01*
X156209223Y-109096185D01*
X156223371Y-109120689D01*
X156233884Y-109138898D01*
X156288279Y-109233115D01*
X156407149Y-109351985D01*
X156407155Y-109351990D01*
X157528981Y-110473816D01*
X157562466Y-110535139D01*
X157565300Y-110561497D01*
X157565300Y-112019549D01*
X157545615Y-112086588D01*
X157492811Y-112132343D01*
X157423653Y-112142287D01*
X157360097Y-112113262D01*
X157344353Y-112096862D01*
X157276816Y-112012174D01*
X157078224Y-111813582D01*
X156991827Y-111744683D01*
X156858648Y-111638476D01*
X156694404Y-111535274D01*
X156620842Y-111489052D01*
X156367811Y-111367199D01*
X156102729Y-111274442D01*
X156102717Y-111274438D01*
X155828912Y-111211944D01*
X155828894Y-111211941D01*
X155549831Y-111180499D01*
X155549825Y-111180499D01*
X155268975Y-111180499D01*
X155268968Y-111180499D01*
X154989905Y-111211941D01*
X154989887Y-111211944D01*
X154716082Y-111274438D01*
X154716070Y-111274442D01*
X154450988Y-111367199D01*
X154197957Y-111489052D01*
X153960153Y-111638475D01*
X153740575Y-111813582D01*
X153541983Y-112012174D01*
X153366876Y-112231752D01*
X153217453Y-112469556D01*
X153095600Y-112722587D01*
X153002843Y-112987669D01*
X153002839Y-112987681D01*
X152940345Y-113261486D01*
X152940342Y-113261504D01*
X152908900Y-113540567D01*
X152908900Y-113821430D01*
X152940342Y-114100493D01*
X152940345Y-114100511D01*
X153002839Y-114374316D01*
X153002843Y-114374328D01*
X153095600Y-114639410D01*
X153217453Y-114892441D01*
X153217455Y-114892444D01*
X153366877Y-115130247D01*
X153452136Y-115237158D01*
X153539166Y-115346291D01*
X153541984Y-115349824D01*
X153740575Y-115548415D01*
X153960152Y-115723522D01*
X154162419Y-115850615D01*
X154197957Y-115872945D01*
X154217871Y-115882535D01*
X154450992Y-115994800D01*
X154650080Y-116064464D01*
X154716070Y-116087555D01*
X154716082Y-116087559D01*
X154989891Y-116150054D01*
X154989897Y-116150054D01*
X154989905Y-116150056D01*
X155175947Y-116171017D01*
X155268969Y-116181498D01*
X155268972Y-116181499D01*
X155268975Y-116181499D01*
X155549828Y-116181499D01*
X155549829Y-116181498D01*
X155692455Y-116165428D01*
X155828894Y-116150056D01*
X155828899Y-116150055D01*
X155828909Y-116150054D01*
X156102718Y-116087559D01*
X156367808Y-115994800D01*
X156620845Y-115872944D01*
X156858648Y-115723522D01*
X157078225Y-115548415D01*
X157276816Y-115349824D01*
X157279629Y-115346297D01*
X157344353Y-115265136D01*
X157367978Y-115248553D01*
X157389789Y-115229654D01*
X157396221Y-115228729D01*
X157401541Y-115224995D01*
X157430378Y-115223817D01*
X157458947Y-115219710D01*
X157464859Y-115222410D01*
X157471353Y-115222145D01*
X157496249Y-115236745D01*
X157522503Y-115248735D01*
X157526016Y-115254202D01*
X157531623Y-115257490D01*
X157544674Y-115283234D01*
X157560277Y-115307513D01*
X157561581Y-115316584D01*
X157563216Y-115319809D01*
X157565300Y-115342448D01*
X157565300Y-115458406D01*
X157545615Y-115525445D01*
X157510193Y-115561506D01*
X157489605Y-115575264D01*
X157477707Y-115583214D01*
X157477704Y-115583217D01*
X157366213Y-115694707D01*
X157366210Y-115694711D01*
X157278609Y-115825814D01*
X157278602Y-115825827D01*
X157218264Y-115971498D01*
X157218261Y-115971510D01*
X157187500Y-116126153D01*
X157187500Y-116283846D01*
X157218261Y-116438489D01*
X157218264Y-116438501D01*
X157278602Y-116584172D01*
X157278609Y-116584185D01*
X157366210Y-116715288D01*
X157366213Y-116715292D01*
X157477707Y-116826786D01*
X157477711Y-116826789D01*
X157608814Y-116914390D01*
X157608827Y-116914397D01*
X157678913Y-116943427D01*
X157754503Y-116974737D01*
X157909153Y-117005499D01*
X157909156Y-117005500D01*
X157909158Y-117005500D01*
X158066844Y-117005500D01*
X158066845Y-117005499D01*
X158221497Y-116974737D01*
X158367179Y-116914394D01*
X158498289Y-116826789D01*
X158609789Y-116715289D01*
X158697394Y-116584179D01*
X158757737Y-116438497D01*
X158788500Y-116283842D01*
X158788500Y-116126158D01*
X158788500Y-116126155D01*
X158768683Y-116026531D01*
X158766300Y-116002339D01*
X158766300Y-114574890D01*
X158785985Y-114507851D01*
X158838789Y-114462096D01*
X158907947Y-114452152D01*
X158914465Y-114453268D01*
X158958845Y-114462096D01*
X158975957Y-114465500D01*
X158975958Y-114465500D01*
X159133644Y-114465500D01*
X159133645Y-114465499D01*
X159288297Y-114434737D01*
X159433979Y-114374394D01*
X159565089Y-114286789D01*
X159676589Y-114175289D01*
X159764194Y-114044179D01*
X159824537Y-113898497D01*
X159855300Y-113743842D01*
X159855300Y-113586158D01*
X159855300Y-113586155D01*
X159855299Y-113586153D01*
X159824538Y-113431510D01*
X159824537Y-113431503D01*
X159782886Y-113330948D01*
X159764197Y-113285827D01*
X159764190Y-113285814D01*
X159676589Y-113154711D01*
X159676586Y-113154707D01*
X159565092Y-113043213D01*
X159565088Y-113043210D01*
X159433985Y-112955609D01*
X159433972Y-112955602D01*
X159288301Y-112895264D01*
X159288289Y-112895261D01*
X159133645Y-112864500D01*
X159133642Y-112864500D01*
X158975958Y-112864500D01*
X158975955Y-112864500D01*
X158914491Y-112876726D01*
X158844900Y-112870499D01*
X158789722Y-112827636D01*
X158766478Y-112761746D01*
X158766300Y-112755109D01*
X158766300Y-110182342D01*
X158764626Y-110176095D01*
X158764625Y-110176093D01*
X158740544Y-110086221D01*
X158732478Y-110056119D01*
X158731345Y-110051888D01*
X158725377Y-110029615D01*
X158725376Y-110029613D01*
X158646324Y-109892690D01*
X158646321Y-109892686D01*
X158646320Y-109892684D01*
X158534516Y-109780880D01*
X158534515Y-109780879D01*
X158530185Y-109776549D01*
X158530174Y-109776539D01*
X157405619Y-108651984D01*
X157372134Y-108590661D01*
X157369300Y-108564303D01*
X157369300Y-104441912D01*
X157388985Y-104374873D01*
X157441789Y-104329118D01*
X157510947Y-104319174D01*
X157574503Y-104348199D01*
X157607861Y-104394460D01*
X157673807Y-104553671D01*
X157673814Y-104553684D01*
X157783248Y-104717462D01*
X157783251Y-104717466D01*
X157922533Y-104856748D01*
X157922537Y-104856751D01*
X158086315Y-104966185D01*
X158086328Y-104966192D01*
X158268306Y-105041569D01*
X158268318Y-105041572D01*
X158461504Y-105079999D01*
X158461508Y-105080000D01*
X158610000Y-105080000D01*
X158610000Y-104380000D01*
X159110000Y-104380000D01*
X159110000Y-105080000D01*
X159258492Y-105080000D01*
X159258495Y-105079999D01*
X159451681Y-105041572D01*
X159451693Y-105041569D01*
X159633671Y-104966192D01*
X159633684Y-104966185D01*
X159797462Y-104856751D01*
X159797466Y-104856748D01*
X159936745Y-104717469D01*
X159939041Y-104714672D01*
X159940615Y-104713599D01*
X159941059Y-104713156D01*
X159941142Y-104713239D01*
X159996785Y-104675333D01*
X160066629Y-104673458D01*
X160126400Y-104709641D01*
X160157120Y-104772395D01*
X160158900Y-104793330D01*
X160158900Y-113928292D01*
X160158782Y-113933701D01*
X160142014Y-114317750D01*
X160141071Y-114328526D01*
X160091250Y-114706954D01*
X160089372Y-114717608D01*
X160006753Y-115090275D01*
X160003953Y-115100723D01*
X159889175Y-115464754D01*
X159885475Y-115474920D01*
X159739402Y-115827571D01*
X159734830Y-115837375D01*
X159558584Y-116175941D01*
X159553176Y-116185309D01*
X159348085Y-116507238D01*
X159341880Y-116516100D01*
X159109511Y-116818928D01*
X159102558Y-116827214D01*
X158844679Y-117108641D01*
X158837029Y-117116290D01*
X158555617Y-117374156D01*
X158547330Y-117381110D01*
X158244497Y-117613481D01*
X158235636Y-117619685D01*
X157913719Y-117824770D01*
X157904351Y-117830179D01*
X157565776Y-118006430D01*
X157555972Y-118011002D01*
X157203321Y-118157075D01*
X157193155Y-118160775D01*
X156829121Y-118275554D01*
X156818672Y-118278354D01*
X156446010Y-118360971D01*
X156435357Y-118362849D01*
X156056926Y-118412671D01*
X156046150Y-118413614D01*
X155662126Y-118430381D01*
X155656717Y-118430499D01*
X124662106Y-118430499D01*
X124656697Y-118430381D01*
X124272649Y-118413613D01*
X124261873Y-118412670D01*
X123883442Y-118362848D01*
X123872789Y-118360970D01*
X123500127Y-118278353D01*
X123489678Y-118275553D01*
X123125645Y-118160774D01*
X123115479Y-118157074D01*
X122762828Y-118011001D01*
X122753024Y-118006429D01*
X122414458Y-117830182D01*
X122405090Y-117824774D01*
X122083161Y-117619684D01*
X122074299Y-117613479D01*
X121811597Y-117411900D01*
X121771460Y-117381102D01*
X121763195Y-117374166D01*
X121620874Y-117243753D01*
X124167500Y-117243753D01*
X124167500Y-117401446D01*
X124198261Y-117556089D01*
X124198264Y-117556101D01*
X124258602Y-117701772D01*
X124258609Y-117701785D01*
X124346210Y-117832888D01*
X124346213Y-117832892D01*
X124457707Y-117944386D01*
X124457711Y-117944389D01*
X124588814Y-118031990D01*
X124588827Y-118031997D01*
X124734498Y-118092335D01*
X124734503Y-118092337D01*
X124889153Y-118123099D01*
X124889156Y-118123100D01*
X124889158Y-118123100D01*
X125046844Y-118123100D01*
X125046845Y-118123099D01*
X125201497Y-118092337D01*
X125347179Y-118031994D01*
X125478289Y-117944389D01*
X125589789Y-117832889D01*
X125677394Y-117701779D01*
X125737737Y-117556097D01*
X125768500Y-117401442D01*
X125768500Y-117243758D01*
X125768500Y-117243755D01*
X125768499Y-117243753D01*
X125744219Y-117121692D01*
X125737737Y-117089103D01*
X125703108Y-117005500D01*
X125677397Y-116943427D01*
X125677390Y-116943414D01*
X125589789Y-116812311D01*
X125589786Y-116812307D01*
X125478292Y-116700813D01*
X125478288Y-116700810D01*
X125347185Y-116613209D01*
X125347172Y-116613202D01*
X125201501Y-116552864D01*
X125201489Y-116552861D01*
X125046845Y-116522100D01*
X125046842Y-116522100D01*
X124889158Y-116522100D01*
X124889155Y-116522100D01*
X124734510Y-116552861D01*
X124734498Y-116552864D01*
X124588827Y-116613202D01*
X124588814Y-116613209D01*
X124457711Y-116700810D01*
X124457707Y-116700813D01*
X124346213Y-116812307D01*
X124346210Y-116812311D01*
X124258609Y-116943414D01*
X124258602Y-116943427D01*
X124198264Y-117089098D01*
X124198261Y-117089110D01*
X124167500Y-117243753D01*
X121620874Y-117243753D01*
X121487665Y-117121689D01*
X121481765Y-117116283D01*
X121474116Y-117108634D01*
X121351420Y-116974735D01*
X121216242Y-116827214D01*
X121209294Y-116818935D01*
X121204211Y-116812311D01*
X120976918Y-116516097D01*
X120970715Y-116507238D01*
X120926922Y-116438497D01*
X120765624Y-116185309D01*
X120760217Y-116175942D01*
X120583967Y-115837369D01*
X120579398Y-115827571D01*
X120433321Y-115474910D01*
X120429625Y-115464754D01*
X120314843Y-115100710D01*
X120312047Y-115090275D01*
X120229426Y-114717597D01*
X120227553Y-114706971D01*
X120177727Y-114328506D01*
X120176787Y-114317771D01*
X120160017Y-113933671D01*
X120159900Y-113928279D01*
X120159900Y-89710153D01*
X121892500Y-89710153D01*
X121892500Y-89867846D01*
X121923261Y-90022489D01*
X121923264Y-90022501D01*
X121983602Y-90168172D01*
X121983609Y-90168185D01*
X122071210Y-90299288D01*
X122071213Y-90299292D01*
X122182707Y-90410786D01*
X122182711Y-90410789D01*
X122313814Y-90498390D01*
X122313827Y-90498397D01*
X122445184Y-90552806D01*
X122459503Y-90558737D01*
X122614153Y-90589499D01*
X122614156Y-90589500D01*
X122614158Y-90589500D01*
X122771844Y-90589500D01*
X122771845Y-90589499D01*
X122926497Y-90558737D01*
X123072179Y-90498394D01*
X123203289Y-90410789D01*
X123314789Y-90299289D01*
X123402394Y-90168179D01*
X123462737Y-90022497D01*
X123493500Y-89867842D01*
X123493500Y-89710158D01*
X123493500Y-89710155D01*
X123493499Y-89710153D01*
X123485754Y-89671216D01*
X123462737Y-89555503D01*
X123430065Y-89476625D01*
X123402397Y-89409827D01*
X123402390Y-89409814D01*
X123314789Y-89278711D01*
X123314786Y-89278707D01*
X123203292Y-89167213D01*
X123203288Y-89167210D01*
X123072185Y-89079609D01*
X123072172Y-89079602D01*
X122926501Y-89019264D01*
X122926489Y-89019261D01*
X122771845Y-88988500D01*
X122771842Y-88988500D01*
X122614158Y-88988500D01*
X122614155Y-88988500D01*
X122459510Y-89019261D01*
X122459498Y-89019264D01*
X122313827Y-89079602D01*
X122313814Y-89079609D01*
X122182711Y-89167210D01*
X122182707Y-89167213D01*
X122071213Y-89278707D01*
X122071210Y-89278711D01*
X121983609Y-89409814D01*
X121983602Y-89409827D01*
X121923264Y-89555498D01*
X121923261Y-89555510D01*
X121892500Y-89710153D01*
X120159900Y-89710153D01*
X120159900Y-82933705D01*
X120160018Y-82928296D01*
X120167301Y-82761486D01*
X120176787Y-82544224D01*
X120177725Y-82533496D01*
X120227551Y-82155032D01*
X120229424Y-82144402D01*
X120312048Y-81771714D01*
X120314846Y-81761276D01*
X120429629Y-81397228D01*
X120433317Y-81387096D01*
X120579403Y-81034412D01*
X120583961Y-81024638D01*
X120760222Y-80686045D01*
X120765617Y-80676700D01*
X120970725Y-80354744D01*
X120976918Y-80345901D01*
X121209296Y-80043060D01*
X121216234Y-80034791D01*
X121474126Y-79753352D01*
X121481752Y-79745726D01*
X121763191Y-79487834D01*
X121771460Y-79480896D01*
X122074309Y-79248511D01*
X122083158Y-79242317D01*
X122405102Y-79037215D01*
X122414423Y-79031833D01*
X122753038Y-78855561D01*
X122762812Y-78851003D01*
X123115495Y-78704917D01*
X123125627Y-78701229D01*
X123489694Y-78586440D01*
X123500108Y-78583649D01*
X123872804Y-78501025D01*
X123883424Y-78499152D01*
X124261894Y-78449326D01*
X124272625Y-78448386D01*
X124656727Y-78431616D01*
X124662120Y-78431499D01*
X124725291Y-78431499D01*
X155593508Y-78431499D01*
X155656694Y-78431499D01*
X155662102Y-78431616D01*
G37*
%TD.AperFunction*%
%TA.AperFunction,Conductor*%
G36*
X157574503Y-95708199D02*
G01*
X157607861Y-95754460D01*
X157673807Y-95913671D01*
X157673814Y-95913684D01*
X157783248Y-96077462D01*
X157783251Y-96077466D01*
X157922533Y-96216748D01*
X157922537Y-96216751D01*
X158086315Y-96326185D01*
X158086328Y-96326192D01*
X158268306Y-96401569D01*
X158268318Y-96401572D01*
X158461504Y-96439999D01*
X158461508Y-96440000D01*
X158610000Y-96440000D01*
X158610000Y-95740000D01*
X159110000Y-95740000D01*
X159110000Y-96440000D01*
X159258492Y-96440000D01*
X159258495Y-96439999D01*
X159451681Y-96401572D01*
X159451693Y-96401569D01*
X159633671Y-96326192D01*
X159633684Y-96326185D01*
X159797462Y-96216751D01*
X159797466Y-96216748D01*
X159936745Y-96077469D01*
X159939041Y-96074672D01*
X159940615Y-96073599D01*
X159941059Y-96073156D01*
X159941142Y-96073239D01*
X159996785Y-96035333D01*
X160066629Y-96033458D01*
X160126400Y-96069641D01*
X160157120Y-96132395D01*
X160158900Y-96153330D01*
X160158900Y-103366669D01*
X160139215Y-103433708D01*
X160086411Y-103479463D01*
X160017253Y-103489407D01*
X159953697Y-103460382D01*
X159939047Y-103445334D01*
X159936749Y-103442534D01*
X159797466Y-103303251D01*
X159797462Y-103303248D01*
X159633684Y-103193814D01*
X159633671Y-103193807D01*
X159451693Y-103118430D01*
X159451681Y-103118427D01*
X159258495Y-103080000D01*
X159110000Y-103080000D01*
X159110000Y-103780000D01*
X158610000Y-103780000D01*
X158610000Y-103080000D01*
X158461504Y-103080000D01*
X158268318Y-103118427D01*
X158268306Y-103118430D01*
X158086328Y-103193807D01*
X158086315Y-103193814D01*
X157922537Y-103303248D01*
X157922533Y-103303251D01*
X157783251Y-103442533D01*
X157783248Y-103442537D01*
X157673814Y-103606315D01*
X157673807Y-103606328D01*
X157607861Y-103765539D01*
X157564020Y-103819943D01*
X157497726Y-103842008D01*
X157430027Y-103824729D01*
X157382416Y-103773592D01*
X157369300Y-103718087D01*
X157369300Y-95801912D01*
X157388985Y-95734873D01*
X157441789Y-95689118D01*
X157510947Y-95679174D01*
X157574503Y-95708199D01*
G37*
%TD.AperFunction*%
%TD*%
M02*
