%TF.GenerationSoftware,KiCad,Pcbnew,9.0.6-9.0.6~ubuntu24.04.1*%
%TF.CreationDate,2025-11-22T16:00:11+08:00*%
%TF.ProjectId,tinybee,74696e79-6265-4652-9e6b-696361645f70,1.1*%
%TF.SameCoordinates,Original*%
%TF.FileFunction,Copper,L1,Top*%
%TF.FilePolarity,Positive*%
%FSLAX46Y46*%
G04 Gerber Fmt 4.6, Leading zero omitted, Abs format (unit mm)*
G04 Created by KiCad (PCBNEW 9.0.6-9.0.6~ubuntu24.04.1) date 2025-11-22 16:00:11*
%MOMM*%
%LPD*%
G01*
G04 APERTURE LIST*
G04 Aperture macros list*
%AMRoundRect*
0 Rectangle with rounded corners*
0 $1 Rounding radius*
0 $2 $3 $4 $5 $6 $7 $8 $9 X,Y pos of 4 corners*
0 Add a 4 corners polygon primitive as box body*
4,1,4,$2,$3,$4,$5,$6,$7,$8,$9,$2,$3,0*
0 Add four circle primitives for the rounded corners*
1,1,$1+$1,$2,$3*
1,1,$1+$1,$4,$5*
1,1,$1+$1,$6,$7*
1,1,$1+$1,$8,$9*
0 Add four rect primitives between the rounded corners*
20,1,$1+$1,$2,$3,$4,$5,0*
20,1,$1+$1,$4,$5,$6,$7,0*
20,1,$1+$1,$6,$7,$8,$9,0*
20,1,$1+$1,$8,$9,$2,$3,0*%
G04 Aperture macros list end*
%TA.AperFunction,SMDPad,CuDef*%
%ADD10C,1.000000*%
%TD*%
%TA.AperFunction,SMDPad,CuDef*%
%ADD11RoundRect,0.135000X-0.135000X-0.185000X0.135000X-0.185000X0.135000X0.185000X-0.135000X0.185000X0*%
%TD*%
%TA.AperFunction,SMDPad,CuDef*%
%ADD12RoundRect,0.150000X-0.150000X-0.625000X0.150000X-0.625000X0.150000X0.625000X-0.150000X0.625000X0*%
%TD*%
%TA.AperFunction,SMDPad,CuDef*%
%ADD13RoundRect,0.250000X-0.350000X-0.650000X0.350000X-0.650000X0.350000X0.650000X-0.350000X0.650000X0*%
%TD*%
%TA.AperFunction,SMDPad,CuDef*%
%ADD14RoundRect,0.135000X-0.185000X0.135000X-0.185000X-0.135000X0.185000X-0.135000X0.185000X0.135000X0*%
%TD*%
%TA.AperFunction,SMDPad,CuDef*%
%ADD15RoundRect,0.075000X-0.700000X-0.075000X0.700000X-0.075000X0.700000X0.075000X-0.700000X0.075000X0*%
%TD*%
%TA.AperFunction,SMDPad,CuDef*%
%ADD16RoundRect,0.075000X-0.075000X-0.700000X0.075000X-0.700000X0.075000X0.700000X-0.075000X0.700000X0*%
%TD*%
%TA.AperFunction,SMDPad,CuDef*%
%ADD17RoundRect,0.140000X0.140000X0.170000X-0.140000X0.170000X-0.140000X-0.170000X0.140000X-0.170000X0*%
%TD*%
%TA.AperFunction,SMDPad,CuDef*%
%ADD18RoundRect,0.135000X0.135000X0.185000X-0.135000X0.185000X-0.135000X-0.185000X0.135000X-0.185000X0*%
%TD*%
%TA.AperFunction,SMDPad,CuDef*%
%ADD19RoundRect,0.135000X0.185000X-0.135000X0.185000X0.135000X-0.185000X0.135000X-0.185000X-0.135000X0*%
%TD*%
%TA.AperFunction,SMDPad,CuDef*%
%ADD20RoundRect,0.140000X-0.170000X0.140000X-0.170000X-0.140000X0.170000X-0.140000X0.170000X0.140000X0*%
%TD*%
%TA.AperFunction,SMDPad,CuDef*%
%ADD21RoundRect,0.150000X0.150000X0.625000X-0.150000X0.625000X-0.150000X-0.625000X0.150000X-0.625000X0*%
%TD*%
%TA.AperFunction,SMDPad,CuDef*%
%ADD22RoundRect,0.250000X0.350000X0.650000X-0.350000X0.650000X-0.350000X-0.650000X0.350000X-0.650000X0*%
%TD*%
%TA.AperFunction,SMDPad,CuDef*%
%ADD23RoundRect,0.147500X-0.147500X-0.172500X0.147500X-0.172500X0.147500X0.172500X-0.147500X0.172500X0*%
%TD*%
%TA.AperFunction,SMDPad,CuDef*%
%ADD24RoundRect,0.150000X0.625000X-0.150000X0.625000X0.150000X-0.625000X0.150000X-0.625000X-0.150000X0*%
%TD*%
%TA.AperFunction,SMDPad,CuDef*%
%ADD25RoundRect,0.250000X0.650000X-0.350000X0.650000X0.350000X-0.650000X0.350000X-0.650000X-0.350000X0*%
%TD*%
%TA.AperFunction,SMDPad,CuDef*%
%ADD26RoundRect,0.105000X-0.395000X-0.245000X0.395000X-0.245000X0.395000X0.245000X-0.395000X0.245000X0*%
%TD*%
%TA.AperFunction,SMDPad,CuDef*%
%ADD27RoundRect,0.087500X-0.087500X0.225000X-0.087500X-0.225000X0.087500X-0.225000X0.087500X0.225000X0*%
%TD*%
%TA.AperFunction,SMDPad,CuDef*%
%ADD28RoundRect,0.087500X-0.225000X0.087500X-0.225000X-0.087500X0.225000X-0.087500X0.225000X0.087500X0*%
%TD*%
%TA.AperFunction,SMDPad,CuDef*%
%ADD29RoundRect,0.140000X-0.140000X-0.170000X0.140000X-0.170000X0.140000X0.170000X-0.140000X0.170000X0*%
%TD*%
%TA.AperFunction,SMDPad,CuDef*%
%ADD30RoundRect,0.162500X0.650000X0.162500X-0.650000X0.162500X-0.650000X-0.162500X0.650000X-0.162500X0*%
%TD*%
%TA.AperFunction,SMDPad,CuDef*%
%ADD31R,0.500000X0.350000*%
%TD*%
%TA.AperFunction,SMDPad,CuDef*%
%ADD32RoundRect,0.150000X-0.150000X0.587500X-0.150000X-0.587500X0.150000X-0.587500X0.150000X0.587500X0*%
%TD*%
%TA.AperFunction,SMDPad,CuDef*%
%ADD33RoundRect,0.140000X0.170000X-0.140000X0.170000X0.140000X-0.170000X0.140000X-0.170000X-0.140000X0*%
%TD*%
%TA.AperFunction,SMDPad,CuDef*%
%ADD34RoundRect,0.105000X0.395000X0.245000X-0.395000X0.245000X-0.395000X-0.245000X0.395000X-0.245000X0*%
%TD*%
%TA.AperFunction,SMDPad,CuDef*%
%ADD35RoundRect,0.250000X-1.000000X-0.650000X1.000000X-0.650000X1.000000X0.650000X-1.000000X0.650000X0*%
%TD*%
%TA.AperFunction,SMDPad,CuDef*%
%ADD36RoundRect,0.250000X-0.350000X0.450000X-0.350000X-0.450000X0.350000X-0.450000X0.350000X0.450000X0*%
%TD*%
%TA.AperFunction,SMDPad,CuDef*%
%ADD37RoundRect,0.150000X0.500000X-0.150000X0.500000X0.150000X-0.500000X0.150000X-0.500000X-0.150000X0*%
%TD*%
%TA.AperFunction,SMDPad,CuDef*%
%ADD38RoundRect,0.075000X0.575000X-0.075000X0.575000X0.075000X-0.575000X0.075000X-0.575000X-0.075000X0*%
%TD*%
%TA.AperFunction,HeatsinkPad*%
%ADD39O,2.100000X1.000000*%
%TD*%
%TA.AperFunction,HeatsinkPad*%
%ADD40O,1.600000X1.000000*%
%TD*%
%TA.AperFunction,ViaPad*%
%ADD41C,0.600000*%
%TD*%
%TA.AperFunction,Conductor*%
%ADD42C,0.200000*%
%TD*%
%TA.AperFunction,Conductor*%
%ADD43C,0.600000*%
%TD*%
%TA.AperFunction,Conductor*%
%ADD44C,0.400000*%
%TD*%
%TA.AperFunction,Conductor*%
%ADD45C,0.500000*%
%TD*%
G04 APERTURE END LIST*
D10*
%TO.P,P2,1,1*%
%TO.N,+5V*%
X155397200Y-79502000D03*
%TD*%
%TO.P,G1,1,1*%
%TO.N,GND*%
X155397200Y-117322600D03*
%TD*%
D11*
%TO.P,R23,1*%
%TO.N,Net-(Q1-B)*%
X133221000Y-81940400D03*
%TO.P,R23,2*%
%TO.N,GND*%
X134241000Y-81940400D03*
%TD*%
D12*
%TO.P,J2,1,Pin_1*%
%TO.N,+5V*%
X132637400Y-113493800D03*
%TO.P,J2,2,Pin_2*%
%TO.N,GND*%
X133637400Y-113493800D03*
%TO.P,J2,3,Pin_3*%
%TO.N,/CONNECTORS/UART2_RX*%
X134637400Y-113493800D03*
%TO.P,J2,4,Pin_4*%
%TO.N,/CONNECTORS/UART2_TX*%
X135637400Y-113493800D03*
D13*
%TO.P,J2,MP,MountPin*%
%TO.N,GND*%
X131337400Y-117368800D03*
X136937400Y-117368800D03*
%TD*%
D14*
%TO.P,R3,1*%
%TO.N,/MCU/BOOT1*%
X141579600Y-103274400D03*
%TO.P,R3,2*%
%TO.N,GND*%
X141579600Y-104294400D03*
%TD*%
D15*
%TO.P,U1,1,VBAT*%
%TO.N,+3V3*%
X134335000Y-91705000D03*
%TO.P,U1,2,PC13*%
%TO.N,/CONNECTORS/BEEPER*%
X134335000Y-92205000D03*
%TO.P,U1,3,PC14*%
%TO.N,/MCU/LED0*%
X134335000Y-92705000D03*
%TO.P,U1,4,PC15*%
%TO.N,/MCU/LED1*%
X134335000Y-93205000D03*
%TO.P,U1,5,PH0*%
%TO.N,/MCU/OSC_IN*%
X134335000Y-93705000D03*
%TO.P,U1,6,PH1*%
%TO.N,/MCU/OSC_OUT*%
X134335000Y-94205000D03*
%TO.P,U1,7,NRST*%
%TO.N,/MCU/NRST*%
X134335000Y-94705000D03*
%TO.P,U1,8,PC0*%
%TO.N,unconnected-(U1-PC0-Pad8)*%
X134335000Y-95205000D03*
%TO.P,U1,9,PC1*%
%TO.N,/MCU/ADC_VBAT*%
X134335000Y-95705000D03*
%TO.P,U1,10,PC2*%
%TO.N,unconnected-(U1-PC2-Pad10)*%
X134335000Y-96205000D03*
%TO.P,U1,11,PC3*%
%TO.N,/CONNECTORS/ADC_CURR*%
X134335000Y-96705000D03*
%TO.P,U1,12,VSSA*%
%TO.N,GND*%
X134335000Y-97205000D03*
%TO.P,U1,13,VDDA*%
%TO.N,+3V3*%
X134335000Y-97705000D03*
%TO.P,U1,14,PA0*%
%TO.N,/CONNECTORS/UART4_TX*%
X134335000Y-98205000D03*
%TO.P,U1,15,PA1*%
%TO.N,/CONNECTORS/UART4_RX*%
X134335000Y-98705000D03*
%TO.P,U1,16,PA2*%
%TO.N,/CONNECTORS/UART2_TX*%
X134335000Y-99205000D03*
D16*
%TO.P,U1,17,PA3*%
%TO.N,/CONNECTORS/UART2_RX*%
X136260000Y-101130000D03*
%TO.P,U1,18,VSS*%
%TO.N,GND*%
X136760000Y-101130000D03*
%TO.P,U1,19,VDD*%
%TO.N,+3V3*%
X137260000Y-101130000D03*
%TO.P,U1,20,PA4*%
%TO.N,/MCU/GYRO_SS*%
X137760000Y-101130000D03*
%TO.P,U1,21,PA5*%
%TO.N,/MCU/GYRO_SCLK*%
X138260000Y-101130000D03*
%TO.P,U1,22,PA6*%
%TO.N,/MCU/GYRO_MISO*%
X138760000Y-101130000D03*
%TO.P,U1,23,PA7*%
%TO.N,/MCU/GYRO_MOSI*%
X139260000Y-101130000D03*
%TO.P,U1,24,PC4*%
%TO.N,/MCU/GYRO_INT*%
X139760000Y-101130000D03*
%TO.P,U1,25,PC5*%
%TO.N,unconnected-(U1-PC5-Pad25)*%
X140260000Y-101130000D03*
%TO.P,U1,26,PB0*%
%TO.N,unconnected-(U1-PB0-Pad26)*%
X140760000Y-101130000D03*
%TO.P,U1,27,PB1*%
%TO.N,unconnected-(U1-PB1-Pad27)*%
X141260000Y-101130000D03*
%TO.P,U1,28,PB2*%
%TO.N,/MCU/BOOT1*%
X141760000Y-101130000D03*
%TO.P,U1,29,PB10*%
%TO.N,/CONNECTORS/UART3_TX*%
X142260000Y-101130000D03*
%TO.P,U1,30,PB11*%
%TO.N,/CONNECTORS/UART3_RX*%
X142760000Y-101130000D03*
%TO.P,U1,31,VCAP_1*%
%TO.N,Net-(U1-VCAP_1)*%
X143260000Y-101130000D03*
%TO.P,U1,32,VDD*%
%TO.N,+3V3*%
X143760000Y-101130000D03*
D15*
%TO.P,U1,33,PB12*%
%TO.N,/FLASH/FLASH_SS*%
X145685000Y-99205000D03*
%TO.P,U1,34,PB13*%
%TO.N,/FLASH/FLASH_SCLK*%
X145685000Y-98705000D03*
%TO.P,U1,35,PB14*%
%TO.N,/FLASH/FLASH_MISO*%
X145685000Y-98205000D03*
%TO.P,U1,36,PB15*%
%TO.N,/FLASH/FLASH_MOSI*%
X145685000Y-97705000D03*
%TO.P,U1,37,PC6*%
%TO.N,unconnected-(U1-PC6-Pad37)*%
X145685000Y-97205000D03*
%TO.P,U1,38,PC7*%
%TO.N,/CONNECTORS/UART6_RX*%
X145685000Y-96705000D03*
%TO.P,U1,39,PC8*%
%TO.N,/CONNECTORS/MOTOR3*%
X145685000Y-96205000D03*
%TO.P,U1,40,PC9*%
%TO.N,/CONNECTORS/MOTOR4*%
X145685000Y-95705000D03*
%TO.P,U1,41,PA8*%
%TO.N,/CONNECTORS/MOTOR1*%
X145685000Y-95205000D03*
%TO.P,U1,42,PA9*%
%TO.N,/CONNECTORS/MOTOR2*%
X145685000Y-94705000D03*
%TO.P,U1,43,PA10*%
%TO.N,unconnected-(U1-PA10-Pad43)*%
X145685000Y-94205000D03*
%TO.P,U1,44,PA11*%
%TO.N,/CONNECTORS/USB_DN*%
X145685000Y-93705000D03*
%TO.P,U1,45,PA12*%
%TO.N,/CONNECTORS/USB_DP*%
X145685000Y-93205000D03*
%TO.P,U1,46,PA13*%
%TO.N,/CONNECTORS/SWDIO*%
X145685000Y-92705000D03*
%TO.P,U1,47,VCAP_2*%
%TO.N,Net-(U1-VCAP_2)*%
X145685000Y-92205000D03*
%TO.P,U1,48,VDD*%
%TO.N,+3V3*%
X145685000Y-91705000D03*
D16*
%TO.P,U1,49,PA14*%
%TO.N,/CONNECTORS/SWCLK*%
X143760000Y-89780000D03*
%TO.P,U1,50,PA15*%
%TO.N,/MCU/OSD_SS*%
X143260000Y-89780000D03*
%TO.P,U1,51,PC10*%
%TO.N,/MCU/OSD_SCLK*%
X142760000Y-89780000D03*
%TO.P,U1,52,PC11*%
%TO.N,/MCU/OSD_MISO*%
X142260000Y-89780000D03*
%TO.P,U1,53,PC12*%
%TO.N,/CONNECTORS/UART5_TX*%
X141760000Y-89780000D03*
%TO.P,U1,54,PD2*%
%TO.N,/CONNECTORS/UART5_RX*%
X141260000Y-89780000D03*
%TO.P,U1,55,PB3*%
%TO.N,/MCU/LED_STRIP*%
X140760000Y-89780000D03*
%TO.P,U1,56,PB4*%
%TO.N,unconnected-(U1-PB4-Pad56)*%
X140260000Y-89780000D03*
%TO.P,U1,57,PB5*%
%TO.N,/MCU/OSD_MOSI*%
X139760000Y-89780000D03*
%TO.P,U1,58,PB6*%
%TO.N,unconnected-(U1-PB6-Pad58)*%
X139260000Y-89780000D03*
%TO.P,U1,59,PB7*%
%TO.N,/CONNECTORS/UART1_RX*%
X138760000Y-89780000D03*
%TO.P,U1,60,BOOT0*%
%TO.N,/MCU/BOOT0*%
X138260000Y-89780000D03*
%TO.P,U1,61,PB8*%
%TO.N,/MCU/I2C1_SCL*%
X137760000Y-89780000D03*
%TO.P,U1,62,PB9*%
%TO.N,/MCU/I2C1_SDA*%
X137260000Y-89780000D03*
%TO.P,U1,63,VSS*%
%TO.N,GND*%
X136760000Y-89780000D03*
%TO.P,U1,64,VDD*%
%TO.N,+3V3*%
X136260000Y-89780000D03*
%TD*%
D17*
%TO.P,C2,1*%
%TO.N,/MCU/OSC_OUT*%
X128394000Y-100586000D03*
%TO.P,C2,2*%
%TO.N,GND*%
X127434000Y-100586000D03*
%TD*%
D18*
%TO.P,R5,1*%
%TO.N,Net-(C10-Pad2)*%
X128250000Y-88103550D03*
%TO.P,R5,2*%
%TO.N,GND*%
X127230000Y-88103550D03*
%TD*%
%TO.P,R11,1*%
%TO.N,Net-(U4-~{HOLD}{slash}~{RESET}{slash}IO_{3})*%
X135275000Y-108720000D03*
%TO.P,R11,2*%
%TO.N,+3V3*%
X134255000Y-108720000D03*
%TD*%
D10*
%TO.P,S1,1,1*%
%TO.N,/MCU/LED_STRIP*%
X157988000Y-116205000D03*
%TD*%
%TO.P,P3,1,1*%
%TO.N,+5V*%
X124968000Y-117322600D03*
%TD*%
D17*
%TO.P,C17,1*%
%TO.N,+3V3*%
X132077400Y-86531400D03*
%TO.P,C17,2*%
%TO.N,GND*%
X131117400Y-86531400D03*
%TD*%
D19*
%TO.P,R10,1*%
%TO.N,Net-(U4-~{WP}{slash}IO_{2})*%
X146815000Y-108010000D03*
%TO.P,R10,2*%
%TO.N,+3V3*%
X146815000Y-106990000D03*
%TD*%
D20*
%TO.P,C13,1*%
%TO.N,+3V3*%
X126466000Y-104132900D03*
%TO.P,C13,2*%
%TO.N,GND*%
X126466000Y-105092900D03*
%TD*%
D21*
%TO.P,J8,1,Pin_1*%
%TO.N,+5V*%
X141390000Y-83351600D03*
%TO.P,J8,2,Pin_2*%
%TO.N,GND*%
X140390000Y-83351600D03*
%TO.P,J8,3,Pin_3*%
%TO.N,Net-(J8-Pin_3)*%
X139390000Y-83351600D03*
D22*
%TO.P,J8,MP,MountPin*%
%TO.N,GND*%
X142690000Y-79476600D03*
X138090000Y-79476600D03*
%TD*%
D11*
%TO.P,R22,1*%
%TO.N,/CONNECTORS/BEEPER*%
X128953800Y-81940400D03*
%TO.P,R22,2*%
%TO.N,Net-(Q1-B)*%
X129973800Y-81940400D03*
%TD*%
D18*
%TO.P,R20,1*%
%TO.N,Net-(J1-D--PadA7)*%
X150799800Y-100914200D03*
%TO.P,R20,2*%
%TO.N,/CONNECTORS/USB_DN*%
X149779800Y-100914200D03*
%TD*%
D11*
%TO.P,R2,1*%
%TO.N,Net-(D2-A)*%
X123979500Y-99166000D03*
%TO.P,R2,2*%
%TO.N,/MCU/LED1*%
X124999500Y-99166000D03*
%TD*%
D23*
%TO.P,D1,1,K*%
%TO.N,GND*%
X121458000Y-95906000D03*
%TO.P,D1,2,A*%
%TO.N,Net-(D1-A)*%
X122428000Y-95906000D03*
%TD*%
D18*
%TO.P,R21,1*%
%TO.N,Net-(J1-D+-PadA6)*%
X150799800Y-98531177D03*
%TO.P,R21,2*%
%TO.N,/CONNECTORS/USB_DP*%
X149779800Y-98531177D03*
%TD*%
D24*
%TO.P,J7,1,Pin_1*%
%TO.N,+3V3*%
X155230000Y-90980000D03*
%TO.P,J7,2,Pin_2*%
%TO.N,GND*%
X155230000Y-89980000D03*
%TO.P,J7,3,Pin_3*%
%TO.N,/CONNECTORS/SWDIO*%
X155230000Y-88980000D03*
%TO.P,J7,4,Pin_4*%
%TO.N,/CONNECTORS/SWCLK*%
X155230000Y-87980000D03*
D25*
%TO.P,J7,MP,MountPin*%
%TO.N,GND*%
X159105000Y-92280000D03*
X159105000Y-86680000D03*
%TD*%
D14*
%TO.P,R18,1*%
%TO.N,Net-(J1-CC1)*%
X150289800Y-103247222D03*
%TO.P,R18,2*%
%TO.N,GND*%
X150289800Y-104267222D03*
%TD*%
D23*
%TO.P,D2,1,K*%
%TO.N,GND*%
X121458000Y-99166000D03*
%TO.P,D2,2,A*%
%TO.N,Net-(D2-A)*%
X122428000Y-99166000D03*
%TD*%
D20*
%TO.P,C3,1*%
%TO.N,Net-(U1-VCAP_1)*%
X144120000Y-103296267D03*
%TO.P,C3,2*%
%TO.N,GND*%
X144120000Y-104256267D03*
%TD*%
D21*
%TO.P,J4,1,Pin_1*%
%TO.N,+5V*%
X150140800Y-83351600D03*
%TO.P,J4,2,Pin_2*%
%TO.N,GND*%
X149140800Y-83351600D03*
%TO.P,J4,3,Pin_3*%
%TO.N,/CONNECTORS/UART5_RX*%
X148140800Y-83351600D03*
%TO.P,J4,4,Pin_4*%
%TO.N,/CONNECTORS/UART5_TX*%
X147140800Y-83351600D03*
D22*
%TO.P,J4,MP,MountPin*%
%TO.N,GND*%
X151440800Y-79476600D03*
X145840800Y-79476600D03*
%TD*%
D26*
%TO.P,SW2,1,1*%
%TO.N,+3V3*%
X121125000Y-86521400D03*
X125625000Y-86521400D03*
%TO.P,SW2,2,2*%
%TO.N,/MCU/BOOT0*%
X121125000Y-88671400D03*
X125625000Y-88671400D03*
%TD*%
D18*
%TO.P,R9,1*%
%TO.N,+3V3*%
X137924000Y-87465000D03*
%TO.P,R9,2*%
%TO.N,/MCU/I2C1_SCL*%
X136904000Y-87465000D03*
%TD*%
D27*
%TO.P,U2,1,AP_SDO/AP_AD0*%
%TO.N,/MCU/GYRO_MISO*%
X130036000Y-103637900D03*
%TO.P,U2,2,RESV*%
%TO.N,unconnected-(U2-RESV-Pad2)*%
X129536000Y-103637900D03*
%TO.P,U2,3,RESV*%
%TO.N,unconnected-(U2-RESV-Pad3)*%
X129036000Y-103637900D03*
%TO.P,U2,4,INT1/INT*%
%TO.N,/MCU/GYRO_INT*%
X128536000Y-103637900D03*
D28*
%TO.P,U2,5,VDDIO*%
%TO.N,+3V3*%
X128373500Y-104300400D03*
%TO.P,U2,6,GND*%
%TO.N,GND*%
X128373500Y-104800400D03*
%TO.P,U2,7,RESV*%
%TO.N,unconnected-(U2-RESV-Pad7)*%
X128373500Y-105300400D03*
D27*
%TO.P,U2,8,VDD*%
%TO.N,+3V3*%
X128536000Y-105962900D03*
%TO.P,U2,9,INT2/FSYNC/CLKIN*%
%TO.N,unconnected-(U2-INT2{slash}FSYNC{slash}CLKIN-Pad9)*%
X129036000Y-105962900D03*
%TO.P,U2,10,RESV*%
%TO.N,unconnected-(U2-RESV-Pad10)*%
X129536000Y-105962900D03*
%TO.P,U2,11,RESV*%
%TO.N,unconnected-(U2-RESV-Pad11)*%
X130036000Y-105962900D03*
D28*
%TO.P,U2,12,AP_CS*%
%TO.N,/MCU/GYRO_SS*%
X130198500Y-105300400D03*
%TO.P,U2,13,AP_SCL/AP_SCLK*%
%TO.N,/MCU/GYRO_SCLK*%
X130198500Y-104800400D03*
%TO.P,U2,14,AP_SDA/AP_SDIO/AP_SDI*%
%TO.N,/MCU/GYRO_MOSI*%
X130198500Y-104300400D03*
%TD*%
D10*
%TO.P,S4,1,1*%
%TO.N,/MCU/LED_STRIP*%
X122199400Y-80543400D03*
%TD*%
D18*
%TO.P,R7,1*%
%TO.N,+3V3*%
X137924000Y-85293200D03*
%TO.P,R7,2*%
%TO.N,/MCU/I2C1_SDA*%
X136904000Y-85293200D03*
%TD*%
D29*
%TO.P,C10,1*%
%TO.N,/MCU/BOOT0*%
X127240000Y-86531400D03*
%TO.P,C10,2*%
%TO.N,Net-(C10-Pad2)*%
X128200000Y-86531400D03*
%TD*%
D19*
%TO.P,R19,1*%
%TO.N,Net-(J1-CC2)*%
X150289800Y-96198155D03*
%TO.P,R19,2*%
%TO.N,GND*%
X150289800Y-95178155D03*
%TD*%
D10*
%TO.P,S3,1,1*%
%TO.N,/MCU/LED_STRIP*%
X122275600Y-116128800D03*
%TD*%
D20*
%TO.P,C8,1*%
%TO.N,+3V3*%
X145770600Y-103296267D03*
%TO.P,C8,2*%
%TO.N,GND*%
X145770600Y-104256267D03*
%TD*%
D29*
%TO.P,C9,1*%
%TO.N,+3V3*%
X147980000Y-90550000D03*
%TO.P,C9,2*%
%TO.N,GND*%
X148940000Y-90550000D03*
%TD*%
%TO.P,C15,1*%
%TO.N,+3V3*%
X128216000Y-107632900D03*
%TO.P,C15,2*%
%TO.N,GND*%
X129176000Y-107632900D03*
%TD*%
D30*
%TO.P,U4,1,~{CS}*%
%TO.N,/FLASH/FLASH_SS*%
X144575000Y-110540000D03*
%TO.P,U4,2,DO/IO_{1}*%
%TO.N,/FLASH/FLASH_MISO*%
X144575000Y-109270000D03*
%TO.P,U4,3,~{WP}/IO_{2}*%
%TO.N,Net-(U4-~{WP}{slash}IO_{2})*%
X144575000Y-108000000D03*
%TO.P,U4,4,GND*%
%TO.N,GND*%
X144575000Y-106730000D03*
%TO.P,U4,5,DI/IO_{0}*%
%TO.N,/FLASH/FLASH_MOSI*%
X137400000Y-106730000D03*
%TO.P,U4,6,CLK*%
%TO.N,/FLASH/FLASH_SCLK*%
X137400000Y-108000000D03*
%TO.P,U4,7,~{HOLD}/~{RESET}/IO_{3}*%
%TO.N,Net-(U4-~{HOLD}{slash}~{RESET}{slash}IO_{3})*%
X137400000Y-109270000D03*
%TO.P,U4,8,VCC*%
%TO.N,+3V3*%
X137400000Y-110540000D03*
%TD*%
D10*
%TO.P,G3,1,1*%
%TO.N,GND*%
X121259600Y-113614200D03*
%TD*%
D29*
%TO.P,C4,1*%
%TO.N,Net-(U1-VCAP_2)*%
X147980000Y-92060000D03*
%TO.P,C4,2*%
%TO.N,GND*%
X148940000Y-92060000D03*
%TD*%
D31*
%TO.P,U3,1,GND*%
%TO.N,GND*%
X135403700Y-85426700D03*
%TO.P,U3,2,CSB*%
%TO.N,+3V3*%
X135403700Y-86076700D03*
%TO.P,U3,3,SDI*%
%TO.N,/MCU/I2C1_SDA*%
X135403700Y-86726700D03*
%TO.P,U3,4,SCK*%
%TO.N,/MCU/I2C1_SCL*%
X135403700Y-87376700D03*
%TO.P,U3,5,SDO*%
%TO.N,Net-(U3-SDO)*%
X133803700Y-87376700D03*
%TO.P,U3,6,VDDIO*%
%TO.N,+3V3*%
X133803700Y-86726700D03*
%TO.P,U3,7,GND*%
%TO.N,GND*%
X133803700Y-86076700D03*
%TO.P,U3,8,VDD*%
%TO.N,+3V3*%
X133803700Y-85426700D03*
%TD*%
D18*
%TO.P,R8,1*%
%TO.N,Net-(U3-SDO)*%
X132127400Y-88103550D03*
%TO.P,R8,2*%
%TO.N,GND*%
X131107400Y-88103550D03*
%TD*%
D32*
%TO.P,Q1,1,B*%
%TO.N,Net-(Q1-B)*%
X132547400Y-79301100D03*
%TO.P,Q1,2,E*%
%TO.N,GND*%
X130647400Y-79301100D03*
%TO.P,Q1,3,C*%
%TO.N,Net-(J8-Pin_3)*%
X131597400Y-81176100D03*
%TD*%
D33*
%TO.P,C12,1*%
%TO.N,+3V3*%
X131597400Y-98016000D03*
%TO.P,C12,2*%
%TO.N,GND*%
X131597400Y-97056000D03*
%TD*%
D10*
%TO.P,S2,1,1*%
%TO.N,/MCU/LED_STRIP*%
X157988000Y-80492600D03*
%TD*%
%TO.P,G2,1,1*%
%TO.N,GND*%
X159029400Y-83286600D03*
%TD*%
D17*
%TO.P,C7,1*%
%TO.N,+3V3*%
X137500000Y-103251000D03*
%TO.P,C7,2*%
%TO.N,GND*%
X136540000Y-103251000D03*
%TD*%
D34*
%TO.P,SW1,1,1*%
%TO.N,/MCU/NRST*%
X125625000Y-92850000D03*
X121125000Y-92850000D03*
%TO.P,SW1,2,2*%
%TO.N,GND*%
X125625000Y-90700000D03*
X121125000Y-90700000D03*
%TD*%
D17*
%TO.P,C16,1*%
%TO.N,+3V3*%
X132077400Y-85040200D03*
%TO.P,C16,2*%
%TO.N,GND*%
X131117400Y-85040200D03*
%TD*%
D11*
%TO.P,R6,1*%
%TO.N,/MCU/BOOT0*%
X127230000Y-89685700D03*
%TO.P,R6,2*%
%TO.N,GND*%
X128250000Y-89685700D03*
%TD*%
D10*
%TO.P,P4,1,1*%
%TO.N,+5V*%
X121259600Y-83337400D03*
%TD*%
%TO.P,G4,1,1*%
%TO.N,GND*%
X124739400Y-79552800D03*
%TD*%
D35*
%TO.P,D3,1,K*%
%TO.N,+5V*%
X154320000Y-108270000D03*
%TO.P,D3,2,A*%
%TO.N,Net-(D3-A)*%
X158320000Y-108270000D03*
%TD*%
D17*
%TO.P,C18,1*%
%TO.N,+3V3*%
X135225000Y-110080000D03*
%TO.P,C18,2*%
%TO.N,GND*%
X134265000Y-110080000D03*
%TD*%
D36*
%TO.P,Y1,1,1*%
%TO.N,/MCU/OSC_IN*%
X127006000Y-96436000D03*
%TO.P,Y1,2,2*%
%TO.N,GND*%
X127006000Y-98636000D03*
%TO.P,Y1,3,3*%
%TO.N,/MCU/OSC_OUT*%
X128706000Y-98636000D03*
%TO.P,Y1,4,4*%
%TO.N,GND*%
X128706000Y-96436000D03*
%TD*%
D10*
%TO.P,P1,1,1*%
%TO.N,+5V*%
X159054800Y-113665000D03*
%TD*%
D18*
%TO.P,R4,1*%
%TO.N,+3V3*%
X128250000Y-92830000D03*
%TO.P,R4,2*%
%TO.N,/MCU/NRST*%
X127230000Y-92830000D03*
%TD*%
D29*
%TO.P,C1,1*%
%TO.N,/MCU/OSC_IN*%
X127318000Y-94486000D03*
%TO.P,C1,2*%
%TO.N,GND*%
X128278000Y-94486000D03*
%TD*%
D11*
%TO.P,R1,1*%
%TO.N,Net-(D1-A)*%
X123979500Y-95906000D03*
%TO.P,R1,2*%
%TO.N,/MCU/LED0*%
X124999500Y-95906000D03*
%TD*%
D17*
%TO.P,C11,1*%
%TO.N,+3V3*%
X132077400Y-89675700D03*
%TO.P,C11,2*%
%TO.N,GND*%
X131117400Y-89675700D03*
%TD*%
D29*
%TO.P,C6,1*%
%TO.N,/MCU/NRST*%
X127240000Y-91257850D03*
%TO.P,C6,2*%
%TO.N,GND*%
X128200000Y-91257850D03*
%TD*%
D17*
%TO.P,C5,1*%
%TO.N,+3V3*%
X132077400Y-91257850D03*
%TO.P,C5,2*%
%TO.N,GND*%
X131117400Y-91257850D03*
%TD*%
D20*
%TO.P,C14,1*%
%TO.N,+3V3*%
X126466000Y-106702900D03*
%TO.P,C14,2*%
%TO.N,GND*%
X126466000Y-107662900D03*
%TD*%
D37*
%TO.P,J1,A1,GND*%
%TO.N,GND*%
X154040000Y-102960000D03*
%TO.P,J1,A4,VBUS*%
%TO.N,Net-(D3-A)*%
X154040000Y-102160000D03*
D38*
%TO.P,J1,A5,CC1*%
%TO.N,Net-(J1-CC1)*%
X154040000Y-101010000D03*
%TO.P,J1,A6,D+*%
%TO.N,Net-(J1-D+-PadA6)*%
X154040000Y-100010000D03*
%TO.P,J1,A7,D-*%
%TO.N,Net-(J1-D--PadA7)*%
X154040000Y-99510000D03*
%TO.P,J1,A8,SBU1*%
%TO.N,unconnected-(J1-SBU1-PadA8)*%
X154040000Y-98510000D03*
D37*
%TO.P,J1,A9,VBUS*%
%TO.N,Net-(D3-A)*%
X154040000Y-97360000D03*
%TO.P,J1,A12,GND*%
%TO.N,GND*%
X154040000Y-96560000D03*
%TO.P,J1,B1,GND*%
X154040000Y-96560000D03*
%TO.P,J1,B4,VBUS*%
%TO.N,Net-(D3-A)*%
X154040000Y-97360000D03*
D38*
%TO.P,J1,B5,CC2*%
%TO.N,Net-(J1-CC2)*%
X154040000Y-98010000D03*
%TO.P,J1,B6,D+*%
%TO.N,Net-(J1-D+-PadA6)*%
X154040000Y-99010000D03*
%TO.P,J1,B7,D-*%
%TO.N,Net-(J1-D--PadA7)*%
X154040000Y-100510000D03*
%TO.P,J1,B8,SBU2*%
%TO.N,unconnected-(J1-SBU2-PadB8)*%
X154040000Y-101510000D03*
D37*
%TO.P,J1,B9,VBUS*%
%TO.N,Net-(D3-A)*%
X154040000Y-102160000D03*
%TO.P,J1,B12,GND*%
%TO.N,GND*%
X154040000Y-102960000D03*
D39*
%TO.P,J1,S1,SHIELD*%
X154680000Y-104080000D03*
D40*
X158860000Y-104080000D03*
D39*
X154680000Y-95440000D03*
D40*
X158860000Y-95440000D03*
%TD*%
D12*
%TO.P,J5,1,Pin_1*%
%TO.N,/CONNECTORS/VBAT*%
X145631400Y-113487200D03*
%TO.P,J5,2,Pin_2*%
%TO.N,GND*%
X146631400Y-113487200D03*
%TO.P,J5,3,Pin_3*%
%TO.N,/CONNECTORS/VIDEO*%
X147631400Y-113487200D03*
%TO.P,J5,4,Pin_4*%
%TO.N,/CONNECTORS/UART3_RX*%
X148631400Y-113487200D03*
%TO.P,J5,5,Pin_5*%
%TO.N,/CONNECTORS/UART3_TX*%
X149631400Y-113487200D03*
D13*
%TO.P,J5,MP,MountPin*%
%TO.N,GND*%
X144331400Y-117362200D03*
X150931400Y-117362200D03*
%TD*%
D41*
%TO.N,GND*%
X136937400Y-117368800D03*
X154406600Y-92583000D03*
X150901400Y-106984800D03*
X125095000Y-110032800D03*
X129154400Y-79654400D03*
X124612400Y-93649800D03*
X150931400Y-117362200D03*
X121488200Y-107543600D03*
X140589000Y-79603600D03*
X121462800Y-99161600D03*
X134090600Y-106779000D03*
X159105000Y-86680000D03*
X128143000Y-83134200D03*
X155397200Y-117322600D03*
X135321600Y-107365072D03*
X135396800Y-111211800D03*
X135760217Y-102219592D03*
X134747000Y-84963000D03*
X121386600Y-105283000D03*
X159029400Y-83286600D03*
X130124200Y-109495400D03*
X133096000Y-88417400D03*
X121386600Y-102793800D03*
X124155200Y-91973400D03*
X127000000Y-103200200D03*
X134930000Y-117365000D03*
X124739400Y-79552800D03*
X139961700Y-107484200D03*
X129743200Y-94132400D03*
X144331400Y-117362200D03*
X126466000Y-105092900D03*
X143320000Y-117365000D03*
X148940000Y-92049600D03*
X131337400Y-117368800D03*
X144957800Y-104239000D03*
X129330000Y-117365000D03*
X121259600Y-113614200D03*
X137998200Y-83083400D03*
X143256000Y-88163400D03*
X159105000Y-92280000D03*
X124333895Y-103302695D03*
X132867400Y-85852000D03*
X158724600Y-89687400D03*
X133731000Y-79654400D03*
X126466000Y-107662900D03*
X126949200Y-88849200D03*
X129565400Y-86817200D03*
X131292600Y-96062800D03*
X144424400Y-84810600D03*
X121691400Y-94132400D03*
X128706000Y-96436000D03*
%TO.N,+3V3*%
X145948400Y-107410000D03*
X132080000Y-91262200D03*
X127762000Y-109169200D03*
X135681454Y-89710115D03*
X146735800Y-90551000D03*
X125780800Y-101828600D03*
X144475200Y-101854000D03*
X130454400Y-98171000D03*
X128250000Y-92830000D03*
X152273000Y-89204800D03*
X138836400Y-111963200D03*
X136804400Y-99745800D03*
X125628400Y-86512400D03*
X135788400Y-97688400D03*
X153771600Y-90627200D03*
%TO.N,/MCU/NRST*%
X132029200Y-94805000D03*
X130573865Y-92118265D03*
%TO.N,+5V*%
X122693000Y-89789000D03*
X140462000Y-115112800D03*
X130048000Y-115112800D03*
X128651000Y-84378800D03*
X121742200Y-97027652D03*
X148793200Y-81356200D03*
X159054800Y-113665000D03*
X134090600Y-105819000D03*
X124968000Y-117322600D03*
X124798895Y-97027652D03*
X155397200Y-79502000D03*
X141757400Y-85344000D03*
X135737600Y-115316000D03*
X135321600Y-106414942D03*
X154320000Y-108270000D03*
X121259600Y-83337400D03*
X144957800Y-103279000D03*
%TO.N,Net-(U5-SAG)*%
X133845600Y-104190800D03*
X135458200Y-105308400D03*
%TO.N,Net-(U5-VIN)*%
X132659035Y-107919435D03*
X132130800Y-109499400D03*
%TO.N,/CONNECTORS/CAM_ANALOG*%
X123774200Y-94462600D03*
X132130000Y-110465400D03*
X130124200Y-110515400D03*
%TO.N,Net-(U6-BOOT)*%
X135280400Y-90449400D03*
X133907200Y-89073900D03*
%TO.N,Net-(D1-A)*%
X122428000Y-95906000D03*
X123979500Y-95906000D03*
%TO.N,/CONNECTORS/VBAT*%
X151104600Y-111988600D03*
%TO.N,/CONNECTORS/UART2_RX*%
X134061200Y-107670600D03*
X135356600Y-101346000D03*
%TO.N,/CONNECTORS/UART2_TX*%
X132275665Y-99789065D03*
X135216900Y-112179100D03*
%TO.N,/CONNECTORS/UART4_RX*%
X131000500Y-100215700D03*
%TO.N,/CONNECTORS/UART4_TX*%
X129667000Y-100507800D03*
%TO.N,/CONNECTORS/UART5_RX*%
X147091400Y-85902800D03*
X144653000Y-85902800D03*
%TO.N,/CONNECTORS/VIDEO*%
X132130000Y-106857800D03*
X143433800Y-113665000D03*
X131445000Y-108864400D03*
%TO.N,/CONNECTORS/UART3_RX*%
X145973800Y-115316000D03*
%TO.N,/CONNECTORS/UART3_TX*%
X146024600Y-116611400D03*
%TO.N,/CONNECTORS/MOTOR3*%
X148259800Y-95758000D03*
X150088600Y-86309200D03*
%TO.N,/CONNECTORS/ADC_CURR*%
X136626600Y-95554800D03*
X142036800Y-81330800D03*
%TO.N,/CONNECTORS/MOTOR1*%
X144068800Y-94945200D03*
X146989800Y-87274400D03*
%TO.N,/CONNECTORS/MOTOR4*%
X151333200Y-86309200D03*
X147904200Y-94665800D03*
%TO.N,/CONNECTORS/MOTOR2*%
X144348200Y-93091000D03*
X148945600Y-86309200D03*
%TO.N,/CONNECTORS/UART1_RX*%
X140182600Y-81534000D03*
X138760200Y-92100400D03*
%TO.N,/CONNECTORS/UART6_RX*%
X147447000Y-97663000D03*
X139080000Y-115800900D03*
%TO.N,/MCU/ADC_VBAT*%
X136296400Y-80670400D03*
X132740400Y-96189800D03*
%TO.N,/CONNECTORS/BEEPER*%
X135788400Y-93573600D03*
X133604000Y-83896200D03*
%TO.N,/FLASH/FLASH_MOSI*%
X142087600Y-97713800D03*
X139877800Y-102997000D03*
%TO.N,/MCU/GYRO_SS*%
X138099800Y-102565200D03*
X135321600Y-104419400D03*
%TO.N,/MCU/GYRO_SCLK*%
X137972800Y-99517200D03*
X132840734Y-105095484D03*
%TO.N,Net-(D2-A)*%
X122428000Y-99166000D03*
X123979500Y-99166000D03*
%TO.N,/MCU/OSD_MOSI*%
X140208000Y-112014000D03*
X138912600Y-94386400D03*
%TO.N,/MCU/OSD_SCLK*%
X142646400Y-94970600D03*
X145821400Y-102133400D03*
X148209000Y-108610400D03*
%TO.N,/MCU/OSD_MISO*%
X141401800Y-93751400D03*
X149606000Y-109372400D03*
%TO.N,/FLASH/FLASH_SS*%
X146659600Y-100126800D03*
X148183600Y-100126800D03*
%TO.N,/MCU/OSD_SS*%
X143256000Y-96723200D03*
%TO.N,/FLASH/FLASH_SCLK*%
X140614400Y-103634198D03*
X142290800Y-98729800D03*
%TO.N,/MCU/LED_STRIP*%
X157988000Y-80492600D03*
X122275600Y-116128800D03*
X139217400Y-85572600D03*
X157988000Y-116205000D03*
X122199400Y-80543400D03*
%TD*%
D42*
%TO.N,Net-(U1-VCAP_1)*%
X143260000Y-101985000D02*
X144120000Y-102845000D01*
X144120000Y-102845000D02*
X144120000Y-103296267D01*
X143260000Y-101130000D02*
X143260000Y-101985000D01*
%TO.N,GND*%
X131014200Y-85040200D02*
X131117400Y-85040200D01*
X150289800Y-95175800D02*
X151180800Y-94284800D01*
X131746400Y-97205000D02*
X131597400Y-97056000D01*
X129565400Y-86817200D02*
X129895600Y-86817200D01*
X146631400Y-112712201D02*
X147126401Y-112217200D01*
X135396800Y-111211800D02*
X136937400Y-112752400D01*
X134645400Y-88595200D02*
X136550400Y-88595200D01*
X134237400Y-80160800D02*
X134237400Y-81664600D01*
X135403700Y-85426700D02*
X135210700Y-85426700D01*
X145770600Y-105534400D02*
X144575000Y-106730000D01*
X148940000Y-92049600D02*
X148940000Y-92060000D01*
X138090000Y-79476600D02*
X140462000Y-79476600D01*
X133637400Y-113493800D02*
X133637400Y-115068800D01*
X126782500Y-104776400D02*
X126466000Y-105092900D01*
X141579600Y-105866300D02*
X141579600Y-104294400D01*
X141097000Y-81069600D02*
X142690000Y-79476600D01*
X140716000Y-79476600D02*
X142690000Y-79476600D01*
X131597400Y-96367600D02*
X131292600Y-96062800D01*
X134237400Y-81664600D02*
X134241000Y-81668200D01*
X156805000Y-89980000D02*
X159105000Y-92280000D01*
X136760000Y-103031000D02*
X136760000Y-102209600D01*
X144120000Y-104256267D02*
X144120000Y-106275000D01*
X133731000Y-79654400D02*
X134237400Y-80160800D01*
X124155200Y-91973400D02*
X124351600Y-91973400D01*
X129176000Y-107632900D02*
X129502300Y-107632900D01*
X148940000Y-90550000D02*
X148940000Y-92049600D01*
X130181400Y-86531400D02*
X131117400Y-86531400D01*
X138090000Y-79476600D02*
X137912200Y-79654400D01*
X150289800Y-104267222D02*
X150949978Y-104927400D01*
X128200000Y-91257850D02*
X131117400Y-91257850D01*
X128143000Y-83134200D02*
X129108200Y-83134200D01*
X146631400Y-113487200D02*
X146631400Y-112712201D01*
X153524800Y-94284800D02*
X154680000Y-95440000D01*
X145059400Y-84810600D02*
X144424400Y-84810600D01*
X135770209Y-102209600D02*
X135760217Y-102219592D01*
X127434000Y-102766200D02*
X127434000Y-100586000D01*
X129154400Y-79654400D02*
X124866400Y-79654400D01*
X125625000Y-90700000D02*
X125875600Y-90449400D01*
X148631599Y-82067400D02*
X146634200Y-82067400D01*
X140589000Y-79603600D02*
X140716000Y-79476600D01*
X154040000Y-96560000D02*
X154040000Y-96080000D01*
X128200000Y-91257850D02*
X128200000Y-90449400D01*
X131597400Y-97056000D02*
X131597400Y-96367600D01*
X136550400Y-88595200D02*
X136760000Y-88804800D01*
X131107400Y-86541400D02*
X131117400Y-86531400D01*
X130067800Y-79654400D02*
X130421100Y-79301100D01*
X149140800Y-82576601D02*
X148631599Y-82067400D01*
X121458000Y-94365800D02*
X121691400Y-94132400D01*
X153832600Y-104927400D02*
X154680000Y-104080000D01*
X140390000Y-82622000D02*
X141097000Y-81915000D01*
X145872200Y-82829400D02*
X145872200Y-83997800D01*
X127230000Y-88103550D02*
X127230000Y-88568400D01*
X128349500Y-104776400D02*
X126782500Y-104776400D01*
X136760000Y-88804800D02*
X136760000Y-89780000D01*
X124351600Y-91973400D02*
X125625000Y-90700000D01*
X140390000Y-83351600D02*
X140390000Y-82622000D01*
X136760000Y-102209600D02*
X135770209Y-102209600D01*
X133092100Y-86076700D02*
X132867400Y-85852000D01*
X137912200Y-79654400D02*
X133731000Y-79654400D01*
X141097000Y-81915000D02*
X141097000Y-81069600D01*
X139961700Y-107484200D02*
X141579600Y-105866300D01*
X130421100Y-79301100D02*
X130647400Y-79301100D01*
X151440800Y-79476600D02*
X145840800Y-79476600D01*
X155230000Y-89980000D02*
X156805000Y-89980000D01*
X136760000Y-102209600D02*
X136760000Y-101130000D01*
X121458000Y-95906000D02*
X121458000Y-94365800D01*
X125875600Y-90449400D02*
X128200000Y-90449400D01*
X133637400Y-115068800D02*
X131337400Y-117368800D01*
X129108200Y-83134200D02*
X131014200Y-85040200D01*
X151180800Y-94284800D02*
X153524800Y-94284800D01*
X136540000Y-103251000D02*
X136760000Y-103031000D01*
X129743200Y-94132400D02*
X129389600Y-94486000D01*
X134335000Y-97205000D02*
X131746400Y-97205000D01*
X121125000Y-90700000D02*
X121662600Y-90700000D01*
X129154400Y-79654400D02*
X130067800Y-79654400D01*
X145840800Y-79476600D02*
X142690000Y-79476600D01*
X154040000Y-96080000D02*
X154680000Y-95440000D01*
X129502300Y-107632900D02*
X130124200Y-108254800D01*
X145770600Y-104256267D02*
X145770600Y-105534400D01*
X144975067Y-104256267D02*
X144957800Y-104239000D01*
X134467600Y-88417400D02*
X134645400Y-88595200D01*
X154040000Y-102960000D02*
X154040000Y-103440000D01*
X131107400Y-88103550D02*
X131107400Y-86541400D01*
X140462000Y-79476600D02*
X140589000Y-79603600D01*
X134265000Y-110080000D02*
X135396800Y-111211800D01*
X133096000Y-88417400D02*
X134467600Y-88417400D01*
X124739400Y-79527400D02*
X124739400Y-79552800D01*
X145770600Y-104256267D02*
X144975067Y-104256267D01*
X147126401Y-112217200D02*
X150012400Y-112217200D01*
X150931400Y-113136200D02*
X150931400Y-117362200D01*
X133803700Y-86076700D02*
X133092100Y-86076700D01*
X129389600Y-94486000D02*
X128278000Y-94486000D01*
X128373500Y-104800400D02*
X128349500Y-104776400D01*
X150012400Y-112217200D02*
X150931400Y-113136200D01*
X127006000Y-98636000D02*
X127006000Y-98136000D01*
X149140800Y-83351600D02*
X149140800Y-82576601D01*
X122936000Y-91973400D02*
X124155200Y-91973400D01*
X150949978Y-104927400D02*
X153832600Y-104927400D01*
X127000000Y-103200200D02*
X127434000Y-102766200D01*
X135210700Y-85426700D02*
X134747000Y-84963000D01*
X130124200Y-108254800D02*
X130124200Y-109495400D01*
X144120000Y-106275000D02*
X144575000Y-106730000D01*
X127006000Y-98136000D02*
X128706000Y-96436000D01*
X145872200Y-83997800D02*
X145059400Y-84810600D01*
X150289800Y-95178155D02*
X150289800Y-95175800D01*
X131117400Y-91257850D02*
X131117400Y-89675700D01*
X136937400Y-112752400D02*
X136937400Y-117368800D01*
X128200000Y-89735700D02*
X128250000Y-89685700D01*
X121662600Y-90700000D02*
X122936000Y-91973400D01*
X124866400Y-79654400D02*
X124739400Y-79527400D01*
X146634200Y-82067400D02*
X145872200Y-82829400D01*
X129895600Y-86817200D02*
X130181400Y-86531400D01*
X127230000Y-88568400D02*
X126949200Y-88849200D01*
X134241000Y-81668200D02*
X134241000Y-81940400D01*
X154040000Y-103440000D02*
X154680000Y-104080000D01*
X128200000Y-90449400D02*
X128200000Y-89735700D01*
%TO.N,Net-(U1-VCAP_2)*%
X145685000Y-92205000D02*
X147835000Y-92205000D01*
X147835000Y-92205000D02*
X147980000Y-92060000D01*
%TO.N,+3V3*%
X133803700Y-85426700D02*
X133803700Y-84991900D01*
X147978400Y-90551000D02*
X147979400Y-90550000D01*
X135824800Y-91705000D02*
X134335000Y-91705000D01*
X131908400Y-97705000D02*
X134335000Y-97705000D01*
X132077400Y-86531400D02*
X132272700Y-86726700D01*
X132524550Y-91705000D02*
X132077400Y-91257850D01*
X121125000Y-86521400D02*
X125625000Y-86521400D01*
X145685000Y-91705000D02*
X146825000Y-91705000D01*
X137227600Y-93107800D02*
X135824800Y-91705000D01*
X132272700Y-86726700D02*
X133803700Y-86726700D01*
X135751339Y-89780000D02*
X135681454Y-89710115D01*
X126466000Y-106702900D02*
X125780800Y-106017700D01*
X128536000Y-105962900D02*
X128529900Y-105962900D01*
X126466000Y-104132900D02*
X125780800Y-103447700D01*
X134255000Y-109110000D02*
X135225000Y-110080000D01*
X127762000Y-108086900D02*
X128216000Y-107632900D01*
X133417200Y-85040200D02*
X133803700Y-85426700D01*
X146395000Y-107410000D02*
X146815000Y-106990000D01*
X127789900Y-106702900D02*
X126466000Y-106702900D01*
X128529900Y-105962900D02*
X127789900Y-106702900D01*
X125780800Y-103447700D02*
X125780800Y-101828600D01*
X131597400Y-98016000D02*
X131908400Y-97705000D01*
X134255000Y-108720000D02*
X134255000Y-109110000D01*
X126633500Y-104300400D02*
X126466000Y-104132900D01*
X137924000Y-87465000D02*
X137924000Y-85293200D01*
X146735800Y-90551000D02*
X147978400Y-90551000D01*
X145948400Y-107410000D02*
X146395000Y-107410000D01*
X134543800Y-86080600D02*
X134543800Y-85725000D01*
X135685000Y-110540000D02*
X135225000Y-110080000D01*
X134543800Y-85725000D02*
X134245500Y-85426700D01*
X130454400Y-98171000D02*
X131442400Y-98171000D01*
X134335000Y-97705000D02*
X135797200Y-97705000D01*
X137400000Y-110540000D02*
X135685000Y-110540000D01*
X131442400Y-98171000D02*
X131597400Y-98016000D01*
X125625000Y-86521400D02*
X126370600Y-85775800D01*
X134321200Y-86726700D02*
X134543800Y-86504100D01*
X132077400Y-91257850D02*
X132077400Y-89675700D01*
X134467600Y-84328000D02*
X137287000Y-84328000D01*
X134245500Y-85426700D02*
X133803700Y-85426700D01*
X146825000Y-91705000D02*
X147980000Y-90550000D01*
X155227200Y-90982800D02*
X155230000Y-90980000D01*
X135403700Y-86076700D02*
X134547700Y-86076700D01*
X127762000Y-109169200D02*
X127762000Y-108086900D01*
X132077400Y-85040200D02*
X133417200Y-85040200D01*
X146815000Y-104340667D02*
X146815000Y-106990000D01*
X125780800Y-106017700D02*
X125780800Y-104818100D01*
X128373500Y-104300400D02*
X126633500Y-104300400D01*
X137260000Y-101130000D02*
X137260000Y-100201400D01*
X147979400Y-90550000D02*
X147980000Y-90550000D01*
X137260000Y-100201400D02*
X136804400Y-99745800D01*
X136260000Y-89780000D02*
X135751339Y-89780000D01*
X137287000Y-84328000D02*
X137924000Y-84965000D01*
X128536000Y-107312900D02*
X128216000Y-107632900D01*
X126370600Y-85775800D02*
X131321800Y-85775800D01*
X133803700Y-84991900D02*
X134467600Y-84328000D01*
X137924000Y-84965000D02*
X137924000Y-85293200D01*
X134547700Y-86076700D02*
X134543800Y-86080600D01*
X143760000Y-101130000D02*
X145770600Y-103140600D01*
X133803700Y-86726700D02*
X134321200Y-86726700D01*
X154127200Y-90982800D02*
X155227200Y-90982800D01*
X134543800Y-86504100D02*
X134543800Y-86080600D01*
X145770600Y-103296267D02*
X146815000Y-104340667D01*
X137500000Y-103251000D02*
X137260000Y-103011000D01*
X138836400Y-111963200D02*
X138823200Y-111963200D01*
X149325200Y-89204800D02*
X147980000Y-90550000D01*
X138823200Y-111963200D02*
X137400000Y-110540000D01*
X125780800Y-104818100D02*
X126466000Y-104132900D01*
X131321800Y-85775800D02*
X132077400Y-86531400D01*
X153771600Y-90627200D02*
X154127200Y-90982800D01*
X145770600Y-103140600D02*
X145770600Y-103296267D01*
X128536000Y-105962900D02*
X128536000Y-107312900D01*
X152273000Y-89204800D02*
X149325200Y-89204800D01*
X137260000Y-103011000D02*
X137260000Y-101130000D01*
X134335000Y-91705000D02*
X132524550Y-91705000D01*
X135797200Y-97705000D02*
X137227600Y-96274600D01*
X137227600Y-96274600D02*
X137227600Y-93107800D01*
%TO.N,/MCU/NRST*%
X127240000Y-92820000D02*
X127230000Y-92830000D01*
X125625000Y-92850000D02*
X127210000Y-92850000D01*
X133426176Y-94805000D02*
X133526176Y-94705000D01*
X127210000Y-92850000D02*
X127230000Y-92830000D01*
X121125000Y-92850000D02*
X125625000Y-92850000D01*
X127240000Y-91257850D02*
X127240000Y-92820000D01*
X130573865Y-92118265D02*
X130479800Y-92024200D01*
X128035800Y-92024200D02*
X127230000Y-92830000D01*
X132029200Y-94805000D02*
X133426176Y-94805000D01*
X133526176Y-94705000D02*
X134335000Y-94705000D01*
X130479800Y-92024200D02*
X128035800Y-92024200D01*
%TO.N,/MCU/OSC_IN*%
X128020000Y-95173800D02*
X129971800Y-95173800D01*
X127318000Y-94486000D02*
X127332200Y-94486000D01*
X134288600Y-93751400D02*
X134335000Y-93705000D01*
X129971800Y-95173800D02*
X131394200Y-93751400D01*
X131394200Y-93751400D02*
X134288600Y-93751400D01*
X127332200Y-94486000D02*
X128020000Y-95173800D01*
X127006000Y-94798000D02*
X127318000Y-94486000D01*
X127006000Y-96436000D02*
X127006000Y-94798000D01*
%TO.N,/MCU/OSC_OUT*%
X129921000Y-97421000D02*
X129921000Y-95986600D01*
X128706000Y-98636000D02*
X129921000Y-97421000D01*
X128706000Y-98636000D02*
X128706000Y-100274000D01*
X131702600Y-94205000D02*
X134335000Y-94205000D01*
X129921000Y-95986600D02*
X131702600Y-94205000D01*
X128706000Y-100274000D02*
X128394000Y-100586000D01*
%TO.N,/MCU/BOOT0*%
X132658400Y-90570600D02*
X133341800Y-91254000D01*
X132658400Y-89319150D02*
X132658400Y-90570600D01*
X127230000Y-89685700D02*
X126639300Y-89685700D01*
X127240000Y-87056400D02*
X125625000Y-88671400D01*
X127230000Y-89685700D02*
X128015700Y-88900000D01*
X133341800Y-91254000D02*
X138006400Y-91254000D01*
X132403950Y-89064700D02*
X132658400Y-89319150D01*
X126639300Y-89685700D02*
X125625000Y-88671400D01*
X132397100Y-89064700D02*
X132403950Y-89064700D01*
X127240000Y-86531400D02*
X127240000Y-87056400D01*
X121125000Y-88671400D02*
X125625000Y-88671400D01*
X138006400Y-91254000D02*
X138260000Y-91000400D01*
X132232400Y-88900000D02*
X132397100Y-89064700D01*
X128015700Y-88900000D02*
X132232400Y-88900000D01*
X138260000Y-91000400D02*
X138260000Y-89780000D01*
%TO.N,Net-(C10-Pad2)*%
X128250000Y-88103550D02*
X128250000Y-86581400D01*
X128250000Y-86581400D02*
X128200000Y-86531400D01*
%TO.N,+5V*%
X145415000Y-81356200D02*
X143419600Y-83351600D01*
X131018400Y-115112800D02*
X130048000Y-115112800D01*
X141390000Y-84976600D02*
X141757400Y-85344000D01*
X132637400Y-113493800D02*
X131018400Y-115112800D01*
X143419600Y-83351600D02*
X141390000Y-83351600D01*
X148793200Y-81356200D02*
X145415000Y-81356200D01*
X141390000Y-83351600D02*
X141390000Y-84976600D01*
X149555200Y-81356200D02*
X150140800Y-81941800D01*
X148793200Y-81356200D02*
X149555200Y-81356200D01*
X150140800Y-81941800D02*
X150140800Y-83351600D01*
%TO.N,Net-(U5-VIN)*%
X132130800Y-108447671D02*
X132130800Y-109499400D01*
X132659035Y-107919435D02*
X132130800Y-108447671D01*
%TO.N,/CONNECTORS/CAM_ANALOG*%
X132130000Y-110465400D02*
X132080000Y-110515400D01*
X130124200Y-110515400D02*
X127177800Y-110515400D01*
X123291600Y-106629200D02*
X123291600Y-94945200D01*
X123291600Y-94945200D02*
X123774200Y-94462600D01*
X132080000Y-110515400D02*
X130124200Y-110515400D01*
X127177800Y-110515400D02*
X123291600Y-106629200D01*
%TO.N,Net-(U6-BOOT)*%
X133907200Y-89076200D02*
X135280400Y-90449400D01*
X133907200Y-89073900D02*
X133907200Y-89076200D01*
D43*
%TO.N,/CONNECTORS/VBAT*%
X150622000Y-111506000D02*
X146456400Y-111506000D01*
X145631400Y-112331000D02*
X145631400Y-113487200D01*
X151104600Y-111988600D02*
X150622000Y-111506000D01*
X146456400Y-111506000D02*
X145631400Y-112331000D01*
D42*
%TO.N,Net-(J1-CC2)*%
X150289800Y-96198155D02*
X152101645Y-98010000D01*
X152101645Y-98010000D02*
X154040000Y-98010000D01*
%TO.N,Net-(J1-CC1)*%
X150289800Y-102872000D02*
X152151800Y-101010000D01*
X152151800Y-101010000D02*
X154040000Y-101010000D01*
X150289800Y-103247222D02*
X150289800Y-102872000D01*
%TO.N,Net-(J1-D+-PadA6)*%
X151278623Y-99010000D02*
X154040000Y-99010000D01*
X150799800Y-98531177D02*
X151278623Y-99010000D01*
X153356176Y-99010000D02*
X153089000Y-99277176D01*
X154040000Y-99010000D02*
X153356176Y-99010000D01*
X153089000Y-99742824D02*
X153356176Y-100010000D01*
X153356176Y-100010000D02*
X154040000Y-100010000D01*
X153089000Y-99277176D02*
X153089000Y-99742824D01*
%TO.N,Net-(J1-D--PadA7)*%
X151204000Y-100510000D02*
X154040000Y-100510000D01*
X150799800Y-100914200D02*
X151204000Y-100510000D01*
X154991000Y-100242824D02*
X154723824Y-100510000D01*
X154991000Y-99777176D02*
X154991000Y-100242824D01*
X154723824Y-99510000D02*
X154991000Y-99777176D01*
X154723824Y-100510000D02*
X154040000Y-100510000D01*
X154040000Y-99510000D02*
X154723824Y-99510000D01*
%TO.N,/CONNECTORS/UART2_RX*%
X134061200Y-107670600D02*
X133273800Y-108458000D01*
X133273800Y-108458000D02*
X133273800Y-111429800D01*
X133273800Y-111429800D02*
X134637400Y-112793400D01*
X135356600Y-101346000D02*
X135572600Y-101130000D01*
X135572600Y-101130000D02*
X136260000Y-101130000D01*
X134637400Y-112793400D02*
X134637400Y-113493800D01*
%TO.N,/CONNECTORS/UART2_TX*%
X132859000Y-99205000D02*
X134335000Y-99205000D01*
X132275665Y-99788335D02*
X132859000Y-99205000D01*
X132275665Y-99789065D02*
X132275665Y-99788335D01*
X135637400Y-112599600D02*
X135637400Y-113493800D01*
X135216900Y-112179100D02*
X135637400Y-112599600D01*
%TO.N,/CONNECTORS/UART4_RX*%
X132511200Y-98705000D02*
X134335000Y-98705000D01*
X131000500Y-100215700D02*
X132511200Y-98705000D01*
%TO.N,/CONNECTORS/UART4_TX*%
X130936250Y-99614700D02*
X130560100Y-99614700D01*
X132345950Y-98205000D02*
X130936250Y-99614700D01*
X134335000Y-98205000D02*
X132345950Y-98205000D01*
X130560100Y-99614700D02*
X129667000Y-100507800D01*
%TO.N,/CONNECTORS/UART5_TX*%
X142925800Y-87147400D02*
X141760000Y-88313200D01*
X141760000Y-88313200D02*
X141760000Y-89780000D01*
X144500600Y-87147400D02*
X142925800Y-87147400D01*
X147140800Y-84507200D02*
X144500600Y-87147400D01*
X147140800Y-83351600D02*
X147140800Y-84507200D01*
%TO.N,/CONNECTORS/UART5_RX*%
X141260000Y-88000400D02*
X141260000Y-89780000D01*
X147091400Y-85902800D02*
X147167600Y-85826600D01*
X144653000Y-85902800D02*
X143357600Y-85902800D01*
X147345400Y-85826600D02*
X148140800Y-85031200D01*
X147167600Y-85826600D02*
X147345400Y-85826600D01*
X143357600Y-85902800D02*
X141260000Y-88000400D01*
X148140800Y-85031200D02*
X148140800Y-83351600D01*
%TO.N,/CONNECTORS/VIDEO*%
X131445000Y-107542800D02*
X132130000Y-106857800D01*
X131445000Y-108864400D02*
X131445000Y-107542800D01*
X146989800Y-114681000D02*
X147631400Y-114039400D01*
X147631400Y-114039400D02*
X147631400Y-113487200D01*
X144449800Y-114681000D02*
X146989800Y-114681000D01*
X143433800Y-113665000D02*
X144449800Y-114681000D01*
%TO.N,/CONNECTORS/UART3_RX*%
X147955000Y-116103400D02*
X148631400Y-115427000D01*
X145973800Y-115316000D02*
X143865600Y-115316000D01*
X142760000Y-114210400D02*
X142760000Y-101130000D01*
X146761200Y-116103400D02*
X147955000Y-116103400D01*
X145973800Y-115316000D02*
X146761200Y-116103400D01*
X143865600Y-115316000D02*
X142760000Y-114210400D01*
X148631400Y-115427000D02*
X148631400Y-113487200D01*
%TO.N,/CONNECTORS/UART3_TX*%
X145338800Y-115925600D02*
X143306800Y-115925600D01*
X146024600Y-116611400D02*
X148513800Y-116611400D01*
X149631400Y-115493800D02*
X149631400Y-113487200D01*
X146024600Y-116611400D02*
X145338800Y-115925600D01*
X148513800Y-116611400D02*
X149631400Y-115493800D01*
X143306800Y-115925600D02*
X142260000Y-114878800D01*
X142260000Y-114878800D02*
X142260000Y-101130000D01*
%TO.N,/CONNECTORS/SWDIO*%
X154148800Y-88980000D02*
X155230000Y-88980000D01*
X145685000Y-92705000D02*
X150423800Y-92705000D01*
X150423800Y-92705000D02*
X154148800Y-88980000D01*
%TO.N,/CONNECTORS/SWCLK*%
X145560000Y-87980000D02*
X155230000Y-87980000D01*
X143760000Y-89780000D02*
X145560000Y-87980000D01*
%TO.N,Net-(J8-Pin_3)*%
X138283600Y-82245200D02*
X139390000Y-83351600D01*
X131597400Y-81176100D02*
X131597400Y-81991200D01*
X137134600Y-82245200D02*
X138283600Y-82245200D01*
X131597400Y-81991200D02*
X132435600Y-82829400D01*
X132435600Y-82829400D02*
X136550400Y-82829400D01*
X136550400Y-82829400D02*
X137134600Y-82245200D01*
%TO.N,/CONNECTORS/MOTOR3*%
X148259800Y-95758000D02*
X147812800Y-96205000D01*
X147812800Y-96205000D02*
X145685000Y-96205000D01*
%TO.N,/CONNECTORS/ADC_CURR*%
X135476400Y-96705000D02*
X134335000Y-96705000D01*
X136626600Y-95554800D02*
X135476400Y-96705000D01*
%TO.N,/CONNECTORS/MOTOR1*%
X144068800Y-94945200D02*
X144328600Y-95205000D01*
X144328600Y-95205000D02*
X145685000Y-95205000D01*
%TO.N,/CONNECTORS/MOTOR4*%
X146865000Y-95705000D02*
X145685000Y-95705000D01*
X147904200Y-94665800D02*
X146865000Y-95705000D01*
%TO.N,/CONNECTORS/MOTOR2*%
X144348200Y-94177024D02*
X144876176Y-94705000D01*
X144876176Y-94705000D02*
X145685000Y-94705000D01*
X144348200Y-93091000D02*
X144348200Y-94177024D01*
%TO.N,/CONNECTORS/UART1_RX*%
X138760000Y-92100200D02*
X138760000Y-89780000D01*
X138760200Y-92100400D02*
X138760000Y-92100200D01*
%TO.N,Net-(Q1-B)*%
X132047216Y-79301100D02*
X132547400Y-79301100D01*
X133195600Y-81915000D02*
X133221000Y-81940400D01*
X133195600Y-81455500D02*
X133195600Y-81915000D01*
X129973800Y-81940400D02*
X129973800Y-81374516D01*
X132547400Y-80807300D02*
X133195600Y-81455500D01*
X132547400Y-79301100D02*
X132547400Y-80807300D01*
X129973800Y-81374516D02*
X132047216Y-79301100D01*
%TO.N,/CONNECTORS/UART6_RX*%
X147447000Y-97663000D02*
X147447000Y-97256600D01*
X147447000Y-97256600D02*
X146895400Y-96705000D01*
X146895400Y-96705000D02*
X145685000Y-96705000D01*
%TO.N,/MCU/BOOT1*%
X141760000Y-101130000D02*
X141760000Y-102298467D01*
X141579600Y-102478867D02*
X141579600Y-103274400D01*
X141760000Y-102298467D02*
X141579600Y-102478867D01*
%TO.N,/MCU/I2C1_SDA*%
X134645400Y-87833200D02*
X135001000Y-88188800D01*
X135001000Y-88188800D02*
X136906000Y-88188800D01*
X135403700Y-86726700D02*
X134888300Y-86726700D01*
X136904000Y-85293200D02*
X136904000Y-85613199D01*
X136904000Y-85613199D02*
X135790499Y-86726700D01*
X135790499Y-86726700D02*
X135403700Y-86726700D01*
X136906000Y-88188800D02*
X137260000Y-88542800D01*
X134645400Y-86969600D02*
X134645400Y-87833200D01*
X134888300Y-86726700D02*
X134645400Y-86969600D01*
X137260000Y-88542800D02*
X137260000Y-89780000D01*
%TO.N,Net-(U3-SDO)*%
X132854250Y-87376700D02*
X132127400Y-88103550D01*
X133803700Y-87376700D02*
X132854250Y-87376700D01*
%TO.N,/MCU/I2C1_SCL*%
X136983660Y-87465000D02*
X136904000Y-87465000D01*
X136904000Y-87465000D02*
X135492000Y-87465000D01*
X137760000Y-89780000D02*
X137760000Y-88241340D01*
X135492000Y-87465000D02*
X135403700Y-87376700D01*
X137760000Y-88241340D02*
X136983660Y-87465000D01*
%TO.N,Net-(U4-~{WP}{slash}IO_{2})*%
X146815000Y-108010000D02*
X144585000Y-108010000D01*
X144585000Y-108010000D02*
X144575000Y-108000000D01*
%TO.N,Net-(U4-~{HOLD}{slash}~{RESET}{slash}IO_{3})*%
X136850000Y-108720000D02*
X137400000Y-109270000D01*
X135275000Y-108720000D02*
X136850000Y-108720000D01*
%TO.N,/MCU/ADC_VBAT*%
X134335000Y-95705000D02*
X133225200Y-95705000D01*
X133225200Y-95705000D02*
X132740400Y-96189800D01*
%TO.N,/CONNECTORS/USB_DN*%
X145685000Y-93705000D02*
X148086400Y-93705000D01*
X148945600Y-94564200D02*
X148945600Y-99009200D01*
X149779800Y-99843400D02*
X149779800Y-100914200D01*
X148086400Y-93705000D02*
X148945600Y-94564200D01*
X148945600Y-99009200D02*
X149779800Y-99843400D01*
%TO.N,/CONNECTORS/USB_DP*%
X149453600Y-98204977D02*
X149453600Y-94361000D01*
X148297600Y-93205000D02*
X145685000Y-93205000D01*
X149453600Y-94361000D02*
X148297600Y-93205000D01*
X149779800Y-98531177D02*
X149453600Y-98204977D01*
%TO.N,/CONNECTORS/BEEPER*%
X135788400Y-92849576D02*
X135788400Y-93573600D01*
X135143824Y-92205000D02*
X135788400Y-92849576D01*
X128957400Y-81976350D02*
X128957400Y-81944000D01*
X130877250Y-83896200D02*
X128957400Y-81976350D01*
X134335000Y-92205000D02*
X135143824Y-92205000D01*
X133604000Y-83896200D02*
X130877250Y-83896200D01*
X128957400Y-81944000D02*
X128953800Y-81940400D01*
%TO.N,/FLASH/FLASH_MOSI*%
X137400000Y-106730000D02*
X139877800Y-104252200D01*
X142096400Y-97705000D02*
X145685000Y-97705000D01*
X142087600Y-97713800D02*
X142096400Y-97705000D01*
X139877800Y-104252200D02*
X139877800Y-102997000D01*
%TO.N,/MCU/GYRO_SS*%
X133045200Y-105841800D02*
X130987800Y-105841800D01*
X138099800Y-102565200D02*
X137760000Y-102225400D01*
X135321600Y-104419400D02*
X134467600Y-104419400D01*
X130987800Y-105841800D02*
X130446400Y-105300400D01*
X137760000Y-102225400D02*
X137760000Y-101130000D01*
X134467600Y-104419400D02*
X133045200Y-105841800D01*
X130446400Y-105300400D02*
X130198500Y-105300400D01*
%TO.N,/MCU/GYRO_SCLK*%
X137972800Y-99517200D02*
X138049000Y-99517200D01*
X138049000Y-99517200D02*
X138260000Y-99728200D01*
X138260000Y-99728200D02*
X138260000Y-101130000D01*
X130562848Y-104800400D02*
X130198500Y-104800400D01*
X130893048Y-105130600D02*
X130562848Y-104800400D01*
X132805618Y-105130600D02*
X130893048Y-105130600D01*
X132840734Y-105095484D02*
X132805618Y-105130600D01*
D44*
%TO.N,Net-(D3-A)*%
X154040000Y-97360000D02*
X154689999Y-97360000D01*
D45*
X158320000Y-108270000D02*
X158320000Y-107342200D01*
X156921200Y-102260400D02*
X155757999Y-101097199D01*
D44*
X154689999Y-102160000D02*
X154040000Y-102160000D01*
X154689999Y-97360000D02*
X155752800Y-98422801D01*
D42*
X155757999Y-101097199D02*
X155752800Y-101097199D01*
D45*
X158320000Y-107342200D02*
X156921200Y-105943400D01*
X156921200Y-105943400D02*
X156921200Y-102260400D01*
D44*
X155752800Y-101097199D02*
X154689999Y-102160000D01*
D45*
X155752800Y-98422801D02*
X155752800Y-101097199D01*
D42*
%TO.N,/MCU/OSD_MOSI*%
X138912600Y-93853000D02*
X139760000Y-93005600D01*
X139760000Y-93005600D02*
X139760000Y-89780000D01*
X138912600Y-94386400D02*
X138912600Y-93853000D01*
%TO.N,/MCU/LED0*%
X124999500Y-94685100D02*
X124999500Y-95906000D01*
X130822808Y-92719265D02*
X130324922Y-92719265D01*
X126220080Y-93472000D02*
X126191080Y-93501000D01*
X134335000Y-92705000D02*
X134330000Y-92710000D01*
X130832073Y-92710000D02*
X130822808Y-92719265D01*
X129489200Y-92710000D02*
X128727200Y-93472000D01*
X130315657Y-92710000D02*
X129489200Y-92710000D01*
X134330000Y-92710000D02*
X130832073Y-92710000D01*
X128727200Y-93472000D02*
X126220080Y-93472000D01*
X126183600Y-93501000D02*
X124999500Y-94685100D01*
X130324922Y-92719265D02*
X130315657Y-92710000D01*
X126191080Y-93501000D02*
X126183600Y-93501000D01*
%TO.N,/MCU/GYRO_MISO*%
X138760000Y-103327400D02*
X138760000Y-101130000D01*
X135432800Y-103098600D02*
X136194800Y-103860600D01*
X136194800Y-103860600D02*
X138226800Y-103860600D01*
X130036000Y-103637900D02*
X130575300Y-103098600D01*
X130575300Y-103098600D02*
X135432800Y-103098600D01*
X138226800Y-103860600D02*
X138760000Y-103327400D01*
%TO.N,/MCU/OSD_SCLK*%
X142760000Y-94857000D02*
X142646400Y-94970600D01*
X142760000Y-89780000D02*
X142760000Y-94857000D01*
%TO.N,/FLASH/FLASH_MISO*%
X147436000Y-99147176D02*
X146493824Y-98205000D01*
X146493824Y-98205000D02*
X145685000Y-98205000D01*
X147436000Y-108329340D02*
X147436000Y-99147176D01*
X144575000Y-109270000D02*
X146495340Y-109270000D01*
X146495340Y-109270000D02*
X147436000Y-108329340D01*
%TO.N,/MCU/OSD_MISO*%
X142260000Y-92893200D02*
X142260000Y-89780000D01*
X141401800Y-93751400D02*
X142260000Y-92893200D01*
%TO.N,/MCU/GYRO_INT*%
X128536000Y-103637900D02*
X128536000Y-103273552D01*
X134899400Y-100177600D02*
X136499600Y-98577400D01*
X134162800Y-101371400D02*
X134899400Y-100634800D01*
X134899400Y-100634800D02*
X134899400Y-100177600D01*
X138049000Y-98577400D02*
X139760000Y-100288400D01*
X136499600Y-98577400D02*
X138049000Y-98577400D01*
X128536000Y-103273552D02*
X130438152Y-101371400D01*
X139760000Y-100288400D02*
X139760000Y-101130000D01*
X130438152Y-101371400D02*
X134162800Y-101371400D01*
%TO.N,/MCU/GYRO_MOSI*%
X136194800Y-104419400D02*
X136037000Y-104261600D01*
X139260000Y-103741800D02*
X138582400Y-104419400D01*
X138582400Y-104419400D02*
X136194800Y-104419400D01*
X136037000Y-104261600D02*
X136028700Y-104261600D01*
X131157600Y-104300400D02*
X130198500Y-104300400D01*
X136028700Y-104261600D02*
X135266700Y-103499600D01*
X131958400Y-103499600D02*
X131157600Y-104300400D01*
X135266700Y-103499600D02*
X131958400Y-103499600D01*
X139260000Y-101130000D02*
X139260000Y-103741800D01*
%TO.N,/FLASH/FLASH_SS*%
X146659600Y-100126800D02*
X146560000Y-100027200D01*
X146560000Y-100027200D02*
X146507200Y-100027200D01*
X149047200Y-108966000D02*
X147473200Y-110540000D01*
X149047200Y-100838000D02*
X149047200Y-108966000D01*
X148336000Y-100126800D02*
X149047200Y-100838000D01*
X148183600Y-100126800D02*
X148336000Y-100126800D01*
X147473200Y-110540000D02*
X144575000Y-110540000D01*
X146507200Y-100027200D02*
X145685000Y-99205000D01*
%TO.N,/MCU/OSD_SS*%
X143256000Y-96528000D02*
X143260000Y-96524000D01*
X143260000Y-96524000D02*
X143260000Y-89780000D01*
X143256000Y-96723200D02*
X143256000Y-96528000D01*
%TO.N,/FLASH/FLASH_SCLK*%
X137400000Y-108000000D02*
X138212499Y-108000000D01*
X140614400Y-105598099D02*
X140614400Y-103634198D01*
X142315600Y-98705000D02*
X145685000Y-98705000D01*
X138212499Y-108000000D02*
X140614400Y-105598099D01*
X142290800Y-98729800D02*
X142315600Y-98705000D01*
%TO.N,/MCU/LED1*%
X126673200Y-93875000D02*
X125570500Y-94977700D01*
X129603800Y-93205000D02*
X128933800Y-93875000D01*
X134335000Y-93205000D02*
X129603800Y-93205000D01*
X125570500Y-98595000D02*
X124999500Y-99166000D01*
X125570500Y-94977700D02*
X125570500Y-98595000D01*
X128933800Y-93875000D02*
X126673200Y-93875000D01*
%TO.N,/MCU/LED_STRIP*%
X140760000Y-87115200D02*
X140760000Y-89780000D01*
X139217400Y-85572600D02*
X140760000Y-87115200D01*
%TD*%
M02*
