%TF.GenerationSoftware,KiCad,Pcbnew,9.0.4*%
%TF.CreationDate,2025-08-18T21:08:18+08:00*%
%TF.ProjectId,tinybee-1.0,74696e79-6265-4652-9d31-2e302e6b6963,rev?*%
%TF.SameCoordinates,Original*%
%TF.FileFunction,Copper,L2,Inr*%
%TF.FilePolarity,Positive*%
%FSLAX46Y46*%
G04 Gerber Fmt 4.6, Leading zero omitted, Abs format (unit mm)*
G04 Created by KiCad (PCBNEW 9.0.4) date 2025-08-18 21:08:18*
%MOMM*%
%LPD*%
G01*
G04 APERTURE LIST*
%TA.AperFunction,HeatsinkPad*%
%ADD10O,2.100000X1.000000*%
%TD*%
%TA.AperFunction,HeatsinkPad*%
%ADD11O,1.600000X1.000000*%
%TD*%
%TA.AperFunction,ViaPad*%
%ADD12C,0.600000*%
%TD*%
%TA.AperFunction,Conductor*%
%ADD13C,0.200000*%
%TD*%
G04 APERTURE END LIST*
D10*
%TO.N,GND*%
%TO.C,J1*%
X154360800Y-105178000D03*
D11*
X158540800Y-105178000D03*
D10*
X154360800Y-96538000D03*
D11*
X158540800Y-96538000D03*
%TD*%
D12*
%TO.N,GND*%
X135051800Y-115011200D03*
X123040020Y-91696420D03*
X129034000Y-79335400D03*
X159253400Y-93300200D03*
X121412000Y-112318800D03*
X139162000Y-79466400D03*
X135533335Y-87324135D03*
X137591800Y-89362400D03*
X132765800Y-117525800D03*
X141325600Y-113436400D03*
X144570800Y-79328800D03*
X134955365Y-93187435D03*
X138365800Y-117525800D03*
X141638300Y-92895700D03*
X137134600Y-107162600D03*
X126013600Y-87147400D03*
X159253400Y-87700200D03*
X153314400Y-88315800D03*
X142849600Y-117525800D03*
X143842200Y-117521200D03*
X132588000Y-100330000D03*
X142245165Y-105034165D03*
X150170800Y-79328800D03*
X127152400Y-110998000D03*
X142671800Y-100558600D03*
X127508000Y-94615000D03*
X152450800Y-91211400D03*
X134239000Y-86360000D03*
X150442200Y-117521200D03*
X147870800Y-83203800D03*
X135368600Y-117525800D03*
X133634000Y-79335400D03*
X146583400Y-108788200D03*
X129768600Y-117525800D03*
X139776200Y-85877400D03*
X137234800Y-104677510D03*
X128450400Y-98628200D03*
X121513600Y-87147400D03*
X155378400Y-91000200D03*
X125709800Y-103300600D03*
%TO.N,+3V3*%
X134661996Y-99654924D03*
X135382000Y-85394800D03*
X157962600Y-91541600D03*
X150328400Y-90906600D03*
X137184446Y-105475926D03*
X125730000Y-91897200D03*
X139090400Y-111785400D03*
X135890000Y-111769600D03*
X139090400Y-110871000D03*
X150266400Y-103098600D03*
X152095200Y-111836200D03*
X145440200Y-98907600D03*
X155378400Y-92000200D03*
%TO.N,/MCU/NRST*%
X134772715Y-95704200D03*
X128600200Y-91059000D03*
%TO.N,+5V*%
X136497022Y-105953000D03*
X129772353Y-104928375D03*
X154629800Y-108399800D03*
X128473200Y-84632800D03*
X148869400Y-80695800D03*
X121564400Y-109372400D03*
X141782800Y-114731800D03*
X134061200Y-115011200D03*
X129410400Y-98628200D03*
%TO.N,/CONNECTORS/CAM_ANALOG*%
X125552200Y-109372400D03*
X131546600Y-85166200D03*
%TO.N,+10V*%
X144348200Y-109905800D03*
%TO.N,/CONNECTORS/UART2_RX*%
X132283200Y-107035600D03*
X136829800Y-103987600D03*
%TO.N,/CONNECTORS/UART2_TX*%
X130429000Y-111836200D03*
X135737600Y-101803200D03*
%TO.N,/CONNECTORS/UART4_TX*%
X139141200Y-99952200D03*
X134975600Y-111099600D03*
%TO.N,/CONNECTORS/UART4_RX*%
X134721600Y-100558600D03*
X132588000Y-112014000D03*
%TO.N,/CONNECTORS/UART5_RX*%
X146431000Y-85521800D03*
X144635135Y-85529335D03*
%TO.N,/CONNECTORS/UART3_TX*%
X147574000Y-112039400D03*
X144043400Y-104495600D03*
%TO.N,/CONNECTORS/UART3_RX*%
X146050000Y-115239435D03*
X144957800Y-104648000D03*
%TO.N,/CONNECTORS/MOTOR4*%
X149372800Y-96627033D03*
X152064367Y-96627033D03*
%TO.N,/CONNECTORS/MOTOR3*%
X140893800Y-95504000D03*
X143154400Y-86080600D03*
%TO.N,/CONNECTORS/MOTOR2*%
X149372801Y-95627033D03*
X142875000Y-84582000D03*
%TO.N,/CONNECTORS/UART1_RX*%
X141554200Y-86944200D03*
%TO.N,/CONNECTORS/MOTOR1*%
X146318488Y-95266074D03*
X141986000Y-85648800D03*
%TO.N,/CONNECTORS/ADC_CURR*%
X145821400Y-86334600D03*
X140690600Y-98247200D03*
%TO.N,/CONNECTORS/UART6_RX*%
X143281400Y-97917000D03*
X139796949Y-112542749D03*
%TO.N,/MCU/I2C1_SCL*%
X136779000Y-86927000D03*
X135077200Y-90889200D03*
%TO.N,/MCU/ADC_VBAT*%
X138404600Y-95935800D03*
X152831800Y-94411800D03*
%TO.N,/CONNECTORS/BEEPER*%
X136398000Y-88315800D03*
X135820448Y-93104200D03*
%TO.N,/MCU/GYRO_MISO*%
X141351000Y-104216200D03*
X134737685Y-105451485D03*
%TO.N,/FLASH/FLASH_MOSI*%
X148153200Y-103759000D03*
X149892665Y-110406535D03*
%TO.N,/MCU/OSD_MISO*%
X129641600Y-92913200D03*
X143179800Y-92583000D03*
%TO.N,/MCU/OSD_MOSI*%
X142163800Y-95656400D03*
X128144515Y-96572315D03*
%TO.N,/MCU/OSD_SCLK*%
X129997200Y-93878400D03*
X143738600Y-93446600D03*
%TO.N,/MCU/GYRO_INT*%
X132765800Y-108991400D03*
X137845800Y-109245400D03*
%TO.N,/MCU/OSD_SS*%
X129641600Y-97358200D03*
X145514000Y-94272330D03*
%TD*%
D13*
%TO.N,GND*%
X141638300Y-92895700D02*
X138105000Y-89362400D01*
X138105000Y-89362400D02*
X137591800Y-89362400D01*
%TO.N,+3V3*%
X151065001Y-89814400D02*
X153136600Y-89814400D01*
X139090400Y-112889343D02*
X140238457Y-114037400D01*
X139090400Y-111785400D02*
X139090400Y-112889343D01*
X149894000Y-114037400D02*
X152095200Y-111836200D01*
X154303600Y-92000200D02*
X155378400Y-92000200D01*
X151179400Y-92000200D02*
X155378400Y-92000200D01*
X155270200Y-91948000D02*
X155326200Y-91948000D01*
X155326200Y-91948000D02*
X155378400Y-92000200D01*
X150328400Y-90906600D02*
X150328400Y-90551001D01*
X153136600Y-89814400D02*
X155270200Y-91948000D01*
X145440200Y-98907600D02*
X145440200Y-97739400D01*
X150266400Y-96037400D02*
X154303600Y-92000200D01*
X150266400Y-103098600D02*
X150266400Y-96037400D01*
X150328400Y-90551001D02*
X151065001Y-89814400D01*
X145440200Y-97739400D02*
X151179400Y-92000200D01*
X140238457Y-114037400D02*
X149894000Y-114037400D01*
%TO.N,/MCU/NRST*%
X128600200Y-91059000D02*
X128600200Y-93700600D01*
X128600200Y-93700600D02*
X130603800Y-95704200D01*
X130603800Y-95704200D02*
X134772715Y-95704200D01*
%TO.N,/CONNECTORS/UART2_RX*%
X132283200Y-107035600D02*
X135331200Y-103987600D01*
X135331200Y-103987600D02*
X136829800Y-103987600D01*
%TO.N,/CONNECTORS/UART2_TX*%
X135737600Y-101803200D02*
X130429000Y-107111800D01*
X130429000Y-107111800D02*
X130429000Y-111836200D01*
%TO.N,/CONNECTORS/UART5_RX*%
X146423465Y-85529335D02*
X146431000Y-85521800D01*
X144635135Y-85529335D02*
X146423465Y-85529335D01*
%TO.N,/CONNECTORS/UART3_TX*%
X144830800Y-108585000D02*
X144830800Y-109296200D01*
X144043400Y-104495600D02*
X144043400Y-107797600D01*
X144830800Y-109296200D02*
X147574000Y-112039400D01*
X144043400Y-107797600D02*
X144830800Y-108585000D01*
%TO.N,/CONNECTORS/MOTOR1*%
X146318488Y-90094631D02*
X146318488Y-95266074D01*
X141986000Y-85648800D02*
X141986000Y-85762143D01*
X141986000Y-85762143D02*
X146318488Y-90094631D01*
%TO.N,/MCU/I2C1_SCL*%
X135585200Y-88120800D02*
X135585200Y-90381200D01*
X136779000Y-86927000D02*
X135585200Y-88120800D01*
X135585200Y-90381200D02*
X135077200Y-90889200D01*
%TO.N,/CONNECTORS/BEEPER*%
X135820448Y-93097648D02*
X135820448Y-93104200D01*
X135458200Y-91465400D02*
X135458200Y-92735400D01*
X136398000Y-88315800D02*
X136398000Y-90525600D01*
X135458200Y-92735400D02*
X135820448Y-93097648D01*
X136398000Y-90525600D02*
X135458200Y-91465400D01*
%TO.N,/MCU/GYRO_MISO*%
X139014200Y-106553000D02*
X141351000Y-104216200D01*
X135093285Y-105451485D02*
X136194800Y-106553000D01*
X134737685Y-105451485D02*
X135093285Y-105451485D01*
X136194800Y-106553000D02*
X139014200Y-106553000D01*
%TO.N,/FLASH/FLASH_MOSI*%
X148153200Y-103759000D02*
X149892665Y-105498465D01*
X149892665Y-105498465D02*
X149892665Y-110406535D01*
%TO.N,/MCU/OSD_MISO*%
X133832600Y-92913200D02*
X134899400Y-93980000D01*
X134899400Y-93980000D02*
X141782800Y-93980000D01*
X129641600Y-92913200D02*
X133832600Y-92913200D01*
X141782800Y-93980000D02*
X143179800Y-92583000D01*
%TO.N,/MCU/OSD_MOSI*%
X128144515Y-96572315D02*
X128677915Y-96572315D01*
X141071600Y-96748600D02*
X142163800Y-95656400D01*
X128854200Y-96748600D02*
X141071600Y-96748600D01*
X128677915Y-96572315D02*
X128854200Y-96748600D01*
%TO.N,/MCU/OSD_SCLK*%
X133375400Y-93878400D02*
X134289800Y-94792800D01*
X134289800Y-94792800D02*
X142392400Y-94792800D01*
X129997200Y-93878400D02*
X133375400Y-93878400D01*
X142392400Y-94792800D02*
X143738600Y-93446600D01*
%TO.N,/MCU/GYRO_INT*%
X132765800Y-108991400D02*
X133019800Y-109245400D01*
X133019800Y-109245400D02*
X137845800Y-109245400D01*
%TO.N,/MCU/OSD_SS*%
X144475200Y-94894400D02*
X142011400Y-97358200D01*
X144891930Y-94894400D02*
X144475200Y-94894400D01*
X145514000Y-94272330D02*
X144891930Y-94894400D01*
X142011400Y-97358200D02*
X129641600Y-97358200D01*
%TD*%
%TA.AperFunction,Conductor*%
%TO.N,+5V*%
G36*
X136317073Y-104607785D02*
G01*
X136318923Y-104608997D01*
X136379189Y-104649264D01*
X136423995Y-104702875D01*
X136434300Y-104752367D01*
X136434300Y-104756356D01*
X136465060Y-104910998D01*
X136465061Y-104910999D01*
X136465063Y-104911007D01*
X136491016Y-104973664D01*
X136498484Y-105043132D01*
X136479560Y-105090000D01*
X136475054Y-105096743D01*
X136475048Y-105096754D01*
X136414710Y-105242424D01*
X136414707Y-105242436D01*
X136383946Y-105397079D01*
X136383946Y-105554768D01*
X136388160Y-105575956D01*
X136381931Y-105645547D01*
X136339067Y-105700724D01*
X136273177Y-105723967D01*
X136205180Y-105707898D01*
X136178861Y-105687826D01*
X135583259Y-105092224D01*
X135573806Y-105082771D01*
X135573805Y-105082769D01*
X135462001Y-104970965D01*
X135422815Y-104948341D01*
X135413203Y-104939721D01*
X135401336Y-104920545D01*
X135385774Y-104904224D01*
X135383304Y-104891407D01*
X135376435Y-104880308D01*
X135376819Y-104857758D01*
X135372552Y-104835617D01*
X135377402Y-104823500D01*
X135377625Y-104810448D01*
X135390139Y-104791685D01*
X135398520Y-104770752D01*
X135408290Y-104759744D01*
X135543617Y-104624416D01*
X135604940Y-104590934D01*
X135631297Y-104588100D01*
X136250034Y-104588100D01*
X136317073Y-104607785D01*
G37*
%TD.AperFunction*%
%TA.AperFunction,Conductor*%
G36*
X128604186Y-78451184D02*
G01*
X128649941Y-78503988D01*
X128659885Y-78573146D01*
X128630860Y-78636702D01*
X128606038Y-78658601D01*
X128523711Y-78713610D01*
X128523707Y-78713613D01*
X128412213Y-78825107D01*
X128412210Y-78825111D01*
X128324609Y-78956214D01*
X128324602Y-78956227D01*
X128264264Y-79101898D01*
X128264261Y-79101910D01*
X128233500Y-79256553D01*
X128233500Y-79414246D01*
X128264261Y-79568889D01*
X128264264Y-79568901D01*
X128324602Y-79714572D01*
X128324609Y-79714585D01*
X128412210Y-79845688D01*
X128412213Y-79845692D01*
X128523707Y-79957186D01*
X128523711Y-79957189D01*
X128654814Y-80044790D01*
X128654827Y-80044797D01*
X128784564Y-80098535D01*
X128800503Y-80105137D01*
X128921973Y-80129299D01*
X128955153Y-80135899D01*
X128955156Y-80135900D01*
X128955158Y-80135900D01*
X129112844Y-80135900D01*
X129112845Y-80135899D01*
X129267497Y-80105137D01*
X129413179Y-80044794D01*
X129544289Y-79957189D01*
X129655789Y-79845689D01*
X129743394Y-79714579D01*
X129803737Y-79568897D01*
X129834500Y-79414242D01*
X129834500Y-79256558D01*
X129834500Y-79256555D01*
X129834499Y-79256553D01*
X129832246Y-79245226D01*
X129803737Y-79101903D01*
X129777364Y-79038233D01*
X129743397Y-78956227D01*
X129743390Y-78956214D01*
X129655789Y-78825111D01*
X129655786Y-78825107D01*
X129544292Y-78713613D01*
X129544288Y-78713610D01*
X129461962Y-78658601D01*
X129417157Y-78604989D01*
X129408450Y-78535664D01*
X129438605Y-78472636D01*
X129498048Y-78435917D01*
X129530853Y-78431499D01*
X133137147Y-78431499D01*
X133204186Y-78451184D01*
X133249941Y-78503988D01*
X133259885Y-78573146D01*
X133230860Y-78636702D01*
X133206038Y-78658601D01*
X133123711Y-78713610D01*
X133123707Y-78713613D01*
X133012213Y-78825107D01*
X133012210Y-78825111D01*
X132924609Y-78956214D01*
X132924602Y-78956227D01*
X132864264Y-79101898D01*
X132864261Y-79101910D01*
X132833500Y-79256553D01*
X132833500Y-79414246D01*
X132864261Y-79568889D01*
X132864264Y-79568901D01*
X132924602Y-79714572D01*
X132924609Y-79714585D01*
X133012210Y-79845688D01*
X133012213Y-79845692D01*
X133123707Y-79957186D01*
X133123711Y-79957189D01*
X133254814Y-80044790D01*
X133254827Y-80044797D01*
X133384564Y-80098535D01*
X133400503Y-80105137D01*
X133521973Y-80129299D01*
X133555153Y-80135899D01*
X133555156Y-80135900D01*
X133555158Y-80135900D01*
X133712844Y-80135900D01*
X133712845Y-80135899D01*
X133867497Y-80105137D01*
X134013179Y-80044794D01*
X134144289Y-79957189D01*
X134255789Y-79845689D01*
X134343394Y-79714579D01*
X134403737Y-79568897D01*
X134434500Y-79414242D01*
X134434500Y-79256558D01*
X134434500Y-79256555D01*
X134434499Y-79256553D01*
X134432246Y-79245226D01*
X134403737Y-79101903D01*
X134377364Y-79038233D01*
X134343397Y-78956227D01*
X134343390Y-78956214D01*
X134255789Y-78825111D01*
X134255786Y-78825107D01*
X134144292Y-78713613D01*
X134144288Y-78713610D01*
X134061962Y-78658601D01*
X134017157Y-78604989D01*
X134008450Y-78535664D01*
X134038605Y-78472636D01*
X134098048Y-78435917D01*
X134130853Y-78431499D01*
X139002578Y-78431499D01*
X139069617Y-78451184D01*
X139115372Y-78503988D01*
X139125316Y-78573146D01*
X139096291Y-78636702D01*
X139037513Y-78674476D01*
X139026769Y-78677116D01*
X138928510Y-78696661D01*
X138928498Y-78696664D01*
X138782827Y-78757002D01*
X138782814Y-78757009D01*
X138651711Y-78844610D01*
X138651707Y-78844613D01*
X138540213Y-78956107D01*
X138540210Y-78956111D01*
X138452609Y-79087214D01*
X138452602Y-79087227D01*
X138392264Y-79232898D01*
X138392261Y-79232910D01*
X138361500Y-79387553D01*
X138361500Y-79545246D01*
X138392261Y-79699889D01*
X138392264Y-79699901D01*
X138452602Y-79845572D01*
X138452609Y-79845585D01*
X138540210Y-79976688D01*
X138540213Y-79976692D01*
X138651707Y-80088186D01*
X138651711Y-80088189D01*
X138782814Y-80175790D01*
X138782827Y-80175797D01*
X138928498Y-80236135D01*
X138928503Y-80236137D01*
X139083153Y-80266899D01*
X139083156Y-80266900D01*
X139083158Y-80266900D01*
X139240844Y-80266900D01*
X139240845Y-80266899D01*
X139395497Y-80236137D01*
X139541179Y-80175794D01*
X139672289Y-80088189D01*
X139783789Y-79976689D01*
X139870216Y-79847341D01*
X139871390Y-79845585D01*
X139871390Y-79845584D01*
X139871394Y-79845579D01*
X139931737Y-79699897D01*
X139962500Y-79545242D01*
X139962500Y-79387558D01*
X139962500Y-79387555D01*
X139962499Y-79387553D01*
X139936442Y-79256558D01*
X139931737Y-79232903D01*
X139931735Y-79232898D01*
X139871397Y-79087227D01*
X139871390Y-79087214D01*
X139783789Y-78956111D01*
X139783786Y-78956107D01*
X139672292Y-78844613D01*
X139672288Y-78844610D01*
X139541185Y-78757009D01*
X139541172Y-78757002D01*
X139395501Y-78696664D01*
X139395489Y-78696661D01*
X139297231Y-78677116D01*
X139235320Y-78644731D01*
X139200746Y-78584015D01*
X139204485Y-78514246D01*
X139245352Y-78457574D01*
X139310370Y-78431993D01*
X139321422Y-78431499D01*
X144064070Y-78431499D01*
X144131109Y-78451184D01*
X144176864Y-78503988D01*
X144186808Y-78573146D01*
X144157783Y-78636702D01*
X144132961Y-78658601D01*
X144060511Y-78707010D01*
X144060507Y-78707013D01*
X143949013Y-78818507D01*
X143949010Y-78818511D01*
X143861409Y-78949614D01*
X143861402Y-78949627D01*
X143801064Y-79095298D01*
X143801061Y-79095310D01*
X143770300Y-79249953D01*
X143770300Y-79407646D01*
X143801061Y-79562289D01*
X143801064Y-79562301D01*
X143861402Y-79707972D01*
X143861409Y-79707985D01*
X143949010Y-79839088D01*
X143949013Y-79839092D01*
X144060507Y-79950586D01*
X144060511Y-79950589D01*
X144191614Y-80038190D01*
X144191627Y-80038197D01*
X144337298Y-80098535D01*
X144337303Y-80098537D01*
X144491953Y-80129299D01*
X144491956Y-80129300D01*
X144491958Y-80129300D01*
X144649644Y-80129300D01*
X144649645Y-80129299D01*
X144804297Y-80098537D01*
X144949979Y-80038194D01*
X145081089Y-79950589D01*
X145192589Y-79839089D01*
X145280194Y-79707979D01*
X145340537Y-79562297D01*
X145371300Y-79407642D01*
X145371300Y-79249958D01*
X145371300Y-79249955D01*
X145371299Y-79249953D01*
X145369780Y-79242317D01*
X145340537Y-79095303D01*
X145337189Y-79087221D01*
X145280197Y-78949627D01*
X145280190Y-78949614D01*
X145192589Y-78818511D01*
X145192586Y-78818507D01*
X145081092Y-78707013D01*
X145081088Y-78707010D01*
X145008639Y-78658601D01*
X144963834Y-78604989D01*
X144955127Y-78535664D01*
X144985281Y-78472636D01*
X145044724Y-78435917D01*
X145077530Y-78431499D01*
X149664070Y-78431499D01*
X149731109Y-78451184D01*
X149776864Y-78503988D01*
X149786808Y-78573146D01*
X149757783Y-78636702D01*
X149732961Y-78658601D01*
X149660511Y-78707010D01*
X149660507Y-78707013D01*
X149549013Y-78818507D01*
X149549010Y-78818511D01*
X149461409Y-78949614D01*
X149461402Y-78949627D01*
X149401064Y-79095298D01*
X149401061Y-79095310D01*
X149370300Y-79249953D01*
X149370300Y-79407646D01*
X149401061Y-79562289D01*
X149401064Y-79562301D01*
X149461402Y-79707972D01*
X149461409Y-79707985D01*
X149549010Y-79839088D01*
X149549013Y-79839092D01*
X149660507Y-79950586D01*
X149660511Y-79950589D01*
X149791614Y-80038190D01*
X149791627Y-80038197D01*
X149937298Y-80098535D01*
X149937303Y-80098537D01*
X150091953Y-80129299D01*
X150091956Y-80129300D01*
X150091958Y-80129300D01*
X150249644Y-80129300D01*
X150249645Y-80129299D01*
X150404297Y-80098537D01*
X150549979Y-80038194D01*
X150681089Y-79950589D01*
X150792589Y-79839089D01*
X150880194Y-79707979D01*
X150940537Y-79562297D01*
X150971300Y-79407642D01*
X150971300Y-79249958D01*
X150971300Y-79249955D01*
X150971299Y-79249953D01*
X150969780Y-79242317D01*
X150940537Y-79095303D01*
X150937189Y-79087221D01*
X150880197Y-78949627D01*
X150880190Y-78949614D01*
X150792589Y-78818511D01*
X150792586Y-78818507D01*
X150681092Y-78707013D01*
X150681088Y-78707010D01*
X150608639Y-78658601D01*
X150563834Y-78604989D01*
X150555127Y-78535664D01*
X150585281Y-78472636D01*
X150644724Y-78435917D01*
X150677530Y-78431499D01*
X155593508Y-78431499D01*
X155656694Y-78431499D01*
X155662102Y-78431616D01*
X156046171Y-78448385D01*
X156056906Y-78449325D01*
X156435371Y-78499151D01*
X156445997Y-78501024D01*
X156818684Y-78583647D01*
X156829110Y-78586441D01*
X157193165Y-78701226D01*
X157203311Y-78704919D01*
X157555974Y-78850997D01*
X157565769Y-78855565D01*
X157759139Y-78956227D01*
X157904342Y-79031815D01*
X157913709Y-79037222D01*
X158015248Y-79101910D01*
X158235644Y-79242317D01*
X158244505Y-79248522D01*
X158547330Y-79480888D01*
X158555617Y-79487842D01*
X158837035Y-79745714D01*
X158844684Y-79753363D01*
X159102556Y-80034781D01*
X159109510Y-80043068D01*
X159341882Y-80345901D01*
X159348086Y-80354762D01*
X159553171Y-80676679D01*
X159558576Y-80686041D01*
X159652881Y-80867198D01*
X159734831Y-81024622D01*
X159739403Y-81034426D01*
X159885476Y-81387077D01*
X159889176Y-81397243D01*
X160003955Y-81761277D01*
X160006755Y-81771726D01*
X160089372Y-82144388D01*
X160091250Y-82155041D01*
X160141072Y-82533472D01*
X160142015Y-82544248D01*
X160158782Y-82928273D01*
X160158900Y-82933682D01*
X160158900Y-87205740D01*
X160139215Y-87272779D01*
X160086411Y-87318534D01*
X160017253Y-87328478D01*
X159953697Y-87299453D01*
X159931798Y-87274631D01*
X159875189Y-87189911D01*
X159875186Y-87189907D01*
X159763692Y-87078413D01*
X159763688Y-87078410D01*
X159632585Y-86990809D01*
X159632572Y-86990802D01*
X159486901Y-86930464D01*
X159486889Y-86930461D01*
X159332245Y-86899700D01*
X159332242Y-86899700D01*
X159174558Y-86899700D01*
X159174555Y-86899700D01*
X159019910Y-86930461D01*
X159019898Y-86930464D01*
X158874227Y-86990802D01*
X158874214Y-86990809D01*
X158743111Y-87078410D01*
X158743107Y-87078413D01*
X158631613Y-87189907D01*
X158631610Y-87189911D01*
X158544009Y-87321014D01*
X158544002Y-87321027D01*
X158483664Y-87466698D01*
X158483661Y-87466710D01*
X158452900Y-87621353D01*
X158452900Y-87779046D01*
X158483661Y-87933689D01*
X158483664Y-87933701D01*
X158544002Y-88079372D01*
X158544009Y-88079385D01*
X158631610Y-88210488D01*
X158631613Y-88210492D01*
X158743107Y-88321986D01*
X158743111Y-88321989D01*
X158874214Y-88409590D01*
X158874227Y-88409597D01*
X158983955Y-88455047D01*
X159019903Y-88469937D01*
X159174553Y-88500699D01*
X159174556Y-88500700D01*
X159174558Y-88500700D01*
X159332244Y-88500700D01*
X159332245Y-88500699D01*
X159486897Y-88469937D01*
X159632579Y-88409594D01*
X159763689Y-88321989D01*
X159875189Y-88210489D01*
X159931798Y-88125768D01*
X159985410Y-88080963D01*
X160054735Y-88072256D01*
X160117762Y-88102410D01*
X160154482Y-88161853D01*
X160158900Y-88194659D01*
X160158900Y-92805740D01*
X160139215Y-92872779D01*
X160086411Y-92918534D01*
X160017253Y-92928478D01*
X159953697Y-92899453D01*
X159931798Y-92874631D01*
X159875189Y-92789911D01*
X159875186Y-92789907D01*
X159763692Y-92678413D01*
X159763688Y-92678410D01*
X159632585Y-92590809D01*
X159632572Y-92590802D01*
X159486901Y-92530464D01*
X159486889Y-92530461D01*
X159332245Y-92499700D01*
X159332242Y-92499700D01*
X159174558Y-92499700D01*
X159174555Y-92499700D01*
X159019910Y-92530461D01*
X159019898Y-92530464D01*
X158874227Y-92590802D01*
X158874214Y-92590809D01*
X158743111Y-92678410D01*
X158743107Y-92678413D01*
X158631613Y-92789907D01*
X158631610Y-92789911D01*
X158544009Y-92921014D01*
X158544002Y-92921027D01*
X158483664Y-93066698D01*
X158483661Y-93066710D01*
X158452900Y-93221353D01*
X158452900Y-93379046D01*
X158483661Y-93533689D01*
X158483664Y-93533701D01*
X158544002Y-93679372D01*
X158544009Y-93679385D01*
X158631610Y-93810488D01*
X158631613Y-93810492D01*
X158743107Y-93921986D01*
X158743111Y-93921989D01*
X158874214Y-94009590D01*
X158874227Y-94009597D01*
X159016166Y-94068389D01*
X159019903Y-94069937D01*
X159138276Y-94093483D01*
X159174553Y-94100699D01*
X159174556Y-94100700D01*
X159174558Y-94100700D01*
X159332244Y-94100700D01*
X159332245Y-94100699D01*
X159486897Y-94069937D01*
X159632579Y-94009594D01*
X159763689Y-93921989D01*
X159875189Y-93810489D01*
X159931798Y-93725768D01*
X159985410Y-93680963D01*
X160054735Y-93672256D01*
X160117762Y-93702410D01*
X160154482Y-93761853D01*
X160158900Y-93794659D01*
X160158900Y-113928292D01*
X160158782Y-113933701D01*
X160142014Y-114317750D01*
X160141071Y-114328526D01*
X160091250Y-114706954D01*
X160089372Y-114717608D01*
X160006753Y-115090275D01*
X160003953Y-115100723D01*
X159889175Y-115464754D01*
X159885475Y-115474920D01*
X159739402Y-115827571D01*
X159734830Y-115837375D01*
X159558584Y-116175941D01*
X159553176Y-116185309D01*
X159348085Y-116507238D01*
X159341880Y-116516100D01*
X159109511Y-116818928D01*
X159102558Y-116827214D01*
X158844679Y-117108641D01*
X158837029Y-117116290D01*
X158555617Y-117374156D01*
X158547330Y-117381110D01*
X158244497Y-117613481D01*
X158235636Y-117619685D01*
X157913719Y-117824770D01*
X157904351Y-117830179D01*
X157565776Y-118006430D01*
X157555972Y-118011002D01*
X157203321Y-118157075D01*
X157193155Y-118160775D01*
X156829121Y-118275554D01*
X156818672Y-118278354D01*
X156446010Y-118360971D01*
X156435357Y-118362849D01*
X156056926Y-118412671D01*
X156046150Y-118413614D01*
X155662126Y-118430381D01*
X155656717Y-118430499D01*
X150930974Y-118430499D01*
X150863935Y-118410814D01*
X150818180Y-118358010D01*
X150808236Y-118288852D01*
X150837261Y-118225296D01*
X150862083Y-118203397D01*
X150925870Y-118160775D01*
X150952489Y-118142989D01*
X151063989Y-118031489D01*
X151151594Y-117900379D01*
X151211937Y-117754697D01*
X151242700Y-117600042D01*
X151242700Y-117442358D01*
X151242700Y-117442355D01*
X151242699Y-117442353D01*
X151211938Y-117287710D01*
X151211937Y-117287703D01*
X151153502Y-117146627D01*
X151151597Y-117142027D01*
X151151590Y-117142014D01*
X151063989Y-117010911D01*
X151063986Y-117010907D01*
X150952492Y-116899413D01*
X150952488Y-116899410D01*
X150821385Y-116811809D01*
X150821372Y-116811802D01*
X150675701Y-116751464D01*
X150675689Y-116751461D01*
X150521045Y-116720700D01*
X150521042Y-116720700D01*
X150363358Y-116720700D01*
X150363355Y-116720700D01*
X150208710Y-116751461D01*
X150208698Y-116751464D01*
X150063027Y-116811802D01*
X150063014Y-116811809D01*
X149931911Y-116899410D01*
X149931907Y-116899413D01*
X149820413Y-117010907D01*
X149820410Y-117010911D01*
X149732809Y-117142014D01*
X149732802Y-117142027D01*
X149672464Y-117287698D01*
X149672461Y-117287710D01*
X149641700Y-117442353D01*
X149641700Y-117600046D01*
X149672461Y-117754689D01*
X149672464Y-117754701D01*
X149732802Y-117900372D01*
X149732809Y-117900385D01*
X149820410Y-118031488D01*
X149820413Y-118031492D01*
X149931907Y-118142986D01*
X149931911Y-118142989D01*
X150022317Y-118203397D01*
X150067122Y-118257009D01*
X150075829Y-118326334D01*
X150045674Y-118389362D01*
X149986231Y-118426081D01*
X149953426Y-118430499D01*
X144330974Y-118430499D01*
X144263935Y-118410814D01*
X144218180Y-118358010D01*
X144208236Y-118288852D01*
X144237261Y-118225296D01*
X144262083Y-118203397D01*
X144325870Y-118160775D01*
X144352489Y-118142989D01*
X144463989Y-118031489D01*
X144551594Y-117900379D01*
X144611937Y-117754697D01*
X144642700Y-117600042D01*
X144642700Y-117442358D01*
X144642700Y-117442355D01*
X144642699Y-117442353D01*
X144611938Y-117287710D01*
X144611937Y-117287703D01*
X144553502Y-117146627D01*
X144551597Y-117142027D01*
X144551590Y-117142014D01*
X144463989Y-117010911D01*
X144463986Y-117010907D01*
X144352492Y-116899413D01*
X144352488Y-116899410D01*
X144221385Y-116811809D01*
X144221372Y-116811802D01*
X144075701Y-116751464D01*
X144075689Y-116751461D01*
X143921045Y-116720700D01*
X143921042Y-116720700D01*
X143763358Y-116720700D01*
X143763355Y-116720700D01*
X143608710Y-116751461D01*
X143608698Y-116751464D01*
X143463028Y-116811802D01*
X143463014Y-116811810D01*
X143411345Y-116846333D01*
X143344668Y-116867209D01*
X143277288Y-116848723D01*
X143273567Y-116846332D01*
X143259700Y-116837067D01*
X143228779Y-116816406D01*
X143228776Y-116816404D01*
X143228775Y-116816404D01*
X143083101Y-116756064D01*
X143083089Y-116756061D01*
X142928445Y-116725300D01*
X142928442Y-116725300D01*
X142770758Y-116725300D01*
X142770755Y-116725300D01*
X142616110Y-116756061D01*
X142616098Y-116756064D01*
X142470427Y-116816402D01*
X142470414Y-116816409D01*
X142339311Y-116904010D01*
X142339307Y-116904013D01*
X142227813Y-117015507D01*
X142227810Y-117015511D01*
X142140209Y-117146614D01*
X142140202Y-117146627D01*
X142079864Y-117292298D01*
X142079861Y-117292310D01*
X142049100Y-117446953D01*
X142049100Y-117604646D01*
X142079861Y-117759289D01*
X142079864Y-117759301D01*
X142140202Y-117904972D01*
X142140209Y-117904985D01*
X142227810Y-118036088D01*
X142227813Y-118036092D01*
X142339307Y-118147586D01*
X142339311Y-118147589D01*
X142422833Y-118203397D01*
X142467638Y-118257009D01*
X142476345Y-118326334D01*
X142446191Y-118389362D01*
X142386748Y-118426081D01*
X142353942Y-118430499D01*
X138861458Y-118430499D01*
X138794419Y-118410814D01*
X138748664Y-118358010D01*
X138738720Y-118288852D01*
X138767745Y-118225296D01*
X138792567Y-118203397D01*
X138819663Y-118185291D01*
X138876089Y-118147589D01*
X138987589Y-118036089D01*
X139075194Y-117904979D01*
X139135537Y-117759297D01*
X139166300Y-117604642D01*
X139166300Y-117446958D01*
X139166300Y-117446955D01*
X139166299Y-117446953D01*
X139152547Y-117377816D01*
X139135537Y-117292303D01*
X139133630Y-117287698D01*
X139075197Y-117146627D01*
X139075190Y-117146614D01*
X138987589Y-117015511D01*
X138987586Y-117015507D01*
X138876092Y-116904013D01*
X138876088Y-116904010D01*
X138744985Y-116816409D01*
X138744972Y-116816402D01*
X138599301Y-116756064D01*
X138599289Y-116756061D01*
X138444645Y-116725300D01*
X138444642Y-116725300D01*
X138286958Y-116725300D01*
X138286955Y-116725300D01*
X138132310Y-116756061D01*
X138132298Y-116756064D01*
X137986627Y-116816402D01*
X137986614Y-116816409D01*
X137855511Y-116904010D01*
X137855507Y-116904013D01*
X137744013Y-117015507D01*
X137744010Y-117015511D01*
X137656409Y-117146614D01*
X137656402Y-117146627D01*
X137596064Y-117292298D01*
X137596061Y-117292310D01*
X137565300Y-117446953D01*
X137565300Y-117604646D01*
X137596061Y-117759289D01*
X137596064Y-117759301D01*
X137656402Y-117904972D01*
X137656409Y-117904985D01*
X137744010Y-118036088D01*
X137744013Y-118036092D01*
X137855507Y-118147586D01*
X137855511Y-118147589D01*
X137939033Y-118203397D01*
X137983838Y-118257009D01*
X137992545Y-118326334D01*
X137962391Y-118389362D01*
X137902948Y-118426081D01*
X137870142Y-118430499D01*
X135864258Y-118430499D01*
X135797219Y-118410814D01*
X135751464Y-118358010D01*
X135741520Y-118288852D01*
X135770545Y-118225296D01*
X135795367Y-118203397D01*
X135822463Y-118185291D01*
X135878889Y-118147589D01*
X135990389Y-118036089D01*
X136077994Y-117904979D01*
X136138337Y-117759297D01*
X136169100Y-117604642D01*
X136169100Y-117446958D01*
X136169100Y-117446955D01*
X136169099Y-117446953D01*
X136155347Y-117377816D01*
X136138337Y-117292303D01*
X136136430Y-117287698D01*
X136077997Y-117146627D01*
X136077990Y-117146614D01*
X135990389Y-117015511D01*
X135990386Y-117015507D01*
X135878892Y-116904013D01*
X135878888Y-116904010D01*
X135747785Y-116816409D01*
X135747772Y-116816402D01*
X135602101Y-116756064D01*
X135602089Y-116756061D01*
X135447445Y-116725300D01*
X135447442Y-116725300D01*
X135289758Y-116725300D01*
X135289755Y-116725300D01*
X135135110Y-116756061D01*
X135135098Y-116756064D01*
X134989427Y-116816402D01*
X134989414Y-116816409D01*
X134858311Y-116904010D01*
X134858307Y-116904013D01*
X134746813Y-117015507D01*
X134746810Y-117015511D01*
X134659209Y-117146614D01*
X134659202Y-117146627D01*
X134598864Y-117292298D01*
X134598861Y-117292310D01*
X134568100Y-117446953D01*
X134568100Y-117604646D01*
X134598861Y-117759289D01*
X134598864Y-117759301D01*
X134659202Y-117904972D01*
X134659209Y-117904985D01*
X134746810Y-118036088D01*
X134746813Y-118036092D01*
X134858307Y-118147586D01*
X134858311Y-118147589D01*
X134941833Y-118203397D01*
X134986638Y-118257009D01*
X134995345Y-118326334D01*
X134965191Y-118389362D01*
X134905748Y-118426081D01*
X134872942Y-118430499D01*
X133261458Y-118430499D01*
X133194419Y-118410814D01*
X133148664Y-118358010D01*
X133138720Y-118288852D01*
X133167745Y-118225296D01*
X133192567Y-118203397D01*
X133219663Y-118185291D01*
X133276089Y-118147589D01*
X133387589Y-118036089D01*
X133475194Y-117904979D01*
X133535537Y-117759297D01*
X133566300Y-117604642D01*
X133566300Y-117446958D01*
X133566300Y-117446955D01*
X133566299Y-117446953D01*
X133552547Y-117377816D01*
X133535537Y-117292303D01*
X133533630Y-117287698D01*
X133475197Y-117146627D01*
X133475190Y-117146614D01*
X133387589Y-117015511D01*
X133387586Y-117015507D01*
X133276092Y-116904013D01*
X133276088Y-116904010D01*
X133144985Y-116816409D01*
X133144972Y-116816402D01*
X132999301Y-116756064D01*
X132999289Y-116756061D01*
X132844645Y-116725300D01*
X132844642Y-116725300D01*
X132686958Y-116725300D01*
X132686955Y-116725300D01*
X132532310Y-116756061D01*
X132532298Y-116756064D01*
X132386627Y-116816402D01*
X132386614Y-116816409D01*
X132255511Y-116904010D01*
X132255507Y-116904013D01*
X132144013Y-117015507D01*
X132144010Y-117015511D01*
X132056409Y-117146614D01*
X132056402Y-117146627D01*
X131996064Y-117292298D01*
X131996061Y-117292310D01*
X131965300Y-117446953D01*
X131965300Y-117604646D01*
X131996061Y-117759289D01*
X131996064Y-117759301D01*
X132056402Y-117904972D01*
X132056409Y-117904985D01*
X132144010Y-118036088D01*
X132144013Y-118036092D01*
X132255507Y-118147586D01*
X132255511Y-118147589D01*
X132339033Y-118203397D01*
X132383838Y-118257009D01*
X132392545Y-118326334D01*
X132362391Y-118389362D01*
X132302948Y-118426081D01*
X132270142Y-118430499D01*
X130264258Y-118430499D01*
X130197219Y-118410814D01*
X130151464Y-118358010D01*
X130141520Y-118288852D01*
X130170545Y-118225296D01*
X130195367Y-118203397D01*
X130222463Y-118185291D01*
X130278889Y-118147589D01*
X130390389Y-118036089D01*
X130477994Y-117904979D01*
X130538337Y-117759297D01*
X130569100Y-117604642D01*
X130569100Y-117446958D01*
X130569100Y-117446955D01*
X130569099Y-117446953D01*
X130555347Y-117377816D01*
X130538337Y-117292303D01*
X130536430Y-117287698D01*
X130477997Y-117146627D01*
X130477990Y-117146614D01*
X130390389Y-117015511D01*
X130390386Y-117015507D01*
X130278892Y-116904013D01*
X130278888Y-116904010D01*
X130147785Y-116816409D01*
X130147772Y-116816402D01*
X130002101Y-116756064D01*
X130002089Y-116756061D01*
X129847445Y-116725300D01*
X129847442Y-116725300D01*
X129689758Y-116725300D01*
X129689755Y-116725300D01*
X129535110Y-116756061D01*
X129535098Y-116756064D01*
X129389427Y-116816402D01*
X129389414Y-116816409D01*
X129258311Y-116904010D01*
X129258307Y-116904013D01*
X129146813Y-117015507D01*
X129146810Y-117015511D01*
X129059209Y-117146614D01*
X129059202Y-117146627D01*
X128998864Y-117292298D01*
X128998861Y-117292310D01*
X128968100Y-117446953D01*
X128968100Y-117604646D01*
X128998861Y-117759289D01*
X128998864Y-117759301D01*
X129059202Y-117904972D01*
X129059209Y-117904985D01*
X129146810Y-118036088D01*
X129146813Y-118036092D01*
X129258307Y-118147586D01*
X129258311Y-118147589D01*
X129341833Y-118203397D01*
X129386638Y-118257009D01*
X129395345Y-118326334D01*
X129365191Y-118389362D01*
X129305748Y-118426081D01*
X129272942Y-118430499D01*
X124662106Y-118430499D01*
X124656697Y-118430381D01*
X124272649Y-118413613D01*
X124261873Y-118412670D01*
X123883442Y-118362848D01*
X123872789Y-118360970D01*
X123500127Y-118278353D01*
X123489678Y-118275553D01*
X123125645Y-118160774D01*
X123115479Y-118157074D01*
X122762828Y-118011001D01*
X122753024Y-118006429D01*
X122414458Y-117830182D01*
X122405090Y-117824774D01*
X122083161Y-117619684D01*
X122074299Y-117613479D01*
X121851290Y-117442358D01*
X121771460Y-117381102D01*
X121763178Y-117374151D01*
X121673864Y-117292310D01*
X121481765Y-117116283D01*
X121474116Y-117108634D01*
X121286615Y-116904013D01*
X121216242Y-116827214D01*
X121209294Y-116818935D01*
X121207353Y-116816406D01*
X120976918Y-116516097D01*
X120970715Y-116507238D01*
X120765625Y-116185310D01*
X120760217Y-116175942D01*
X120583967Y-115837369D01*
X120579398Y-115827571D01*
X120547153Y-115749724D01*
X120433321Y-115474910D01*
X120429625Y-115464754D01*
X120406175Y-115390379D01*
X120314843Y-115100710D01*
X120312047Y-115090275D01*
X120229426Y-114717597D01*
X120227553Y-114706971D01*
X120177727Y-114328506D01*
X120176787Y-114317771D01*
X120160017Y-113933671D01*
X120159900Y-113928279D01*
X120159900Y-113540567D01*
X122408900Y-113540567D01*
X122408900Y-113821430D01*
X122440342Y-114100493D01*
X122440345Y-114100511D01*
X122502839Y-114374316D01*
X122502843Y-114374328D01*
X122595600Y-114639410D01*
X122717453Y-114892441D01*
X122717455Y-114892444D01*
X122866877Y-115130247D01*
X123041984Y-115349824D01*
X123240575Y-115548415D01*
X123460152Y-115723522D01*
X123697955Y-115872944D01*
X123950992Y-115994800D01*
X124150080Y-116064464D01*
X124216070Y-116087555D01*
X124216082Y-116087559D01*
X124489891Y-116150054D01*
X124489897Y-116150054D01*
X124489905Y-116150056D01*
X124675947Y-116171017D01*
X124768969Y-116181498D01*
X124768972Y-116181499D01*
X124768975Y-116181499D01*
X125049828Y-116181499D01*
X125049829Y-116181498D01*
X125192455Y-116165428D01*
X125328894Y-116150056D01*
X125328899Y-116150055D01*
X125328909Y-116150054D01*
X125602718Y-116087559D01*
X125867808Y-115994800D01*
X126120845Y-115872944D01*
X126358648Y-115723522D01*
X126578225Y-115548415D01*
X126776816Y-115349824D01*
X126951923Y-115130247D01*
X127076268Y-114932353D01*
X134251300Y-114932353D01*
X134251300Y-115090046D01*
X134282061Y-115244689D01*
X134282064Y-115244701D01*
X134342402Y-115390372D01*
X134342409Y-115390385D01*
X134430010Y-115521488D01*
X134430013Y-115521492D01*
X134541507Y-115632986D01*
X134541511Y-115632989D01*
X134672614Y-115720590D01*
X134672627Y-115720597D01*
X134818298Y-115780935D01*
X134818303Y-115780937D01*
X134972953Y-115811699D01*
X134972956Y-115811700D01*
X134972958Y-115811700D01*
X135130644Y-115811700D01*
X135130645Y-115811699D01*
X135285297Y-115780937D01*
X135430979Y-115720594D01*
X135562089Y-115632989D01*
X135673589Y-115521489D01*
X135761194Y-115390379D01*
X135821537Y-115244697D01*
X135852300Y-115090042D01*
X135852300Y-114932358D01*
X135852300Y-114932355D01*
X135852299Y-114932353D01*
X135821537Y-114777703D01*
X135794459Y-114712330D01*
X135761197Y-114632027D01*
X135761190Y-114632014D01*
X135673589Y-114500911D01*
X135673586Y-114500907D01*
X135562092Y-114389413D01*
X135562088Y-114389410D01*
X135430985Y-114301809D01*
X135430972Y-114301802D01*
X135285301Y-114241464D01*
X135285289Y-114241461D01*
X135130645Y-114210700D01*
X135130642Y-114210700D01*
X134972958Y-114210700D01*
X134972955Y-114210700D01*
X134818310Y-114241461D01*
X134818298Y-114241464D01*
X134672627Y-114301802D01*
X134672614Y-114301809D01*
X134541511Y-114389410D01*
X134541507Y-114389413D01*
X134430013Y-114500907D01*
X134430010Y-114500911D01*
X134342409Y-114632014D01*
X134342402Y-114632027D01*
X134282064Y-114777698D01*
X134282061Y-114777710D01*
X134251300Y-114932353D01*
X127076268Y-114932353D01*
X127101345Y-114892444D01*
X127101348Y-114892438D01*
X127110967Y-114872465D01*
X127110967Y-114872464D01*
X127188083Y-114712330D01*
X127223201Y-114639407D01*
X127315960Y-114374317D01*
X127378455Y-114100508D01*
X127409900Y-113821424D01*
X127409900Y-113540574D01*
X127390666Y-113369863D01*
X127378457Y-113261504D01*
X127378454Y-113261486D01*
X127365084Y-113202910D01*
X127315960Y-112987681D01*
X127223201Y-112722591D01*
X127101345Y-112469554D01*
X126951923Y-112231751D01*
X126776816Y-112012174D01*
X126699868Y-111935226D01*
X126666383Y-111873903D01*
X126671367Y-111804211D01*
X126713239Y-111748278D01*
X126778703Y-111723861D01*
X126835000Y-111732983D01*
X126918903Y-111767737D01*
X127018082Y-111787465D01*
X127073553Y-111798499D01*
X127073556Y-111798500D01*
X127073558Y-111798500D01*
X127231244Y-111798500D01*
X127231245Y-111798499D01*
X127385897Y-111767737D01*
X127410966Y-111757353D01*
X129628500Y-111757353D01*
X129628500Y-111915046D01*
X129659261Y-112069689D01*
X129659264Y-112069701D01*
X129719602Y-112215372D01*
X129719609Y-112215385D01*
X129807210Y-112346488D01*
X129807213Y-112346492D01*
X129918707Y-112457986D01*
X129918711Y-112457989D01*
X130049814Y-112545590D01*
X130049827Y-112545597D01*
X130195498Y-112605935D01*
X130195503Y-112605937D01*
X130345563Y-112635786D01*
X130350153Y-112636699D01*
X130350156Y-112636700D01*
X130350158Y-112636700D01*
X130507844Y-112636700D01*
X130507845Y-112636699D01*
X130662497Y-112605937D01*
X130791987Y-112552301D01*
X130808172Y-112545597D01*
X130808172Y-112545596D01*
X130808179Y-112545594D01*
X130939289Y-112457989D01*
X131050789Y-112346489D01*
X131138394Y-112215379D01*
X131198737Y-112069697D01*
X131224611Y-111939621D01*
X131225500Y-111935153D01*
X131787500Y-111935153D01*
X131787500Y-112092846D01*
X131818261Y-112247489D01*
X131818264Y-112247501D01*
X131878602Y-112393172D01*
X131878609Y-112393185D01*
X131966210Y-112524288D01*
X131966213Y-112524292D01*
X132077707Y-112635786D01*
X132077711Y-112635789D01*
X132208814Y-112723390D01*
X132208827Y-112723397D01*
X132336418Y-112776246D01*
X132354503Y-112783737D01*
X132449791Y-112802691D01*
X132509153Y-112814499D01*
X132509156Y-112814500D01*
X132509158Y-112814500D01*
X132666844Y-112814500D01*
X132666845Y-112814499D01*
X132821497Y-112783737D01*
X132958459Y-112727006D01*
X132967172Y-112723397D01*
X132967172Y-112723396D01*
X132967179Y-112723394D01*
X133098289Y-112635789D01*
X133209789Y-112524289D01*
X133297394Y-112393179D01*
X133298136Y-112391389D01*
X133328957Y-112316978D01*
X133357737Y-112247497D01*
X133388500Y-112092842D01*
X133388500Y-111935158D01*
X133388500Y-111935155D01*
X133388499Y-111935153D01*
X133379801Y-111891425D01*
X133357737Y-111780503D01*
X133344389Y-111748278D01*
X133297397Y-111634827D01*
X133297390Y-111634814D01*
X133209789Y-111503711D01*
X133209786Y-111503707D01*
X133098292Y-111392213D01*
X133098288Y-111392210D01*
X132967185Y-111304609D01*
X132967172Y-111304602D01*
X132821501Y-111244264D01*
X132821489Y-111244261D01*
X132666845Y-111213500D01*
X132666842Y-111213500D01*
X132509158Y-111213500D01*
X132509155Y-111213500D01*
X132354510Y-111244261D01*
X132354498Y-111244264D01*
X132208827Y-111304602D01*
X132208814Y-111304609D01*
X132077711Y-111392210D01*
X132077707Y-111392213D01*
X131966213Y-111503707D01*
X131966210Y-111503711D01*
X131878609Y-111634814D01*
X131878602Y-111634827D01*
X131818264Y-111780498D01*
X131818261Y-111780510D01*
X131787500Y-111935153D01*
X131225500Y-111935153D01*
X131229500Y-111915045D01*
X131229500Y-111757355D01*
X131229499Y-111757353D01*
X131219394Y-111706553D01*
X131198737Y-111602703D01*
X131198735Y-111602698D01*
X131138397Y-111457027D01*
X131138390Y-111457014D01*
X131050398Y-111325325D01*
X131029520Y-111258647D01*
X131029500Y-111256434D01*
X131029500Y-111020753D01*
X134175100Y-111020753D01*
X134175100Y-111178446D01*
X134205861Y-111333089D01*
X134205864Y-111333101D01*
X134266202Y-111478772D01*
X134266209Y-111478785D01*
X134353810Y-111609888D01*
X134353813Y-111609892D01*
X134465307Y-111721386D01*
X134465311Y-111721389D01*
X134596414Y-111808990D01*
X134596427Y-111808997D01*
X134691662Y-111848444D01*
X134742103Y-111869337D01*
X134896753Y-111900099D01*
X134896756Y-111900100D01*
X134998011Y-111900100D01*
X135065050Y-111919785D01*
X135110805Y-111972589D01*
X135119627Y-111999904D01*
X135120260Y-112003086D01*
X135120263Y-112003098D01*
X135180602Y-112148772D01*
X135180609Y-112148785D01*
X135268210Y-112279888D01*
X135268213Y-112279892D01*
X135379707Y-112391386D01*
X135379711Y-112391389D01*
X135510814Y-112478990D01*
X135510827Y-112478997D01*
X135656498Y-112539335D01*
X135656503Y-112539337D01*
X135811153Y-112570099D01*
X135811156Y-112570100D01*
X135811158Y-112570100D01*
X135968844Y-112570100D01*
X135968845Y-112570099D01*
X136123497Y-112539337D01*
X136269179Y-112478994D01*
X136400289Y-112391389D01*
X136511789Y-112279889D01*
X136599394Y-112148779D01*
X136659737Y-112003097D01*
X136690500Y-111848442D01*
X136690500Y-111690758D01*
X136690500Y-111690755D01*
X136690499Y-111690753D01*
X136680100Y-111638475D01*
X136659737Y-111536103D01*
X136652363Y-111518300D01*
X136599397Y-111390427D01*
X136599390Y-111390414D01*
X136511787Y-111259308D01*
X136400292Y-111147813D01*
X136400288Y-111147810D01*
X136269185Y-111060209D01*
X136269172Y-111060202D01*
X136123501Y-110999864D01*
X136123489Y-110999861D01*
X135968845Y-110969100D01*
X135968842Y-110969100D01*
X135867588Y-110969100D01*
X135800549Y-110949415D01*
X135754794Y-110896611D01*
X135750877Y-110886987D01*
X135747767Y-110878323D01*
X135745337Y-110866103D01*
X135714706Y-110792153D01*
X138289900Y-110792153D01*
X138289900Y-110949846D01*
X138320661Y-111104489D01*
X138320664Y-111104501D01*
X138381002Y-111250172D01*
X138381009Y-111250184D01*
X138387108Y-111259313D01*
X138407983Y-111325992D01*
X138389496Y-111393371D01*
X138387108Y-111397087D01*
X138381009Y-111406215D01*
X138381002Y-111406227D01*
X138320664Y-111551898D01*
X138320661Y-111551910D01*
X138289900Y-111706553D01*
X138289900Y-111864246D01*
X138320661Y-112018889D01*
X138320664Y-112018901D01*
X138381002Y-112164572D01*
X138381009Y-112164585D01*
X138469002Y-112296274D01*
X138489880Y-112362951D01*
X138489900Y-112365165D01*
X138489900Y-112802673D01*
X138489899Y-112802691D01*
X138489899Y-112968397D01*
X138489898Y-112968397D01*
X138530824Y-113121132D01*
X138530825Y-113121133D01*
X138555885Y-113164537D01*
X138555886Y-113164538D01*
X138578033Y-113202898D01*
X138609879Y-113258057D01*
X138609881Y-113258060D01*
X138728749Y-113376928D01*
X138728754Y-113376932D01*
X139869741Y-114517920D01*
X139869743Y-114517921D01*
X139869747Y-114517924D01*
X140006666Y-114596973D01*
X140006673Y-114596977D01*
X140159400Y-114637901D01*
X140159402Y-114637901D01*
X140325111Y-114637901D01*
X140325127Y-114637900D01*
X145257191Y-114637900D01*
X145324230Y-114657585D01*
X145369985Y-114710389D01*
X145379929Y-114779547D01*
X145360294Y-114830790D01*
X145340608Y-114860251D01*
X145340602Y-114860262D01*
X145280264Y-115005933D01*
X145280261Y-115005945D01*
X145249500Y-115160588D01*
X145249500Y-115318281D01*
X145280261Y-115472924D01*
X145280264Y-115472936D01*
X145340602Y-115618607D01*
X145340609Y-115618620D01*
X145428210Y-115749723D01*
X145428213Y-115749727D01*
X145539707Y-115861221D01*
X145539711Y-115861224D01*
X145670814Y-115948825D01*
X145670827Y-115948832D01*
X145816498Y-116009170D01*
X145816503Y-116009172D01*
X145971153Y-116039934D01*
X145971156Y-116039935D01*
X145971158Y-116039935D01*
X146128844Y-116039935D01*
X146128845Y-116039934D01*
X146283497Y-116009172D01*
X146429179Y-115948829D01*
X146560289Y-115861224D01*
X146671789Y-115749724D01*
X146759394Y-115618614D01*
X146819737Y-115472932D01*
X146850500Y-115318277D01*
X146850500Y-115160593D01*
X146850500Y-115160590D01*
X146850499Y-115160588D01*
X146838591Y-115100723D01*
X146819737Y-115005938D01*
X146800516Y-114959533D01*
X146759397Y-114860262D01*
X146759391Y-114860251D01*
X146739706Y-114830790D01*
X146718829Y-114764113D01*
X146737314Y-114696733D01*
X146789293Y-114650043D01*
X146842809Y-114637900D01*
X149807331Y-114637900D01*
X149807347Y-114637901D01*
X149814943Y-114637901D01*
X149973054Y-114637901D01*
X149973057Y-114637901D01*
X150125785Y-114596977D01*
X150175904Y-114568039D01*
X150262716Y-114517920D01*
X150374520Y-114406116D01*
X150374520Y-114406114D01*
X150384728Y-114395907D01*
X150384729Y-114395904D01*
X151240066Y-113540567D01*
X152908900Y-113540567D01*
X152908900Y-113821430D01*
X152940342Y-114100493D01*
X152940345Y-114100511D01*
X153002839Y-114374316D01*
X153002843Y-114374328D01*
X153095600Y-114639410D01*
X153217453Y-114892441D01*
X153217455Y-114892444D01*
X153366877Y-115130247D01*
X153541984Y-115349824D01*
X153740575Y-115548415D01*
X153960152Y-115723522D01*
X154197955Y-115872944D01*
X154450992Y-115994800D01*
X154650080Y-116064464D01*
X154716070Y-116087555D01*
X154716082Y-116087559D01*
X154989891Y-116150054D01*
X154989897Y-116150054D01*
X154989905Y-116150056D01*
X155175947Y-116171017D01*
X155268969Y-116181498D01*
X155268972Y-116181499D01*
X155268975Y-116181499D01*
X155549828Y-116181499D01*
X155549829Y-116181498D01*
X155692455Y-116165428D01*
X155828894Y-116150056D01*
X155828899Y-116150055D01*
X155828909Y-116150054D01*
X156102718Y-116087559D01*
X156367808Y-115994800D01*
X156620845Y-115872944D01*
X156858648Y-115723522D01*
X157078225Y-115548415D01*
X157276816Y-115349824D01*
X157451923Y-115130247D01*
X157601345Y-114892444D01*
X157723201Y-114639407D01*
X157815960Y-114374317D01*
X157878455Y-114100508D01*
X157909900Y-113821424D01*
X157909900Y-113540574D01*
X157890666Y-113369863D01*
X157878457Y-113261504D01*
X157878454Y-113261486D01*
X157865084Y-113202910D01*
X157815960Y-112987681D01*
X157723201Y-112722591D01*
X157601345Y-112469554D01*
X157451923Y-112231751D01*
X157276816Y-112012174D01*
X157078225Y-111813583D01*
X157072474Y-111808997D01*
X156977157Y-111732984D01*
X156858648Y-111638476D01*
X156651456Y-111508288D01*
X156620842Y-111489052D01*
X156367811Y-111367199D01*
X156102729Y-111274442D01*
X156102717Y-111274438D01*
X155828912Y-111211944D01*
X155828894Y-111211941D01*
X155549831Y-111180499D01*
X155549825Y-111180499D01*
X155268975Y-111180499D01*
X155268968Y-111180499D01*
X154989905Y-111211941D01*
X154989887Y-111211944D01*
X154716082Y-111274438D01*
X154716070Y-111274442D01*
X154450988Y-111367199D01*
X154197957Y-111489052D01*
X153960153Y-111638475D01*
X153740575Y-111813582D01*
X153541983Y-112012174D01*
X153366876Y-112231752D01*
X153217453Y-112469556D01*
X153095600Y-112722587D01*
X153002843Y-112987669D01*
X153002839Y-112987681D01*
X152940345Y-113261486D01*
X152940342Y-113261504D01*
X152908900Y-113540567D01*
X151240066Y-113540567D01*
X152109862Y-112670772D01*
X152171183Y-112637289D01*
X152173350Y-112636838D01*
X152231285Y-112625313D01*
X152328697Y-112605937D01*
X152458187Y-112552301D01*
X152474372Y-112545597D01*
X152474372Y-112545596D01*
X152474379Y-112545594D01*
X152605489Y-112457989D01*
X152716989Y-112346489D01*
X152804594Y-112215379D01*
X152864937Y-112069697D01*
X152895700Y-111915042D01*
X152895700Y-111757358D01*
X152895700Y-111757355D01*
X152895699Y-111757353D01*
X152885594Y-111706553D01*
X152864937Y-111602703D01*
X152864935Y-111602698D01*
X152804597Y-111457027D01*
X152804590Y-111457014D01*
X152716989Y-111325911D01*
X152716986Y-111325907D01*
X152605492Y-111214413D01*
X152605488Y-111214410D01*
X152474385Y-111126809D01*
X152474372Y-111126802D01*
X152328701Y-111066464D01*
X152328689Y-111066461D01*
X152174045Y-111035700D01*
X152174042Y-111035700D01*
X152016358Y-111035700D01*
X152016355Y-111035700D01*
X151861710Y-111066461D01*
X151861698Y-111066464D01*
X151716027Y-111126802D01*
X151716014Y-111126809D01*
X151584911Y-111214410D01*
X151584907Y-111214413D01*
X151473413Y-111325907D01*
X151473410Y-111325911D01*
X151385809Y-111457014D01*
X151385802Y-111457027D01*
X151325464Y-111602698D01*
X151325461Y-111602708D01*
X151294561Y-111758050D01*
X151262176Y-111819961D01*
X151260625Y-111821539D01*
X149681584Y-113400581D01*
X149620261Y-113434066D01*
X149593903Y-113436900D01*
X142243646Y-113436900D01*
X142176607Y-113417215D01*
X142130852Y-113364411D01*
X142122029Y-113337091D01*
X142114063Y-113297045D01*
X142095337Y-113202903D01*
X142079446Y-113164538D01*
X142034997Y-113057227D01*
X142034990Y-113057214D01*
X141947389Y-112926111D01*
X141947386Y-112926107D01*
X141835892Y-112814613D01*
X141835888Y-112814610D01*
X141704785Y-112727009D01*
X141704772Y-112727002D01*
X141559101Y-112666664D01*
X141559089Y-112666661D01*
X141404445Y-112635900D01*
X141404442Y-112635900D01*
X141246758Y-112635900D01*
X141246755Y-112635900D01*
X141092110Y-112666661D01*
X141092098Y-112666664D01*
X140946427Y-112727002D01*
X140946414Y-112727009D01*
X140815311Y-112814610D01*
X140815306Y-112814614D01*
X140784471Y-112845449D01*
X140723147Y-112878934D01*
X140653456Y-112873948D01*
X140597523Y-112832076D01*
X140573107Y-112766611D01*
X140575174Y-112733575D01*
X140597449Y-112621593D01*
X140597449Y-112463904D01*
X140597448Y-112463902D01*
X140583024Y-112391389D01*
X140566686Y-112309252D01*
X140551629Y-112272901D01*
X140506346Y-112163576D01*
X140506339Y-112163563D01*
X140418738Y-112032460D01*
X140418735Y-112032456D01*
X140307241Y-111920962D01*
X140307237Y-111920959D01*
X140176134Y-111833358D01*
X140176121Y-111833351D01*
X140030450Y-111773013D01*
X140030440Y-111773010D01*
X139980175Y-111763012D01*
X139918264Y-111730627D01*
X139883690Y-111669911D01*
X139882750Y-111665586D01*
X139881683Y-111660221D01*
X139860137Y-111551903D01*
X139853595Y-111536110D01*
X139799797Y-111406227D01*
X139799795Y-111406224D01*
X139799794Y-111406221D01*
X139793691Y-111397087D01*
X139772815Y-111330415D01*
X139791299Y-111263034D01*
X139793666Y-111259349D01*
X139799794Y-111250179D01*
X139802245Y-111244263D01*
X139828656Y-111180499D01*
X139860137Y-111104497D01*
X139890900Y-110949842D01*
X139890900Y-110792158D01*
X139890900Y-110792155D01*
X139890899Y-110792153D01*
X139876632Y-110720427D01*
X139860137Y-110637503D01*
X139850898Y-110615197D01*
X139799797Y-110491827D01*
X139799790Y-110491814D01*
X139712189Y-110360711D01*
X139712186Y-110360707D01*
X139600692Y-110249213D01*
X139600688Y-110249210D01*
X139469585Y-110161609D01*
X139469572Y-110161602D01*
X139323901Y-110101264D01*
X139323889Y-110101261D01*
X139169245Y-110070500D01*
X139169242Y-110070500D01*
X139011558Y-110070500D01*
X139011555Y-110070500D01*
X138856910Y-110101261D01*
X138856898Y-110101264D01*
X138711227Y-110161602D01*
X138711214Y-110161609D01*
X138580111Y-110249210D01*
X138580107Y-110249213D01*
X138468613Y-110360707D01*
X138468610Y-110360711D01*
X138381009Y-110491814D01*
X138381002Y-110491827D01*
X138320664Y-110637498D01*
X138320661Y-110637510D01*
X138289900Y-110792153D01*
X135714706Y-110792153D01*
X135703256Y-110764510D01*
X135684997Y-110720427D01*
X135684990Y-110720414D01*
X135597389Y-110589311D01*
X135597386Y-110589307D01*
X135485892Y-110477813D01*
X135485888Y-110477810D01*
X135354785Y-110390209D01*
X135354772Y-110390202D01*
X135209101Y-110329864D01*
X135209089Y-110329861D01*
X135054445Y-110299100D01*
X135054442Y-110299100D01*
X134896758Y-110299100D01*
X134896755Y-110299100D01*
X134742110Y-110329861D01*
X134742098Y-110329864D01*
X134596427Y-110390202D01*
X134596414Y-110390209D01*
X134465311Y-110477810D01*
X134465307Y-110477813D01*
X134353813Y-110589307D01*
X134353810Y-110589311D01*
X134266209Y-110720414D01*
X134266202Y-110720427D01*
X134205864Y-110866098D01*
X134205861Y-110866110D01*
X134175100Y-111020753D01*
X131029500Y-111020753D01*
X131029500Y-108912553D01*
X131965300Y-108912553D01*
X131965300Y-109070246D01*
X131996061Y-109224889D01*
X131996064Y-109224901D01*
X132056402Y-109370572D01*
X132056409Y-109370585D01*
X132144010Y-109501688D01*
X132144013Y-109501692D01*
X132255507Y-109613186D01*
X132255511Y-109613189D01*
X132386614Y-109700790D01*
X132386627Y-109700797D01*
X132532298Y-109761135D01*
X132532303Y-109761137D01*
X132686953Y-109791899D01*
X132686956Y-109791900D01*
X132686958Y-109791900D01*
X132732139Y-109791900D01*
X132779382Y-109804564D01*
X132780501Y-109801865D01*
X132788010Y-109804974D01*
X132788015Y-109804977D01*
X132940742Y-109845900D01*
X132940743Y-109845900D01*
X137266034Y-109845900D01*
X137333073Y-109865585D01*
X137334925Y-109866798D01*
X137466614Y-109954790D01*
X137466627Y-109954797D01*
X137612298Y-110015135D01*
X137612303Y-110015137D01*
X137766953Y-110045899D01*
X137766956Y-110045900D01*
X137766958Y-110045900D01*
X137924644Y-110045900D01*
X137924645Y-110045899D01*
X138079297Y-110015137D01*
X138224979Y-109954794D01*
X138356089Y-109867189D01*
X138467589Y-109755689D01*
X138555194Y-109624579D01*
X138615537Y-109478897D01*
X138646300Y-109324242D01*
X138646300Y-109166558D01*
X138646300Y-109166555D01*
X138646299Y-109166553D01*
X138627141Y-109070242D01*
X138615537Y-109011903D01*
X138607796Y-108993214D01*
X138555197Y-108866227D01*
X138555190Y-108866214D01*
X138467589Y-108735111D01*
X138467586Y-108735107D01*
X138356092Y-108623613D01*
X138356088Y-108623610D01*
X138224985Y-108536009D01*
X138224972Y-108536002D01*
X138079301Y-108475664D01*
X138079289Y-108475661D01*
X137924645Y-108444900D01*
X137924642Y-108444900D01*
X137766958Y-108444900D01*
X137766955Y-108444900D01*
X137612310Y-108475661D01*
X137612298Y-108475664D01*
X137466627Y-108536002D01*
X137466614Y-108536009D01*
X137334925Y-108624002D01*
X137268247Y-108644880D01*
X137266034Y-108644900D01*
X133563309Y-108644900D01*
X133496270Y-108625215D01*
X133460207Y-108589791D01*
X133387589Y-108481111D01*
X133387586Y-108481107D01*
X133276092Y-108369613D01*
X133276088Y-108369610D01*
X133144985Y-108282009D01*
X133144972Y-108282002D01*
X132999301Y-108221664D01*
X132999289Y-108221661D01*
X132844645Y-108190900D01*
X132844642Y-108190900D01*
X132686958Y-108190900D01*
X132686955Y-108190900D01*
X132532310Y-108221661D01*
X132532298Y-108221664D01*
X132386627Y-108282002D01*
X132386614Y-108282009D01*
X132255511Y-108369610D01*
X132255507Y-108369613D01*
X132144013Y-108481107D01*
X132144010Y-108481111D01*
X132056409Y-108612214D01*
X132056402Y-108612227D01*
X131996064Y-108757898D01*
X131996061Y-108757910D01*
X131965300Y-108912553D01*
X131029500Y-108912553D01*
X131029500Y-107411896D01*
X131049185Y-107344857D01*
X131065815Y-107324219D01*
X131284301Y-107105733D01*
X131345621Y-107072250D01*
X131415312Y-107077234D01*
X131471246Y-107119105D01*
X131493596Y-107169224D01*
X131513461Y-107269091D01*
X131513464Y-107269101D01*
X131573802Y-107414772D01*
X131573809Y-107414785D01*
X131661410Y-107545888D01*
X131661413Y-107545892D01*
X131772907Y-107657386D01*
X131772911Y-107657389D01*
X131904014Y-107744990D01*
X131904027Y-107744997D01*
X132049698Y-107805335D01*
X132049703Y-107805337D01*
X132204353Y-107836099D01*
X132204356Y-107836100D01*
X132204358Y-107836100D01*
X132362044Y-107836100D01*
X132362045Y-107836099D01*
X132516697Y-107805337D01*
X132662379Y-107744994D01*
X132793489Y-107657389D01*
X132904989Y-107545889D01*
X132992594Y-107414779D01*
X133052937Y-107269097D01*
X133078669Y-107139736D01*
X133083838Y-107113750D01*
X133116223Y-107051839D01*
X133117720Y-107050314D01*
X134075930Y-106092103D01*
X134137251Y-106058620D01*
X134206942Y-106063604D01*
X134232497Y-106076682D01*
X134358506Y-106160879D01*
X134358508Y-106160880D01*
X134358512Y-106160882D01*
X134504183Y-106221220D01*
X134504188Y-106221222D01*
X134635647Y-106247371D01*
X134658838Y-106251984D01*
X134658841Y-106251985D01*
X134658843Y-106251985D01*
X134816529Y-106251985D01*
X134941712Y-106227084D01*
X135011304Y-106233311D01*
X135053585Y-106261020D01*
X135709939Y-106917374D01*
X135709949Y-106917385D01*
X135714279Y-106921715D01*
X135714280Y-106921716D01*
X135826084Y-107033520D01*
X135826086Y-107033521D01*
X135826090Y-107033524D01*
X135914099Y-107084335D01*
X135963016Y-107112577D01*
X136074819Y-107142534D01*
X136115742Y-107153500D01*
X136115743Y-107153500D01*
X136220308Y-107153500D01*
X136225746Y-107153980D01*
X136253397Y-107164820D01*
X136281882Y-107173185D01*
X136285561Y-107177431D01*
X136290795Y-107179483D01*
X136308198Y-107203555D01*
X136327637Y-107225989D01*
X136330237Y-107234039D01*
X136331730Y-107236105D01*
X136331898Y-107239185D01*
X136336460Y-107253309D01*
X136364861Y-107396089D01*
X136364864Y-107396101D01*
X136425202Y-107541772D01*
X136425209Y-107541785D01*
X136512810Y-107672888D01*
X136512813Y-107672892D01*
X136624307Y-107784386D01*
X136624311Y-107784389D01*
X136755414Y-107871990D01*
X136755427Y-107871997D01*
X136901098Y-107932335D01*
X136901103Y-107932337D01*
X137055753Y-107963099D01*
X137055756Y-107963100D01*
X137055758Y-107963100D01*
X137213444Y-107963100D01*
X137213445Y-107963099D01*
X137368097Y-107932337D01*
X137480766Y-107885667D01*
X137513772Y-107871997D01*
X137513772Y-107871996D01*
X137513779Y-107871994D01*
X137644889Y-107784389D01*
X137756389Y-107672889D01*
X137843994Y-107541779D01*
X137904337Y-107396097D01*
X137919601Y-107319359D01*
X137932740Y-107253309D01*
X137965125Y-107191398D01*
X138025841Y-107156824D01*
X138054357Y-107153500D01*
X138927531Y-107153500D01*
X138927547Y-107153501D01*
X138935143Y-107153501D01*
X139093254Y-107153501D01*
X139093257Y-107153501D01*
X139245985Y-107112577D01*
X139296104Y-107083639D01*
X139382916Y-107033520D01*
X139494720Y-106921716D01*
X139494720Y-106921714D01*
X139504928Y-106911507D01*
X139504929Y-106911504D01*
X141257194Y-105159240D01*
X141318515Y-105125757D01*
X141388207Y-105130741D01*
X141444140Y-105172613D01*
X141466490Y-105222731D01*
X141475426Y-105267656D01*
X141475429Y-105267666D01*
X141535767Y-105413337D01*
X141535774Y-105413350D01*
X141623375Y-105544453D01*
X141623378Y-105544457D01*
X141734872Y-105655951D01*
X141734876Y-105655954D01*
X141865979Y-105743555D01*
X141865992Y-105743562D01*
X141998776Y-105798562D01*
X142011668Y-105803902D01*
X142166318Y-105834664D01*
X142166321Y-105834665D01*
X142166323Y-105834665D01*
X142324009Y-105834665D01*
X142324010Y-105834664D01*
X142478662Y-105803902D01*
X142624344Y-105743559D01*
X142755454Y-105655954D01*
X142866954Y-105544454D01*
X142954559Y-105413344D01*
X143014902Y-105267662D01*
X143045665Y-105113007D01*
X143045665Y-104955323D01*
X143045665Y-104955320D01*
X143045664Y-104955318D01*
X143031967Y-104886459D01*
X143014902Y-104800668D01*
X143011181Y-104791685D01*
X142954562Y-104654992D01*
X142954555Y-104654979D01*
X142866954Y-104523876D01*
X142866951Y-104523872D01*
X142759832Y-104416753D01*
X143242900Y-104416753D01*
X143242900Y-104574446D01*
X143273661Y-104729089D01*
X143273664Y-104729101D01*
X143334002Y-104874772D01*
X143334009Y-104874785D01*
X143422002Y-105006474D01*
X143442880Y-105073151D01*
X143442900Y-105075365D01*
X143442900Y-107710930D01*
X143442899Y-107710948D01*
X143442899Y-107876654D01*
X143442898Y-107876654D01*
X143483823Y-108029385D01*
X143512355Y-108078802D01*
X143512356Y-108078806D01*
X143512357Y-108078806D01*
X143562879Y-108166314D01*
X143562881Y-108166317D01*
X143681749Y-108285185D01*
X143681755Y-108285190D01*
X144193981Y-108797416D01*
X144208684Y-108824343D01*
X144225277Y-108850162D01*
X144226168Y-108856362D01*
X144227466Y-108858739D01*
X144230300Y-108885097D01*
X144230300Y-109011305D01*
X144210615Y-109078344D01*
X144157811Y-109124099D01*
X144130492Y-109132922D01*
X144114708Y-109136061D01*
X144114698Y-109136064D01*
X143969027Y-109196402D01*
X143969014Y-109196409D01*
X143837911Y-109284010D01*
X143837907Y-109284013D01*
X143726413Y-109395507D01*
X143726410Y-109395511D01*
X143638809Y-109526614D01*
X143638802Y-109526627D01*
X143578464Y-109672298D01*
X143578461Y-109672310D01*
X143547700Y-109826953D01*
X143547700Y-109984646D01*
X143578461Y-110139289D01*
X143578464Y-110139301D01*
X143638802Y-110284972D01*
X143638809Y-110284985D01*
X143726410Y-110416088D01*
X143726413Y-110416092D01*
X143837907Y-110527586D01*
X143837911Y-110527589D01*
X143969014Y-110615190D01*
X143969027Y-110615197D01*
X144028995Y-110640036D01*
X144114703Y-110675537D01*
X144269353Y-110706299D01*
X144269356Y-110706300D01*
X144269358Y-110706300D01*
X144427044Y-110706300D01*
X144427045Y-110706299D01*
X144581697Y-110675537D01*
X144718623Y-110618821D01*
X144727372Y-110615197D01*
X144727372Y-110615196D01*
X144727379Y-110615194D01*
X144858489Y-110527589D01*
X144900701Y-110485377D01*
X144948041Y-110438038D01*
X145009364Y-110404553D01*
X145079056Y-110409537D01*
X145123403Y-110438038D01*
X146739425Y-112054060D01*
X146772910Y-112115383D01*
X146773361Y-112117549D01*
X146804261Y-112272891D01*
X146804264Y-112272901D01*
X146864602Y-112418572D01*
X146864609Y-112418585D01*
X146952210Y-112549688D01*
X146952213Y-112549692D01*
X147063707Y-112661186D01*
X147063711Y-112661189D01*
X147194814Y-112748790D01*
X147194827Y-112748797D01*
X147324897Y-112802673D01*
X147340503Y-112809137D01*
X147495153Y-112839899D01*
X147495156Y-112839900D01*
X147495158Y-112839900D01*
X147652844Y-112839900D01*
X147652845Y-112839899D01*
X147807497Y-112809137D01*
X147953179Y-112748794D01*
X148084289Y-112661189D01*
X148195789Y-112549689D01*
X148283394Y-112418579D01*
X148292066Y-112397644D01*
X148334316Y-112295642D01*
X148343737Y-112272897D01*
X148374500Y-112118242D01*
X148374500Y-111960558D01*
X148374500Y-111960555D01*
X148374499Y-111960553D01*
X148343737Y-111805903D01*
X148330113Y-111773012D01*
X148283397Y-111660227D01*
X148283390Y-111660214D01*
X148195789Y-111529111D01*
X148195786Y-111529107D01*
X148084292Y-111417613D01*
X148084288Y-111417610D01*
X147953185Y-111330009D01*
X147953172Y-111330002D01*
X147807501Y-111269664D01*
X147807491Y-111269661D01*
X147652151Y-111238762D01*
X147590241Y-111206377D01*
X147588662Y-111204826D01*
X146093985Y-109710149D01*
X146060500Y-109648826D01*
X146065484Y-109579134D01*
X146107356Y-109523201D01*
X146172820Y-109498784D01*
X146229118Y-109507907D01*
X146274313Y-109526627D01*
X146349903Y-109557937D01*
X146456467Y-109579134D01*
X146504553Y-109588699D01*
X146504556Y-109588700D01*
X146504558Y-109588700D01*
X146662244Y-109588700D01*
X146662245Y-109588699D01*
X146816897Y-109557937D01*
X146937681Y-109507907D01*
X146962572Y-109497597D01*
X146962572Y-109497596D01*
X146962579Y-109497594D01*
X147093689Y-109409989D01*
X147205189Y-109298489D01*
X147292794Y-109167379D01*
X147353137Y-109021697D01*
X147383900Y-108867042D01*
X147383900Y-108709358D01*
X147383900Y-108709355D01*
X147383899Y-108709353D01*
X147374889Y-108664058D01*
X147353137Y-108554703D01*
X147332940Y-108505943D01*
X147292797Y-108409027D01*
X147292790Y-108409014D01*
X147205189Y-108277911D01*
X147205186Y-108277907D01*
X147093692Y-108166413D01*
X147093688Y-108166410D01*
X146962585Y-108078809D01*
X146962572Y-108078802D01*
X146816901Y-108018464D01*
X146816889Y-108018461D01*
X146662245Y-107987700D01*
X146662242Y-107987700D01*
X146504558Y-107987700D01*
X146504555Y-107987700D01*
X146349910Y-108018461D01*
X146349898Y-108018464D01*
X146204227Y-108078802D01*
X146204214Y-108078809D01*
X146073111Y-108166410D01*
X146073107Y-108166413D01*
X145961613Y-108277907D01*
X145961610Y-108277911D01*
X145874009Y-108409014D01*
X145874002Y-108409027D01*
X145813664Y-108554698D01*
X145813661Y-108554710D01*
X145782900Y-108709353D01*
X145782900Y-108867046D01*
X145813661Y-109021689D01*
X145813664Y-109021701D01*
X145863692Y-109142481D01*
X145871161Y-109211951D01*
X145839885Y-109274430D01*
X145779796Y-109310081D01*
X145709971Y-109307587D01*
X145661450Y-109277614D01*
X145467619Y-109083783D01*
X145434134Y-109022460D01*
X145431300Y-108996102D01*
X145431300Y-108674060D01*
X145431301Y-108674047D01*
X145431301Y-108505944D01*
X145424646Y-108481107D01*
X145390377Y-108353216D01*
X145349266Y-108282009D01*
X145311324Y-108216290D01*
X145311318Y-108216282D01*
X144680219Y-107585183D01*
X144646734Y-107523860D01*
X144643900Y-107497502D01*
X144643900Y-105552838D01*
X144663585Y-105485799D01*
X144716389Y-105440044D01*
X144785547Y-105430100D01*
X144792086Y-105431219D01*
X144810599Y-105434902D01*
X144878955Y-105448500D01*
X144878958Y-105448500D01*
X145036644Y-105448500D01*
X145036645Y-105448499D01*
X145191297Y-105417737D01*
X145336979Y-105357394D01*
X145468089Y-105269789D01*
X145579589Y-105158289D01*
X145667194Y-105027179D01*
X145727537Y-104881497D01*
X145758300Y-104726842D01*
X145758300Y-104569158D01*
X145758300Y-104569155D01*
X145758299Y-104569153D01*
X145738257Y-104468397D01*
X145727537Y-104414503D01*
X145713571Y-104380786D01*
X145667197Y-104268827D01*
X145667190Y-104268814D01*
X145579589Y-104137711D01*
X145579586Y-104137707D01*
X145468092Y-104026213D01*
X145468088Y-104026210D01*
X145336985Y-103938609D01*
X145336972Y-103938602D01*
X145191301Y-103878264D01*
X145191289Y-103878261D01*
X145036645Y-103847500D01*
X145036642Y-103847500D01*
X144878958Y-103847500D01*
X144878955Y-103847500D01*
X144724311Y-103878260D01*
X144724306Y-103878262D01*
X144724304Y-103878262D01*
X144724303Y-103878263D01*
X144683186Y-103895294D01*
X144675341Y-103896137D01*
X144668634Y-103900288D01*
X144641095Y-103899818D01*
X144613716Y-103902761D01*
X144604888Y-103899200D01*
X144598774Y-103899096D01*
X144581460Y-103889750D01*
X144566925Y-103883888D01*
X144557437Y-103877559D01*
X144553689Y-103873811D01*
X144422579Y-103786206D01*
X144417058Y-103783919D01*
X144417055Y-103783917D01*
X144276901Y-103725864D01*
X144276889Y-103725861D01*
X144122245Y-103695100D01*
X144122242Y-103695100D01*
X143964558Y-103695100D01*
X143964555Y-103695100D01*
X143809910Y-103725861D01*
X143809898Y-103725864D01*
X143664227Y-103786202D01*
X143664214Y-103786209D01*
X143533111Y-103873810D01*
X143533107Y-103873813D01*
X143421613Y-103985307D01*
X143421610Y-103985311D01*
X143334009Y-104116414D01*
X143334002Y-104116427D01*
X143273665Y-104262097D01*
X143273661Y-104262110D01*
X143242900Y-104416753D01*
X142759832Y-104416753D01*
X142755457Y-104412378D01*
X142755453Y-104412375D01*
X142624350Y-104324774D01*
X142624337Y-104324767D01*
X142478666Y-104264429D01*
X142478654Y-104264426D01*
X142324010Y-104233665D01*
X142324007Y-104233665D01*
X142272421Y-104233665D01*
X142205382Y-104213980D01*
X142159627Y-104161176D01*
X142150804Y-104133856D01*
X142126166Y-104009997D01*
X142120737Y-103982703D01*
X142097635Y-103926930D01*
X142060397Y-103837027D01*
X142060390Y-103837014D01*
X141972789Y-103705911D01*
X141972786Y-103705907D01*
X141947032Y-103680153D01*
X147352700Y-103680153D01*
X147352700Y-103837846D01*
X147383461Y-103992489D01*
X147383464Y-103992501D01*
X147443802Y-104138172D01*
X147443809Y-104138185D01*
X147531410Y-104269288D01*
X147531413Y-104269292D01*
X147642907Y-104380786D01*
X147642911Y-104380789D01*
X147774014Y-104468390D01*
X147774027Y-104468397D01*
X147907958Y-104523872D01*
X147919703Y-104528737D01*
X147984347Y-104541595D01*
X148075049Y-104559638D01*
X148136960Y-104592023D01*
X148138539Y-104593574D01*
X149255846Y-105710881D01*
X149289331Y-105772204D01*
X149292165Y-105798562D01*
X149292165Y-109826769D01*
X149272480Y-109893808D01*
X149271267Y-109895660D01*
X149183274Y-110027349D01*
X149183267Y-110027362D01*
X149122929Y-110173033D01*
X149122926Y-110173045D01*
X149092165Y-110327688D01*
X149092165Y-110485381D01*
X149122926Y-110640024D01*
X149122929Y-110640036D01*
X149183267Y-110785707D01*
X149183274Y-110785720D01*
X149270875Y-110916823D01*
X149270878Y-110916827D01*
X149382372Y-111028321D01*
X149382376Y-111028324D01*
X149513479Y-111115925D01*
X149513492Y-111115932D01*
X149590461Y-111147813D01*
X149659168Y-111176272D01*
X149802718Y-111204826D01*
X149813818Y-111207034D01*
X149813821Y-111207035D01*
X149813823Y-111207035D01*
X149971509Y-111207035D01*
X149971510Y-111207034D01*
X150126162Y-111176272D01*
X150271844Y-111115929D01*
X150402954Y-111028324D01*
X150514454Y-110916824D01*
X150602059Y-110785714D01*
X150662402Y-110640032D01*
X150693165Y-110485377D01*
X150693165Y-110327693D01*
X150693165Y-110327690D01*
X150693164Y-110327688D01*
X150684670Y-110284985D01*
X150662402Y-110173038D01*
X150649603Y-110142138D01*
X150602062Y-110027362D01*
X150602055Y-110027349D01*
X150514063Y-109895660D01*
X150493185Y-109828982D01*
X150493165Y-109826769D01*
X150493165Y-105587524D01*
X150493166Y-105587511D01*
X150493166Y-105419410D01*
X150493166Y-105419408D01*
X150454885Y-105276543D01*
X152810299Y-105276543D01*
X152848747Y-105469829D01*
X152848750Y-105469839D01*
X152924164Y-105651907D01*
X152924171Y-105651920D01*
X153033660Y-105815781D01*
X153033663Y-105815785D01*
X153173014Y-105955136D01*
X153173018Y-105955139D01*
X153336879Y-106064628D01*
X153336892Y-106064635D01*
X153518960Y-106140049D01*
X153518965Y-106140051D01*
X153518969Y-106140051D01*
X153518970Y-106140052D01*
X153712256Y-106178500D01*
X153712259Y-106178500D01*
X155009343Y-106178500D01*
X155139382Y-106152632D01*
X155202635Y-106140051D01*
X155384714Y-106064632D01*
X155548582Y-105955139D01*
X155687939Y-105815782D01*
X155797432Y-105651914D01*
X155872851Y-105469835D01*
X155911300Y-105276543D01*
X157240299Y-105276543D01*
X157278747Y-105469829D01*
X157278750Y-105469839D01*
X157354164Y-105651907D01*
X157354171Y-105651920D01*
X157463660Y-105815781D01*
X157463663Y-105815785D01*
X157603014Y-105955136D01*
X157603018Y-105955139D01*
X157766879Y-106064628D01*
X157766892Y-106064635D01*
X157948960Y-106140049D01*
X157948965Y-106140051D01*
X157948969Y-106140051D01*
X157948970Y-106140052D01*
X158142256Y-106178500D01*
X158142259Y-106178500D01*
X158939343Y-106178500D01*
X159069382Y-106152632D01*
X159132635Y-106140051D01*
X159314714Y-106064632D01*
X159478582Y-105955139D01*
X159617939Y-105815782D01*
X159727432Y-105651914D01*
X159802851Y-105469835D01*
X159841300Y-105276541D01*
X159841300Y-105079459D01*
X159841300Y-105079456D01*
X159802852Y-104886170D01*
X159802851Y-104886169D01*
X159802851Y-104886165D01*
X159800919Y-104881501D01*
X159727435Y-104704092D01*
X159727428Y-104704079D01*
X159617939Y-104540218D01*
X159617936Y-104540214D01*
X159478585Y-104400863D01*
X159478581Y-104400860D01*
X159314720Y-104291371D01*
X159314707Y-104291364D01*
X159132639Y-104215950D01*
X159132629Y-104215947D01*
X158939343Y-104177500D01*
X158939341Y-104177500D01*
X158142259Y-104177500D01*
X158142257Y-104177500D01*
X157948970Y-104215947D01*
X157948960Y-104215950D01*
X157766892Y-104291364D01*
X157766879Y-104291371D01*
X157603018Y-104400860D01*
X157603014Y-104400863D01*
X157463663Y-104540214D01*
X157463660Y-104540218D01*
X157354171Y-104704079D01*
X157354164Y-104704092D01*
X157278750Y-104886160D01*
X157278747Y-104886170D01*
X157240300Y-105079456D01*
X157240300Y-105079459D01*
X157240300Y-105276541D01*
X157240300Y-105276543D01*
X157240299Y-105276543D01*
X155911300Y-105276543D01*
X155911300Y-105276541D01*
X155911300Y-105079459D01*
X155911300Y-105079456D01*
X155872852Y-104886170D01*
X155872851Y-104886169D01*
X155872851Y-104886165D01*
X155870919Y-104881501D01*
X155797435Y-104704092D01*
X155797428Y-104704079D01*
X155687939Y-104540218D01*
X155687936Y-104540214D01*
X155548585Y-104400863D01*
X155548581Y-104400860D01*
X155384720Y-104291371D01*
X155384713Y-104291367D01*
X155375274Y-104287458D01*
X155320870Y-104243617D01*
X155298804Y-104177323D01*
X155316083Y-104109624D01*
X155319231Y-104104972D01*
X155321311Y-104101368D01*
X155321315Y-104101365D01*
X155397081Y-103970135D01*
X155436300Y-103823766D01*
X155436300Y-103672234D01*
X155397081Y-103525865D01*
X155321315Y-103394635D01*
X155214165Y-103287485D01*
X155141360Y-103245451D01*
X155082936Y-103211719D01*
X155009750Y-103192109D01*
X154936566Y-103172500D01*
X154785034Y-103172500D01*
X154638663Y-103211719D01*
X154507435Y-103287485D01*
X154507432Y-103287487D01*
X154400287Y-103394632D01*
X154400285Y-103394635D01*
X154324519Y-103525863D01*
X154306152Y-103594411D01*
X154285300Y-103672234D01*
X154285300Y-103823766D01*
X154312942Y-103926930D01*
X154324520Y-103970137D01*
X154324521Y-103970140D01*
X154336853Y-103991499D01*
X154353327Y-104059398D01*
X154330475Y-104125426D01*
X154275555Y-104168617D01*
X154229467Y-104177500D01*
X153712257Y-104177500D01*
X153518970Y-104215947D01*
X153518960Y-104215950D01*
X153336892Y-104291364D01*
X153336879Y-104291371D01*
X153173018Y-104400860D01*
X153173014Y-104400863D01*
X153033663Y-104540214D01*
X153033660Y-104540218D01*
X152924171Y-104704079D01*
X152924164Y-104704092D01*
X152848750Y-104886160D01*
X152848747Y-104886170D01*
X152810300Y-105079456D01*
X152810300Y-105079459D01*
X152810300Y-105276541D01*
X152810300Y-105276543D01*
X152810299Y-105276543D01*
X150454885Y-105276543D01*
X150452242Y-105266680D01*
X150406700Y-105187799D01*
X150373185Y-105129749D01*
X150261381Y-105017945D01*
X150261380Y-105017944D01*
X150257050Y-105013614D01*
X150257039Y-105013604D01*
X148987774Y-103744339D01*
X148954289Y-103683016D01*
X148953838Y-103680849D01*
X148923009Y-103525865D01*
X148922937Y-103525503D01*
X148903169Y-103477779D01*
X148862597Y-103379827D01*
X148862590Y-103379814D01*
X148774989Y-103248711D01*
X148774986Y-103248707D01*
X148663492Y-103137213D01*
X148663488Y-103137210D01*
X148532385Y-103049609D01*
X148532372Y-103049602D01*
X148386701Y-102989264D01*
X148386689Y-102989261D01*
X148232045Y-102958500D01*
X148232042Y-102958500D01*
X148074358Y-102958500D01*
X148074355Y-102958500D01*
X147919710Y-102989261D01*
X147919698Y-102989264D01*
X147774027Y-103049602D01*
X147774014Y-103049609D01*
X147642911Y-103137210D01*
X147642907Y-103137213D01*
X147531413Y-103248707D01*
X147531410Y-103248711D01*
X147443809Y-103379814D01*
X147443802Y-103379827D01*
X147383464Y-103525498D01*
X147383461Y-103525510D01*
X147352700Y-103680153D01*
X141947032Y-103680153D01*
X141861292Y-103594413D01*
X141861288Y-103594410D01*
X141730185Y-103506809D01*
X141730172Y-103506802D01*
X141584501Y-103446464D01*
X141584489Y-103446461D01*
X141429845Y-103415700D01*
X141429842Y-103415700D01*
X141272158Y-103415700D01*
X141272155Y-103415700D01*
X141117510Y-103446461D01*
X141117498Y-103446464D01*
X140971827Y-103506802D01*
X140971814Y-103506809D01*
X140840711Y-103594410D01*
X140840707Y-103594413D01*
X140729213Y-103705907D01*
X140729210Y-103705911D01*
X140641609Y-103837014D01*
X140641602Y-103837027D01*
X140581264Y-103982698D01*
X140581261Y-103982708D01*
X140550361Y-104138050D01*
X140517976Y-104199961D01*
X140516425Y-104201539D01*
X138801784Y-105916181D01*
X138740461Y-105949666D01*
X138714103Y-105952500D01*
X138039076Y-105952500D01*
X137972037Y-105932815D01*
X137926282Y-105880011D01*
X137916338Y-105810853D01*
X137924513Y-105781051D01*
X137954183Y-105709423D01*
X137984946Y-105554768D01*
X137984946Y-105397084D01*
X137984946Y-105397081D01*
X137984945Y-105397079D01*
X137977050Y-105357390D01*
X137954183Y-105242429D01*
X137928229Y-105179772D01*
X137920761Y-105110305D01*
X137939690Y-105063428D01*
X137944194Y-105056689D01*
X138004537Y-104911007D01*
X138035300Y-104756352D01*
X138035300Y-104598668D01*
X138035300Y-104598665D01*
X138035299Y-104598663D01*
X138009387Y-104468397D01*
X138004537Y-104444013D01*
X137992312Y-104414498D01*
X137944197Y-104298337D01*
X137944190Y-104298324D01*
X137856589Y-104167221D01*
X137856586Y-104167217D01*
X137745092Y-104055723D01*
X137685408Y-104015843D01*
X137640604Y-103962230D01*
X137630300Y-103912741D01*
X137630300Y-103908755D01*
X137630299Y-103908753D01*
X137628378Y-103899096D01*
X137599537Y-103754103D01*
X137581379Y-103710265D01*
X137539197Y-103608427D01*
X137539190Y-103608414D01*
X137451589Y-103477311D01*
X137451586Y-103477307D01*
X137340092Y-103365813D01*
X137340088Y-103365810D01*
X137208985Y-103278209D01*
X137208972Y-103278202D01*
X137063301Y-103217864D01*
X137063289Y-103217861D01*
X136908645Y-103187100D01*
X136908642Y-103187100D01*
X136750958Y-103187100D01*
X136750955Y-103187100D01*
X136596310Y-103217861D01*
X136596298Y-103217864D01*
X136450627Y-103278202D01*
X136450614Y-103278209D01*
X136318925Y-103366202D01*
X136252247Y-103387080D01*
X136250034Y-103387100D01*
X135417868Y-103387100D01*
X135410260Y-103387099D01*
X135410257Y-103387099D01*
X135302297Y-103387099D01*
X135235258Y-103367414D01*
X135189503Y-103314609D01*
X135179560Y-103245451D01*
X135202300Y-103195659D01*
X135208585Y-103181896D01*
X135214617Y-103175418D01*
X135468621Y-102921414D01*
X135752262Y-102637772D01*
X135813583Y-102604289D01*
X135815750Y-102603838D01*
X135896753Y-102587725D01*
X135971097Y-102572937D01*
X136083766Y-102526267D01*
X136116772Y-102512597D01*
X136116772Y-102512596D01*
X136116779Y-102512594D01*
X136247889Y-102424989D01*
X136359389Y-102313489D01*
X136446994Y-102182379D01*
X136507337Y-102036697D01*
X136538100Y-101882042D01*
X136538100Y-101724358D01*
X136538100Y-101724355D01*
X136538099Y-101724353D01*
X136507338Y-101569710D01*
X136507337Y-101569703D01*
X136479174Y-101501711D01*
X136446997Y-101424027D01*
X136446990Y-101424014D01*
X136359389Y-101292911D01*
X136359386Y-101292907D01*
X136247892Y-101181413D01*
X136247888Y-101181410D01*
X136116785Y-101093809D01*
X136116772Y-101093802D01*
X135971101Y-101033464D01*
X135971089Y-101033461D01*
X135816445Y-101002700D01*
X135816442Y-101002700D01*
X135658758Y-101002700D01*
X135608766Y-101012644D01*
X135539174Y-101006416D01*
X135483997Y-100963552D01*
X135460753Y-100897662D01*
X135470012Y-100843578D01*
X135491337Y-100792097D01*
X135522100Y-100637442D01*
X135522100Y-100479758D01*
X135522100Y-100479755D01*
X135522099Y-100479753D01*
X135518665Y-100462488D01*
X135491337Y-100325103D01*
X135442009Y-100206014D01*
X135430996Y-100179425D01*
X135430995Y-100179424D01*
X135430994Y-100179421D01*
X135393863Y-100123852D01*
X135392571Y-100119726D01*
X135389449Y-100116736D01*
X135382223Y-100086678D01*
X135372986Y-100057176D01*
X135373843Y-100051816D01*
X135373119Y-100048801D01*
X135377309Y-100030167D01*
X135379872Y-100014159D01*
X135381043Y-100010797D01*
X135431733Y-99888421D01*
X135434730Y-99873353D01*
X138340700Y-99873353D01*
X138340700Y-100031046D01*
X138371461Y-100185689D01*
X138371464Y-100185701D01*
X138431802Y-100331372D01*
X138431809Y-100331385D01*
X138519410Y-100462488D01*
X138519413Y-100462492D01*
X138630907Y-100573986D01*
X138630911Y-100573989D01*
X138762014Y-100661590D01*
X138762027Y-100661597D01*
X138907698Y-100721935D01*
X138907703Y-100721937D01*
X139062353Y-100752699D01*
X139062356Y-100752700D01*
X139062358Y-100752700D01*
X139220044Y-100752700D01*
X139220045Y-100752699D01*
X139374697Y-100721937D01*
X139520379Y-100661594D01*
X139651489Y-100573989D01*
X139745725Y-100479753D01*
X141871300Y-100479753D01*
X141871300Y-100637446D01*
X141902061Y-100792089D01*
X141902064Y-100792101D01*
X141962402Y-100937772D01*
X141962409Y-100937785D01*
X142050010Y-101068888D01*
X142050013Y-101068892D01*
X142161507Y-101180386D01*
X142161511Y-101180389D01*
X142292614Y-101267990D01*
X142292627Y-101267997D01*
X142352776Y-101292911D01*
X142438303Y-101328337D01*
X142574272Y-101355383D01*
X142592953Y-101359099D01*
X142592956Y-101359100D01*
X142592958Y-101359100D01*
X142750644Y-101359100D01*
X142750645Y-101359099D01*
X142905297Y-101328337D01*
X143050979Y-101267994D01*
X143182089Y-101180389D01*
X143293589Y-101068889D01*
X143381194Y-100937779D01*
X143441537Y-100792097D01*
X143472300Y-100637442D01*
X143472300Y-100479758D01*
X143472300Y-100479755D01*
X143472299Y-100479753D01*
X143468865Y-100462488D01*
X143441537Y-100325103D01*
X143441535Y-100325098D01*
X143381197Y-100179427D01*
X143381190Y-100179414D01*
X143293589Y-100048311D01*
X143293586Y-100048307D01*
X143182092Y-99936813D01*
X143182088Y-99936810D01*
X143050985Y-99849209D01*
X143050972Y-99849202D01*
X142905301Y-99788864D01*
X142905289Y-99788861D01*
X142750645Y-99758100D01*
X142750642Y-99758100D01*
X142592958Y-99758100D01*
X142592955Y-99758100D01*
X142438310Y-99788861D01*
X142438298Y-99788864D01*
X142292627Y-99849202D01*
X142292614Y-99849209D01*
X142161511Y-99936810D01*
X142161507Y-99936813D01*
X142050013Y-100048307D01*
X142050010Y-100048311D01*
X141962409Y-100179414D01*
X141962402Y-100179427D01*
X141902064Y-100325098D01*
X141902061Y-100325110D01*
X141871300Y-100479753D01*
X139745725Y-100479753D01*
X139762989Y-100462489D01*
X139781897Y-100434191D01*
X139801553Y-100404775D01*
X139850590Y-100331385D01*
X139850590Y-100331384D01*
X139850594Y-100331379D01*
X139910937Y-100185697D01*
X139941700Y-100031042D01*
X139941700Y-99873358D01*
X139941700Y-99873355D01*
X139941699Y-99873353D01*
X139924892Y-99788861D01*
X139910937Y-99718703D01*
X139893802Y-99677335D01*
X139850597Y-99573027D01*
X139850590Y-99573014D01*
X139762989Y-99441911D01*
X139762986Y-99441907D01*
X139651492Y-99330413D01*
X139651488Y-99330410D01*
X139520385Y-99242809D01*
X139520372Y-99242802D01*
X139374701Y-99182464D01*
X139374689Y-99182461D01*
X139220045Y-99151700D01*
X139220042Y-99151700D01*
X139062358Y-99151700D01*
X139062355Y-99151700D01*
X138907710Y-99182461D01*
X138907698Y-99182464D01*
X138762027Y-99242802D01*
X138762014Y-99242809D01*
X138630911Y-99330410D01*
X138630907Y-99330413D01*
X138519413Y-99441907D01*
X138519410Y-99441911D01*
X138431809Y-99573014D01*
X138431802Y-99573027D01*
X138371464Y-99718698D01*
X138371461Y-99718710D01*
X138340700Y-99873353D01*
X135434730Y-99873353D01*
X135442435Y-99834616D01*
X135442437Y-99834612D01*
X135462495Y-99733770D01*
X135462496Y-99733768D01*
X135462496Y-99576079D01*
X135462495Y-99576077D01*
X135453208Y-99529389D01*
X135431733Y-99421427D01*
X135422003Y-99397937D01*
X135371393Y-99275751D01*
X135371386Y-99275738D01*
X135283785Y-99144635D01*
X135283782Y-99144631D01*
X135172288Y-99033137D01*
X135172284Y-99033134D01*
X135041181Y-98945533D01*
X135041168Y-98945526D01*
X134895497Y-98885188D01*
X134895485Y-98885185D01*
X134740841Y-98854424D01*
X134740838Y-98854424D01*
X134583154Y-98854424D01*
X134583151Y-98854424D01*
X134428506Y-98885185D01*
X134428494Y-98885188D01*
X134282823Y-98945526D01*
X134282810Y-98945533D01*
X134151707Y-99033134D01*
X134151703Y-99033137D01*
X134040209Y-99144631D01*
X134040206Y-99144635D01*
X133952605Y-99275738D01*
X133952598Y-99275751D01*
X133892260Y-99421422D01*
X133892257Y-99421434D01*
X133861496Y-99576077D01*
X133861496Y-99733770D01*
X133892257Y-99888413D01*
X133892260Y-99888425D01*
X133952598Y-100034096D01*
X133952605Y-100034109D01*
X133989731Y-100089671D01*
X134010609Y-100156348D01*
X134001190Y-100206014D01*
X133951864Y-100325098D01*
X133951861Y-100325110D01*
X133921100Y-100479753D01*
X133921100Y-100637446D01*
X133951861Y-100792089D01*
X133951864Y-100792101D01*
X134012202Y-100937772D01*
X134012209Y-100937785D01*
X134099810Y-101068888D01*
X134099813Y-101068892D01*
X134211307Y-101180386D01*
X134211311Y-101180389D01*
X134342414Y-101267990D01*
X134342427Y-101267997D01*
X134402576Y-101292911D01*
X134488103Y-101328337D01*
X134624072Y-101355383D01*
X134642753Y-101359099D01*
X134642756Y-101359100D01*
X134642758Y-101359100D01*
X134800443Y-101359100D01*
X134819128Y-101355383D01*
X134850432Y-101349156D01*
X134851722Y-101349271D01*
X134852883Y-101348694D01*
X134886436Y-101352377D01*
X134920023Y-101355383D01*
X134921045Y-101356177D01*
X134922336Y-101356319D01*
X134948581Y-101377567D01*
X134975201Y-101398245D01*
X134975632Y-101399467D01*
X134976640Y-101400283D01*
X134987226Y-101432331D01*
X134998446Y-101464134D01*
X134998280Y-101465795D01*
X134998555Y-101466627D01*
X134997763Y-101470986D01*
X134994703Y-101501711D01*
X134992525Y-101510161D01*
X134967863Y-101569703D01*
X134937100Y-101724358D01*
X134937100Y-101725287D01*
X134935423Y-101731796D01*
X134919228Y-101758949D01*
X134904576Y-101786961D01*
X134903025Y-101788539D01*
X129948481Y-106743082D01*
X129948479Y-106743085D01*
X129898361Y-106829894D01*
X129898359Y-106829896D01*
X129869425Y-106880009D01*
X129869424Y-106880010D01*
X129858250Y-106921713D01*
X129828499Y-107032743D01*
X129828499Y-107032745D01*
X129828499Y-107200846D01*
X129828500Y-107200859D01*
X129828500Y-111256434D01*
X129808815Y-111323473D01*
X129807602Y-111325325D01*
X129719609Y-111457014D01*
X129719602Y-111457027D01*
X129659264Y-111602698D01*
X129659261Y-111602710D01*
X129628500Y-111757353D01*
X127410966Y-111757353D01*
X127531579Y-111707394D01*
X127556484Y-111690753D01*
X127620224Y-111648164D01*
X127650372Y-111628019D01*
X127662689Y-111619789D01*
X127774189Y-111508289D01*
X127861794Y-111377179D01*
X127922137Y-111231497D01*
X127952900Y-111076842D01*
X127952900Y-110919158D01*
X127952900Y-110919155D01*
X127952899Y-110919153D01*
X127942348Y-110866110D01*
X127922137Y-110764503D01*
X127898029Y-110706300D01*
X127861797Y-110618827D01*
X127861790Y-110618814D01*
X127774189Y-110487711D01*
X127774186Y-110487707D01*
X127662692Y-110376213D01*
X127662688Y-110376210D01*
X127531585Y-110288609D01*
X127531572Y-110288602D01*
X127385901Y-110228264D01*
X127385889Y-110228261D01*
X127231245Y-110197500D01*
X127231242Y-110197500D01*
X127073558Y-110197500D01*
X127073555Y-110197500D01*
X126918910Y-110228261D01*
X126918898Y-110228264D01*
X126773227Y-110288602D01*
X126773214Y-110288609D01*
X126642111Y-110376210D01*
X126642107Y-110376213D01*
X126530613Y-110487707D01*
X126530610Y-110487711D01*
X126443009Y-110618814D01*
X126443002Y-110618827D01*
X126382664Y-110764498D01*
X126382661Y-110764510D01*
X126351900Y-110919153D01*
X126351900Y-111076846D01*
X126382661Y-111231489D01*
X126382664Y-111231501D01*
X126443002Y-111377172D01*
X126443009Y-111377185D01*
X126482372Y-111436095D01*
X126503250Y-111502772D01*
X126484766Y-111570153D01*
X126432787Y-111616843D01*
X126363817Y-111628019D01*
X126313298Y-111609980D01*
X126120842Y-111489052D01*
X125867811Y-111367199D01*
X125602729Y-111274442D01*
X125602717Y-111274438D01*
X125328912Y-111211944D01*
X125328894Y-111211941D01*
X125049831Y-111180499D01*
X125049825Y-111180499D01*
X124768975Y-111180499D01*
X124768968Y-111180499D01*
X124489905Y-111211941D01*
X124489887Y-111211944D01*
X124216082Y-111274438D01*
X124216070Y-111274442D01*
X123950988Y-111367199D01*
X123697957Y-111489052D01*
X123460153Y-111638475D01*
X123240575Y-111813582D01*
X123041983Y-112012174D01*
X122866876Y-112231752D01*
X122717453Y-112469556D01*
X122595600Y-112722587D01*
X122502843Y-112987669D01*
X122502839Y-112987681D01*
X122440345Y-113261486D01*
X122440342Y-113261504D01*
X122408900Y-113540567D01*
X120159900Y-113540567D01*
X120159900Y-112239953D01*
X120611500Y-112239953D01*
X120611500Y-112397646D01*
X120642261Y-112552289D01*
X120642264Y-112552301D01*
X120702602Y-112697972D01*
X120702609Y-112697985D01*
X120790210Y-112829088D01*
X120790213Y-112829092D01*
X120901707Y-112940586D01*
X120901711Y-112940589D01*
X121032814Y-113028190D01*
X121032827Y-113028197D01*
X121102913Y-113057227D01*
X121178503Y-113088537D01*
X121272152Y-113107165D01*
X121333153Y-113119299D01*
X121333156Y-113119300D01*
X121333158Y-113119300D01*
X121490844Y-113119300D01*
X121490845Y-113119299D01*
X121645497Y-113088537D01*
X121791179Y-113028194D01*
X121922289Y-112940589D01*
X122033789Y-112829089D01*
X122121394Y-112697979D01*
X122181737Y-112552297D01*
X122212500Y-112397642D01*
X122212500Y-112239958D01*
X122212500Y-112239955D01*
X122212499Y-112239953D01*
X122210868Y-112231752D01*
X122181737Y-112085303D01*
X122181735Y-112085298D01*
X122121397Y-111939627D01*
X122121390Y-111939614D01*
X122033789Y-111808511D01*
X122033786Y-111808507D01*
X121922292Y-111697013D01*
X121922288Y-111697010D01*
X121791185Y-111609409D01*
X121791172Y-111609402D01*
X121645501Y-111549064D01*
X121645489Y-111549061D01*
X121490845Y-111518300D01*
X121490842Y-111518300D01*
X121333158Y-111518300D01*
X121333155Y-111518300D01*
X121178510Y-111549061D01*
X121178498Y-111549064D01*
X121032827Y-111609402D01*
X121032814Y-111609409D01*
X120901711Y-111697010D01*
X120901707Y-111697013D01*
X120790213Y-111808507D01*
X120790210Y-111808511D01*
X120702609Y-111939614D01*
X120702602Y-111939627D01*
X120642264Y-112085298D01*
X120642261Y-112085310D01*
X120611500Y-112239953D01*
X120159900Y-112239953D01*
X120159900Y-109293553D01*
X124751700Y-109293553D01*
X124751700Y-109451246D01*
X124782461Y-109605889D01*
X124782464Y-109605901D01*
X124842802Y-109751572D01*
X124842809Y-109751585D01*
X124930410Y-109882688D01*
X124930413Y-109882692D01*
X125041907Y-109994186D01*
X125041911Y-109994189D01*
X125173014Y-110081790D01*
X125173027Y-110081797D01*
X125311856Y-110139301D01*
X125318703Y-110142137D01*
X125416560Y-110161602D01*
X125473353Y-110172899D01*
X125473356Y-110172900D01*
X125473358Y-110172900D01*
X125631044Y-110172900D01*
X125631045Y-110172899D01*
X125785697Y-110142137D01*
X125931379Y-110081794D01*
X126062489Y-109994189D01*
X126173989Y-109882689D01*
X126261594Y-109751579D01*
X126321937Y-109605897D01*
X126352700Y-109451242D01*
X126352700Y-109293558D01*
X126352700Y-109293555D01*
X126352699Y-109293553D01*
X126350801Y-109284010D01*
X126321937Y-109138903D01*
X126284062Y-109047464D01*
X126261597Y-108993227D01*
X126261590Y-108993214D01*
X126173989Y-108862111D01*
X126173986Y-108862107D01*
X126062492Y-108750613D01*
X126062488Y-108750610D01*
X125931385Y-108663009D01*
X125931372Y-108663002D01*
X125785701Y-108602664D01*
X125785689Y-108602661D01*
X125631045Y-108571900D01*
X125631042Y-108571900D01*
X125473358Y-108571900D01*
X125473355Y-108571900D01*
X125318710Y-108602661D01*
X125318698Y-108602664D01*
X125173027Y-108663002D01*
X125173014Y-108663009D01*
X125041911Y-108750610D01*
X125041907Y-108750613D01*
X124930413Y-108862107D01*
X124930410Y-108862111D01*
X124842809Y-108993214D01*
X124842802Y-108993227D01*
X124782464Y-109138898D01*
X124782461Y-109138910D01*
X124751700Y-109293553D01*
X120159900Y-109293553D01*
X120159900Y-103221753D01*
X124909300Y-103221753D01*
X124909300Y-103379446D01*
X124940061Y-103534089D01*
X124940064Y-103534101D01*
X125000402Y-103679772D01*
X125000409Y-103679785D01*
X125088010Y-103810888D01*
X125088013Y-103810892D01*
X125199507Y-103922386D01*
X125199511Y-103922389D01*
X125330614Y-104009990D01*
X125330627Y-104009997D01*
X125476298Y-104070335D01*
X125476303Y-104070337D01*
X125630953Y-104101099D01*
X125630956Y-104101100D01*
X125630958Y-104101100D01*
X125788644Y-104101100D01*
X125788645Y-104101099D01*
X125943297Y-104070337D01*
X126088979Y-104009994D01*
X126220089Y-103922389D01*
X126331589Y-103810889D01*
X126419194Y-103679779D01*
X126479537Y-103534097D01*
X126510300Y-103379442D01*
X126510300Y-103221758D01*
X126510300Y-103221755D01*
X126510299Y-103221753D01*
X126508303Y-103211719D01*
X126479537Y-103067103D01*
X126459924Y-103019753D01*
X126419197Y-102921427D01*
X126419190Y-102921414D01*
X126331589Y-102790311D01*
X126331586Y-102790307D01*
X126220092Y-102678813D01*
X126220088Y-102678810D01*
X126088985Y-102591209D01*
X126088972Y-102591202D01*
X125943301Y-102530864D01*
X125943289Y-102530861D01*
X125788645Y-102500100D01*
X125788642Y-102500100D01*
X125630958Y-102500100D01*
X125630955Y-102500100D01*
X125476310Y-102530861D01*
X125476298Y-102530864D01*
X125330627Y-102591202D01*
X125330614Y-102591209D01*
X125199511Y-102678810D01*
X125199507Y-102678813D01*
X125088013Y-102790307D01*
X125088010Y-102790311D01*
X125000409Y-102921414D01*
X125000402Y-102921427D01*
X124940064Y-103067098D01*
X124940061Y-103067110D01*
X124909300Y-103221753D01*
X120159900Y-103221753D01*
X120159900Y-100251153D01*
X131787500Y-100251153D01*
X131787500Y-100408846D01*
X131818261Y-100563489D01*
X131818264Y-100563501D01*
X131878602Y-100709172D01*
X131878609Y-100709185D01*
X131966210Y-100840288D01*
X131966213Y-100840292D01*
X132077707Y-100951786D01*
X132077711Y-100951789D01*
X132208814Y-101039390D01*
X132208827Y-101039397D01*
X132340184Y-101093806D01*
X132354503Y-101099737D01*
X132509153Y-101130499D01*
X132509156Y-101130500D01*
X132509158Y-101130500D01*
X132666844Y-101130500D01*
X132666845Y-101130499D01*
X132821497Y-101099737D01*
X132967179Y-101039394D01*
X133098289Y-100951789D01*
X133209789Y-100840289D01*
X133297394Y-100709179D01*
X133357737Y-100563497D01*
X133388500Y-100408842D01*
X133388500Y-100251158D01*
X133388500Y-100251155D01*
X133388499Y-100251153D01*
X133374231Y-100179424D01*
X133357737Y-100096503D01*
X133343512Y-100062160D01*
X133297397Y-99950827D01*
X133297390Y-99950814D01*
X133209789Y-99819711D01*
X133209786Y-99819707D01*
X133098292Y-99708213D01*
X133098288Y-99708210D01*
X132967185Y-99620609D01*
X132967172Y-99620602D01*
X132821501Y-99560264D01*
X132821489Y-99560261D01*
X132666845Y-99529500D01*
X132666842Y-99529500D01*
X132509158Y-99529500D01*
X132509155Y-99529500D01*
X132354510Y-99560261D01*
X132354498Y-99560264D01*
X132208827Y-99620602D01*
X132208814Y-99620609D01*
X132077711Y-99708210D01*
X132077707Y-99708213D01*
X131966213Y-99819707D01*
X131966210Y-99819711D01*
X131878609Y-99950814D01*
X131878602Y-99950827D01*
X131818264Y-100096498D01*
X131818261Y-100096510D01*
X131787500Y-100251153D01*
X120159900Y-100251153D01*
X120159900Y-94536153D01*
X126707500Y-94536153D01*
X126707500Y-94693846D01*
X126738261Y-94848489D01*
X126738264Y-94848501D01*
X126798602Y-94994172D01*
X126798609Y-94994185D01*
X126886210Y-95125288D01*
X126886213Y-95125292D01*
X126997707Y-95236786D01*
X126997711Y-95236789D01*
X127128814Y-95324390D01*
X127128827Y-95324397D01*
X127250802Y-95374920D01*
X127274503Y-95384737D01*
X127429153Y-95415499D01*
X127429156Y-95415500D01*
X127429158Y-95415500D01*
X127586844Y-95415500D01*
X127586845Y-95415499D01*
X127741497Y-95384737D01*
X127887179Y-95324394D01*
X128018289Y-95236789D01*
X128129789Y-95125289D01*
X128217394Y-94994179D01*
X128277737Y-94848497D01*
X128308500Y-94693842D01*
X128308500Y-94557497D01*
X128328185Y-94490458D01*
X128380989Y-94444703D01*
X128450147Y-94434759D01*
X128513703Y-94463784D01*
X128520181Y-94469816D01*
X129986784Y-95936419D01*
X130020269Y-95997742D01*
X130015285Y-96067434D01*
X129973413Y-96123367D01*
X129907949Y-96147784D01*
X129899103Y-96148100D01*
X129154298Y-96148100D01*
X129087259Y-96128415D01*
X129085241Y-96127091D01*
X129075182Y-96120346D01*
X129046631Y-96091795D01*
X128949261Y-96035579D01*
X128909700Y-96012738D01*
X128909699Y-96012737D01*
X128909698Y-96012737D01*
X128853735Y-95997742D01*
X128756972Y-95971814D01*
X128756969Y-95971814D01*
X128724279Y-95971814D01*
X128657240Y-95952129D01*
X128655388Y-95950916D01*
X128523700Y-95862924D01*
X128523687Y-95862917D01*
X128378016Y-95802579D01*
X128378004Y-95802576D01*
X128223360Y-95771815D01*
X128223357Y-95771815D01*
X128065673Y-95771815D01*
X128065670Y-95771815D01*
X127911025Y-95802576D01*
X127911013Y-95802579D01*
X127765342Y-95862917D01*
X127765329Y-95862924D01*
X127634226Y-95950525D01*
X127634222Y-95950528D01*
X127522728Y-96062022D01*
X127522725Y-96062026D01*
X127435124Y-96193129D01*
X127435117Y-96193142D01*
X127374779Y-96338813D01*
X127374776Y-96338825D01*
X127344015Y-96493468D01*
X127344015Y-96651161D01*
X127374776Y-96805804D01*
X127374779Y-96805816D01*
X127435117Y-96951487D01*
X127435124Y-96951500D01*
X127522725Y-97082603D01*
X127522728Y-97082607D01*
X127634222Y-97194101D01*
X127634226Y-97194104D01*
X127765329Y-97281705D01*
X127765342Y-97281712D01*
X127897428Y-97336423D01*
X127911018Y-97342052D01*
X128013892Y-97362515D01*
X128065668Y-97372814D01*
X128065671Y-97372815D01*
X128065673Y-97372815D01*
X128223359Y-97372815D01*
X128223360Y-97372814D01*
X128378012Y-97342052D01*
X128459794Y-97308177D01*
X128497988Y-97292357D01*
X128567457Y-97284888D01*
X128583192Y-97288804D01*
X128595890Y-97292862D01*
X128622416Y-97308177D01*
X128754724Y-97343629D01*
X128757513Y-97344521D01*
X128784101Y-97362515D01*
X128811515Y-97379225D01*
X128812926Y-97382023D01*
X128815377Y-97383682D01*
X128824470Y-97404916D01*
X128841378Y-97438443D01*
X128871861Y-97591691D01*
X128871862Y-97591692D01*
X128871863Y-97591697D01*
X128900297Y-97660343D01*
X128929613Y-97731120D01*
X128937081Y-97800590D01*
X128905805Y-97863069D01*
X128845716Y-97898721D01*
X128775891Y-97896226D01*
X128767599Y-97893133D01*
X128683901Y-97858464D01*
X128683889Y-97858461D01*
X128529245Y-97827700D01*
X128529242Y-97827700D01*
X128371558Y-97827700D01*
X128371555Y-97827700D01*
X128216910Y-97858461D01*
X128216898Y-97858464D01*
X128071227Y-97918802D01*
X128071214Y-97918809D01*
X127940111Y-98006410D01*
X127940107Y-98006413D01*
X127828613Y-98117907D01*
X127828610Y-98117911D01*
X127741009Y-98249014D01*
X127741002Y-98249027D01*
X127680664Y-98394698D01*
X127680661Y-98394710D01*
X127649900Y-98549353D01*
X127649900Y-98707046D01*
X127680661Y-98861689D01*
X127680664Y-98861701D01*
X127741002Y-99007372D01*
X127741009Y-99007385D01*
X127828610Y-99138488D01*
X127828613Y-99138492D01*
X127940107Y-99249986D01*
X127940111Y-99249989D01*
X128071214Y-99337590D01*
X128071227Y-99337597D01*
X128216898Y-99397935D01*
X128216903Y-99397937D01*
X128335030Y-99421434D01*
X128371553Y-99428699D01*
X128371556Y-99428700D01*
X128371558Y-99428700D01*
X128529244Y-99428700D01*
X128529245Y-99428699D01*
X128683897Y-99397937D01*
X128829579Y-99337594D01*
X128960689Y-99249989D01*
X129072189Y-99138489D01*
X129159794Y-99007379D01*
X129168466Y-98986444D01*
X129210408Y-98885185D01*
X129220137Y-98861697D01*
X129250900Y-98707042D01*
X129250900Y-98549358D01*
X129250900Y-98549355D01*
X129250899Y-98549353D01*
X129248797Y-98538786D01*
X129220137Y-98394703D01*
X129193356Y-98330047D01*
X129162387Y-98255279D01*
X129154918Y-98185810D01*
X129186194Y-98123331D01*
X129246283Y-98087679D01*
X129316108Y-98090173D01*
X129324382Y-98093259D01*
X129408103Y-98127937D01*
X129562753Y-98158699D01*
X129562756Y-98158700D01*
X129562758Y-98158700D01*
X129720444Y-98158700D01*
X129720445Y-98158699D01*
X129875097Y-98127937D01*
X130020779Y-98067594D01*
X130075263Y-98031189D01*
X130152475Y-97979598D01*
X130219153Y-97958720D01*
X130221366Y-97958700D01*
X139780709Y-97958700D01*
X139847748Y-97978385D01*
X139893503Y-98031189D01*
X139903447Y-98100347D01*
X139902326Y-98106891D01*
X139890100Y-98168353D01*
X139890100Y-98326046D01*
X139920861Y-98480689D01*
X139920864Y-98480701D01*
X139981202Y-98626372D01*
X139981209Y-98626385D01*
X140068810Y-98757488D01*
X140068813Y-98757492D01*
X140180307Y-98868986D01*
X140180311Y-98868989D01*
X140311414Y-98956590D01*
X140311427Y-98956597D01*
X140434042Y-99007385D01*
X140457103Y-99016937D01*
X140611753Y-99047699D01*
X140611756Y-99047700D01*
X140611758Y-99047700D01*
X140769444Y-99047700D01*
X140769445Y-99047699D01*
X140924097Y-99016937D01*
X141069779Y-98956594D01*
X141200889Y-98868989D01*
X141312389Y-98757489D01*
X141399994Y-98626379D01*
X141460337Y-98480697D01*
X141491100Y-98326042D01*
X141491100Y-98168358D01*
X141491100Y-98168355D01*
X141491099Y-98168353D01*
X141478874Y-98106891D01*
X141485101Y-98037300D01*
X141527964Y-97982122D01*
X141593854Y-97958878D01*
X141600491Y-97958700D01*
X141924731Y-97958700D01*
X141924747Y-97958701D01*
X141932343Y-97958701D01*
X142090454Y-97958701D01*
X142090457Y-97958701D01*
X142243185Y-97917777D01*
X142293304Y-97888839D01*
X142294883Y-97887927D01*
X142362777Y-97871443D01*
X142428808Y-97894283D01*
X142472009Y-97949197D01*
X142479843Y-97989827D01*
X142480303Y-97989782D01*
X142480791Y-97994739D01*
X142480900Y-97995304D01*
X142480900Y-97995846D01*
X142511661Y-98150489D01*
X142511664Y-98150501D01*
X142572002Y-98296172D01*
X142572009Y-98296185D01*
X142659610Y-98427288D01*
X142659613Y-98427292D01*
X142771107Y-98538786D01*
X142771111Y-98538789D01*
X142902214Y-98626390D01*
X142902227Y-98626397D01*
X143017418Y-98674110D01*
X143047903Y-98686737D01*
X143150003Y-98707046D01*
X143202553Y-98717499D01*
X143202556Y-98717500D01*
X143202558Y-98717500D01*
X143360244Y-98717500D01*
X143360245Y-98717499D01*
X143514897Y-98686737D01*
X143660579Y-98626394D01*
X143791689Y-98538789D01*
X143903189Y-98427289D01*
X143990794Y-98296179D01*
X144051137Y-98150497D01*
X144081900Y-97995842D01*
X144081900Y-97838158D01*
X144081900Y-97838155D01*
X144081899Y-97838153D01*
X144074427Y-97800590D01*
X144051137Y-97683503D01*
X143999229Y-97558185D01*
X143990797Y-97537827D01*
X143990790Y-97537814D01*
X143903189Y-97406711D01*
X143903186Y-97406707D01*
X143791692Y-97295213D01*
X143791688Y-97295210D01*
X143660585Y-97207609D01*
X143660572Y-97207602D01*
X143514901Y-97147264D01*
X143514891Y-97147261D01*
X143372652Y-97118968D01*
X143310742Y-97086583D01*
X143276167Y-97025867D01*
X143279907Y-96956098D01*
X143309161Y-96909673D01*
X144687616Y-95531219D01*
X144714543Y-95516515D01*
X144740362Y-95499923D01*
X144746562Y-95499031D01*
X144748939Y-95497734D01*
X144775297Y-95494900D01*
X144805261Y-95494900D01*
X144805277Y-95494901D01*
X144812873Y-95494901D01*
X144970984Y-95494901D01*
X144970987Y-95494901D01*
X145123715Y-95453977D01*
X145177536Y-95422903D01*
X145260646Y-95374920D01*
X145322467Y-95313098D01*
X145329514Y-95307814D01*
X145354311Y-95298540D01*
X145377552Y-95285850D01*
X145386528Y-95286491D01*
X145394957Y-95283340D01*
X145420833Y-95288945D01*
X145447244Y-95290834D01*
X145454448Y-95296226D01*
X145463243Y-95298132D01*
X145481980Y-95316837D01*
X145503178Y-95332705D01*
X145507431Y-95342243D01*
X145512691Y-95347494D01*
X145515493Y-95360322D01*
X145525528Y-95382825D01*
X145548749Y-95499563D01*
X145548752Y-95499575D01*
X145609090Y-95645246D01*
X145609097Y-95645259D01*
X145696698Y-95776362D01*
X145696701Y-95776366D01*
X145808195Y-95887860D01*
X145808199Y-95887863D01*
X145939302Y-95975464D01*
X145939314Y-95975471D01*
X146013532Y-96006212D01*
X146061721Y-96026172D01*
X146116125Y-96070012D01*
X146138190Y-96136306D01*
X146120911Y-96204006D01*
X146101950Y-96228414D01*
X144959681Y-97370682D01*
X144959679Y-97370685D01*
X144915794Y-97446698D01*
X144915793Y-97446699D01*
X144893693Y-97484977D01*
X144880623Y-97507615D01*
X144839699Y-97660343D01*
X144839699Y-97660345D01*
X144839699Y-97828446D01*
X144839700Y-97828459D01*
X144839700Y-98327834D01*
X144820015Y-98394873D01*
X144818802Y-98396725D01*
X144730809Y-98528414D01*
X144730802Y-98528427D01*
X144670464Y-98674098D01*
X144670461Y-98674110D01*
X144639700Y-98828753D01*
X144639700Y-98986446D01*
X144670461Y-99141089D01*
X144670464Y-99141101D01*
X144730802Y-99286772D01*
X144730809Y-99286785D01*
X144818410Y-99417888D01*
X144818413Y-99417892D01*
X144929907Y-99529386D01*
X144929911Y-99529389D01*
X145061014Y-99616990D01*
X145061027Y-99616997D01*
X145206698Y-99677335D01*
X145206703Y-99677337D01*
X145361353Y-99708099D01*
X145361356Y-99708100D01*
X145361358Y-99708100D01*
X145519044Y-99708100D01*
X145519045Y-99708099D01*
X145673697Y-99677337D01*
X145810659Y-99620606D01*
X145819372Y-99616997D01*
X145819372Y-99616996D01*
X145819379Y-99616994D01*
X145950489Y-99529389D01*
X146061989Y-99417889D01*
X146149594Y-99286779D01*
X146209937Y-99141097D01*
X146240700Y-98986442D01*
X146240700Y-98828758D01*
X146240700Y-98828755D01*
X146240699Y-98828753D01*
X146226524Y-98757492D01*
X146209937Y-98674103D01*
X146190177Y-98626397D01*
X146149597Y-98528427D01*
X146149590Y-98528414D01*
X146061598Y-98396725D01*
X146040720Y-98330047D01*
X146040700Y-98327834D01*
X146040700Y-98039496D01*
X146060385Y-97972457D01*
X146077014Y-97951820D01*
X148366894Y-95661939D01*
X148428215Y-95628456D01*
X148497907Y-95633440D01*
X148553840Y-95675312D01*
X148576190Y-95725430D01*
X148603062Y-95860524D01*
X148603065Y-95860534D01*
X148663403Y-96006204D01*
X148663409Y-96006215D01*
X148698105Y-96058142D01*
X148718982Y-96124820D01*
X148700497Y-96192200D01*
X148698105Y-96195921D01*
X148663411Y-96247845D01*
X148663402Y-96247861D01*
X148603064Y-96393531D01*
X148603061Y-96393543D01*
X148572300Y-96548186D01*
X148572300Y-96705879D01*
X148603061Y-96860522D01*
X148603064Y-96860534D01*
X148663402Y-97006205D01*
X148663409Y-97006218D01*
X148751010Y-97137321D01*
X148751013Y-97137325D01*
X148862507Y-97248819D01*
X148862511Y-97248822D01*
X148993614Y-97336423D01*
X148993627Y-97336430D01*
X149139298Y-97396768D01*
X149139303Y-97396770D01*
X149279354Y-97424628D01*
X149293953Y-97427532D01*
X149293956Y-97427533D01*
X149293958Y-97427533D01*
X149451643Y-97427533D01*
X149466246Y-97424628D01*
X149517709Y-97414391D01*
X149587299Y-97420618D01*
X149642477Y-97463480D01*
X149665722Y-97529369D01*
X149665900Y-97536008D01*
X149665900Y-102518834D01*
X149646215Y-102585873D01*
X149645002Y-102587725D01*
X149557009Y-102719414D01*
X149557002Y-102719427D01*
X149496664Y-102865098D01*
X149496661Y-102865110D01*
X149465900Y-103019753D01*
X149465900Y-103177446D01*
X149496661Y-103332089D01*
X149496664Y-103332101D01*
X149557002Y-103477772D01*
X149557009Y-103477785D01*
X149644610Y-103608888D01*
X149644613Y-103608892D01*
X149756107Y-103720386D01*
X149756111Y-103720389D01*
X149887214Y-103807990D01*
X149887227Y-103807997D01*
X150032898Y-103868335D01*
X150032903Y-103868337D01*
X150140553Y-103889750D01*
X150187553Y-103899099D01*
X150187556Y-103899100D01*
X150187558Y-103899100D01*
X150345244Y-103899100D01*
X150345245Y-103899099D01*
X150499897Y-103868337D01*
X150645579Y-103807994D01*
X150776689Y-103720389D01*
X150888189Y-103608889D01*
X150975794Y-103477779D01*
X151036137Y-103332097D01*
X151066900Y-103177442D01*
X151066900Y-103019758D01*
X151066900Y-103019755D01*
X151066899Y-103019753D01*
X151054715Y-102958500D01*
X151036137Y-102865103D01*
X151036135Y-102865098D01*
X150975797Y-102719427D01*
X150975790Y-102719414D01*
X150887798Y-102587725D01*
X150866920Y-102521047D01*
X150866900Y-102518834D01*
X150866900Y-96548186D01*
X151263867Y-96548186D01*
X151263867Y-96705879D01*
X151294628Y-96860522D01*
X151294631Y-96860534D01*
X151354969Y-97006205D01*
X151354976Y-97006218D01*
X151442577Y-97137321D01*
X151442580Y-97137325D01*
X151554074Y-97248819D01*
X151554078Y-97248822D01*
X151685181Y-97336423D01*
X151685194Y-97336430D01*
X151830865Y-97396768D01*
X151830870Y-97396770D01*
X151970921Y-97424628D01*
X151985520Y-97427532D01*
X151985523Y-97427533D01*
X151985525Y-97427533D01*
X152143211Y-97427533D01*
X152143212Y-97427532D01*
X152297864Y-97396770D01*
X152443546Y-97336427D01*
X152574656Y-97248822D01*
X152686156Y-97137322D01*
X152743957Y-97050815D01*
X152797568Y-97006011D01*
X152866893Y-96997304D01*
X152929921Y-97027458D01*
X152950161Y-97050816D01*
X153033660Y-97175781D01*
X153033663Y-97175785D01*
X153173014Y-97315136D01*
X153173018Y-97315139D01*
X153336879Y-97424628D01*
X153336892Y-97424635D01*
X153518960Y-97500049D01*
X153518965Y-97500051D01*
X153518969Y-97500051D01*
X153518970Y-97500052D01*
X153712256Y-97538500D01*
X153712259Y-97538500D01*
X154229467Y-97538500D01*
X154296506Y-97558185D01*
X154342261Y-97610989D01*
X154352205Y-97680147D01*
X154336853Y-97724501D01*
X154324521Y-97745859D01*
X154324520Y-97745862D01*
X154324520Y-97745863D01*
X154324519Y-97745865D01*
X154285300Y-97892234D01*
X154285300Y-98043766D01*
X154297066Y-98087679D01*
X154324519Y-98190136D01*
X154358513Y-98249014D01*
X154400285Y-98321365D01*
X154507435Y-98428515D01*
X154638665Y-98504281D01*
X154785034Y-98543500D01*
X154785036Y-98543500D01*
X154936564Y-98543500D01*
X154936566Y-98543500D01*
X155082935Y-98504281D01*
X155214165Y-98428515D01*
X155321315Y-98321365D01*
X155397081Y-98190135D01*
X155436300Y-98043766D01*
X155436300Y-97892234D01*
X155397081Y-97745865D01*
X155321315Y-97614635D01*
X155321313Y-97614633D01*
X155317251Y-97607597D01*
X155319579Y-97606252D01*
X155299155Y-97553422D01*
X155313193Y-97484977D01*
X155362006Y-97434986D01*
X155375270Y-97428543D01*
X155384714Y-97424632D01*
X155548582Y-97315139D01*
X155687939Y-97175782D01*
X155797432Y-97011914D01*
X155872851Y-96829835D01*
X155897508Y-96705879D01*
X155911300Y-96636543D01*
X157240299Y-96636543D01*
X157278747Y-96829829D01*
X157278750Y-96829839D01*
X157354164Y-97011907D01*
X157354171Y-97011920D01*
X157463660Y-97175781D01*
X157463663Y-97175785D01*
X157603014Y-97315136D01*
X157603018Y-97315139D01*
X157766879Y-97424628D01*
X157766892Y-97424635D01*
X157948960Y-97500049D01*
X157948965Y-97500051D01*
X157948969Y-97500051D01*
X157948970Y-97500052D01*
X158142256Y-97538500D01*
X158142259Y-97538500D01*
X158939343Y-97538500D01*
X159069382Y-97512632D01*
X159132635Y-97500051D01*
X159305282Y-97428539D01*
X159314707Y-97424635D01*
X159314707Y-97424634D01*
X159314714Y-97424632D01*
X159478582Y-97315139D01*
X159617939Y-97175782D01*
X159727432Y-97011914D01*
X159802851Y-96829835D01*
X159827508Y-96705879D01*
X159841300Y-96636543D01*
X159841300Y-96439456D01*
X159802852Y-96246170D01*
X159802851Y-96246169D01*
X159802851Y-96246165D01*
X159785388Y-96204006D01*
X159727435Y-96064092D01*
X159727428Y-96064079D01*
X159617939Y-95900218D01*
X159617936Y-95900214D01*
X159478585Y-95760863D01*
X159478581Y-95760860D01*
X159314720Y-95651371D01*
X159314707Y-95651364D01*
X159132639Y-95575950D01*
X159132629Y-95575947D01*
X158939343Y-95537500D01*
X158939341Y-95537500D01*
X158142259Y-95537500D01*
X158142257Y-95537500D01*
X157948970Y-95575947D01*
X157948960Y-95575950D01*
X157766892Y-95651364D01*
X157766879Y-95651371D01*
X157603018Y-95760860D01*
X157603014Y-95760863D01*
X157463663Y-95900214D01*
X157463660Y-95900218D01*
X157354171Y-96064079D01*
X157354164Y-96064092D01*
X157278750Y-96246160D01*
X157278747Y-96246170D01*
X157240300Y-96439456D01*
X157240300Y-96439459D01*
X157240300Y-96636541D01*
X157240300Y-96636543D01*
X157240299Y-96636543D01*
X155911300Y-96636543D01*
X155911300Y-96439456D01*
X155872852Y-96246170D01*
X155872851Y-96246169D01*
X155872851Y-96246165D01*
X155855388Y-96204006D01*
X155797435Y-96064092D01*
X155797428Y-96064079D01*
X155687939Y-95900218D01*
X155687936Y-95900214D01*
X155548585Y-95760863D01*
X155548581Y-95760860D01*
X155384720Y-95651371D01*
X155384707Y-95651364D01*
X155202639Y-95575950D01*
X155202629Y-95575947D01*
X155009343Y-95537500D01*
X155009341Y-95537500D01*
X153712259Y-95537500D01*
X153712257Y-95537500D01*
X153518970Y-95575947D01*
X153518960Y-95575950D01*
X153336892Y-95651364D01*
X153336879Y-95651371D01*
X153173018Y-95760860D01*
X153173014Y-95760863D01*
X153033663Y-95900214D01*
X153033660Y-95900218D01*
X152924171Y-96064079D01*
X152924165Y-96064091D01*
X152908396Y-96102160D01*
X152864554Y-96156562D01*
X152798260Y-96178626D01*
X152730561Y-96161346D01*
X152690732Y-96123593D01*
X152686156Y-96116744D01*
X152686155Y-96116743D01*
X152686153Y-96116740D01*
X152574659Y-96005246D01*
X152574655Y-96005243D01*
X152443552Y-95917642D01*
X152443539Y-95917635D01*
X152297868Y-95857297D01*
X152297856Y-95857294D01*
X152143212Y-95826533D01*
X152143209Y-95826533D01*
X151985525Y-95826533D01*
X151985522Y-95826533D01*
X151830877Y-95857294D01*
X151830865Y-95857297D01*
X151685194Y-95917635D01*
X151685181Y-95917642D01*
X151554078Y-96005243D01*
X151554074Y-96005246D01*
X151442580Y-96116740D01*
X151442577Y-96116744D01*
X151354976Y-96247847D01*
X151354969Y-96247860D01*
X151294631Y-96393531D01*
X151294628Y-96393543D01*
X151263867Y-96548186D01*
X150866900Y-96548186D01*
X150866900Y-96337496D01*
X150886585Y-96270457D01*
X150903214Y-96249820D01*
X152132798Y-95020235D01*
X152194119Y-94986752D01*
X152263811Y-94991736D01*
X152308158Y-95020237D01*
X152321507Y-95033586D01*
X152321511Y-95033589D01*
X152452614Y-95121190D01*
X152452627Y-95121197D01*
X152598298Y-95181535D01*
X152598303Y-95181537D01*
X152748318Y-95211377D01*
X152752953Y-95212299D01*
X152752956Y-95212300D01*
X152752958Y-95212300D01*
X152910644Y-95212300D01*
X152910645Y-95212299D01*
X153065297Y-95181537D01*
X153177966Y-95134867D01*
X153210972Y-95121197D01*
X153210972Y-95121196D01*
X153210979Y-95121194D01*
X153342089Y-95033589D01*
X153453589Y-94922089D01*
X153541194Y-94790979D01*
X153601537Y-94645297D01*
X153632300Y-94490642D01*
X153632300Y-94332958D01*
X153632300Y-94332955D01*
X153632299Y-94332953D01*
X153620878Y-94275535D01*
X153601537Y-94178303D01*
X153601535Y-94178298D01*
X153541197Y-94032627D01*
X153541190Y-94032614D01*
X153453589Y-93901511D01*
X153453586Y-93901507D01*
X153440237Y-93888158D01*
X153406752Y-93826835D01*
X153411736Y-93757143D01*
X153440235Y-93712799D01*
X154516016Y-92637019D01*
X154542943Y-92622315D01*
X154568762Y-92605723D01*
X154574962Y-92604831D01*
X154577339Y-92603534D01*
X154603697Y-92600700D01*
X154798634Y-92600700D01*
X154865673Y-92620385D01*
X154867525Y-92621598D01*
X154999214Y-92709590D01*
X154999227Y-92709597D01*
X155078294Y-92742347D01*
X155144903Y-92769937D01*
X155299553Y-92800699D01*
X155299556Y-92800700D01*
X155299558Y-92800700D01*
X155457244Y-92800700D01*
X155457245Y-92800699D01*
X155611897Y-92769937D01*
X155757579Y-92709594D01*
X155888689Y-92621989D01*
X156000189Y-92510489D01*
X156087794Y-92379379D01*
X156148137Y-92233697D01*
X156178900Y-92079042D01*
X156178900Y-91921358D01*
X156178900Y-91921355D01*
X156178899Y-91921353D01*
X156169401Y-91873602D01*
X156148137Y-91766703D01*
X156123449Y-91707100D01*
X156087796Y-91621025D01*
X156087794Y-91621022D01*
X156087794Y-91621021D01*
X156053094Y-91569089D01*
X156047121Y-91550014D01*
X156036614Y-91533005D01*
X156036893Y-91517352D01*
X156032216Y-91502415D01*
X156037504Y-91483135D01*
X156037862Y-91463146D01*
X156038050Y-91462753D01*
X157162100Y-91462753D01*
X157162100Y-91620446D01*
X157192861Y-91775089D01*
X157192864Y-91775101D01*
X157253202Y-91920772D01*
X157253209Y-91920785D01*
X157340810Y-92051888D01*
X157340813Y-92051892D01*
X157452307Y-92163386D01*
X157452311Y-92163389D01*
X157583414Y-92250990D01*
X157583427Y-92250997D01*
X157684869Y-92293015D01*
X157729103Y-92311337D01*
X157883753Y-92342099D01*
X157883756Y-92342100D01*
X157883758Y-92342100D01*
X158041444Y-92342100D01*
X158041445Y-92342099D01*
X158196097Y-92311337D01*
X158341779Y-92250994D01*
X158472889Y-92163389D01*
X158584389Y-92051889D01*
X158671994Y-91920779D01*
X158732337Y-91775097D01*
X158763100Y-91620442D01*
X158763100Y-91462758D01*
X158763100Y-91462755D01*
X158763099Y-91462753D01*
X158758211Y-91438179D01*
X158732337Y-91308103D01*
X158732335Y-91308098D01*
X158671997Y-91162427D01*
X158671990Y-91162414D01*
X158584389Y-91031311D01*
X158584386Y-91031307D01*
X158472892Y-90919813D01*
X158472888Y-90919810D01*
X158341785Y-90832209D01*
X158341772Y-90832202D01*
X158196101Y-90771864D01*
X158196089Y-90771861D01*
X158041445Y-90741100D01*
X158041442Y-90741100D01*
X157883758Y-90741100D01*
X157883755Y-90741100D01*
X157729110Y-90771861D01*
X157729098Y-90771864D01*
X157583427Y-90832202D01*
X157583414Y-90832209D01*
X157452311Y-90919810D01*
X157452307Y-90919813D01*
X157340813Y-91031307D01*
X157340810Y-91031311D01*
X157253209Y-91162414D01*
X157253202Y-91162427D01*
X157192864Y-91308098D01*
X157192861Y-91308110D01*
X157162100Y-91462753D01*
X156038050Y-91462753D01*
X156049878Y-91438028D01*
X156050700Y-91435035D01*
X156053051Y-91431374D01*
X156087794Y-91379379D01*
X156148137Y-91233697D01*
X156178900Y-91079042D01*
X156178900Y-90921358D01*
X156178900Y-90921355D01*
X156178899Y-90921353D01*
X156173521Y-90894315D01*
X156148137Y-90766703D01*
X156137532Y-90741100D01*
X156087797Y-90621027D01*
X156087790Y-90621014D01*
X156000189Y-90489911D01*
X156000186Y-90489907D01*
X155888692Y-90378413D01*
X155888688Y-90378410D01*
X155757585Y-90290809D01*
X155757572Y-90290802D01*
X155611901Y-90230464D01*
X155611889Y-90230461D01*
X155457245Y-90199700D01*
X155457242Y-90199700D01*
X155299558Y-90199700D01*
X155299555Y-90199700D01*
X155144910Y-90230461D01*
X155144898Y-90230464D01*
X154999227Y-90290802D01*
X154999214Y-90290809D01*
X154868111Y-90378410D01*
X154868107Y-90378413D01*
X154796659Y-90449862D01*
X154735336Y-90483347D01*
X154665644Y-90478363D01*
X154621297Y-90449862D01*
X153626372Y-89454937D01*
X153617121Y-89445686D01*
X153617120Y-89445684D01*
X153505316Y-89333880D01*
X153470205Y-89313609D01*
X153460422Y-89304755D01*
X153448785Y-89285760D01*
X153433410Y-89269635D01*
X153430887Y-89256543D01*
X153423923Y-89245176D01*
X153424403Y-89222901D01*
X153420188Y-89201028D01*
X153425142Y-89188652D01*
X153425430Y-89175323D01*
X153437876Y-89156844D01*
X153446156Y-89136163D01*
X153457015Y-89128430D01*
X153464463Y-89117373D01*
X153484923Y-89108557D01*
X153503070Y-89095635D01*
X153519425Y-89091200D01*
X153547897Y-89085537D01*
X153693579Y-89025194D01*
X153824689Y-88937589D01*
X153936189Y-88826089D01*
X154023794Y-88694979D01*
X154084137Y-88549297D01*
X154114900Y-88394642D01*
X154114900Y-88236958D01*
X154114900Y-88236955D01*
X154114899Y-88236953D01*
X154110242Y-88213540D01*
X154084137Y-88082303D01*
X154082923Y-88079372D01*
X154023797Y-87936627D01*
X154023790Y-87936614D01*
X153936189Y-87805511D01*
X153936186Y-87805507D01*
X153824692Y-87694013D01*
X153824688Y-87694010D01*
X153693585Y-87606409D01*
X153693572Y-87606402D01*
X153547901Y-87546064D01*
X153547889Y-87546061D01*
X153393245Y-87515300D01*
X153393242Y-87515300D01*
X153235558Y-87515300D01*
X153235555Y-87515300D01*
X153080910Y-87546061D01*
X153080898Y-87546064D01*
X152935227Y-87606402D01*
X152935214Y-87606409D01*
X152804111Y-87694010D01*
X152804107Y-87694013D01*
X152692613Y-87805507D01*
X152692610Y-87805511D01*
X152605009Y-87936614D01*
X152605002Y-87936627D01*
X152544664Y-88082298D01*
X152544661Y-88082310D01*
X152513900Y-88236953D01*
X152513900Y-88394646D01*
X152544661Y-88549289D01*
X152544664Y-88549301D01*
X152605002Y-88694972D01*
X152605009Y-88694985D01*
X152692610Y-88826088D01*
X152692613Y-88826092D01*
X152804107Y-88937586D01*
X152804111Y-88937589D01*
X152877757Y-88986798D01*
X152922562Y-89040410D01*
X152931269Y-89109735D01*
X152901115Y-89172762D01*
X152841672Y-89209482D01*
X152808866Y-89213900D01*
X150985944Y-89213900D01*
X150833216Y-89254823D01*
X150833213Y-89254824D01*
X150783818Y-89283343D01*
X150783817Y-89283343D01*
X150696291Y-89333875D01*
X150696283Y-89333881D01*
X149961657Y-90068507D01*
X149961646Y-90068518D01*
X149959686Y-90070479D01*
X149959684Y-90070481D01*
X149847880Y-90182285D01*
X149837826Y-90199700D01*
X149831079Y-90211385D01*
X149831077Y-90211388D01*
X149768820Y-90319220D01*
X149767733Y-90321846D01*
X149740861Y-90362060D01*
X149706608Y-90396314D01*
X149619009Y-90527414D01*
X149619002Y-90527427D01*
X149558664Y-90673098D01*
X149558661Y-90673110D01*
X149527900Y-90827753D01*
X149527900Y-90985446D01*
X149558661Y-91140089D01*
X149558664Y-91140101D01*
X149619002Y-91285772D01*
X149619009Y-91285785D01*
X149706610Y-91416888D01*
X149706613Y-91416892D01*
X149818107Y-91528386D01*
X149818111Y-91528389D01*
X149949214Y-91615990D01*
X149949227Y-91615997D01*
X150064418Y-91663710D01*
X150094903Y-91676337D01*
X150249553Y-91707099D01*
X150249556Y-91707100D01*
X150323902Y-91707100D01*
X150390941Y-91726785D01*
X150436696Y-91779589D01*
X150446640Y-91848747D01*
X150417615Y-91912303D01*
X150411583Y-91918781D01*
X147280828Y-95049536D01*
X147219505Y-95083021D01*
X147149813Y-95078037D01*
X147093880Y-95036165D01*
X147078586Y-95009307D01*
X147072322Y-94994185D01*
X147055405Y-94953342D01*
X147027885Y-94886900D01*
X147027878Y-94886888D01*
X146939886Y-94755199D01*
X146919008Y-94688521D01*
X146918988Y-94686308D01*
X146918988Y-90015574D01*
X146918987Y-90015570D01*
X146917211Y-90008943D01*
X146910579Y-89984189D01*
X146878065Y-89862846D01*
X146849127Y-89812726D01*
X146799008Y-89725915D01*
X146687204Y-89614111D01*
X146687203Y-89614110D01*
X146682873Y-89609780D01*
X146682862Y-89609770D01*
X143803203Y-86730111D01*
X143769718Y-86668788D01*
X143774702Y-86599096D01*
X143787782Y-86573539D01*
X143863790Y-86459785D01*
X143863790Y-86459784D01*
X143863794Y-86459779D01*
X143924137Y-86314097D01*
X143940093Y-86233880D01*
X143972477Y-86171970D01*
X144033193Y-86137396D01*
X144102962Y-86141135D01*
X144130601Y-86154970D01*
X144255949Y-86238725D01*
X144255962Y-86238732D01*
X144399663Y-86298254D01*
X144401638Y-86299072D01*
X144531966Y-86324996D01*
X144556288Y-86329834D01*
X144556291Y-86329835D01*
X144556293Y-86329835D01*
X144713979Y-86329835D01*
X144773485Y-86317997D01*
X144868632Y-86299072D01*
X144868634Y-86299070D01*
X144872741Y-86298254D01*
X144942332Y-86304481D01*
X144997510Y-86347343D01*
X145020336Y-86407717D01*
X145020900Y-86413447D01*
X145051661Y-86568089D01*
X145051664Y-86568101D01*
X145112002Y-86713772D01*
X145112009Y-86713785D01*
X145199610Y-86844888D01*
X145199613Y-86844892D01*
X145311107Y-86956386D01*
X145311111Y-86956389D01*
X145442214Y-87043990D01*
X145442227Y-87043997D01*
X145525316Y-87078413D01*
X145587903Y-87104337D01*
X145709222Y-87128469D01*
X145742553Y-87135099D01*
X145742556Y-87135100D01*
X145742558Y-87135100D01*
X145900244Y-87135100D01*
X145900245Y-87135099D01*
X146054897Y-87104337D01*
X146200579Y-87043994D01*
X146331689Y-86956389D01*
X146443189Y-86844889D01*
X146530794Y-86713779D01*
X146591137Y-86568097D01*
X146621900Y-86413442D01*
X146621900Y-86392035D01*
X146641585Y-86324996D01*
X146694389Y-86279241D01*
X146698448Y-86277474D01*
X146810173Y-86231197D01*
X146810176Y-86231195D01*
X146810179Y-86231194D01*
X146941289Y-86143589D01*
X147052789Y-86032089D01*
X147140394Y-85900979D01*
X147150908Y-85875597D01*
X147182820Y-85798553D01*
X147200737Y-85755297D01*
X147231500Y-85600642D01*
X147231500Y-85442958D01*
X147231500Y-85442955D01*
X147231499Y-85442953D01*
X147223368Y-85402075D01*
X147200737Y-85288303D01*
X147191059Y-85264937D01*
X147140397Y-85142627D01*
X147140390Y-85142614D01*
X147052789Y-85011511D01*
X147052786Y-85011507D01*
X146941292Y-84900013D01*
X146941288Y-84900010D01*
X146810185Y-84812409D01*
X146810172Y-84812402D01*
X146664501Y-84752064D01*
X146664489Y-84752061D01*
X146509845Y-84721300D01*
X146509842Y-84721300D01*
X146352158Y-84721300D01*
X146352155Y-84721300D01*
X146197510Y-84752061D01*
X146197498Y-84752064D01*
X146051827Y-84812402D01*
X146051814Y-84812409D01*
X145920707Y-84900013D01*
X145919880Y-84900692D01*
X145919362Y-84900911D01*
X145915646Y-84903395D01*
X145915174Y-84902690D01*
X145855569Y-84928002D01*
X145841220Y-84928835D01*
X145214901Y-84928835D01*
X145147862Y-84909150D01*
X145146010Y-84907937D01*
X145014320Y-84819944D01*
X145014307Y-84819937D01*
X144868636Y-84759599D01*
X144868624Y-84759596D01*
X144713980Y-84728835D01*
X144713977Y-84728835D01*
X144556293Y-84728835D01*
X144556290Y-84728835D01*
X144401645Y-84759596D01*
X144401633Y-84759599D01*
X144255962Y-84819937D01*
X144255949Y-84819944D01*
X144124846Y-84907545D01*
X144124842Y-84907548D01*
X144013348Y-85019042D01*
X144013345Y-85019046D01*
X143925744Y-85150149D01*
X143925737Y-85150162D01*
X143865399Y-85295833D01*
X143865396Y-85295843D01*
X143849441Y-85376054D01*
X143835829Y-85402075D01*
X143824710Y-85429251D01*
X143819822Y-85432675D01*
X143817056Y-85437965D01*
X143791536Y-85452496D01*
X143767490Y-85469347D01*
X143761526Y-85469585D01*
X143756340Y-85472539D01*
X143727017Y-85470966D01*
X143697676Y-85472141D01*
X143690626Y-85469015D01*
X143686570Y-85468798D01*
X143665011Y-85458775D01*
X143661897Y-85456945D01*
X143533579Y-85371206D01*
X143473855Y-85346468D01*
X143466433Y-85342107D01*
X143448167Y-85322657D01*
X143427389Y-85305913D01*
X143424615Y-85297579D01*
X143418602Y-85291176D01*
X143413751Y-85264937D01*
X143405325Y-85239619D01*
X143407497Y-85231107D01*
X143405901Y-85222470D01*
X143416005Y-85197774D01*
X143422605Y-85171920D01*
X143431013Y-85161094D01*
X143432360Y-85157805D01*
X143435014Y-85155945D01*
X143441561Y-85147516D01*
X143496789Y-85092289D01*
X143584394Y-84961179D01*
X143644737Y-84815497D01*
X143675500Y-84660842D01*
X143675500Y-84503158D01*
X143675500Y-84503155D01*
X143675499Y-84503153D01*
X143666822Y-84459533D01*
X143644737Y-84348503D01*
X143644735Y-84348498D01*
X143584397Y-84202827D01*
X143584390Y-84202814D01*
X143496789Y-84071711D01*
X143496786Y-84071707D01*
X143385292Y-83960213D01*
X143385288Y-83960210D01*
X143254185Y-83872609D01*
X143254172Y-83872602D01*
X143108501Y-83812264D01*
X143108489Y-83812261D01*
X142953845Y-83781500D01*
X142953842Y-83781500D01*
X142796158Y-83781500D01*
X142796155Y-83781500D01*
X142641510Y-83812261D01*
X142641498Y-83812264D01*
X142495827Y-83872602D01*
X142495814Y-83872609D01*
X142364711Y-83960210D01*
X142364707Y-83960213D01*
X142253213Y-84071707D01*
X142253210Y-84071711D01*
X142165609Y-84202814D01*
X142165602Y-84202827D01*
X142105264Y-84348498D01*
X142105261Y-84348510D01*
X142074500Y-84503153D01*
X142074500Y-84660846D01*
X142082310Y-84700109D01*
X142076083Y-84769700D01*
X142033220Y-84824878D01*
X141967330Y-84848122D01*
X141960693Y-84848300D01*
X141907155Y-84848300D01*
X141752510Y-84879061D01*
X141752498Y-84879064D01*
X141606827Y-84939402D01*
X141606814Y-84939409D01*
X141475711Y-85027010D01*
X141475707Y-85027013D01*
X141364213Y-85138507D01*
X141364210Y-85138511D01*
X141276609Y-85269614D01*
X141276602Y-85269627D01*
X141216264Y-85415298D01*
X141216261Y-85415310D01*
X141185500Y-85569953D01*
X141185500Y-85727646D01*
X141216261Y-85882289D01*
X141216264Y-85882301D01*
X141276602Y-86027972D01*
X141276609Y-86027984D01*
X141278883Y-86031388D01*
X141299758Y-86098067D01*
X141281271Y-86165446D01*
X141229290Y-86212134D01*
X141223232Y-86214836D01*
X141175021Y-86234806D01*
X141175014Y-86234809D01*
X141043911Y-86322410D01*
X141043907Y-86322413D01*
X140932413Y-86433907D01*
X140932410Y-86433911D01*
X140844809Y-86565014D01*
X140844802Y-86565027D01*
X140784464Y-86710698D01*
X140784461Y-86710710D01*
X140753700Y-86865353D01*
X140753700Y-87023046D01*
X140784461Y-87177689D01*
X140784464Y-87177701D01*
X140844802Y-87323372D01*
X140844809Y-87323385D01*
X140932410Y-87454488D01*
X140932413Y-87454492D01*
X141043907Y-87565986D01*
X141043911Y-87565989D01*
X141175014Y-87653590D01*
X141175027Y-87653597D01*
X141320698Y-87713935D01*
X141320703Y-87713937D01*
X141475353Y-87744699D01*
X141475356Y-87744700D01*
X141475358Y-87744700D01*
X141633044Y-87744700D01*
X141633045Y-87744699D01*
X141787697Y-87713937D01*
X141911074Y-87662833D01*
X141933372Y-87653597D01*
X141933372Y-87653596D01*
X141933379Y-87653594D01*
X142064489Y-87565989D01*
X142175989Y-87454489D01*
X142263594Y-87323379D01*
X142319812Y-87187654D01*
X142363650Y-87133256D01*
X142429944Y-87111190D01*
X142497643Y-87128469D01*
X142522052Y-87147430D01*
X145681669Y-90307047D01*
X145715154Y-90368370D01*
X145717988Y-90394728D01*
X145717988Y-93347830D01*
X145698303Y-93414869D01*
X145645499Y-93460624D01*
X145593988Y-93471830D01*
X145435155Y-93471830D01*
X145280510Y-93502591D01*
X145280498Y-93502594D01*
X145134827Y-93562932D01*
X145134814Y-93562939D01*
X145003711Y-93650540D01*
X145003707Y-93650543D01*
X144892213Y-93762037D01*
X144892210Y-93762041D01*
X144804609Y-93893144D01*
X144804602Y-93893157D01*
X144744264Y-94038828D01*
X144744261Y-94038838D01*
X144713379Y-94194092D01*
X144680994Y-94256003D01*
X144620278Y-94290577D01*
X144591762Y-94293900D01*
X144396141Y-94293900D01*
X144369271Y-94301100D01*
X144312315Y-94316361D01*
X144242465Y-94314698D01*
X144184603Y-94275535D01*
X144157099Y-94211307D01*
X144168686Y-94142404D01*
X144211333Y-94093483D01*
X144248889Y-94068389D01*
X144360389Y-93956889D01*
X144447994Y-93825779D01*
X144508337Y-93680097D01*
X144539100Y-93525442D01*
X144539100Y-93367758D01*
X144539100Y-93367755D01*
X144539099Y-93367753D01*
X144533120Y-93337697D01*
X144508337Y-93213103D01*
X144495886Y-93183044D01*
X144447997Y-93067427D01*
X144447990Y-93067414D01*
X144360389Y-92936311D01*
X144360386Y-92936307D01*
X144248892Y-92824813D01*
X144248888Y-92824810D01*
X144117785Y-92737209D01*
X144117770Y-92737201D01*
X144056846Y-92711965D01*
X144002443Y-92668124D01*
X143980379Y-92601829D01*
X143980300Y-92597405D01*
X143980300Y-92504155D01*
X143980299Y-92504153D01*
X143963102Y-92417698D01*
X143949537Y-92349503D01*
X143936575Y-92318209D01*
X143889197Y-92203827D01*
X143889190Y-92203814D01*
X143801589Y-92072711D01*
X143801586Y-92072707D01*
X143690092Y-91961213D01*
X143690088Y-91961210D01*
X143558985Y-91873609D01*
X143558972Y-91873602D01*
X143413301Y-91813264D01*
X143413289Y-91813261D01*
X143258645Y-91782500D01*
X143258642Y-91782500D01*
X143100958Y-91782500D01*
X143100955Y-91782500D01*
X142946310Y-91813261D01*
X142946298Y-91813264D01*
X142800627Y-91873602D01*
X142800614Y-91873609D01*
X142669511Y-91961210D01*
X142669507Y-91961213D01*
X142558013Y-92072707D01*
X142558010Y-92072711D01*
X142470409Y-92203814D01*
X142470404Y-92203824D01*
X142426637Y-92309488D01*
X142382796Y-92363891D01*
X142316502Y-92385956D01*
X142248802Y-92368677D01*
X142224395Y-92349716D01*
X142148592Y-92273913D01*
X142148588Y-92273910D01*
X142017485Y-92186309D01*
X142017472Y-92186302D01*
X141871801Y-92125964D01*
X141871791Y-92125961D01*
X141716451Y-92095062D01*
X141654541Y-92062677D01*
X141652962Y-92061126D01*
X138592590Y-89000755D01*
X138592588Y-89000752D01*
X138473717Y-88881881D01*
X138473716Y-88881880D01*
X138377082Y-88826089D01*
X138377081Y-88826088D01*
X138336783Y-88802822D01*
X138280881Y-88787843D01*
X138184057Y-88761899D01*
X138184054Y-88761899D01*
X138171564Y-88761899D01*
X138104525Y-88742214D01*
X138102673Y-88741001D01*
X137970985Y-88653009D01*
X137970972Y-88653002D01*
X137825301Y-88592664D01*
X137825289Y-88592661D01*
X137670645Y-88561900D01*
X137670642Y-88561900D01*
X137512958Y-88561900D01*
X137512955Y-88561900D01*
X137358310Y-88592661D01*
X137358295Y-88592665D01*
X137355544Y-88593805D01*
X137353988Y-88593972D01*
X137352476Y-88594431D01*
X137352388Y-88594143D01*
X137286074Y-88601268D01*
X137223597Y-88569987D01*
X137187950Y-88509895D01*
X137186484Y-88455049D01*
X137198500Y-88394642D01*
X137198500Y-88236958D01*
X137198500Y-88236955D01*
X137198499Y-88236953D01*
X137193842Y-88213540D01*
X137167737Y-88082303D01*
X137166523Y-88079372D01*
X137107397Y-87936627D01*
X137107390Y-87936614D01*
X137045227Y-87843581D01*
X137024349Y-87776904D01*
X137042833Y-87709523D01*
X137094812Y-87662833D01*
X137100856Y-87660137D01*
X137158179Y-87636394D01*
X137289289Y-87548789D01*
X137400789Y-87437289D01*
X137488394Y-87306179D01*
X137529997Y-87205740D01*
X137548736Y-87160500D01*
X137548737Y-87160497D01*
X137579500Y-87005842D01*
X137579500Y-86848158D01*
X137579500Y-86848155D01*
X137579499Y-86848153D01*
X137572675Y-86813846D01*
X137548737Y-86693503D01*
X137525377Y-86637107D01*
X137488397Y-86547827D01*
X137488390Y-86547814D01*
X137400789Y-86416711D01*
X137400786Y-86416707D01*
X137289292Y-86305213D01*
X137289288Y-86305210D01*
X137158185Y-86217609D01*
X137158172Y-86217602D01*
X137012501Y-86157264D01*
X137012489Y-86157261D01*
X136857845Y-86126500D01*
X136857842Y-86126500D01*
X136700158Y-86126500D01*
X136700155Y-86126500D01*
X136545510Y-86157261D01*
X136545498Y-86157264D01*
X136399827Y-86217602D01*
X136399814Y-86217609D01*
X136268711Y-86305210D01*
X136268707Y-86305213D01*
X136157213Y-86416707D01*
X136157210Y-86416711D01*
X136069609Y-86547814D01*
X136066736Y-86553191D01*
X136065198Y-86552369D01*
X136026547Y-86600327D01*
X135960251Y-86622388D01*
X135908380Y-86613028D01*
X135766836Y-86554399D01*
X135766824Y-86554396D01*
X135612180Y-86523635D01*
X135612177Y-86523635D01*
X135454493Y-86523635D01*
X135454490Y-86523635D01*
X135299845Y-86554396D01*
X135299833Y-86554399D01*
X135205403Y-86593513D01*
X135135933Y-86600982D01*
X135073454Y-86569706D01*
X135037803Y-86509617D01*
X135034007Y-86475234D01*
X135034317Y-86464898D01*
X135039500Y-86438842D01*
X135039500Y-86292098D01*
X135039556Y-86290231D01*
X135049849Y-86258704D01*
X135059185Y-86226910D01*
X135060641Y-86225647D01*
X135061241Y-86223812D01*
X135086958Y-86202844D01*
X135111989Y-86181155D01*
X135113897Y-86180880D01*
X135115393Y-86179661D01*
X135148343Y-86175927D01*
X135181147Y-86171211D01*
X135184661Y-86171812D01*
X135184819Y-86171795D01*
X135184958Y-86171863D01*
X135187683Y-86172330D01*
X135219756Y-86178710D01*
X135303155Y-86195300D01*
X135303158Y-86195300D01*
X135460844Y-86195300D01*
X135460845Y-86195299D01*
X135615497Y-86164537D01*
X135744987Y-86110901D01*
X135761172Y-86104197D01*
X135761172Y-86104196D01*
X135761179Y-86104194D01*
X135892289Y-86016589D01*
X136003789Y-85905089D01*
X136074974Y-85798553D01*
X138975700Y-85798553D01*
X138975700Y-85956246D01*
X139006461Y-86110889D01*
X139006464Y-86110901D01*
X139066802Y-86256572D01*
X139066809Y-86256585D01*
X139154410Y-86387688D01*
X139154413Y-86387692D01*
X139265907Y-86499186D01*
X139265911Y-86499189D01*
X139397014Y-86586790D01*
X139397027Y-86586797D01*
X139482953Y-86622388D01*
X139542703Y-86647137D01*
X139697353Y-86677899D01*
X139697356Y-86677900D01*
X139697358Y-86677900D01*
X139855044Y-86677900D01*
X139855045Y-86677899D01*
X140009697Y-86647137D01*
X140139187Y-86593501D01*
X140155372Y-86586797D01*
X140155372Y-86586796D01*
X140155379Y-86586794D01*
X140286489Y-86499189D01*
X140397989Y-86387689D01*
X140485594Y-86256579D01*
X140496108Y-86231197D01*
X140523719Y-86164537D01*
X140545937Y-86110897D01*
X140576700Y-85956242D01*
X140576700Y-85798558D01*
X140576700Y-85798555D01*
X140576699Y-85798553D01*
X140571811Y-85773979D01*
X140545937Y-85643903D01*
X140545935Y-85643898D01*
X140485597Y-85498227D01*
X140485590Y-85498214D01*
X140397989Y-85367111D01*
X140397986Y-85367107D01*
X140286492Y-85255613D01*
X140286488Y-85255610D01*
X140155385Y-85168009D01*
X140155372Y-85168002D01*
X140009701Y-85107664D01*
X140009689Y-85107661D01*
X139855045Y-85076900D01*
X139855042Y-85076900D01*
X139697358Y-85076900D01*
X139697355Y-85076900D01*
X139542710Y-85107661D01*
X139542698Y-85107664D01*
X139397027Y-85168002D01*
X139397014Y-85168009D01*
X139265911Y-85255610D01*
X139265907Y-85255613D01*
X139154413Y-85367107D01*
X139154410Y-85367111D01*
X139066809Y-85498214D01*
X139066802Y-85498227D01*
X139006464Y-85643898D01*
X139006461Y-85643910D01*
X138975700Y-85798553D01*
X136074974Y-85798553D01*
X136091394Y-85773979D01*
X136099131Y-85755301D01*
X136103392Y-85745014D01*
X136151735Y-85628301D01*
X136151737Y-85628297D01*
X136182500Y-85473642D01*
X136182500Y-85315958D01*
X136182500Y-85315955D01*
X136182499Y-85315953D01*
X136178497Y-85295833D01*
X136151737Y-85161303D01*
X136151735Y-85161298D01*
X136091397Y-85015627D01*
X136091390Y-85015614D01*
X136003789Y-84884511D01*
X136003786Y-84884507D01*
X135892292Y-84773013D01*
X135892288Y-84773010D01*
X135761185Y-84685409D01*
X135761172Y-84685402D01*
X135615501Y-84625064D01*
X135615489Y-84625061D01*
X135460845Y-84594300D01*
X135460842Y-84594300D01*
X135303158Y-84594300D01*
X135303155Y-84594300D01*
X135148510Y-84625061D01*
X135148498Y-84625064D01*
X135002827Y-84685402D01*
X135002814Y-84685409D01*
X134871711Y-84773010D01*
X134871707Y-84773013D01*
X134760213Y-84884507D01*
X134760210Y-84884511D01*
X134672609Y-85015614D01*
X134672602Y-85015627D01*
X134612264Y-85161298D01*
X134612261Y-85161310D01*
X134581500Y-85315953D01*
X134581500Y-85460850D01*
X134561815Y-85527889D01*
X134509011Y-85573644D01*
X134439853Y-85583588D01*
X134433309Y-85582467D01*
X134317846Y-85559500D01*
X134317842Y-85559500D01*
X134160158Y-85559500D01*
X134160155Y-85559500D01*
X134005510Y-85590261D01*
X134005498Y-85590264D01*
X133859827Y-85650602D01*
X133859814Y-85650609D01*
X133728711Y-85738210D01*
X133728707Y-85738213D01*
X133617213Y-85849707D01*
X133617210Y-85849711D01*
X133529609Y-85980814D01*
X133529602Y-85980827D01*
X133469264Y-86126498D01*
X133469261Y-86126510D01*
X133438500Y-86281153D01*
X133438500Y-86438846D01*
X133469261Y-86593489D01*
X133469264Y-86593501D01*
X133529602Y-86739172D01*
X133529609Y-86739185D01*
X133617210Y-86870288D01*
X133617213Y-86870292D01*
X133728707Y-86981786D01*
X133728711Y-86981789D01*
X133859814Y-87069390D01*
X133859827Y-87069397D01*
X133960726Y-87111190D01*
X134005503Y-87129737D01*
X134160103Y-87160489D01*
X134160153Y-87160499D01*
X134160156Y-87160500D01*
X134160158Y-87160500D01*
X134317844Y-87160500D01*
X134317845Y-87160499D01*
X134472497Y-87129737D01*
X134566932Y-87090620D01*
X134636399Y-87083152D01*
X134698879Y-87114427D01*
X134734531Y-87174516D01*
X134736001Y-87229368D01*
X134732835Y-87245285D01*
X134732835Y-87402981D01*
X134763596Y-87557624D01*
X134763599Y-87557636D01*
X134823937Y-87703307D01*
X134823944Y-87703320D01*
X134911545Y-87834423D01*
X134911548Y-87834427D01*
X134962428Y-87885307D01*
X134995913Y-87946630D01*
X134998530Y-87980329D01*
X134997784Y-87992907D01*
X134984699Y-88041743D01*
X134984699Y-88199857D01*
X134984700Y-88199860D01*
X134984700Y-88213540D01*
X134984700Y-89989652D01*
X134965015Y-90056691D01*
X134912211Y-90102446D01*
X134884893Y-90111269D01*
X134843707Y-90119461D01*
X134843698Y-90119464D01*
X134698027Y-90179802D01*
X134698014Y-90179809D01*
X134566911Y-90267410D01*
X134566907Y-90267413D01*
X134455413Y-90378907D01*
X134455410Y-90378911D01*
X134367809Y-90510014D01*
X134367802Y-90510027D01*
X134307464Y-90655698D01*
X134307461Y-90655710D01*
X134276700Y-90810353D01*
X134276700Y-90968046D01*
X134307461Y-91122689D01*
X134307464Y-91122701D01*
X134367802Y-91268372D01*
X134367809Y-91268385D01*
X134455410Y-91399488D01*
X134455413Y-91399492D01*
X134566907Y-91510986D01*
X134566911Y-91510989D01*
X134698014Y-91598590D01*
X134698021Y-91598594D01*
X134781154Y-91633028D01*
X134835555Y-91676866D01*
X134857621Y-91743160D01*
X134857700Y-91747588D01*
X134857700Y-92288915D01*
X134838015Y-92355954D01*
X134785211Y-92401709D01*
X134757891Y-92410532D01*
X134721875Y-92417696D01*
X134721863Y-92417699D01*
X134576192Y-92478037D01*
X134576174Y-92478047D01*
X134463272Y-92553486D01*
X134396595Y-92574364D01*
X134329215Y-92555879D01*
X134306701Y-92538065D01*
X134201317Y-92432681D01*
X134201316Y-92432680D01*
X134108995Y-92379379D01*
X134064385Y-92353623D01*
X133911657Y-92312699D01*
X133753543Y-92312699D01*
X133745947Y-92312699D01*
X133745931Y-92312700D01*
X130221366Y-92312700D01*
X130154327Y-92293015D01*
X130152475Y-92291802D01*
X130020785Y-92203809D01*
X130020772Y-92203802D01*
X129875101Y-92143464D01*
X129875089Y-92143461D01*
X129720445Y-92112700D01*
X129720442Y-92112700D01*
X129562758Y-92112700D01*
X129562755Y-92112700D01*
X129408110Y-92143461D01*
X129408098Y-92143464D01*
X129372152Y-92158354D01*
X129302683Y-92165823D01*
X129240204Y-92134548D01*
X129204552Y-92074459D01*
X129200700Y-92043793D01*
X129200700Y-91638765D01*
X129220385Y-91571726D01*
X129221598Y-91569874D01*
X129249318Y-91528389D01*
X129309594Y-91438179D01*
X129369937Y-91292497D01*
X129400700Y-91137842D01*
X129400700Y-90980158D01*
X129400700Y-90980155D01*
X129400699Y-90980153D01*
X129389003Y-90921353D01*
X129369937Y-90825503D01*
X129347718Y-90771861D01*
X129309597Y-90679827D01*
X129309590Y-90679814D01*
X129221989Y-90548711D01*
X129221986Y-90548707D01*
X129110492Y-90437213D01*
X129110488Y-90437210D01*
X128979385Y-90349609D01*
X128979372Y-90349602D01*
X128833701Y-90289264D01*
X128833689Y-90289261D01*
X128679045Y-90258500D01*
X128679042Y-90258500D01*
X128521358Y-90258500D01*
X128521355Y-90258500D01*
X128366710Y-90289261D01*
X128366698Y-90289264D01*
X128221027Y-90349602D01*
X128221014Y-90349609D01*
X128089911Y-90437210D01*
X128089907Y-90437213D01*
X127978413Y-90548707D01*
X127978410Y-90548711D01*
X127890809Y-90679814D01*
X127890802Y-90679827D01*
X127830464Y-90825498D01*
X127830461Y-90825510D01*
X127799700Y-90980153D01*
X127799700Y-91137846D01*
X127830461Y-91292489D01*
X127830464Y-91292501D01*
X127890802Y-91438172D01*
X127890809Y-91438185D01*
X127978802Y-91569874D01*
X127999680Y-91636551D01*
X127999700Y-91638765D01*
X127999700Y-93621539D01*
X127999699Y-93621543D01*
X127999699Y-93702410D01*
X127999699Y-93766635D01*
X127980014Y-93833674D01*
X127927210Y-93879429D01*
X127869152Y-93887776D01*
X127858052Y-93889372D01*
X127858051Y-93889371D01*
X127858051Y-93889372D01*
X127858049Y-93889371D01*
X127828247Y-93881195D01*
X127741501Y-93845264D01*
X127741489Y-93845261D01*
X127586845Y-93814500D01*
X127586842Y-93814500D01*
X127429158Y-93814500D01*
X127429155Y-93814500D01*
X127274510Y-93845261D01*
X127274498Y-93845264D01*
X127128827Y-93905602D01*
X127128814Y-93905609D01*
X126997711Y-93993210D01*
X126997707Y-93993213D01*
X126886213Y-94104707D01*
X126886210Y-94104711D01*
X126798609Y-94235814D01*
X126798602Y-94235827D01*
X126738264Y-94381498D01*
X126738261Y-94381510D01*
X126707500Y-94536153D01*
X120159900Y-94536153D01*
X120159900Y-91617573D01*
X122239520Y-91617573D01*
X122239520Y-91775266D01*
X122270281Y-91929909D01*
X122270284Y-91929921D01*
X122330622Y-92075592D01*
X122330629Y-92075605D01*
X122418230Y-92206708D01*
X122418233Y-92206712D01*
X122529727Y-92318206D01*
X122529731Y-92318209D01*
X122660834Y-92405810D01*
X122660847Y-92405817D01*
X122806518Y-92466155D01*
X122806523Y-92466157D01*
X122961173Y-92496919D01*
X122961176Y-92496920D01*
X122961178Y-92496920D01*
X123118864Y-92496920D01*
X123118865Y-92496919D01*
X123273517Y-92466157D01*
X123419199Y-92405814D01*
X123550309Y-92318209D01*
X123661809Y-92206709D01*
X123749414Y-92075599D01*
X123809757Y-91929917D01*
X123831948Y-91818358D01*
X123831949Y-91818353D01*
X124929500Y-91818353D01*
X124929500Y-91976046D01*
X124960261Y-92130689D01*
X124960264Y-92130701D01*
X125020602Y-92276372D01*
X125020609Y-92276385D01*
X125108210Y-92407488D01*
X125108213Y-92407492D01*
X125219707Y-92518986D01*
X125219711Y-92518989D01*
X125350814Y-92606590D01*
X125350827Y-92606597D01*
X125484202Y-92661842D01*
X125496503Y-92666937D01*
X125651153Y-92697699D01*
X125651156Y-92697700D01*
X125651158Y-92697700D01*
X125808844Y-92697700D01*
X125808845Y-92697699D01*
X125963497Y-92666937D01*
X126109179Y-92606594D01*
X126240289Y-92518989D01*
X126351789Y-92407489D01*
X126439394Y-92276379D01*
X126440416Y-92273913D01*
X126485187Y-92165823D01*
X126499737Y-92130697D01*
X126530500Y-91976042D01*
X126530500Y-91818358D01*
X126530500Y-91818355D01*
X126530499Y-91818353D01*
X126521928Y-91775262D01*
X126499737Y-91663703D01*
X126497763Y-91658937D01*
X126439397Y-91518027D01*
X126439390Y-91518014D01*
X126351789Y-91386911D01*
X126351786Y-91386907D01*
X126240292Y-91275413D01*
X126240288Y-91275410D01*
X126109185Y-91187809D01*
X126109172Y-91187802D01*
X125963501Y-91127464D01*
X125963489Y-91127461D01*
X125808845Y-91096700D01*
X125808842Y-91096700D01*
X125651158Y-91096700D01*
X125651155Y-91096700D01*
X125496510Y-91127461D01*
X125496498Y-91127464D01*
X125350827Y-91187802D01*
X125350814Y-91187809D01*
X125219711Y-91275410D01*
X125219707Y-91275413D01*
X125108213Y-91386907D01*
X125108210Y-91386911D01*
X125020609Y-91518014D01*
X125020602Y-91518027D01*
X124960264Y-91663698D01*
X124960261Y-91663710D01*
X124929500Y-91818353D01*
X123831949Y-91818353D01*
X123837972Y-91788075D01*
X123840519Y-91775266D01*
X123840520Y-91775264D01*
X123840520Y-91617575D01*
X123840519Y-91617573D01*
X123830875Y-91569092D01*
X123809757Y-91462923D01*
X123796662Y-91431308D01*
X123749417Y-91317247D01*
X123749410Y-91317234D01*
X123661809Y-91186131D01*
X123661806Y-91186127D01*
X123550312Y-91074633D01*
X123550308Y-91074630D01*
X123419205Y-90987029D01*
X123419192Y-90987022D01*
X123273521Y-90926684D01*
X123273509Y-90926681D01*
X123118865Y-90895920D01*
X123118862Y-90895920D01*
X122961178Y-90895920D01*
X122961175Y-90895920D01*
X122806530Y-90926681D01*
X122806518Y-90926684D01*
X122660847Y-90987022D01*
X122660834Y-90987029D01*
X122529731Y-91074630D01*
X122529727Y-91074633D01*
X122418233Y-91186127D01*
X122418230Y-91186131D01*
X122330629Y-91317234D01*
X122330622Y-91317247D01*
X122270284Y-91462918D01*
X122270281Y-91462930D01*
X122239520Y-91617573D01*
X120159900Y-91617573D01*
X120159900Y-87068553D01*
X120713100Y-87068553D01*
X120713100Y-87226246D01*
X120743861Y-87380889D01*
X120743864Y-87380901D01*
X120804202Y-87526572D01*
X120804209Y-87526585D01*
X120891810Y-87657688D01*
X120891813Y-87657692D01*
X121003307Y-87769186D01*
X121003311Y-87769189D01*
X121134414Y-87856790D01*
X121134427Y-87856797D01*
X121280098Y-87917135D01*
X121280103Y-87917137D01*
X121428373Y-87946630D01*
X121434753Y-87947899D01*
X121434756Y-87947900D01*
X121434758Y-87947900D01*
X121592444Y-87947900D01*
X121592445Y-87947899D01*
X121747097Y-87917137D01*
X121892779Y-87856794D01*
X122023889Y-87769189D01*
X122135389Y-87657689D01*
X122222994Y-87526579D01*
X122283337Y-87380897D01*
X122314100Y-87226242D01*
X122314100Y-87068558D01*
X122314100Y-87068555D01*
X122314099Y-87068553D01*
X125213100Y-87068553D01*
X125213100Y-87226246D01*
X125243861Y-87380889D01*
X125243864Y-87380901D01*
X125304202Y-87526572D01*
X125304209Y-87526585D01*
X125391810Y-87657688D01*
X125391813Y-87657692D01*
X125503307Y-87769186D01*
X125503311Y-87769189D01*
X125634414Y-87856790D01*
X125634427Y-87856797D01*
X125780098Y-87917135D01*
X125780103Y-87917137D01*
X125928373Y-87946630D01*
X125934753Y-87947899D01*
X125934756Y-87947900D01*
X125934758Y-87947900D01*
X126092444Y-87947900D01*
X126092445Y-87947899D01*
X126247097Y-87917137D01*
X126392779Y-87856794D01*
X126523889Y-87769189D01*
X126635389Y-87657689D01*
X126722994Y-87526579D01*
X126783337Y-87380897D01*
X126814100Y-87226242D01*
X126814100Y-87068558D01*
X126814100Y-87068555D01*
X126814099Y-87068553D01*
X126801625Y-87005842D01*
X126783337Y-86913903D01*
X126756105Y-86848158D01*
X126722997Y-86768227D01*
X126722990Y-86768214D01*
X126635389Y-86637111D01*
X126635386Y-86637107D01*
X126523892Y-86525613D01*
X126523888Y-86525610D01*
X126392785Y-86438009D01*
X126392772Y-86438002D01*
X126247101Y-86377664D01*
X126247089Y-86377661D01*
X126092445Y-86346900D01*
X126092442Y-86346900D01*
X125934758Y-86346900D01*
X125934755Y-86346900D01*
X125780110Y-86377661D01*
X125780098Y-86377664D01*
X125634427Y-86438002D01*
X125634414Y-86438009D01*
X125503311Y-86525610D01*
X125503307Y-86525613D01*
X125391813Y-86637107D01*
X125391810Y-86637111D01*
X125304209Y-86768214D01*
X125304202Y-86768227D01*
X125243864Y-86913898D01*
X125243861Y-86913910D01*
X125213100Y-87068553D01*
X122314099Y-87068553D01*
X122301625Y-87005842D01*
X122283337Y-86913903D01*
X122256105Y-86848158D01*
X122222997Y-86768227D01*
X122222990Y-86768214D01*
X122135389Y-86637111D01*
X122135386Y-86637107D01*
X122023892Y-86525613D01*
X122023888Y-86525610D01*
X121892785Y-86438009D01*
X121892772Y-86438002D01*
X121747101Y-86377664D01*
X121747089Y-86377661D01*
X121592445Y-86346900D01*
X121592442Y-86346900D01*
X121434758Y-86346900D01*
X121434755Y-86346900D01*
X121280110Y-86377661D01*
X121280098Y-86377664D01*
X121134427Y-86438002D01*
X121134414Y-86438009D01*
X121003311Y-86525610D01*
X121003307Y-86525613D01*
X120891813Y-86637107D01*
X120891810Y-86637111D01*
X120804209Y-86768214D01*
X120804202Y-86768227D01*
X120743864Y-86913898D01*
X120743861Y-86913910D01*
X120713100Y-87068553D01*
X120159900Y-87068553D01*
X120159900Y-83040567D01*
X122408900Y-83040567D01*
X122408900Y-83321430D01*
X122440342Y-83600493D01*
X122440345Y-83600511D01*
X122502839Y-83874316D01*
X122502843Y-83874328D01*
X122595600Y-84139410D01*
X122717453Y-84392441D01*
X122717455Y-84392444D01*
X122866877Y-84630247D01*
X122970031Y-84759598D01*
X123040768Y-84848300D01*
X123041984Y-84849824D01*
X123240575Y-85048415D01*
X123460152Y-85223522D01*
X123697955Y-85372944D01*
X123950992Y-85494800D01*
X124095556Y-85545385D01*
X124216070Y-85587555D01*
X124216082Y-85587559D01*
X124489891Y-85650054D01*
X124489897Y-85650054D01*
X124489905Y-85650056D01*
X124675947Y-85671017D01*
X124768969Y-85681498D01*
X124768972Y-85681499D01*
X124768975Y-85681499D01*
X125049828Y-85681499D01*
X125049829Y-85681498D01*
X125192455Y-85665428D01*
X125328894Y-85650056D01*
X125328899Y-85650055D01*
X125328909Y-85650054D01*
X125602718Y-85587559D01*
X125867808Y-85494800D01*
X126120845Y-85372944D01*
X126358648Y-85223522D01*
X126529398Y-85087353D01*
X130746100Y-85087353D01*
X130746100Y-85245046D01*
X130776861Y-85399689D01*
X130776864Y-85399701D01*
X130837202Y-85545372D01*
X130837209Y-85545385D01*
X130924810Y-85676488D01*
X130924813Y-85676492D01*
X131036307Y-85787986D01*
X131036311Y-85787989D01*
X131167414Y-85875590D01*
X131167427Y-85875597D01*
X131301488Y-85931126D01*
X131313103Y-85935937D01*
X131415203Y-85956246D01*
X131467753Y-85966699D01*
X131467756Y-85966700D01*
X131467758Y-85966700D01*
X131625444Y-85966700D01*
X131625445Y-85966699D01*
X131780097Y-85935937D01*
X131909587Y-85882301D01*
X131925772Y-85875597D01*
X131925772Y-85875596D01*
X131925779Y-85875594D01*
X132056889Y-85787989D01*
X132168389Y-85676489D01*
X132255994Y-85545379D01*
X132316337Y-85399697D01*
X132347100Y-85245042D01*
X132347100Y-85087358D01*
X132347100Y-85087355D01*
X132347099Y-85087353D01*
X132339354Y-85048415D01*
X132316337Y-84932703D01*
X132303905Y-84902690D01*
X132255997Y-84787027D01*
X132255990Y-84787014D01*
X132168389Y-84655911D01*
X132168386Y-84655907D01*
X132056892Y-84544413D01*
X132056888Y-84544410D01*
X131925785Y-84456809D01*
X131925772Y-84456802D01*
X131780101Y-84396464D01*
X131780089Y-84396461D01*
X131625445Y-84365700D01*
X131625442Y-84365700D01*
X131467758Y-84365700D01*
X131467755Y-84365700D01*
X131313110Y-84396461D01*
X131313098Y-84396464D01*
X131167427Y-84456802D01*
X131167414Y-84456809D01*
X131036311Y-84544410D01*
X131036307Y-84544413D01*
X130924813Y-84655907D01*
X130924810Y-84655911D01*
X130837209Y-84787014D01*
X130837202Y-84787027D01*
X130776864Y-84932698D01*
X130776861Y-84932710D01*
X130746100Y-85087353D01*
X126529398Y-85087353D01*
X126578225Y-85048415D01*
X126776816Y-84849824D01*
X126951923Y-84630247D01*
X127101345Y-84392444D01*
X127223201Y-84139407D01*
X127315960Y-83874317D01*
X127378455Y-83600508D01*
X127380430Y-83582985D01*
X127409899Y-83321430D01*
X127409900Y-83321426D01*
X127409900Y-83124953D01*
X147070300Y-83124953D01*
X147070300Y-83282646D01*
X147101061Y-83437289D01*
X147101064Y-83437301D01*
X147161402Y-83582972D01*
X147161409Y-83582985D01*
X147249010Y-83714088D01*
X147249013Y-83714092D01*
X147360507Y-83825586D01*
X147360511Y-83825589D01*
X147491614Y-83913190D01*
X147491627Y-83913197D01*
X147637298Y-83973535D01*
X147637303Y-83973537D01*
X147791953Y-84004299D01*
X147791956Y-84004300D01*
X147791958Y-84004300D01*
X147949644Y-84004300D01*
X147949645Y-84004299D01*
X148104297Y-83973537D01*
X148249979Y-83913194D01*
X148381089Y-83825589D01*
X148492589Y-83714089D01*
X148580194Y-83582979D01*
X148640537Y-83437297D01*
X148671300Y-83282642D01*
X148671300Y-83124958D01*
X148671300Y-83124955D01*
X148658635Y-83061287D01*
X148658635Y-83061286D01*
X148654514Y-83040567D01*
X152908900Y-83040567D01*
X152908900Y-83321430D01*
X152940342Y-83600493D01*
X152940345Y-83600511D01*
X153002839Y-83874316D01*
X153002843Y-83874328D01*
X153095600Y-84139410D01*
X153217453Y-84392441D01*
X153217455Y-84392444D01*
X153366877Y-84630247D01*
X153470031Y-84759598D01*
X153540768Y-84848300D01*
X153541984Y-84849824D01*
X153740575Y-85048415D01*
X153960152Y-85223522D01*
X154197955Y-85372944D01*
X154450992Y-85494800D01*
X154595556Y-85545385D01*
X154716070Y-85587555D01*
X154716082Y-85587559D01*
X154989891Y-85650054D01*
X154989897Y-85650054D01*
X154989905Y-85650056D01*
X155175947Y-85671017D01*
X155268969Y-85681498D01*
X155268972Y-85681499D01*
X155268975Y-85681499D01*
X155549828Y-85681499D01*
X155549829Y-85681498D01*
X155692455Y-85665428D01*
X155828894Y-85650056D01*
X155828899Y-85650055D01*
X155828909Y-85650054D01*
X156102718Y-85587559D01*
X156367808Y-85494800D01*
X156620845Y-85372944D01*
X156858648Y-85223522D01*
X157078225Y-85048415D01*
X157276816Y-84849824D01*
X157451923Y-84630247D01*
X157601345Y-84392444D01*
X157723201Y-84139407D01*
X157815960Y-83874317D01*
X157878455Y-83600508D01*
X157880430Y-83582985D01*
X157909899Y-83321430D01*
X157909900Y-83321426D01*
X157909900Y-83040571D01*
X157909899Y-83040567D01*
X157878457Y-82761504D01*
X157878454Y-82761486D01*
X157865218Y-82703497D01*
X157815960Y-82487681D01*
X157723201Y-82222591D01*
X157601345Y-81969554D01*
X157451923Y-81731751D01*
X157276816Y-81512174D01*
X157078225Y-81313583D01*
X156858648Y-81138476D01*
X156620845Y-80989054D01*
X156620842Y-80989052D01*
X156367811Y-80867199D01*
X156102729Y-80774442D01*
X156102717Y-80774438D01*
X155828912Y-80711944D01*
X155828894Y-80711941D01*
X155549831Y-80680499D01*
X155549825Y-80680499D01*
X155268975Y-80680499D01*
X155268968Y-80680499D01*
X154989905Y-80711941D01*
X154989887Y-80711944D01*
X154716082Y-80774438D01*
X154716070Y-80774442D01*
X154450988Y-80867199D01*
X154197957Y-80989052D01*
X153960153Y-81138475D01*
X153740575Y-81313582D01*
X153541983Y-81512174D01*
X153366876Y-81731752D01*
X153217453Y-81969556D01*
X153095600Y-82222587D01*
X153002843Y-82487669D01*
X153002839Y-82487681D01*
X152940345Y-82761486D01*
X152940342Y-82761504D01*
X152908900Y-83040567D01*
X148654514Y-83040567D01*
X148640538Y-82970310D01*
X148640537Y-82970303D01*
X148624257Y-82930999D01*
X148580197Y-82824627D01*
X148580190Y-82824614D01*
X148492589Y-82693511D01*
X148492586Y-82693507D01*
X148381092Y-82582013D01*
X148381088Y-82582010D01*
X148249985Y-82494409D01*
X148249972Y-82494402D01*
X148104301Y-82434064D01*
X148104289Y-82434061D01*
X147949645Y-82403300D01*
X147949642Y-82403300D01*
X147791958Y-82403300D01*
X147791955Y-82403300D01*
X147637310Y-82434061D01*
X147637298Y-82434064D01*
X147491627Y-82494402D01*
X147491614Y-82494409D01*
X147360511Y-82582010D01*
X147360507Y-82582013D01*
X147249013Y-82693507D01*
X147249010Y-82693511D01*
X147161409Y-82824614D01*
X147161402Y-82824627D01*
X147101064Y-82970298D01*
X147101061Y-82970310D01*
X147070300Y-83124953D01*
X127409900Y-83124953D01*
X127409900Y-83040571D01*
X127409899Y-83040567D01*
X127378457Y-82761504D01*
X127378454Y-82761486D01*
X127365218Y-82703497D01*
X127315960Y-82487681D01*
X127223201Y-82222591D01*
X127101345Y-81969554D01*
X126951923Y-81731751D01*
X126776816Y-81512174D01*
X126578225Y-81313583D01*
X126358648Y-81138476D01*
X126120845Y-80989054D01*
X126120842Y-80989052D01*
X125867811Y-80867199D01*
X125602729Y-80774442D01*
X125602717Y-80774438D01*
X125328912Y-80711944D01*
X125328894Y-80711941D01*
X125049831Y-80680499D01*
X125049825Y-80680499D01*
X124768975Y-80680499D01*
X124768968Y-80680499D01*
X124489905Y-80711941D01*
X124489887Y-80711944D01*
X124216082Y-80774438D01*
X124216070Y-80774442D01*
X123950988Y-80867199D01*
X123697957Y-80989052D01*
X123460153Y-81138475D01*
X123240575Y-81313582D01*
X123041983Y-81512174D01*
X122866876Y-81731752D01*
X122717453Y-81969556D01*
X122595600Y-82222587D01*
X122502843Y-82487669D01*
X122502839Y-82487681D01*
X122440345Y-82761486D01*
X122440342Y-82761504D01*
X122408900Y-83040567D01*
X120159900Y-83040567D01*
X120159900Y-82933705D01*
X120160018Y-82928296D01*
X120164544Y-82824627D01*
X120176787Y-82544224D01*
X120177725Y-82533496D01*
X120227551Y-82155032D01*
X120229424Y-82144402D01*
X120312048Y-81771714D01*
X120314846Y-81761276D01*
X120324155Y-81731752D01*
X120429629Y-81397228D01*
X120433317Y-81387096D01*
X120579403Y-81034412D01*
X120583961Y-81024638D01*
X120760222Y-80686045D01*
X120765617Y-80676700D01*
X120970725Y-80354744D01*
X120976918Y-80345901D01*
X121209296Y-80043060D01*
X121216234Y-80034791D01*
X121474126Y-79753352D01*
X121481752Y-79745726D01*
X121763191Y-79487834D01*
X121771460Y-79480896D01*
X122074309Y-79248511D01*
X122083158Y-79242317D01*
X122405102Y-79037215D01*
X122414423Y-79031833D01*
X122753038Y-78855561D01*
X122762812Y-78851003D01*
X123115495Y-78704917D01*
X123125627Y-78701229D01*
X123489694Y-78586440D01*
X123500108Y-78583649D01*
X123872804Y-78501025D01*
X123883424Y-78499152D01*
X124261894Y-78449326D01*
X124272625Y-78448386D01*
X124656727Y-78431616D01*
X124662120Y-78431499D01*
X124725291Y-78431499D01*
X128537147Y-78431499D01*
X128604186Y-78451184D01*
G37*
%TD.AperFunction*%
%TD*%
M02*
