%TF.GenerationSoftware,KiCad,Pcbnew,9.0.4*%
%TF.CreationDate,2025-08-18T21:08:18+08:00*%
%TF.ProjectId,tinybee-1.0,74696e79-6265-4652-9d31-2e302e6b6963,rev?*%
%TF.SameCoordinates,Original*%
%TF.FileFunction,Copper,L1,Top*%
%TF.FilePolarity,Positive*%
%FSLAX46Y46*%
G04 Gerber Fmt 4.6, Leading zero omitted, Abs format (unit mm)*
G04 Created by KiCad (PCBNEW 9.0.4) date 2025-08-18 21:08:18*
%MOMM*%
%LPD*%
G01*
G04 APERTURE LIST*
G04 Aperture macros list*
%AMRoundRect*
0 Rectangle with rounded corners*
0 $1 Rounding radius*
0 $2 $3 $4 $5 $6 $7 $8 $9 X,Y pos of 4 corners*
0 Add a 4 corners polygon primitive as box body*
4,1,4,$2,$3,$4,$5,$6,$7,$8,$9,$2,$3,0*
0 Add four circle primitives for the rounded corners*
1,1,$1+$1,$2,$3*
1,1,$1+$1,$4,$5*
1,1,$1+$1,$6,$7*
1,1,$1+$1,$8,$9*
0 Add four rect primitives between the rounded corners*
20,1,$1+$1,$2,$3,$4,$5,0*
20,1,$1+$1,$4,$5,$6,$7,0*
20,1,$1+$1,$6,$7,$8,$9,0*
20,1,$1+$1,$8,$9,$2,$3,0*%
G04 Aperture macros list end*
%TA.AperFunction,SMDPad,CuDef*%
%ADD10RoundRect,0.140000X-0.170000X0.140000X-0.170000X-0.140000X0.170000X-0.140000X0.170000X0.140000X0*%
%TD*%
%TA.AperFunction,SMDPad,CuDef*%
%ADD11RoundRect,0.135000X0.185000X-0.135000X0.185000X0.135000X-0.185000X0.135000X-0.185000X-0.135000X0*%
%TD*%
%TA.AperFunction,SMDPad,CuDef*%
%ADD12RoundRect,0.135000X-0.185000X0.135000X-0.185000X-0.135000X0.185000X-0.135000X0.185000X0.135000X0*%
%TD*%
%TA.AperFunction,SMDPad,CuDef*%
%ADD13RoundRect,0.135000X-0.135000X-0.185000X0.135000X-0.185000X0.135000X0.185000X-0.135000X0.185000X0*%
%TD*%
%TA.AperFunction,SMDPad,CuDef*%
%ADD14RoundRect,0.140000X0.140000X0.170000X-0.140000X0.170000X-0.140000X-0.170000X0.140000X-0.170000X0*%
%TD*%
%TA.AperFunction,SMDPad,CuDef*%
%ADD15RoundRect,0.250000X-1.000000X-0.650000X1.000000X-0.650000X1.000000X0.650000X-1.000000X0.650000X0*%
%TD*%
%TA.AperFunction,SMDPad,CuDef*%
%ADD16RoundRect,0.140000X0.170000X-0.140000X0.170000X0.140000X-0.170000X0.140000X-0.170000X-0.140000X0*%
%TD*%
%TA.AperFunction,SMDPad,CuDef*%
%ADD17RoundRect,0.140000X-0.140000X-0.170000X0.140000X-0.170000X0.140000X0.170000X-0.140000X0.170000X0*%
%TD*%
%TA.AperFunction,SMDPad,CuDef*%
%ADD18RoundRect,0.135000X0.135000X0.185000X-0.135000X0.185000X-0.135000X-0.185000X0.135000X-0.185000X0*%
%TD*%
%TA.AperFunction,SMDPad,CuDef*%
%ADD19RoundRect,0.162500X-0.650000X-0.162500X0.650000X-0.162500X0.650000X0.162500X-0.650000X0.162500X0*%
%TD*%
%TA.AperFunction,SMDPad,CuDef*%
%ADD20R,0.350000X0.500000*%
%TD*%
%TA.AperFunction,SMDPad,CuDef*%
%ADD21RoundRect,0.105000X0.395000X0.245000X-0.395000X0.245000X-0.395000X-0.245000X0.395000X-0.245000X0*%
%TD*%
%TA.AperFunction,SMDPad,CuDef*%
%ADD22RoundRect,0.087500X-0.225000X-0.087500X0.225000X-0.087500X0.225000X0.087500X-0.225000X0.087500X0*%
%TD*%
%TA.AperFunction,SMDPad,CuDef*%
%ADD23RoundRect,0.087500X-0.087500X-0.225000X0.087500X-0.225000X0.087500X0.225000X-0.087500X0.225000X0*%
%TD*%
%TA.AperFunction,SMDPad,CuDef*%
%ADD24RoundRect,0.150000X0.150000X0.625000X-0.150000X0.625000X-0.150000X-0.625000X0.150000X-0.625000X0*%
%TD*%
%TA.AperFunction,SMDPad,CuDef*%
%ADD25RoundRect,0.250000X0.350000X0.650000X-0.350000X0.650000X-0.350000X-0.650000X0.350000X-0.650000X0*%
%TD*%
%TA.AperFunction,SMDPad,CuDef*%
%ADD26RoundRect,0.150000X0.587500X0.150000X-0.587500X0.150000X-0.587500X-0.150000X0.587500X-0.150000X0*%
%TD*%
%TA.AperFunction,SMDPad,CuDef*%
%ADD27RoundRect,0.105000X-0.395000X-0.245000X0.395000X-0.245000X0.395000X0.245000X-0.395000X0.245000X0*%
%TD*%
%TA.AperFunction,SMDPad,CuDef*%
%ADD28RoundRect,0.225000X-0.250000X0.225000X-0.250000X-0.225000X0.250000X-0.225000X0.250000X0.225000X0*%
%TD*%
%TA.AperFunction,SMDPad,CuDef*%
%ADD29RoundRect,0.150000X-0.150000X-0.625000X0.150000X-0.625000X0.150000X0.625000X-0.150000X0.625000X0*%
%TD*%
%TA.AperFunction,SMDPad,CuDef*%
%ADD30RoundRect,0.250000X-0.350000X-0.650000X0.350000X-0.650000X0.350000X0.650000X-0.350000X0.650000X0*%
%TD*%
%TA.AperFunction,SMDPad,CuDef*%
%ADD31RoundRect,0.150000X0.500000X-0.150000X0.500000X0.150000X-0.500000X0.150000X-0.500000X-0.150000X0*%
%TD*%
%TA.AperFunction,SMDPad,CuDef*%
%ADD32RoundRect,0.075000X0.575000X-0.075000X0.575000X0.075000X-0.575000X0.075000X-0.575000X-0.075000X0*%
%TD*%
%TA.AperFunction,HeatsinkPad*%
%ADD33O,2.100000X1.000000*%
%TD*%
%TA.AperFunction,HeatsinkPad*%
%ADD34O,1.600000X1.000000*%
%TD*%
%TA.AperFunction,SMDPad,CuDef*%
%ADD35RoundRect,0.100000X-0.100000X0.637500X-0.100000X-0.637500X0.100000X-0.637500X0.100000X0.637500X0*%
%TD*%
%TA.AperFunction,HeatsinkPad*%
%ADD36R,6.700000X2.850000*%
%TD*%
%TA.AperFunction,SMDPad,CuDef*%
%ADD37RoundRect,0.250000X-0.350000X0.450000X-0.350000X-0.450000X0.350000X-0.450000X0.350000X0.450000X0*%
%TD*%
%TA.AperFunction,SMDPad,CuDef*%
%ADD38RoundRect,0.150000X0.625000X-0.150000X0.625000X0.150000X-0.625000X0.150000X-0.625000X-0.150000X0*%
%TD*%
%TA.AperFunction,SMDPad,CuDef*%
%ADD39RoundRect,0.250000X0.650000X-0.350000X0.650000X0.350000X-0.650000X0.350000X-0.650000X-0.350000X0*%
%TD*%
%TA.AperFunction,SMDPad,CuDef*%
%ADD40RoundRect,0.250000X0.350000X-0.450000X0.350000X0.450000X-0.350000X0.450000X-0.350000X-0.450000X0*%
%TD*%
%TA.AperFunction,SMDPad,CuDef*%
%ADD41RoundRect,0.075000X-0.700000X-0.075000X0.700000X-0.075000X0.700000X0.075000X-0.700000X0.075000X0*%
%TD*%
%TA.AperFunction,SMDPad,CuDef*%
%ADD42RoundRect,0.075000X-0.075000X-0.700000X0.075000X-0.700000X0.075000X0.700000X-0.075000X0.700000X0*%
%TD*%
%TA.AperFunction,ViaPad*%
%ADD43C,0.600000*%
%TD*%
%TA.AperFunction,Conductor*%
%ADD44C,0.200000*%
%TD*%
%TA.AperFunction,Conductor*%
%ADD45C,0.300000*%
%TD*%
%TA.AperFunction,Conductor*%
%ADD46C,0.400000*%
%TD*%
G04 APERTURE END LIST*
D10*
%TO.P,C24,1*%
%TO.N,Net-(U5-VIN)*%
X124364750Y-108402600D03*
%TO.P,C24,2*%
%TO.N,/CONNECTORS/CAM_ANALOG*%
X124364750Y-109362600D03*
%TD*%
D11*
%TO.P,R9,1*%
%TO.N,Net-(U4-~{HOLD}{slash}~{RESET}{slash}IO_{3})*%
X151053800Y-110798800D03*
%TO.P,R9,2*%
%TO.N,+3V3*%
X151053800Y-109778800D03*
%TD*%
D12*
%TO.P,R8,1*%
%TO.N,Net-(U4-~{WP}{slash}IO_{2})*%
X139090400Y-109853000D03*
%TO.P,R8,2*%
%TO.N,+3V3*%
X139090400Y-110873000D03*
%TD*%
D13*
%TO.P,R11,1*%
%TO.N,GND*%
X121509000Y-110540800D03*
%TO.P,R11,2*%
%TO.N,/CONNECTORS/CAM_ANALOG*%
X122529000Y-110540800D03*
%TD*%
D14*
%TO.P,C20,1*%
%TO.N,+5V*%
X127162500Y-108432600D03*
%TO.P,C20,2*%
%TO.N,GND*%
X126202500Y-108432600D03*
%TD*%
D12*
%TO.P,R1,1*%
%TO.N,/MCU/BOOT1*%
X143179800Y-104011000D03*
%TO.P,R1,2*%
%TO.N,GND*%
X143179800Y-105031000D03*
%TD*%
D11*
%TO.P,R22,1*%
%TO.N,/CONNECTORS/BEEPER*%
X135458200Y-84152200D03*
%TO.P,R22,2*%
%TO.N,Net-(Q1-B)*%
X135458200Y-83132200D03*
%TD*%
D15*
%TO.P,D1,1,K*%
%TO.N,+5V*%
X154629800Y-108399800D03*
%TO.P,D1,2,A*%
%TO.N,Net-(D1-A)*%
X158629800Y-108399800D03*
%TD*%
D14*
%TO.P,C17,1*%
%TO.N,+3V3*%
X135199000Y-86360000D03*
%TO.P,C17,2*%
%TO.N,GND*%
X134239000Y-86360000D03*
%TD*%
%TO.P,C11,1*%
%TO.N,/MCU/BOOT0*%
X122347200Y-96367600D03*
%TO.P,C11,2*%
%TO.N,Net-(C11-Pad2)*%
X121387200Y-96367600D03*
%TD*%
D16*
%TO.P,C18,1*%
%TO.N,+3V3*%
X151053800Y-107801680D03*
%TO.P,C18,2*%
%TO.N,GND*%
X151053800Y-106841680D03*
%TD*%
D17*
%TO.P,C8,1*%
%TO.N,+3V3*%
X150573800Y-91770200D03*
%TO.P,C8,2*%
%TO.N,GND*%
X151533800Y-91770200D03*
%TD*%
D13*
%TO.P,R7,1*%
%TO.N,+3V3*%
X129764600Y-89738200D03*
%TO.P,R7,2*%
%TO.N,/MCU/I2C1_SCL*%
X130784600Y-89738200D03*
%TD*%
D18*
%TO.P,R6,1*%
%TO.N,Net-(U3-SDO)*%
X130784600Y-86360000D03*
%TO.P,R6,2*%
%TO.N,GND*%
X129764600Y-86360000D03*
%TD*%
D19*
%TO.P,U4,1,~{CS}*%
%TO.N,/FLASH/FLASH_SS*%
X141319500Y-107213400D03*
%TO.P,U4,2,DO/IO_{1}*%
%TO.N,/FLASH/FLASH_MISO*%
X141319500Y-108483400D03*
%TO.P,U4,3,~{WP}/IO_{2}*%
%TO.N,Net-(U4-~{WP}{slash}IO_{2})*%
X141319500Y-109753400D03*
%TO.P,U4,4,GND*%
%TO.N,GND*%
X141319500Y-111023400D03*
%TO.P,U4,5,DI/IO_{0}*%
%TO.N,/FLASH/FLASH_MOSI*%
X148494500Y-111023400D03*
%TO.P,U4,6,CLK*%
%TO.N,/FLASH/FLASH_SCLK*%
X148494500Y-109753400D03*
%TO.P,U4,7,~{HOLD}/~{RESET}/IO_{3}*%
%TO.N,Net-(U4-~{HOLD}{slash}~{RESET}{slash}IO_{3})*%
X148494500Y-108483400D03*
%TO.P,U4,8,VCC*%
%TO.N,+3V3*%
X148494500Y-107213400D03*
%TD*%
D14*
%TO.P,C4,1*%
%TO.N,+3V3*%
X140053000Y-104521000D03*
%TO.P,C4,2*%
%TO.N,GND*%
X139093000Y-104521000D03*
%TD*%
D16*
%TO.P,C16,1*%
%TO.N,+3V3*%
X132537200Y-86840000D03*
%TO.P,C16,2*%
%TO.N,GND*%
X132537200Y-85880000D03*
%TD*%
D20*
%TO.P,U3,1,GND*%
%TO.N,GND*%
X134792000Y-89738200D03*
%TO.P,U3,2,CSB*%
%TO.N,+3V3*%
X134142000Y-89738200D03*
%TO.P,U3,3,SDI*%
%TO.N,/MCU/I2C1_SDA*%
X133492000Y-89738200D03*
%TO.P,U3,4,SCK*%
%TO.N,/MCU/I2C1_SCL*%
X132842000Y-89738200D03*
%TO.P,U3,5,SDO*%
%TO.N,Net-(U3-SDO)*%
X132842000Y-88138200D03*
%TO.P,U3,6,VDDIO*%
%TO.N,+3V3*%
X133492000Y-88138200D03*
%TO.P,U3,7,GND*%
%TO.N,GND*%
X134142000Y-88138200D03*
%TO.P,U3,8,VDD*%
%TO.N,+3V3*%
X134792000Y-88138200D03*
%TD*%
D11*
%TO.P,R19,1*%
%TO.N,Net-(J1-CC2)*%
X151053800Y-97743200D03*
%TO.P,R19,2*%
%TO.N,GND*%
X151053800Y-96723200D03*
%TD*%
D13*
%TO.P,R4,1*%
%TO.N,/MCU/BOOT0*%
X124750200Y-96367600D03*
%TO.P,R4,2*%
%TO.N,GND*%
X125770200Y-96367600D03*
%TD*%
D16*
%TO.P,C10,1*%
%TO.N,+3V3*%
X137591800Y-90322400D03*
%TO.P,C10,2*%
%TO.N,GND*%
X137591800Y-89362400D03*
%TD*%
D21*
%TO.P,SW1,1,1*%
%TO.N,/MCU/NRST*%
X126013600Y-89297400D03*
X121513600Y-89297400D03*
%TO.P,SW1,2,2*%
%TO.N,GND*%
X126013600Y-87147400D03*
X121513600Y-87147400D03*
%TD*%
D14*
%TO.P,C3,1*%
%TO.N,+3V3*%
X134279000Y-92544200D03*
%TO.P,C3,2*%
%TO.N,GND*%
X133319000Y-92544200D03*
%TD*%
D17*
%TO.P,C21,1*%
%TO.N,+5V*%
X121567000Y-108432600D03*
%TO.P,C21,2*%
%TO.N,GND*%
X122527000Y-108432600D03*
%TD*%
D22*
%TO.P,U2,1,AP_SDO/AP_AD0*%
%TO.N,/MCU/GYRO_MISO*%
X133869800Y-107102400D03*
%TO.P,U2,2,RESV*%
%TO.N,unconnected-(U2-RESV-Pad2)*%
X133869800Y-107602400D03*
%TO.P,U2,3,RESV*%
%TO.N,unconnected-(U2-RESV-Pad3)*%
X133869800Y-108102400D03*
%TO.P,U2,4,INT1/INT*%
%TO.N,/MCU/GYRO_INT*%
X133869800Y-108602400D03*
D23*
%TO.P,U2,5,VDDIO*%
%TO.N,+3V3*%
X134532300Y-108764900D03*
%TO.P,U2,6,GND*%
%TO.N,GND*%
X135032300Y-108764900D03*
%TO.P,U2,7,RESV*%
%TO.N,unconnected-(U2-RESV-Pad7)*%
X135532300Y-108764900D03*
D22*
%TO.P,U2,8,VDD*%
%TO.N,+3V3*%
X136194800Y-108602400D03*
%TO.P,U2,9,INT2/FSYNC/CLKIN*%
%TO.N,unconnected-(U2-INT2{slash}FSYNC{slash}CLKIN-Pad9)*%
X136194800Y-108102400D03*
%TO.P,U2,10,RESV*%
%TO.N,unconnected-(U2-RESV-Pad10)*%
X136194800Y-107602400D03*
%TO.P,U2,11,RESV*%
%TO.N,unconnected-(U2-RESV-Pad11)*%
X136194800Y-107102400D03*
D23*
%TO.P,U2,12,AP_CS*%
%TO.N,/MCU/GYRO_SS*%
X135532300Y-106939900D03*
%TO.P,U2,13,AP_SCL/AP_SCLK*%
%TO.N,/MCU/GYRO_SCLK*%
X135032300Y-106939900D03*
%TO.P,U2,14,AP_SDA/AP_SDIO/AP_SDI*%
%TO.N,/MCU/GYRO_MOSI*%
X134532300Y-106939900D03*
%TD*%
D24*
%TO.P,J4,1,Pin_1*%
%TO.N,+5V*%
X148870800Y-83203800D03*
%TO.P,J4,2,Pin_2*%
%TO.N,GND*%
X147870800Y-83203800D03*
%TO.P,J4,3,Pin_3*%
%TO.N,/CONNECTORS/UART5_RX*%
X146870800Y-83203800D03*
%TO.P,J4,4,Pin_4*%
%TO.N,/CONNECTORS/UART5_TX*%
X145870800Y-83203800D03*
D25*
%TO.P,J4,MP,MountPin*%
%TO.N,GND*%
X150170800Y-79328800D03*
X144570800Y-79328800D03*
%TD*%
D10*
%TO.P,C7,1*%
%TO.N,+3V3*%
X147218400Y-104041000D03*
%TO.P,C7,2*%
%TO.N,GND*%
X147218400Y-105001000D03*
%TD*%
D26*
%TO.P,Q1,1,B*%
%TO.N,Net-(Q1-B)*%
X139162000Y-81366400D03*
%TO.P,Q1,2,E*%
%TO.N,GND*%
X139162000Y-79466400D03*
%TO.P,Q1,3,C*%
%TO.N,Net-(J8-Pin_3)*%
X137287000Y-80416400D03*
%TD*%
D13*
%TO.P,R2,1*%
%TO.N,+3V3*%
X121357200Y-90855800D03*
%TO.P,R2,2*%
%TO.N,/MCU/NRST*%
X122377200Y-90855800D03*
%TD*%
D17*
%TO.P,C5,1*%
%TO.N,/MCU/NRST*%
X124780200Y-90830400D03*
%TO.P,C5,2*%
%TO.N,GND*%
X125740200Y-90830400D03*
%TD*%
D27*
%TO.P,SW2,1,1*%
%TO.N,+3V3*%
X121513600Y-92549400D03*
X126013600Y-92549400D03*
%TO.P,SW2,2,2*%
%TO.N,/MCU/BOOT0*%
X121513600Y-94699400D03*
X126013600Y-94699400D03*
%TD*%
D28*
%TO.P,C22,1*%
%TO.N,Net-(U5-VOUT)*%
X131318000Y-108677600D03*
%TO.P,C22,2*%
%TO.N,Net-(C22-Pad2)*%
X131318000Y-110227600D03*
%TD*%
D14*
%TO.P,C9,1*%
%TO.N,/MCU/OSC_OUT*%
X131844700Y-98653600D03*
%TO.P,C9,2*%
%TO.N,GND*%
X130884700Y-98653600D03*
%TD*%
D12*
%TO.P,R18,1*%
%TO.N,Net-(J1-CC1)*%
X151053800Y-104011000D03*
%TO.P,R18,2*%
%TO.N,GND*%
X151053800Y-105031000D03*
%TD*%
D17*
%TO.P,C13,1*%
%TO.N,+3V3*%
X133253600Y-110464600D03*
%TO.P,C13,2*%
%TO.N,GND*%
X134213600Y-110464600D03*
%TD*%
D29*
%TO.P,J2,1,Pin_1*%
%TO.N,+5V*%
X134065800Y-113650800D03*
%TO.P,J2,2,Pin_2*%
%TO.N,GND*%
X135065800Y-113650800D03*
%TO.P,J2,3,Pin_3*%
%TO.N,/CONNECTORS/UART2_RX*%
X136065800Y-113650800D03*
%TO.P,J2,4,Pin_4*%
%TO.N,/CONNECTORS/UART2_TX*%
X137065800Y-113650800D03*
D30*
%TO.P,J2,MP,MountPin*%
%TO.N,GND*%
X132765800Y-117525800D03*
X138365800Y-117525800D03*
%TD*%
D31*
%TO.P,J1,A1,GND*%
%TO.N,GND*%
X153720800Y-104058000D03*
%TO.P,J1,A4,VBUS*%
%TO.N,Net-(D1-A)*%
X153720800Y-103258000D03*
D32*
%TO.P,J1,A5,CC1*%
%TO.N,Net-(J1-CC1)*%
X153720800Y-102108000D03*
%TO.P,J1,A6,D+*%
%TO.N,Net-(J1-D+-PadA6)*%
X153720800Y-101108000D03*
%TO.P,J1,A7,D-*%
%TO.N,Net-(J1-D--PadA7)*%
X153720800Y-100608000D03*
%TO.P,J1,A8,SBU1*%
%TO.N,unconnected-(J1-SBU1-PadA8)*%
X153720800Y-99608000D03*
D31*
%TO.P,J1,A9,VBUS*%
%TO.N,Net-(D1-A)*%
X153720800Y-98458000D03*
%TO.P,J1,A12,GND*%
%TO.N,GND*%
X153720800Y-97658000D03*
%TO.P,J1,B1,GND*%
X153720800Y-97658000D03*
%TO.P,J1,B4,VBUS*%
%TO.N,Net-(D1-A)*%
X153720800Y-98458000D03*
D32*
%TO.P,J1,B5,CC2*%
%TO.N,Net-(J1-CC2)*%
X153720800Y-99108000D03*
%TO.P,J1,B6,D+*%
%TO.N,Net-(J1-D+-PadA6)*%
X153720800Y-100108000D03*
%TO.P,J1,B7,D-*%
%TO.N,Net-(J1-D--PadA7)*%
X153720800Y-101608000D03*
%TO.P,J1,B8,SBU2*%
%TO.N,unconnected-(J1-SBU2-PadB8)*%
X153720800Y-102608000D03*
D31*
%TO.P,J1,B9,VBUS*%
%TO.N,Net-(D1-A)*%
X153720800Y-103258000D03*
%TO.P,J1,B12,GND*%
%TO.N,GND*%
X153720800Y-104058000D03*
D33*
%TO.P,J1,S1,SHIELD*%
X154360800Y-105178000D03*
D34*
X158540800Y-105178000D03*
D33*
X154360800Y-96538000D03*
D34*
X158540800Y-96538000D03*
%TD*%
D14*
%TO.P,C15,1*%
%TO.N,+3V3*%
X136728200Y-110464600D03*
%TO.P,C15,2*%
%TO.N,GND*%
X135768200Y-110464600D03*
%TD*%
D35*
%TO.P,U5,1,NC*%
%TO.N,unconnected-(U5-NC-Pad1)*%
X129934800Y-100438100D03*
%TO.P,U5,2,NC*%
%TO.N,unconnected-(U5-NC-Pad2)*%
X129284800Y-100438100D03*
%TO.P,U5,3,DVDD*%
%TO.N,+5V*%
X128634800Y-100438100D03*
%TO.P,U5,4,DGND*%
%TO.N,GND*%
X127984800Y-100438100D03*
%TO.P,U5,5,CLKIN*%
%TO.N,Net-(U5-CLKIN)*%
X127334800Y-100438100D03*
%TO.P,U5,6,XFB*%
%TO.N,Net-(U5-XFB)*%
X126684800Y-100438100D03*
%TO.P,U5,7,CLKOUT*%
%TO.N,unconnected-(U5-CLKOUT-Pad7)*%
X126034800Y-100438100D03*
%TO.P,U5,8,~{CS}*%
%TO.N,/MCU/OSD_SS*%
X125384800Y-100438100D03*
%TO.P,U5,9,SDIN*%
%TO.N,/MCU/OSD_MOSI*%
X124734800Y-100438100D03*
%TO.P,U5,10,SCLK*%
%TO.N,/MCU/OSD_SCLK*%
X124084800Y-100438100D03*
%TO.P,U5,11,SDOUT*%
%TO.N,/MCU/OSD_MISO*%
X123434800Y-100438100D03*
%TO.P,U5,12,LOS*%
%TO.N,unconnected-(U5-LOS-Pad12)*%
X122784800Y-100438100D03*
%TO.P,U5,13,SYNC_IN*%
%TO.N,unconnected-(U5-SYNC_IN-Pad13)*%
X122134800Y-100438100D03*
%TO.P,U5,14,NC*%
%TO.N,unconnected-(U5-NC-Pad14)*%
X121484800Y-100438100D03*
%TO.P,U5,15,NC*%
%TO.N,unconnected-(U5-NC-Pad15)*%
X121484800Y-106163100D03*
%TO.P,U5,16,NC*%
%TO.N,unconnected-(U5-NC-Pad16)*%
X122134800Y-106163100D03*
%TO.P,U5,17,~{VSYNC}*%
%TO.N,unconnected-(U5-~{VSYNC}-Pad17)*%
X122784800Y-106163100D03*
%TO.P,U5,18,~{HSYNC}*%
%TO.N,unconnected-(U5-~{HSYNC}-Pad18)*%
X123434800Y-106163100D03*
%TO.P,U5,19,~{RESET}*%
%TO.N,+5V*%
X124084800Y-106163100D03*
%TO.P,U5,20,AGND*%
%TO.N,GND*%
X124734800Y-106163100D03*
%TO.P,U5,21,AVDD*%
%TO.N,+5V*%
X125384800Y-106163100D03*
%TO.P,U5,22,VIN*%
%TO.N,Net-(U5-VIN)*%
X126034800Y-106163100D03*
%TO.P,U5,23,PGND*%
%TO.N,GND*%
X126684800Y-106163100D03*
%TO.P,U5,24,PVDD*%
%TO.N,+5V*%
X127334800Y-106163100D03*
%TO.P,U5,25,SAG*%
%TO.N,Net-(U5-SAG)*%
X127984800Y-106163100D03*
%TO.P,U5,26,VOUT*%
%TO.N,Net-(U5-VOUT)*%
X128634800Y-106163100D03*
%TO.P,U5,27,NC*%
%TO.N,unconnected-(U5-NC-Pad27)*%
X129284800Y-106163100D03*
%TO.P,U5,28,NC*%
%TO.N,unconnected-(U5-NC-Pad28)*%
X129934800Y-106163100D03*
D36*
%TO.P,U5,29,EP*%
%TO.N,GND*%
X125709800Y-103300600D03*
%TD*%
D28*
%TO.P,C23,1*%
%TO.N,Net-(U5-SAG)*%
X129000250Y-108677600D03*
%TO.P,C23,2*%
%TO.N,Net-(C22-Pad2)*%
X129000250Y-110227600D03*
%TD*%
D12*
%TO.P,R10,1*%
%TO.N,Net-(C22-Pad2)*%
X129159000Y-113002600D03*
%TO.P,R10,2*%
%TO.N,/CONNECTORS/VIDEO*%
X129159000Y-114022600D03*
%TD*%
D13*
%TO.P,R5,1*%
%TO.N,+3V3*%
X129764600Y-88049100D03*
%TO.P,R5,2*%
%TO.N,/MCU/I2C1_SDA*%
X130784600Y-88049100D03*
%TD*%
D17*
%TO.P,C2,1*%
%TO.N,Net-(U1-VCAP_2)*%
X150573800Y-93091000D03*
%TO.P,C2,2*%
%TO.N,GND*%
X151533800Y-93091000D03*
%TD*%
D13*
%TO.P,R3,1*%
%TO.N,Net-(C11-Pad2)*%
X121357200Y-97917000D03*
%TO.P,R3,2*%
%TO.N,GND*%
X122377200Y-97917000D03*
%TD*%
D37*
%TO.P,Y1,1,1*%
%TO.N,/MCU/OSC_IN*%
X131182000Y-94498900D03*
%TO.P,Y1,2,2*%
%TO.N,GND*%
X131182000Y-96698900D03*
%TO.P,Y1,3,3*%
%TO.N,/MCU/OSC_OUT*%
X132882000Y-96698900D03*
%TO.P,Y1,4,4*%
%TO.N,GND*%
X132882000Y-94498900D03*
%TD*%
D14*
%TO.P,C19,1*%
%TO.N,+5V*%
X129410400Y-98628200D03*
%TO.P,C19,2*%
%TO.N,GND*%
X128450400Y-98628200D03*
%TD*%
%TO.P,C12,1*%
%TO.N,+3V3*%
X134279000Y-98640200D03*
%TO.P,C12,2*%
%TO.N,GND*%
X133319000Y-98640200D03*
%TD*%
D29*
%TO.P,J5,1,Pin_1*%
%TO.N,+5V*%
X145142200Y-113646200D03*
%TO.P,J5,2,Pin_2*%
%TO.N,+10V*%
X146142200Y-113646200D03*
%TO.P,J5,3,Pin_3*%
%TO.N,GND*%
X147142200Y-113646200D03*
%TO.P,J5,4,Pin_4*%
%TO.N,/CONNECTORS/VIDEO*%
X148142200Y-113646200D03*
%TO.P,J5,5,Pin_5*%
%TO.N,/CONNECTORS/UART3_TX*%
X149142200Y-113646200D03*
D30*
%TO.P,J5,MP,MountPin*%
%TO.N,GND*%
X143842200Y-117521200D03*
X150442200Y-117521200D03*
%TD*%
D38*
%TO.P,J7,1,Pin_1*%
%TO.N,+3V3*%
X155378400Y-92000200D03*
%TO.P,J7,2,Pin_2*%
%TO.N,GND*%
X155378400Y-91000200D03*
%TO.P,J7,3,Pin_3*%
%TO.N,/CONNECTORS/SWDIO*%
X155378400Y-90000200D03*
%TO.P,J7,4,Pin_4*%
%TO.N,/CONNECTORS/SWCLK*%
X155378400Y-89000200D03*
D39*
%TO.P,J7,MP,MountPin*%
%TO.N,GND*%
X159253400Y-93300200D03*
X159253400Y-87700200D03*
%TD*%
D17*
%TO.P,C6,1*%
%TO.N,/MCU/OSC_IN*%
X130884700Y-92544200D03*
%TO.P,C6,2*%
%TO.N,GND*%
X131844700Y-92544200D03*
%TD*%
D40*
%TO.P,Y2,1,1*%
%TO.N,Net-(U5-CLKIN)*%
X134061200Y-104257200D03*
%TO.P,Y2,2,2*%
%TO.N,GND*%
X134061200Y-102057200D03*
%TO.P,Y2,3,3*%
%TO.N,Net-(U5-XFB)*%
X132361200Y-102057200D03*
%TO.P,Y2,4,4*%
%TO.N,GND*%
X132361200Y-104257200D03*
%TD*%
D24*
%TO.P,J8,1,Pin_1*%
%TO.N,GND*%
X132334000Y-83210400D03*
%TO.P,J8,2,Pin_2*%
%TO.N,+5V*%
X131334000Y-83210400D03*
%TO.P,J8,3,Pin_3*%
%TO.N,Net-(J8-Pin_3)*%
X130334000Y-83210400D03*
D25*
%TO.P,J8,MP,MountPin*%
%TO.N,GND*%
X133634000Y-79335400D03*
X129034000Y-79335400D03*
%TD*%
D10*
%TO.P,C1,1*%
%TO.N,Net-(U1-VCAP_1)*%
X145796000Y-104041000D03*
%TO.P,C1,2*%
%TO.N,GND*%
X145796000Y-105001000D03*
%TD*%
D18*
%TO.P,R20,1*%
%TO.N,Net-(J1-D--PadA7)*%
X151563800Y-101827440D03*
%TO.P,R20,2*%
%TO.N,/CONNECTORS/USB_DN*%
X150543800Y-101827440D03*
%TD*%
D16*
%TO.P,C14,1*%
%TO.N,+3V3*%
X137998200Y-108125200D03*
%TO.P,C14,2*%
%TO.N,GND*%
X137998200Y-107165200D03*
%TD*%
D18*
%TO.P,R21,1*%
%TO.N,Net-(J1-D+-PadA6)*%
X151563800Y-99760320D03*
%TO.P,R21,2*%
%TO.N,/CONNECTORS/USB_DP*%
X150543800Y-99760320D03*
%TD*%
D12*
%TO.P,R23,1*%
%TO.N,Net-(Q1-B)*%
X138430000Y-83132200D03*
%TO.P,R23,2*%
%TO.N,GND*%
X138430000Y-84152200D03*
%TD*%
D41*
%TO.P,U1,1,VBAT*%
%TO.N,+3V3*%
X136909800Y-92604200D03*
%TO.P,U1,2,PC13*%
%TO.N,/CONNECTORS/BEEPER*%
X136909800Y-93104200D03*
%TO.P,U1,3,PC14*%
%TO.N,unconnected-(U1-PC14-Pad3)*%
X136909800Y-93604200D03*
%TO.P,U1,4,PC15*%
%TO.N,unconnected-(U1-PC15-Pad4)*%
X136909800Y-94104200D03*
%TO.P,U1,5,PH0*%
%TO.N,/MCU/OSC_IN*%
X136909800Y-94604200D03*
%TO.P,U1,6,PH1*%
%TO.N,/MCU/OSC_OUT*%
X136909800Y-95104200D03*
%TO.P,U1,7,NRST*%
%TO.N,/MCU/NRST*%
X136909800Y-95604200D03*
%TO.P,U1,8,PC0*%
%TO.N,unconnected-(U1-PC0-Pad8)*%
X136909800Y-96104200D03*
%TO.P,U1,9,PC1*%
%TO.N,/MCU/ADC_VBAT*%
X136909800Y-96604200D03*
%TO.P,U1,10,PC2*%
%TO.N,unconnected-(U1-PC2-Pad10)*%
X136909800Y-97104200D03*
%TO.P,U1,11,PC3*%
%TO.N,/CONNECTORS/ADC_CURR*%
X136909800Y-97604200D03*
%TO.P,U1,12,VSSA*%
%TO.N,GND*%
X136909800Y-98104200D03*
%TO.P,U1,13,VDDA*%
%TO.N,+3V3*%
X136909800Y-98604200D03*
%TO.P,U1,14,PA0*%
%TO.N,/CONNECTORS/UART4_TX*%
X136909800Y-99104200D03*
%TO.P,U1,15,PA1*%
%TO.N,/CONNECTORS/UART4_RX*%
X136909800Y-99604200D03*
%TO.P,U1,16,PA2*%
%TO.N,/CONNECTORS/UART2_TX*%
X136909800Y-100104200D03*
D42*
%TO.P,U1,17,PA3*%
%TO.N,/CONNECTORS/UART2_RX*%
X138834800Y-102029200D03*
%TO.P,U1,18,VSS*%
%TO.N,GND*%
X139334800Y-102029200D03*
%TO.P,U1,19,VDD*%
%TO.N,+3V3*%
X139834800Y-102029200D03*
%TO.P,U1,20,PA4*%
%TO.N,/MCU/GYRO_SS*%
X140334800Y-102029200D03*
%TO.P,U1,21,PA5*%
%TO.N,/MCU/GYRO_SCLK*%
X140834800Y-102029200D03*
%TO.P,U1,22,PA6*%
%TO.N,/MCU/GYRO_MISO*%
X141334800Y-102029200D03*
%TO.P,U1,23,PA7*%
%TO.N,/MCU/GYRO_MOSI*%
X141834800Y-102029200D03*
%TO.P,U1,24,PC4*%
%TO.N,/MCU/GYRO_INT*%
X142334800Y-102029200D03*
%TO.P,U1,25,PC5*%
%TO.N,unconnected-(U1-PC5-Pad25)*%
X142834800Y-102029200D03*
%TO.P,U1,26,PB0*%
%TO.N,unconnected-(U1-PB0-Pad26)*%
X143334800Y-102029200D03*
%TO.P,U1,27,PB1*%
%TO.N,unconnected-(U1-PB1-Pad27)*%
X143834800Y-102029200D03*
%TO.P,U1,28,PB2*%
%TO.N,/MCU/BOOT1*%
X144334800Y-102029200D03*
%TO.P,U1,29,PB10*%
%TO.N,/CONNECTORS/UART3_TX*%
X144834800Y-102029200D03*
%TO.P,U1,30,PB11*%
%TO.N,/CONNECTORS/UART3_RX*%
X145334800Y-102029200D03*
%TO.P,U1,31,VCAP_1*%
%TO.N,Net-(U1-VCAP_1)*%
X145834800Y-102029200D03*
%TO.P,U1,32,VDD*%
%TO.N,+3V3*%
X146334800Y-102029200D03*
D41*
%TO.P,U1,33,PB12*%
%TO.N,/FLASH/FLASH_SS*%
X148259800Y-100104200D03*
%TO.P,U1,34,PB13*%
%TO.N,/FLASH/FLASH_SCLK*%
X148259800Y-99604200D03*
%TO.P,U1,35,PB14*%
%TO.N,/FLASH/FLASH_MISO*%
X148259800Y-99104200D03*
%TO.P,U1,36,PB15*%
%TO.N,/FLASH/FLASH_MOSI*%
X148259800Y-98604200D03*
%TO.P,U1,37,PC6*%
%TO.N,unconnected-(U1-PC6-Pad37)*%
X148259800Y-98104200D03*
%TO.P,U1,38,PC7*%
%TO.N,/CONNECTORS/UART6_RX*%
X148259800Y-97604200D03*
%TO.P,U1,39,PC8*%
%TO.N,/CONNECTORS/MOTOR3*%
X148259800Y-97104200D03*
%TO.P,U1,40,PC9*%
%TO.N,/CONNECTORS/MOTOR4*%
X148259800Y-96604200D03*
%TO.P,U1,41,PA8*%
%TO.N,/CONNECTORS/MOTOR1*%
X148259800Y-96104200D03*
%TO.P,U1,42,PA9*%
%TO.N,/CONNECTORS/MOTOR2*%
X148259800Y-95604200D03*
%TO.P,U1,43,PA10*%
%TO.N,unconnected-(U1-PA10-Pad43)*%
X148259800Y-95104200D03*
%TO.P,U1,44,PA11*%
%TO.N,/CONNECTORS/USB_DN*%
X148259800Y-94604200D03*
%TO.P,U1,45,PA12*%
%TO.N,/CONNECTORS/USB_DP*%
X148259800Y-94104200D03*
%TO.P,U1,46,PA13*%
%TO.N,/CONNECTORS/SWDIO*%
X148259800Y-93604200D03*
%TO.P,U1,47,VCAP_2*%
%TO.N,Net-(U1-VCAP_2)*%
X148259800Y-93104200D03*
%TO.P,U1,48,VDD*%
%TO.N,+3V3*%
X148259800Y-92604200D03*
D42*
%TO.P,U1,49,PA14*%
%TO.N,/CONNECTORS/SWCLK*%
X146334800Y-90679200D03*
%TO.P,U1,50,PA15*%
%TO.N,/MCU/OSD_SS*%
X145834800Y-90679200D03*
%TO.P,U1,51,PC10*%
%TO.N,/MCU/OSD_SCLK*%
X145334800Y-90679200D03*
%TO.P,U1,52,PC11*%
%TO.N,/MCU/OSD_MISO*%
X144834800Y-90679200D03*
%TO.P,U1,53,PC12*%
%TO.N,/CONNECTORS/UART5_TX*%
X144334800Y-90679200D03*
%TO.P,U1,54,PD2*%
%TO.N,/CONNECTORS/UART5_RX*%
X143834800Y-90679200D03*
%TO.P,U1,55,PB3*%
%TO.N,unconnected-(U1-PB3-Pad55)*%
X143334800Y-90679200D03*
%TO.P,U1,56,PB4*%
%TO.N,unconnected-(U1-PB4-Pad56)*%
X142834800Y-90679200D03*
%TO.P,U1,57,PB5*%
%TO.N,/MCU/OSD_MOSI*%
X142334800Y-90679200D03*
%TO.P,U1,58,PB6*%
%TO.N,unconnected-(U1-PB6-Pad58)*%
X141834800Y-90679200D03*
%TO.P,U1,59,PB7*%
%TO.N,/CONNECTORS/UART1_RX*%
X141334800Y-90679200D03*
%TO.P,U1,60,BOOT0*%
%TO.N,/MCU/BOOT0*%
X140834800Y-90679200D03*
%TO.P,U1,61,PB8*%
%TO.N,/MCU/I2C1_SCL*%
X140334800Y-90679200D03*
%TO.P,U1,62,PB9*%
%TO.N,/MCU/I2C1_SDA*%
X139834800Y-90679200D03*
%TO.P,U1,63,VSS*%
%TO.N,GND*%
X139334800Y-90679200D03*
%TO.P,U1,64,VDD*%
%TO.N,+3V3*%
X138834800Y-90679200D03*
%TD*%
D43*
%TO.N,GND*%
X135051800Y-115011200D03*
X123040020Y-91696420D03*
X129034000Y-79335400D03*
X159253400Y-93300200D03*
X121412000Y-112318800D03*
X139162000Y-79466400D03*
X135533335Y-87324135D03*
X137591800Y-89362400D03*
X132765800Y-117525800D03*
X141325600Y-113436400D03*
X144570800Y-79328800D03*
X134955365Y-93187435D03*
X138365800Y-117525800D03*
X141638300Y-92895700D03*
X137134600Y-107162600D03*
X126013600Y-87147400D03*
X159253400Y-87700200D03*
X153314400Y-88315800D03*
X142849600Y-117525800D03*
X143842200Y-117521200D03*
X132588000Y-100330000D03*
X142245165Y-105034165D03*
X150170800Y-79328800D03*
X127152400Y-110998000D03*
X142671800Y-100558600D03*
X127508000Y-94615000D03*
X152450800Y-91211400D03*
X134239000Y-86360000D03*
X150442200Y-117521200D03*
X147870800Y-83203800D03*
X135368600Y-117525800D03*
X133634000Y-79335400D03*
X146583400Y-108788200D03*
X129768600Y-117525800D03*
X139776200Y-85877400D03*
X137234800Y-104677510D03*
X128450400Y-98628200D03*
X121513600Y-87147400D03*
X155378400Y-91000200D03*
X125709800Y-103300600D03*
%TO.N,+3V3*%
X134661996Y-99654924D03*
X135382000Y-85394800D03*
X157962600Y-91541600D03*
X150328400Y-90906600D03*
X137184446Y-105475926D03*
X125730000Y-91897200D03*
X139090400Y-111785400D03*
X135890000Y-111769600D03*
X139090400Y-110871000D03*
X150266400Y-103098600D03*
X152095200Y-111836200D03*
X145440200Y-98907600D03*
X155378400Y-92000200D03*
%TO.N,/MCU/NRST*%
X134772715Y-95704200D03*
X128600200Y-91059000D03*
%TO.N,+5V*%
X136497022Y-105953000D03*
X129772353Y-104928375D03*
X154629800Y-108399800D03*
X128473200Y-84632800D03*
X148869400Y-80695800D03*
X121564400Y-109372400D03*
X141782800Y-114731800D03*
X134061200Y-115011200D03*
X129410400Y-98628200D03*
%TO.N,/CONNECTORS/CAM_ANALOG*%
X125552200Y-109372400D03*
X131546600Y-85166200D03*
%TO.N,+10V*%
X144348200Y-109905800D03*
%TO.N,/CONNECTORS/UART2_RX*%
X132283200Y-107035600D03*
X136829800Y-103987600D03*
%TO.N,/CONNECTORS/UART2_TX*%
X130429000Y-111836200D03*
X135737600Y-101803200D03*
%TO.N,/CONNECTORS/UART4_TX*%
X139141200Y-99952200D03*
X134975600Y-111099600D03*
%TO.N,/CONNECTORS/UART4_RX*%
X134721600Y-100558600D03*
X132588000Y-112014000D03*
%TO.N,/CONNECTORS/UART5_RX*%
X146431000Y-85521800D03*
X144635135Y-85529335D03*
%TO.N,/CONNECTORS/UART3_TX*%
X147574000Y-112039400D03*
X144043400Y-104495600D03*
%TO.N,/CONNECTORS/UART3_RX*%
X146050000Y-115239435D03*
X144957800Y-104648000D03*
%TO.N,/CONNECTORS/MOTOR4*%
X149372800Y-96627033D03*
X152064367Y-96627033D03*
%TO.N,/CONNECTORS/MOTOR3*%
X140893800Y-95504000D03*
X143154400Y-86080600D03*
%TO.N,/CONNECTORS/MOTOR2*%
X149372801Y-95627033D03*
X142875000Y-84582000D03*
%TO.N,/CONNECTORS/UART1_RX*%
X141554200Y-86944200D03*
%TO.N,/CONNECTORS/MOTOR1*%
X146318488Y-95266074D03*
X141986000Y-85648800D03*
%TO.N,/CONNECTORS/ADC_CURR*%
X145821400Y-86334600D03*
X140690600Y-98247200D03*
%TO.N,/CONNECTORS/UART6_RX*%
X143281400Y-97917000D03*
X139796949Y-112542749D03*
%TO.N,/MCU/I2C1_SCL*%
X136779000Y-86927000D03*
X135077200Y-90889200D03*
%TO.N,/MCU/ADC_VBAT*%
X138404600Y-95935800D03*
X152831800Y-94411800D03*
%TO.N,/CONNECTORS/BEEPER*%
X136398000Y-88315800D03*
X135820448Y-93104200D03*
%TO.N,/MCU/GYRO_MISO*%
X141351000Y-104216200D03*
X134737685Y-105451485D03*
%TO.N,/FLASH/FLASH_MOSI*%
X148153200Y-103759000D03*
X149892665Y-110406535D03*
%TO.N,/MCU/OSD_MISO*%
X129641600Y-92913200D03*
X143179800Y-92583000D03*
%TO.N,/MCU/OSD_MOSI*%
X142163800Y-95656400D03*
X128144515Y-96572315D03*
%TO.N,/MCU/OSD_SCLK*%
X129997200Y-93878400D03*
X143738600Y-93446600D03*
%TO.N,/MCU/GYRO_INT*%
X132765800Y-108991400D03*
X137845800Y-109245400D03*
%TO.N,/MCU/OSD_SS*%
X129641600Y-97358200D03*
X145514000Y-94272330D03*
%TD*%
D44*
%TO.N,Net-(U1-VCAP_1)*%
X145834800Y-104002200D02*
X145796000Y-104041000D01*
X145834800Y-102029200D02*
X145834800Y-104002200D01*
%TO.N,GND*%
X133759000Y-85880000D02*
X134239000Y-86360000D01*
X135032300Y-109645900D02*
X135032300Y-108764900D01*
X145548000Y-105249000D02*
X145796000Y-105001000D01*
X139334800Y-102029200D02*
X139334800Y-104279200D01*
X132882000Y-94998900D02*
X131182000Y-96698900D01*
X132334000Y-85676800D02*
X132537200Y-85880000D01*
X151892000Y-91770200D02*
X152450800Y-91211400D01*
X138430000Y-84152200D02*
X138430000Y-84531200D01*
X124874180Y-91696420D02*
X125740200Y-90830400D01*
X151533800Y-91770200D02*
X151892000Y-91770200D01*
X139334800Y-89870376D02*
X139334800Y-90679200D01*
X147142200Y-112623600D02*
X146593200Y-112074600D01*
X143179800Y-105031000D02*
X143397800Y-105249000D01*
X126666400Y-104257200D02*
X125709800Y-103300600D01*
X134142000Y-86457000D02*
X134239000Y-86360000D01*
X135382000Y-98094800D02*
X135102600Y-97815400D01*
X137234800Y-104677510D02*
X137241690Y-104677510D01*
X135768200Y-110464600D02*
X134213600Y-110464600D01*
X135768200Y-110464600D02*
X138740000Y-113436400D01*
X138740000Y-113436400D02*
X141325600Y-113436400D01*
X126202500Y-110048100D02*
X127152400Y-110998000D01*
X132561100Y-100330000D02*
X132588000Y-100330000D01*
X146593200Y-112074600D02*
X146593200Y-108798000D01*
X146593200Y-108798000D02*
X146583400Y-108788200D01*
X123040020Y-91696420D02*
X124874180Y-91696420D01*
X132334000Y-83210400D02*
X132334000Y-85676800D01*
X122527000Y-108432600D02*
X122527000Y-109522800D01*
X121412000Y-112318800D02*
X121412000Y-110637800D01*
X125770200Y-96367600D02*
X125770200Y-96352800D01*
X133319000Y-92544200D02*
X133962235Y-93187435D01*
X135533335Y-88996865D02*
X135533335Y-87324135D01*
X151533800Y-93091000D02*
X151533800Y-91770200D01*
X126801000Y-86360000D02*
X126013600Y-87147400D01*
X124220800Y-97917000D02*
X122377200Y-97917000D01*
X147218400Y-105001000D02*
X145796000Y-105001000D01*
X132537200Y-85880000D02*
X133759000Y-85880000D01*
X137591800Y-89362400D02*
X138826824Y-89362400D01*
X135065800Y-113650800D02*
X135065800Y-114997200D01*
X129764600Y-86360000D02*
X126801000Y-86360000D01*
X134061200Y-102057200D02*
X134061200Y-101803200D01*
X137998200Y-107165200D02*
X137137200Y-107165200D01*
X137398200Y-104521000D02*
X139093000Y-104521000D01*
X147142200Y-113646200D02*
X147142200Y-112623600D01*
X127984800Y-100438100D02*
X127984800Y-99093800D01*
X153720800Y-104058000D02*
X153720800Y-104538000D01*
X151053800Y-106841680D02*
X151053800Y-105031000D01*
X138430000Y-84531200D02*
X139776200Y-85877400D01*
X153720800Y-97178000D02*
X154360800Y-96538000D01*
X124734800Y-106900599D02*
X124734800Y-106163100D01*
X136909800Y-98104200D02*
X136900400Y-98094800D01*
X134213600Y-110464600D02*
X135032300Y-109645900D01*
X122527000Y-109522800D02*
X121509000Y-110540800D01*
X126202500Y-108432600D02*
X126684800Y-107950300D01*
X141319500Y-111023400D02*
X141325600Y-111029500D01*
X137241690Y-104677510D02*
X137398200Y-104521000D01*
X122527000Y-108432600D02*
X123202799Y-108432600D01*
X130884700Y-97240100D02*
X130884700Y-98653600D01*
X127984800Y-99093800D02*
X128450400Y-98628200D01*
X151053800Y-105031000D02*
X152747800Y-105031000D01*
X134142000Y-88138200D02*
X134142000Y-86457000D01*
X143179800Y-105031000D02*
X142248330Y-105031000D01*
X138826824Y-89362400D02*
X139334800Y-89870376D01*
X132361200Y-104257200D02*
X126666400Y-104257200D01*
X133319000Y-98640200D02*
X133319000Y-99599000D01*
X125770200Y-96367600D02*
X124220800Y-97917000D01*
X141325600Y-111029500D02*
X141325600Y-113436400D01*
X151053800Y-96723200D02*
X151988600Y-97658000D01*
X152747800Y-105031000D02*
X153720800Y-104058000D01*
X143397800Y-105249000D02*
X145548000Y-105249000D01*
X153720800Y-104538000D02*
X154360800Y-105178000D01*
X130884700Y-98653600D02*
X132561100Y-100330000D01*
X134792000Y-89738200D02*
X135533335Y-88996865D01*
X137137200Y-107165200D02*
X137134600Y-107162600D01*
X121412000Y-110637800D02*
X121509000Y-110540800D01*
X133319000Y-99599000D02*
X132588000Y-100330000D01*
X151988600Y-97658000D02*
X153720800Y-97658000D01*
X135065800Y-114997200D02*
X135051800Y-115011200D01*
X133962235Y-93187435D02*
X134955365Y-93187435D01*
X136900400Y-98094800D02*
X135382000Y-98094800D01*
X126202500Y-108432600D02*
X126202500Y-110048100D01*
X142248330Y-105031000D02*
X142245165Y-105034165D01*
X133629400Y-97815400D02*
X133319000Y-98125800D01*
X153720800Y-97658000D02*
X153720800Y-97178000D01*
X132882000Y-94498900D02*
X132882000Y-94998900D01*
X133319000Y-98125800D02*
X133319000Y-98640200D01*
X125770200Y-96352800D02*
X127508000Y-94615000D01*
X139334800Y-104279200D02*
X139093000Y-104521000D01*
X133319000Y-92544200D02*
X131844700Y-92544200D01*
X131182000Y-96698900D02*
X131182000Y-96942800D01*
X134061200Y-101803200D02*
X132588000Y-100330000D01*
X126684800Y-107950300D02*
X126684800Y-106163100D01*
X135102600Y-97815400D02*
X133629400Y-97815400D01*
X123202799Y-108432600D02*
X124734800Y-106900599D01*
X131182000Y-96942800D02*
X130884700Y-97240100D01*
%TO.N,Net-(U1-VCAP_2)*%
X148259800Y-93104200D02*
X150560600Y-93104200D01*
X150560600Y-93104200D02*
X150573800Y-93091000D01*
%TO.N,+3V3*%
X134792000Y-88138200D02*
X134792000Y-88499400D01*
X136909800Y-92604200D02*
X136787000Y-92481400D01*
X133253600Y-110464600D02*
X134558600Y-111769600D01*
X142671800Y-99957600D02*
X145072024Y-99957600D01*
X134792000Y-88138200D02*
X134792000Y-86767000D01*
X148259800Y-92604200D02*
X149739800Y-92604200D01*
X145072024Y-99957600D02*
X146334800Y-101220376D01*
X146334800Y-103157400D02*
X147218400Y-104041000D01*
X134264400Y-98654800D02*
X134279000Y-98640200D01*
X140292800Y-95178376D02*
X140292800Y-96503200D01*
X133492000Y-87794800D02*
X132537200Y-86840000D01*
X134558600Y-111769600D02*
X135890000Y-111769600D01*
X126013600Y-92549400D02*
X127959743Y-92549400D01*
X133492000Y-88138200D02*
X133492000Y-87794800D01*
X130552257Y-91532200D02*
X129764600Y-90744543D01*
X139098074Y-105475926D02*
X137184446Y-105475926D01*
X151053800Y-107801680D02*
X149082780Y-107801680D01*
X129764600Y-88049100D02*
X129764600Y-89738200D01*
X134142000Y-89149400D02*
X134142000Y-89738200D01*
X132537200Y-86840000D02*
X132204940Y-86840000D01*
X136194800Y-108602400D02*
X137521000Y-108602400D01*
X137591800Y-90322400D02*
X136382000Y-91532200D01*
X131103940Y-85739000D02*
X125744560Y-85739000D01*
X129764600Y-90744543D02*
X129764600Y-89738200D01*
X150328400Y-91262199D02*
X150573800Y-91507599D01*
X151384000Y-109778800D02*
X151053800Y-109778800D01*
X139090400Y-111785400D02*
X139090400Y-110871000D01*
X134142000Y-89738200D02*
X134142000Y-89165200D01*
X146334800Y-101220376D02*
X146334800Y-102029200D01*
X136787000Y-92481400D02*
X134341800Y-92481400D01*
X148494500Y-107213400D02*
X150266400Y-105441500D01*
X134792000Y-88499400D02*
X134142000Y-89149400D01*
X146334800Y-102029200D02*
X146334800Y-99802200D01*
X137521000Y-108602400D02*
X137998200Y-108125200D01*
X136909800Y-98604200D02*
X134315000Y-98604200D01*
X152095200Y-110490000D02*
X151384000Y-109778800D01*
X152095200Y-111836200D02*
X152095200Y-110490000D01*
X133492000Y-88515200D02*
X133492000Y-88138200D01*
X138682000Y-110464600D02*
X139090400Y-110873000D01*
X134142000Y-89165200D02*
X133492000Y-88515200D01*
X134315000Y-98604200D02*
X134279000Y-98640200D01*
X157504000Y-92000200D02*
X155378400Y-92000200D01*
X125018800Y-86464760D02*
X125018800Y-87630400D01*
X136194800Y-108602400D02*
X136728200Y-109135800D01*
X141551057Y-99957600D02*
X142671800Y-99957600D01*
X157962600Y-91541600D02*
X157504000Y-92000200D01*
X134661996Y-99654924D02*
X134264400Y-99257328D01*
X126013600Y-92180800D02*
X125730000Y-91897200D01*
X121357200Y-92393000D02*
X121513600Y-92549400D01*
X136909800Y-98604200D02*
X136953800Y-98648200D01*
X121357200Y-90855800D02*
X121357200Y-92393000D01*
X134341800Y-92481400D02*
X134279000Y-92544200D01*
X146334800Y-102029200D02*
X146334800Y-103157400D01*
X135199000Y-86360000D02*
X135199000Y-85577800D01*
X125018800Y-87630400D02*
X125437500Y-88049100D01*
X140292800Y-96503200D02*
X142671800Y-98882200D01*
X126013600Y-92549400D02*
X126013600Y-92180800D01*
X134264400Y-99257328D02*
X134264400Y-98654800D01*
X121513600Y-92549400D02*
X126013600Y-92549400D01*
X134532300Y-109185900D02*
X133253600Y-110464600D01*
X140241657Y-98648200D02*
X141551057Y-99957600D01*
X132204940Y-86840000D02*
X131103940Y-85739000D01*
X135199000Y-85577800D02*
X135382000Y-85394800D01*
X149739800Y-92604200D02*
X150573800Y-91770200D01*
X142671800Y-98882200D02*
X142671800Y-99957600D01*
X151053800Y-107801680D02*
X151053800Y-109778800D01*
X150266400Y-105441500D02*
X150266400Y-103098600D01*
X136728200Y-109135800D02*
X136728200Y-110464600D01*
X125437500Y-88049100D02*
X129764600Y-88049100D01*
X146334800Y-99802200D02*
X145440200Y-98907600D01*
X136953800Y-98648200D02*
X140241657Y-98648200D01*
X137718624Y-92604200D02*
X140292800Y-95178376D01*
X150573800Y-91507599D02*
X150573800Y-91770200D01*
X136728200Y-110464600D02*
X138682000Y-110464600D01*
X136382000Y-91532200D02*
X130552257Y-91532200D01*
X140053000Y-104521000D02*
X139098074Y-105475926D01*
X149082780Y-107801680D02*
X148494500Y-107213400D01*
X139834800Y-104302800D02*
X140053000Y-104521000D01*
X134532300Y-108764900D02*
X134532300Y-109185900D01*
X134792000Y-86767000D02*
X135199000Y-86360000D01*
X125744560Y-85739000D02*
X125018800Y-86464760D01*
X138834800Y-90679200D02*
X137948600Y-90679200D01*
X139834800Y-102029200D02*
X139834800Y-104302800D01*
X150328400Y-90906600D02*
X150328400Y-91262199D01*
X127959743Y-92549400D02*
X129764600Y-90744543D01*
X136909800Y-92604200D02*
X137718624Y-92604200D01*
X137948600Y-90679200D02*
X137591800Y-90322400D01*
%TO.N,/MCU/NRST*%
X126013600Y-89297400D02*
X124780200Y-90530800D01*
X121513600Y-89992200D02*
X122377200Y-90855800D01*
X126013600Y-89297400D02*
X126838600Y-89297400D01*
X134872715Y-95604200D02*
X136909800Y-95604200D01*
X134772715Y-95704200D02*
X134872715Y-95604200D01*
X121513600Y-89297400D02*
X126013600Y-89297400D01*
X126838600Y-89297400D02*
X128600200Y-91059000D01*
X121513600Y-89297400D02*
X121513600Y-89992200D01*
X124780200Y-90530800D02*
X124780200Y-90830400D01*
%TO.N,/MCU/OSC_IN*%
X133467160Y-93497900D02*
X132183000Y-93497900D01*
X130884700Y-92544200D02*
X130884700Y-94201600D01*
X136909800Y-94604200D02*
X134573460Y-94604200D01*
X130884700Y-94201600D02*
X131182000Y-94498900D01*
X134573460Y-94604200D02*
X133467160Y-93497900D01*
X132183000Y-93497900D02*
X131182000Y-94498900D01*
%TO.N,/MCU/OSC_OUT*%
X134476700Y-95104200D02*
X136909800Y-95104200D01*
X132882000Y-96698900D02*
X134476700Y-95104200D01*
X131844700Y-98653600D02*
X131844700Y-97736200D01*
X131844700Y-97736200D02*
X132882000Y-96698900D01*
%TO.N,Net-(C11-Pad2)*%
X121387200Y-96367600D02*
X121387200Y-97887000D01*
X121387200Y-97887000D02*
X121357200Y-97917000D01*
%TO.N,/MCU/BOOT0*%
X140834800Y-91586024D02*
X140834800Y-90679200D01*
X124750200Y-95962800D02*
X124750200Y-96367600D01*
X121513600Y-94699400D02*
X122347200Y-95533000D01*
X122347200Y-95533000D02*
X122347200Y-96367600D01*
X140487624Y-91933200D02*
X140834800Y-91586024D01*
X126560000Y-94699400D02*
X129326200Y-91933200D01*
X126013600Y-94699400D02*
X124750200Y-95962800D01*
X129326200Y-91933200D02*
X140487624Y-91933200D01*
X126013600Y-94699400D02*
X126560000Y-94699400D01*
X121513600Y-94699400D02*
X126013600Y-94699400D01*
%TO.N,+5V*%
X134065800Y-113650800D02*
X134065800Y-115006600D01*
X127334800Y-105505730D02*
X127813930Y-105026600D01*
X127334800Y-106163100D02*
X127334800Y-105505730D01*
X128634800Y-100438100D02*
X128634800Y-99381350D01*
X125384800Y-105505730D02*
X125384800Y-106163100D01*
X129674128Y-105026600D02*
X129772353Y-104928375D01*
X142103035Y-115052035D02*
X143736365Y-115052035D01*
X121567000Y-109369800D02*
X121567000Y-108432600D01*
X148870800Y-83203800D02*
X148870800Y-80697200D01*
X121564400Y-109372400D02*
X121567000Y-109369800D01*
X131334000Y-83985399D02*
X130686599Y-84632800D01*
X124084800Y-106900599D02*
X123163799Y-107821600D01*
X143736365Y-115052035D02*
X145142200Y-113646200D01*
X134065800Y-115006600D02*
X134061200Y-115011200D01*
X141782800Y-114731800D02*
X142103035Y-115052035D01*
X127334800Y-105425601D02*
X127334800Y-106163100D01*
X148870800Y-80697200D02*
X148869400Y-80695800D01*
X124084800Y-106163100D02*
X124084800Y-106900599D01*
X130686599Y-84632800D02*
X128473200Y-84632800D01*
X127813930Y-105026600D02*
X129674128Y-105026600D01*
X124385801Y-105124600D02*
X125003670Y-105124600D01*
X129387950Y-98628200D02*
X129410400Y-98628200D01*
X124084800Y-106163100D02*
X124084800Y-105425601D01*
X122178000Y-107821600D02*
X121567000Y-108432600D01*
X125003670Y-105124600D02*
X125384800Y-105505730D01*
X128634800Y-99381350D02*
X129387950Y-98628200D01*
X125685801Y-105124600D02*
X127033799Y-105124600D01*
X123163799Y-107821600D02*
X122178000Y-107821600D01*
X127162500Y-108432600D02*
X127334800Y-108260300D01*
X127033799Y-105124600D02*
X127334800Y-105425601D01*
X125384800Y-106163100D02*
X125384800Y-105425601D01*
X124084800Y-105425601D02*
X124385801Y-105124600D01*
X125384800Y-105425601D02*
X125685801Y-105124600D01*
X127334800Y-108260300D02*
X127334800Y-106163100D01*
X131334000Y-83210400D02*
X131334000Y-83985399D01*
%TO.N,Net-(C22-Pad2)*%
X131318000Y-110227600D02*
X129000250Y-110227600D01*
X129000250Y-110227600D02*
X129000250Y-112843850D01*
X129000250Y-112843850D02*
X129159000Y-113002600D01*
%TO.N,Net-(U5-VOUT)*%
X130411801Y-108677600D02*
X131318000Y-108677600D01*
X128634800Y-106163100D02*
X128634800Y-106900599D01*
X128634800Y-106900599D02*
X130411801Y-108677600D01*
%TO.N,Net-(U5-SAG)*%
X127984800Y-106163100D02*
X127984800Y-107662150D01*
X127984800Y-107662150D02*
X129000250Y-108677600D01*
%TO.N,Net-(U5-VIN)*%
X124674749Y-108402600D02*
X126034800Y-107042549D01*
X124364750Y-108402600D02*
X124674749Y-108402600D01*
X126034800Y-107042549D02*
X126034800Y-106163100D01*
%TO.N,/CONNECTORS/CAM_ANALOG*%
X124374550Y-109372400D02*
X124364750Y-109362600D01*
X123707200Y-109362600D02*
X122529000Y-110540800D01*
X124364750Y-109362600D02*
X123707200Y-109362600D01*
X125552200Y-109372400D02*
X124374550Y-109372400D01*
D45*
%TO.N,+10V*%
X146142200Y-113646200D02*
X146142200Y-111699800D01*
X146142200Y-111699800D02*
X144348200Y-109905800D01*
D46*
%TO.N,Net-(D1-A)*%
X158629800Y-108399800D02*
X156641800Y-106411800D01*
D45*
X155122800Y-102460534D02*
X154325334Y-103258000D01*
D46*
X156641800Y-106411800D02*
X156641800Y-101396800D01*
X156184600Y-100939600D02*
X155172800Y-100939600D01*
D45*
X154325334Y-98458000D02*
X155122800Y-99255466D01*
X155122800Y-99255466D02*
X155122800Y-102460534D01*
X153720800Y-98458000D02*
X154325334Y-98458000D01*
X154325334Y-103258000D02*
X153720800Y-103258000D01*
D46*
X156641800Y-101396800D02*
X156184600Y-100939600D01*
D44*
%TO.N,Net-(J1-D--PadA7)*%
X151563800Y-101827440D02*
X151783240Y-101608000D01*
X153720800Y-101608000D02*
X153036976Y-101608000D01*
X151783240Y-101608000D02*
X153720800Y-101608000D01*
X153036976Y-101608000D02*
X152769800Y-101340824D01*
X152769800Y-100875176D02*
X153036976Y-100608000D01*
X152769800Y-101340824D02*
X152769800Y-100875176D01*
X153036976Y-100608000D02*
X153720800Y-100608000D01*
%TO.N,Net-(J1-D+-PadA6)*%
X153720800Y-101108000D02*
X154404624Y-101108000D01*
X154671800Y-100840824D02*
X154671800Y-100375176D01*
X153720800Y-100108000D02*
X151911480Y-100108000D01*
X151911480Y-100108000D02*
X151563800Y-99760320D01*
X154404624Y-101108000D02*
X154671800Y-100840824D01*
X154671800Y-100375176D02*
X154404624Y-100108000D01*
X154404624Y-100108000D02*
X153720800Y-100108000D01*
%TO.N,Net-(J1-CC1)*%
X153720800Y-102108000D02*
X152956800Y-102108000D01*
X152956800Y-102108000D02*
X151053800Y-104011000D01*
%TO.N,Net-(J1-CC2)*%
X153720800Y-99108000D02*
X152418600Y-99108000D01*
X152418600Y-99108000D02*
X151053800Y-97743200D01*
%TO.N,/CONNECTORS/UART2_RX*%
X132164800Y-110701800D02*
X132164800Y-107154000D01*
X136829800Y-103987600D02*
X136876400Y-103987600D01*
X136065800Y-113650800D02*
X136065800Y-113053400D01*
X136876400Y-103987600D02*
X138834800Y-102029200D01*
X133832600Y-112369600D02*
X132164800Y-110701800D01*
X136065800Y-113053400D02*
X135382000Y-112369600D01*
X132164800Y-107154000D02*
X132283200Y-107035600D01*
X135382000Y-112369600D02*
X133832600Y-112369600D01*
%TO.N,/CONNECTORS/UART2_TX*%
X136906000Y-100634800D02*
X136906000Y-100108000D01*
X137065800Y-113650800D02*
X137065800Y-114425799D01*
X135737600Y-101803200D02*
X136906000Y-100634800D01*
X130429000Y-113309400D02*
X130429000Y-111836200D01*
X137065800Y-114425799D02*
X135718399Y-115773200D01*
X136906000Y-100108000D02*
X136909800Y-100104200D01*
X135718399Y-115773200D02*
X132892800Y-115773200D01*
X132892800Y-115773200D02*
X130429000Y-113309400D01*
%TO.N,/CONNECTORS/UART4_TX*%
X139141200Y-99952200D02*
X138293200Y-99104200D01*
X138293200Y-99104200D02*
X136909800Y-99104200D01*
%TO.N,/CONNECTORS/UART4_RX*%
X134721600Y-100558600D02*
X135676000Y-99604200D01*
X135676000Y-99604200D02*
X136909800Y-99604200D01*
%TO.N,/CONNECTORS/UART5_RX*%
X143834800Y-86329670D02*
X143834800Y-90679200D01*
X144635135Y-85529335D02*
X143834800Y-86329670D01*
X146431000Y-85521800D02*
X146456400Y-85521800D01*
X146870800Y-85107400D02*
X146870800Y-83203800D01*
X146456400Y-85521800D02*
X146870800Y-85107400D01*
%TO.N,/CONNECTORS/UART5_TX*%
X145870800Y-85142200D02*
X145870800Y-83203800D01*
X144334800Y-90679200D02*
X144334800Y-86678200D01*
X144334800Y-86678200D02*
X145870800Y-85142200D01*
%TO.N,/CONNECTORS/VIDEO*%
X129159000Y-114022600D02*
X131316000Y-116179600D01*
X148142200Y-114849400D02*
X148142200Y-113646200D01*
X131316000Y-116179600D02*
X146812000Y-116179600D01*
X146812000Y-116179600D02*
X148142200Y-114849400D01*
%TO.N,/CONNECTORS/UART3_TX*%
X144043400Y-104495600D02*
X144043400Y-103962200D01*
X144043400Y-103962200D02*
X144834800Y-103170800D01*
X149142200Y-112871201D02*
X148310399Y-112039400D01*
X149142200Y-113646200D02*
X149142200Y-112871201D01*
X148310399Y-112039400D02*
X147574000Y-112039400D01*
X144834800Y-103170800D02*
X144834800Y-102029200D01*
%TO.N,/CONNECTORS/SWCLK*%
X146334800Y-90679200D02*
X148013800Y-89000200D01*
X148013800Y-89000200D02*
X155378400Y-89000200D01*
%TO.N,/CONNECTORS/SWDIO*%
X150149450Y-93604200D02*
X150499850Y-93954600D01*
X151607750Y-93954600D02*
X153238200Y-92324150D01*
X154603401Y-90000200D02*
X155378400Y-90000200D01*
X150499850Y-93954600D02*
X151607750Y-93954600D01*
X148259800Y-93604200D02*
X150149450Y-93604200D01*
X153238200Y-92324150D02*
X153238200Y-91365401D01*
X153238200Y-91365401D02*
X154603401Y-90000200D01*
%TO.N,Net-(J8-Pin_3)*%
X130334000Y-83210400D02*
X130334000Y-82435401D01*
X132053001Y-80716400D02*
X136987000Y-80716400D01*
X130334000Y-82435401D02*
X132053001Y-80716400D01*
X136987000Y-80716400D02*
X137287000Y-80416400D01*
%TO.N,/CONNECTORS/UART3_RX*%
X144957800Y-104648000D02*
X144957800Y-103614900D01*
X145334800Y-103237900D02*
X145334800Y-102029200D01*
X144957800Y-103614900D02*
X145334800Y-103237900D01*
%TO.N,/CONNECTORS/MOTOR4*%
X149372800Y-96627033D02*
X148282633Y-96627033D01*
X148282633Y-96627033D02*
X148259800Y-96604200D01*
%TO.N,/CONNECTORS/MOTOR3*%
X140893800Y-95504000D02*
X142494000Y-97104200D01*
X142494000Y-97104200D02*
X148259800Y-97104200D01*
%TO.N,/CONNECTORS/MOTOR2*%
X148282633Y-95627033D02*
X148259800Y-95604200D01*
X149372801Y-95627033D02*
X148282633Y-95627033D01*
%TO.N,/CONNECTORS/UART1_RX*%
X140970000Y-87528400D02*
X141554200Y-86944200D01*
X141334800Y-89112400D02*
X140970000Y-88747600D01*
X140970000Y-88747600D02*
X140970000Y-87528400D01*
X141334800Y-90679200D02*
X141334800Y-89112400D01*
%TO.N,/CONNECTORS/MOTOR1*%
X146318488Y-95266074D02*
X147156614Y-96104200D01*
X147156614Y-96104200D02*
X148259800Y-96104200D01*
%TO.N,/CONNECTORS/ADC_CURR*%
X139522200Y-98247200D02*
X138879200Y-97604200D01*
X138879200Y-97604200D02*
X136909800Y-97604200D01*
X140690600Y-98247200D02*
X139522200Y-98247200D01*
%TO.N,Net-(Q1-B)*%
X139162000Y-81366400D02*
X138430000Y-82098400D01*
X135458200Y-83132200D02*
X138430000Y-83132200D01*
X138430000Y-82098400D02*
X138430000Y-83132200D01*
%TO.N,/CONNECTORS/UART6_RX*%
X143594200Y-97604200D02*
X148259800Y-97604200D01*
X143281400Y-97917000D02*
X143594200Y-97604200D01*
%TO.N,/MCU/BOOT1*%
X144334800Y-102856000D02*
X143179800Y-104011000D01*
X144334800Y-102029200D02*
X144334800Y-102856000D01*
%TO.N,/MCU/I2C1_SDA*%
X139014200Y-88722200D02*
X137012450Y-88722200D01*
X132893000Y-88689200D02*
X133492000Y-89288200D01*
X131424700Y-88689200D02*
X132893000Y-88689200D01*
X139834800Y-90679200D02*
X139834800Y-89542800D01*
X130784600Y-88049100D02*
X131424700Y-88689200D01*
X133666000Y-90289200D02*
X133492000Y-90115200D01*
X133492000Y-90115200D02*
X133492000Y-89738200D01*
X137012450Y-88722200D02*
X135445450Y-90289200D01*
X139834800Y-89542800D02*
X139014200Y-88722200D01*
X135445450Y-90289200D02*
X133666000Y-90289200D01*
X133492000Y-89288200D02*
X133492000Y-89738200D01*
%TO.N,Net-(U3-SDO)*%
X132842000Y-88138200D02*
X132283400Y-88138200D01*
X132283400Y-88138200D02*
X130784600Y-86639400D01*
X130784600Y-86639400D02*
X130784600Y-86360000D01*
%TO.N,/MCU/I2C1_SCL*%
X136779000Y-86927000D02*
X139098600Y-86927000D01*
X133543000Y-90889200D02*
X132842000Y-90188200D01*
X132842000Y-90188200D02*
X132842000Y-89738200D01*
X130784600Y-89738200D02*
X132842000Y-89738200D01*
X139098600Y-86927000D02*
X140334800Y-88163200D01*
X140334800Y-88163200D02*
X140334800Y-90679200D01*
X135077200Y-90889200D02*
X133543000Y-90889200D01*
%TO.N,Net-(U4-~{WP}{slash}IO_{2})*%
X139190000Y-109753400D02*
X139090400Y-109853000D01*
X141319500Y-109753400D02*
X139190000Y-109753400D01*
%TO.N,Net-(U4-~{HOLD}{slash}~{RESET}{slash}IO_{3})*%
X151053800Y-110719140D02*
X151053800Y-110798800D01*
X148494500Y-108483400D02*
X148818060Y-108483400D01*
X148818060Y-108483400D02*
X151053800Y-110719140D01*
%TO.N,/MCU/ADC_VBAT*%
X136909800Y-96604200D02*
X137736200Y-96604200D01*
X137736200Y-96604200D02*
X138404600Y-95935800D01*
%TO.N,/CONNECTORS/USB_DN*%
X149773000Y-94604200D02*
X149972800Y-94804000D01*
X149972800Y-101256440D02*
X150543800Y-101827440D01*
X149972800Y-94804000D02*
X149972800Y-101256440D01*
X148259800Y-94604200D02*
X149773000Y-94604200D01*
%TO.N,/CONNECTORS/USB_DP*%
X149908000Y-94104200D02*
X148259800Y-94104200D01*
X150432800Y-94629000D02*
X149908000Y-94104200D01*
X150432800Y-99649320D02*
X150432800Y-94629000D01*
X150543800Y-99760320D02*
X150432800Y-99649320D01*
%TO.N,/CONNECTORS/BEEPER*%
X136169400Y-84863400D02*
X135458200Y-84152200D01*
X136169400Y-87782400D02*
X136169400Y-84863400D01*
X136398000Y-88011000D02*
X136169400Y-87782400D01*
X136398000Y-88315800D02*
X136398000Y-88011000D01*
X135820448Y-93104200D02*
X136909800Y-93104200D01*
%TO.N,/FLASH/FLASH_MISO*%
X148259800Y-99104200D02*
X147450976Y-99104200D01*
X148753200Y-104403750D02*
X147466300Y-105690650D01*
X147466300Y-105690650D02*
X141369760Y-105690650D01*
X140512800Y-108483400D02*
X141319500Y-108483400D01*
X148753200Y-102195000D02*
X148753200Y-104403750D01*
X147450976Y-99104200D02*
X147183800Y-99371376D01*
X147183800Y-99371376D02*
X147183800Y-100625600D01*
X141369760Y-105690650D02*
X140206000Y-106854410D01*
X147183800Y-100625600D02*
X148753200Y-102195000D01*
X140206000Y-108176600D02*
X140512800Y-108483400D01*
X140206000Y-106854410D02*
X140206000Y-108176600D01*
%TO.N,/MCU/GYRO_MISO*%
X141351000Y-104216200D02*
X141334800Y-104200000D01*
X133869800Y-107102400D02*
X133869800Y-106319370D01*
X141334800Y-104200000D02*
X141334800Y-102029200D01*
X133869800Y-106319370D02*
X134737685Y-105451485D01*
%TO.N,/FLASH/FLASH_MOSI*%
X148158200Y-102543776D02*
X146782800Y-101168376D01*
X148153200Y-103759000D02*
X148158200Y-103754000D01*
X146782800Y-101168376D02*
X146782800Y-99205276D01*
X147383876Y-98604200D02*
X148259800Y-98604200D01*
X148158200Y-103754000D02*
X148158200Y-102543776D01*
X149892665Y-110406535D02*
X149275800Y-111023400D01*
X146782800Y-99205276D02*
X147383876Y-98604200D01*
X149275800Y-111023400D02*
X148494500Y-111023400D01*
%TO.N,/MCU/OSD_MISO*%
X128397000Y-94681140D02*
X128397000Y-94157800D01*
X143739824Y-92583000D02*
X144834800Y-91488024D01*
X128397000Y-94157800D02*
X129641600Y-92913200D01*
X123434800Y-99643340D02*
X128397000Y-94681140D01*
X143179800Y-92583000D02*
X143739824Y-92583000D01*
X144834800Y-91488024D02*
X144834800Y-90679200D01*
X123434800Y-100438100D02*
X123434800Y-99643340D01*
%TO.N,/FLASH/FLASH_SS*%
X142441250Y-106091650D02*
X141319500Y-107213400D01*
X149154200Y-100998600D02*
X149154200Y-104642600D01*
X148259800Y-100104200D02*
X149154200Y-100998600D01*
X147705150Y-106091650D02*
X142441250Y-106091650D01*
X149154200Y-104642600D02*
X147705150Y-106091650D01*
%TO.N,/FLASH/FLASH_SCLK*%
X147920600Y-106587400D02*
X149555200Y-104952800D01*
X149068624Y-99604200D02*
X148259800Y-99604200D01*
X147648010Y-106587400D02*
X147920600Y-106587400D01*
X149555200Y-100090776D02*
X149068624Y-99604200D01*
X149555200Y-104952800D02*
X149555200Y-100090776D01*
X147682001Y-109753400D02*
X147381000Y-109452399D01*
X147381000Y-109452399D02*
X147381000Y-106854410D01*
X148494500Y-109753400D02*
X147682001Y-109753400D01*
X147381000Y-106854410D02*
X147648010Y-106587400D01*
%TO.N,/MCU/GYRO_SCLK*%
X135056300Y-106915900D02*
X135056300Y-106551552D01*
X136037000Y-103518176D02*
X138601976Y-100953200D01*
X138601976Y-100953200D02*
X140567624Y-100953200D01*
X135056300Y-106551552D02*
X135281452Y-106326400D01*
X135281452Y-106326400D02*
X135281452Y-106323348D01*
X140567624Y-100953200D02*
X140834800Y-101220376D01*
X135281452Y-106323348D02*
X136037000Y-105567800D01*
X136037000Y-105567800D02*
X136037000Y-103518176D01*
X140834800Y-101220376D02*
X140834800Y-102029200D01*
X135032300Y-106939900D02*
X135056300Y-106915900D01*
%TO.N,/MCU/OSD_MOSI*%
X142163800Y-95656400D02*
X142334800Y-95485400D01*
X142334800Y-95485400D02*
X142334800Y-90679200D01*
X124734800Y-99700601D02*
X124734800Y-100438100D01*
X128144515Y-96572315D02*
X127863086Y-96572315D01*
X127863086Y-96572315D02*
X124734800Y-99700601D01*
%TO.N,/MCU/GYRO_SS*%
X135532300Y-106809100D02*
X135532300Y-106939900D01*
X140334800Y-102029200D02*
X140334800Y-103865250D01*
X140634000Y-104877550D02*
X138958550Y-106553000D01*
X140334800Y-103865250D02*
X140634000Y-104164450D01*
X135788400Y-106553000D02*
X135532300Y-106809100D01*
X138958550Y-106553000D02*
X135788400Y-106553000D01*
X140634000Y-104164450D02*
X140634000Y-104877550D01*
%TO.N,/MCU/OSD_SCLK*%
X124468701Y-99399600D02*
X124465930Y-99399600D01*
X124465930Y-99399600D02*
X124233800Y-99631730D01*
X127883600Y-95992000D02*
X127876301Y-95992000D01*
X129997200Y-93878400D02*
X127883600Y-95992000D01*
X124084800Y-99790800D02*
X124084800Y-100438100D01*
X127876301Y-95992000D02*
X124468701Y-99399600D01*
X124233800Y-99641800D02*
X124084800Y-99790800D01*
X145334800Y-91850400D02*
X145334800Y-90679200D01*
X143738600Y-93446600D02*
X145334800Y-91850400D01*
X124233800Y-99631730D02*
X124233800Y-99641800D01*
%TO.N,/MCU/GYRO_MOSI*%
X135636000Y-105401700D02*
X134532300Y-106505400D01*
X135636000Y-103352076D02*
X135636000Y-105401700D01*
X141834800Y-102029200D02*
X141834800Y-101220376D01*
X141166624Y-100552200D02*
X138435876Y-100552200D01*
X138435876Y-100552200D02*
X135636000Y-103352076D01*
X134532300Y-106505400D02*
X134532300Y-106939900D01*
X141834800Y-101220376D02*
X141166624Y-100552200D01*
%TO.N,/MCU/GYRO_INT*%
X142334800Y-104096000D02*
X139039600Y-107391200D01*
X133852400Y-108585000D02*
X133869800Y-108602400D01*
X139039600Y-108051600D02*
X137845800Y-109245400D01*
X139039600Y-107391200D02*
X139039600Y-108051600D01*
X132765800Y-108991400D02*
X133172200Y-108585000D01*
X142334800Y-102029200D02*
X142334800Y-104096000D01*
X133172200Y-108585000D02*
X133852400Y-108585000D01*
%TO.N,/MCU/OSD_SS*%
X125384800Y-99700601D02*
X125384800Y-100438100D01*
X145514000Y-94272330D02*
X145834800Y-93951530D01*
X127727201Y-97358200D02*
X125384800Y-99700601D01*
X145834800Y-93951530D02*
X145834800Y-90679200D01*
X129641600Y-97358200D02*
X127727201Y-97358200D01*
%TO.N,Net-(U5-CLKIN)*%
X133060200Y-103256200D02*
X134061200Y-104257200D01*
X131974040Y-103256200D02*
X133060200Y-103256200D01*
X127334800Y-101175599D02*
X127733801Y-101574600D01*
X130292440Y-101574600D02*
X131974040Y-103256200D01*
X127733801Y-101574600D02*
X130292440Y-101574600D01*
X127334800Y-100438100D02*
X127334800Y-101175599D01*
%TO.N,Net-(U5-XFB)*%
X130149600Y-99145600D02*
X130149600Y-98429850D01*
X132361200Y-101357200D02*
X130149600Y-99145600D01*
X126684800Y-99456250D02*
X126684800Y-100438100D01*
X132361200Y-102057200D02*
X132361200Y-101357200D01*
X129736950Y-98017200D02*
X128123850Y-98017200D01*
X130149600Y-98429850D02*
X129736950Y-98017200D01*
X128123850Y-98017200D02*
X126684800Y-99456250D01*
%TD*%
M02*
