M48
; DRILL file {KiCad 9.0.4} date 2025-08-18T21:08:23+0800
; FORMAT={-:-/ absolute / metric / decimal}
; #@! TF.CreationDate,2025-08-18T21:08:23+08:00
; #@! TF.GenerationSoftware,Kicad,Pcbnew,9.0.4
; #@! TF.FileFunction,Plated,1,4,PTH
FMAT,2
METRIC
; #@! TA.AperFunction,Plated,PTH,ViaDrill
T1C0.300
; #@! TA.AperFunction,Plated,PTH,ComponentDrill
T2C0.600
%
G90
G05
T1
X121.412Y-112.319
X121.514Y-87.147
X121.564Y-109.372
X123.04Y-91.696
X125.552Y-109.372
X125.71Y-103.301
X125.73Y-91.897
X126.014Y-87.147
X127.152Y-110.998
X127.508Y-94.615
X128.145Y-96.572
X128.45Y-98.628
X128.473Y-84.633
X128.6Y-91.059
X129.034Y-79.335
X129.41Y-98.628
X129.642Y-92.913
X129.642Y-97.358
X129.769Y-117.526
X129.772Y-104.928
X129.997Y-93.878
X130.429Y-111.836
X131.547Y-85.166
X132.283Y-107.036
X132.588Y-100.33
X132.588Y-112.014
X132.766Y-108.991
X132.766Y-117.526
X133.634Y-79.335
X134.061Y-115.011
X134.239Y-86.36
X134.662Y-99.655
X134.722Y-100.559
X134.738Y-105.451
X134.773Y-95.704
X134.955Y-93.187
X134.976Y-111.1
X135.052Y-115.011
X135.077Y-90.889
X135.369Y-117.526
X135.382Y-85.395
X135.533Y-87.324
X135.738Y-101.803
X135.82Y-93.104
X135.89Y-111.77
X136.398Y-88.316
X136.497Y-105.953
X136.779Y-86.927
X136.83Y-103.988
X137.135Y-107.163
X137.184Y-105.476
X137.235Y-104.678
X137.592Y-89.362
X137.846Y-109.245
X138.366Y-117.526
X138.405Y-95.936
X139.09Y-110.871
X139.09Y-111.785
X139.141Y-99.952
X139.162Y-79.466
X139.776Y-85.877
X139.797Y-112.543
X140.691Y-98.247
X140.894Y-95.504
X141.326Y-113.436
X141.351Y-104.216
X141.554Y-86.944
X141.638Y-92.896
X141.783Y-114.732
X141.986Y-85.649
X142.164Y-95.656
X142.245Y-105.034
X142.672Y-100.559
X142.85Y-117.526
X142.875Y-84.582
X143.154Y-86.081
X143.18Y-92.583
X143.281Y-97.917
X143.739Y-93.447
X143.842Y-117.521
X144.043Y-104.496
X144.348Y-109.906
X144.571Y-79.329
X144.635Y-85.529
X144.958Y-104.648
X145.44Y-98.908
X145.514Y-94.272
X145.821Y-86.335
X146.05Y-115.239
X146.318Y-95.266
X146.431Y-85.522
X146.583Y-108.788
X147.574Y-112.039
X147.871Y-83.204
X148.153Y-103.759
X148.869Y-80.696
X149.373Y-96.627
X149.373Y-95.627
X149.893Y-110.407
X150.171Y-79.329
X150.266Y-103.099
X150.328Y-90.907
X150.442Y-117.521
X152.064Y-96.627
X152.095Y-111.836
X152.451Y-91.211
X152.832Y-94.412
X153.314Y-88.316
X154.63Y-108.4
X155.378Y-91.0
X155.378Y-92.0
X157.963Y-91.542
X159.253Y-87.7
X159.253Y-93.3
T2
G00X153.811Y-96.538
M15
G01X154.911Y-96.538
M16
G05
G00X153.811Y-105.178
M15
G01X154.911Y-105.178
M16
G05
G00X158.241Y-96.538
M15
G01X158.841Y-96.538
M16
G05
G00X158.241Y-105.178
M15
G01X158.841Y-105.178
M16
G05
M30
