%TF.GenerationSoftware,KiCad,Pcbnew,9.0.4*%
%TF.CreationDate,2025-08-18T21:08:18+08:00*%
%TF.ProjectId,tinybee-1.0,74696e79-6265-4652-9d31-2e302e6b6963,rev?*%
%TF.SameCoordinates,Original*%
%TF.FileFunction,Legend,Top*%
%TF.FilePolarity,Positive*%
%FSLAX46Y46*%
G04 Gerber Fmt 4.6, Leading zero omitted, Abs format (unit mm)*
G04 Created by KiCad (PCBNEW 9.0.4) date 2025-08-18 21:08:18*
%MOMM*%
%LPD*%
G01*
G04 APERTURE LIST*
%ADD10C,0.100000*%
%ADD11C,0.150000*%
%ADD12C,0.120000*%
G04 APERTURE END LIST*
D10*
X132461000Y-108966000D02*
X132461000Y-106959400D01*
X136042400Y-105968800D02*
X135610600Y-105537000D01*
X133883400Y-105968800D02*
X136042400Y-105968800D01*
X132791200Y-105943400D02*
G75*
G02*
X132181600Y-105943400I-304800J0D01*
G01*
X132181600Y-105943400D02*
G75*
G02*
X132791200Y-105943400I304800J0D01*
G01*
X132461000Y-106959400D02*
X132003800Y-107416600D01*
X142985227Y-86299219D02*
X143556655Y-86299219D01*
X143270941Y-87299219D02*
X143270941Y-86299219D01*
X143889989Y-87299219D02*
X143889989Y-86299219D01*
X144366179Y-87299219D02*
X144366179Y-86299219D01*
X144366179Y-86299219D02*
X144937607Y-87299219D01*
X144937607Y-87299219D02*
X144937607Y-86299219D01*
X145604274Y-86823028D02*
X145604274Y-87299219D01*
X145270941Y-86299219D02*
X145604274Y-86823028D01*
X145604274Y-86823028D02*
X145937607Y-86299219D01*
X146604274Y-86775409D02*
X146747131Y-86823028D01*
X146747131Y-86823028D02*
X146794750Y-86870647D01*
X146794750Y-86870647D02*
X146842369Y-86965885D01*
X146842369Y-86965885D02*
X146842369Y-87108742D01*
X146842369Y-87108742D02*
X146794750Y-87203980D01*
X146794750Y-87203980D02*
X146747131Y-87251600D01*
X146747131Y-87251600D02*
X146651893Y-87299219D01*
X146651893Y-87299219D02*
X146270941Y-87299219D01*
X146270941Y-87299219D02*
X146270941Y-86299219D01*
X146270941Y-86299219D02*
X146604274Y-86299219D01*
X146604274Y-86299219D02*
X146699512Y-86346838D01*
X146699512Y-86346838D02*
X146747131Y-86394457D01*
X146747131Y-86394457D02*
X146794750Y-86489695D01*
X146794750Y-86489695D02*
X146794750Y-86584933D01*
X146794750Y-86584933D02*
X146747131Y-86680171D01*
X146747131Y-86680171D02*
X146699512Y-86727790D01*
X146699512Y-86727790D02*
X146604274Y-86775409D01*
X146604274Y-86775409D02*
X146270941Y-86775409D01*
X147270941Y-86775409D02*
X147604274Y-86775409D01*
X147747131Y-87299219D02*
X147270941Y-87299219D01*
X147270941Y-87299219D02*
X147270941Y-86299219D01*
X147270941Y-86299219D02*
X147747131Y-86299219D01*
X148175703Y-86775409D02*
X148509036Y-86775409D01*
X148651893Y-87299219D02*
X148175703Y-87299219D01*
X148175703Y-87299219D02*
X148175703Y-86299219D01*
X148175703Y-86299219D02*
X148651893Y-86299219D01*
X149747132Y-86632552D02*
X149985227Y-87299219D01*
X149985227Y-87299219D02*
X150223322Y-86632552D01*
X151128084Y-87299219D02*
X150556656Y-87299219D01*
X150842370Y-87299219D02*
X150842370Y-86299219D01*
X150842370Y-86299219D02*
X150747132Y-86442076D01*
X150747132Y-86442076D02*
X150651894Y-86537314D01*
X150651894Y-86537314D02*
X150556656Y-86584933D01*
X151556656Y-87203980D02*
X151604275Y-87251600D01*
X151604275Y-87251600D02*
X151556656Y-87299219D01*
X151556656Y-87299219D02*
X151509037Y-87251600D01*
X151509037Y-87251600D02*
X151556656Y-87203980D01*
X151556656Y-87203980D02*
X151556656Y-87299219D01*
X152223322Y-86299219D02*
X152318560Y-86299219D01*
X152318560Y-86299219D02*
X152413798Y-86346838D01*
X152413798Y-86346838D02*
X152461417Y-86394457D01*
X152461417Y-86394457D02*
X152509036Y-86489695D01*
X152509036Y-86489695D02*
X152556655Y-86680171D01*
X152556655Y-86680171D02*
X152556655Y-86918266D01*
X152556655Y-86918266D02*
X152509036Y-87108742D01*
X152509036Y-87108742D02*
X152461417Y-87203980D01*
X152461417Y-87203980D02*
X152413798Y-87251600D01*
X152413798Y-87251600D02*
X152318560Y-87299219D01*
X152318560Y-87299219D02*
X152223322Y-87299219D01*
X152223322Y-87299219D02*
X152128084Y-87251600D01*
X152128084Y-87251600D02*
X152080465Y-87203980D01*
X152080465Y-87203980D02*
X152032846Y-87108742D01*
X152032846Y-87108742D02*
X151985227Y-86918266D01*
X151985227Y-86918266D02*
X151985227Y-86680171D01*
X151985227Y-86680171D02*
X152032846Y-86489695D01*
X152032846Y-86489695D02*
X152080465Y-86394457D01*
X152080465Y-86394457D02*
X152128084Y-86346838D01*
X152128084Y-86346838D02*
X152223322Y-86299219D01*
D11*
X157424971Y-117605263D02*
X156616849Y-116797141D01*
X156993973Y-116527766D02*
X157748220Y-116904890D01*
X157748220Y-116904890D02*
X157371096Y-116150643D01*
X158448592Y-116581641D02*
X157640470Y-115773519D01*
X158017594Y-115504145D02*
X158340843Y-115180896D01*
X158744904Y-115908206D02*
X158179218Y-115342521D01*
X158475530Y-115046209D02*
X158825716Y-114696023D01*
X158825716Y-114696023D02*
X158852653Y-115100084D01*
X158852653Y-115100084D02*
X158933466Y-115019272D01*
X158933466Y-115019272D02*
X159014278Y-114992334D01*
X159014278Y-114992334D02*
X159068153Y-114992334D01*
X159068153Y-114992334D02*
X159148965Y-115019272D01*
X159148965Y-115019272D02*
X159283652Y-115153959D01*
X159283652Y-115153959D02*
X159310589Y-115234771D01*
X159310589Y-115234771D02*
X159310589Y-115288646D01*
X159310589Y-115288646D02*
X159283652Y-115369458D01*
X159283652Y-115369458D02*
X159122027Y-115531082D01*
X159122027Y-115531082D02*
X159041215Y-115558020D01*
X159041215Y-115558020D02*
X158987340Y-115558020D01*
X132750169Y-107564961D02*
X132940645Y-108098295D01*
X133131122Y-107564961D02*
X132940645Y-108098295D01*
X132940645Y-108098295D02*
X132864455Y-108288771D01*
X132864455Y-108288771D02*
X132826360Y-108326866D01*
X132826360Y-108326866D02*
X132750169Y-108364961D01*
X120772895Y-88661696D02*
X120391942Y-88928363D01*
X120772895Y-89118839D02*
X119972895Y-89118839D01*
X119972895Y-89118839D02*
X119972895Y-88814077D01*
X119972895Y-88814077D02*
X120010990Y-88737887D01*
X120010990Y-88737887D02*
X120049085Y-88699792D01*
X120049085Y-88699792D02*
X120125276Y-88661696D01*
X120125276Y-88661696D02*
X120239561Y-88661696D01*
X120239561Y-88661696D02*
X120315752Y-88699792D01*
X120315752Y-88699792D02*
X120353847Y-88737887D01*
X120353847Y-88737887D02*
X120391942Y-88814077D01*
X120391942Y-88814077D02*
X120391942Y-89118839D01*
X120734800Y-88356935D02*
X120772895Y-88242649D01*
X120772895Y-88242649D02*
X120772895Y-88052173D01*
X120772895Y-88052173D02*
X120734800Y-87975982D01*
X120734800Y-87975982D02*
X120696704Y-87937887D01*
X120696704Y-87937887D02*
X120620514Y-87899792D01*
X120620514Y-87899792D02*
X120544323Y-87899792D01*
X120544323Y-87899792D02*
X120468133Y-87937887D01*
X120468133Y-87937887D02*
X120430038Y-87975982D01*
X120430038Y-87975982D02*
X120391942Y-88052173D01*
X120391942Y-88052173D02*
X120353847Y-88204554D01*
X120353847Y-88204554D02*
X120315752Y-88280744D01*
X120315752Y-88280744D02*
X120277657Y-88318839D01*
X120277657Y-88318839D02*
X120201466Y-88356935D01*
X120201466Y-88356935D02*
X120125276Y-88356935D01*
X120125276Y-88356935D02*
X120049085Y-88318839D01*
X120049085Y-88318839D02*
X120010990Y-88280744D01*
X120010990Y-88280744D02*
X119972895Y-88204554D01*
X119972895Y-88204554D02*
X119972895Y-88014077D01*
X119972895Y-88014077D02*
X120010990Y-87899792D01*
X119972895Y-87671220D02*
X119972895Y-87214077D01*
X120772895Y-87442649D02*
X119972895Y-87442649D01*
X151482674Y-79104295D02*
X151939817Y-79104295D01*
X151711245Y-79904295D02*
X151711245Y-79104295D01*
X152587436Y-79104295D02*
X152206484Y-79104295D01*
X152206484Y-79104295D02*
X152168388Y-79485247D01*
X152168388Y-79485247D02*
X152206484Y-79447152D01*
X152206484Y-79447152D02*
X152282674Y-79409057D01*
X152282674Y-79409057D02*
X152473150Y-79409057D01*
X152473150Y-79409057D02*
X152549341Y-79447152D01*
X152549341Y-79447152D02*
X152587436Y-79485247D01*
X152587436Y-79485247D02*
X152625531Y-79561438D01*
X152625531Y-79561438D02*
X152625531Y-79751914D01*
X152625531Y-79751914D02*
X152587436Y-79828104D01*
X152587436Y-79828104D02*
X152549341Y-79866200D01*
X152549341Y-79866200D02*
X152473150Y-79904295D01*
X152473150Y-79904295D02*
X152282674Y-79904295D01*
X152282674Y-79904295D02*
X152206484Y-79866200D01*
X152206484Y-79866200D02*
X152168388Y-79828104D01*
X153158865Y-80170961D02*
X153158865Y-79028104D01*
X154187437Y-79904295D02*
X153920770Y-79523342D01*
X153730294Y-79904295D02*
X153730294Y-79104295D01*
X153730294Y-79104295D02*
X154035056Y-79104295D01*
X154035056Y-79104295D02*
X154111246Y-79142390D01*
X154111246Y-79142390D02*
X154149341Y-79180485D01*
X154149341Y-79180485D02*
X154187437Y-79256676D01*
X154187437Y-79256676D02*
X154187437Y-79370961D01*
X154187437Y-79370961D02*
X154149341Y-79447152D01*
X154149341Y-79447152D02*
X154111246Y-79485247D01*
X154111246Y-79485247D02*
X154035056Y-79523342D01*
X154035056Y-79523342D02*
X153730294Y-79523342D01*
X154911246Y-79104295D02*
X154530294Y-79104295D01*
X154530294Y-79104295D02*
X154492198Y-79485247D01*
X154492198Y-79485247D02*
X154530294Y-79447152D01*
X154530294Y-79447152D02*
X154606484Y-79409057D01*
X154606484Y-79409057D02*
X154796960Y-79409057D01*
X154796960Y-79409057D02*
X154873151Y-79447152D01*
X154873151Y-79447152D02*
X154911246Y-79485247D01*
X154911246Y-79485247D02*
X154949341Y-79561438D01*
X154949341Y-79561438D02*
X154949341Y-79751914D01*
X154949341Y-79751914D02*
X154911246Y-79828104D01*
X154911246Y-79828104D02*
X154873151Y-79866200D01*
X154873151Y-79866200D02*
X154796960Y-79904295D01*
X154796960Y-79904295D02*
X154606484Y-79904295D01*
X154606484Y-79904295D02*
X154530294Y-79866200D01*
X154530294Y-79866200D02*
X154492198Y-79828104D01*
X155482675Y-80170961D02*
X155482675Y-79028104D01*
X156473151Y-79142390D02*
X156396961Y-79104295D01*
X156396961Y-79104295D02*
X156282675Y-79104295D01*
X156282675Y-79104295D02*
X156168389Y-79142390D01*
X156168389Y-79142390D02*
X156092199Y-79218580D01*
X156092199Y-79218580D02*
X156054104Y-79294771D01*
X156054104Y-79294771D02*
X156016008Y-79447152D01*
X156016008Y-79447152D02*
X156016008Y-79561438D01*
X156016008Y-79561438D02*
X156054104Y-79713819D01*
X156054104Y-79713819D02*
X156092199Y-79790009D01*
X156092199Y-79790009D02*
X156168389Y-79866200D01*
X156168389Y-79866200D02*
X156282675Y-79904295D01*
X156282675Y-79904295D02*
X156358866Y-79904295D01*
X156358866Y-79904295D02*
X156473151Y-79866200D01*
X156473151Y-79866200D02*
X156511247Y-79828104D01*
X156511247Y-79828104D02*
X156511247Y-79561438D01*
X156511247Y-79561438D02*
X156358866Y-79561438D01*
X157044580Y-80170961D02*
X157044580Y-79028104D01*
X157996961Y-79104295D02*
X157616009Y-79104295D01*
X157616009Y-79104295D02*
X157577913Y-79485247D01*
X157577913Y-79485247D02*
X157616009Y-79447152D01*
X157616009Y-79447152D02*
X157692199Y-79409057D01*
X157692199Y-79409057D02*
X157882675Y-79409057D01*
X157882675Y-79409057D02*
X157958866Y-79447152D01*
X157958866Y-79447152D02*
X157996961Y-79485247D01*
X157996961Y-79485247D02*
X158035056Y-79561438D01*
X158035056Y-79561438D02*
X158035056Y-79751914D01*
X158035056Y-79751914D02*
X157996961Y-79828104D01*
X157996961Y-79828104D02*
X157958866Y-79866200D01*
X157958866Y-79866200D02*
X157882675Y-79904295D01*
X157882675Y-79904295D02*
X157692199Y-79904295D01*
X157692199Y-79904295D02*
X157616009Y-79866200D01*
X157616009Y-79866200D02*
X157577913Y-79828104D01*
X120353847Y-93830573D02*
X120391942Y-93716287D01*
X120391942Y-93716287D02*
X120430038Y-93678192D01*
X120430038Y-93678192D02*
X120506228Y-93640096D01*
X120506228Y-93640096D02*
X120620514Y-93640096D01*
X120620514Y-93640096D02*
X120696704Y-93678192D01*
X120696704Y-93678192D02*
X120734800Y-93716287D01*
X120734800Y-93716287D02*
X120772895Y-93792477D01*
X120772895Y-93792477D02*
X120772895Y-94097239D01*
X120772895Y-94097239D02*
X119972895Y-94097239D01*
X119972895Y-94097239D02*
X119972895Y-93830573D01*
X119972895Y-93830573D02*
X120010990Y-93754382D01*
X120010990Y-93754382D02*
X120049085Y-93716287D01*
X120049085Y-93716287D02*
X120125276Y-93678192D01*
X120125276Y-93678192D02*
X120201466Y-93678192D01*
X120201466Y-93678192D02*
X120277657Y-93716287D01*
X120277657Y-93716287D02*
X120315752Y-93754382D01*
X120315752Y-93754382D02*
X120353847Y-93830573D01*
X120353847Y-93830573D02*
X120353847Y-94097239D01*
X119972895Y-93411525D02*
X119972895Y-92954382D01*
X120772895Y-93182954D02*
X119972895Y-93182954D01*
X136255369Y-105863095D02*
X136674417Y-105329761D01*
X136255369Y-105329761D02*
X136674417Y-105863095D01*
X125333312Y-117102695D02*
X124952360Y-117102695D01*
X124952360Y-117102695D02*
X124914264Y-117483647D01*
X124914264Y-117483647D02*
X124952360Y-117445552D01*
X124952360Y-117445552D02*
X125028550Y-117407457D01*
X125028550Y-117407457D02*
X125219026Y-117407457D01*
X125219026Y-117407457D02*
X125295217Y-117445552D01*
X125295217Y-117445552D02*
X125333312Y-117483647D01*
X125333312Y-117483647D02*
X125371407Y-117559838D01*
X125371407Y-117559838D02*
X125371407Y-117750314D01*
X125371407Y-117750314D02*
X125333312Y-117826504D01*
X125333312Y-117826504D02*
X125295217Y-117864600D01*
X125295217Y-117864600D02*
X125219026Y-117902695D01*
X125219026Y-117902695D02*
X125028550Y-117902695D01*
X125028550Y-117902695D02*
X124952360Y-117864600D01*
X124952360Y-117864600D02*
X124914264Y-117826504D01*
X125904741Y-118169361D02*
X125904741Y-117026504D01*
X126895217Y-117140790D02*
X126819027Y-117102695D01*
X126819027Y-117102695D02*
X126704741Y-117102695D01*
X126704741Y-117102695D02*
X126590455Y-117140790D01*
X126590455Y-117140790D02*
X126514265Y-117216980D01*
X126514265Y-117216980D02*
X126476170Y-117293171D01*
X126476170Y-117293171D02*
X126438074Y-117445552D01*
X126438074Y-117445552D02*
X126438074Y-117559838D01*
X126438074Y-117559838D02*
X126476170Y-117712219D01*
X126476170Y-117712219D02*
X126514265Y-117788409D01*
X126514265Y-117788409D02*
X126590455Y-117864600D01*
X126590455Y-117864600D02*
X126704741Y-117902695D01*
X126704741Y-117902695D02*
X126780932Y-117902695D01*
X126780932Y-117902695D02*
X126895217Y-117864600D01*
X126895217Y-117864600D02*
X126933313Y-117826504D01*
X126933313Y-117826504D02*
X126933313Y-117559838D01*
X126933313Y-117559838D02*
X126780932Y-117559838D01*
X127466646Y-118169361D02*
X127466646Y-117026504D01*
X128495218Y-117902695D02*
X128228551Y-117521742D01*
X128038075Y-117902695D02*
X128038075Y-117102695D01*
X128038075Y-117102695D02*
X128342837Y-117102695D01*
X128342837Y-117102695D02*
X128419027Y-117140790D01*
X128419027Y-117140790D02*
X128457122Y-117178885D01*
X128457122Y-117178885D02*
X128495218Y-117255076D01*
X128495218Y-117255076D02*
X128495218Y-117369361D01*
X128495218Y-117369361D02*
X128457122Y-117445552D01*
X128457122Y-117445552D02*
X128419027Y-117483647D01*
X128419027Y-117483647D02*
X128342837Y-117521742D01*
X128342837Y-117521742D02*
X128038075Y-117521742D01*
X128799979Y-117178885D02*
X128838075Y-117140790D01*
X128838075Y-117140790D02*
X128914265Y-117102695D01*
X128914265Y-117102695D02*
X129104741Y-117102695D01*
X129104741Y-117102695D02*
X129180932Y-117140790D01*
X129180932Y-117140790D02*
X129219027Y-117178885D01*
X129219027Y-117178885D02*
X129257122Y-117255076D01*
X129257122Y-117255076D02*
X129257122Y-117331266D01*
X129257122Y-117331266D02*
X129219027Y-117445552D01*
X129219027Y-117445552D02*
X128761884Y-117902695D01*
X128761884Y-117902695D02*
X129257122Y-117902695D01*
X129790456Y-118169361D02*
X129790456Y-117026504D01*
X130247599Y-117102695D02*
X130704742Y-117102695D01*
X130476170Y-117902695D02*
X130476170Y-117102695D01*
X130933313Y-117178885D02*
X130971409Y-117140790D01*
X130971409Y-117140790D02*
X131047599Y-117102695D01*
X131047599Y-117102695D02*
X131238075Y-117102695D01*
X131238075Y-117102695D02*
X131314266Y-117140790D01*
X131314266Y-117140790D02*
X131352361Y-117178885D01*
X131352361Y-117178885D02*
X131390456Y-117255076D01*
X131390456Y-117255076D02*
X131390456Y-117331266D01*
X131390456Y-117331266D02*
X131352361Y-117445552D01*
X131352361Y-117445552D02*
X130895218Y-117902695D01*
X130895218Y-117902695D02*
X131390456Y-117902695D01*
X158428495Y-86324830D02*
X158428495Y-85829592D01*
X158428495Y-85829592D02*
X158733257Y-86096258D01*
X158733257Y-86096258D02*
X158733257Y-85981973D01*
X158733257Y-85981973D02*
X158771352Y-85905782D01*
X158771352Y-85905782D02*
X158809447Y-85867687D01*
X158809447Y-85867687D02*
X158885638Y-85829592D01*
X158885638Y-85829592D02*
X159076114Y-85829592D01*
X159076114Y-85829592D02*
X159152304Y-85867687D01*
X159152304Y-85867687D02*
X159190400Y-85905782D01*
X159190400Y-85905782D02*
X159228495Y-85981973D01*
X159228495Y-85981973D02*
X159228495Y-86210544D01*
X159228495Y-86210544D02*
X159190400Y-86286735D01*
X159190400Y-86286735D02*
X159152304Y-86324830D01*
X159495161Y-85296258D02*
X158352304Y-85296258D01*
X158466590Y-84305782D02*
X158428495Y-84381972D01*
X158428495Y-84381972D02*
X158428495Y-84496258D01*
X158428495Y-84496258D02*
X158466590Y-84610544D01*
X158466590Y-84610544D02*
X158542780Y-84686734D01*
X158542780Y-84686734D02*
X158618971Y-84724829D01*
X158618971Y-84724829D02*
X158771352Y-84762925D01*
X158771352Y-84762925D02*
X158885638Y-84762925D01*
X158885638Y-84762925D02*
X159038019Y-84724829D01*
X159038019Y-84724829D02*
X159114209Y-84686734D01*
X159114209Y-84686734D02*
X159190400Y-84610544D01*
X159190400Y-84610544D02*
X159228495Y-84496258D01*
X159228495Y-84496258D02*
X159228495Y-84420067D01*
X159228495Y-84420067D02*
X159190400Y-84305782D01*
X159190400Y-84305782D02*
X159152304Y-84267686D01*
X159152304Y-84267686D02*
X158885638Y-84267686D01*
X158885638Y-84267686D02*
X158885638Y-84420067D01*
X159495161Y-83734353D02*
X158352304Y-83734353D01*
X159228495Y-83162924D02*
X158428495Y-83162924D01*
X158428495Y-83162924D02*
X158428495Y-82972448D01*
X158428495Y-82972448D02*
X158466590Y-82858162D01*
X158466590Y-82858162D02*
X158542780Y-82781972D01*
X158542780Y-82781972D02*
X158618971Y-82743877D01*
X158618971Y-82743877D02*
X158771352Y-82705781D01*
X158771352Y-82705781D02*
X158885638Y-82705781D01*
X158885638Y-82705781D02*
X159038019Y-82743877D01*
X159038019Y-82743877D02*
X159114209Y-82781972D01*
X159114209Y-82781972D02*
X159190400Y-82858162D01*
X159190400Y-82858162D02*
X159228495Y-82972448D01*
X159228495Y-82972448D02*
X159228495Y-83162924D01*
X159495161Y-82172448D02*
X158352304Y-82172448D01*
X159152304Y-81143876D02*
X159190400Y-81181972D01*
X159190400Y-81181972D02*
X159228495Y-81296257D01*
X159228495Y-81296257D02*
X159228495Y-81372448D01*
X159228495Y-81372448D02*
X159190400Y-81486734D01*
X159190400Y-81486734D02*
X159114209Y-81562924D01*
X159114209Y-81562924D02*
X159038019Y-81601019D01*
X159038019Y-81601019D02*
X158885638Y-81639115D01*
X158885638Y-81639115D02*
X158771352Y-81639115D01*
X158771352Y-81639115D02*
X158618971Y-81601019D01*
X158618971Y-81601019D02*
X158542780Y-81562924D01*
X158542780Y-81562924D02*
X158466590Y-81486734D01*
X158466590Y-81486734D02*
X158428495Y-81372448D01*
X158428495Y-81372448D02*
X158428495Y-81296257D01*
X158428495Y-81296257D02*
X158466590Y-81181972D01*
X158466590Y-81181972D02*
X158504685Y-81143876D01*
X159228495Y-80420067D02*
X159228495Y-80801019D01*
X159228495Y-80801019D02*
X158428495Y-80801019D01*
X152333512Y-117077295D02*
X151952560Y-117077295D01*
X151952560Y-117077295D02*
X151914464Y-117458247D01*
X151914464Y-117458247D02*
X151952560Y-117420152D01*
X151952560Y-117420152D02*
X152028750Y-117382057D01*
X152028750Y-117382057D02*
X152219226Y-117382057D01*
X152219226Y-117382057D02*
X152295417Y-117420152D01*
X152295417Y-117420152D02*
X152333512Y-117458247D01*
X152333512Y-117458247D02*
X152371607Y-117534438D01*
X152371607Y-117534438D02*
X152371607Y-117724914D01*
X152371607Y-117724914D02*
X152333512Y-117801104D01*
X152333512Y-117801104D02*
X152295417Y-117839200D01*
X152295417Y-117839200D02*
X152219226Y-117877295D01*
X152219226Y-117877295D02*
X152028750Y-117877295D01*
X152028750Y-117877295D02*
X151952560Y-117839200D01*
X151952560Y-117839200D02*
X151914464Y-117801104D01*
X152904941Y-118143961D02*
X152904941Y-117001104D01*
X153895417Y-117877295D02*
X153438274Y-117877295D01*
X153666846Y-117877295D02*
X153666846Y-117077295D01*
X153666846Y-117077295D02*
X153590655Y-117191580D01*
X153590655Y-117191580D02*
X153514465Y-117267771D01*
X153514465Y-117267771D02*
X153438274Y-117305866D01*
X154390656Y-117077295D02*
X154466846Y-117077295D01*
X154466846Y-117077295D02*
X154543037Y-117115390D01*
X154543037Y-117115390D02*
X154581132Y-117153485D01*
X154581132Y-117153485D02*
X154619227Y-117229676D01*
X154619227Y-117229676D02*
X154657322Y-117382057D01*
X154657322Y-117382057D02*
X154657322Y-117572533D01*
X154657322Y-117572533D02*
X154619227Y-117724914D01*
X154619227Y-117724914D02*
X154581132Y-117801104D01*
X154581132Y-117801104D02*
X154543037Y-117839200D01*
X154543037Y-117839200D02*
X154466846Y-117877295D01*
X154466846Y-117877295D02*
X154390656Y-117877295D01*
X154390656Y-117877295D02*
X154314465Y-117839200D01*
X154314465Y-117839200D02*
X154276370Y-117801104D01*
X154276370Y-117801104D02*
X154238275Y-117724914D01*
X154238275Y-117724914D02*
X154200179Y-117572533D01*
X154200179Y-117572533D02*
X154200179Y-117382057D01*
X154200179Y-117382057D02*
X154238275Y-117229676D01*
X154238275Y-117229676D02*
X154276370Y-117153485D01*
X154276370Y-117153485D02*
X154314465Y-117115390D01*
X154314465Y-117115390D02*
X154390656Y-117077295D01*
X155190656Y-118143961D02*
X155190656Y-117001104D01*
X156181132Y-117115390D02*
X156104942Y-117077295D01*
X156104942Y-117077295D02*
X155990656Y-117077295D01*
X155990656Y-117077295D02*
X155876370Y-117115390D01*
X155876370Y-117115390D02*
X155800180Y-117191580D01*
X155800180Y-117191580D02*
X155762085Y-117267771D01*
X155762085Y-117267771D02*
X155723989Y-117420152D01*
X155723989Y-117420152D02*
X155723989Y-117534438D01*
X155723989Y-117534438D02*
X155762085Y-117686819D01*
X155762085Y-117686819D02*
X155800180Y-117763009D01*
X155800180Y-117763009D02*
X155876370Y-117839200D01*
X155876370Y-117839200D02*
X155990656Y-117877295D01*
X155990656Y-117877295D02*
X156066847Y-117877295D01*
X156066847Y-117877295D02*
X156181132Y-117839200D01*
X156181132Y-117839200D02*
X156219228Y-117801104D01*
X156219228Y-117801104D02*
X156219228Y-117534438D01*
X156219228Y-117534438D02*
X156066847Y-117534438D01*
X123466426Y-79383647D02*
X123580712Y-79421742D01*
X123580712Y-79421742D02*
X123618807Y-79459838D01*
X123618807Y-79459838D02*
X123656903Y-79536028D01*
X123656903Y-79536028D02*
X123656903Y-79650314D01*
X123656903Y-79650314D02*
X123618807Y-79726504D01*
X123618807Y-79726504D02*
X123580712Y-79764600D01*
X123580712Y-79764600D02*
X123504522Y-79802695D01*
X123504522Y-79802695D02*
X123199760Y-79802695D01*
X123199760Y-79802695D02*
X123199760Y-79002695D01*
X123199760Y-79002695D02*
X123466426Y-79002695D01*
X123466426Y-79002695D02*
X123542617Y-79040790D01*
X123542617Y-79040790D02*
X123580712Y-79078885D01*
X123580712Y-79078885D02*
X123618807Y-79155076D01*
X123618807Y-79155076D02*
X123618807Y-79231266D01*
X123618807Y-79231266D02*
X123580712Y-79307457D01*
X123580712Y-79307457D02*
X123542617Y-79345552D01*
X123542617Y-79345552D02*
X123466426Y-79383647D01*
X123466426Y-79383647D02*
X123199760Y-79383647D01*
X123999760Y-79497933D02*
X124609284Y-79497933D01*
X125180712Y-80069361D02*
X125180712Y-78926504D01*
X126133093Y-79002695D02*
X125752141Y-79002695D01*
X125752141Y-79002695D02*
X125714045Y-79383647D01*
X125714045Y-79383647D02*
X125752141Y-79345552D01*
X125752141Y-79345552D02*
X125828331Y-79307457D01*
X125828331Y-79307457D02*
X126018807Y-79307457D01*
X126018807Y-79307457D02*
X126094998Y-79345552D01*
X126094998Y-79345552D02*
X126133093Y-79383647D01*
X126133093Y-79383647D02*
X126171188Y-79459838D01*
X126171188Y-79459838D02*
X126171188Y-79650314D01*
X126171188Y-79650314D02*
X126133093Y-79726504D01*
X126133093Y-79726504D02*
X126094998Y-79764600D01*
X126094998Y-79764600D02*
X126018807Y-79802695D01*
X126018807Y-79802695D02*
X125828331Y-79802695D01*
X125828331Y-79802695D02*
X125752141Y-79764600D01*
X125752141Y-79764600D02*
X125714045Y-79726504D01*
X126704522Y-80069361D02*
X126704522Y-78926504D01*
X127694998Y-79040790D02*
X127618808Y-79002695D01*
X127618808Y-79002695D02*
X127504522Y-79002695D01*
X127504522Y-79002695D02*
X127390236Y-79040790D01*
X127390236Y-79040790D02*
X127314046Y-79116980D01*
X127314046Y-79116980D02*
X127275951Y-79193171D01*
X127275951Y-79193171D02*
X127237855Y-79345552D01*
X127237855Y-79345552D02*
X127237855Y-79459838D01*
X127237855Y-79459838D02*
X127275951Y-79612219D01*
X127275951Y-79612219D02*
X127314046Y-79688409D01*
X127314046Y-79688409D02*
X127390236Y-79764600D01*
X127390236Y-79764600D02*
X127504522Y-79802695D01*
X127504522Y-79802695D02*
X127580713Y-79802695D01*
X127580713Y-79802695D02*
X127694998Y-79764600D01*
X127694998Y-79764600D02*
X127733094Y-79726504D01*
X127733094Y-79726504D02*
X127733094Y-79459838D01*
X127733094Y-79459838D02*
X127580713Y-79459838D01*
X123952064Y-110715504D02*
X123913968Y-110753600D01*
X123913968Y-110753600D02*
X123799683Y-110791695D01*
X123799683Y-110791695D02*
X123723492Y-110791695D01*
X123723492Y-110791695D02*
X123609206Y-110753600D01*
X123609206Y-110753600D02*
X123533016Y-110677409D01*
X123533016Y-110677409D02*
X123494921Y-110601219D01*
X123494921Y-110601219D02*
X123456825Y-110448838D01*
X123456825Y-110448838D02*
X123456825Y-110334552D01*
X123456825Y-110334552D02*
X123494921Y-110182171D01*
X123494921Y-110182171D02*
X123533016Y-110105980D01*
X123533016Y-110105980D02*
X123609206Y-110029790D01*
X123609206Y-110029790D02*
X123723492Y-109991695D01*
X123723492Y-109991695D02*
X123799683Y-109991695D01*
X123799683Y-109991695D02*
X123913968Y-110029790D01*
X123913968Y-110029790D02*
X123952064Y-110067885D01*
X124256825Y-110067885D02*
X124294921Y-110029790D01*
X124294921Y-110029790D02*
X124371111Y-109991695D01*
X124371111Y-109991695D02*
X124561587Y-109991695D01*
X124561587Y-109991695D02*
X124637778Y-110029790D01*
X124637778Y-110029790D02*
X124675873Y-110067885D01*
X124675873Y-110067885D02*
X124713968Y-110144076D01*
X124713968Y-110144076D02*
X124713968Y-110220266D01*
X124713968Y-110220266D02*
X124675873Y-110334552D01*
X124675873Y-110334552D02*
X124218730Y-110791695D01*
X124218730Y-110791695D02*
X124713968Y-110791695D01*
X125399683Y-110258361D02*
X125399683Y-110791695D01*
X125209207Y-109953600D02*
X125018730Y-110525028D01*
X125018730Y-110525028D02*
X125513969Y-110525028D01*
X152215867Y-111207895D02*
X151949200Y-110826942D01*
X151758724Y-111207895D02*
X151758724Y-110407895D01*
X151758724Y-110407895D02*
X152063486Y-110407895D01*
X152063486Y-110407895D02*
X152139676Y-110445990D01*
X152139676Y-110445990D02*
X152177771Y-110484085D01*
X152177771Y-110484085D02*
X152215867Y-110560276D01*
X152215867Y-110560276D02*
X152215867Y-110674561D01*
X152215867Y-110674561D02*
X152177771Y-110750752D01*
X152177771Y-110750752D02*
X152139676Y-110788847D01*
X152139676Y-110788847D02*
X152063486Y-110826942D01*
X152063486Y-110826942D02*
X151758724Y-110826942D01*
X152596819Y-111207895D02*
X152749200Y-111207895D01*
X152749200Y-111207895D02*
X152825390Y-111169800D01*
X152825390Y-111169800D02*
X152863486Y-111131704D01*
X152863486Y-111131704D02*
X152939676Y-111017419D01*
X152939676Y-111017419D02*
X152977771Y-110865038D01*
X152977771Y-110865038D02*
X152977771Y-110560276D01*
X152977771Y-110560276D02*
X152939676Y-110484085D01*
X152939676Y-110484085D02*
X152901581Y-110445990D01*
X152901581Y-110445990D02*
X152825390Y-110407895D01*
X152825390Y-110407895D02*
X152673009Y-110407895D01*
X152673009Y-110407895D02*
X152596819Y-110445990D01*
X152596819Y-110445990D02*
X152558724Y-110484085D01*
X152558724Y-110484085D02*
X152520628Y-110560276D01*
X152520628Y-110560276D02*
X152520628Y-110750752D01*
X152520628Y-110750752D02*
X152558724Y-110826942D01*
X152558724Y-110826942D02*
X152596819Y-110865038D01*
X152596819Y-110865038D02*
X152673009Y-110903133D01*
X152673009Y-110903133D02*
X152825390Y-110903133D01*
X152825390Y-110903133D02*
X152901581Y-110865038D01*
X152901581Y-110865038D02*
X152939676Y-110826942D01*
X152939676Y-110826942D02*
X152977771Y-110750752D01*
X138362495Y-110496332D02*
X137981542Y-110762999D01*
X138362495Y-110953475D02*
X137562495Y-110953475D01*
X137562495Y-110953475D02*
X137562495Y-110648713D01*
X137562495Y-110648713D02*
X137600590Y-110572523D01*
X137600590Y-110572523D02*
X137638685Y-110534428D01*
X137638685Y-110534428D02*
X137714876Y-110496332D01*
X137714876Y-110496332D02*
X137829161Y-110496332D01*
X137829161Y-110496332D02*
X137905352Y-110534428D01*
X137905352Y-110534428D02*
X137943447Y-110572523D01*
X137943447Y-110572523D02*
X137981542Y-110648713D01*
X137981542Y-110648713D02*
X137981542Y-110953475D01*
X137905352Y-110039190D02*
X137867257Y-110115380D01*
X137867257Y-110115380D02*
X137829161Y-110153475D01*
X137829161Y-110153475D02*
X137752971Y-110191571D01*
X137752971Y-110191571D02*
X137714876Y-110191571D01*
X137714876Y-110191571D02*
X137638685Y-110153475D01*
X137638685Y-110153475D02*
X137600590Y-110115380D01*
X137600590Y-110115380D02*
X137562495Y-110039190D01*
X137562495Y-110039190D02*
X137562495Y-109886809D01*
X137562495Y-109886809D02*
X137600590Y-109810618D01*
X137600590Y-109810618D02*
X137638685Y-109772523D01*
X137638685Y-109772523D02*
X137714876Y-109734428D01*
X137714876Y-109734428D02*
X137752971Y-109734428D01*
X137752971Y-109734428D02*
X137829161Y-109772523D01*
X137829161Y-109772523D02*
X137867257Y-109810618D01*
X137867257Y-109810618D02*
X137905352Y-109886809D01*
X137905352Y-109886809D02*
X137905352Y-110039190D01*
X137905352Y-110039190D02*
X137943447Y-110115380D01*
X137943447Y-110115380D02*
X137981542Y-110153475D01*
X137981542Y-110153475D02*
X138057733Y-110191571D01*
X138057733Y-110191571D02*
X138210114Y-110191571D01*
X138210114Y-110191571D02*
X138286304Y-110153475D01*
X138286304Y-110153475D02*
X138324400Y-110115380D01*
X138324400Y-110115380D02*
X138362495Y-110039190D01*
X138362495Y-110039190D02*
X138362495Y-109886809D01*
X138362495Y-109886809D02*
X138324400Y-109810618D01*
X138324400Y-109810618D02*
X138286304Y-109772523D01*
X138286304Y-109772523D02*
X138210114Y-109734428D01*
X138210114Y-109734428D02*
X138057733Y-109734428D01*
X138057733Y-109734428D02*
X137981542Y-109772523D01*
X137981542Y-109772523D02*
X137943447Y-109810618D01*
X137943447Y-109810618D02*
X137905352Y-109886809D01*
X121530114Y-112071495D02*
X121263447Y-111690542D01*
X121072971Y-112071495D02*
X121072971Y-111271495D01*
X121072971Y-111271495D02*
X121377733Y-111271495D01*
X121377733Y-111271495D02*
X121453923Y-111309590D01*
X121453923Y-111309590D02*
X121492018Y-111347685D01*
X121492018Y-111347685D02*
X121530114Y-111423876D01*
X121530114Y-111423876D02*
X121530114Y-111538161D01*
X121530114Y-111538161D02*
X121492018Y-111614352D01*
X121492018Y-111614352D02*
X121453923Y-111652447D01*
X121453923Y-111652447D02*
X121377733Y-111690542D01*
X121377733Y-111690542D02*
X121072971Y-111690542D01*
X122292018Y-112071495D02*
X121834875Y-112071495D01*
X122063447Y-112071495D02*
X122063447Y-111271495D01*
X122063447Y-111271495D02*
X121987256Y-111385780D01*
X121987256Y-111385780D02*
X121911066Y-111461971D01*
X121911066Y-111461971D02*
X121834875Y-111500066D01*
X123053923Y-112071495D02*
X122596780Y-112071495D01*
X122825352Y-112071495D02*
X122825352Y-111271495D01*
X122825352Y-111271495D02*
X122749161Y-111385780D01*
X122749161Y-111385780D02*
X122672971Y-111461971D01*
X122672971Y-111461971D02*
X122596780Y-111500066D01*
X126168214Y-109878704D02*
X126130118Y-109916800D01*
X126130118Y-109916800D02*
X126015833Y-109954895D01*
X126015833Y-109954895D02*
X125939642Y-109954895D01*
X125939642Y-109954895D02*
X125825356Y-109916800D01*
X125825356Y-109916800D02*
X125749166Y-109840609D01*
X125749166Y-109840609D02*
X125711071Y-109764419D01*
X125711071Y-109764419D02*
X125672975Y-109612038D01*
X125672975Y-109612038D02*
X125672975Y-109497752D01*
X125672975Y-109497752D02*
X125711071Y-109345371D01*
X125711071Y-109345371D02*
X125749166Y-109269180D01*
X125749166Y-109269180D02*
X125825356Y-109192990D01*
X125825356Y-109192990D02*
X125939642Y-109154895D01*
X125939642Y-109154895D02*
X126015833Y-109154895D01*
X126015833Y-109154895D02*
X126130118Y-109192990D01*
X126130118Y-109192990D02*
X126168214Y-109231085D01*
X126472975Y-109231085D02*
X126511071Y-109192990D01*
X126511071Y-109192990D02*
X126587261Y-109154895D01*
X126587261Y-109154895D02*
X126777737Y-109154895D01*
X126777737Y-109154895D02*
X126853928Y-109192990D01*
X126853928Y-109192990D02*
X126892023Y-109231085D01*
X126892023Y-109231085D02*
X126930118Y-109307276D01*
X126930118Y-109307276D02*
X126930118Y-109383466D01*
X126930118Y-109383466D02*
X126892023Y-109497752D01*
X126892023Y-109497752D02*
X126434880Y-109954895D01*
X126434880Y-109954895D02*
X126930118Y-109954895D01*
X127425357Y-109154895D02*
X127501547Y-109154895D01*
X127501547Y-109154895D02*
X127577738Y-109192990D01*
X127577738Y-109192990D02*
X127615833Y-109231085D01*
X127615833Y-109231085D02*
X127653928Y-109307276D01*
X127653928Y-109307276D02*
X127692023Y-109459657D01*
X127692023Y-109459657D02*
X127692023Y-109650133D01*
X127692023Y-109650133D02*
X127653928Y-109802514D01*
X127653928Y-109802514D02*
X127615833Y-109878704D01*
X127615833Y-109878704D02*
X127577738Y-109916800D01*
X127577738Y-109916800D02*
X127501547Y-109954895D01*
X127501547Y-109954895D02*
X127425357Y-109954895D01*
X127425357Y-109954895D02*
X127349166Y-109916800D01*
X127349166Y-109916800D02*
X127311071Y-109878704D01*
X127311071Y-109878704D02*
X127272976Y-109802514D01*
X127272976Y-109802514D02*
X127234880Y-109650133D01*
X127234880Y-109650133D02*
X127234880Y-109459657D01*
X127234880Y-109459657D02*
X127272976Y-109307276D01*
X127272976Y-109307276D02*
X127311071Y-109231085D01*
X127311071Y-109231085D02*
X127349166Y-109192990D01*
X127349166Y-109192990D02*
X127425357Y-109154895D01*
X142449895Y-104705132D02*
X142068942Y-104971799D01*
X142449895Y-105162275D02*
X141649895Y-105162275D01*
X141649895Y-105162275D02*
X141649895Y-104857513D01*
X141649895Y-104857513D02*
X141687990Y-104781323D01*
X141687990Y-104781323D02*
X141726085Y-104743228D01*
X141726085Y-104743228D02*
X141802276Y-104705132D01*
X141802276Y-104705132D02*
X141916561Y-104705132D01*
X141916561Y-104705132D02*
X141992752Y-104743228D01*
X141992752Y-104743228D02*
X142030847Y-104781323D01*
X142030847Y-104781323D02*
X142068942Y-104857513D01*
X142068942Y-104857513D02*
X142068942Y-105162275D01*
X142449895Y-103943228D02*
X142449895Y-104400371D01*
X142449895Y-104171799D02*
X141649895Y-104171799D01*
X141649895Y-104171799D02*
X141764180Y-104247990D01*
X141764180Y-104247990D02*
X141840371Y-104324180D01*
X141840371Y-104324180D02*
X141878466Y-104400371D01*
X136938095Y-84156485D02*
X136557142Y-84423152D01*
X136938095Y-84613628D02*
X136138095Y-84613628D01*
X136138095Y-84613628D02*
X136138095Y-84308866D01*
X136138095Y-84308866D02*
X136176190Y-84232676D01*
X136176190Y-84232676D02*
X136214285Y-84194581D01*
X136214285Y-84194581D02*
X136290476Y-84156485D01*
X136290476Y-84156485D02*
X136404761Y-84156485D01*
X136404761Y-84156485D02*
X136480952Y-84194581D01*
X136480952Y-84194581D02*
X136519047Y-84232676D01*
X136519047Y-84232676D02*
X136557142Y-84308866D01*
X136557142Y-84308866D02*
X136557142Y-84613628D01*
X136214285Y-83851724D02*
X136176190Y-83813628D01*
X136176190Y-83813628D02*
X136138095Y-83737438D01*
X136138095Y-83737438D02*
X136138095Y-83546962D01*
X136138095Y-83546962D02*
X136176190Y-83470771D01*
X136176190Y-83470771D02*
X136214285Y-83432676D01*
X136214285Y-83432676D02*
X136290476Y-83394581D01*
X136290476Y-83394581D02*
X136366666Y-83394581D01*
X136366666Y-83394581D02*
X136480952Y-83432676D01*
X136480952Y-83432676D02*
X136938095Y-83889819D01*
X136938095Y-83889819D02*
X136938095Y-83394581D01*
X136214285Y-83089819D02*
X136176190Y-83051723D01*
X136176190Y-83051723D02*
X136138095Y-82975533D01*
X136138095Y-82975533D02*
X136138095Y-82785057D01*
X136138095Y-82785057D02*
X136176190Y-82708866D01*
X136176190Y-82708866D02*
X136214285Y-82670771D01*
X136214285Y-82670771D02*
X136290476Y-82632676D01*
X136290476Y-82632676D02*
X136366666Y-82632676D01*
X136366666Y-82632676D02*
X136480952Y-82670771D01*
X136480952Y-82670771D02*
X136938095Y-83127914D01*
X136938095Y-83127914D02*
X136938095Y-82632676D01*
X156039324Y-108762095D02*
X156039324Y-107962095D01*
X156039324Y-107962095D02*
X156229800Y-107962095D01*
X156229800Y-107962095D02*
X156344086Y-108000190D01*
X156344086Y-108000190D02*
X156420276Y-108076380D01*
X156420276Y-108076380D02*
X156458371Y-108152571D01*
X156458371Y-108152571D02*
X156496467Y-108304952D01*
X156496467Y-108304952D02*
X156496467Y-108419238D01*
X156496467Y-108419238D02*
X156458371Y-108571619D01*
X156458371Y-108571619D02*
X156420276Y-108647809D01*
X156420276Y-108647809D02*
X156344086Y-108724000D01*
X156344086Y-108724000D02*
X156229800Y-108762095D01*
X156229800Y-108762095D02*
X156039324Y-108762095D01*
X157258371Y-108762095D02*
X156801228Y-108762095D01*
X157029800Y-108762095D02*
X157029800Y-107962095D01*
X157029800Y-107962095D02*
X156953609Y-108076380D01*
X156953609Y-108076380D02*
X156877419Y-108152571D01*
X156877419Y-108152571D02*
X156801228Y-108190666D01*
X136264714Y-86671504D02*
X136226618Y-86709600D01*
X136226618Y-86709600D02*
X136112333Y-86747695D01*
X136112333Y-86747695D02*
X136036142Y-86747695D01*
X136036142Y-86747695D02*
X135921856Y-86709600D01*
X135921856Y-86709600D02*
X135845666Y-86633409D01*
X135845666Y-86633409D02*
X135807571Y-86557219D01*
X135807571Y-86557219D02*
X135769475Y-86404838D01*
X135769475Y-86404838D02*
X135769475Y-86290552D01*
X135769475Y-86290552D02*
X135807571Y-86138171D01*
X135807571Y-86138171D02*
X135845666Y-86061980D01*
X135845666Y-86061980D02*
X135921856Y-85985790D01*
X135921856Y-85985790D02*
X136036142Y-85947695D01*
X136036142Y-85947695D02*
X136112333Y-85947695D01*
X136112333Y-85947695D02*
X136226618Y-85985790D01*
X136226618Y-85985790D02*
X136264714Y-86023885D01*
X137026618Y-86747695D02*
X136569475Y-86747695D01*
X136798047Y-86747695D02*
X136798047Y-85947695D01*
X136798047Y-85947695D02*
X136721856Y-86061980D01*
X136721856Y-86061980D02*
X136645666Y-86138171D01*
X136645666Y-86138171D02*
X136569475Y-86176266D01*
X137293285Y-85947695D02*
X137826619Y-85947695D01*
X137826619Y-85947695D02*
X137483761Y-86747695D01*
X120682104Y-96678685D02*
X120720200Y-96716781D01*
X120720200Y-96716781D02*
X120758295Y-96831066D01*
X120758295Y-96831066D02*
X120758295Y-96907257D01*
X120758295Y-96907257D02*
X120720200Y-97021543D01*
X120720200Y-97021543D02*
X120644009Y-97097733D01*
X120644009Y-97097733D02*
X120567819Y-97135828D01*
X120567819Y-97135828D02*
X120415438Y-97173924D01*
X120415438Y-97173924D02*
X120301152Y-97173924D01*
X120301152Y-97173924D02*
X120148771Y-97135828D01*
X120148771Y-97135828D02*
X120072580Y-97097733D01*
X120072580Y-97097733D02*
X119996390Y-97021543D01*
X119996390Y-97021543D02*
X119958295Y-96907257D01*
X119958295Y-96907257D02*
X119958295Y-96831066D01*
X119958295Y-96831066D02*
X119996390Y-96716781D01*
X119996390Y-96716781D02*
X120034485Y-96678685D01*
X120758295Y-95916781D02*
X120758295Y-96373924D01*
X120758295Y-96145352D02*
X119958295Y-96145352D01*
X119958295Y-96145352D02*
X120072580Y-96221543D01*
X120072580Y-96221543D02*
X120148771Y-96297733D01*
X120148771Y-96297733D02*
X120186866Y-96373924D01*
X120758295Y-95154876D02*
X120758295Y-95612019D01*
X120758295Y-95383447D02*
X119958295Y-95383447D01*
X119958295Y-95383447D02*
X120072580Y-95459638D01*
X120072580Y-95459638D02*
X120148771Y-95535828D01*
X120148771Y-95535828D02*
X120186866Y-95612019D01*
X152457504Y-107854685D02*
X152495600Y-107892781D01*
X152495600Y-107892781D02*
X152533695Y-108007066D01*
X152533695Y-108007066D02*
X152533695Y-108083257D01*
X152533695Y-108083257D02*
X152495600Y-108197543D01*
X152495600Y-108197543D02*
X152419409Y-108273733D01*
X152419409Y-108273733D02*
X152343219Y-108311828D01*
X152343219Y-108311828D02*
X152190838Y-108349924D01*
X152190838Y-108349924D02*
X152076552Y-108349924D01*
X152076552Y-108349924D02*
X151924171Y-108311828D01*
X151924171Y-108311828D02*
X151847980Y-108273733D01*
X151847980Y-108273733D02*
X151771790Y-108197543D01*
X151771790Y-108197543D02*
X151733695Y-108083257D01*
X151733695Y-108083257D02*
X151733695Y-108007066D01*
X151733695Y-108007066D02*
X151771790Y-107892781D01*
X151771790Y-107892781D02*
X151809885Y-107854685D01*
X152533695Y-107092781D02*
X152533695Y-107549924D01*
X152533695Y-107321352D02*
X151733695Y-107321352D01*
X151733695Y-107321352D02*
X151847980Y-107397543D01*
X151847980Y-107397543D02*
X151924171Y-107473733D01*
X151924171Y-107473733D02*
X151962266Y-107549924D01*
X152076552Y-106635638D02*
X152038457Y-106711828D01*
X152038457Y-106711828D02*
X152000361Y-106749923D01*
X152000361Y-106749923D02*
X151924171Y-106788019D01*
X151924171Y-106788019D02*
X151886076Y-106788019D01*
X151886076Y-106788019D02*
X151809885Y-106749923D01*
X151809885Y-106749923D02*
X151771790Y-106711828D01*
X151771790Y-106711828D02*
X151733695Y-106635638D01*
X151733695Y-106635638D02*
X151733695Y-106483257D01*
X151733695Y-106483257D02*
X151771790Y-106407066D01*
X151771790Y-106407066D02*
X151809885Y-106368971D01*
X151809885Y-106368971D02*
X151886076Y-106330876D01*
X151886076Y-106330876D02*
X151924171Y-106330876D01*
X151924171Y-106330876D02*
X152000361Y-106368971D01*
X152000361Y-106368971D02*
X152038457Y-106407066D01*
X152038457Y-106407066D02*
X152076552Y-106483257D01*
X152076552Y-106483257D02*
X152076552Y-106635638D01*
X152076552Y-106635638D02*
X152114647Y-106711828D01*
X152114647Y-106711828D02*
X152152742Y-106749923D01*
X152152742Y-106749923D02*
X152228933Y-106788019D01*
X152228933Y-106788019D02*
X152381314Y-106788019D01*
X152381314Y-106788019D02*
X152457504Y-106749923D01*
X152457504Y-106749923D02*
X152495600Y-106711828D01*
X152495600Y-106711828D02*
X152533695Y-106635638D01*
X152533695Y-106635638D02*
X152533695Y-106483257D01*
X152533695Y-106483257D02*
X152495600Y-106407066D01*
X152495600Y-106407066D02*
X152457504Y-106368971D01*
X152457504Y-106368971D02*
X152381314Y-106330876D01*
X152381314Y-106330876D02*
X152228933Y-106330876D01*
X152228933Y-106330876D02*
X152152742Y-106368971D01*
X152152742Y-106368971D02*
X152114647Y-106407066D01*
X152114647Y-106407066D02*
X152076552Y-106483257D01*
X150917867Y-91014904D02*
X150879771Y-91053000D01*
X150879771Y-91053000D02*
X150765486Y-91091095D01*
X150765486Y-91091095D02*
X150689295Y-91091095D01*
X150689295Y-91091095D02*
X150575009Y-91053000D01*
X150575009Y-91053000D02*
X150498819Y-90976809D01*
X150498819Y-90976809D02*
X150460724Y-90900619D01*
X150460724Y-90900619D02*
X150422628Y-90748238D01*
X150422628Y-90748238D02*
X150422628Y-90633952D01*
X150422628Y-90633952D02*
X150460724Y-90481571D01*
X150460724Y-90481571D02*
X150498819Y-90405380D01*
X150498819Y-90405380D02*
X150575009Y-90329190D01*
X150575009Y-90329190D02*
X150689295Y-90291095D01*
X150689295Y-90291095D02*
X150765486Y-90291095D01*
X150765486Y-90291095D02*
X150879771Y-90329190D01*
X150879771Y-90329190D02*
X150917867Y-90367285D01*
X151375009Y-90633952D02*
X151298819Y-90595857D01*
X151298819Y-90595857D02*
X151260724Y-90557761D01*
X151260724Y-90557761D02*
X151222628Y-90481571D01*
X151222628Y-90481571D02*
X151222628Y-90443476D01*
X151222628Y-90443476D02*
X151260724Y-90367285D01*
X151260724Y-90367285D02*
X151298819Y-90329190D01*
X151298819Y-90329190D02*
X151375009Y-90291095D01*
X151375009Y-90291095D02*
X151527390Y-90291095D01*
X151527390Y-90291095D02*
X151603581Y-90329190D01*
X151603581Y-90329190D02*
X151641676Y-90367285D01*
X151641676Y-90367285D02*
X151679771Y-90443476D01*
X151679771Y-90443476D02*
X151679771Y-90481571D01*
X151679771Y-90481571D02*
X151641676Y-90557761D01*
X151641676Y-90557761D02*
X151603581Y-90595857D01*
X151603581Y-90595857D02*
X151527390Y-90633952D01*
X151527390Y-90633952D02*
X151375009Y-90633952D01*
X151375009Y-90633952D02*
X151298819Y-90672047D01*
X151298819Y-90672047D02*
X151260724Y-90710142D01*
X151260724Y-90710142D02*
X151222628Y-90786333D01*
X151222628Y-90786333D02*
X151222628Y-90938714D01*
X151222628Y-90938714D02*
X151260724Y-91014904D01*
X151260724Y-91014904D02*
X151298819Y-91053000D01*
X151298819Y-91053000D02*
X151375009Y-91091095D01*
X151375009Y-91091095D02*
X151527390Y-91091095D01*
X151527390Y-91091095D02*
X151603581Y-91053000D01*
X151603581Y-91053000D02*
X151641676Y-91014904D01*
X151641676Y-91014904D02*
X151679771Y-90938714D01*
X151679771Y-90938714D02*
X151679771Y-90786333D01*
X151679771Y-90786333D02*
X151641676Y-90710142D01*
X151641676Y-90710142D02*
X151603581Y-90672047D01*
X151603581Y-90672047D02*
X151527390Y-90633952D01*
X128388667Y-90151295D02*
X128122000Y-89770342D01*
X127931524Y-90151295D02*
X127931524Y-89351295D01*
X127931524Y-89351295D02*
X128236286Y-89351295D01*
X128236286Y-89351295D02*
X128312476Y-89389390D01*
X128312476Y-89389390D02*
X128350571Y-89427485D01*
X128350571Y-89427485D02*
X128388667Y-89503676D01*
X128388667Y-89503676D02*
X128388667Y-89617961D01*
X128388667Y-89617961D02*
X128350571Y-89694152D01*
X128350571Y-89694152D02*
X128312476Y-89732247D01*
X128312476Y-89732247D02*
X128236286Y-89770342D01*
X128236286Y-89770342D02*
X127931524Y-89770342D01*
X128655333Y-89351295D02*
X129188667Y-89351295D01*
X129188667Y-89351295D02*
X128845809Y-90151295D01*
X128412067Y-86747695D02*
X128145400Y-86366742D01*
X127954924Y-86747695D02*
X127954924Y-85947695D01*
X127954924Y-85947695D02*
X128259686Y-85947695D01*
X128259686Y-85947695D02*
X128335876Y-85985790D01*
X128335876Y-85985790D02*
X128373971Y-86023885D01*
X128373971Y-86023885D02*
X128412067Y-86100076D01*
X128412067Y-86100076D02*
X128412067Y-86214361D01*
X128412067Y-86214361D02*
X128373971Y-86290552D01*
X128373971Y-86290552D02*
X128335876Y-86328647D01*
X128335876Y-86328647D02*
X128259686Y-86366742D01*
X128259686Y-86366742D02*
X127954924Y-86366742D01*
X129097781Y-85947695D02*
X128945400Y-85947695D01*
X128945400Y-85947695D02*
X128869209Y-85985790D01*
X128869209Y-85985790D02*
X128831114Y-86023885D01*
X128831114Y-86023885D02*
X128754924Y-86138171D01*
X128754924Y-86138171D02*
X128716828Y-86290552D01*
X128716828Y-86290552D02*
X128716828Y-86595314D01*
X128716828Y-86595314D02*
X128754924Y-86671504D01*
X128754924Y-86671504D02*
X128793019Y-86709600D01*
X128793019Y-86709600D02*
X128869209Y-86747695D01*
X128869209Y-86747695D02*
X129021590Y-86747695D01*
X129021590Y-86747695D02*
X129097781Y-86709600D01*
X129097781Y-86709600D02*
X129135876Y-86671504D01*
X129135876Y-86671504D02*
X129173971Y-86595314D01*
X129173971Y-86595314D02*
X129173971Y-86404838D01*
X129173971Y-86404838D02*
X129135876Y-86328647D01*
X129135876Y-86328647D02*
X129097781Y-86290552D01*
X129097781Y-86290552D02*
X129021590Y-86252457D01*
X129021590Y-86252457D02*
X128869209Y-86252457D01*
X128869209Y-86252457D02*
X128793019Y-86290552D01*
X128793019Y-86290552D02*
X128754924Y-86328647D01*
X128754924Y-86328647D02*
X128716828Y-86404838D01*
X144297476Y-108680695D02*
X144297476Y-109328314D01*
X144297476Y-109328314D02*
X144335571Y-109404504D01*
X144335571Y-109404504D02*
X144373666Y-109442600D01*
X144373666Y-109442600D02*
X144449857Y-109480695D01*
X144449857Y-109480695D02*
X144602238Y-109480695D01*
X144602238Y-109480695D02*
X144678428Y-109442600D01*
X144678428Y-109442600D02*
X144716523Y-109404504D01*
X144716523Y-109404504D02*
X144754619Y-109328314D01*
X144754619Y-109328314D02*
X144754619Y-108680695D01*
X145478428Y-108947361D02*
X145478428Y-109480695D01*
X145287952Y-108642600D02*
X145097475Y-109214028D01*
X145097475Y-109214028D02*
X145592714Y-109214028D01*
X139439667Y-105873904D02*
X139401571Y-105912000D01*
X139401571Y-105912000D02*
X139287286Y-105950095D01*
X139287286Y-105950095D02*
X139211095Y-105950095D01*
X139211095Y-105950095D02*
X139096809Y-105912000D01*
X139096809Y-105912000D02*
X139020619Y-105835809D01*
X139020619Y-105835809D02*
X138982524Y-105759619D01*
X138982524Y-105759619D02*
X138944428Y-105607238D01*
X138944428Y-105607238D02*
X138944428Y-105492952D01*
X138944428Y-105492952D02*
X138982524Y-105340571D01*
X138982524Y-105340571D02*
X139020619Y-105264380D01*
X139020619Y-105264380D02*
X139096809Y-105188190D01*
X139096809Y-105188190D02*
X139211095Y-105150095D01*
X139211095Y-105150095D02*
X139287286Y-105150095D01*
X139287286Y-105150095D02*
X139401571Y-105188190D01*
X139401571Y-105188190D02*
X139439667Y-105226285D01*
X140125381Y-105416761D02*
X140125381Y-105950095D01*
X139934905Y-105112000D02*
X139744428Y-105683428D01*
X139744428Y-105683428D02*
X140239667Y-105683428D01*
X133445314Y-85325304D02*
X133407218Y-85363400D01*
X133407218Y-85363400D02*
X133292933Y-85401495D01*
X133292933Y-85401495D02*
X133216742Y-85401495D01*
X133216742Y-85401495D02*
X133102456Y-85363400D01*
X133102456Y-85363400D02*
X133026266Y-85287209D01*
X133026266Y-85287209D02*
X132988171Y-85211019D01*
X132988171Y-85211019D02*
X132950075Y-85058638D01*
X132950075Y-85058638D02*
X132950075Y-84944352D01*
X132950075Y-84944352D02*
X132988171Y-84791971D01*
X132988171Y-84791971D02*
X133026266Y-84715780D01*
X133026266Y-84715780D02*
X133102456Y-84639590D01*
X133102456Y-84639590D02*
X133216742Y-84601495D01*
X133216742Y-84601495D02*
X133292933Y-84601495D01*
X133292933Y-84601495D02*
X133407218Y-84639590D01*
X133407218Y-84639590D02*
X133445314Y-84677685D01*
X134207218Y-85401495D02*
X133750075Y-85401495D01*
X133978647Y-85401495D02*
X133978647Y-84601495D01*
X133978647Y-84601495D02*
X133902456Y-84715780D01*
X133902456Y-84715780D02*
X133826266Y-84791971D01*
X133826266Y-84791971D02*
X133750075Y-84830066D01*
X134892933Y-84601495D02*
X134740552Y-84601495D01*
X134740552Y-84601495D02*
X134664361Y-84639590D01*
X134664361Y-84639590D02*
X134626266Y-84677685D01*
X134626266Y-84677685D02*
X134550076Y-84791971D01*
X134550076Y-84791971D02*
X134511980Y-84944352D01*
X134511980Y-84944352D02*
X134511980Y-85249114D01*
X134511980Y-85249114D02*
X134550076Y-85325304D01*
X134550076Y-85325304D02*
X134588171Y-85363400D01*
X134588171Y-85363400D02*
X134664361Y-85401495D01*
X134664361Y-85401495D02*
X134816742Y-85401495D01*
X134816742Y-85401495D02*
X134892933Y-85363400D01*
X134892933Y-85363400D02*
X134931028Y-85325304D01*
X134931028Y-85325304D02*
X134969123Y-85249114D01*
X134969123Y-85249114D02*
X134969123Y-85058638D01*
X134969123Y-85058638D02*
X134931028Y-84982447D01*
X134931028Y-84982447D02*
X134892933Y-84944352D01*
X134892933Y-84944352D02*
X134816742Y-84906257D01*
X134816742Y-84906257D02*
X134664361Y-84906257D01*
X134664361Y-84906257D02*
X134588171Y-84944352D01*
X134588171Y-84944352D02*
X134550076Y-84982447D01*
X134550076Y-84982447D02*
X134511980Y-85058638D01*
X133207476Y-88500495D02*
X133207476Y-89148114D01*
X133207476Y-89148114D02*
X133245571Y-89224304D01*
X133245571Y-89224304D02*
X133283666Y-89262400D01*
X133283666Y-89262400D02*
X133359857Y-89300495D01*
X133359857Y-89300495D02*
X133512238Y-89300495D01*
X133512238Y-89300495D02*
X133588428Y-89262400D01*
X133588428Y-89262400D02*
X133626523Y-89224304D01*
X133626523Y-89224304D02*
X133664619Y-89148114D01*
X133664619Y-89148114D02*
X133664619Y-88500495D01*
X133969380Y-88500495D02*
X134464618Y-88500495D01*
X134464618Y-88500495D02*
X134197952Y-88805257D01*
X134197952Y-88805257D02*
X134312237Y-88805257D01*
X134312237Y-88805257D02*
X134388428Y-88843352D01*
X134388428Y-88843352D02*
X134426523Y-88881447D01*
X134426523Y-88881447D02*
X134464618Y-88957638D01*
X134464618Y-88957638D02*
X134464618Y-89148114D01*
X134464618Y-89148114D02*
X134426523Y-89224304D01*
X134426523Y-89224304D02*
X134388428Y-89262400D01*
X134388428Y-89262400D02*
X134312237Y-89300495D01*
X134312237Y-89300495D02*
X134083666Y-89300495D01*
X134083666Y-89300495D02*
X134007475Y-89262400D01*
X134007475Y-89262400D02*
X133969380Y-89224304D01*
X150532714Y-96094895D02*
X150266047Y-95713942D01*
X150075571Y-96094895D02*
X150075571Y-95294895D01*
X150075571Y-95294895D02*
X150380333Y-95294895D01*
X150380333Y-95294895D02*
X150456523Y-95332990D01*
X150456523Y-95332990D02*
X150494618Y-95371085D01*
X150494618Y-95371085D02*
X150532714Y-95447276D01*
X150532714Y-95447276D02*
X150532714Y-95561561D01*
X150532714Y-95561561D02*
X150494618Y-95637752D01*
X150494618Y-95637752D02*
X150456523Y-95675847D01*
X150456523Y-95675847D02*
X150380333Y-95713942D01*
X150380333Y-95713942D02*
X150075571Y-95713942D01*
X151294618Y-96094895D02*
X150837475Y-96094895D01*
X151066047Y-96094895D02*
X151066047Y-95294895D01*
X151066047Y-95294895D02*
X150989856Y-95409180D01*
X150989856Y-95409180D02*
X150913666Y-95485371D01*
X150913666Y-95485371D02*
X150837475Y-95523466D01*
X151675571Y-96094895D02*
X151827952Y-96094895D01*
X151827952Y-96094895D02*
X151904142Y-96056800D01*
X151904142Y-96056800D02*
X151942238Y-96018704D01*
X151942238Y-96018704D02*
X152018428Y-95904419D01*
X152018428Y-95904419D02*
X152056523Y-95752038D01*
X152056523Y-95752038D02*
X152056523Y-95447276D01*
X152056523Y-95447276D02*
X152018428Y-95371085D01*
X152018428Y-95371085D02*
X151980333Y-95332990D01*
X151980333Y-95332990D02*
X151904142Y-95294895D01*
X151904142Y-95294895D02*
X151751761Y-95294895D01*
X151751761Y-95294895D02*
X151675571Y-95332990D01*
X151675571Y-95332990D02*
X151637476Y-95371085D01*
X151637476Y-95371085D02*
X151599380Y-95447276D01*
X151599380Y-95447276D02*
X151599380Y-95637752D01*
X151599380Y-95637752D02*
X151637476Y-95713942D01*
X151637476Y-95713942D02*
X151675571Y-95752038D01*
X151675571Y-95752038D02*
X151751761Y-95790133D01*
X151751761Y-95790133D02*
X151904142Y-95790133D01*
X151904142Y-95790133D02*
X151980333Y-95752038D01*
X151980333Y-95752038D02*
X152018428Y-95713942D01*
X152018428Y-95713942D02*
X152056523Y-95637752D01*
X126815867Y-96729895D02*
X126549200Y-96348942D01*
X126358724Y-96729895D02*
X126358724Y-95929895D01*
X126358724Y-95929895D02*
X126663486Y-95929895D01*
X126663486Y-95929895D02*
X126739676Y-95967990D01*
X126739676Y-95967990D02*
X126777771Y-96006085D01*
X126777771Y-96006085D02*
X126815867Y-96082276D01*
X126815867Y-96082276D02*
X126815867Y-96196561D01*
X126815867Y-96196561D02*
X126777771Y-96272752D01*
X126777771Y-96272752D02*
X126739676Y-96310847D01*
X126739676Y-96310847D02*
X126663486Y-96348942D01*
X126663486Y-96348942D02*
X126358724Y-96348942D01*
X127501581Y-96196561D02*
X127501581Y-96729895D01*
X127311105Y-95891800D02*
X127120628Y-96463228D01*
X127120628Y-96463228D02*
X127615867Y-96463228D01*
X136717904Y-90356685D02*
X136756000Y-90394781D01*
X136756000Y-90394781D02*
X136794095Y-90509066D01*
X136794095Y-90509066D02*
X136794095Y-90585257D01*
X136794095Y-90585257D02*
X136756000Y-90699543D01*
X136756000Y-90699543D02*
X136679809Y-90775733D01*
X136679809Y-90775733D02*
X136603619Y-90813828D01*
X136603619Y-90813828D02*
X136451238Y-90851924D01*
X136451238Y-90851924D02*
X136336952Y-90851924D01*
X136336952Y-90851924D02*
X136184571Y-90813828D01*
X136184571Y-90813828D02*
X136108380Y-90775733D01*
X136108380Y-90775733D02*
X136032190Y-90699543D01*
X136032190Y-90699543D02*
X135994095Y-90585257D01*
X135994095Y-90585257D02*
X135994095Y-90509066D01*
X135994095Y-90509066D02*
X136032190Y-90394781D01*
X136032190Y-90394781D02*
X136070285Y-90356685D01*
X136794095Y-89594781D02*
X136794095Y-90051924D01*
X136794095Y-89823352D02*
X135994095Y-89823352D01*
X135994095Y-89823352D02*
X136108380Y-89899543D01*
X136108380Y-89899543D02*
X136184571Y-89975733D01*
X136184571Y-89975733D02*
X136222666Y-90051924D01*
X135994095Y-89099542D02*
X135994095Y-89023352D01*
X135994095Y-89023352D02*
X136032190Y-88947161D01*
X136032190Y-88947161D02*
X136070285Y-88909066D01*
X136070285Y-88909066D02*
X136146476Y-88870971D01*
X136146476Y-88870971D02*
X136298857Y-88832876D01*
X136298857Y-88832876D02*
X136489333Y-88832876D01*
X136489333Y-88832876D02*
X136641714Y-88870971D01*
X136641714Y-88870971D02*
X136717904Y-88909066D01*
X136717904Y-88909066D02*
X136756000Y-88947161D01*
X136756000Y-88947161D02*
X136794095Y-89023352D01*
X136794095Y-89023352D02*
X136794095Y-89099542D01*
X136794095Y-89099542D02*
X136756000Y-89175733D01*
X136756000Y-89175733D02*
X136717904Y-89213828D01*
X136717904Y-89213828D02*
X136641714Y-89251923D01*
X136641714Y-89251923D02*
X136489333Y-89290019D01*
X136489333Y-89290019D02*
X136298857Y-89290019D01*
X136298857Y-89290019D02*
X136146476Y-89251923D01*
X136146476Y-89251923D02*
X136070285Y-89213828D01*
X136070285Y-89213828D02*
X136032190Y-89175733D01*
X136032190Y-89175733D02*
X135994095Y-89099542D01*
X133665667Y-91712704D02*
X133627571Y-91750800D01*
X133627571Y-91750800D02*
X133513286Y-91788895D01*
X133513286Y-91788895D02*
X133437095Y-91788895D01*
X133437095Y-91788895D02*
X133322809Y-91750800D01*
X133322809Y-91750800D02*
X133246619Y-91674609D01*
X133246619Y-91674609D02*
X133208524Y-91598419D01*
X133208524Y-91598419D02*
X133170428Y-91446038D01*
X133170428Y-91446038D02*
X133170428Y-91331752D01*
X133170428Y-91331752D02*
X133208524Y-91179371D01*
X133208524Y-91179371D02*
X133246619Y-91103180D01*
X133246619Y-91103180D02*
X133322809Y-91026990D01*
X133322809Y-91026990D02*
X133437095Y-90988895D01*
X133437095Y-90988895D02*
X133513286Y-90988895D01*
X133513286Y-90988895D02*
X133627571Y-91026990D01*
X133627571Y-91026990D02*
X133665667Y-91065085D01*
X133932333Y-90988895D02*
X134427571Y-90988895D01*
X134427571Y-90988895D02*
X134160905Y-91293657D01*
X134160905Y-91293657D02*
X134275190Y-91293657D01*
X134275190Y-91293657D02*
X134351381Y-91331752D01*
X134351381Y-91331752D02*
X134389476Y-91369847D01*
X134389476Y-91369847D02*
X134427571Y-91446038D01*
X134427571Y-91446038D02*
X134427571Y-91636514D01*
X134427571Y-91636514D02*
X134389476Y-91712704D01*
X134389476Y-91712704D02*
X134351381Y-91750800D01*
X134351381Y-91750800D02*
X134275190Y-91788895D01*
X134275190Y-91788895D02*
X134046619Y-91788895D01*
X134046619Y-91788895D02*
X133970428Y-91750800D01*
X133970428Y-91750800D02*
X133932333Y-91712704D01*
X121532714Y-109734704D02*
X121494618Y-109772800D01*
X121494618Y-109772800D02*
X121380333Y-109810895D01*
X121380333Y-109810895D02*
X121304142Y-109810895D01*
X121304142Y-109810895D02*
X121189856Y-109772800D01*
X121189856Y-109772800D02*
X121113666Y-109696609D01*
X121113666Y-109696609D02*
X121075571Y-109620419D01*
X121075571Y-109620419D02*
X121037475Y-109468038D01*
X121037475Y-109468038D02*
X121037475Y-109353752D01*
X121037475Y-109353752D02*
X121075571Y-109201371D01*
X121075571Y-109201371D02*
X121113666Y-109125180D01*
X121113666Y-109125180D02*
X121189856Y-109048990D01*
X121189856Y-109048990D02*
X121304142Y-109010895D01*
X121304142Y-109010895D02*
X121380333Y-109010895D01*
X121380333Y-109010895D02*
X121494618Y-109048990D01*
X121494618Y-109048990D02*
X121532714Y-109087085D01*
X121837475Y-109087085D02*
X121875571Y-109048990D01*
X121875571Y-109048990D02*
X121951761Y-109010895D01*
X121951761Y-109010895D02*
X122142237Y-109010895D01*
X122142237Y-109010895D02*
X122218428Y-109048990D01*
X122218428Y-109048990D02*
X122256523Y-109087085D01*
X122256523Y-109087085D02*
X122294618Y-109163276D01*
X122294618Y-109163276D02*
X122294618Y-109239466D01*
X122294618Y-109239466D02*
X122256523Y-109353752D01*
X122256523Y-109353752D02*
X121799380Y-109810895D01*
X121799380Y-109810895D02*
X122294618Y-109810895D01*
X123056523Y-109810895D02*
X122599380Y-109810895D01*
X122827952Y-109810895D02*
X122827952Y-109010895D01*
X122827952Y-109010895D02*
X122751761Y-109125180D01*
X122751761Y-109125180D02*
X122675571Y-109201371D01*
X122675571Y-109201371D02*
X122599380Y-109239466D01*
X134405276Y-107372195D02*
X134405276Y-108019814D01*
X134405276Y-108019814D02*
X134443371Y-108096004D01*
X134443371Y-108096004D02*
X134481466Y-108134100D01*
X134481466Y-108134100D02*
X134557657Y-108172195D01*
X134557657Y-108172195D02*
X134710038Y-108172195D01*
X134710038Y-108172195D02*
X134786228Y-108134100D01*
X134786228Y-108134100D02*
X134824323Y-108096004D01*
X134824323Y-108096004D02*
X134862419Y-108019814D01*
X134862419Y-108019814D02*
X134862419Y-107372195D01*
X135205275Y-107448385D02*
X135243371Y-107410290D01*
X135243371Y-107410290D02*
X135319561Y-107372195D01*
X135319561Y-107372195D02*
X135510037Y-107372195D01*
X135510037Y-107372195D02*
X135586228Y-107410290D01*
X135586228Y-107410290D02*
X135624323Y-107448385D01*
X135624323Y-107448385D02*
X135662418Y-107524576D01*
X135662418Y-107524576D02*
X135662418Y-107600766D01*
X135662418Y-107600766D02*
X135624323Y-107715052D01*
X135624323Y-107715052D02*
X135167180Y-108172195D01*
X135167180Y-108172195D02*
X135662418Y-108172195D01*
X147037466Y-80658619D02*
X147037466Y-81372904D01*
X147037466Y-81372904D02*
X146989847Y-81515761D01*
X146989847Y-81515761D02*
X146894609Y-81611000D01*
X146894609Y-81611000D02*
X146751752Y-81658619D01*
X146751752Y-81658619D02*
X146656514Y-81658619D01*
X147942228Y-80991952D02*
X147942228Y-81658619D01*
X147704133Y-80611000D02*
X147466038Y-81325285D01*
X147466038Y-81325285D02*
X148085085Y-81325285D01*
X148622104Y-104654332D02*
X148660200Y-104692428D01*
X148660200Y-104692428D02*
X148698295Y-104806713D01*
X148698295Y-104806713D02*
X148698295Y-104882904D01*
X148698295Y-104882904D02*
X148660200Y-104997190D01*
X148660200Y-104997190D02*
X148584009Y-105073380D01*
X148584009Y-105073380D02*
X148507819Y-105111475D01*
X148507819Y-105111475D02*
X148355438Y-105149571D01*
X148355438Y-105149571D02*
X148241152Y-105149571D01*
X148241152Y-105149571D02*
X148088771Y-105111475D01*
X148088771Y-105111475D02*
X148012580Y-105073380D01*
X148012580Y-105073380D02*
X147936390Y-104997190D01*
X147936390Y-104997190D02*
X147898295Y-104882904D01*
X147898295Y-104882904D02*
X147898295Y-104806713D01*
X147898295Y-104806713D02*
X147936390Y-104692428D01*
X147936390Y-104692428D02*
X147974485Y-104654332D01*
X147898295Y-104387666D02*
X147898295Y-103854332D01*
X147898295Y-103854332D02*
X148698295Y-104197190D01*
X136067809Y-79483285D02*
X135991619Y-79445190D01*
X135991619Y-79445190D02*
X135915428Y-79369000D01*
X135915428Y-79369000D02*
X135801142Y-79254714D01*
X135801142Y-79254714D02*
X135724952Y-79216619D01*
X135724952Y-79216619D02*
X135648761Y-79216619D01*
X135686857Y-79407095D02*
X135610666Y-79369000D01*
X135610666Y-79369000D02*
X135534476Y-79292809D01*
X135534476Y-79292809D02*
X135496380Y-79140428D01*
X135496380Y-79140428D02*
X135496380Y-78873761D01*
X135496380Y-78873761D02*
X135534476Y-78721380D01*
X135534476Y-78721380D02*
X135610666Y-78645190D01*
X135610666Y-78645190D02*
X135686857Y-78607095D01*
X135686857Y-78607095D02*
X135839238Y-78607095D01*
X135839238Y-78607095D02*
X135915428Y-78645190D01*
X135915428Y-78645190D02*
X135991619Y-78721380D01*
X135991619Y-78721380D02*
X136029714Y-78873761D01*
X136029714Y-78873761D02*
X136029714Y-79140428D01*
X136029714Y-79140428D02*
X135991619Y-79292809D01*
X135991619Y-79292809D02*
X135915428Y-79369000D01*
X135915428Y-79369000D02*
X135839238Y-79407095D01*
X135839238Y-79407095D02*
X135686857Y-79407095D01*
X136791618Y-79407095D02*
X136334475Y-79407095D01*
X136563047Y-79407095D02*
X136563047Y-78607095D01*
X136563047Y-78607095D02*
X136486856Y-78721380D01*
X136486856Y-78721380D02*
X136410666Y-78797571D01*
X136410666Y-78797571D02*
X136334475Y-78835666D01*
X123412267Y-91192695D02*
X123145600Y-90811742D01*
X122955124Y-91192695D02*
X122955124Y-90392695D01*
X122955124Y-90392695D02*
X123259886Y-90392695D01*
X123259886Y-90392695D02*
X123336076Y-90430790D01*
X123336076Y-90430790D02*
X123374171Y-90468885D01*
X123374171Y-90468885D02*
X123412267Y-90545076D01*
X123412267Y-90545076D02*
X123412267Y-90659361D01*
X123412267Y-90659361D02*
X123374171Y-90735552D01*
X123374171Y-90735552D02*
X123336076Y-90773647D01*
X123336076Y-90773647D02*
X123259886Y-90811742D01*
X123259886Y-90811742D02*
X122955124Y-90811742D01*
X123717028Y-90468885D02*
X123755124Y-90430790D01*
X123755124Y-90430790D02*
X123831314Y-90392695D01*
X123831314Y-90392695D02*
X124021790Y-90392695D01*
X124021790Y-90392695D02*
X124097981Y-90430790D01*
X124097981Y-90430790D02*
X124136076Y-90468885D01*
X124136076Y-90468885D02*
X124174171Y-90545076D01*
X124174171Y-90545076D02*
X124174171Y-90621266D01*
X124174171Y-90621266D02*
X124136076Y-90735552D01*
X124136076Y-90735552D02*
X123678933Y-91192695D01*
X123678933Y-91192695D02*
X124174171Y-91192695D01*
X127031867Y-91116504D02*
X126993771Y-91154600D01*
X126993771Y-91154600D02*
X126879486Y-91192695D01*
X126879486Y-91192695D02*
X126803295Y-91192695D01*
X126803295Y-91192695D02*
X126689009Y-91154600D01*
X126689009Y-91154600D02*
X126612819Y-91078409D01*
X126612819Y-91078409D02*
X126574724Y-91002219D01*
X126574724Y-91002219D02*
X126536628Y-90849838D01*
X126536628Y-90849838D02*
X126536628Y-90735552D01*
X126536628Y-90735552D02*
X126574724Y-90583171D01*
X126574724Y-90583171D02*
X126612819Y-90506980D01*
X126612819Y-90506980D02*
X126689009Y-90430790D01*
X126689009Y-90430790D02*
X126803295Y-90392695D01*
X126803295Y-90392695D02*
X126879486Y-90392695D01*
X126879486Y-90392695D02*
X126993771Y-90430790D01*
X126993771Y-90430790D02*
X127031867Y-90468885D01*
X127755676Y-90392695D02*
X127374724Y-90392695D01*
X127374724Y-90392695D02*
X127336628Y-90773647D01*
X127336628Y-90773647D02*
X127374724Y-90735552D01*
X127374724Y-90735552D02*
X127450914Y-90697457D01*
X127450914Y-90697457D02*
X127641390Y-90697457D01*
X127641390Y-90697457D02*
X127717581Y-90735552D01*
X127717581Y-90735552D02*
X127755676Y-90773647D01*
X127755676Y-90773647D02*
X127793771Y-90849838D01*
X127793771Y-90849838D02*
X127793771Y-91040314D01*
X127793771Y-91040314D02*
X127755676Y-91116504D01*
X127755676Y-91116504D02*
X127717581Y-91154600D01*
X127717581Y-91154600D02*
X127641390Y-91192695D01*
X127641390Y-91192695D02*
X127450914Y-91192695D01*
X127450914Y-91192695D02*
X127374724Y-91154600D01*
X127374724Y-91154600D02*
X127336628Y-91116504D01*
X130854514Y-111809104D02*
X130816418Y-111847200D01*
X130816418Y-111847200D02*
X130702133Y-111885295D01*
X130702133Y-111885295D02*
X130625942Y-111885295D01*
X130625942Y-111885295D02*
X130511656Y-111847200D01*
X130511656Y-111847200D02*
X130435466Y-111771009D01*
X130435466Y-111771009D02*
X130397371Y-111694819D01*
X130397371Y-111694819D02*
X130359275Y-111542438D01*
X130359275Y-111542438D02*
X130359275Y-111428152D01*
X130359275Y-111428152D02*
X130397371Y-111275771D01*
X130397371Y-111275771D02*
X130435466Y-111199580D01*
X130435466Y-111199580D02*
X130511656Y-111123390D01*
X130511656Y-111123390D02*
X130625942Y-111085295D01*
X130625942Y-111085295D02*
X130702133Y-111085295D01*
X130702133Y-111085295D02*
X130816418Y-111123390D01*
X130816418Y-111123390D02*
X130854514Y-111161485D01*
X131159275Y-111161485D02*
X131197371Y-111123390D01*
X131197371Y-111123390D02*
X131273561Y-111085295D01*
X131273561Y-111085295D02*
X131464037Y-111085295D01*
X131464037Y-111085295D02*
X131540228Y-111123390D01*
X131540228Y-111123390D02*
X131578323Y-111161485D01*
X131578323Y-111161485D02*
X131616418Y-111237676D01*
X131616418Y-111237676D02*
X131616418Y-111313866D01*
X131616418Y-111313866D02*
X131578323Y-111428152D01*
X131578323Y-111428152D02*
X131121180Y-111885295D01*
X131121180Y-111885295D02*
X131616418Y-111885295D01*
X131921180Y-111161485D02*
X131959276Y-111123390D01*
X131959276Y-111123390D02*
X132035466Y-111085295D01*
X132035466Y-111085295D02*
X132225942Y-111085295D01*
X132225942Y-111085295D02*
X132302133Y-111123390D01*
X132302133Y-111123390D02*
X132340228Y-111161485D01*
X132340228Y-111161485D02*
X132378323Y-111237676D01*
X132378323Y-111237676D02*
X132378323Y-111313866D01*
X132378323Y-111313866D02*
X132340228Y-111428152D01*
X132340228Y-111428152D02*
X131883085Y-111885295D01*
X131883085Y-111885295D02*
X132378323Y-111885295D01*
X131210067Y-99981104D02*
X131171971Y-100019200D01*
X131171971Y-100019200D02*
X131057686Y-100057295D01*
X131057686Y-100057295D02*
X130981495Y-100057295D01*
X130981495Y-100057295D02*
X130867209Y-100019200D01*
X130867209Y-100019200D02*
X130791019Y-99943009D01*
X130791019Y-99943009D02*
X130752924Y-99866819D01*
X130752924Y-99866819D02*
X130714828Y-99714438D01*
X130714828Y-99714438D02*
X130714828Y-99600152D01*
X130714828Y-99600152D02*
X130752924Y-99447771D01*
X130752924Y-99447771D02*
X130791019Y-99371580D01*
X130791019Y-99371580D02*
X130867209Y-99295390D01*
X130867209Y-99295390D02*
X130981495Y-99257295D01*
X130981495Y-99257295D02*
X131057686Y-99257295D01*
X131057686Y-99257295D02*
X131171971Y-99295390D01*
X131171971Y-99295390D02*
X131210067Y-99333485D01*
X131591019Y-100057295D02*
X131743400Y-100057295D01*
X131743400Y-100057295D02*
X131819590Y-100019200D01*
X131819590Y-100019200D02*
X131857686Y-99981104D01*
X131857686Y-99981104D02*
X131933876Y-99866819D01*
X131933876Y-99866819D02*
X131971971Y-99714438D01*
X131971971Y-99714438D02*
X131971971Y-99409676D01*
X131971971Y-99409676D02*
X131933876Y-99333485D01*
X131933876Y-99333485D02*
X131895781Y-99295390D01*
X131895781Y-99295390D02*
X131819590Y-99257295D01*
X131819590Y-99257295D02*
X131667209Y-99257295D01*
X131667209Y-99257295D02*
X131591019Y-99295390D01*
X131591019Y-99295390D02*
X131552924Y-99333485D01*
X131552924Y-99333485D02*
X131514828Y-99409676D01*
X131514828Y-99409676D02*
X131514828Y-99600152D01*
X131514828Y-99600152D02*
X131552924Y-99676342D01*
X131552924Y-99676342D02*
X131591019Y-99714438D01*
X131591019Y-99714438D02*
X131667209Y-99752533D01*
X131667209Y-99752533D02*
X131819590Y-99752533D01*
X131819590Y-99752533D02*
X131895781Y-99714438D01*
X131895781Y-99714438D02*
X131933876Y-99676342D01*
X131933876Y-99676342D02*
X131971971Y-99600152D01*
X150539514Y-103486295D02*
X150272847Y-103105342D01*
X150082371Y-103486295D02*
X150082371Y-102686295D01*
X150082371Y-102686295D02*
X150387133Y-102686295D01*
X150387133Y-102686295D02*
X150463323Y-102724390D01*
X150463323Y-102724390D02*
X150501418Y-102762485D01*
X150501418Y-102762485D02*
X150539514Y-102838676D01*
X150539514Y-102838676D02*
X150539514Y-102952961D01*
X150539514Y-102952961D02*
X150501418Y-103029152D01*
X150501418Y-103029152D02*
X150463323Y-103067247D01*
X150463323Y-103067247D02*
X150387133Y-103105342D01*
X150387133Y-103105342D02*
X150082371Y-103105342D01*
X151301418Y-103486295D02*
X150844275Y-103486295D01*
X151072847Y-103486295D02*
X151072847Y-102686295D01*
X151072847Y-102686295D02*
X150996656Y-102800580D01*
X150996656Y-102800580D02*
X150920466Y-102876771D01*
X150920466Y-102876771D02*
X150844275Y-102914866D01*
X151758561Y-103029152D02*
X151682371Y-102991057D01*
X151682371Y-102991057D02*
X151644276Y-102952961D01*
X151644276Y-102952961D02*
X151606180Y-102876771D01*
X151606180Y-102876771D02*
X151606180Y-102838676D01*
X151606180Y-102838676D02*
X151644276Y-102762485D01*
X151644276Y-102762485D02*
X151682371Y-102724390D01*
X151682371Y-102724390D02*
X151758561Y-102686295D01*
X151758561Y-102686295D02*
X151910942Y-102686295D01*
X151910942Y-102686295D02*
X151987133Y-102724390D01*
X151987133Y-102724390D02*
X152025228Y-102762485D01*
X152025228Y-102762485D02*
X152063323Y-102838676D01*
X152063323Y-102838676D02*
X152063323Y-102876771D01*
X152063323Y-102876771D02*
X152025228Y-102952961D01*
X152025228Y-102952961D02*
X151987133Y-102991057D01*
X151987133Y-102991057D02*
X151910942Y-103029152D01*
X151910942Y-103029152D02*
X151758561Y-103029152D01*
X151758561Y-103029152D02*
X151682371Y-103067247D01*
X151682371Y-103067247D02*
X151644276Y-103105342D01*
X151644276Y-103105342D02*
X151606180Y-103181533D01*
X151606180Y-103181533D02*
X151606180Y-103333914D01*
X151606180Y-103333914D02*
X151644276Y-103410104D01*
X151644276Y-103410104D02*
X151682371Y-103448200D01*
X151682371Y-103448200D02*
X151758561Y-103486295D01*
X151758561Y-103486295D02*
X151910942Y-103486295D01*
X151910942Y-103486295D02*
X151987133Y-103448200D01*
X151987133Y-103448200D02*
X152025228Y-103410104D01*
X152025228Y-103410104D02*
X152063323Y-103333914D01*
X152063323Y-103333914D02*
X152063323Y-103181533D01*
X152063323Y-103181533D02*
X152025228Y-103105342D01*
X152025228Y-103105342D02*
X151987133Y-103067247D01*
X151987133Y-103067247D02*
X151910942Y-103029152D01*
X133219314Y-111842904D02*
X133181218Y-111881000D01*
X133181218Y-111881000D02*
X133066933Y-111919095D01*
X133066933Y-111919095D02*
X132990742Y-111919095D01*
X132990742Y-111919095D02*
X132876456Y-111881000D01*
X132876456Y-111881000D02*
X132800266Y-111804809D01*
X132800266Y-111804809D02*
X132762171Y-111728619D01*
X132762171Y-111728619D02*
X132724075Y-111576238D01*
X132724075Y-111576238D02*
X132724075Y-111461952D01*
X132724075Y-111461952D02*
X132762171Y-111309571D01*
X132762171Y-111309571D02*
X132800266Y-111233380D01*
X132800266Y-111233380D02*
X132876456Y-111157190D01*
X132876456Y-111157190D02*
X132990742Y-111119095D01*
X132990742Y-111119095D02*
X133066933Y-111119095D01*
X133066933Y-111119095D02*
X133181218Y-111157190D01*
X133181218Y-111157190D02*
X133219314Y-111195285D01*
X133981218Y-111919095D02*
X133524075Y-111919095D01*
X133752647Y-111919095D02*
X133752647Y-111119095D01*
X133752647Y-111119095D02*
X133676456Y-111233380D01*
X133676456Y-111233380D02*
X133600266Y-111309571D01*
X133600266Y-111309571D02*
X133524075Y-111347666D01*
X134247885Y-111119095D02*
X134743123Y-111119095D01*
X134743123Y-111119095D02*
X134476457Y-111423857D01*
X134476457Y-111423857D02*
X134590742Y-111423857D01*
X134590742Y-111423857D02*
X134666933Y-111461952D01*
X134666933Y-111461952D02*
X134705028Y-111500047D01*
X134705028Y-111500047D02*
X134743123Y-111576238D01*
X134743123Y-111576238D02*
X134743123Y-111766714D01*
X134743123Y-111766714D02*
X134705028Y-111842904D01*
X134705028Y-111842904D02*
X134666933Y-111881000D01*
X134666933Y-111881000D02*
X134590742Y-111919095D01*
X134590742Y-111919095D02*
X134362171Y-111919095D01*
X134362171Y-111919095D02*
X134285980Y-111881000D01*
X134285980Y-111881000D02*
X134247885Y-111842904D01*
X135232466Y-115105619D02*
X135232466Y-115819904D01*
X135232466Y-115819904D02*
X135184847Y-115962761D01*
X135184847Y-115962761D02*
X135089609Y-116058000D01*
X135089609Y-116058000D02*
X134946752Y-116105619D01*
X134946752Y-116105619D02*
X134851514Y-116105619D01*
X135661038Y-115200857D02*
X135708657Y-115153238D01*
X135708657Y-115153238D02*
X135803895Y-115105619D01*
X135803895Y-115105619D02*
X136041990Y-115105619D01*
X136041990Y-115105619D02*
X136137228Y-115153238D01*
X136137228Y-115153238D02*
X136184847Y-115200857D01*
X136184847Y-115200857D02*
X136232466Y-115296095D01*
X136232466Y-115296095D02*
X136232466Y-115391333D01*
X136232466Y-115391333D02*
X136184847Y-115534190D01*
X136184847Y-115534190D02*
X135613419Y-116105619D01*
X135613419Y-116105619D02*
X136232466Y-116105619D01*
X156560619Y-101191333D02*
X157274904Y-101191333D01*
X157274904Y-101191333D02*
X157417761Y-101238952D01*
X157417761Y-101238952D02*
X157513000Y-101334190D01*
X157513000Y-101334190D02*
X157560619Y-101477047D01*
X157560619Y-101477047D02*
X157560619Y-101572285D01*
X157560619Y-100191333D02*
X157560619Y-100762761D01*
X157560619Y-100477047D02*
X156560619Y-100477047D01*
X156560619Y-100477047D02*
X156703476Y-100572285D01*
X156703476Y-100572285D02*
X156798714Y-100667523D01*
X156798714Y-100667523D02*
X156846333Y-100762761D01*
X135733914Y-111817504D02*
X135695818Y-111855600D01*
X135695818Y-111855600D02*
X135581533Y-111893695D01*
X135581533Y-111893695D02*
X135505342Y-111893695D01*
X135505342Y-111893695D02*
X135391056Y-111855600D01*
X135391056Y-111855600D02*
X135314866Y-111779409D01*
X135314866Y-111779409D02*
X135276771Y-111703219D01*
X135276771Y-111703219D02*
X135238675Y-111550838D01*
X135238675Y-111550838D02*
X135238675Y-111436552D01*
X135238675Y-111436552D02*
X135276771Y-111284171D01*
X135276771Y-111284171D02*
X135314866Y-111207980D01*
X135314866Y-111207980D02*
X135391056Y-111131790D01*
X135391056Y-111131790D02*
X135505342Y-111093695D01*
X135505342Y-111093695D02*
X135581533Y-111093695D01*
X135581533Y-111093695D02*
X135695818Y-111131790D01*
X135695818Y-111131790D02*
X135733914Y-111169885D01*
X136495818Y-111893695D02*
X136038675Y-111893695D01*
X136267247Y-111893695D02*
X136267247Y-111093695D01*
X136267247Y-111093695D02*
X136191056Y-111207980D01*
X136191056Y-111207980D02*
X136114866Y-111284171D01*
X136114866Y-111284171D02*
X136038675Y-111322266D01*
X137219628Y-111093695D02*
X136838676Y-111093695D01*
X136838676Y-111093695D02*
X136800580Y-111474647D01*
X136800580Y-111474647D02*
X136838676Y-111436552D01*
X136838676Y-111436552D02*
X136914866Y-111398457D01*
X136914866Y-111398457D02*
X137105342Y-111398457D01*
X137105342Y-111398457D02*
X137181533Y-111436552D01*
X137181533Y-111436552D02*
X137219628Y-111474647D01*
X137219628Y-111474647D02*
X137257723Y-111550838D01*
X137257723Y-111550838D02*
X137257723Y-111741314D01*
X137257723Y-111741314D02*
X137219628Y-111817504D01*
X137219628Y-111817504D02*
X137181533Y-111855600D01*
X137181533Y-111855600D02*
X137105342Y-111893695D01*
X137105342Y-111893695D02*
X136914866Y-111893695D01*
X136914866Y-111893695D02*
X136838676Y-111855600D01*
X136838676Y-111855600D02*
X136800580Y-111817504D01*
X129309219Y-104062504D02*
X130118742Y-104062504D01*
X130118742Y-104062504D02*
X130213980Y-104014885D01*
X130213980Y-104014885D02*
X130261600Y-103967266D01*
X130261600Y-103967266D02*
X130309219Y-103872028D01*
X130309219Y-103872028D02*
X130309219Y-103681552D01*
X130309219Y-103681552D02*
X130261600Y-103586314D01*
X130261600Y-103586314D02*
X130213980Y-103538695D01*
X130213980Y-103538695D02*
X130118742Y-103491076D01*
X130118742Y-103491076D02*
X129309219Y-103491076D01*
X129309219Y-102538695D02*
X129309219Y-103014885D01*
X129309219Y-103014885D02*
X129785409Y-103062504D01*
X129785409Y-103062504D02*
X129737790Y-103014885D01*
X129737790Y-103014885D02*
X129690171Y-102919647D01*
X129690171Y-102919647D02*
X129690171Y-102681552D01*
X129690171Y-102681552D02*
X129737790Y-102586314D01*
X129737790Y-102586314D02*
X129785409Y-102538695D01*
X129785409Y-102538695D02*
X129880647Y-102491076D01*
X129880647Y-102491076D02*
X130118742Y-102491076D01*
X130118742Y-102491076D02*
X130213980Y-102538695D01*
X130213980Y-102538695D02*
X130261600Y-102586314D01*
X130261600Y-102586314D02*
X130309219Y-102681552D01*
X130309219Y-102681552D02*
X130309219Y-102919647D01*
X130309219Y-102919647D02*
X130261600Y-103014885D01*
X130261600Y-103014885D02*
X130213980Y-103062504D01*
X128485964Y-111833904D02*
X128447868Y-111872000D01*
X128447868Y-111872000D02*
X128333583Y-111910095D01*
X128333583Y-111910095D02*
X128257392Y-111910095D01*
X128257392Y-111910095D02*
X128143106Y-111872000D01*
X128143106Y-111872000D02*
X128066916Y-111795809D01*
X128066916Y-111795809D02*
X128028821Y-111719619D01*
X128028821Y-111719619D02*
X127990725Y-111567238D01*
X127990725Y-111567238D02*
X127990725Y-111452952D01*
X127990725Y-111452952D02*
X128028821Y-111300571D01*
X128028821Y-111300571D02*
X128066916Y-111224380D01*
X128066916Y-111224380D02*
X128143106Y-111148190D01*
X128143106Y-111148190D02*
X128257392Y-111110095D01*
X128257392Y-111110095D02*
X128333583Y-111110095D01*
X128333583Y-111110095D02*
X128447868Y-111148190D01*
X128447868Y-111148190D02*
X128485964Y-111186285D01*
X128790725Y-111186285D02*
X128828821Y-111148190D01*
X128828821Y-111148190D02*
X128905011Y-111110095D01*
X128905011Y-111110095D02*
X129095487Y-111110095D01*
X129095487Y-111110095D02*
X129171678Y-111148190D01*
X129171678Y-111148190D02*
X129209773Y-111186285D01*
X129209773Y-111186285D02*
X129247868Y-111262476D01*
X129247868Y-111262476D02*
X129247868Y-111338666D01*
X129247868Y-111338666D02*
X129209773Y-111452952D01*
X129209773Y-111452952D02*
X128752630Y-111910095D01*
X128752630Y-111910095D02*
X129247868Y-111910095D01*
X129514535Y-111110095D02*
X130009773Y-111110095D01*
X130009773Y-111110095D02*
X129743107Y-111414857D01*
X129743107Y-111414857D02*
X129857392Y-111414857D01*
X129857392Y-111414857D02*
X129933583Y-111452952D01*
X129933583Y-111452952D02*
X129971678Y-111491047D01*
X129971678Y-111491047D02*
X130009773Y-111567238D01*
X130009773Y-111567238D02*
X130009773Y-111757714D01*
X130009773Y-111757714D02*
X129971678Y-111833904D01*
X129971678Y-111833904D02*
X129933583Y-111872000D01*
X129933583Y-111872000D02*
X129857392Y-111910095D01*
X129857392Y-111910095D02*
X129628821Y-111910095D01*
X129628821Y-111910095D02*
X129552630Y-111872000D01*
X129552630Y-111872000D02*
X129514535Y-111833904D01*
X128670114Y-115449695D02*
X128403447Y-115068742D01*
X128212971Y-115449695D02*
X128212971Y-114649695D01*
X128212971Y-114649695D02*
X128517733Y-114649695D01*
X128517733Y-114649695D02*
X128593923Y-114687790D01*
X128593923Y-114687790D02*
X128632018Y-114725885D01*
X128632018Y-114725885D02*
X128670114Y-114802076D01*
X128670114Y-114802076D02*
X128670114Y-114916361D01*
X128670114Y-114916361D02*
X128632018Y-114992552D01*
X128632018Y-114992552D02*
X128593923Y-115030647D01*
X128593923Y-115030647D02*
X128517733Y-115068742D01*
X128517733Y-115068742D02*
X128212971Y-115068742D01*
X129432018Y-115449695D02*
X128974875Y-115449695D01*
X129203447Y-115449695D02*
X129203447Y-114649695D01*
X129203447Y-114649695D02*
X129127256Y-114763980D01*
X129127256Y-114763980D02*
X129051066Y-114840171D01*
X129051066Y-114840171D02*
X128974875Y-114878266D01*
X129927257Y-114649695D02*
X130003447Y-114649695D01*
X130003447Y-114649695D02*
X130079638Y-114687790D01*
X130079638Y-114687790D02*
X130117733Y-114725885D01*
X130117733Y-114725885D02*
X130155828Y-114802076D01*
X130155828Y-114802076D02*
X130193923Y-114954457D01*
X130193923Y-114954457D02*
X130193923Y-115144933D01*
X130193923Y-115144933D02*
X130155828Y-115297314D01*
X130155828Y-115297314D02*
X130117733Y-115373504D01*
X130117733Y-115373504D02*
X130079638Y-115411600D01*
X130079638Y-115411600D02*
X130003447Y-115449695D01*
X130003447Y-115449695D02*
X129927257Y-115449695D01*
X129927257Y-115449695D02*
X129851066Y-115411600D01*
X129851066Y-115411600D02*
X129812971Y-115373504D01*
X129812971Y-115373504D02*
X129774876Y-115297314D01*
X129774876Y-115297314D02*
X129736780Y-115144933D01*
X129736780Y-115144933D02*
X129736780Y-114954457D01*
X129736780Y-114954457D02*
X129774876Y-114802076D01*
X129774876Y-114802076D02*
X129812971Y-114725885D01*
X129812971Y-114725885D02*
X129851066Y-114687790D01*
X129851066Y-114687790D02*
X129927257Y-114649695D01*
X128416067Y-88411395D02*
X128149400Y-88030442D01*
X127958924Y-88411395D02*
X127958924Y-87611395D01*
X127958924Y-87611395D02*
X128263686Y-87611395D01*
X128263686Y-87611395D02*
X128339876Y-87649490D01*
X128339876Y-87649490D02*
X128377971Y-87687585D01*
X128377971Y-87687585D02*
X128416067Y-87763776D01*
X128416067Y-87763776D02*
X128416067Y-87878061D01*
X128416067Y-87878061D02*
X128377971Y-87954252D01*
X128377971Y-87954252D02*
X128339876Y-87992347D01*
X128339876Y-87992347D02*
X128263686Y-88030442D01*
X128263686Y-88030442D02*
X127958924Y-88030442D01*
X129139876Y-87611395D02*
X128758924Y-87611395D01*
X128758924Y-87611395D02*
X128720828Y-87992347D01*
X128720828Y-87992347D02*
X128758924Y-87954252D01*
X128758924Y-87954252D02*
X128835114Y-87916157D01*
X128835114Y-87916157D02*
X129025590Y-87916157D01*
X129025590Y-87916157D02*
X129101781Y-87954252D01*
X129101781Y-87954252D02*
X129139876Y-87992347D01*
X129139876Y-87992347D02*
X129177971Y-88068538D01*
X129177971Y-88068538D02*
X129177971Y-88259014D01*
X129177971Y-88259014D02*
X129139876Y-88335204D01*
X129139876Y-88335204D02*
X129101781Y-88373300D01*
X129101781Y-88373300D02*
X129025590Y-88411395D01*
X129025590Y-88411395D02*
X128835114Y-88411395D01*
X128835114Y-88411395D02*
X128758924Y-88373300D01*
X128758924Y-88373300D02*
X128720828Y-88335204D01*
X150943267Y-94443904D02*
X150905171Y-94482000D01*
X150905171Y-94482000D02*
X150790886Y-94520095D01*
X150790886Y-94520095D02*
X150714695Y-94520095D01*
X150714695Y-94520095D02*
X150600409Y-94482000D01*
X150600409Y-94482000D02*
X150524219Y-94405809D01*
X150524219Y-94405809D02*
X150486124Y-94329619D01*
X150486124Y-94329619D02*
X150448028Y-94177238D01*
X150448028Y-94177238D02*
X150448028Y-94062952D01*
X150448028Y-94062952D02*
X150486124Y-93910571D01*
X150486124Y-93910571D02*
X150524219Y-93834380D01*
X150524219Y-93834380D02*
X150600409Y-93758190D01*
X150600409Y-93758190D02*
X150714695Y-93720095D01*
X150714695Y-93720095D02*
X150790886Y-93720095D01*
X150790886Y-93720095D02*
X150905171Y-93758190D01*
X150905171Y-93758190D02*
X150943267Y-93796285D01*
X151248028Y-93796285D02*
X151286124Y-93758190D01*
X151286124Y-93758190D02*
X151362314Y-93720095D01*
X151362314Y-93720095D02*
X151552790Y-93720095D01*
X151552790Y-93720095D02*
X151628981Y-93758190D01*
X151628981Y-93758190D02*
X151667076Y-93796285D01*
X151667076Y-93796285D02*
X151705171Y-93872476D01*
X151705171Y-93872476D02*
X151705171Y-93948666D01*
X151705171Y-93948666D02*
X151667076Y-94062952D01*
X151667076Y-94062952D02*
X151209933Y-94520095D01*
X151209933Y-94520095D02*
X151705171Y-94520095D01*
X123412267Y-98330095D02*
X123145600Y-97949142D01*
X122955124Y-98330095D02*
X122955124Y-97530095D01*
X122955124Y-97530095D02*
X123259886Y-97530095D01*
X123259886Y-97530095D02*
X123336076Y-97568190D01*
X123336076Y-97568190D02*
X123374171Y-97606285D01*
X123374171Y-97606285D02*
X123412267Y-97682476D01*
X123412267Y-97682476D02*
X123412267Y-97796761D01*
X123412267Y-97796761D02*
X123374171Y-97872952D01*
X123374171Y-97872952D02*
X123336076Y-97911047D01*
X123336076Y-97911047D02*
X123259886Y-97949142D01*
X123259886Y-97949142D02*
X122955124Y-97949142D01*
X123678933Y-97530095D02*
X124174171Y-97530095D01*
X124174171Y-97530095D02*
X123907505Y-97834857D01*
X123907505Y-97834857D02*
X124021790Y-97834857D01*
X124021790Y-97834857D02*
X124097981Y-97872952D01*
X124097981Y-97872952D02*
X124136076Y-97911047D01*
X124136076Y-97911047D02*
X124174171Y-97987238D01*
X124174171Y-97987238D02*
X124174171Y-98177714D01*
X124174171Y-98177714D02*
X124136076Y-98253904D01*
X124136076Y-98253904D02*
X124097981Y-98292000D01*
X124097981Y-98292000D02*
X124021790Y-98330095D01*
X124021790Y-98330095D02*
X123793219Y-98330095D01*
X123793219Y-98330095D02*
X123717028Y-98292000D01*
X123717028Y-98292000D02*
X123678933Y-98253904D01*
X128517714Y-97847504D02*
X128479618Y-97885600D01*
X128479618Y-97885600D02*
X128365333Y-97923695D01*
X128365333Y-97923695D02*
X128289142Y-97923695D01*
X128289142Y-97923695D02*
X128174856Y-97885600D01*
X128174856Y-97885600D02*
X128098666Y-97809409D01*
X128098666Y-97809409D02*
X128060571Y-97733219D01*
X128060571Y-97733219D02*
X128022475Y-97580838D01*
X128022475Y-97580838D02*
X128022475Y-97466552D01*
X128022475Y-97466552D02*
X128060571Y-97314171D01*
X128060571Y-97314171D02*
X128098666Y-97237980D01*
X128098666Y-97237980D02*
X128174856Y-97161790D01*
X128174856Y-97161790D02*
X128289142Y-97123695D01*
X128289142Y-97123695D02*
X128365333Y-97123695D01*
X128365333Y-97123695D02*
X128479618Y-97161790D01*
X128479618Y-97161790D02*
X128517714Y-97199885D01*
X129279618Y-97923695D02*
X128822475Y-97923695D01*
X129051047Y-97923695D02*
X129051047Y-97123695D01*
X129051047Y-97123695D02*
X128974856Y-97237980D01*
X128974856Y-97237980D02*
X128898666Y-97314171D01*
X128898666Y-97314171D02*
X128822475Y-97352266D01*
X129660571Y-97923695D02*
X129812952Y-97923695D01*
X129812952Y-97923695D02*
X129889142Y-97885600D01*
X129889142Y-97885600D02*
X129927238Y-97847504D01*
X129927238Y-97847504D02*
X130003428Y-97733219D01*
X130003428Y-97733219D02*
X130041523Y-97580838D01*
X130041523Y-97580838D02*
X130041523Y-97276076D01*
X130041523Y-97276076D02*
X130003428Y-97199885D01*
X130003428Y-97199885D02*
X129965333Y-97161790D01*
X129965333Y-97161790D02*
X129889142Y-97123695D01*
X129889142Y-97123695D02*
X129736761Y-97123695D01*
X129736761Y-97123695D02*
X129660571Y-97161790D01*
X129660571Y-97161790D02*
X129622476Y-97199885D01*
X129622476Y-97199885D02*
X129584380Y-97276076D01*
X129584380Y-97276076D02*
X129584380Y-97466552D01*
X129584380Y-97466552D02*
X129622476Y-97542742D01*
X129622476Y-97542742D02*
X129660571Y-97580838D01*
X129660571Y-97580838D02*
X129736761Y-97618933D01*
X129736761Y-97618933D02*
X129889142Y-97618933D01*
X129889142Y-97618933D02*
X129965333Y-97580838D01*
X129965333Y-97580838D02*
X130003428Y-97542742D01*
X130003428Y-97542742D02*
X130041523Y-97466552D01*
X133284714Y-100086304D02*
X133246618Y-100124400D01*
X133246618Y-100124400D02*
X133132333Y-100162495D01*
X133132333Y-100162495D02*
X133056142Y-100162495D01*
X133056142Y-100162495D02*
X132941856Y-100124400D01*
X132941856Y-100124400D02*
X132865666Y-100048209D01*
X132865666Y-100048209D02*
X132827571Y-99972019D01*
X132827571Y-99972019D02*
X132789475Y-99819638D01*
X132789475Y-99819638D02*
X132789475Y-99705352D01*
X132789475Y-99705352D02*
X132827571Y-99552971D01*
X132827571Y-99552971D02*
X132865666Y-99476780D01*
X132865666Y-99476780D02*
X132941856Y-99400590D01*
X132941856Y-99400590D02*
X133056142Y-99362495D01*
X133056142Y-99362495D02*
X133132333Y-99362495D01*
X133132333Y-99362495D02*
X133246618Y-99400590D01*
X133246618Y-99400590D02*
X133284714Y-99438685D01*
X134046618Y-100162495D02*
X133589475Y-100162495D01*
X133818047Y-100162495D02*
X133818047Y-99362495D01*
X133818047Y-99362495D02*
X133741856Y-99476780D01*
X133741856Y-99476780D02*
X133665666Y-99552971D01*
X133665666Y-99552971D02*
X133589475Y-99591066D01*
X134351380Y-99438685D02*
X134389476Y-99400590D01*
X134389476Y-99400590D02*
X134465666Y-99362495D01*
X134465666Y-99362495D02*
X134656142Y-99362495D01*
X134656142Y-99362495D02*
X134732333Y-99400590D01*
X134732333Y-99400590D02*
X134770428Y-99438685D01*
X134770428Y-99438685D02*
X134808523Y-99514876D01*
X134808523Y-99514876D02*
X134808523Y-99591066D01*
X134808523Y-99591066D02*
X134770428Y-99705352D01*
X134770428Y-99705352D02*
X134313285Y-100162495D01*
X134313285Y-100162495D02*
X134808523Y-100162495D01*
X146808866Y-115101019D02*
X146808866Y-115815304D01*
X146808866Y-115815304D02*
X146761247Y-115958161D01*
X146761247Y-115958161D02*
X146666009Y-116053400D01*
X146666009Y-116053400D02*
X146523152Y-116101019D01*
X146523152Y-116101019D02*
X146427914Y-116101019D01*
X147761247Y-115101019D02*
X147285057Y-115101019D01*
X147285057Y-115101019D02*
X147237438Y-115577209D01*
X147237438Y-115577209D02*
X147285057Y-115529590D01*
X147285057Y-115529590D02*
X147380295Y-115481971D01*
X147380295Y-115481971D02*
X147618390Y-115481971D01*
X147618390Y-115481971D02*
X147713628Y-115529590D01*
X147713628Y-115529590D02*
X147761247Y-115577209D01*
X147761247Y-115577209D02*
X147808866Y-115672447D01*
X147808866Y-115672447D02*
X147808866Y-115910542D01*
X147808866Y-115910542D02*
X147761247Y-116005780D01*
X147761247Y-116005780D02*
X147713628Y-116053400D01*
X147713628Y-116053400D02*
X147618390Y-116101019D01*
X147618390Y-116101019D02*
X147380295Y-116101019D01*
X147380295Y-116101019D02*
X147285057Y-116053400D01*
X147285057Y-116053400D02*
X147237438Y-116005780D01*
X156833219Y-90833533D02*
X157547504Y-90833533D01*
X157547504Y-90833533D02*
X157690361Y-90881152D01*
X157690361Y-90881152D02*
X157785600Y-90976390D01*
X157785600Y-90976390D02*
X157833219Y-91119247D01*
X157833219Y-91119247D02*
X157833219Y-91214485D01*
X156833219Y-90452580D02*
X156833219Y-89785914D01*
X156833219Y-89785914D02*
X157833219Y-90214485D01*
X131231367Y-91670304D02*
X131193271Y-91708400D01*
X131193271Y-91708400D02*
X131078986Y-91746495D01*
X131078986Y-91746495D02*
X131002795Y-91746495D01*
X131002795Y-91746495D02*
X130888509Y-91708400D01*
X130888509Y-91708400D02*
X130812319Y-91632209D01*
X130812319Y-91632209D02*
X130774224Y-91556019D01*
X130774224Y-91556019D02*
X130736128Y-91403638D01*
X130736128Y-91403638D02*
X130736128Y-91289352D01*
X130736128Y-91289352D02*
X130774224Y-91136971D01*
X130774224Y-91136971D02*
X130812319Y-91060780D01*
X130812319Y-91060780D02*
X130888509Y-90984590D01*
X130888509Y-90984590D02*
X131002795Y-90946495D01*
X131002795Y-90946495D02*
X131078986Y-90946495D01*
X131078986Y-90946495D02*
X131193271Y-90984590D01*
X131193271Y-90984590D02*
X131231367Y-91022685D01*
X131917081Y-90946495D02*
X131764700Y-90946495D01*
X131764700Y-90946495D02*
X131688509Y-90984590D01*
X131688509Y-90984590D02*
X131650414Y-91022685D01*
X131650414Y-91022685D02*
X131574224Y-91136971D01*
X131574224Y-91136971D02*
X131536128Y-91289352D01*
X131536128Y-91289352D02*
X131536128Y-91594114D01*
X131536128Y-91594114D02*
X131574224Y-91670304D01*
X131574224Y-91670304D02*
X131612319Y-91708400D01*
X131612319Y-91708400D02*
X131688509Y-91746495D01*
X131688509Y-91746495D02*
X131840890Y-91746495D01*
X131840890Y-91746495D02*
X131917081Y-91708400D01*
X131917081Y-91708400D02*
X131955176Y-91670304D01*
X131955176Y-91670304D02*
X131993271Y-91594114D01*
X131993271Y-91594114D02*
X131993271Y-91403638D01*
X131993271Y-91403638D02*
X131955176Y-91327447D01*
X131955176Y-91327447D02*
X131917081Y-91289352D01*
X131917081Y-91289352D02*
X131840890Y-91251257D01*
X131840890Y-91251257D02*
X131688509Y-91251257D01*
X131688509Y-91251257D02*
X131612319Y-91289352D01*
X131612319Y-91289352D02*
X131574224Y-91327447D01*
X131574224Y-91327447D02*
X131536128Y-91403638D01*
X131000666Y-80665219D02*
X131000666Y-81379504D01*
X131000666Y-81379504D02*
X130953047Y-81522361D01*
X130953047Y-81522361D02*
X130857809Y-81617600D01*
X130857809Y-81617600D02*
X130714952Y-81665219D01*
X130714952Y-81665219D02*
X130619714Y-81665219D01*
X131619714Y-81093790D02*
X131524476Y-81046171D01*
X131524476Y-81046171D02*
X131476857Y-80998552D01*
X131476857Y-80998552D02*
X131429238Y-80903314D01*
X131429238Y-80903314D02*
X131429238Y-80855695D01*
X131429238Y-80855695D02*
X131476857Y-80760457D01*
X131476857Y-80760457D02*
X131524476Y-80712838D01*
X131524476Y-80712838D02*
X131619714Y-80665219D01*
X131619714Y-80665219D02*
X131810190Y-80665219D01*
X131810190Y-80665219D02*
X131905428Y-80712838D01*
X131905428Y-80712838D02*
X131953047Y-80760457D01*
X131953047Y-80760457D02*
X132000666Y-80855695D01*
X132000666Y-80855695D02*
X132000666Y-80903314D01*
X132000666Y-80903314D02*
X131953047Y-80998552D01*
X131953047Y-80998552D02*
X131905428Y-81046171D01*
X131905428Y-81046171D02*
X131810190Y-81093790D01*
X131810190Y-81093790D02*
X131619714Y-81093790D01*
X131619714Y-81093790D02*
X131524476Y-81141409D01*
X131524476Y-81141409D02*
X131476857Y-81189028D01*
X131476857Y-81189028D02*
X131429238Y-81284266D01*
X131429238Y-81284266D02*
X131429238Y-81474742D01*
X131429238Y-81474742D02*
X131476857Y-81569980D01*
X131476857Y-81569980D02*
X131524476Y-81617600D01*
X131524476Y-81617600D02*
X131619714Y-81665219D01*
X131619714Y-81665219D02*
X131810190Y-81665219D01*
X131810190Y-81665219D02*
X131905428Y-81617600D01*
X131905428Y-81617600D02*
X131953047Y-81569980D01*
X131953047Y-81569980D02*
X132000666Y-81474742D01*
X132000666Y-81474742D02*
X132000666Y-81284266D01*
X132000666Y-81284266D02*
X131953047Y-81189028D01*
X131953047Y-81189028D02*
X131905428Y-81141409D01*
X131905428Y-81141409D02*
X131810190Y-81093790D01*
X144989904Y-104705132D02*
X145028000Y-104743228D01*
X145028000Y-104743228D02*
X145066095Y-104857513D01*
X145066095Y-104857513D02*
X145066095Y-104933704D01*
X145066095Y-104933704D02*
X145028000Y-105047990D01*
X145028000Y-105047990D02*
X144951809Y-105124180D01*
X144951809Y-105124180D02*
X144875619Y-105162275D01*
X144875619Y-105162275D02*
X144723238Y-105200371D01*
X144723238Y-105200371D02*
X144608952Y-105200371D01*
X144608952Y-105200371D02*
X144456571Y-105162275D01*
X144456571Y-105162275D02*
X144380380Y-105124180D01*
X144380380Y-105124180D02*
X144304190Y-105047990D01*
X144304190Y-105047990D02*
X144266095Y-104933704D01*
X144266095Y-104933704D02*
X144266095Y-104857513D01*
X144266095Y-104857513D02*
X144304190Y-104743228D01*
X144304190Y-104743228D02*
X144342285Y-104705132D01*
X145066095Y-103943228D02*
X145066095Y-104400371D01*
X145066095Y-104171799D02*
X144266095Y-104171799D01*
X144266095Y-104171799D02*
X144380380Y-104247990D01*
X144380380Y-104247990D02*
X144456571Y-104324180D01*
X144456571Y-104324180D02*
X144494666Y-104400371D01*
X150507314Y-101216335D02*
X150240647Y-100835382D01*
X150050171Y-101216335D02*
X150050171Y-100416335D01*
X150050171Y-100416335D02*
X150354933Y-100416335D01*
X150354933Y-100416335D02*
X150431123Y-100454430D01*
X150431123Y-100454430D02*
X150469218Y-100492525D01*
X150469218Y-100492525D02*
X150507314Y-100568716D01*
X150507314Y-100568716D02*
X150507314Y-100683001D01*
X150507314Y-100683001D02*
X150469218Y-100759192D01*
X150469218Y-100759192D02*
X150431123Y-100797287D01*
X150431123Y-100797287D02*
X150354933Y-100835382D01*
X150354933Y-100835382D02*
X150050171Y-100835382D01*
X150812075Y-100492525D02*
X150850171Y-100454430D01*
X150850171Y-100454430D02*
X150926361Y-100416335D01*
X150926361Y-100416335D02*
X151116837Y-100416335D01*
X151116837Y-100416335D02*
X151193028Y-100454430D01*
X151193028Y-100454430D02*
X151231123Y-100492525D01*
X151231123Y-100492525D02*
X151269218Y-100568716D01*
X151269218Y-100568716D02*
X151269218Y-100644906D01*
X151269218Y-100644906D02*
X151231123Y-100759192D01*
X151231123Y-100759192D02*
X150773980Y-101216335D01*
X150773980Y-101216335D02*
X151269218Y-101216335D01*
X151764457Y-100416335D02*
X151840647Y-100416335D01*
X151840647Y-100416335D02*
X151916838Y-100454430D01*
X151916838Y-100454430D02*
X151954933Y-100492525D01*
X151954933Y-100492525D02*
X151993028Y-100568716D01*
X151993028Y-100568716D02*
X152031123Y-100721097D01*
X152031123Y-100721097D02*
X152031123Y-100911573D01*
X152031123Y-100911573D02*
X151993028Y-101063954D01*
X151993028Y-101063954D02*
X151954933Y-101140144D01*
X151954933Y-101140144D02*
X151916838Y-101178240D01*
X151916838Y-101178240D02*
X151840647Y-101216335D01*
X151840647Y-101216335D02*
X151764457Y-101216335D01*
X151764457Y-101216335D02*
X151688266Y-101178240D01*
X151688266Y-101178240D02*
X151650171Y-101140144D01*
X151650171Y-101140144D02*
X151612076Y-101063954D01*
X151612076Y-101063954D02*
X151573980Y-100911573D01*
X151573980Y-100911573D02*
X151573980Y-100721097D01*
X151573980Y-100721097D02*
X151612076Y-100568716D01*
X151612076Y-100568716D02*
X151650171Y-100492525D01*
X151650171Y-100492525D02*
X151688266Y-100454430D01*
X151688266Y-100454430D02*
X151764457Y-100416335D01*
X139399304Y-108085185D02*
X139437400Y-108123281D01*
X139437400Y-108123281D02*
X139475495Y-108237566D01*
X139475495Y-108237566D02*
X139475495Y-108313757D01*
X139475495Y-108313757D02*
X139437400Y-108428043D01*
X139437400Y-108428043D02*
X139361209Y-108504233D01*
X139361209Y-108504233D02*
X139285019Y-108542328D01*
X139285019Y-108542328D02*
X139132638Y-108580424D01*
X139132638Y-108580424D02*
X139018352Y-108580424D01*
X139018352Y-108580424D02*
X138865971Y-108542328D01*
X138865971Y-108542328D02*
X138789780Y-108504233D01*
X138789780Y-108504233D02*
X138713590Y-108428043D01*
X138713590Y-108428043D02*
X138675495Y-108313757D01*
X138675495Y-108313757D02*
X138675495Y-108237566D01*
X138675495Y-108237566D02*
X138713590Y-108123281D01*
X138713590Y-108123281D02*
X138751685Y-108085185D01*
X139475495Y-107323281D02*
X139475495Y-107780424D01*
X139475495Y-107551852D02*
X138675495Y-107551852D01*
X138675495Y-107551852D02*
X138789780Y-107628043D01*
X138789780Y-107628043D02*
X138865971Y-107704233D01*
X138865971Y-107704233D02*
X138904066Y-107780424D01*
X138942161Y-106637566D02*
X139475495Y-106637566D01*
X138637400Y-106828042D02*
X139208828Y-107018519D01*
X139208828Y-107018519D02*
X139208828Y-106523280D01*
X150539514Y-99087415D02*
X150272847Y-98706462D01*
X150082371Y-99087415D02*
X150082371Y-98287415D01*
X150082371Y-98287415D02*
X150387133Y-98287415D01*
X150387133Y-98287415D02*
X150463323Y-98325510D01*
X150463323Y-98325510D02*
X150501418Y-98363605D01*
X150501418Y-98363605D02*
X150539514Y-98439796D01*
X150539514Y-98439796D02*
X150539514Y-98554081D01*
X150539514Y-98554081D02*
X150501418Y-98630272D01*
X150501418Y-98630272D02*
X150463323Y-98668367D01*
X150463323Y-98668367D02*
X150387133Y-98706462D01*
X150387133Y-98706462D02*
X150082371Y-98706462D01*
X150844275Y-98363605D02*
X150882371Y-98325510D01*
X150882371Y-98325510D02*
X150958561Y-98287415D01*
X150958561Y-98287415D02*
X151149037Y-98287415D01*
X151149037Y-98287415D02*
X151225228Y-98325510D01*
X151225228Y-98325510D02*
X151263323Y-98363605D01*
X151263323Y-98363605D02*
X151301418Y-98439796D01*
X151301418Y-98439796D02*
X151301418Y-98515986D01*
X151301418Y-98515986D02*
X151263323Y-98630272D01*
X151263323Y-98630272D02*
X150806180Y-99087415D01*
X150806180Y-99087415D02*
X151301418Y-99087415D01*
X152063323Y-99087415D02*
X151606180Y-99087415D01*
X151834752Y-99087415D02*
X151834752Y-98287415D01*
X151834752Y-98287415D02*
X151758561Y-98401700D01*
X151758561Y-98401700D02*
X151682371Y-98477891D01*
X151682371Y-98477891D02*
X151606180Y-98515986D01*
X139884495Y-84230685D02*
X139503542Y-84497352D01*
X139884495Y-84687828D02*
X139084495Y-84687828D01*
X139084495Y-84687828D02*
X139084495Y-84383066D01*
X139084495Y-84383066D02*
X139122590Y-84306876D01*
X139122590Y-84306876D02*
X139160685Y-84268781D01*
X139160685Y-84268781D02*
X139236876Y-84230685D01*
X139236876Y-84230685D02*
X139351161Y-84230685D01*
X139351161Y-84230685D02*
X139427352Y-84268781D01*
X139427352Y-84268781D02*
X139465447Y-84306876D01*
X139465447Y-84306876D02*
X139503542Y-84383066D01*
X139503542Y-84383066D02*
X139503542Y-84687828D01*
X139160685Y-83925924D02*
X139122590Y-83887828D01*
X139122590Y-83887828D02*
X139084495Y-83811638D01*
X139084495Y-83811638D02*
X139084495Y-83621162D01*
X139084495Y-83621162D02*
X139122590Y-83544971D01*
X139122590Y-83544971D02*
X139160685Y-83506876D01*
X139160685Y-83506876D02*
X139236876Y-83468781D01*
X139236876Y-83468781D02*
X139313066Y-83468781D01*
X139313066Y-83468781D02*
X139427352Y-83506876D01*
X139427352Y-83506876D02*
X139884495Y-83964019D01*
X139884495Y-83964019D02*
X139884495Y-83468781D01*
X139084495Y-83202114D02*
X139084495Y-82706876D01*
X139084495Y-82706876D02*
X139389257Y-82973542D01*
X139389257Y-82973542D02*
X139389257Y-82859257D01*
X139389257Y-82859257D02*
X139427352Y-82783066D01*
X139427352Y-82783066D02*
X139465447Y-82744971D01*
X139465447Y-82744971D02*
X139541638Y-82706876D01*
X139541638Y-82706876D02*
X139732114Y-82706876D01*
X139732114Y-82706876D02*
X139808304Y-82744971D01*
X139808304Y-82744971D02*
X139846400Y-82783066D01*
X139846400Y-82783066D02*
X139884495Y-82859257D01*
X139884495Y-82859257D02*
X139884495Y-83087828D01*
X139884495Y-83087828D02*
X139846400Y-83164019D01*
X139846400Y-83164019D02*
X139808304Y-83202114D01*
X141822895Y-95809019D02*
X141822895Y-96618542D01*
X141822895Y-96618542D02*
X141870514Y-96713780D01*
X141870514Y-96713780D02*
X141918133Y-96761400D01*
X141918133Y-96761400D02*
X142013371Y-96809019D01*
X142013371Y-96809019D02*
X142203847Y-96809019D01*
X142203847Y-96809019D02*
X142299085Y-96761400D01*
X142299085Y-96761400D02*
X142346704Y-96713780D01*
X142346704Y-96713780D02*
X142394323Y-96618542D01*
X142394323Y-96618542D02*
X142394323Y-95809019D01*
X143394323Y-96809019D02*
X142822895Y-96809019D01*
X143108609Y-96809019D02*
X143108609Y-95809019D01*
X143108609Y-95809019D02*
X143013371Y-95951876D01*
X143013371Y-95951876D02*
X142918133Y-96047114D01*
X142918133Y-96047114D02*
X142822895Y-96094733D01*
D12*
%TO.C,C24*%
X124004750Y-108774764D02*
X124004750Y-108990436D01*
X124724750Y-108774764D02*
X124724750Y-108990436D01*
%TO.C,R9*%
X150673800Y-110442441D02*
X150673800Y-110135159D01*
X151433800Y-110442441D02*
X151433800Y-110135159D01*
%TO.C,R8*%
X138710400Y-110209359D02*
X138710400Y-110516641D01*
X139470400Y-110209359D02*
X139470400Y-110516641D01*
%TO.C,R11*%
X121865359Y-110160800D02*
X122172641Y-110160800D01*
X121865359Y-110920800D02*
X122172641Y-110920800D01*
%TO.C,C20*%
X126790336Y-108072600D02*
X126574664Y-108072600D01*
X126790336Y-108792600D02*
X126574664Y-108792600D01*
%TO.C,R1*%
X142799800Y-104367359D02*
X142799800Y-104674641D01*
X143559800Y-104367359D02*
X143559800Y-104674641D01*
%TO.C,R22*%
X135078200Y-83795841D02*
X135078200Y-83488559D01*
X135838200Y-83795841D02*
X135838200Y-83488559D01*
%TO.C,D1*%
X153119800Y-106749800D02*
X153119800Y-110049800D01*
X153119800Y-106749800D02*
X158629800Y-106749800D01*
X153119800Y-110049800D02*
X158629800Y-110049800D01*
%TO.C,C17*%
X134826836Y-86000000D02*
X134611164Y-86000000D01*
X134826836Y-86720000D02*
X134611164Y-86720000D01*
%TO.C,C11*%
X121975036Y-96007600D02*
X121759364Y-96007600D01*
X121975036Y-96727600D02*
X121759364Y-96727600D01*
%TO.C,C18*%
X150693800Y-107429516D02*
X150693800Y-107213844D01*
X151413800Y-107429516D02*
X151413800Y-107213844D01*
%TO.C,C8*%
X150945964Y-91410200D02*
X151161636Y-91410200D01*
X150945964Y-92130200D02*
X151161636Y-92130200D01*
%TO.C,R7*%
X130120959Y-89358200D02*
X130428241Y-89358200D01*
X130120959Y-90118200D02*
X130428241Y-90118200D01*
%TO.C,R6*%
X130428241Y-85980000D02*
X130120959Y-85980000D01*
X130428241Y-86740000D02*
X130120959Y-86740000D01*
%TO.C,U4*%
X142147000Y-106358400D02*
X142147000Y-106628400D01*
X142147000Y-111878400D02*
X142147000Y-111608400D01*
X144907000Y-106358400D02*
X142147000Y-106358400D01*
X144907000Y-106358400D02*
X147667000Y-106358400D01*
X144907000Y-111878400D02*
X142147000Y-111878400D01*
X144907000Y-111878400D02*
X147667000Y-111878400D01*
X147667000Y-106358400D02*
X147667000Y-106628400D01*
X147667000Y-111878400D02*
X147667000Y-111608400D01*
X141382000Y-106628400D02*
X141142000Y-106298400D01*
X141622000Y-106298400D01*
X141382000Y-106628400D01*
G36*
X141382000Y-106628400D02*
G01*
X141142000Y-106298400D01*
X141622000Y-106298400D01*
X141382000Y-106628400D01*
G37*
%TO.C,C4*%
X139680836Y-104161000D02*
X139465164Y-104161000D01*
X139680836Y-104881000D02*
X139465164Y-104881000D01*
%TO.C,C16*%
X132177200Y-86467836D02*
X132177200Y-86252164D01*
X132897200Y-86467836D02*
X132897200Y-86252164D01*
D10*
%TO.C,U3*%
X132467000Y-87838200D02*
X132467000Y-88478200D01*
X132467000Y-89398200D02*
X132467000Y-90038200D01*
X132617000Y-87838200D02*
X132467000Y-87838200D01*
X132617000Y-90038200D02*
X132467000Y-90038200D01*
X135167000Y-87838200D02*
X135017000Y-87838200D01*
X135167000Y-87838200D02*
X135167000Y-88478200D01*
X135167000Y-89398200D02*
X135167000Y-89838200D01*
X135167000Y-90398200D02*
X135167000Y-90038200D01*
X135527000Y-90038200D01*
X135167000Y-90398200D01*
G36*
X135167000Y-90398200D02*
G01*
X135167000Y-90038200D01*
X135527000Y-90038200D01*
X135167000Y-90398200D01*
G37*
D12*
%TO.C,R19*%
X150673800Y-97386841D02*
X150673800Y-97079559D01*
X151433800Y-97386841D02*
X151433800Y-97079559D01*
%TO.C,R4*%
X125106559Y-95987600D02*
X125413841Y-95987600D01*
X125106559Y-96747600D02*
X125413841Y-96747600D01*
%TO.C,C10*%
X137231800Y-89950236D02*
X137231800Y-89734564D01*
X137951800Y-89950236D02*
X137951800Y-89734564D01*
D10*
%TO.C,SW1*%
X121563600Y-88622400D02*
X121563600Y-87822400D01*
X125963600Y-86722400D02*
X121563600Y-86722400D01*
X125963600Y-88622400D02*
X125963600Y-87822400D01*
X125963600Y-89722400D02*
X121563600Y-89722400D01*
X124868136Y-88222400D02*
G75*
G02*
X122659064Y-88222400I-1104536J0D01*
G01*
X122659064Y-88222400D02*
G75*
G02*
X124868136Y-88222400I1104536J0D01*
G01*
D12*
%TO.C,C3*%
X133906836Y-92184200D02*
X133691164Y-92184200D01*
X133906836Y-92904200D02*
X133691164Y-92904200D01*
%TO.C,C21*%
X121939164Y-108072600D02*
X122154836Y-108072600D01*
X121939164Y-108792600D02*
X122154836Y-108792600D01*
%TO.C,U2*%
X133422300Y-109212400D02*
X133422300Y-109037400D01*
X134097300Y-106492400D02*
X133722300Y-106492400D01*
X134097300Y-109212400D02*
X133422300Y-109212400D01*
X135967300Y-106492400D02*
X136642300Y-106492400D01*
X135967300Y-109212400D02*
X136642300Y-109212400D01*
X136642300Y-106492400D02*
X136642300Y-106667400D01*
X136642300Y-109212400D02*
X136642300Y-109037400D01*
X133422300Y-106492400D02*
X133282300Y-106302400D01*
X133562300Y-106302400D01*
X133422300Y-106492400D01*
G36*
X133422300Y-106492400D02*
G01*
X133282300Y-106302400D01*
X133562300Y-106302400D01*
X133422300Y-106492400D01*
G37*
%TO.C,J4*%
X144260800Y-80488800D02*
X144260800Y-82988800D01*
X144260800Y-82988800D02*
X145310800Y-82988800D01*
X149310800Y-78518800D02*
X145430800Y-78518800D01*
X149430800Y-82988800D02*
X149430800Y-83978800D01*
X150480800Y-80488800D02*
X150480800Y-82988800D01*
X150480800Y-82988800D02*
X149430800Y-82988800D01*
%TO.C,C7*%
X146858400Y-104413164D02*
X146858400Y-104628836D01*
X147578400Y-104413164D02*
X147578400Y-104628836D01*
%TO.C,Q1*%
X138224500Y-78856400D02*
X137574500Y-78856400D01*
X138224500Y-78856400D02*
X138874500Y-78856400D01*
X138224500Y-81976400D02*
X137574500Y-81976400D01*
X138224500Y-81976400D02*
X138874500Y-81976400D01*
X139627000Y-82256400D02*
X139147000Y-82256400D01*
X139387000Y-81926400D01*
X139627000Y-82256400D01*
G36*
X139627000Y-82256400D02*
G01*
X139147000Y-82256400D01*
X139387000Y-81926400D01*
X139627000Y-82256400D01*
G37*
%TO.C,R2*%
X121713559Y-90475800D02*
X122020841Y-90475800D01*
X121713559Y-91235800D02*
X122020841Y-91235800D01*
%TO.C,C5*%
X125152364Y-90470400D02*
X125368036Y-90470400D01*
X125152364Y-91190400D02*
X125368036Y-91190400D01*
D10*
%TO.C,SW2*%
X121563600Y-92124400D02*
X125963600Y-92124400D01*
X121563600Y-93224400D02*
X121563600Y-94024400D01*
X121563600Y-95124400D02*
X125963600Y-95124400D01*
X125963600Y-93224400D02*
X125963600Y-94024400D01*
X124868136Y-93624400D02*
G75*
G02*
X122659064Y-93624400I-1104536J0D01*
G01*
X122659064Y-93624400D02*
G75*
G02*
X124868136Y-93624400I1104536J0D01*
G01*
D12*
%TO.C,C22*%
X130808000Y-109312020D02*
X130808000Y-109593180D01*
X131828000Y-109312020D02*
X131828000Y-109593180D01*
%TO.C,C9*%
X131472536Y-98293600D02*
X131256864Y-98293600D01*
X131472536Y-99013600D02*
X131256864Y-99013600D01*
%TO.C,R18*%
X150673800Y-104367359D02*
X150673800Y-104674641D01*
X151433800Y-104367359D02*
X151433800Y-104674641D01*
%TO.C,C13*%
X133625764Y-110104600D02*
X133841436Y-110104600D01*
X133625764Y-110824600D02*
X133841436Y-110824600D01*
%TO.C,J2*%
X132455800Y-113865800D02*
X133505800Y-113865800D01*
X132455800Y-116365800D02*
X132455800Y-113865800D01*
X133505800Y-113865800D02*
X133505800Y-112875800D01*
X133625800Y-118335800D02*
X137505800Y-118335800D01*
X138675800Y-113865800D02*
X137625800Y-113865800D01*
X138675800Y-116365800D02*
X138675800Y-113865800D01*
%TO.C,J1*%
X152765800Y-103658000D02*
X152765800Y-104458000D01*
X155685800Y-96158000D02*
X157465800Y-96158000D01*
X155685800Y-105558000D02*
X157465800Y-105558000D01*
%TO.C,C15*%
X136356036Y-110104600D02*
X136140364Y-110104600D01*
X136356036Y-110824600D02*
X136140364Y-110824600D01*
%TO.C,U5*%
X120749800Y-100990600D02*
X121024800Y-100990600D01*
X120749800Y-103300600D02*
X120749800Y-100990600D01*
X120749800Y-103300600D02*
X120749800Y-105610600D01*
X120749800Y-105610600D02*
X121024800Y-105610600D01*
X130669800Y-100990600D02*
X130394800Y-100990600D01*
X130669800Y-103300600D02*
X130669800Y-100990600D01*
X130669800Y-103300600D02*
X130669800Y-105610600D01*
X130669800Y-105610600D02*
X130394800Y-105610600D01*
X130724800Y-100640600D02*
X130394800Y-100400600D01*
X130724800Y-100160600D01*
X130724800Y-100640600D01*
G36*
X130724800Y-100640600D02*
G01*
X130394800Y-100400600D01*
X130724800Y-100160600D01*
X130724800Y-100640600D01*
G37*
%TO.C,C23*%
X128490250Y-109312020D02*
X128490250Y-109593180D01*
X129510250Y-109312020D02*
X129510250Y-109593180D01*
%TO.C,R10*%
X128779000Y-113358959D02*
X128779000Y-113666241D01*
X129539000Y-113358959D02*
X129539000Y-113666241D01*
%TO.C,R5*%
X130120959Y-87669100D02*
X130428241Y-87669100D01*
X130120959Y-88429100D02*
X130428241Y-88429100D01*
%TO.C,C2*%
X150945964Y-92731000D02*
X151161636Y-92731000D01*
X150945964Y-93451000D02*
X151161636Y-93451000D01*
%TO.C,R3*%
X121713559Y-97537000D02*
X122020841Y-97537000D01*
X121713559Y-98297000D02*
X122020841Y-98297000D01*
%TO.C,Y1*%
X130322000Y-93538900D02*
X130322000Y-97658900D01*
X133742000Y-93538900D02*
X130322000Y-93538900D01*
%TO.C,C19*%
X129038236Y-98268200D02*
X128822564Y-98268200D01*
X129038236Y-98988200D02*
X128822564Y-98988200D01*
%TO.C,C12*%
X133906836Y-98280200D02*
X133691164Y-98280200D01*
X133906836Y-99000200D02*
X133691164Y-99000200D01*
%TO.C,J5*%
X143532200Y-113861200D02*
X144582200Y-113861200D01*
X143532200Y-116361200D02*
X143532200Y-113861200D01*
X144582200Y-113861200D02*
X144582200Y-112871200D01*
X144702200Y-118331200D02*
X149582200Y-118331200D01*
X150752200Y-113861200D02*
X149702200Y-113861200D01*
X150752200Y-116361200D02*
X150752200Y-113861200D01*
%TO.C,J7*%
X155593400Y-87390200D02*
X155593400Y-88440200D01*
X155593400Y-92560200D02*
X154603400Y-92560200D01*
X155593400Y-93610200D02*
X155593400Y-92560200D01*
X158093400Y-87390200D02*
X155593400Y-87390200D01*
X158093400Y-93610200D02*
X155593400Y-93610200D01*
X160063400Y-92440200D02*
X160063400Y-88560200D01*
%TO.C,C6*%
X131256864Y-92184200D02*
X131472536Y-92184200D01*
X131256864Y-92904200D02*
X131472536Y-92904200D01*
%TO.C,Y2*%
X131501200Y-105217200D02*
X134921200Y-105217200D01*
X134921200Y-105217200D02*
X134921200Y-101097200D01*
%TO.C,J8*%
X128724000Y-80495400D02*
X128724000Y-82995400D01*
X128724000Y-82995400D02*
X129774000Y-82995400D01*
X132774000Y-78525400D02*
X129894000Y-78525400D01*
X132894000Y-82995400D02*
X132894000Y-83985400D01*
X133944000Y-80495400D02*
X133944000Y-82995400D01*
X133944000Y-82995400D02*
X132894000Y-82995400D01*
%TO.C,C1*%
X145436000Y-104413164D02*
X145436000Y-104628836D01*
X146156000Y-104413164D02*
X146156000Y-104628836D01*
%TO.C,R20*%
X151207441Y-101447440D02*
X150900159Y-101447440D01*
X151207441Y-102207440D02*
X150900159Y-102207440D01*
%TO.C,C14*%
X137638200Y-107753036D02*
X137638200Y-107537364D01*
X138358200Y-107753036D02*
X138358200Y-107537364D01*
%TO.C,R21*%
X151207441Y-99380320D02*
X150900159Y-99380320D01*
X151207441Y-100140320D02*
X150900159Y-100140320D01*
%TO.C,R23*%
X138050000Y-83488559D02*
X138050000Y-83795841D01*
X138810000Y-83488559D02*
X138810000Y-83795841D01*
%TO.C,U1*%
X137474800Y-91244200D02*
X137474800Y-92194200D01*
X137474800Y-101464200D02*
X137474800Y-100514200D01*
X138424800Y-91244200D02*
X137474800Y-91244200D01*
X138424800Y-101464200D02*
X137474800Y-101464200D01*
X146744800Y-91244200D02*
X147694800Y-91244200D01*
X146744800Y-101464200D02*
X147694800Y-101464200D01*
X147694800Y-91244200D02*
X147694800Y-92194200D01*
X147694800Y-101464200D02*
X147694800Y-100514200D01*
X136859800Y-92194200D02*
X136519800Y-91724200D01*
X137199800Y-91724200D01*
X136859800Y-92194200D01*
G36*
X136859800Y-92194200D02*
G01*
X136519800Y-91724200D01*
X137199800Y-91724200D01*
X136859800Y-92194200D01*
G37*
%TD*%
M02*
