%TF.GenerationSoftware,KiCad,Pcbnew,9.0.4*%
%TF.CreationDate,2025-08-18T21:08:18+08:00*%
%TF.ProjectId,tinybee-1.0,74696e79-6265-4652-9d31-2e302e6b6963,rev?*%
%TF.SameCoordinates,Original*%
%TF.FileFunction,Copper,L3,Inr*%
%TF.FilePolarity,Positive*%
%FSLAX46Y46*%
G04 Gerber Fmt 4.6, Leading zero omitted, Abs format (unit mm)*
G04 Created by KiCad (PCBNEW 9.0.4) date 2025-08-18 21:08:18*
%MOMM*%
%LPD*%
G01*
G04 APERTURE LIST*
%TA.AperFunction,HeatsinkPad*%
%ADD10O,2.100000X1.000000*%
%TD*%
%TA.AperFunction,HeatsinkPad*%
%ADD11O,1.600000X1.000000*%
%TD*%
%TA.AperFunction,ViaPad*%
%ADD12C,0.600000*%
%TD*%
%TA.AperFunction,Conductor*%
%ADD13C,0.200000*%
%TD*%
G04 APERTURE END LIST*
D10*
%TO.N,GND*%
%TO.C,J1*%
X154360800Y-105178000D03*
D11*
X158540800Y-105178000D03*
D10*
X154360800Y-96538000D03*
D11*
X158540800Y-96538000D03*
%TD*%
D12*
%TO.N,GND*%
X135051800Y-115011200D03*
X123040020Y-91696420D03*
X129034000Y-79335400D03*
X159253400Y-93300200D03*
X121412000Y-112318800D03*
X139162000Y-79466400D03*
X135533335Y-87324135D03*
X137591800Y-89362400D03*
X132765800Y-117525800D03*
X141325600Y-113436400D03*
X144570800Y-79328800D03*
X134955365Y-93187435D03*
X138365800Y-117525800D03*
X141638300Y-92895700D03*
X137134600Y-107162600D03*
X126013600Y-87147400D03*
X159253400Y-87700200D03*
X153314400Y-88315800D03*
X142849600Y-117525800D03*
X143842200Y-117521200D03*
X132588000Y-100330000D03*
X142245165Y-105034165D03*
X150170800Y-79328800D03*
X127152400Y-110998000D03*
X142671800Y-100558600D03*
X127508000Y-94615000D03*
X152450800Y-91211400D03*
X134239000Y-86360000D03*
X150442200Y-117521200D03*
X147870800Y-83203800D03*
X135368600Y-117525800D03*
X133634000Y-79335400D03*
X146583400Y-108788200D03*
X129768600Y-117525800D03*
X139776200Y-85877400D03*
X137234800Y-104677510D03*
X128450400Y-98628200D03*
X121513600Y-87147400D03*
X155378400Y-91000200D03*
X125709800Y-103300600D03*
%TO.N,+3V3*%
X134661996Y-99654924D03*
X135382000Y-85394800D03*
X157962600Y-91541600D03*
X150328400Y-90906600D03*
X137184446Y-105475926D03*
X125730000Y-91897200D03*
X139090400Y-111785400D03*
X135890000Y-111769600D03*
X139090400Y-110871000D03*
X150266400Y-103098600D03*
X152095200Y-111836200D03*
X145440200Y-98907600D03*
X155378400Y-92000200D03*
%TO.N,/MCU/NRST*%
X134772715Y-95704200D03*
X128600200Y-91059000D03*
%TO.N,+5V*%
X136497022Y-105953000D03*
X129772353Y-104928375D03*
X154629800Y-108399800D03*
X128473200Y-84632800D03*
X148869400Y-80695800D03*
X121564400Y-109372400D03*
X141782800Y-114731800D03*
X134061200Y-115011200D03*
X129410400Y-98628200D03*
%TO.N,/CONNECTORS/CAM_ANALOG*%
X125552200Y-109372400D03*
X131546600Y-85166200D03*
%TO.N,+10V*%
X144348200Y-109905800D03*
%TO.N,/CONNECTORS/UART2_RX*%
X132283200Y-107035600D03*
X136829800Y-103987600D03*
%TO.N,/CONNECTORS/UART2_TX*%
X130429000Y-111836200D03*
X135737600Y-101803200D03*
%TO.N,/CONNECTORS/UART4_TX*%
X139141200Y-99952200D03*
X134975600Y-111099600D03*
%TO.N,/CONNECTORS/UART4_RX*%
X134721600Y-100558600D03*
X132588000Y-112014000D03*
%TO.N,/CONNECTORS/UART5_RX*%
X146431000Y-85521800D03*
X144635135Y-85529335D03*
%TO.N,/CONNECTORS/UART3_TX*%
X147574000Y-112039400D03*
X144043400Y-104495600D03*
%TO.N,/CONNECTORS/UART3_RX*%
X146050000Y-115239435D03*
X144957800Y-104648000D03*
%TO.N,/CONNECTORS/MOTOR4*%
X149372800Y-96627033D03*
X152064367Y-96627033D03*
%TO.N,/CONNECTORS/MOTOR3*%
X140893800Y-95504000D03*
X143154400Y-86080600D03*
%TO.N,/CONNECTORS/MOTOR2*%
X149372801Y-95627033D03*
X142875000Y-84582000D03*
%TO.N,/CONNECTORS/UART1_RX*%
X141554200Y-86944200D03*
%TO.N,/CONNECTORS/MOTOR1*%
X146318488Y-95266074D03*
X141986000Y-85648800D03*
%TO.N,/CONNECTORS/ADC_CURR*%
X145821400Y-86334600D03*
X140690600Y-98247200D03*
%TO.N,/CONNECTORS/UART6_RX*%
X143281400Y-97917000D03*
X139796949Y-112542749D03*
%TO.N,/MCU/I2C1_SCL*%
X136779000Y-86927000D03*
X135077200Y-90889200D03*
%TO.N,/MCU/ADC_VBAT*%
X138404600Y-95935800D03*
X152831800Y-94411800D03*
%TO.N,/CONNECTORS/BEEPER*%
X136398000Y-88315800D03*
X135820448Y-93104200D03*
%TO.N,/MCU/GYRO_MISO*%
X141351000Y-104216200D03*
X134737685Y-105451485D03*
%TO.N,/FLASH/FLASH_MOSI*%
X148153200Y-103759000D03*
X149892665Y-110406535D03*
%TO.N,/MCU/OSD_MISO*%
X129641600Y-92913200D03*
X143179800Y-92583000D03*
%TO.N,/MCU/OSD_MOSI*%
X142163800Y-95656400D03*
X128144515Y-96572315D03*
%TO.N,/MCU/OSD_SCLK*%
X129997200Y-93878400D03*
X143738600Y-93446600D03*
%TO.N,/MCU/GYRO_INT*%
X132765800Y-108991400D03*
X137845800Y-109245400D03*
%TO.N,/MCU/OSD_SS*%
X129641600Y-97358200D03*
X145514000Y-94272330D03*
%TD*%
D13*
%TO.N,+3V3*%
X134667867Y-99654924D02*
X136525000Y-101512057D01*
X134661996Y-99654924D02*
X134667867Y-99654924D01*
X136525000Y-101512057D02*
X136525000Y-102463600D01*
X136525000Y-102463600D02*
X135864600Y-103124000D01*
X135864600Y-104156080D02*
X137184446Y-105475926D01*
X135864600Y-103124000D02*
X135864600Y-104156080D01*
%TO.N,/CONNECTORS/CAM_ANALOG*%
X125552200Y-109372400D02*
X126822200Y-109372400D01*
X126822200Y-109372400D02*
X131546600Y-104648000D01*
X131546600Y-104648000D02*
X131546600Y-85166200D01*
%TO.N,/CONNECTORS/UART4_TX*%
X134975600Y-111099600D02*
X139141200Y-106934000D01*
X139141200Y-106934000D02*
X139141200Y-99952200D01*
%TO.N,/CONNECTORS/UART4_RX*%
X133705600Y-110896400D02*
X133705600Y-103247457D01*
X134721600Y-102231457D02*
X134721600Y-100558600D01*
X132588000Y-112014000D02*
X133705600Y-110896400D01*
X133705600Y-103247457D02*
X134721600Y-102231457D01*
%TO.N,/CONNECTORS/UART3_RX*%
X145617835Y-115239435D02*
X144957800Y-114579400D01*
X144957800Y-114579400D02*
X144957800Y-104648000D01*
X146050000Y-115239435D02*
X145617835Y-115239435D01*
%TO.N,/CONNECTORS/MOTOR4*%
X152064367Y-96627033D02*
X149372800Y-96627033D01*
%TO.N,/CONNECTORS/MOTOR3*%
X143154400Y-88451000D02*
X140893800Y-90711600D01*
X140893800Y-90711600D02*
X140893800Y-95504000D01*
X143154400Y-86080600D02*
X143154400Y-88451000D01*
%TO.N,/CONNECTORS/MOTOR2*%
X142875000Y-84582000D02*
X143179800Y-84886800D01*
X147980400Y-84886800D02*
X149372801Y-86279201D01*
X149372801Y-86279201D02*
X149372801Y-95627033D01*
X143179800Y-84886800D02*
X147980400Y-84886800D01*
%TO.N,/CONNECTORS/ADC_CURR*%
X140690600Y-98247200D02*
X145821400Y-93116400D01*
X145821400Y-93116400D02*
X145821400Y-86334600D01*
%TO.N,/CONNECTORS/UART6_RX*%
X139796949Y-101401451D02*
X143281400Y-97917000D01*
X139796949Y-112542749D02*
X139796949Y-101401451D01*
%TO.N,/MCU/ADC_VBAT*%
X140360400Y-98983800D02*
X139928600Y-98552000D01*
X152831800Y-96754471D02*
X152358238Y-97228033D01*
X139928600Y-96494600D02*
X139369800Y-95935800D01*
X152358238Y-97228033D02*
X142903567Y-97228033D01*
X139369800Y-95935800D02*
X138404600Y-95935800D01*
X152831800Y-94411800D02*
X152831800Y-96754471D01*
X139928600Y-98552000D02*
X139928600Y-96494600D01*
X141147800Y-98983800D02*
X140360400Y-98983800D01*
X142903567Y-97228033D02*
X141147800Y-98983800D01*
%TD*%
%TA.AperFunction,Conductor*%
%TO.N,GND*%
G36*
X144102962Y-86141135D02*
G01*
X144130601Y-86154970D01*
X144255949Y-86238725D01*
X144255962Y-86238732D01*
X144399663Y-86298254D01*
X144401638Y-86299072D01*
X144531966Y-86324996D01*
X144556288Y-86329834D01*
X144556291Y-86329835D01*
X144556293Y-86329835D01*
X144713979Y-86329835D01*
X144773485Y-86317997D01*
X144868632Y-86299072D01*
X144868634Y-86299070D01*
X144872741Y-86298254D01*
X144942332Y-86304481D01*
X144997510Y-86347343D01*
X145020336Y-86407717D01*
X145020900Y-86413447D01*
X145051661Y-86568089D01*
X145051664Y-86568101D01*
X145112002Y-86713772D01*
X145112009Y-86713785D01*
X145200002Y-86845474D01*
X145220880Y-86912151D01*
X145220900Y-86914365D01*
X145220900Y-92816302D01*
X145201215Y-92883341D01*
X145184581Y-92903983D01*
X144733286Y-93355277D01*
X144671963Y-93388762D01*
X144602271Y-93383778D01*
X144546338Y-93341906D01*
X144523989Y-93291790D01*
X144508337Y-93213103D01*
X144495886Y-93183044D01*
X144447997Y-93067427D01*
X144447990Y-93067414D01*
X144360389Y-92936311D01*
X144360386Y-92936307D01*
X144248892Y-92824813D01*
X144248888Y-92824810D01*
X144117785Y-92737209D01*
X144117770Y-92737201D01*
X144056846Y-92711965D01*
X144002443Y-92668124D01*
X143980379Y-92601829D01*
X143980300Y-92597405D01*
X143980300Y-92504155D01*
X143980299Y-92504153D01*
X143961071Y-92407488D01*
X143949537Y-92349503D01*
X143943307Y-92334463D01*
X143889197Y-92203827D01*
X143889190Y-92203814D01*
X143801589Y-92072711D01*
X143801586Y-92072707D01*
X143690092Y-91961213D01*
X143690088Y-91961210D01*
X143558985Y-91873609D01*
X143558972Y-91873602D01*
X143413301Y-91813264D01*
X143413289Y-91813261D01*
X143258645Y-91782500D01*
X143258642Y-91782500D01*
X143100958Y-91782500D01*
X143100955Y-91782500D01*
X142946310Y-91813261D01*
X142946298Y-91813264D01*
X142800627Y-91873602D01*
X142800614Y-91873609D01*
X142669511Y-91961210D01*
X142669507Y-91961213D01*
X142558013Y-92072707D01*
X142558010Y-92072711D01*
X142470409Y-92203814D01*
X142470402Y-92203827D01*
X142410064Y-92349498D01*
X142410061Y-92349510D01*
X142379300Y-92504153D01*
X142379300Y-92661846D01*
X142410061Y-92816489D01*
X142410064Y-92816501D01*
X142470402Y-92962172D01*
X142470409Y-92962185D01*
X142558010Y-93093288D01*
X142558013Y-93093292D01*
X142669507Y-93204786D01*
X142669511Y-93204789D01*
X142800614Y-93292390D01*
X142800621Y-93292394D01*
X142861553Y-93317632D01*
X142915955Y-93361472D01*
X142938021Y-93427765D01*
X142938100Y-93432193D01*
X142938100Y-93525446D01*
X142968861Y-93680089D01*
X142968864Y-93680101D01*
X143029202Y-93825772D01*
X143029209Y-93825785D01*
X143116810Y-93956888D01*
X143116813Y-93956892D01*
X143228307Y-94068386D01*
X143228311Y-94068389D01*
X143359414Y-94155990D01*
X143359427Y-94155997D01*
X143449940Y-94193488D01*
X143505103Y-94216337D01*
X143583789Y-94231988D01*
X143645698Y-94264372D01*
X143680272Y-94325087D01*
X143676533Y-94394857D01*
X143647277Y-94441286D01*
X142951702Y-95136861D01*
X142890379Y-95170346D01*
X142820687Y-95165362D01*
X142776340Y-95136861D01*
X142674092Y-95034613D01*
X142674088Y-95034610D01*
X142542985Y-94947009D01*
X142542972Y-94947002D01*
X142397301Y-94886664D01*
X142397289Y-94886661D01*
X142242645Y-94855900D01*
X142242642Y-94855900D01*
X142084958Y-94855900D01*
X142084955Y-94855900D01*
X141930310Y-94886661D01*
X141930298Y-94886664D01*
X141784627Y-94947002D01*
X141784614Y-94947009D01*
X141687191Y-95012106D01*
X141620513Y-95032984D01*
X141553133Y-95014499D01*
X141506443Y-94962521D01*
X141494300Y-94909004D01*
X141494300Y-91011696D01*
X141513985Y-90944657D01*
X141530614Y-90924020D01*
X143512906Y-88941727D01*
X143512911Y-88941724D01*
X143523114Y-88931520D01*
X143523116Y-88931520D01*
X143634920Y-88819716D01*
X143652898Y-88788576D01*
X143686446Y-88730470D01*
X143706933Y-88694985D01*
X143713977Y-88682785D01*
X143754900Y-88530057D01*
X143754900Y-88371943D01*
X143754900Y-86660365D01*
X143774585Y-86593326D01*
X143775798Y-86591474D01*
X143842521Y-86491617D01*
X143863794Y-86459779D01*
X143924137Y-86314097D01*
X143940093Y-86233880D01*
X143972477Y-86171970D01*
X144033193Y-86137396D01*
X144102962Y-86141135D01*
G37*
%TD.AperFunction*%
%TA.AperFunction,Conductor*%
G36*
X155662102Y-78431616D02*
G01*
X156046171Y-78448385D01*
X156056906Y-78449325D01*
X156435371Y-78499151D01*
X156445997Y-78501024D01*
X156818684Y-78583647D01*
X156829110Y-78586441D01*
X157193165Y-78701226D01*
X157203311Y-78704919D01*
X157555974Y-78850997D01*
X157565769Y-78855565D01*
X157904342Y-79031815D01*
X157913710Y-79037223D01*
X158235644Y-79242317D01*
X158244505Y-79248522D01*
X158547330Y-79480888D01*
X158555617Y-79487842D01*
X158837035Y-79745714D01*
X158844684Y-79753363D01*
X159102556Y-80034781D01*
X159109510Y-80043068D01*
X159341882Y-80345901D01*
X159348086Y-80354762D01*
X159553171Y-80676679D01*
X159558576Y-80686041D01*
X159604702Y-80774646D01*
X159734831Y-81024622D01*
X159739403Y-81034426D01*
X159885476Y-81387077D01*
X159889176Y-81397243D01*
X160003955Y-81761277D01*
X160006755Y-81771726D01*
X160089372Y-82144388D01*
X160091250Y-82155041D01*
X160141072Y-82533472D01*
X160142015Y-82544248D01*
X160158782Y-82928273D01*
X160158900Y-82933682D01*
X160158900Y-113928292D01*
X160158782Y-113933701D01*
X160142014Y-114317750D01*
X160141071Y-114328526D01*
X160091250Y-114706954D01*
X160089372Y-114717608D01*
X160006753Y-115090275D01*
X160003953Y-115100723D01*
X159889175Y-115464754D01*
X159885475Y-115474920D01*
X159739402Y-115827571D01*
X159734830Y-115837375D01*
X159558584Y-116175941D01*
X159553176Y-116185309D01*
X159348085Y-116507238D01*
X159341880Y-116516100D01*
X159109511Y-116818928D01*
X159102558Y-116827214D01*
X158844679Y-117108641D01*
X158837029Y-117116290D01*
X158555617Y-117374156D01*
X158547330Y-117381110D01*
X158244497Y-117613481D01*
X158235636Y-117619685D01*
X157913719Y-117824770D01*
X157904351Y-117830179D01*
X157565776Y-118006430D01*
X157555972Y-118011002D01*
X157203321Y-118157075D01*
X157193155Y-118160775D01*
X156829121Y-118275554D01*
X156818672Y-118278354D01*
X156446010Y-118360971D01*
X156435357Y-118362849D01*
X156056926Y-118412671D01*
X156046150Y-118413614D01*
X155662126Y-118430381D01*
X155656717Y-118430499D01*
X124662106Y-118430499D01*
X124656697Y-118430381D01*
X124272649Y-118413613D01*
X124261873Y-118412670D01*
X123883442Y-118362848D01*
X123872789Y-118360970D01*
X123500127Y-118278353D01*
X123489678Y-118275553D01*
X123125645Y-118160774D01*
X123115479Y-118157074D01*
X122762828Y-118011001D01*
X122753024Y-118006429D01*
X122414458Y-117830182D01*
X122405090Y-117824774D01*
X122083161Y-117619684D01*
X122074299Y-117613479D01*
X121771464Y-117381105D01*
X121763178Y-117374151D01*
X121481765Y-117116283D01*
X121474116Y-117108634D01*
X121216248Y-116827221D01*
X121209294Y-116818935D01*
X120976920Y-116516100D01*
X120970715Y-116507238D01*
X120765625Y-116185310D01*
X120760217Y-116175942D01*
X120583967Y-115837369D01*
X120579398Y-115827571D01*
X120433321Y-115474910D01*
X120429625Y-115464754D01*
X120422197Y-115441194D01*
X120314843Y-115100710D01*
X120312047Y-115090275D01*
X120229426Y-114717597D01*
X120227553Y-114706971D01*
X120177727Y-114328506D01*
X120176787Y-114317771D01*
X120160017Y-113933671D01*
X120159900Y-113928279D01*
X120159900Y-113540567D01*
X122408900Y-113540567D01*
X122408900Y-113821430D01*
X122440342Y-114100493D01*
X122440345Y-114100511D01*
X122502839Y-114374316D01*
X122502843Y-114374328D01*
X122595600Y-114639410D01*
X122717453Y-114892441D01*
X122717455Y-114892444D01*
X122866877Y-115130247D01*
X123041984Y-115349824D01*
X123240575Y-115548415D01*
X123460152Y-115723522D01*
X123697955Y-115872944D01*
X123950992Y-115994800D01*
X124150080Y-116064464D01*
X124216070Y-116087555D01*
X124216082Y-116087559D01*
X124489891Y-116150054D01*
X124489897Y-116150054D01*
X124489905Y-116150056D01*
X124675947Y-116171017D01*
X124768969Y-116181498D01*
X124768972Y-116181499D01*
X124768975Y-116181499D01*
X125049828Y-116181499D01*
X125049829Y-116181498D01*
X125192455Y-116165428D01*
X125328894Y-116150056D01*
X125328899Y-116150055D01*
X125328909Y-116150054D01*
X125602718Y-116087559D01*
X125867808Y-115994800D01*
X126120845Y-115872944D01*
X126358648Y-115723522D01*
X126578225Y-115548415D01*
X126776816Y-115349824D01*
X126951923Y-115130247D01*
X127076268Y-114932353D01*
X133260700Y-114932353D01*
X133260700Y-115090046D01*
X133291461Y-115244689D01*
X133291464Y-115244701D01*
X133351802Y-115390372D01*
X133351809Y-115390385D01*
X133439410Y-115521488D01*
X133439413Y-115521492D01*
X133550907Y-115632986D01*
X133550911Y-115632989D01*
X133682014Y-115720590D01*
X133682027Y-115720597D01*
X133827698Y-115780935D01*
X133827703Y-115780937D01*
X133918572Y-115799012D01*
X133982353Y-115811699D01*
X133982356Y-115811700D01*
X133982358Y-115811700D01*
X134140044Y-115811700D01*
X134140045Y-115811699D01*
X134294697Y-115780937D01*
X134440379Y-115720594D01*
X134571489Y-115632989D01*
X134682989Y-115521489D01*
X134770594Y-115390379D01*
X134830937Y-115244697D01*
X134861700Y-115090042D01*
X134861700Y-114932358D01*
X134861700Y-114932355D01*
X134861699Y-114932353D01*
X134830937Y-114777703D01*
X134779264Y-114652953D01*
X140982300Y-114652953D01*
X140982300Y-114810646D01*
X141013061Y-114965289D01*
X141013064Y-114965301D01*
X141073402Y-115110972D01*
X141073409Y-115110985D01*
X141161010Y-115242088D01*
X141161013Y-115242092D01*
X141272507Y-115353586D01*
X141272511Y-115353589D01*
X141403614Y-115441190D01*
X141403627Y-115441197D01*
X141485043Y-115474920D01*
X141549303Y-115501537D01*
X141703953Y-115532299D01*
X141703956Y-115532300D01*
X141703958Y-115532300D01*
X141861644Y-115532300D01*
X141861645Y-115532299D01*
X142016297Y-115501537D01*
X142161979Y-115441194D01*
X142293089Y-115353589D01*
X142404589Y-115242089D01*
X142492194Y-115110979D01*
X142500866Y-115090044D01*
X142510677Y-115066356D01*
X142552537Y-114965297D01*
X142583300Y-114810642D01*
X142583300Y-114652958D01*
X142583300Y-114652955D01*
X142583299Y-114652953D01*
X142580605Y-114639410D01*
X142552537Y-114498303D01*
X142538530Y-114464486D01*
X142492197Y-114352627D01*
X142492190Y-114352614D01*
X142404589Y-114221511D01*
X142404586Y-114221507D01*
X142293092Y-114110013D01*
X142293088Y-114110010D01*
X142161985Y-114022409D01*
X142161972Y-114022402D01*
X142016301Y-113962064D01*
X142016289Y-113962061D01*
X141861645Y-113931300D01*
X141861642Y-113931300D01*
X141703958Y-113931300D01*
X141703955Y-113931300D01*
X141549310Y-113962061D01*
X141549298Y-113962064D01*
X141403627Y-114022402D01*
X141403614Y-114022409D01*
X141272511Y-114110010D01*
X141272507Y-114110013D01*
X141161013Y-114221507D01*
X141161010Y-114221511D01*
X141073409Y-114352614D01*
X141073402Y-114352627D01*
X141013064Y-114498298D01*
X141013061Y-114498310D01*
X140982300Y-114652953D01*
X134779264Y-114652953D01*
X134770594Y-114632021D01*
X134770592Y-114632018D01*
X134770590Y-114632014D01*
X134682989Y-114500911D01*
X134682986Y-114500907D01*
X134571492Y-114389413D01*
X134571488Y-114389410D01*
X134440385Y-114301809D01*
X134440372Y-114301802D01*
X134294701Y-114241464D01*
X134294689Y-114241461D01*
X134140045Y-114210700D01*
X134140042Y-114210700D01*
X133982358Y-114210700D01*
X133982355Y-114210700D01*
X133827710Y-114241461D01*
X133827698Y-114241464D01*
X133682027Y-114301802D01*
X133682014Y-114301809D01*
X133550911Y-114389410D01*
X133550907Y-114389413D01*
X133439413Y-114500907D01*
X133439410Y-114500911D01*
X133351809Y-114632014D01*
X133351802Y-114632027D01*
X133291464Y-114777698D01*
X133291461Y-114777710D01*
X133260700Y-114932353D01*
X127076268Y-114932353D01*
X127101345Y-114892444D01*
X127101348Y-114892438D01*
X127110967Y-114872465D01*
X127110967Y-114872464D01*
X127188083Y-114712330D01*
X127223201Y-114639407D01*
X127315960Y-114374317D01*
X127378455Y-114100508D01*
X127387256Y-114022402D01*
X127394054Y-113962061D01*
X127409900Y-113821424D01*
X127409900Y-113540574D01*
X127378455Y-113261490D01*
X127315960Y-112987681D01*
X127223201Y-112722591D01*
X127101345Y-112469554D01*
X126951923Y-112231751D01*
X126776816Y-112012174D01*
X126578225Y-111813583D01*
X126572474Y-111808997D01*
X126507715Y-111757353D01*
X129628500Y-111757353D01*
X129628500Y-111915046D01*
X129659261Y-112069689D01*
X129659264Y-112069701D01*
X129719602Y-112215372D01*
X129719609Y-112215385D01*
X129807210Y-112346488D01*
X129807213Y-112346492D01*
X129918707Y-112457986D01*
X129918711Y-112457989D01*
X130049814Y-112545590D01*
X130049827Y-112545597D01*
X130175182Y-112597520D01*
X130195503Y-112605937D01*
X130345563Y-112635786D01*
X130350153Y-112636699D01*
X130350156Y-112636700D01*
X130350158Y-112636700D01*
X130507844Y-112636700D01*
X130507845Y-112636699D01*
X130662497Y-112605937D01*
X130785142Y-112555136D01*
X130808172Y-112545597D01*
X130808172Y-112545596D01*
X130808179Y-112545594D01*
X130939289Y-112457989D01*
X131050789Y-112346489D01*
X131138394Y-112215379D01*
X131198737Y-112069697D01*
X131229500Y-111915042D01*
X131229500Y-111757358D01*
X131229500Y-111757355D01*
X131229499Y-111757353D01*
X131210178Y-111660221D01*
X131198737Y-111602703D01*
X131177693Y-111551898D01*
X131138397Y-111457027D01*
X131138390Y-111457014D01*
X131050789Y-111325911D01*
X131050786Y-111325907D01*
X130939292Y-111214413D01*
X130939288Y-111214410D01*
X130808185Y-111126809D01*
X130808172Y-111126802D01*
X130662501Y-111066464D01*
X130662489Y-111066461D01*
X130507845Y-111035700D01*
X130507842Y-111035700D01*
X130350158Y-111035700D01*
X130350155Y-111035700D01*
X130195510Y-111066461D01*
X130195498Y-111066464D01*
X130049827Y-111126802D01*
X130049814Y-111126809D01*
X129918711Y-111214410D01*
X129918707Y-111214413D01*
X129807213Y-111325907D01*
X129807210Y-111325911D01*
X129719609Y-111457014D01*
X129719602Y-111457027D01*
X129659264Y-111602698D01*
X129659261Y-111602710D01*
X129628500Y-111757353D01*
X126507715Y-111757353D01*
X126358648Y-111638476D01*
X126184589Y-111529107D01*
X126120842Y-111489052D01*
X125867811Y-111367199D01*
X125602729Y-111274442D01*
X125602717Y-111274438D01*
X125328912Y-111211944D01*
X125328894Y-111211941D01*
X125049831Y-111180499D01*
X125049825Y-111180499D01*
X124768975Y-111180499D01*
X124768968Y-111180499D01*
X124489905Y-111211941D01*
X124489887Y-111211944D01*
X124216082Y-111274438D01*
X124216070Y-111274442D01*
X123950988Y-111367199D01*
X123697957Y-111489052D01*
X123460153Y-111638475D01*
X123240575Y-111813582D01*
X123041983Y-112012174D01*
X122866876Y-112231752D01*
X122717453Y-112469556D01*
X122595600Y-112722587D01*
X122502843Y-112987669D01*
X122502839Y-112987681D01*
X122440345Y-113261486D01*
X122440342Y-113261504D01*
X122408900Y-113540567D01*
X120159900Y-113540567D01*
X120159900Y-109293553D01*
X120763900Y-109293553D01*
X120763900Y-109451246D01*
X120794661Y-109605889D01*
X120794664Y-109605901D01*
X120855002Y-109751572D01*
X120855009Y-109751585D01*
X120942610Y-109882688D01*
X120942613Y-109882692D01*
X121054107Y-109994186D01*
X121054111Y-109994189D01*
X121185214Y-110081790D01*
X121185227Y-110081797D01*
X121324056Y-110139301D01*
X121330903Y-110142137D01*
X121428760Y-110161602D01*
X121485553Y-110172899D01*
X121485556Y-110172900D01*
X121485558Y-110172900D01*
X121643244Y-110172900D01*
X121643245Y-110172899D01*
X121797897Y-110142137D01*
X121943579Y-110081794D01*
X122074689Y-109994189D01*
X122186189Y-109882689D01*
X122273794Y-109751579D01*
X122334137Y-109605897D01*
X122364900Y-109451242D01*
X122364900Y-109293558D01*
X122364900Y-109293555D01*
X122364899Y-109293553D01*
X124751700Y-109293553D01*
X124751700Y-109451246D01*
X124782461Y-109605889D01*
X124782464Y-109605901D01*
X124842802Y-109751572D01*
X124842809Y-109751585D01*
X124930410Y-109882688D01*
X124930413Y-109882692D01*
X125041907Y-109994186D01*
X125041911Y-109994189D01*
X125173014Y-110081790D01*
X125173027Y-110081797D01*
X125311856Y-110139301D01*
X125318703Y-110142137D01*
X125416560Y-110161602D01*
X125473353Y-110172899D01*
X125473356Y-110172900D01*
X125473358Y-110172900D01*
X125631044Y-110172900D01*
X125631045Y-110172899D01*
X125785697Y-110142137D01*
X125931379Y-110081794D01*
X125985100Y-110045899D01*
X126063075Y-109993798D01*
X126129753Y-109972920D01*
X126131966Y-109972900D01*
X126735531Y-109972900D01*
X126735547Y-109972901D01*
X126743143Y-109972901D01*
X126901254Y-109972901D01*
X126901257Y-109972901D01*
X127053985Y-109931977D01*
X127116472Y-109895900D01*
X127190916Y-109852920D01*
X127302720Y-109741116D01*
X127302720Y-109741114D01*
X127312924Y-109730911D01*
X127312927Y-109730906D01*
X130087082Y-106956753D01*
X131482700Y-106956753D01*
X131482700Y-107114446D01*
X131513461Y-107269089D01*
X131513464Y-107269101D01*
X131573802Y-107414772D01*
X131573809Y-107414785D01*
X131661410Y-107545888D01*
X131661413Y-107545892D01*
X131772907Y-107657386D01*
X131772911Y-107657389D01*
X131904014Y-107744990D01*
X131904027Y-107744997D01*
X132049698Y-107805335D01*
X132049703Y-107805337D01*
X132204353Y-107836099D01*
X132204356Y-107836100D01*
X132204358Y-107836100D01*
X132362044Y-107836100D01*
X132362045Y-107836099D01*
X132516697Y-107805337D01*
X132662379Y-107744994D01*
X132793489Y-107657389D01*
X132820817Y-107630061D01*
X132893419Y-107557460D01*
X132954742Y-107523975D01*
X133024434Y-107528959D01*
X133080367Y-107570831D01*
X133104784Y-107636295D01*
X133105100Y-107645141D01*
X133105100Y-108091613D01*
X133085415Y-108158652D01*
X133032611Y-108204407D01*
X132963453Y-108214351D01*
X132956909Y-108213230D01*
X132844646Y-108190900D01*
X132844642Y-108190900D01*
X132686958Y-108190900D01*
X132686955Y-108190900D01*
X132532310Y-108221661D01*
X132532298Y-108221664D01*
X132386627Y-108282002D01*
X132386614Y-108282009D01*
X132255511Y-108369610D01*
X132255507Y-108369613D01*
X132144013Y-108481107D01*
X132144010Y-108481111D01*
X132056409Y-108612214D01*
X132056402Y-108612227D01*
X131996064Y-108757898D01*
X131996061Y-108757910D01*
X131965300Y-108912553D01*
X131965300Y-109070246D01*
X131996061Y-109224889D01*
X131996064Y-109224901D01*
X132056402Y-109370572D01*
X132056409Y-109370585D01*
X132144010Y-109501688D01*
X132144013Y-109501692D01*
X132255507Y-109613186D01*
X132255511Y-109613189D01*
X132386614Y-109700790D01*
X132386627Y-109700797D01*
X132532298Y-109761135D01*
X132532303Y-109761137D01*
X132638455Y-109782252D01*
X132686953Y-109791899D01*
X132686956Y-109791900D01*
X132686958Y-109791900D01*
X132844644Y-109791900D01*
X132956908Y-109769569D01*
X133026500Y-109775796D01*
X133081677Y-109818659D01*
X133104922Y-109884549D01*
X133105100Y-109891186D01*
X133105100Y-110596303D01*
X133085415Y-110663342D01*
X133068781Y-110683984D01*
X132573339Y-111179425D01*
X132512016Y-111212910D01*
X132509850Y-111213361D01*
X132354508Y-111244261D01*
X132354498Y-111244264D01*
X132208827Y-111304602D01*
X132208814Y-111304609D01*
X132077711Y-111392210D01*
X132077707Y-111392213D01*
X131966213Y-111503707D01*
X131966210Y-111503711D01*
X131878609Y-111634814D01*
X131878602Y-111634827D01*
X131818264Y-111780498D01*
X131818261Y-111780510D01*
X131787500Y-111935153D01*
X131787500Y-112092846D01*
X131818261Y-112247489D01*
X131818264Y-112247501D01*
X131878602Y-112393172D01*
X131878609Y-112393185D01*
X131966210Y-112524288D01*
X131966213Y-112524292D01*
X132077707Y-112635786D01*
X132077711Y-112635789D01*
X132208814Y-112723390D01*
X132208827Y-112723397D01*
X132354498Y-112783735D01*
X132354503Y-112783737D01*
X132482187Y-112809135D01*
X132509153Y-112814499D01*
X132509156Y-112814500D01*
X132509158Y-112814500D01*
X132666844Y-112814500D01*
X132666845Y-112814499D01*
X132821497Y-112783737D01*
X132967179Y-112723394D01*
X133098289Y-112635789D01*
X133209789Y-112524289D01*
X133297394Y-112393179D01*
X133298136Y-112391389D01*
X133316734Y-112346488D01*
X133357737Y-112247497D01*
X133383448Y-112118242D01*
X133388638Y-112092150D01*
X133421023Y-112030239D01*
X133422521Y-112028713D01*
X134048946Y-111402287D01*
X134110267Y-111368804D01*
X134179958Y-111373788D01*
X134235892Y-111415659D01*
X134251186Y-111442518D01*
X134266202Y-111478773D01*
X134266209Y-111478785D01*
X134353810Y-111609888D01*
X134353813Y-111609892D01*
X134465307Y-111721386D01*
X134465311Y-111721389D01*
X134596414Y-111808990D01*
X134596427Y-111808997D01*
X134691662Y-111848444D01*
X134742103Y-111869337D01*
X134896753Y-111900099D01*
X134896756Y-111900100D01*
X134998011Y-111900100D01*
X135065050Y-111919785D01*
X135110805Y-111972589D01*
X135119627Y-111999904D01*
X135120260Y-112003086D01*
X135120263Y-112003098D01*
X135180602Y-112148772D01*
X135180609Y-112148785D01*
X135268210Y-112279888D01*
X135268213Y-112279892D01*
X135379707Y-112391386D01*
X135379711Y-112391389D01*
X135510814Y-112478990D01*
X135510827Y-112478997D01*
X135656498Y-112539335D01*
X135656503Y-112539337D01*
X135811153Y-112570099D01*
X135811156Y-112570100D01*
X135811158Y-112570100D01*
X135968844Y-112570100D01*
X135968845Y-112570099D01*
X136123497Y-112539337D01*
X136269179Y-112478994D01*
X136400289Y-112391389D01*
X136511789Y-112279889D01*
X136599394Y-112148779D01*
X136659737Y-112003097D01*
X136690500Y-111848442D01*
X136690500Y-111690758D01*
X136690500Y-111690755D01*
X136690499Y-111690753D01*
X136680100Y-111638475D01*
X136659737Y-111536103D01*
X136640248Y-111489052D01*
X136599397Y-111390427D01*
X136599390Y-111390414D01*
X136511789Y-111259311D01*
X136511786Y-111259307D01*
X136400292Y-111147813D01*
X136400288Y-111147810D01*
X136269185Y-111060209D01*
X136269176Y-111060204D01*
X136154287Y-111012616D01*
X136099884Y-110968775D01*
X136077819Y-110902481D01*
X136095098Y-110834782D01*
X136114052Y-110810382D01*
X137108698Y-109815735D01*
X137170019Y-109782252D01*
X137239711Y-109787236D01*
X137284058Y-109815737D01*
X137335507Y-109867186D01*
X137335511Y-109867189D01*
X137466614Y-109954790D01*
X137466627Y-109954797D01*
X137608445Y-110013539D01*
X137612303Y-110015137D01*
X137766953Y-110045899D01*
X137766956Y-110045900D01*
X137766958Y-110045900D01*
X137924644Y-110045900D01*
X137924645Y-110045899D01*
X138079297Y-110015137D01*
X138224979Y-109954794D01*
X138356089Y-109867189D01*
X138467589Y-109755689D01*
X138555194Y-109624579D01*
X138615537Y-109478897D01*
X138646300Y-109324242D01*
X138646300Y-109166558D01*
X138646300Y-109166555D01*
X138646299Y-109166553D01*
X138634890Y-109109197D01*
X138615537Y-109011903D01*
X138604825Y-108986042D01*
X138555197Y-108866227D01*
X138555190Y-108866214D01*
X138467589Y-108735111D01*
X138467586Y-108735107D01*
X138416137Y-108683658D01*
X138382652Y-108622335D01*
X138387636Y-108552643D01*
X138416135Y-108508299D01*
X138984769Y-107939665D01*
X139046091Y-107906181D01*
X139115783Y-107911165D01*
X139171716Y-107953037D01*
X139196133Y-108018501D01*
X139196449Y-108027347D01*
X139196449Y-109946500D01*
X139176764Y-110013539D01*
X139123960Y-110059294D01*
X139072449Y-110070500D01*
X139011555Y-110070500D01*
X138856910Y-110101261D01*
X138856898Y-110101264D01*
X138711227Y-110161602D01*
X138711214Y-110161609D01*
X138580111Y-110249210D01*
X138580107Y-110249213D01*
X138468613Y-110360707D01*
X138468610Y-110360711D01*
X138381009Y-110491814D01*
X138381002Y-110491827D01*
X138320664Y-110637498D01*
X138320661Y-110637510D01*
X138289900Y-110792153D01*
X138289900Y-110949846D01*
X138320661Y-111104489D01*
X138320664Y-111104501D01*
X138381002Y-111250172D01*
X138381009Y-111250184D01*
X138387108Y-111259313D01*
X138407983Y-111325992D01*
X138389496Y-111393371D01*
X138387108Y-111397087D01*
X138381009Y-111406215D01*
X138381002Y-111406227D01*
X138320664Y-111551898D01*
X138320661Y-111551910D01*
X138289900Y-111706553D01*
X138289900Y-111864246D01*
X138320661Y-112018889D01*
X138320664Y-112018901D01*
X138381002Y-112164572D01*
X138381009Y-112164585D01*
X138468610Y-112295688D01*
X138468613Y-112295692D01*
X138580107Y-112407186D01*
X138580111Y-112407189D01*
X138711214Y-112494790D01*
X138711227Y-112494797D01*
X138782436Y-112524292D01*
X138856903Y-112555137D01*
X138907173Y-112565136D01*
X138969082Y-112597520D01*
X139003657Y-112658235D01*
X139004598Y-112662561D01*
X139027210Y-112776240D01*
X139027213Y-112776250D01*
X139087551Y-112921921D01*
X139087558Y-112921934D01*
X139175159Y-113053037D01*
X139175162Y-113053041D01*
X139286656Y-113164535D01*
X139286660Y-113164538D01*
X139417763Y-113252139D01*
X139417776Y-113252146D01*
X139563447Y-113312484D01*
X139563452Y-113312486D01*
X139718102Y-113343248D01*
X139718105Y-113343249D01*
X139718107Y-113343249D01*
X139875793Y-113343249D01*
X139875794Y-113343248D01*
X140030446Y-113312486D01*
X140176128Y-113252143D01*
X140307238Y-113164538D01*
X140418738Y-113053038D01*
X140506343Y-112921928D01*
X140566686Y-112776246D01*
X140597449Y-112621591D01*
X140597449Y-112463907D01*
X140597449Y-112463904D01*
X140597448Y-112463902D01*
X140583024Y-112391389D01*
X140566686Y-112309252D01*
X140551629Y-112272901D01*
X140506346Y-112163576D01*
X140506339Y-112163563D01*
X140418347Y-112031874D01*
X140397469Y-111965196D01*
X140397449Y-111962983D01*
X140397449Y-104629322D01*
X140417134Y-104562283D01*
X140469938Y-104516528D01*
X140539096Y-104506584D01*
X140602652Y-104535609D01*
X140636009Y-104581868D01*
X140641603Y-104595372D01*
X140641607Y-104595381D01*
X140641609Y-104595385D01*
X140729210Y-104726488D01*
X140729213Y-104726492D01*
X140840707Y-104837986D01*
X140840711Y-104837989D01*
X140971814Y-104925590D01*
X140971827Y-104925597D01*
X141068484Y-104965633D01*
X141117503Y-104985937D01*
X141272153Y-105016699D01*
X141272156Y-105016700D01*
X141272158Y-105016700D01*
X141429844Y-105016700D01*
X141429845Y-105016699D01*
X141584497Y-104985937D01*
X141700373Y-104937940D01*
X141730172Y-104925597D01*
X141730172Y-104925596D01*
X141730179Y-104925594D01*
X141861289Y-104837989D01*
X141972789Y-104726489D01*
X142060394Y-104595379D01*
X142071345Y-104568942D01*
X142112991Y-104468397D01*
X142120737Y-104449697D01*
X142127290Y-104416753D01*
X143242900Y-104416753D01*
X143242900Y-104574446D01*
X143273661Y-104729089D01*
X143273664Y-104729101D01*
X143334002Y-104874772D01*
X143334009Y-104874785D01*
X143421610Y-105005888D01*
X143421613Y-105005892D01*
X143533107Y-105117386D01*
X143533111Y-105117389D01*
X143664214Y-105204990D01*
X143664227Y-105204997D01*
X143809898Y-105265335D01*
X143809903Y-105265337D01*
X143952975Y-105293796D01*
X143964553Y-105296099D01*
X143964556Y-105296100D01*
X143964558Y-105296100D01*
X144122244Y-105296100D01*
X144184019Y-105283811D01*
X144209108Y-105278821D01*
X144278699Y-105285048D01*
X144333877Y-105327910D01*
X144357122Y-105393800D01*
X144357300Y-105400438D01*
X144357300Y-108986042D01*
X144337615Y-109053081D01*
X144284811Y-109098836D01*
X144257492Y-109107659D01*
X144114708Y-109136061D01*
X144114698Y-109136064D01*
X143969027Y-109196402D01*
X143969014Y-109196409D01*
X143837911Y-109284010D01*
X143837907Y-109284013D01*
X143726413Y-109395507D01*
X143726410Y-109395511D01*
X143638809Y-109526614D01*
X143638802Y-109526627D01*
X143578464Y-109672298D01*
X143578461Y-109672310D01*
X143547700Y-109826953D01*
X143547700Y-109984646D01*
X143578461Y-110139289D01*
X143578464Y-110139301D01*
X143638802Y-110284972D01*
X143638809Y-110284985D01*
X143726410Y-110416088D01*
X143726413Y-110416092D01*
X143837907Y-110527586D01*
X143837911Y-110527589D01*
X143969014Y-110615190D01*
X143969027Y-110615197D01*
X144078919Y-110660715D01*
X144114703Y-110675537D01*
X144157169Y-110683984D01*
X144257491Y-110703940D01*
X144319402Y-110736325D01*
X144353976Y-110797041D01*
X144357300Y-110825557D01*
X144357300Y-114492730D01*
X144357299Y-114492748D01*
X144357299Y-114658454D01*
X144357298Y-114658454D01*
X144366908Y-114694318D01*
X144389252Y-114777707D01*
X144398224Y-114811188D01*
X144404151Y-114821453D01*
X144404153Y-114821456D01*
X144477277Y-114948112D01*
X144477281Y-114948117D01*
X144596149Y-115066985D01*
X144596155Y-115066990D01*
X145132974Y-115603809D01*
X145132984Y-115603820D01*
X145137314Y-115608150D01*
X145137315Y-115608151D01*
X145249119Y-115719955D01*
X145249121Y-115719956D01*
X145249125Y-115719959D01*
X145386044Y-115799008D01*
X145386051Y-115799012D01*
X145478877Y-115823884D01*
X145534466Y-115855979D01*
X145539711Y-115861224D01*
X145557253Y-115872945D01*
X145670814Y-115948825D01*
X145670827Y-115948832D01*
X145816498Y-116009170D01*
X145816503Y-116009172D01*
X145971153Y-116039934D01*
X145971156Y-116039935D01*
X145971158Y-116039935D01*
X146128844Y-116039935D01*
X146128845Y-116039934D01*
X146283497Y-116009172D01*
X146429179Y-115948829D01*
X146560289Y-115861224D01*
X146671789Y-115749724D01*
X146759394Y-115618614D01*
X146819737Y-115472932D01*
X146850500Y-115318277D01*
X146850500Y-115160593D01*
X146850500Y-115160590D01*
X146850499Y-115160588D01*
X146838591Y-115100723D01*
X146819737Y-115005938D01*
X146795785Y-114948112D01*
X146759397Y-114860262D01*
X146759390Y-114860249D01*
X146671789Y-114729146D01*
X146671786Y-114729142D01*
X146560292Y-114617648D01*
X146560288Y-114617645D01*
X146429185Y-114530044D01*
X146429172Y-114530037D01*
X146283501Y-114469699D01*
X146283489Y-114469696D01*
X146128845Y-114438935D01*
X146128842Y-114438935D01*
X145971158Y-114438935D01*
X145971155Y-114438935D01*
X145816506Y-114469696D01*
X145816501Y-114469698D01*
X145808781Y-114472896D01*
X145788906Y-114475032D01*
X145770177Y-114482018D01*
X145754877Y-114478689D01*
X145739312Y-114480363D01*
X145721437Y-114471415D01*
X145701904Y-114467166D01*
X145679611Y-114450478D01*
X145676833Y-114449087D01*
X145673650Y-114446015D01*
X145594619Y-114366984D01*
X145561134Y-114305661D01*
X145558300Y-114279303D01*
X145558300Y-113540567D01*
X152908900Y-113540567D01*
X152908900Y-113821430D01*
X152940342Y-114100493D01*
X152940345Y-114100511D01*
X153002839Y-114374316D01*
X153002843Y-114374328D01*
X153095600Y-114639410D01*
X153217453Y-114892441D01*
X153217455Y-114892444D01*
X153366877Y-115130247D01*
X153541984Y-115349824D01*
X153740575Y-115548415D01*
X153960152Y-115723522D01*
X154197955Y-115872944D01*
X154450992Y-115994800D01*
X154650080Y-116064464D01*
X154716070Y-116087555D01*
X154716082Y-116087559D01*
X154989891Y-116150054D01*
X154989897Y-116150054D01*
X154989905Y-116150056D01*
X155175947Y-116171017D01*
X155268969Y-116181498D01*
X155268972Y-116181499D01*
X155268975Y-116181499D01*
X155549828Y-116181499D01*
X155549829Y-116181498D01*
X155692455Y-116165428D01*
X155828894Y-116150056D01*
X155828899Y-116150055D01*
X155828909Y-116150054D01*
X156102718Y-116087559D01*
X156367808Y-115994800D01*
X156620845Y-115872944D01*
X156858648Y-115723522D01*
X157078225Y-115548415D01*
X157276816Y-115349824D01*
X157451923Y-115130247D01*
X157601345Y-114892444D01*
X157723201Y-114639407D01*
X157815960Y-114374317D01*
X157878455Y-114100508D01*
X157887256Y-114022402D01*
X157894054Y-113962061D01*
X157909900Y-113821424D01*
X157909900Y-113540574D01*
X157878455Y-113261490D01*
X157815960Y-112987681D01*
X157723201Y-112722591D01*
X157601345Y-112469554D01*
X157451923Y-112231751D01*
X157276816Y-112012174D01*
X157078225Y-111813583D01*
X157072474Y-111808997D01*
X157007715Y-111757353D01*
X156858648Y-111638476D01*
X156684589Y-111529107D01*
X156620842Y-111489052D01*
X156367811Y-111367199D01*
X156102729Y-111274442D01*
X156102717Y-111274438D01*
X155828912Y-111211944D01*
X155828894Y-111211941D01*
X155549831Y-111180499D01*
X155549825Y-111180499D01*
X155268975Y-111180499D01*
X155268968Y-111180499D01*
X154989905Y-111211941D01*
X154989887Y-111211944D01*
X154716082Y-111274438D01*
X154716070Y-111274442D01*
X154450988Y-111367199D01*
X154197957Y-111489052D01*
X153960153Y-111638475D01*
X153740575Y-111813582D01*
X153541983Y-112012174D01*
X153366876Y-112231752D01*
X153217453Y-112469556D01*
X153095600Y-112722587D01*
X153002843Y-112987669D01*
X153002839Y-112987681D01*
X152940345Y-113261486D01*
X152940342Y-113261504D01*
X152908900Y-113540567D01*
X145558300Y-113540567D01*
X145558300Y-111960553D01*
X146773500Y-111960553D01*
X146773500Y-112118246D01*
X146804261Y-112272889D01*
X146804264Y-112272901D01*
X146864602Y-112418572D01*
X146864609Y-112418585D01*
X146952210Y-112549688D01*
X146952213Y-112549692D01*
X147063707Y-112661186D01*
X147063711Y-112661189D01*
X147194814Y-112748790D01*
X147194827Y-112748797D01*
X147340498Y-112809135D01*
X147340503Y-112809137D01*
X147495153Y-112839899D01*
X147495156Y-112839900D01*
X147495158Y-112839900D01*
X147652844Y-112839900D01*
X147652845Y-112839899D01*
X147807497Y-112809137D01*
X147953179Y-112748794D01*
X148084289Y-112661189D01*
X148195789Y-112549689D01*
X148283394Y-112418579D01*
X148343737Y-112272897D01*
X148374500Y-112118242D01*
X148374500Y-111960558D01*
X148374500Y-111960555D01*
X148374499Y-111960553D01*
X148352199Y-111848444D01*
X148343737Y-111805903D01*
X148323627Y-111757353D01*
X151294700Y-111757353D01*
X151294700Y-111915046D01*
X151325461Y-112069689D01*
X151325464Y-112069701D01*
X151385802Y-112215372D01*
X151385809Y-112215385D01*
X151473410Y-112346488D01*
X151473413Y-112346492D01*
X151584907Y-112457986D01*
X151584911Y-112457989D01*
X151716014Y-112545590D01*
X151716027Y-112545597D01*
X151841382Y-112597520D01*
X151861703Y-112605937D01*
X152011763Y-112635786D01*
X152016353Y-112636699D01*
X152016356Y-112636700D01*
X152016358Y-112636700D01*
X152174044Y-112636700D01*
X152174045Y-112636699D01*
X152328697Y-112605937D01*
X152451342Y-112555136D01*
X152474372Y-112545597D01*
X152474372Y-112545596D01*
X152474379Y-112545594D01*
X152605489Y-112457989D01*
X152716989Y-112346489D01*
X152804594Y-112215379D01*
X152864937Y-112069697D01*
X152895700Y-111915042D01*
X152895700Y-111757358D01*
X152895700Y-111757355D01*
X152895699Y-111757353D01*
X152876378Y-111660221D01*
X152864937Y-111602703D01*
X152843893Y-111551898D01*
X152804597Y-111457027D01*
X152804590Y-111457014D01*
X152716989Y-111325911D01*
X152716986Y-111325907D01*
X152605492Y-111214413D01*
X152605488Y-111214410D01*
X152474385Y-111126809D01*
X152474372Y-111126802D01*
X152328701Y-111066464D01*
X152328689Y-111066461D01*
X152174045Y-111035700D01*
X152174042Y-111035700D01*
X152016358Y-111035700D01*
X152016355Y-111035700D01*
X151861710Y-111066461D01*
X151861698Y-111066464D01*
X151716027Y-111126802D01*
X151716014Y-111126809D01*
X151584911Y-111214410D01*
X151584907Y-111214413D01*
X151473413Y-111325907D01*
X151473410Y-111325911D01*
X151385809Y-111457014D01*
X151385802Y-111457027D01*
X151325464Y-111602698D01*
X151325461Y-111602710D01*
X151294700Y-111757353D01*
X148323627Y-111757353D01*
X148296041Y-111690753D01*
X148283397Y-111660227D01*
X148283390Y-111660214D01*
X148195789Y-111529111D01*
X148195786Y-111529107D01*
X148084292Y-111417613D01*
X148084288Y-111417610D01*
X147953185Y-111330009D01*
X147953172Y-111330002D01*
X147807501Y-111269664D01*
X147807489Y-111269661D01*
X147652845Y-111238900D01*
X147652842Y-111238900D01*
X147495158Y-111238900D01*
X147495155Y-111238900D01*
X147340510Y-111269661D01*
X147340498Y-111269664D01*
X147194827Y-111330002D01*
X147194814Y-111330009D01*
X147063711Y-111417610D01*
X147063707Y-111417613D01*
X146952213Y-111529107D01*
X146952210Y-111529111D01*
X146864609Y-111660214D01*
X146864602Y-111660227D01*
X146804264Y-111805898D01*
X146804261Y-111805910D01*
X146773500Y-111960553D01*
X145558300Y-111960553D01*
X145558300Y-110327688D01*
X149092165Y-110327688D01*
X149092165Y-110485381D01*
X149122926Y-110640024D01*
X149122929Y-110640036D01*
X149183267Y-110785707D01*
X149183274Y-110785720D01*
X149270875Y-110916823D01*
X149270878Y-110916827D01*
X149382372Y-111028321D01*
X149382376Y-111028324D01*
X149513479Y-111115925D01*
X149513492Y-111115932D01*
X149590461Y-111147813D01*
X149659168Y-111176272D01*
X149813818Y-111207034D01*
X149813821Y-111207035D01*
X149813823Y-111207035D01*
X149971509Y-111207035D01*
X149971510Y-111207034D01*
X150126162Y-111176272D01*
X150271844Y-111115929D01*
X150402954Y-111028324D01*
X150514454Y-110916824D01*
X150602059Y-110785714D01*
X150662402Y-110640032D01*
X150693165Y-110485377D01*
X150693165Y-110327693D01*
X150693165Y-110327690D01*
X150693164Y-110327688D01*
X150684670Y-110284985D01*
X150662402Y-110173038D01*
X150649603Y-110142138D01*
X150602062Y-110027362D01*
X150602055Y-110027349D01*
X150514454Y-109896246D01*
X150514451Y-109896242D01*
X150402957Y-109784748D01*
X150402953Y-109784745D01*
X150271850Y-109697144D01*
X150271837Y-109697137D01*
X150126166Y-109636799D01*
X150126154Y-109636796D01*
X149971510Y-109606035D01*
X149971507Y-109606035D01*
X149813823Y-109606035D01*
X149813820Y-109606035D01*
X149659175Y-109636796D01*
X149659163Y-109636799D01*
X149513492Y-109697137D01*
X149513479Y-109697144D01*
X149382376Y-109784745D01*
X149382372Y-109784748D01*
X149270878Y-109896242D01*
X149270875Y-109896246D01*
X149183274Y-110027349D01*
X149183267Y-110027362D01*
X149122929Y-110173033D01*
X149122926Y-110173045D01*
X149092165Y-110327688D01*
X145558300Y-110327688D01*
X145558300Y-108320953D01*
X153829300Y-108320953D01*
X153829300Y-108478646D01*
X153860061Y-108633289D01*
X153860064Y-108633301D01*
X153920402Y-108778972D01*
X153920409Y-108778985D01*
X154008010Y-108910088D01*
X154008013Y-108910092D01*
X154119507Y-109021586D01*
X154119511Y-109021589D01*
X154250614Y-109109190D01*
X154250627Y-109109197D01*
X154315491Y-109136064D01*
X154396303Y-109169537D01*
X154531362Y-109196402D01*
X154550953Y-109200299D01*
X154550956Y-109200300D01*
X154550958Y-109200300D01*
X154708644Y-109200300D01*
X154708645Y-109200299D01*
X154863297Y-109169537D01*
X155008979Y-109109194D01*
X155140089Y-109021589D01*
X155251589Y-108910089D01*
X155339194Y-108778979D01*
X155350944Y-108750613D01*
X155399535Y-108633301D01*
X155399537Y-108633297D01*
X155430300Y-108478642D01*
X155430300Y-108320958D01*
X155430300Y-108320955D01*
X155430299Y-108320953D01*
X155399537Y-108166303D01*
X155341980Y-108027347D01*
X155339197Y-108020627D01*
X155339190Y-108020614D01*
X155251589Y-107889511D01*
X155251586Y-107889507D01*
X155140092Y-107778013D01*
X155140088Y-107778010D01*
X155008985Y-107690409D01*
X155008972Y-107690402D01*
X154863301Y-107630064D01*
X154863289Y-107630061D01*
X154708645Y-107599300D01*
X154708642Y-107599300D01*
X154550958Y-107599300D01*
X154550955Y-107599300D01*
X154396310Y-107630061D01*
X154396298Y-107630064D01*
X154250627Y-107690402D01*
X154250614Y-107690409D01*
X154119511Y-107778010D01*
X154119507Y-107778013D01*
X154008013Y-107889507D01*
X154008010Y-107889511D01*
X153920409Y-108020614D01*
X153920402Y-108020627D01*
X153860064Y-108166298D01*
X153860061Y-108166310D01*
X153829300Y-108320953D01*
X145558300Y-108320953D01*
X145558300Y-105227765D01*
X145577985Y-105160726D01*
X145579198Y-105158874D01*
X145606918Y-105117389D01*
X145667194Y-105027179D01*
X145671528Y-105016717D01*
X145708275Y-104928000D01*
X152840938Y-104928000D01*
X153643812Y-104928000D01*
X153626595Y-104937940D01*
X153570740Y-104993795D01*
X153531244Y-105062204D01*
X153510800Y-105138504D01*
X153510800Y-105217496D01*
X153531244Y-105293796D01*
X153570740Y-105362205D01*
X153626595Y-105418060D01*
X153643812Y-105428000D01*
X152840938Y-105428000D01*
X152849230Y-105469690D01*
X152849230Y-105469692D01*
X152924607Y-105651671D01*
X152924614Y-105651684D01*
X153034048Y-105815462D01*
X153034051Y-105815466D01*
X153173333Y-105954748D01*
X153173337Y-105954751D01*
X153337115Y-106064185D01*
X153337128Y-106064192D01*
X153519106Y-106139569D01*
X153519118Y-106139572D01*
X153712304Y-106177999D01*
X153712308Y-106178000D01*
X154110800Y-106178000D01*
X154110800Y-105478000D01*
X154610800Y-105478000D01*
X154610800Y-106178000D01*
X155009292Y-106178000D01*
X155009295Y-106177999D01*
X155202481Y-106139572D01*
X155202493Y-106139569D01*
X155384471Y-106064192D01*
X155384484Y-106064185D01*
X155548262Y-105954751D01*
X155548266Y-105954748D01*
X155687548Y-105815466D01*
X155687551Y-105815462D01*
X155796985Y-105651684D01*
X155796992Y-105651671D01*
X155872369Y-105469692D01*
X155872369Y-105469690D01*
X155880662Y-105428000D01*
X155077788Y-105428000D01*
X155095005Y-105418060D01*
X155150860Y-105362205D01*
X155190356Y-105293796D01*
X155210800Y-105217496D01*
X155210800Y-105138504D01*
X155190356Y-105062204D01*
X155150860Y-104993795D01*
X155095005Y-104937940D01*
X155077788Y-104928000D01*
X155880662Y-104928000D01*
X157270938Y-104928000D01*
X158073812Y-104928000D01*
X158056595Y-104937940D01*
X158000740Y-104993795D01*
X157961244Y-105062204D01*
X157940800Y-105138504D01*
X157940800Y-105217496D01*
X157961244Y-105293796D01*
X158000740Y-105362205D01*
X158056595Y-105418060D01*
X158073812Y-105428000D01*
X157270938Y-105428000D01*
X157279230Y-105469690D01*
X157279230Y-105469692D01*
X157354607Y-105651671D01*
X157354614Y-105651684D01*
X157464048Y-105815462D01*
X157464051Y-105815466D01*
X157603333Y-105954748D01*
X157603337Y-105954751D01*
X157767115Y-106064185D01*
X157767128Y-106064192D01*
X157949106Y-106139569D01*
X157949118Y-106139572D01*
X158142304Y-106177999D01*
X158142308Y-106178000D01*
X158290800Y-106178000D01*
X158290800Y-105478000D01*
X158790800Y-105478000D01*
X158790800Y-106178000D01*
X158939292Y-106178000D01*
X158939295Y-106177999D01*
X159132481Y-106139572D01*
X159132493Y-106139569D01*
X159314471Y-106064192D01*
X159314484Y-106064185D01*
X159478262Y-105954751D01*
X159478266Y-105954748D01*
X159617548Y-105815466D01*
X159617551Y-105815462D01*
X159726985Y-105651684D01*
X159726992Y-105651671D01*
X159802369Y-105469692D01*
X159802369Y-105469690D01*
X159810662Y-105428000D01*
X159007788Y-105428000D01*
X159025005Y-105418060D01*
X159080860Y-105362205D01*
X159120356Y-105293796D01*
X159140800Y-105217496D01*
X159140800Y-105138504D01*
X159120356Y-105062204D01*
X159080860Y-104993795D01*
X159025005Y-104937940D01*
X159007788Y-104928000D01*
X159810662Y-104928000D01*
X159802369Y-104886309D01*
X159802369Y-104886307D01*
X159726992Y-104704328D01*
X159726985Y-104704315D01*
X159617551Y-104540537D01*
X159617548Y-104540533D01*
X159478266Y-104401251D01*
X159478262Y-104401248D01*
X159314484Y-104291814D01*
X159314471Y-104291807D01*
X159132493Y-104216430D01*
X159132481Y-104216427D01*
X158939295Y-104178000D01*
X158790800Y-104178000D01*
X158790800Y-104878000D01*
X158290800Y-104878000D01*
X158290800Y-104178000D01*
X158142304Y-104178000D01*
X157949118Y-104216427D01*
X157949106Y-104216430D01*
X157767128Y-104291807D01*
X157767115Y-104291814D01*
X157603337Y-104401248D01*
X157603333Y-104401251D01*
X157464051Y-104540533D01*
X157464048Y-104540537D01*
X157354614Y-104704315D01*
X157354607Y-104704328D01*
X157279230Y-104886307D01*
X157279230Y-104886309D01*
X157270938Y-104928000D01*
X155880662Y-104928000D01*
X155872369Y-104886309D01*
X155872369Y-104886307D01*
X155796992Y-104704328D01*
X155796985Y-104704315D01*
X155687551Y-104540537D01*
X155687548Y-104540533D01*
X155548266Y-104401251D01*
X155548262Y-104401248D01*
X155384484Y-104291814D01*
X155384474Y-104291809D01*
X155374957Y-104287867D01*
X155320554Y-104244026D01*
X155298489Y-104177731D01*
X155315769Y-104110032D01*
X155319448Y-104104597D01*
X155321312Y-104101367D01*
X155321315Y-104101365D01*
X155397081Y-103970135D01*
X155436300Y-103823766D01*
X155436300Y-103672234D01*
X155397081Y-103525865D01*
X155321315Y-103394635D01*
X155214165Y-103287485D01*
X155147000Y-103248707D01*
X155082936Y-103211719D01*
X155000265Y-103189568D01*
X154936566Y-103172500D01*
X154785034Y-103172500D01*
X154638663Y-103211719D01*
X154507435Y-103287485D01*
X154507432Y-103287487D01*
X154400287Y-103394632D01*
X154400285Y-103394635D01*
X154324519Y-103525863D01*
X154302273Y-103608888D01*
X154285300Y-103672234D01*
X154285300Y-103823766D01*
X154302980Y-103889750D01*
X154324519Y-103970136D01*
X154337432Y-103992501D01*
X154400285Y-104101365D01*
X154507435Y-104208515D01*
X154548800Y-104232397D01*
X154597016Y-104282964D01*
X154610800Y-104339784D01*
X154610800Y-104878000D01*
X154110800Y-104878000D01*
X154110800Y-104178000D01*
X153712304Y-104178000D01*
X153519118Y-104216427D01*
X153519106Y-104216430D01*
X153337128Y-104291807D01*
X153337115Y-104291814D01*
X153173337Y-104401248D01*
X153173333Y-104401251D01*
X153034051Y-104540533D01*
X153034048Y-104540537D01*
X152924614Y-104704315D01*
X152924607Y-104704328D01*
X152849230Y-104886307D01*
X152849230Y-104886309D01*
X152840938Y-104928000D01*
X145708275Y-104928000D01*
X145714124Y-104913879D01*
X145714124Y-104913878D01*
X145720517Y-104898444D01*
X145727537Y-104881497D01*
X145758300Y-104726842D01*
X145758300Y-104569158D01*
X145758300Y-104569155D01*
X145758299Y-104569153D01*
X145745853Y-104506584D01*
X145727537Y-104414503D01*
X145707769Y-104366779D01*
X145667197Y-104268827D01*
X145667190Y-104268814D01*
X145579589Y-104137711D01*
X145579586Y-104137707D01*
X145468092Y-104026213D01*
X145468088Y-104026210D01*
X145336985Y-103938609D01*
X145336972Y-103938602D01*
X145191301Y-103878264D01*
X145191289Y-103878261D01*
X145036645Y-103847500D01*
X145036642Y-103847500D01*
X144878958Y-103847500D01*
X144878955Y-103847500D01*
X144724311Y-103878260D01*
X144724306Y-103878262D01*
X144724304Y-103878262D01*
X144724303Y-103878263D01*
X144683186Y-103895294D01*
X144675341Y-103896137D01*
X144668634Y-103900288D01*
X144641095Y-103899818D01*
X144613716Y-103902761D01*
X144604888Y-103899200D01*
X144598774Y-103899096D01*
X144581460Y-103889750D01*
X144566925Y-103883888D01*
X144557437Y-103877559D01*
X144553689Y-103873811D01*
X144422579Y-103786206D01*
X144417058Y-103783919D01*
X144417055Y-103783917D01*
X144276901Y-103725864D01*
X144276889Y-103725861D01*
X144122245Y-103695100D01*
X144122242Y-103695100D01*
X143964558Y-103695100D01*
X143964555Y-103695100D01*
X143809910Y-103725861D01*
X143809898Y-103725864D01*
X143664227Y-103786202D01*
X143664214Y-103786209D01*
X143533111Y-103873810D01*
X143533107Y-103873813D01*
X143421613Y-103985307D01*
X143421610Y-103985311D01*
X143334009Y-104116414D01*
X143334002Y-104116427D01*
X143273664Y-104262098D01*
X143273661Y-104262110D01*
X143242900Y-104416753D01*
X142127290Y-104416753D01*
X142142600Y-104339784D01*
X142151500Y-104295044D01*
X142151500Y-104137355D01*
X142151499Y-104137353D01*
X142149614Y-104127875D01*
X142120737Y-103982703D01*
X142102470Y-103938602D01*
X142060397Y-103837027D01*
X142060390Y-103837014D01*
X141972789Y-103705911D01*
X141972786Y-103705907D01*
X141947032Y-103680153D01*
X147352700Y-103680153D01*
X147352700Y-103837846D01*
X147383461Y-103992489D01*
X147383464Y-103992501D01*
X147443802Y-104138172D01*
X147443809Y-104138185D01*
X147531410Y-104269288D01*
X147531413Y-104269292D01*
X147642907Y-104380786D01*
X147642911Y-104380789D01*
X147774014Y-104468390D01*
X147774027Y-104468397D01*
X147910191Y-104524797D01*
X147919703Y-104528737D01*
X148022557Y-104549196D01*
X148074353Y-104559499D01*
X148074356Y-104559500D01*
X148074358Y-104559500D01*
X148232044Y-104559500D01*
X148232045Y-104559499D01*
X148386697Y-104528737D01*
X148532379Y-104468394D01*
X148663489Y-104380789D01*
X148774989Y-104269289D01*
X148862594Y-104138179D01*
X148922937Y-103992497D01*
X148953700Y-103837842D01*
X148953700Y-103680158D01*
X148953700Y-103680155D01*
X148953699Y-103680153D01*
X148939524Y-103608892D01*
X148922937Y-103525503D01*
X148903169Y-103477779D01*
X148862597Y-103379827D01*
X148862590Y-103379814D01*
X148774989Y-103248711D01*
X148774986Y-103248707D01*
X148663492Y-103137213D01*
X148632894Y-103116768D01*
X148632892Y-103116766D01*
X148532385Y-103049609D01*
X148532372Y-103049602D01*
X148460309Y-103019753D01*
X149465900Y-103019753D01*
X149465900Y-103177446D01*
X149496661Y-103332089D01*
X149496664Y-103332101D01*
X149557002Y-103477772D01*
X149557009Y-103477785D01*
X149644610Y-103608888D01*
X149644613Y-103608892D01*
X149756107Y-103720386D01*
X149756111Y-103720389D01*
X149887214Y-103807990D01*
X149887227Y-103807997D01*
X150032898Y-103868335D01*
X150032903Y-103868337D01*
X150140553Y-103889750D01*
X150187553Y-103899099D01*
X150187556Y-103899100D01*
X150187558Y-103899100D01*
X150345244Y-103899100D01*
X150345245Y-103899099D01*
X150499897Y-103868337D01*
X150645579Y-103807994D01*
X150776689Y-103720389D01*
X150888189Y-103608889D01*
X150975794Y-103477779D01*
X151036137Y-103332097D01*
X151066900Y-103177442D01*
X151066900Y-103019758D01*
X151066900Y-103019755D01*
X151066899Y-103019753D01*
X151051855Y-102944121D01*
X151036137Y-102865103D01*
X151022555Y-102832312D01*
X150975797Y-102719427D01*
X150975790Y-102719414D01*
X150888189Y-102588311D01*
X150888186Y-102588307D01*
X150776692Y-102476813D01*
X150776688Y-102476810D01*
X150645585Y-102389209D01*
X150645572Y-102389202D01*
X150499901Y-102328864D01*
X150499889Y-102328861D01*
X150345245Y-102298100D01*
X150345242Y-102298100D01*
X150187558Y-102298100D01*
X150187555Y-102298100D01*
X150032910Y-102328861D01*
X150032898Y-102328864D01*
X149887227Y-102389202D01*
X149887214Y-102389209D01*
X149756111Y-102476810D01*
X149756107Y-102476813D01*
X149644613Y-102588307D01*
X149644610Y-102588311D01*
X149557009Y-102719414D01*
X149557002Y-102719427D01*
X149496664Y-102865098D01*
X149496661Y-102865110D01*
X149465900Y-103019753D01*
X148460309Y-103019753D01*
X148386701Y-102989264D01*
X148386689Y-102989261D01*
X148232045Y-102958500D01*
X148232042Y-102958500D01*
X148074358Y-102958500D01*
X148074355Y-102958500D01*
X147919710Y-102989261D01*
X147919698Y-102989264D01*
X147774027Y-103049602D01*
X147774014Y-103049609D01*
X147642911Y-103137210D01*
X147642907Y-103137213D01*
X147531413Y-103248707D01*
X147531410Y-103248711D01*
X147443809Y-103379814D01*
X147443802Y-103379827D01*
X147383464Y-103525498D01*
X147383461Y-103525510D01*
X147352700Y-103680153D01*
X141947032Y-103680153D01*
X141861292Y-103594413D01*
X141861288Y-103594410D01*
X141730185Y-103506809D01*
X141730172Y-103506802D01*
X141584501Y-103446464D01*
X141584489Y-103446461D01*
X141429845Y-103415700D01*
X141429842Y-103415700D01*
X141272158Y-103415700D01*
X141272155Y-103415700D01*
X141117510Y-103446461D01*
X141117498Y-103446464D01*
X140971827Y-103506802D01*
X140971814Y-103506809D01*
X140840711Y-103594410D01*
X140840707Y-103594413D01*
X140729213Y-103705907D01*
X140729210Y-103705911D01*
X140641609Y-103837014D01*
X140641606Y-103837021D01*
X140636010Y-103850531D01*
X140592168Y-103904934D01*
X140525874Y-103926998D01*
X140458175Y-103909718D01*
X140410565Y-103858581D01*
X140397449Y-103803077D01*
X140397449Y-101701548D01*
X140417134Y-101634509D01*
X140433768Y-101613867D01*
X141861946Y-100185689D01*
X143218881Y-98828753D01*
X144639700Y-98828753D01*
X144639700Y-98986446D01*
X144670461Y-99141089D01*
X144670464Y-99141101D01*
X144730802Y-99286772D01*
X144730809Y-99286785D01*
X144818410Y-99417888D01*
X144818413Y-99417892D01*
X144929907Y-99529386D01*
X144929911Y-99529389D01*
X145061014Y-99616990D01*
X145061027Y-99616997D01*
X145157095Y-99656789D01*
X145206703Y-99677337D01*
X145361353Y-99708099D01*
X145361356Y-99708100D01*
X145361358Y-99708100D01*
X145519044Y-99708100D01*
X145519045Y-99708099D01*
X145673697Y-99677337D01*
X145819379Y-99616994D01*
X145950489Y-99529389D01*
X146061989Y-99417889D01*
X146149594Y-99286779D01*
X146209937Y-99141097D01*
X146240700Y-98986442D01*
X146240700Y-98828758D01*
X146240700Y-98828755D01*
X146240699Y-98828753D01*
X146218686Y-98718089D01*
X146209937Y-98674103D01*
X146190177Y-98626397D01*
X146149597Y-98528427D01*
X146149590Y-98528414D01*
X146061989Y-98397311D01*
X146061986Y-98397307D01*
X145950492Y-98285813D01*
X145950488Y-98285810D01*
X145819385Y-98198209D01*
X145819372Y-98198202D01*
X145673701Y-98137864D01*
X145673689Y-98137861D01*
X145519045Y-98107100D01*
X145519042Y-98107100D01*
X145361358Y-98107100D01*
X145361355Y-98107100D01*
X145206710Y-98137861D01*
X145206698Y-98137864D01*
X145061027Y-98198202D01*
X145061014Y-98198209D01*
X144929911Y-98285810D01*
X144929907Y-98285813D01*
X144818413Y-98397307D01*
X144818410Y-98397311D01*
X144730809Y-98528414D01*
X144730802Y-98528427D01*
X144670464Y-98674098D01*
X144670461Y-98674110D01*
X144639700Y-98828753D01*
X143218881Y-98828753D01*
X143296062Y-98751572D01*
X143312657Y-98742511D01*
X143326266Y-98729380D01*
X143355760Y-98718974D01*
X143357383Y-98718089D01*
X143359550Y-98717638D01*
X143442948Y-98701049D01*
X143470049Y-98695657D01*
X143514897Y-98686737D01*
X143627566Y-98640067D01*
X143660572Y-98626397D01*
X143660572Y-98626396D01*
X143660579Y-98626394D01*
X143791689Y-98538789D01*
X143903189Y-98427289D01*
X143990794Y-98296179D01*
X144051137Y-98150497D01*
X144081900Y-97995842D01*
X144081900Y-97952533D01*
X144101585Y-97885494D01*
X144154389Y-97839739D01*
X144205900Y-97828533D01*
X152271569Y-97828533D01*
X152271585Y-97828534D01*
X152279181Y-97828534D01*
X152437292Y-97828534D01*
X152437295Y-97828534D01*
X152590023Y-97787610D01*
X152677025Y-97737379D01*
X152726954Y-97708553D01*
X152838758Y-97596749D01*
X152838759Y-97596747D01*
X153069860Y-97365646D01*
X153131180Y-97332163D01*
X153200872Y-97337147D01*
X153226429Y-97350227D01*
X153337115Y-97424185D01*
X153337128Y-97424192D01*
X153519106Y-97499569D01*
X153519118Y-97499572D01*
X153712304Y-97537999D01*
X153712308Y-97538000D01*
X154110800Y-97538000D01*
X154110800Y-96838000D01*
X154610800Y-96838000D01*
X154610800Y-97376215D01*
X154591115Y-97443254D01*
X154548802Y-97483601D01*
X154507438Y-97507483D01*
X154507432Y-97507487D01*
X154400287Y-97614632D01*
X154400285Y-97614635D01*
X154324519Y-97745863D01*
X154285300Y-97892234D01*
X154285300Y-98043765D01*
X154324519Y-98190136D01*
X154358513Y-98249014D01*
X154400285Y-98321365D01*
X154507435Y-98428515D01*
X154638665Y-98504281D01*
X154785034Y-98543500D01*
X154785036Y-98543500D01*
X154936564Y-98543500D01*
X154936566Y-98543500D01*
X155082935Y-98504281D01*
X155214165Y-98428515D01*
X155321315Y-98321365D01*
X155397081Y-98190135D01*
X155436300Y-98043766D01*
X155436300Y-97892234D01*
X155397081Y-97745865D01*
X155321315Y-97614635D01*
X155321313Y-97614633D01*
X155317251Y-97607597D01*
X155319454Y-97606325D01*
X155298841Y-97553022D01*
X155312873Y-97484576D01*
X155361682Y-97434582D01*
X155374963Y-97428129D01*
X155384482Y-97424186D01*
X155384484Y-97424185D01*
X155548262Y-97314751D01*
X155548266Y-97314748D01*
X155687548Y-97175466D01*
X155687551Y-97175462D01*
X155796985Y-97011684D01*
X155796992Y-97011671D01*
X155872369Y-96829692D01*
X155872369Y-96829690D01*
X155880662Y-96788000D01*
X155077788Y-96788000D01*
X155095005Y-96778060D01*
X155150860Y-96722205D01*
X155190356Y-96653796D01*
X155210800Y-96577496D01*
X155210800Y-96498504D01*
X155190356Y-96422204D01*
X155150860Y-96353795D01*
X155095005Y-96297940D01*
X155077788Y-96288000D01*
X155880662Y-96288000D01*
X157270938Y-96288000D01*
X158073812Y-96288000D01*
X158056595Y-96297940D01*
X158000740Y-96353795D01*
X157961244Y-96422204D01*
X157940800Y-96498504D01*
X157940800Y-96577496D01*
X157961244Y-96653796D01*
X158000740Y-96722205D01*
X158056595Y-96778060D01*
X158073812Y-96788000D01*
X157270938Y-96788000D01*
X157279230Y-96829690D01*
X157279230Y-96829692D01*
X157354607Y-97011671D01*
X157354614Y-97011684D01*
X157464048Y-97175462D01*
X157464051Y-97175466D01*
X157603333Y-97314748D01*
X157603337Y-97314751D01*
X157767115Y-97424185D01*
X157767128Y-97424192D01*
X157949106Y-97499569D01*
X157949118Y-97499572D01*
X158142304Y-97537999D01*
X158142308Y-97538000D01*
X158290800Y-97538000D01*
X158290800Y-96838000D01*
X158790800Y-96838000D01*
X158790800Y-97538000D01*
X158939292Y-97538000D01*
X158939295Y-97537999D01*
X159132481Y-97499572D01*
X159132493Y-97499569D01*
X159314471Y-97424192D01*
X159314484Y-97424185D01*
X159478262Y-97314751D01*
X159478266Y-97314748D01*
X159617548Y-97175466D01*
X159617551Y-97175462D01*
X159726985Y-97011684D01*
X159726992Y-97011671D01*
X159802369Y-96829692D01*
X159802369Y-96829690D01*
X159810662Y-96788000D01*
X159007788Y-96788000D01*
X159025005Y-96778060D01*
X159080860Y-96722205D01*
X159120356Y-96653796D01*
X159140800Y-96577496D01*
X159140800Y-96498504D01*
X159120356Y-96422204D01*
X159080860Y-96353795D01*
X159025005Y-96297940D01*
X159007788Y-96288000D01*
X159810662Y-96288000D01*
X159802369Y-96246309D01*
X159802369Y-96246307D01*
X159726992Y-96064328D01*
X159726985Y-96064315D01*
X159617551Y-95900537D01*
X159617548Y-95900533D01*
X159478266Y-95761251D01*
X159478262Y-95761248D01*
X159314484Y-95651814D01*
X159314471Y-95651807D01*
X159132493Y-95576430D01*
X159132481Y-95576427D01*
X158939295Y-95538000D01*
X158790800Y-95538000D01*
X158790800Y-96238000D01*
X158290800Y-96238000D01*
X158290800Y-95538000D01*
X158142304Y-95538000D01*
X157949118Y-95576427D01*
X157949106Y-95576430D01*
X157767128Y-95651807D01*
X157767115Y-95651814D01*
X157603337Y-95761248D01*
X157603333Y-95761251D01*
X157464051Y-95900533D01*
X157464048Y-95900537D01*
X157354614Y-96064315D01*
X157354607Y-96064328D01*
X157279230Y-96246307D01*
X157279230Y-96246309D01*
X157270938Y-96288000D01*
X155880662Y-96288000D01*
X155872369Y-96246309D01*
X155872369Y-96246307D01*
X155796992Y-96064328D01*
X155796985Y-96064315D01*
X155687551Y-95900537D01*
X155687548Y-95900533D01*
X155548266Y-95761251D01*
X155548262Y-95761248D01*
X155384484Y-95651814D01*
X155384471Y-95651807D01*
X155202493Y-95576430D01*
X155202481Y-95576427D01*
X155009295Y-95538000D01*
X154610800Y-95538000D01*
X154610800Y-96238000D01*
X154110800Y-96238000D01*
X154110800Y-95538000D01*
X153712304Y-95538000D01*
X153580491Y-95564219D01*
X153510899Y-95557992D01*
X153455722Y-95515128D01*
X153432478Y-95449238D01*
X153432300Y-95442602D01*
X153432300Y-94991565D01*
X153451985Y-94924526D01*
X153453198Y-94922674D01*
X153541190Y-94790985D01*
X153541190Y-94790984D01*
X153541194Y-94790979D01*
X153601537Y-94645297D01*
X153632300Y-94490642D01*
X153632300Y-94332958D01*
X153632300Y-94332955D01*
X153632299Y-94332953D01*
X153617305Y-94257574D01*
X153601537Y-94178303D01*
X153592298Y-94155997D01*
X153541197Y-94032627D01*
X153541190Y-94032614D01*
X153453589Y-93901511D01*
X153453586Y-93901507D01*
X153342092Y-93790013D01*
X153342088Y-93790010D01*
X153210985Y-93702409D01*
X153210972Y-93702402D01*
X153065301Y-93642064D01*
X153065289Y-93642061D01*
X152910645Y-93611300D01*
X152910642Y-93611300D01*
X152752958Y-93611300D01*
X152752955Y-93611300D01*
X152598310Y-93642061D01*
X152598298Y-93642064D01*
X152452627Y-93702402D01*
X152452614Y-93702409D01*
X152321511Y-93790010D01*
X152321507Y-93790013D01*
X152210013Y-93901507D01*
X152210010Y-93901511D01*
X152122409Y-94032614D01*
X152122402Y-94032627D01*
X152062064Y-94178298D01*
X152062061Y-94178310D01*
X152031300Y-94332953D01*
X152031300Y-94490646D01*
X152062061Y-94645289D01*
X152062064Y-94645301D01*
X152122402Y-94790972D01*
X152122409Y-94790985D01*
X152210402Y-94922674D01*
X152231280Y-94989351D01*
X152231300Y-94991565D01*
X152231300Y-95702533D01*
X152211615Y-95769572D01*
X152158811Y-95815327D01*
X152107300Y-95826533D01*
X151985522Y-95826533D01*
X151830877Y-95857294D01*
X151830865Y-95857297D01*
X151685194Y-95917635D01*
X151685181Y-95917642D01*
X151553492Y-96005635D01*
X151486814Y-96026513D01*
X151484601Y-96026533D01*
X150259356Y-96026533D01*
X150192317Y-96006848D01*
X150146562Y-95954044D01*
X150136618Y-95884886D01*
X150141641Y-95866621D01*
X150140770Y-95866357D01*
X150142532Y-95860542D01*
X150142538Y-95860530D01*
X150173301Y-95705875D01*
X150173301Y-95548191D01*
X150173301Y-95548188D01*
X150173300Y-95548186D01*
X150165844Y-95510702D01*
X150142538Y-95393536D01*
X150114161Y-95325027D01*
X150082198Y-95247860D01*
X150082191Y-95247847D01*
X149994199Y-95116158D01*
X149973321Y-95049480D01*
X149973301Y-95047267D01*
X149973301Y-91921353D01*
X154577900Y-91921353D01*
X154577900Y-92079046D01*
X154608661Y-92233689D01*
X154608664Y-92233701D01*
X154669002Y-92379372D01*
X154669009Y-92379385D01*
X154756610Y-92510488D01*
X154756613Y-92510492D01*
X154868107Y-92621986D01*
X154868111Y-92621989D01*
X154999214Y-92709590D01*
X154999227Y-92709597D01*
X155144898Y-92769935D01*
X155144903Y-92769937D01*
X155299553Y-92800699D01*
X155299556Y-92800700D01*
X155299558Y-92800700D01*
X155457244Y-92800700D01*
X155457245Y-92800699D01*
X155611897Y-92769937D01*
X155757579Y-92709594D01*
X155888689Y-92621989D01*
X156000189Y-92510489D01*
X156087794Y-92379379D01*
X156148137Y-92233697D01*
X156178900Y-92079042D01*
X156178900Y-91921358D01*
X156178900Y-91921355D01*
X156178899Y-91921353D01*
X156169401Y-91873602D01*
X156148137Y-91766703D01*
X156123449Y-91707100D01*
X156087797Y-91621027D01*
X156087790Y-91621014D01*
X156024007Y-91525557D01*
X156024006Y-91525555D01*
X156000192Y-91489915D01*
X156000186Y-91489907D01*
X155973032Y-91462753D01*
X157162100Y-91462753D01*
X157162100Y-91620446D01*
X157192861Y-91775089D01*
X157192864Y-91775101D01*
X157253202Y-91920772D01*
X157253209Y-91920785D01*
X157340810Y-92051888D01*
X157340813Y-92051892D01*
X157452307Y-92163386D01*
X157452311Y-92163389D01*
X157583414Y-92250990D01*
X157583427Y-92250997D01*
X157729098Y-92311335D01*
X157729103Y-92311337D01*
X157883753Y-92342099D01*
X157883756Y-92342100D01*
X157883758Y-92342100D01*
X158041444Y-92342100D01*
X158041445Y-92342099D01*
X158196097Y-92311337D01*
X158341779Y-92250994D01*
X158472889Y-92163389D01*
X158584389Y-92051889D01*
X158671994Y-91920779D01*
X158732337Y-91775097D01*
X158763100Y-91620442D01*
X158763100Y-91462758D01*
X158763100Y-91462755D01*
X158763099Y-91462753D01*
X158758211Y-91438179D01*
X158732337Y-91308103D01*
X158732335Y-91308098D01*
X158671997Y-91162427D01*
X158671990Y-91162414D01*
X158584389Y-91031311D01*
X158584386Y-91031307D01*
X158472892Y-90919813D01*
X158472888Y-90919810D01*
X158341785Y-90832209D01*
X158341772Y-90832202D01*
X158196101Y-90771864D01*
X158196089Y-90771861D01*
X158041445Y-90741100D01*
X158041442Y-90741100D01*
X157883758Y-90741100D01*
X157883755Y-90741100D01*
X157729110Y-90771861D01*
X157729098Y-90771864D01*
X157583427Y-90832202D01*
X157583414Y-90832209D01*
X157452311Y-90919810D01*
X157452307Y-90919813D01*
X157340813Y-91031307D01*
X157340810Y-91031311D01*
X157253209Y-91162414D01*
X157253202Y-91162427D01*
X157192864Y-91308098D01*
X157192861Y-91308110D01*
X157162100Y-91462753D01*
X155973032Y-91462753D01*
X155888692Y-91378413D01*
X155888688Y-91378410D01*
X155757585Y-91290809D01*
X155757572Y-91290802D01*
X155611901Y-91230464D01*
X155611889Y-91230461D01*
X155457245Y-91199700D01*
X155457242Y-91199700D01*
X155299558Y-91199700D01*
X155299555Y-91199700D01*
X155144910Y-91230461D01*
X155144898Y-91230464D01*
X154999227Y-91290802D01*
X154999214Y-91290809D01*
X154868111Y-91378410D01*
X154868107Y-91378413D01*
X154756613Y-91489907D01*
X154756610Y-91489911D01*
X154669009Y-91621014D01*
X154669002Y-91621027D01*
X154608664Y-91766698D01*
X154608661Y-91766710D01*
X154577900Y-91921353D01*
X149973301Y-91921353D01*
X149973301Y-91803243D01*
X149992986Y-91736204D01*
X150045790Y-91690449D01*
X150114948Y-91680505D01*
X150121488Y-91681625D01*
X150142272Y-91685759D01*
X150249555Y-91707100D01*
X150249558Y-91707100D01*
X150407244Y-91707100D01*
X150407245Y-91707099D01*
X150561897Y-91676337D01*
X150674566Y-91629667D01*
X150707572Y-91615997D01*
X150707572Y-91615996D01*
X150707579Y-91615994D01*
X150838689Y-91528389D01*
X150950189Y-91416889D01*
X151037794Y-91285779D01*
X151098137Y-91140097D01*
X151128900Y-90985442D01*
X151128900Y-90827758D01*
X151128900Y-90827755D01*
X151128899Y-90827753D01*
X151117781Y-90771861D01*
X151098137Y-90673103D01*
X151090928Y-90655698D01*
X151037797Y-90527427D01*
X151037790Y-90527414D01*
X150950189Y-90396311D01*
X150950186Y-90396307D01*
X150838692Y-90284813D01*
X150838688Y-90284810D01*
X150707585Y-90197209D01*
X150707572Y-90197202D01*
X150561901Y-90136864D01*
X150561889Y-90136861D01*
X150407245Y-90106100D01*
X150407242Y-90106100D01*
X150249558Y-90106100D01*
X150249553Y-90106100D01*
X150121492Y-90131573D01*
X150051900Y-90125346D01*
X149996723Y-90082483D01*
X149973479Y-90016593D01*
X149973301Y-90009956D01*
X149973301Y-86200146D01*
X149973301Y-86200144D01*
X149932378Y-86047417D01*
X149923530Y-86032092D01*
X149853325Y-85910491D01*
X149853322Y-85910487D01*
X149853321Y-85910485D01*
X149741517Y-85798681D01*
X149741516Y-85798680D01*
X149737186Y-85794350D01*
X149737175Y-85794340D01*
X148467990Y-84525155D01*
X148467988Y-84525152D01*
X148349117Y-84406281D01*
X148349109Y-84406275D01*
X148252009Y-84350215D01*
X148252007Y-84350214D01*
X148212190Y-84327225D01*
X148212189Y-84327224D01*
X148189812Y-84321228D01*
X148059457Y-84286299D01*
X147901343Y-84286299D01*
X147893747Y-84286299D01*
X147893731Y-84286300D01*
X143701826Y-84286300D01*
X143634787Y-84266615D01*
X143589032Y-84213811D01*
X143587276Y-84209780D01*
X143584394Y-84202821D01*
X143584391Y-84202816D01*
X143584390Y-84202814D01*
X143496789Y-84071711D01*
X143496786Y-84071707D01*
X143385292Y-83960213D01*
X143385288Y-83960210D01*
X143254185Y-83872609D01*
X143254172Y-83872602D01*
X143108501Y-83812264D01*
X143108489Y-83812261D01*
X142953845Y-83781500D01*
X142953842Y-83781500D01*
X142796158Y-83781500D01*
X142796155Y-83781500D01*
X142641510Y-83812261D01*
X142641498Y-83812264D01*
X142495827Y-83872602D01*
X142495814Y-83872609D01*
X142364711Y-83960210D01*
X142364707Y-83960213D01*
X142253213Y-84071707D01*
X142253210Y-84071711D01*
X142165609Y-84202814D01*
X142165602Y-84202827D01*
X142105264Y-84348498D01*
X142105261Y-84348510D01*
X142074500Y-84503153D01*
X142074500Y-84660846D01*
X142082310Y-84700109D01*
X142076083Y-84769700D01*
X142033220Y-84824878D01*
X141967330Y-84848122D01*
X141960693Y-84848300D01*
X141907155Y-84848300D01*
X141752510Y-84879061D01*
X141752498Y-84879064D01*
X141606827Y-84939402D01*
X141606814Y-84939409D01*
X141475711Y-85027010D01*
X141475707Y-85027013D01*
X141364213Y-85138507D01*
X141364210Y-85138511D01*
X141276609Y-85269614D01*
X141276602Y-85269627D01*
X141216264Y-85415298D01*
X141216261Y-85415310D01*
X141185500Y-85569953D01*
X141185500Y-85727646D01*
X141216261Y-85882289D01*
X141216264Y-85882301D01*
X141276602Y-86027972D01*
X141276609Y-86027984D01*
X141278883Y-86031388D01*
X141299758Y-86098067D01*
X141281271Y-86165446D01*
X141229290Y-86212134D01*
X141223232Y-86214836D01*
X141175021Y-86234806D01*
X141175014Y-86234809D01*
X141043911Y-86322410D01*
X141043907Y-86322413D01*
X140932413Y-86433907D01*
X140932410Y-86433911D01*
X140844809Y-86565014D01*
X140844802Y-86565027D01*
X140784464Y-86710698D01*
X140784461Y-86710710D01*
X140753700Y-86865353D01*
X140753700Y-87023046D01*
X140784461Y-87177689D01*
X140784464Y-87177701D01*
X140844802Y-87323372D01*
X140844809Y-87323385D01*
X140932410Y-87454488D01*
X140932413Y-87454492D01*
X141043907Y-87565986D01*
X141043911Y-87565989D01*
X141175014Y-87653590D01*
X141175027Y-87653597D01*
X141320698Y-87713935D01*
X141320703Y-87713937D01*
X141475353Y-87744699D01*
X141475356Y-87744700D01*
X141475358Y-87744700D01*
X141633044Y-87744700D01*
X141633045Y-87744699D01*
X141787697Y-87713937D01*
X141911074Y-87662833D01*
X141933372Y-87653597D01*
X141933372Y-87653596D01*
X141933379Y-87653594D01*
X142064489Y-87565989D01*
X142175989Y-87454489D01*
X142263594Y-87323379D01*
X142270716Y-87306185D01*
X142315339Y-87198455D01*
X142359179Y-87144051D01*
X142425473Y-87121986D01*
X142493173Y-87139265D01*
X142540784Y-87190402D01*
X142553900Y-87245907D01*
X142553900Y-88150902D01*
X142534215Y-88217941D01*
X142517581Y-88238583D01*
X140413281Y-90342882D01*
X140413280Y-90342884D01*
X140379540Y-90401324D01*
X140334223Y-90479815D01*
X140293299Y-90632543D01*
X140293299Y-90632545D01*
X140293299Y-90800646D01*
X140293300Y-90800659D01*
X140293300Y-94924234D01*
X140273615Y-94991273D01*
X140272402Y-94993125D01*
X140184409Y-95124814D01*
X140184402Y-95124827D01*
X140124064Y-95270498D01*
X140124061Y-95270510D01*
X140093300Y-95425153D01*
X140093300Y-95510702D01*
X140073615Y-95577741D01*
X140020811Y-95623496D01*
X139951653Y-95633440D01*
X139888097Y-95604415D01*
X139881619Y-95598383D01*
X139738517Y-95455281D01*
X139738512Y-95455277D01*
X139635966Y-95396073D01*
X139635965Y-95396072D01*
X139601590Y-95376225D01*
X139601589Y-95376224D01*
X139589063Y-95372867D01*
X139448857Y-95335299D01*
X139290743Y-95335299D01*
X139283147Y-95335299D01*
X139283131Y-95335300D01*
X138984366Y-95335300D01*
X138917327Y-95315615D01*
X138915475Y-95314402D01*
X138783785Y-95226409D01*
X138783772Y-95226402D01*
X138638101Y-95166064D01*
X138638089Y-95166061D01*
X138483445Y-95135300D01*
X138483442Y-95135300D01*
X138325758Y-95135300D01*
X138325755Y-95135300D01*
X138171110Y-95166061D01*
X138171098Y-95166064D01*
X138025427Y-95226402D01*
X138025414Y-95226409D01*
X137894311Y-95314010D01*
X137894307Y-95314013D01*
X137782813Y-95425507D01*
X137782810Y-95425511D01*
X137695209Y-95556614D01*
X137695202Y-95556627D01*
X137634864Y-95702298D01*
X137634861Y-95702310D01*
X137604100Y-95856953D01*
X137604100Y-96014646D01*
X137634861Y-96169289D01*
X137634864Y-96169301D01*
X137695202Y-96314972D01*
X137695209Y-96314985D01*
X137782810Y-96446088D01*
X137782813Y-96446092D01*
X137894307Y-96557586D01*
X137894311Y-96557589D01*
X138025414Y-96645190D01*
X138025427Y-96645197D01*
X138171098Y-96705535D01*
X138171103Y-96705537D01*
X138304161Y-96732004D01*
X138325753Y-96736299D01*
X138325756Y-96736300D01*
X138325758Y-96736300D01*
X138483444Y-96736300D01*
X138483445Y-96736299D01*
X138638097Y-96705537D01*
X138775059Y-96648806D01*
X138783772Y-96645197D01*
X138783772Y-96645196D01*
X138783779Y-96645194D01*
X138815185Y-96624209D01*
X138915475Y-96557198D01*
X138933521Y-96551547D01*
X138949431Y-96541323D01*
X138980392Y-96536871D01*
X138982153Y-96536320D01*
X138984366Y-96536300D01*
X139069703Y-96536300D01*
X139136742Y-96555985D01*
X139157384Y-96572619D01*
X139291781Y-96707016D01*
X139325266Y-96768339D01*
X139328100Y-96794697D01*
X139328100Y-98465330D01*
X139328099Y-98465348D01*
X139328099Y-98631054D01*
X139328098Y-98631054D01*
X139351657Y-98718974D01*
X139369023Y-98783785D01*
X139397960Y-98833904D01*
X139448080Y-98920716D01*
X139512240Y-98984876D01*
X139517534Y-98991938D01*
X139526799Y-99016728D01*
X139539482Y-99039956D01*
X139538839Y-99048945D01*
X139541994Y-99057387D01*
X139536385Y-99083248D01*
X139534498Y-99109648D01*
X139529096Y-99116863D01*
X139527187Y-99125669D01*
X139508486Y-99144394D01*
X139492626Y-99165581D01*
X139484183Y-99168729D01*
X139477815Y-99175107D01*
X139451956Y-99180749D01*
X139427162Y-99189998D01*
X139417070Y-99188362D01*
X139409551Y-99190004D01*
X139395948Y-99184940D01*
X139381041Y-99182525D01*
X139380524Y-99184231D01*
X139374700Y-99182464D01*
X139374697Y-99182463D01*
X139374692Y-99182462D01*
X139374689Y-99182461D01*
X139220045Y-99151700D01*
X139220042Y-99151700D01*
X139062358Y-99151700D01*
X139062355Y-99151700D01*
X138907710Y-99182461D01*
X138907698Y-99182464D01*
X138762027Y-99242802D01*
X138762014Y-99242809D01*
X138630911Y-99330410D01*
X138630907Y-99330413D01*
X138519413Y-99441907D01*
X138519410Y-99441911D01*
X138431809Y-99573014D01*
X138431802Y-99573027D01*
X138371464Y-99718698D01*
X138371461Y-99718710D01*
X138340700Y-99873353D01*
X138340700Y-100031046D01*
X138371461Y-100185689D01*
X138371464Y-100185701D01*
X138431802Y-100331372D01*
X138431809Y-100331385D01*
X138519802Y-100463074D01*
X138540680Y-100529751D01*
X138540700Y-100531965D01*
X138540700Y-106633903D01*
X138521015Y-106700942D01*
X138504381Y-106721584D01*
X134960939Y-110265025D01*
X134899616Y-110298510D01*
X134897450Y-110298961D01*
X134742108Y-110329861D01*
X134742098Y-110329864D01*
X134596427Y-110390202D01*
X134596414Y-110390209D01*
X134498991Y-110455306D01*
X134432313Y-110476184D01*
X134364933Y-110457699D01*
X134318243Y-110405721D01*
X134306100Y-110352204D01*
X134306100Y-106324750D01*
X134325785Y-106257711D01*
X134378589Y-106211956D01*
X134447747Y-106202012D01*
X134477549Y-106210188D01*
X134504188Y-106221222D01*
X134658838Y-106251984D01*
X134658841Y-106251985D01*
X134658843Y-106251985D01*
X134816529Y-106251985D01*
X134816530Y-106251984D01*
X134971182Y-106221222D01*
X135116864Y-106160879D01*
X135247974Y-106073274D01*
X135359474Y-105961774D01*
X135447079Y-105830664D01*
X135461824Y-105795063D01*
X135505664Y-105740660D01*
X135571958Y-105718594D01*
X135639657Y-105735872D01*
X135687269Y-105787008D01*
X135699676Y-105855767D01*
X135698004Y-105866701D01*
X135696522Y-105874150D01*
X135696522Y-106031846D01*
X135727283Y-106186489D01*
X135727286Y-106186501D01*
X135787624Y-106332172D01*
X135787631Y-106332185D01*
X135875232Y-106463288D01*
X135875235Y-106463292D01*
X135986729Y-106574786D01*
X135986733Y-106574789D01*
X136117836Y-106662390D01*
X136117849Y-106662397D01*
X136260741Y-106721584D01*
X136263525Y-106722737D01*
X136418175Y-106753499D01*
X136418178Y-106753500D01*
X136418180Y-106753500D01*
X136575866Y-106753500D01*
X136575867Y-106753499D01*
X136730519Y-106722737D01*
X136876201Y-106662394D01*
X137007311Y-106574789D01*
X137118811Y-106463289D01*
X137206416Y-106332179D01*
X137206415Y-106332179D01*
X137209801Y-106327113D01*
X137211305Y-106328118D01*
X137254285Y-106284344D01*
X137290516Y-106271010D01*
X137316401Y-106265861D01*
X137417943Y-106245663D01*
X137560774Y-106186501D01*
X137563618Y-106185323D01*
X137563618Y-106185322D01*
X137563625Y-106185320D01*
X137694735Y-106097715D01*
X137806235Y-105986215D01*
X137893840Y-105855105D01*
X137954183Y-105709423D01*
X137984946Y-105554768D01*
X137984946Y-105397084D01*
X137984946Y-105397081D01*
X137984945Y-105397079D01*
X137971186Y-105327910D01*
X137954183Y-105242429D01*
X137944057Y-105217983D01*
X137893843Y-105096753D01*
X137893836Y-105096740D01*
X137806235Y-104965637D01*
X137806232Y-104965633D01*
X137694738Y-104854139D01*
X137694734Y-104854136D01*
X137563631Y-104766535D01*
X137563618Y-104766528D01*
X137465897Y-104726052D01*
X137411493Y-104682212D01*
X137389428Y-104615918D01*
X137406707Y-104548218D01*
X137425665Y-104523812D01*
X137451589Y-104497889D01*
X137539194Y-104366779D01*
X137547014Y-104347901D01*
X137564126Y-104306588D01*
X137599537Y-104221097D01*
X137630300Y-104066442D01*
X137630300Y-103908758D01*
X137630300Y-103908755D01*
X137630299Y-103908753D01*
X137628378Y-103899096D01*
X137599537Y-103754103D01*
X137585571Y-103720386D01*
X137539197Y-103608427D01*
X137539190Y-103608414D01*
X137451589Y-103477311D01*
X137451586Y-103477307D01*
X137340092Y-103365813D01*
X137340088Y-103365810D01*
X137208985Y-103278209D01*
X137208972Y-103278202D01*
X137063301Y-103217864D01*
X137063291Y-103217861D01*
X136921053Y-103189568D01*
X136859142Y-103157183D01*
X136824568Y-103096467D01*
X136828308Y-103026698D01*
X136857560Y-102980275D01*
X137005520Y-102832316D01*
X137084577Y-102695384D01*
X137125501Y-102542657D01*
X137125501Y-102384542D01*
X137125501Y-102376947D01*
X137125500Y-102376929D01*
X137125500Y-101601117D01*
X137125501Y-101601104D01*
X137125501Y-101433001D01*
X137084576Y-101280271D01*
X137084573Y-101280266D01*
X137005524Y-101143347D01*
X137005518Y-101143339D01*
X135495112Y-99632933D01*
X135461627Y-99571610D01*
X135461176Y-99569443D01*
X135440265Y-99464320D01*
X135431733Y-99421427D01*
X135422003Y-99397937D01*
X135371393Y-99275751D01*
X135371386Y-99275738D01*
X135283785Y-99144635D01*
X135283782Y-99144631D01*
X135172288Y-99033137D01*
X135172284Y-99033134D01*
X135041181Y-98945533D01*
X135041168Y-98945526D01*
X134895497Y-98885188D01*
X134895485Y-98885185D01*
X134740841Y-98854424D01*
X134740838Y-98854424D01*
X134583154Y-98854424D01*
X134583151Y-98854424D01*
X134428506Y-98885185D01*
X134428494Y-98885188D01*
X134282823Y-98945526D01*
X134282810Y-98945533D01*
X134151707Y-99033134D01*
X134151703Y-99033137D01*
X134040209Y-99144631D01*
X134040206Y-99144635D01*
X133952605Y-99275738D01*
X133952598Y-99275751D01*
X133892260Y-99421422D01*
X133892257Y-99421434D01*
X133861496Y-99576077D01*
X133861496Y-99733770D01*
X133892257Y-99888413D01*
X133892260Y-99888425D01*
X133952598Y-100034096D01*
X133952605Y-100034109D01*
X133989731Y-100089671D01*
X134010609Y-100156348D01*
X134001190Y-100206014D01*
X133951864Y-100325098D01*
X133951861Y-100325110D01*
X133921100Y-100479753D01*
X133921100Y-100637446D01*
X133951861Y-100792089D01*
X133951864Y-100792101D01*
X134012202Y-100937772D01*
X134012209Y-100937785D01*
X134100202Y-101069474D01*
X134121080Y-101136151D01*
X134121100Y-101138365D01*
X134121100Y-101931359D01*
X134101415Y-101998398D01*
X134084781Y-102019040D01*
X133225081Y-102878739D01*
X133225079Y-102878741D01*
X133198548Y-102924695D01*
X133187334Y-102944120D01*
X133179032Y-102958500D01*
X133146023Y-103015671D01*
X133138180Y-103044943D01*
X133105099Y-103168400D01*
X133105099Y-103168402D01*
X133105099Y-103336503D01*
X133105100Y-103336516D01*
X133105100Y-106426059D01*
X133085415Y-106493098D01*
X133032611Y-106538853D01*
X132963453Y-106548797D01*
X132899897Y-106519772D01*
X132893419Y-106513740D01*
X132793492Y-106413813D01*
X132793488Y-106413810D01*
X132662385Y-106326209D01*
X132662372Y-106326202D01*
X132516701Y-106265864D01*
X132516689Y-106265861D01*
X132362045Y-106235100D01*
X132362042Y-106235100D01*
X132204358Y-106235100D01*
X132204355Y-106235100D01*
X132049710Y-106265861D01*
X132049698Y-106265864D01*
X131904027Y-106326202D01*
X131904014Y-106326209D01*
X131772911Y-106413810D01*
X131772907Y-106413813D01*
X131661413Y-106525307D01*
X131661410Y-106525311D01*
X131573809Y-106656414D01*
X131573802Y-106656427D01*
X131513464Y-106802098D01*
X131513461Y-106802110D01*
X131482700Y-106956753D01*
X130087082Y-106956753D01*
X132027120Y-105016716D01*
X132106177Y-104879784D01*
X132147101Y-104727057D01*
X132147101Y-104568942D01*
X132147101Y-104561347D01*
X132147100Y-104561329D01*
X132147100Y-95625353D01*
X133972215Y-95625353D01*
X133972215Y-95783046D01*
X134002976Y-95937689D01*
X134002979Y-95937701D01*
X134063317Y-96083372D01*
X134063324Y-96083385D01*
X134150925Y-96214488D01*
X134150928Y-96214492D01*
X134262422Y-96325986D01*
X134262426Y-96325989D01*
X134393529Y-96413590D01*
X134393542Y-96413597D01*
X134539213Y-96473935D01*
X134539218Y-96473937D01*
X134662724Y-96498504D01*
X134693868Y-96504699D01*
X134693871Y-96504700D01*
X134693873Y-96504700D01*
X134851559Y-96504700D01*
X134851560Y-96504699D01*
X135006212Y-96473937D01*
X135130803Y-96422330D01*
X135151887Y-96413597D01*
X135151887Y-96413596D01*
X135151894Y-96413594D01*
X135283004Y-96325989D01*
X135394504Y-96214489D01*
X135482109Y-96083379D01*
X135542452Y-95937697D01*
X135573215Y-95783042D01*
X135573215Y-95625358D01*
X135573215Y-95625355D01*
X135573214Y-95625353D01*
X135563743Y-95577741D01*
X135542452Y-95470703D01*
X135536064Y-95455280D01*
X135482112Y-95325027D01*
X135482105Y-95325014D01*
X135394504Y-95193911D01*
X135394501Y-95193907D01*
X135283007Y-95082413D01*
X135283003Y-95082410D01*
X135151900Y-94994809D01*
X135151887Y-94994802D01*
X135006216Y-94934464D01*
X135006204Y-94934461D01*
X134851560Y-94903700D01*
X134851557Y-94903700D01*
X134693873Y-94903700D01*
X134693870Y-94903700D01*
X134539225Y-94934461D01*
X134539213Y-94934464D01*
X134393542Y-94994802D01*
X134393529Y-94994809D01*
X134262426Y-95082410D01*
X134262422Y-95082413D01*
X134150928Y-95193907D01*
X134150925Y-95193911D01*
X134063324Y-95325014D01*
X134063317Y-95325027D01*
X134002979Y-95470698D01*
X134002976Y-95470710D01*
X133972215Y-95625353D01*
X132147100Y-95625353D01*
X132147100Y-93025353D01*
X135019948Y-93025353D01*
X135019948Y-93183046D01*
X135050709Y-93337689D01*
X135050712Y-93337701D01*
X135111050Y-93483372D01*
X135111057Y-93483385D01*
X135198658Y-93614488D01*
X135198661Y-93614492D01*
X135310155Y-93725986D01*
X135310159Y-93725989D01*
X135441262Y-93813590D01*
X135441275Y-93813597D01*
X135586946Y-93873935D01*
X135586951Y-93873937D01*
X135725554Y-93901507D01*
X135741601Y-93904699D01*
X135741604Y-93904700D01*
X135741606Y-93904700D01*
X135899292Y-93904700D01*
X135899293Y-93904699D01*
X136053945Y-93873937D01*
X136170210Y-93825779D01*
X136199620Y-93813597D01*
X136199620Y-93813596D01*
X136199627Y-93813594D01*
X136330737Y-93725989D01*
X136442237Y-93614489D01*
X136529842Y-93483379D01*
X136590185Y-93337697D01*
X136620948Y-93183042D01*
X136620948Y-93025358D01*
X136620948Y-93025355D01*
X136620947Y-93025353D01*
X136603235Y-92936311D01*
X136590185Y-92870703D01*
X136575129Y-92834355D01*
X136529845Y-92725027D01*
X136529838Y-92725014D01*
X136442237Y-92593911D01*
X136442234Y-92593907D01*
X136330740Y-92482413D01*
X136330736Y-92482410D01*
X136199633Y-92394809D01*
X136199620Y-92394802D01*
X136053949Y-92334464D01*
X136053937Y-92334461D01*
X135899293Y-92303700D01*
X135899290Y-92303700D01*
X135741606Y-92303700D01*
X135741603Y-92303700D01*
X135586958Y-92334461D01*
X135586946Y-92334464D01*
X135441275Y-92394802D01*
X135441262Y-92394809D01*
X135310159Y-92482410D01*
X135310155Y-92482413D01*
X135198661Y-92593907D01*
X135198658Y-92593911D01*
X135111057Y-92725014D01*
X135111050Y-92725027D01*
X135050712Y-92870698D01*
X135050709Y-92870710D01*
X135019948Y-93025353D01*
X132147100Y-93025353D01*
X132147100Y-90810353D01*
X134276700Y-90810353D01*
X134276700Y-90968046D01*
X134307461Y-91122689D01*
X134307464Y-91122701D01*
X134367802Y-91268372D01*
X134367809Y-91268385D01*
X134455410Y-91399488D01*
X134455413Y-91399492D01*
X134566907Y-91510986D01*
X134566911Y-91510989D01*
X134698014Y-91598590D01*
X134698027Y-91598597D01*
X134843698Y-91658935D01*
X134843703Y-91658937D01*
X134953545Y-91680786D01*
X134998353Y-91689699D01*
X134998356Y-91689700D01*
X134998358Y-91689700D01*
X135156044Y-91689700D01*
X135156045Y-91689699D01*
X135310697Y-91658937D01*
X135456379Y-91598594D01*
X135587489Y-91510989D01*
X135698989Y-91399489D01*
X135786594Y-91268379D01*
X135846937Y-91122697D01*
X135877700Y-90968042D01*
X135877700Y-90810358D01*
X135877700Y-90810355D01*
X135877699Y-90810353D01*
X135870042Y-90771861D01*
X135846937Y-90655703D01*
X135802620Y-90548711D01*
X135786597Y-90510027D01*
X135786590Y-90510014D01*
X135698989Y-90378911D01*
X135698986Y-90378907D01*
X135587492Y-90267413D01*
X135587488Y-90267410D01*
X135456385Y-90179809D01*
X135456372Y-90179802D01*
X135310701Y-90119464D01*
X135310689Y-90119461D01*
X135156045Y-90088700D01*
X135156042Y-90088700D01*
X134998358Y-90088700D01*
X134998355Y-90088700D01*
X134843710Y-90119461D01*
X134843698Y-90119464D01*
X134698027Y-90179802D01*
X134698014Y-90179809D01*
X134566911Y-90267410D01*
X134566907Y-90267413D01*
X134455413Y-90378907D01*
X134455410Y-90378911D01*
X134367809Y-90510014D01*
X134367802Y-90510027D01*
X134307464Y-90655698D01*
X134307461Y-90655710D01*
X134276700Y-90810353D01*
X132147100Y-90810353D01*
X132147100Y-88236953D01*
X135597500Y-88236953D01*
X135597500Y-88394646D01*
X135628261Y-88549289D01*
X135628264Y-88549301D01*
X135688602Y-88694972D01*
X135688609Y-88694985D01*
X135776210Y-88826088D01*
X135776213Y-88826092D01*
X135887707Y-88937586D01*
X135887711Y-88937589D01*
X136018814Y-89025190D01*
X136018827Y-89025197D01*
X136164498Y-89085535D01*
X136164503Y-89085537D01*
X136319153Y-89116299D01*
X136319156Y-89116300D01*
X136319158Y-89116300D01*
X136476844Y-89116300D01*
X136476845Y-89116299D01*
X136631497Y-89085537D01*
X136777179Y-89025194D01*
X136908289Y-88937589D01*
X137019789Y-88826089D01*
X137107394Y-88694979D01*
X137167737Y-88549297D01*
X137198500Y-88394642D01*
X137198500Y-88236958D01*
X137198500Y-88236955D01*
X137198499Y-88236953D01*
X137167738Y-88082310D01*
X137167737Y-88082303D01*
X137167735Y-88082298D01*
X137107397Y-87936627D01*
X137107390Y-87936614D01*
X137045227Y-87843581D01*
X137024349Y-87776904D01*
X137042833Y-87709523D01*
X137094812Y-87662833D01*
X137100856Y-87660137D01*
X137158179Y-87636394D01*
X137289289Y-87548789D01*
X137400789Y-87437289D01*
X137488394Y-87306179D01*
X137548737Y-87160497D01*
X137579500Y-87005842D01*
X137579500Y-86848158D01*
X137579500Y-86848155D01*
X137579499Y-86848153D01*
X137548737Y-86693503D01*
X137535011Y-86660365D01*
X137488397Y-86547827D01*
X137488390Y-86547814D01*
X137400789Y-86416711D01*
X137400786Y-86416707D01*
X137289292Y-86305213D01*
X137289288Y-86305210D01*
X137158185Y-86217609D01*
X137158172Y-86217602D01*
X137012501Y-86157264D01*
X137012489Y-86157261D01*
X136857845Y-86126500D01*
X136857842Y-86126500D01*
X136700158Y-86126500D01*
X136700155Y-86126500D01*
X136545510Y-86157261D01*
X136545498Y-86157264D01*
X136399827Y-86217602D01*
X136399814Y-86217609D01*
X136268711Y-86305210D01*
X136268707Y-86305213D01*
X136157213Y-86416707D01*
X136157210Y-86416711D01*
X136069609Y-86547814D01*
X136069602Y-86547827D01*
X136009264Y-86693498D01*
X136009261Y-86693510D01*
X135978500Y-86848153D01*
X135978500Y-87005846D01*
X136009261Y-87160489D01*
X136009264Y-87160501D01*
X136069602Y-87306172D01*
X136069609Y-87306185D01*
X136131772Y-87399218D01*
X136152650Y-87465896D01*
X136134165Y-87533276D01*
X136082187Y-87579966D01*
X136076124Y-87582670D01*
X136018820Y-87606406D01*
X136018814Y-87606409D01*
X135887711Y-87694010D01*
X135887707Y-87694013D01*
X135776213Y-87805507D01*
X135776210Y-87805511D01*
X135688609Y-87936614D01*
X135688602Y-87936627D01*
X135628264Y-88082298D01*
X135628261Y-88082310D01*
X135597500Y-88236953D01*
X132147100Y-88236953D01*
X132147100Y-85745965D01*
X132166785Y-85678926D01*
X132167998Y-85677074D01*
X132255990Y-85545385D01*
X132255990Y-85545384D01*
X132255994Y-85545379D01*
X132316337Y-85399697D01*
X132332994Y-85315958D01*
X132332995Y-85315953D01*
X134581500Y-85315953D01*
X134581500Y-85473646D01*
X134612261Y-85628289D01*
X134612264Y-85628301D01*
X134672602Y-85773972D01*
X134672609Y-85773985D01*
X134760210Y-85905088D01*
X134760213Y-85905092D01*
X134871707Y-86016586D01*
X134871711Y-86016589D01*
X135002814Y-86104190D01*
X135002827Y-86104197D01*
X135125406Y-86154970D01*
X135148503Y-86164537D01*
X135303153Y-86195299D01*
X135303156Y-86195300D01*
X135303158Y-86195300D01*
X135460844Y-86195300D01*
X135460845Y-86195299D01*
X135615497Y-86164537D01*
X135761179Y-86104194D01*
X135892289Y-86016589D01*
X136003789Y-85905089D01*
X136091394Y-85773979D01*
X136151737Y-85628297D01*
X136182500Y-85473642D01*
X136182500Y-85315958D01*
X136182500Y-85315955D01*
X136182499Y-85315953D01*
X136173283Y-85269621D01*
X136151737Y-85161303D01*
X136142295Y-85138507D01*
X136091397Y-85015627D01*
X136091390Y-85015614D01*
X136003789Y-84884511D01*
X136003786Y-84884507D01*
X135892292Y-84773013D01*
X135892288Y-84773010D01*
X135761185Y-84685409D01*
X135761172Y-84685402D01*
X135615501Y-84625064D01*
X135615489Y-84625061D01*
X135460845Y-84594300D01*
X135460842Y-84594300D01*
X135303158Y-84594300D01*
X135303155Y-84594300D01*
X135148510Y-84625061D01*
X135148498Y-84625064D01*
X135002827Y-84685402D01*
X135002814Y-84685409D01*
X134871711Y-84773010D01*
X134871707Y-84773013D01*
X134760213Y-84884507D01*
X134760210Y-84884511D01*
X134672609Y-85015614D01*
X134672602Y-85015627D01*
X134612264Y-85161298D01*
X134612261Y-85161310D01*
X134581500Y-85315953D01*
X132332995Y-85315953D01*
X132339018Y-85285675D01*
X132339018Y-85285674D01*
X132347100Y-85245044D01*
X132347100Y-85087355D01*
X132347099Y-85087353D01*
X132339354Y-85048415D01*
X132316337Y-84932703D01*
X132316335Y-84932698D01*
X132255997Y-84787027D01*
X132255990Y-84787014D01*
X132168389Y-84655911D01*
X132168386Y-84655907D01*
X132056892Y-84544413D01*
X132056888Y-84544410D01*
X131925785Y-84456809D01*
X131925772Y-84456802D01*
X131780101Y-84396464D01*
X131780089Y-84396461D01*
X131625445Y-84365700D01*
X131625442Y-84365700D01*
X131467758Y-84365700D01*
X131467755Y-84365700D01*
X131313110Y-84396461D01*
X131313098Y-84396464D01*
X131167427Y-84456802D01*
X131167414Y-84456809D01*
X131036311Y-84544410D01*
X131036307Y-84544413D01*
X130924813Y-84655907D01*
X130924810Y-84655911D01*
X130837209Y-84787014D01*
X130837202Y-84787027D01*
X130776864Y-84932698D01*
X130776861Y-84932710D01*
X130746100Y-85087353D01*
X130746100Y-85245046D01*
X130776861Y-85399689D01*
X130776864Y-85399701D01*
X130837202Y-85545372D01*
X130837209Y-85545385D01*
X130925202Y-85677074D01*
X130946080Y-85743751D01*
X130946100Y-85745965D01*
X130946100Y-93454049D01*
X130926415Y-93521088D01*
X130873611Y-93566843D01*
X130804453Y-93576787D01*
X130740897Y-93547762D01*
X130709682Y-93504474D01*
X130709464Y-93504591D01*
X130708597Y-93502970D01*
X130707539Y-93501502D01*
X130706595Y-93499223D01*
X130706590Y-93499214D01*
X130618989Y-93368111D01*
X130618986Y-93368107D01*
X130507492Y-93256613D01*
X130507488Y-93256610D01*
X130472209Y-93233037D01*
X130427404Y-93179424D01*
X130418697Y-93110099D01*
X130419483Y-93105743D01*
X130421961Y-93093289D01*
X130434600Y-93029748D01*
X130442100Y-92992044D01*
X130442100Y-92834355D01*
X130442099Y-92834353D01*
X130429285Y-92769935D01*
X130411337Y-92679703D01*
X130406048Y-92666935D01*
X130350997Y-92534027D01*
X130350990Y-92534014D01*
X130263389Y-92402911D01*
X130263386Y-92402907D01*
X130151892Y-92291413D01*
X130151888Y-92291410D01*
X130020785Y-92203809D01*
X130020772Y-92203802D01*
X129875101Y-92143464D01*
X129875089Y-92143461D01*
X129720445Y-92112700D01*
X129720442Y-92112700D01*
X129562758Y-92112700D01*
X129562755Y-92112700D01*
X129408110Y-92143461D01*
X129408098Y-92143464D01*
X129262427Y-92203802D01*
X129262414Y-92203809D01*
X129131311Y-92291410D01*
X129131307Y-92291413D01*
X129019813Y-92402907D01*
X129019810Y-92402911D01*
X128932209Y-92534014D01*
X128932202Y-92534027D01*
X128871864Y-92679698D01*
X128871861Y-92679710D01*
X128841100Y-92834353D01*
X128841100Y-92992046D01*
X128871861Y-93146689D01*
X128871864Y-93146701D01*
X128932202Y-93292372D01*
X128932209Y-93292385D01*
X129019810Y-93423488D01*
X129019813Y-93423492D01*
X129131307Y-93534986D01*
X129131311Y-93534989D01*
X129166590Y-93558562D01*
X129211395Y-93612174D01*
X129220102Y-93681499D01*
X129219316Y-93685855D01*
X129196700Y-93799553D01*
X129196700Y-93957246D01*
X129227461Y-94111889D01*
X129227464Y-94111901D01*
X129287802Y-94257572D01*
X129287809Y-94257585D01*
X129375410Y-94388688D01*
X129375413Y-94388692D01*
X129486907Y-94500186D01*
X129486911Y-94500189D01*
X129618014Y-94587790D01*
X129618027Y-94587797D01*
X129756856Y-94645301D01*
X129763703Y-94648137D01*
X129918353Y-94678899D01*
X129918356Y-94678900D01*
X129918358Y-94678900D01*
X130076044Y-94678900D01*
X130076045Y-94678899D01*
X130230697Y-94648137D01*
X130376379Y-94587794D01*
X130507489Y-94500189D01*
X130618989Y-94388689D01*
X130706594Y-94257579D01*
X130707537Y-94255303D01*
X130708348Y-94254295D01*
X130709464Y-94252209D01*
X130709859Y-94252420D01*
X130751375Y-94200897D01*
X130817668Y-94178829D01*
X130885369Y-94196105D01*
X130932981Y-94247240D01*
X130946100Y-94302750D01*
X130946100Y-104347901D01*
X130926415Y-104414940D01*
X130909781Y-104435582D01*
X130705062Y-104640300D01*
X130643739Y-104673785D01*
X130574047Y-104668801D01*
X130518114Y-104626929D01*
X130502820Y-104600073D01*
X130481747Y-104549196D01*
X130481743Y-104549189D01*
X130394142Y-104418086D01*
X130394139Y-104418082D01*
X130282645Y-104306588D01*
X130282641Y-104306585D01*
X130151538Y-104218984D01*
X130151525Y-104218977D01*
X130005854Y-104158639D01*
X130005842Y-104158636D01*
X129851198Y-104127875D01*
X129851195Y-104127875D01*
X129693511Y-104127875D01*
X129693508Y-104127875D01*
X129538863Y-104158636D01*
X129538851Y-104158639D01*
X129393180Y-104218977D01*
X129393167Y-104218984D01*
X129262064Y-104306585D01*
X129262060Y-104306588D01*
X129150566Y-104418082D01*
X129150563Y-104418086D01*
X129062962Y-104549189D01*
X129062955Y-104549202D01*
X129002617Y-104694873D01*
X129002614Y-104694885D01*
X128971853Y-104849528D01*
X128971853Y-105007221D01*
X129002614Y-105161864D01*
X129002617Y-105161876D01*
X129062955Y-105307547D01*
X129062962Y-105307560D01*
X129150563Y-105438663D01*
X129150566Y-105438667D01*
X129262060Y-105550161D01*
X129262064Y-105550164D01*
X129393167Y-105637765D01*
X129393174Y-105637769D01*
X129444051Y-105658842D01*
X129498453Y-105702681D01*
X129520519Y-105768975D01*
X129503241Y-105836675D01*
X129484279Y-105861084D01*
X126609784Y-108735581D01*
X126548461Y-108769066D01*
X126522103Y-108771900D01*
X126131966Y-108771900D01*
X126064927Y-108752215D01*
X126063075Y-108751002D01*
X125931385Y-108663009D01*
X125931372Y-108663002D01*
X125785701Y-108602664D01*
X125785689Y-108602661D01*
X125631045Y-108571900D01*
X125631042Y-108571900D01*
X125473358Y-108571900D01*
X125473355Y-108571900D01*
X125318710Y-108602661D01*
X125318698Y-108602664D01*
X125173027Y-108663002D01*
X125173014Y-108663009D01*
X125041911Y-108750610D01*
X125041907Y-108750613D01*
X124930413Y-108862107D01*
X124930410Y-108862111D01*
X124842809Y-108993214D01*
X124842802Y-108993227D01*
X124782464Y-109138898D01*
X124782461Y-109138910D01*
X124751700Y-109293553D01*
X122364899Y-109293553D01*
X122351241Y-109224889D01*
X122334137Y-109138903D01*
X122332960Y-109136061D01*
X122273797Y-108993227D01*
X122273790Y-108993214D01*
X122186189Y-108862111D01*
X122186186Y-108862107D01*
X122074692Y-108750613D01*
X122074688Y-108750610D01*
X121943585Y-108663009D01*
X121943572Y-108663002D01*
X121797901Y-108602664D01*
X121797889Y-108602661D01*
X121643245Y-108571900D01*
X121643242Y-108571900D01*
X121485558Y-108571900D01*
X121485555Y-108571900D01*
X121330910Y-108602661D01*
X121330898Y-108602664D01*
X121185227Y-108663002D01*
X121185214Y-108663009D01*
X121054111Y-108750610D01*
X121054107Y-108750613D01*
X120942613Y-108862107D01*
X120942610Y-108862111D01*
X120855009Y-108993214D01*
X120855002Y-108993227D01*
X120794664Y-109138898D01*
X120794661Y-109138910D01*
X120763900Y-109293553D01*
X120159900Y-109293553D01*
X120159900Y-96493468D01*
X127344015Y-96493468D01*
X127344015Y-96651161D01*
X127374776Y-96805804D01*
X127374779Y-96805816D01*
X127435117Y-96951487D01*
X127435124Y-96951500D01*
X127522725Y-97082603D01*
X127522728Y-97082607D01*
X127634222Y-97194101D01*
X127634226Y-97194104D01*
X127765329Y-97281705D01*
X127765342Y-97281712D01*
X127892573Y-97334412D01*
X127911018Y-97342052D01*
X128065668Y-97372814D01*
X128065671Y-97372815D01*
X128065673Y-97372815D01*
X128223359Y-97372815D01*
X128223360Y-97372814D01*
X128378012Y-97342052D01*
X128523694Y-97281709D01*
X128556031Y-97260102D01*
X128648209Y-97198511D01*
X128714886Y-97177633D01*
X128782267Y-97196117D01*
X128828957Y-97248096D01*
X128841100Y-97301613D01*
X128841100Y-97437046D01*
X128871861Y-97591689D01*
X128871864Y-97591701D01*
X128932202Y-97737372D01*
X128932212Y-97737390D01*
X128977684Y-97805444D01*
X128998562Y-97872121D01*
X128980077Y-97939501D01*
X128943474Y-97977435D01*
X128900113Y-98006408D01*
X128900107Y-98006413D01*
X128788613Y-98117907D01*
X128788610Y-98117911D01*
X128701009Y-98249014D01*
X128701002Y-98249027D01*
X128640664Y-98394698D01*
X128640661Y-98394710D01*
X128609900Y-98549353D01*
X128609900Y-98707046D01*
X128640661Y-98861689D01*
X128640664Y-98861701D01*
X128701002Y-99007372D01*
X128701009Y-99007385D01*
X128788610Y-99138488D01*
X128788613Y-99138492D01*
X128900107Y-99249986D01*
X128900111Y-99249989D01*
X129031214Y-99337590D01*
X129031227Y-99337597D01*
X129176898Y-99397935D01*
X129176903Y-99397937D01*
X129295030Y-99421434D01*
X129331553Y-99428699D01*
X129331556Y-99428700D01*
X129331558Y-99428700D01*
X129489244Y-99428700D01*
X129489245Y-99428699D01*
X129643897Y-99397937D01*
X129789579Y-99337594D01*
X129920689Y-99249989D01*
X130032189Y-99138489D01*
X130119794Y-99007379D01*
X130128466Y-98986444D01*
X130180135Y-98861701D01*
X130180137Y-98861697D01*
X130210900Y-98707042D01*
X130210900Y-98549358D01*
X130210900Y-98549355D01*
X130210899Y-98549353D01*
X130208797Y-98538786D01*
X130180137Y-98394703D01*
X130180135Y-98394698D01*
X130119797Y-98249027D01*
X130119790Y-98249014D01*
X130074315Y-98180956D01*
X130053437Y-98114278D01*
X130071922Y-98046898D01*
X130108525Y-98008963D01*
X130151889Y-97979989D01*
X130263389Y-97868489D01*
X130350994Y-97737379D01*
X130411337Y-97591697D01*
X130442100Y-97437042D01*
X130442100Y-97279358D01*
X130442100Y-97279355D01*
X130442099Y-97279353D01*
X130438270Y-97260102D01*
X130411337Y-97124703D01*
X130410709Y-97123187D01*
X130350997Y-96979027D01*
X130350990Y-96979014D01*
X130263389Y-96847911D01*
X130263386Y-96847907D01*
X130151892Y-96736413D01*
X130151888Y-96736410D01*
X130020785Y-96648809D01*
X130020772Y-96648802D01*
X129875101Y-96588464D01*
X129875089Y-96588461D01*
X129720445Y-96557700D01*
X129720442Y-96557700D01*
X129562758Y-96557700D01*
X129562755Y-96557700D01*
X129408110Y-96588461D01*
X129408098Y-96588464D01*
X129262427Y-96648802D01*
X129262414Y-96648809D01*
X129137906Y-96732004D01*
X129071229Y-96752882D01*
X129003848Y-96734398D01*
X128957158Y-96682419D01*
X128945015Y-96628902D01*
X128945015Y-96493470D01*
X128945014Y-96493468D01*
X128935234Y-96444302D01*
X128914252Y-96338818D01*
X128911479Y-96332123D01*
X128853912Y-96193142D01*
X128853905Y-96193129D01*
X128766304Y-96062026D01*
X128766301Y-96062022D01*
X128654807Y-95950528D01*
X128654803Y-95950525D01*
X128523700Y-95862924D01*
X128523687Y-95862917D01*
X128378016Y-95802579D01*
X128378004Y-95802576D01*
X128223360Y-95771815D01*
X128223357Y-95771815D01*
X128065673Y-95771815D01*
X128065670Y-95771815D01*
X127911025Y-95802576D01*
X127911013Y-95802579D01*
X127765342Y-95862917D01*
X127765329Y-95862924D01*
X127634226Y-95950525D01*
X127634222Y-95950528D01*
X127522728Y-96062022D01*
X127522725Y-96062026D01*
X127435124Y-96193129D01*
X127435117Y-96193142D01*
X127374779Y-96338813D01*
X127374776Y-96338825D01*
X127344015Y-96493468D01*
X120159900Y-96493468D01*
X120159900Y-91818353D01*
X124929500Y-91818353D01*
X124929500Y-91976046D01*
X124960261Y-92130689D01*
X124960264Y-92130701D01*
X125020602Y-92276372D01*
X125020609Y-92276385D01*
X125108210Y-92407488D01*
X125108213Y-92407492D01*
X125219707Y-92518986D01*
X125219711Y-92518989D01*
X125350814Y-92606590D01*
X125350827Y-92606597D01*
X125484202Y-92661842D01*
X125496503Y-92666937D01*
X125651153Y-92697699D01*
X125651156Y-92697700D01*
X125651158Y-92697700D01*
X125808844Y-92697700D01*
X125808845Y-92697699D01*
X125963497Y-92666937D01*
X126109179Y-92606594D01*
X126240289Y-92518989D01*
X126351789Y-92407489D01*
X126439394Y-92276379D01*
X126449908Y-92250997D01*
X126469456Y-92203802D01*
X126499737Y-92130697D01*
X126530500Y-91976042D01*
X126530500Y-91818358D01*
X126530500Y-91818355D01*
X126530499Y-91818353D01*
X126523367Y-91782500D01*
X126499737Y-91663703D01*
X126479977Y-91615997D01*
X126439397Y-91518027D01*
X126439390Y-91518014D01*
X126351789Y-91386911D01*
X126351786Y-91386907D01*
X126240292Y-91275413D01*
X126240288Y-91275410D01*
X126109185Y-91187809D01*
X126109172Y-91187802D01*
X125963501Y-91127464D01*
X125963491Y-91127461D01*
X125808845Y-91096700D01*
X125808842Y-91096700D01*
X125651158Y-91096700D01*
X125651155Y-91096700D01*
X125496510Y-91127461D01*
X125496498Y-91127464D01*
X125350827Y-91187802D01*
X125350814Y-91187809D01*
X125219711Y-91275410D01*
X125219707Y-91275413D01*
X125108213Y-91386907D01*
X125108210Y-91386911D01*
X125020609Y-91518014D01*
X125020602Y-91518027D01*
X124960264Y-91663698D01*
X124960261Y-91663710D01*
X124929500Y-91818353D01*
X120159900Y-91818353D01*
X120159900Y-90980153D01*
X127799700Y-90980153D01*
X127799700Y-91137846D01*
X127830461Y-91292489D01*
X127830464Y-91292501D01*
X127890802Y-91438172D01*
X127890809Y-91438185D01*
X127978410Y-91569288D01*
X127978413Y-91569292D01*
X128089907Y-91680786D01*
X128089911Y-91680789D01*
X128221014Y-91768390D01*
X128221027Y-91768397D01*
X128366698Y-91828735D01*
X128366703Y-91828737D01*
X128521353Y-91859499D01*
X128521356Y-91859500D01*
X128521358Y-91859500D01*
X128679044Y-91859500D01*
X128679045Y-91859499D01*
X128833697Y-91828737D01*
X128963187Y-91775101D01*
X128979372Y-91768397D01*
X128979372Y-91768396D01*
X128979379Y-91768394D01*
X129110489Y-91680789D01*
X129221989Y-91569289D01*
X129309594Y-91438179D01*
X129369937Y-91292497D01*
X129400700Y-91137842D01*
X129400700Y-90980158D01*
X129400700Y-90980155D01*
X129400699Y-90980153D01*
X129389532Y-90924015D01*
X129369937Y-90825503D01*
X129363662Y-90810353D01*
X129309597Y-90679827D01*
X129309590Y-90679814D01*
X129221989Y-90548711D01*
X129221986Y-90548707D01*
X129110492Y-90437213D01*
X129110488Y-90437210D01*
X128979385Y-90349609D01*
X128979372Y-90349602D01*
X128833701Y-90289264D01*
X128833689Y-90289261D01*
X128679045Y-90258500D01*
X128679042Y-90258500D01*
X128521358Y-90258500D01*
X128521355Y-90258500D01*
X128366710Y-90289261D01*
X128366698Y-90289264D01*
X128221027Y-90349602D01*
X128221014Y-90349609D01*
X128089911Y-90437210D01*
X128089907Y-90437213D01*
X127978413Y-90548707D01*
X127978410Y-90548711D01*
X127890809Y-90679814D01*
X127890802Y-90679827D01*
X127830464Y-90825498D01*
X127830461Y-90825510D01*
X127799700Y-90980153D01*
X120159900Y-90980153D01*
X120159900Y-83040567D01*
X122408900Y-83040567D01*
X122408900Y-83321430D01*
X122440342Y-83600493D01*
X122440345Y-83600511D01*
X122502839Y-83874316D01*
X122502843Y-83874328D01*
X122595600Y-84139410D01*
X122717453Y-84392441D01*
X122717455Y-84392444D01*
X122866877Y-84630247D01*
X122931789Y-84711644D01*
X123040768Y-84848300D01*
X123041984Y-84849824D01*
X123240575Y-85048415D01*
X123460152Y-85223522D01*
X123697955Y-85372944D01*
X123950992Y-85494800D01*
X124095556Y-85545385D01*
X124216070Y-85587555D01*
X124216082Y-85587559D01*
X124489891Y-85650054D01*
X124489897Y-85650054D01*
X124489905Y-85650056D01*
X124675947Y-85671017D01*
X124768969Y-85681498D01*
X124768972Y-85681499D01*
X124768975Y-85681499D01*
X125049828Y-85681499D01*
X125049829Y-85681498D01*
X125192455Y-85665428D01*
X125328894Y-85650056D01*
X125328899Y-85650055D01*
X125328909Y-85650054D01*
X125602718Y-85587559D01*
X125867808Y-85494800D01*
X126120845Y-85372944D01*
X126358648Y-85223522D01*
X126578225Y-85048415D01*
X126776816Y-84849824D01*
X126951923Y-84630247D01*
X126999862Y-84553953D01*
X127672700Y-84553953D01*
X127672700Y-84711646D01*
X127703461Y-84866289D01*
X127703464Y-84866301D01*
X127763802Y-85011972D01*
X127763809Y-85011985D01*
X127851410Y-85143088D01*
X127851413Y-85143092D01*
X127962907Y-85254586D01*
X127962911Y-85254589D01*
X128094014Y-85342190D01*
X128094027Y-85342197D01*
X128232856Y-85399701D01*
X128239703Y-85402537D01*
X128394353Y-85433299D01*
X128394356Y-85433300D01*
X128394358Y-85433300D01*
X128552044Y-85433300D01*
X128552045Y-85433299D01*
X128706697Y-85402537D01*
X128852379Y-85342194D01*
X128983489Y-85254589D01*
X129094989Y-85143089D01*
X129182594Y-85011979D01*
X129242937Y-84866297D01*
X129273700Y-84711642D01*
X129273700Y-84553958D01*
X129273700Y-84553955D01*
X129273699Y-84553953D01*
X129267970Y-84525152D01*
X129242937Y-84399303D01*
X129196130Y-84286299D01*
X129182597Y-84253627D01*
X129182590Y-84253614D01*
X129094989Y-84122511D01*
X129094986Y-84122507D01*
X128983492Y-84011013D01*
X128983488Y-84011010D01*
X128852385Y-83923409D01*
X128852372Y-83923402D01*
X128706701Y-83863064D01*
X128706689Y-83863061D01*
X128552045Y-83832300D01*
X128552042Y-83832300D01*
X128394358Y-83832300D01*
X128394355Y-83832300D01*
X128239710Y-83863061D01*
X128239698Y-83863064D01*
X128094027Y-83923402D01*
X128094014Y-83923409D01*
X127962911Y-84011010D01*
X127962907Y-84011013D01*
X127851413Y-84122507D01*
X127851410Y-84122511D01*
X127763809Y-84253614D01*
X127763802Y-84253627D01*
X127703464Y-84399298D01*
X127703461Y-84399310D01*
X127672700Y-84553953D01*
X126999862Y-84553953D01*
X127101345Y-84392444D01*
X127223201Y-84139407D01*
X127315960Y-83874317D01*
X127378455Y-83600508D01*
X127409900Y-83321424D01*
X127409900Y-83040574D01*
X127409899Y-83040567D01*
X152908900Y-83040567D01*
X152908900Y-83321430D01*
X152940342Y-83600493D01*
X152940345Y-83600511D01*
X153002839Y-83874316D01*
X153002843Y-83874328D01*
X153095600Y-84139410D01*
X153217453Y-84392441D01*
X153217455Y-84392444D01*
X153366877Y-84630247D01*
X153431789Y-84711644D01*
X153540768Y-84848300D01*
X153541984Y-84849824D01*
X153740575Y-85048415D01*
X153960152Y-85223522D01*
X154197955Y-85372944D01*
X154450992Y-85494800D01*
X154595556Y-85545385D01*
X154716070Y-85587555D01*
X154716082Y-85587559D01*
X154989891Y-85650054D01*
X154989897Y-85650054D01*
X154989905Y-85650056D01*
X155175947Y-85671017D01*
X155268969Y-85681498D01*
X155268972Y-85681499D01*
X155268975Y-85681499D01*
X155549828Y-85681499D01*
X155549829Y-85681498D01*
X155692455Y-85665428D01*
X155828894Y-85650056D01*
X155828899Y-85650055D01*
X155828909Y-85650054D01*
X156102718Y-85587559D01*
X156367808Y-85494800D01*
X156620845Y-85372944D01*
X156858648Y-85223522D01*
X157078225Y-85048415D01*
X157276816Y-84849824D01*
X157451923Y-84630247D01*
X157601345Y-84392444D01*
X157723201Y-84139407D01*
X157815960Y-83874317D01*
X157878455Y-83600508D01*
X157909900Y-83321424D01*
X157909900Y-83040574D01*
X157878455Y-82761490D01*
X157815960Y-82487681D01*
X157723201Y-82222591D01*
X157601345Y-81969554D01*
X157451923Y-81731751D01*
X157276816Y-81512174D01*
X157078225Y-81313583D01*
X156858648Y-81138476D01*
X156620845Y-80989054D01*
X156620842Y-80989052D01*
X156367811Y-80867199D01*
X156102729Y-80774442D01*
X156102717Y-80774438D01*
X155828912Y-80711944D01*
X155828894Y-80711941D01*
X155549831Y-80680499D01*
X155549825Y-80680499D01*
X155268975Y-80680499D01*
X155268968Y-80680499D01*
X154989905Y-80711941D01*
X154989887Y-80711944D01*
X154716082Y-80774438D01*
X154716070Y-80774442D01*
X154450988Y-80867199D01*
X154197957Y-80989052D01*
X153960153Y-81138475D01*
X153740575Y-81313582D01*
X153541983Y-81512174D01*
X153366876Y-81731752D01*
X153217453Y-81969556D01*
X153095600Y-82222587D01*
X153002843Y-82487669D01*
X153002839Y-82487681D01*
X152940345Y-82761486D01*
X152940342Y-82761504D01*
X152908900Y-83040567D01*
X127409899Y-83040567D01*
X127378455Y-82761490D01*
X127315960Y-82487681D01*
X127223201Y-82222591D01*
X127101345Y-81969554D01*
X126951923Y-81731751D01*
X126776816Y-81512174D01*
X126578225Y-81313583D01*
X126358648Y-81138476D01*
X126120845Y-80989054D01*
X126120842Y-80989052D01*
X125867811Y-80867199D01*
X125602729Y-80774442D01*
X125602717Y-80774438D01*
X125415716Y-80731757D01*
X125328912Y-80711944D01*
X125328894Y-80711941D01*
X125049831Y-80680499D01*
X125049825Y-80680499D01*
X124768975Y-80680499D01*
X124768968Y-80680499D01*
X124489905Y-80711941D01*
X124489887Y-80711944D01*
X124216082Y-80774438D01*
X124216070Y-80774442D01*
X123950988Y-80867199D01*
X123697957Y-80989052D01*
X123460153Y-81138475D01*
X123240575Y-81313582D01*
X123041983Y-81512174D01*
X122866876Y-81731752D01*
X122717453Y-81969556D01*
X122595600Y-82222587D01*
X122502843Y-82487669D01*
X122502839Y-82487681D01*
X122440345Y-82761486D01*
X122440342Y-82761504D01*
X122408900Y-83040567D01*
X120159900Y-83040567D01*
X120159900Y-82933705D01*
X120160018Y-82928296D01*
X120167301Y-82761486D01*
X120176787Y-82544224D01*
X120177725Y-82533496D01*
X120227551Y-82155032D01*
X120229424Y-82144402D01*
X120312048Y-81771714D01*
X120314846Y-81761276D01*
X120324155Y-81731752D01*
X120429629Y-81397228D01*
X120433317Y-81387096D01*
X120579403Y-81034412D01*
X120583961Y-81024638D01*
X120760222Y-80686045D01*
X120765617Y-80676700D01*
X120803680Y-80616953D01*
X148068900Y-80616953D01*
X148068900Y-80774646D01*
X148099661Y-80929289D01*
X148099664Y-80929301D01*
X148160002Y-81074972D01*
X148160009Y-81074985D01*
X148247610Y-81206088D01*
X148247613Y-81206092D01*
X148359107Y-81317586D01*
X148359111Y-81317589D01*
X148490214Y-81405190D01*
X148490227Y-81405197D01*
X148635898Y-81465535D01*
X148635903Y-81465537D01*
X148790553Y-81496299D01*
X148790556Y-81496300D01*
X148790558Y-81496300D01*
X148948244Y-81496300D01*
X148948245Y-81496299D01*
X149102897Y-81465537D01*
X149248579Y-81405194D01*
X149379689Y-81317589D01*
X149491189Y-81206089D01*
X149578794Y-81074979D01*
X149639137Y-80929297D01*
X149669900Y-80774642D01*
X149669900Y-80616958D01*
X149669900Y-80616955D01*
X149669899Y-80616953D01*
X149649248Y-80513134D01*
X149639137Y-80462303D01*
X149639135Y-80462298D01*
X149578797Y-80316627D01*
X149578790Y-80316614D01*
X149491189Y-80185511D01*
X149491186Y-80185507D01*
X149379692Y-80074013D01*
X149379688Y-80074010D01*
X149248585Y-79986409D01*
X149248572Y-79986402D01*
X149102901Y-79926064D01*
X149102889Y-79926061D01*
X148948245Y-79895300D01*
X148948242Y-79895300D01*
X148790558Y-79895300D01*
X148790555Y-79895300D01*
X148635910Y-79926061D01*
X148635898Y-79926064D01*
X148490227Y-79986402D01*
X148490214Y-79986409D01*
X148359111Y-80074010D01*
X148359107Y-80074013D01*
X148247613Y-80185507D01*
X148247610Y-80185511D01*
X148160009Y-80316614D01*
X148160002Y-80316627D01*
X148099664Y-80462298D01*
X148099661Y-80462310D01*
X148068900Y-80616953D01*
X120803680Y-80616953D01*
X120970725Y-80354744D01*
X120976918Y-80345901D01*
X121209296Y-80043060D01*
X121216234Y-80034791D01*
X121474126Y-79753352D01*
X121481752Y-79745726D01*
X121763191Y-79487834D01*
X121771460Y-79480896D01*
X122074309Y-79248511D01*
X122083158Y-79242317D01*
X122405102Y-79037215D01*
X122414423Y-79031833D01*
X122753038Y-78855561D01*
X122762812Y-78851003D01*
X123115495Y-78704917D01*
X123125627Y-78701229D01*
X123489694Y-78586440D01*
X123500108Y-78583649D01*
X123872804Y-78501025D01*
X123883424Y-78499152D01*
X124261894Y-78449326D01*
X124272625Y-78448386D01*
X124656727Y-78431616D01*
X124662120Y-78431499D01*
X124725291Y-78431499D01*
X155593508Y-78431499D01*
X155656694Y-78431499D01*
X155662102Y-78431616D01*
G37*
%TD.AperFunction*%
%TD*%
M02*
